<?xml version="1.0" encoding="utf-8"?>
<!-- Generator: Adobe Illustrator 17.1.0, SVG Export Plug-In . SVG Version: 6.00 Build 0)  -->
<!DOCTYPE svg PUBLIC "-//W3C//DTD SVG 1.1//EN" "http://www.w3.org/Graphics/SVG/1.1/DTD/svg11.dtd">
<svg version="1.1" id="Calque_2" xmlns="http://www.w3.org/2000/svg" xmlns:xlink="http://www.w3.org/1999/xlink" x="0px" y="0px"
	 viewBox="0 0 1440 825.8" enable-background="new 0 0 1440 825.8" xml:space="preserve">
<rect fill="#BB6F82" width="1440" height="900"/>
<g id="XMLID_1_">
	<g>
		<path fill="#0A376D" d="M1357.6,679.7c-2.8-8.1-6.3-15.4-10.5-21.4c-0.4-0.6-0.8-1.1-1.2-1.7c-0.7-5.5,4.3-9,8-8
			c0.9,0.8,1.8,1.7,2.6,2.7c3.3,3.6,6.2,7.9,8.7,12.8c0,0,0,0,0,0c18.5,35.4,8.9,144.3-8.5,178.3h-12.3
			C1360.4,811.7,1369.9,715.3,1357.6,679.7z"/>
		<path fill="#D69476" d="M1365.3,541.4V664c-2.5-4.8-5.4-9.2-8.7-12.8l1.5-4.4l-0.5-0.4v0v-10c0-1.5-0.6-2.9-1.6-3.9l-4.9-4.9
			c-0.7-0.7-1.4-1.2-2.3-1.5c-1.6-4.5-4.2-8.3-7.3-11l-23.8,0.5c-3,2.8-5.5,6.6-6.9,11c-0.6,0.6-1,1.4-1,2.3v1.3
			c-0.4,2.1-0.7,4.3-0.7,6.6c0,2.3,0.2,4.5,0.7,6.6v3.3c0,1.4,0.8,2.6,2.1,3.2l0,0c1.8,3.9,4.3,7.1,7.3,9.4l23.8,0l4.1-1.1
			c4.2,6,7.7,13.3,10.5,21.4c-0.8,0.2-1.5,0.3-2.3,0.3h-50.8c-5.6,0-10-4.5-10-10V541.4c0-5.5,4.5-10,10-10h50.8
			C1360.8,531.4,1365.3,535.9,1365.3,541.4z M1350.5,573.2c0-7.2-3.6-13.5-9.2-17.2l-23.8,0.4c-5.2,3.8-8.6,9.9-8.6,16.8
			c0,7.6,4.1,14.2,10.1,17.8l21.8-0.1C1346.3,587.2,1350.5,580.2,1350.5,573.2z"/>
		<path fill="#658FDB" d="M1358,646.8l-1.5,4.4c-0.9-0.9-1.7-1.8-2.6-2.7c-3.7-1-8.7,2.5-8,8c0.4,0.6,0.8,1.1,1.2,1.7l-4.1,1.1
			c0,0-4.6-3.6-6.7-5.3h0c-0.6-0.5-1-0.9-1-0.9c-1.5-6.5,2.4-12.8,14.1-14.3l8.3,7.6L1358,646.8z"/>
		<path fill="#658FDB" d="M1323.4,654c-1.5-0.1-3-0.5-4.4-1.1l-7.2-3h0c-1.3-0.5-2.1-1.8-2.1-3.2v-3.3v-13.3v-1.3
			c0-0.9,0.4-1.7,1-2.3c0.6-0.6,1.3-0.9,2.2-0.9h33.7c0.7,0,1.5,0.1,2.1,0.4c0.9,0.3,1.7,0.8,2.3,1.5l4.9,4.9c1,1,1.6,2.4,1.6,3.9
			v10v0l-8.3-7.6c-11.7,1.5-15.6,7.8-14.1,14.3c0,0.1,0.4,0.4,1,0.9h-11.5C1324.3,654,1323.9,654,1323.4,654z"/>
		<path fill="#F4C29D" d="M1341.4,556c5.5,3.7,9.2,10,9.2,17.2c0,7-4.3,14-9.6,17.8l-21.8,0.1c-6.1-3.6-10.1-10.2-10.1-17.8
			c0-6.9,3.4-13,8.6-16.8L1341.4,556z"/>
		<path fill="#F4C29D" d="M1348.7,626.1c-0.7-0.3-1.4-0.4-2.1-0.4h-33.7c-0.8,0-1.6,0.3-2.2,0.9c1.5-4.4,3.9-8.2,6.9-11l23.8-0.5
			C1344.6,617.8,1347.1,621.6,1348.7,626.1z"/>
		<path fill="#F4C29D" d="M1323.4,654c0.4,0,0.9,0.1,1.3,0.1h11.5h0c2.1,1.8,6.7,5.3,6.7,5.3l-23.8,0c-3-2.3-5.6-5.6-7.3-9.4l0,0h0
			l7.2,3C1320.4,653.5,1321.9,653.8,1323.4,654z"/>
		<path fill="#624B83" d="M1253.9,766.6c0,6.5,0,26.9,0,101.4h-31.8v-81c0-5.6-4.5-10-10-10h-150.6c-5.6,0-10,4.5-10,10v81H330.1
			v-81c0-5.6-4.5-10-10-10H169.5c-5.5,0-10,4.5-10,10v81h-33.3c0-4.8,0-25.2,0-101.4c0-8.6,5.9-12,12.6-14.9h1102.4
			C1247.9,754.6,1253.9,758,1253.9,766.6z"/>
		<path fill="#1C2684" d="M1165.8,118v491.8c0,5.5-4.5,10-10,10H219.8c-5.5,0-10-4.5-10-10V118c0-5.5,4.5-10,10-10h935.9
			C1161.3,107.9,1165.8,112.4,1165.8,118z"/>
		
			<rect x="201.5" y="542.4" fill="#595959" stroke="#000000" stroke-width="2" stroke-linecap="round" stroke-linejoin="round" stroke-miterlimit="10" width="981.8" height="83.3"/>
		<path fill="#624B83" d="M1251.6,42.7V685c0,5.6-4.5,10-10,10h-87.8H226.4h-83.3c-5.6,0-10-4.5-10-10V67V42.7c0-5.6,4.5-10,10-10
			h1098.5C1247.1,32.7,1251.6,37.2,1251.6,42.7z M1185.3,630.8V99.9c0-5.5-4.5-10-10-10H198.8c-5.6,0-10,4.5-10,10v530.9
			c0,5.5,4.5,10,10,10h976.5C1180.8,640.9,1185.3,636.4,1185.3,630.8z"/>
		<path fill="#624B83" d="M1241.3,751.7H138.8c1.4-0.6,2.9-1.2,4.3-1.8c8.2-3.5,83.2-36.5,83.2-36.5v1.7c0,5.6,4.5,10,10,10h907.3
			c5.5,0,10-4.5,10-10v-1.7c0,0,75.1,33,83.2,36.5C1238.4,750.5,1239.9,751.1,1241.3,751.7z"/>
		<path fill="#097055" d="M1183.3,868h-44.9h-44.9h-42v-81c0-5.6,4.5-10,10-10H1212c5.5,0,10,4.5,10,10v81H1183.3z"/>
		<path fill="#097055" d="M291,868h-44.9h-44.9h-42v-81c0-5.6,4.5-10,10-10h150.6c5.5,0,10,4.5,10,10v81H291z"/>
		<path fill="#334257" d="M1185.3,99.9v530.9c0,5.5-4.5,10-10,10H198.8c-5.6,0-10-4.5-10-10V99.9c0-5.5,4.5-10,10-10h976.5
			C1180.8,89.9,1185.3,94.4,1185.3,99.9z M1165.8,609.8V118c0-5.5-4.5-10-10-10H219.8c-5.5,0-10,4.5-10,10v491.8c0,5.5,4.5,10,10,10
			h935.9C1161.3,619.8,1165.8,615.3,1165.8,609.8z"/>
		<path fill="#624B83" d="M1153.7,713.4v1.7c0,5.6-4.5,10-10,10H236.4c-5.5,0-10-4.5-10-10v-1.7v-18.3h927.4V713.4z"/>
		<path opacity="0.61" fill="#723442" d="M226.4,695.1v18.3c0,0-75.1,33-83.2,36.5c-1.4,0.6-2.9,1.2-4.3,1.8
			c-6.7,2.9-12.6,6.3-12.6,14.9c0,6.5,0,96.6,0,100.5h-13.3l-0.3-0.3c0-18.6,2.7-110.7-5.3-110.7s-16.1,0-31.5,0
			c-15.5,0-14.6-1.9-14.6-14.6c0-12.7,0-588.2,0-625.6s12-35.5,20.7-41.5c8.7-6,51.1-7.4,51.1-7.4v618c0,5.6,4.5,10,10,10H226.4z"/>
	</g>
	<g>
		<path fill="none" stroke="#000000" stroke-width="2" stroke-linecap="round" stroke-linejoin="round" stroke-miterlimit="10" d="
			M133,67V42.7c0-5.6,4.5-10,10-10h1098.5c5.5,0,10,4.5,10,10V685c0,5.6-4.5,10-10,10h-87.8H226.4h-83.3c-5.6,0-10-4.5-10-10V67z"/>
		<path fill="none" stroke="#000000" stroke-width="2" stroke-linecap="round" stroke-linejoin="round" stroke-miterlimit="10" d="
			M1185.3,630.8c0,5.5-4.5,10-10,10H198.8c-5.6,0-10-4.5-10-10V99.9c0-5.5,4.5-10,10-10h976.5c5.5,0,10,4.5,10,10V630.8z"/>
		<path fill="none" stroke="#000000" stroke-width="2" stroke-linecap="round" stroke-linejoin="round" stroke-miterlimit="10" d="
			M1165.8,609.8c0,5.5-4.5,10-10,10H219.8c-5.5,0-10-4.5-10-10V118c0-5.5,4.5-10,10-10h935.9c5.5,0,10,4.5,10,10V609.8z"/>
		<path fill="none" stroke="#000000" stroke-width="2" stroke-linecap="round" stroke-linejoin="round" stroke-miterlimit="10" d="
			M226.4,695.1v18.3v1.7c0,5.6,4.5,10,10,10h907.3c5.5,0,10-4.5,10-10v-1.7v-18.3"/>
		<path fill="none" stroke="#000000" stroke-width="2" stroke-linecap="round" stroke-linejoin="round" stroke-miterlimit="10" d="
			M126.2,867.1c0-3.8,0-94,0-100.5c0-8.6,5.9-12,12.6-14.9c1.4-0.6,2.9-1.2,4.3-1.8c8.2-3.5,83.2-36.5,83.2-36.5"/>
		<path fill="none" stroke="#000000" stroke-width="2" stroke-linecap="round" stroke-linejoin="round" stroke-miterlimit="10" d="
			M1253.9,879.9c0-3.8,0-106.8,0-113.3c0-8.6-5.9-12-12.6-14.9c-1.4-0.6-2.9-1.2-4.3-1.8c-8.2-3.5-83.2-36.5-83.2-36.5"/>
		
			<polyline fill="none" stroke="#000000" stroke-width="2" stroke-linecap="round" stroke-linejoin="round" stroke-miterlimit="10" points="
			138.8,751.7 1241.3,751.7 1241.4,751.7 		"/>
		<path fill="none" stroke="#000000" stroke-width="2" stroke-linecap="round" stroke-linejoin="round" stroke-miterlimit="10" d="
			M1357.6,679.7L1357.6,679.7c-0.8,0.2-1.5,0.3-2.3,0.3h-50.8c-5.6,0-10-4.5-10-10V541.4c0-5.5,4.5-10,10-10h50.8
			c5.6,0,10,4.5,10,10V664"/>
		<path fill="none" stroke="#000000" stroke-width="2" stroke-linecap="round" stroke-linejoin="round" stroke-miterlimit="10" d="
			M1350.5,573.2c0,7-4.3,14-9.6,17.8l-21.8,0.1c-6.1-3.6-10.1-10.2-10.1-17.8c0-6.9,3.4-13,8.6-16.8l23.8-0.4
			C1346.9,559.7,1350.5,566,1350.5,573.2z"/>
		<path fill="none" stroke="#000000" stroke-width="2" stroke-linecap="round" stroke-linejoin="round" stroke-miterlimit="10" d="
			M1310.7,626.6c1.5-4.4,3.9-8.2,6.9-11l23.8-0.5c3.2,2.7,5.8,6.5,7.3,11"/>
		<path fill="none" stroke="#000000" stroke-width="2" stroke-linecap="round" stroke-linejoin="round" stroke-miterlimit="10" d="
			M1309.7,643.5c-0.4-2.1-0.7-4.3-0.7-6.6c0-2.3,0.2-4.5,0.7-6.6"/>
		<path fill="none" stroke="#000000" stroke-width="2" stroke-linecap="round" stroke-linejoin="round" stroke-miterlimit="10" d="
			M1343,659.4l-23.8,0c-3-2.3-5.6-5.6-7.3-9.4"/>
		
			<line fill="none" stroke="#000000" stroke-width="2" stroke-linecap="round" stroke-linejoin="round" stroke-miterlimit="10" x1="1323.1" y1="568.4" x2="1323.1" y2="577.9"/>
		
			<line fill="none" stroke="#000000" stroke-width="2" stroke-linecap="round" stroke-linejoin="round" stroke-miterlimit="10" x1="1337.5" y1="568.4" x2="1337.5" y2="577.9"/>
		
			<line fill="none" stroke="#000000" stroke-width="2" stroke-linecap="round" stroke-linejoin="round" stroke-miterlimit="10" x1="1329.8" y1="583.2" x2="1332.3" y2="583.2"/>
		<path fill="none" stroke="#000000" stroke-width="2" stroke-linecap="round" stroke-linejoin="round" stroke-miterlimit="10" d="
			M1356.7,842.3c17.4-34.1,27-143,8.5-178.3c0,0,0,0,0,0c-2.5-4.8-5.4-9.2-8.7-12.8c-0.9-0.9-1.7-1.8-2.6-2.7c-3.7-1-8.7,2.5-8,8
			c0.4,0.6,0.8,1.1,1.2,1.7c4.2,6,7.7,13.3,10.5,21.4c12.4,35.7,2.8,132.1-13.2,162.6"/>
		<path fill="none" stroke="#000000" stroke-width="2" stroke-linecap="round" stroke-linejoin="round" stroke-miterlimit="10" d="
			M1336.2,654c2.1,1.8,6.7,5.3,6.7,5.3l4.1-1.1"/>
		<path fill="none" stroke="#000000" stroke-width="2" stroke-linecap="round" stroke-linejoin="round" stroke-miterlimit="10" d="
			M1356.5,651.2l1.5-4.4l-0.5-0.4l-8.3-7.6c-11.7,1.5-15.6,7.8-14.1,14.3c0,0.1,0.4,0.4,1,0.9"/>
		<path fill="none" stroke="#000000" stroke-width="2" stroke-linecap="round" stroke-linejoin="round" stroke-miterlimit="10" d="
			M1336.2,654L1336.2,654h-11.5c-0.4,0-0.9,0-1.3-0.1c-1.5-0.1-3-0.5-4.4-1.1l-7.2-3h0c-1.3-0.5-2.1-1.8-2.1-3.2v-3.3v-13.3v-1.3
			c0-0.9,0.4-1.7,1-2.3c0.6-0.6,1.3-0.9,2.2-0.9h33.7c0.7,0,1.5,0.1,2.1,0.4c0.9,0.3,1.7,0.8,2.3,1.5l4.9,4.9c1,1,1.6,2.4,1.6,3.9
			v10"/>
		
			<line fill="none" stroke="#000000" stroke-width="2" stroke-linecap="round" stroke-linejoin="round" stroke-miterlimit="10" x1="1313.1" y1="630.3" x2="1321.1" y2="634.9"/>
		
			<line fill="none" stroke="#000000" stroke-width="2" stroke-linecap="round" stroke-linejoin="round" stroke-miterlimit="10" x1="1326.1" y1="636.4" x2="1354.2" y2="634.9"/>
		
			<polyline fill="none" stroke="#000000" stroke-width="2" stroke-linecap="round" stroke-linejoin="round" stroke-miterlimit="10" points="
			1323.4,641.1 1323.4,654 1323.4,654 		"/>
		<path fill="none" stroke="#000000" stroke-width="2" stroke-linecap="round" stroke-linejoin="round" stroke-miterlimit="10" d="
			M1222.1,802.1v10.4c0,5.6-4.5,10-10,10h-150.6c-5.5,0-10-4.5-10-10v-10.4v-4.7V787c0-5.6,4.5-10,10-10H1212c5.5,0,10,4.5,10,10
			v10.4V802.1z"/>
		
			<line fill="none" stroke="#000000" stroke-width="2" stroke-linecap="round" stroke-linejoin="round" stroke-miterlimit="10" x1="1072.8" y1="777" x2="1072.8" y2="822.5"/>
		
			<line fill="none" stroke="#000000" stroke-width="2" stroke-linecap="round" stroke-linejoin="round" stroke-miterlimit="10" x1="1094.1" y1="777" x2="1094.1" y2="822.5"/>
		<path fill="none" stroke="#000000" stroke-width="2" stroke-linecap="round" stroke-linejoin="round" stroke-miterlimit="10" d="
			M1141.3,816.8"/>
		<path fill="none" stroke="#000000" stroke-width="2" stroke-linecap="round" stroke-linejoin="round" stroke-miterlimit="10" d="
			M1141.3,777.9"/>
		
			<line fill="none" stroke="#000000" stroke-width="2" stroke-linecap="round" stroke-linejoin="round" stroke-miterlimit="10" x1="1115.4" y1="777" x2="1115.4" y2="822.5"/>
		
			<line fill="none" stroke="#000000" stroke-width="2" stroke-linecap="round" stroke-linejoin="round" stroke-miterlimit="10" x1="1136.8" y1="777" x2="1136.8" y2="822.5"/>
		
			<line fill="none" stroke="#000000" stroke-width="2" stroke-linecap="round" stroke-linejoin="round" stroke-miterlimit="10" x1="1158.1" y1="777" x2="1158.1" y2="822.5"/>
		
			<line fill="none" stroke="#000000" stroke-width="2" stroke-linecap="round" stroke-linejoin="round" stroke-miterlimit="10" x1="1179.4" y1="777" x2="1179.4" y2="822.5"/>
		
			<line fill="none" stroke="#000000" stroke-width="2" stroke-linecap="round" stroke-linejoin="round" stroke-miterlimit="10" x1="1200.7" y1="777" x2="1200.7" y2="822.5"/>
		<path fill="none" stroke="#000000" stroke-width="2" stroke-linecap="round" stroke-linejoin="round" stroke-miterlimit="10" d="
			M329.8,802.1v10.4c0,5.6-4.5,10-10,10H169.2c-5.5,0-10-4.5-10-10v-10.4v-4.7V787c0-5.6,4.5-10,10-10h150.6c5.5,0,10,4.5,10,10
			v10.4V802.1z"/>
		
			<line fill="none" stroke="#000000" stroke-width="2" stroke-linecap="round" stroke-linejoin="round" stroke-miterlimit="10" x1="180.5" y1="777" x2="180.5" y2="822.5"/>
		
			<line fill="none" stroke="#000000" stroke-width="2" stroke-linecap="round" stroke-linejoin="round" stroke-miterlimit="10" x1="201.8" y1="777" x2="201.8" y2="822.5"/>
		<path fill="none" stroke="#000000" stroke-width="2" stroke-linecap="round" stroke-linejoin="round" stroke-miterlimit="10" d="
			M249,816.8"/>
		<path fill="none" stroke="#000000" stroke-width="2" stroke-linecap="round" stroke-linejoin="round" stroke-miterlimit="10" d="
			M249,777.9"/>
		
			<line fill="none" stroke="#000000" stroke-width="2" stroke-linecap="round" stroke-linejoin="round" stroke-miterlimit="10" x1="223.2" y1="777" x2="223.2" y2="822.5"/>
		
			<line fill="none" stroke="#000000" stroke-width="2" stroke-linecap="round" stroke-linejoin="round" stroke-miterlimit="10" x1="244.5" y1="777" x2="244.5" y2="822.5"/>
		
			<line fill="none" stroke="#000000" stroke-width="2" stroke-linecap="round" stroke-linejoin="round" stroke-miterlimit="10" x1="265.8" y1="777" x2="265.8" y2="822.5"/>
		
			<line fill="none" stroke="#000000" stroke-width="2" stroke-linecap="round" stroke-linejoin="round" stroke-miterlimit="10" x1="287.1" y1="777" x2="287.1" y2="822.5"/>
		
			<line fill="none" stroke="#000000" stroke-width="2" stroke-linecap="round" stroke-linejoin="round" stroke-miterlimit="10" x1="308.5" y1="777" x2="308.5" y2="822.5"/>
	</g>
</g>
<g>
	<g id="XMLID_2_">
		<g>
			<path fill="#930000" d="M798.4,555.6c0.1-6.8-2.9-15.4-8.7-23.1c-2.7-3.7-5.1-6.1-7.2-7.6c-5.1-3.7-7.9-1.5-8.2,0.5
				c-0.3,0-0.6,0-0.9,0.1c-0.5-6.6,21.4-14.5,29.3-17.1c0.7-0.9,1.6-1.9,2.7-2.8c-6.1-48.8-8.8-68-14.3-73.5c7.6-2.6,8-2.9,11.9,0
				c37.5,30.9,59.3,98.4,40.7,113.1c-14.7,11.6-38.4,22.8-50.3,20.8C796.7,563.9,798.3,560.2,798.4,555.6z"/>
			<path fill="#930000" d="M792.7,486.7c12.2-15.5-4.3-11.4-12.9-4.6c-15.9-11-18.2-5.4-12.4,4.6H792.7z M805.5,505.6
				c-1.1,0.9-2,1.9-2.7,2.8c-7.9,2.6-29.8,10.5-29.3,17.1c-8.1,0.6-19.2,2-27.4,6.7c-6.1-0.6-10.7,1.8-11.8,4.8H721
				c0.2-2.9,0.6-5.7,1.1-8.4h0c30.1-40.6,41.4-44.4,52.3-72.4c0.3-1.2-6-4.8-11.8-7.9c4.1-3.4,10.7-8.7,10.5-10.3
				c-0.1-1.8-3.4-13.6-8.8-22.8l0.1,0c13.9,8,20.5,11.9,26.1,16.3c0.2,0.2,0.5,0.4,0.7,0.6C796.7,437.6,799.4,456.8,805.5,505.6z"/>
			<path fill="#FFD400" d="M773.4,525.5c0.3,0,0.6,0,0.9-0.1c3.7-0.2,6.6-0.3,8.2-0.5c2,1.5,4.4,3.9,7.2,7.6
				c5.7,7.8,8.8,16.4,8.7,23.1c-4.6,3.7-8.1,5.3-11.4,5.7c-2.4,0.3-4.6,0-7.1-0.5c-4.9-1-8.3,0.5-13,4.2c-1.1,0.9-2.3,1.9-3.7,3.1
				c-6.8,6-14.3-0.8-10.9-6.8c0,0-5.5,5.8-9.9,2.1c-2.7-1.8-3.3-4.6-2.5-7.7c-2.3,0-5-2.7-4.4-9.5c0.1-0.6,0.2-1.2,0.4-1.7
				c0.2-0.6,0.4-1.2,0.6-1.8c1.8-4.6,5.2-8,9.5-10.5C754.2,527.5,765.3,526.1,773.4,525.5z"/>
			<path fill="#03487C" d="M779.8,482.1c8.6-6.8,25.1-10.9,12.9,4.6h-25.3C761.6,476.7,763.9,471.1,779.8,482.1z"/>
			<path fill="#3A0000" d="M798.4,555.6c-0.1,4.6-1.7,8.3-4.9,10.3c-3.1-0.5-5.4-1.9-6.5-4.4l0-0.2
				C790.3,560.9,793.8,559.4,798.4,555.6z"/>
			<path fill="#FFFFFF" d="M677.6,596.5l-2.5,0c-0.3,0-0.5-0.3-0.3-0.5l11-23.4c1.3,0.2,2.7-0.1,4-1.1c2.4-1.7,1.8-4.6,0.1-7.6
				l2.3-4.9v0c5.8,5,9.6,6.2,13.2,3.5c1.2-0.9,2-2.6,1.7-4.9l0.1,0c5.6-1.3,6.8-5.7,2.8-12.8l0.2-0.1h25.7c-0.2,0.6-0.3,1.1-0.4,1.7
				c-0.7,6.8,2.1,9.5,4.4,9.5c-0.9,3.2-0.2,6,2.5,7.7c4.4,3.6,9.9-2.1,9.9-2.1c-3.3,6,4.1,12.8,10.9,6.8c1.3-1.2,2.5-2.2,3.7-3.1
				l12.8,31.7c0.1,0.2-0.1,0.5-0.3,0.5l-2.1,0L677.6,596.5z"/>
			<path fill="#FFFFFF" d="M778.4,599.6c0.2,0.3,0,0.6-0.4,0.6h-3.1h-96h-3.2l1.9-3.7l99.6,0.8v0L778.4,599.6z"/>
			<path fill="#3A0000" d="M774.4,525.4c0.3-2.1,3.1-4.2,8.2-0.5C780.9,525.1,778,525.2,774.4,525.4z"/>
			<path fill="#FFFFFF" d="M776.5,603.6c0.1,0.2,0,0.4-0.2,0.4h-98.3c-0.2,0-0.4-0.2-0.3-0.4l1.3-3.3h96v0.3L776.5,603.6z"/>
			<path fill="#930000" d="M762.5,448.4c5.8,3.1,12.1,6.7,11.8,7.9c-10.9,28-22.1,31.8-52.3,72.4h0c0.8-4.2,1.8-8.1,3.1-11.8
				c0.7-1.9,1.4-3.8,2.1-5.6c3.2-7.8,7.3-15.1,11.2-23.1c5.9-11.9,11.8-25.3,14.6-44.6C753.1,443.6,757.7,445.8,762.5,448.4z"/>
			<path fill="#930000" d="M754.8,411.3c0-0.7,0-1.4-0.1-2.1c0.4-1.1,0.7-2.4,0.9-3.9c3.3,1.9,6.2,5.7,8.7,9.9
				c5.4,9.2,8.7,21,8.8,22.8c0.1,1.6-6.4,6.9-10.5,10.3c-4.9-2.6-9.4-4.8-9.4-4.8c0.2-1.6,0.4-3.2,0.6-4.9
				C754.7,430.6,755.1,421.5,754.8,411.3z"/>
			<path fill="#FFD400" d="M712.4,337.1c-5.5,0.3-14.3-0.9-17.3-1.3v0c-1.7,0.9-3.1,2.7-4.1,5c-2.2-4.6-2.6-8.8,0-10.8
				c-1.9-1.1-3.4-14.8-0.4-17.8c13-12.8,26.2,4.4,37.1,3.7c10.9-0.6,25.3-9.3,29.9-5.3c4.6,4,2.9,20.6,1.5,21.5
				c1.8,0.9,3.3,7.4-0.8,10.6h0c-0.7-2-2-3.8-3.9-5.4c-3.4,0.8-11.5,1.5-16.3,1.3v0c-6.8,4.5-3.9,21.4,8.6,20.6
				c5-0.3,8.7-2.8,10.7-6.1l0,0c0,4,1.5,7.6,3.6,6.8l0.1,0.1c0.9-0.9,2.1-1.9,3.4-2.5c1.7-0.8,3.4-1,4.9,0.5
				c2.9,3.2,1.9,17.5-8.8,13.7l-0.4,0c0.2,2.5,0.1,5.7,0,8.1c-0.2,4.3-4.2,11.2-4.3,19c0.1,2.5-0.1,4.6-0.3,6.4
				c-0.2,1.5-0.5,2.7-0.9,3.9c0,0.7,0,1.4,0.1,2.1c-0.9,1.6-8.7,13.9-27.5,16.8c-2.4,0.4-5,0.6-7.7,0.7c-1.2,0-2.3,0-3.4-0.1
				c-22.7-1.2-29-18.1-29.2-18.7c0,0,0,0,0,0c-0.2-0.3-0.4-0.6-0.6-0.8c-0.7-1.1-1.2-2.4-1.5-3.9c-0.8-3.9-0.5-9.1,0.1-16.6
				c0.8-9.5-1.3-13.3-1.2-18.2h0c-9.4,4.1-11.5-3.9-11.3-9.5c0.1-5.6,8.6-5.8,10-3.5s1.7,2.1,2.9,1.8c1.2-0.4,1.6-0.3,1.6-2.7
				s0.5-6.1,3-8.3c0.5,5.1,3.7,9.7,11.6,9.7C717.5,358.2,718.7,341.3,712.4,337.1L712.4,337.1z M703.5,396.7c-0.4,1.3-1,2.8-1.8,4.4
				c6.3,7.6,12.5-0.9,33.9,4.1c-0.3-0.1-6.4-2.8-1.3-6.7v0C725.9,398.4,714.6,390.7,703.5,396.7z M751.8,326.1
				c0.2-2-3.1-3.7-6.2-3.7c-3.1,0-7.3,1.1-6.8,3.7c0.5,2.6,3.8,1.5,5.8,1.6C746.7,327.9,751.6,328.6,751.8,326.1z M711.2,325.5
				c0.5-3-2.9-3.7-6.5-3.8c-3.7-0.2-7.2-0.4-7.1,2.7c0.1,3.1,4.4,2,6.2,2.1C705.5,326.6,710.7,328.5,711.2,325.5z"/>
			<path fill="#FFFFFF" d="M765.5,298.3c11.9,0.2,3.4,35.7-1,59.2c-1.3,0.6-2.4,1.6-3.4,2.5l-0.1-0.1c-2.1,0.8-3.6-2.9-3.6-6.8l0,0
				c1.9-3.1,2.3-7,1-10.5h0c4.1-3.2,2.5-9.7,0.8-10.6c1.4-0.9,3.1-17.5-1.5-21.5c-4.6-4-19,4.6-29.9,5.3
				c-10.9,0.6-24.1-16.5-37.1-3.7c-3.1,3-1.5,16.8,0.4,17.8c-2.6,2-2.2,6.2,0,10.8c-0.9,2.3-1.4,4.9-1.2,7.5c-2.4,2.2-3,5.9-3,8.3
				s-0.4,2.3-1.6,2.7c-1.2,0.4-1.5,0.5-2.9-1.8c-10.4-64.1,2.7-62.5,7.5-62.5c12.3,0,6.5-4.6,16.3-4.2c12.7,1.2,13-5.5,22.2-5.4
				c9.2,0.1,13.5,6.3,19.8,6.2C757.8,291.6,755.3,298.1,765.5,298.3z"/>
			<path fill="#FFFFFF" d="M758.5,342.7c1.3,3.5,0.9,7.3-1,10.5c-2,3.3-5.6,5.8-10.7,6.1c-12.5,0.8-15.3-16.1-8.6-20.6v0
				c4.8,0.2,12.9-0.5,16.3-1.3C756.5,338.8,757.7,340.7,758.5,342.7z M749.2,347.3c0-1.2-1-2.1-2.1-2.1c-1.2,0-2.1,1-2.1,2.1
				c0,1.2,1,2.1,2.1,2.1C748.3,349.5,749.2,348.5,749.2,347.3z"/>
			<path fill="#FFFFFF" d="M754.8,411.3c0.3,10.3-0.1,19.3-1,27.4c0,0-16.8,11.7-18.1,8.5c-0.5-1.2-2.3-7.1-4.5-12.2
				c-1.3-3.1-2.7-5.8-3.9-6.9C746,425.1,753.8,412.8,754.8,411.3z"/>
			<path fill="#FFFFFF" d="M753.8,438.7c-0.2,1.7-0.4,3.3-0.6,4.9c-2.8,19.3-8.7,32.7-14.6,44.6c-0.2-2.3-5.6-24-10.7-39.3
				c1.5-1.3,2.3-4.8,3.4-13.9c2.1,5,4,11,4.5,12.2C737,450.4,753.8,438.7,753.8,438.7z"/>
			<path fill="#FFFFFF" d="M745.6,322.5c3.1,0,6.4,1.7,6.2,3.7c-0.3,2.5-5.1,1.8-7.2,1.6c-2.1-0.1-5.3,1-5.8-1.6
				C738.3,323.5,742.5,322.5,745.6,322.5z"/>
			<circle fill="#1C0000" cx="747.1" cy="347.3" r="2.1"/>
			<path fill="#FFD400" d="M734.2,537c1.1-3,5.7-5.4,11.8-4.8c-4.3,2.5-7.7,5.9-9.5,10.5C734.2,540.9,733.6,538.8,734.2,537z"/>
			<path fill="#03487C" d="M727.8,448.9c5.1,15.3,10.4,37,10.7,39.3c-4,8-8,15.2-11.2,23.1c0,0-8.8-7.2-18.3-22.1c0,0,2-17.7,9.3-40
				c1.3,1.1,2.5,0.6,4.6,0.6C725.1,449.6,726.7,449.9,727.8,448.9z"/>
			<path fill="#1E0000" d="M734.3,398.6L734.3,398.6c-5.1,3.9,1,6.6,1.3,6.7c-21.4-5.1-27.6,3.5-33.9-4.1c0.8-1.6,1.4-3.1,1.8-4.4
				C714.6,390.7,725.9,398.4,734.3,398.6z"/>
			<path fill="#03487C" d="M718.2,449.1c-1.5-1.2-3.2-4.5-6.7-12.8h0c1.4-2.9,2.9-5.6,4.6-7.5l0-0.1c1.1,0.1,2.2,0.1,3.4,0.1
				c2.8,0,5.3-0.3,7.7-0.7c1.3,1.1,2.7,3.8,3.9,6.9c-1,9.1-1.9,12.6-3.4,13.9c-1.2,1-2.7,0.7-5,0.8
				C720.7,449.7,719.5,450.1,718.2,449.1z"/>
			<path fill="#930000" d="M684.7,445.5c1.6-0.9,3.3-1.7,5-2.6l0.4-0.1c4.4,19.9,11.8,35.2,18.8,46.3c9.5,14.9,18.3,22.1,18.3,22.1
				c-0.8,1.8-1.5,3.7-2.1,5.6c-40.1-21.6-57.2-61.7-55-63.1C671.8,452.6,677.4,449.4,684.7,445.5z"/>
			<path fill="#930000" d="M725.1,516.9c-1.3,3.7-2.3,7.6-3.1,11.8c-0.5,2.7-0.9,5.4-1.1,8.4h-12.3l-0.2,0.1
				c-1.2-2.8-5.1-3.7-8.9-3.3c-6.4-3.7-15.6-5.8-27.4-6.8l0-0.2c-0.2-1.4-0.9-2.4-1.8-3c-5.3-3.8-14.9-9.5-18.5-11.5
				c-2.4-1.4-6.6-4.2-12-5.8c0-1.8-0.4-3.3-1.5-4.5v0c-1.9-4.6,18.5-63.4,6.4-73.3c-0.8-0.6-1.7-1-2.7-1.2
				c17.7-10.6,32.4-14.6,36.6-15.7c-4.2,7.1-8.8,18.3-10.5,25.5c-0.3,1.5,15,7.6,16.4,8.2c-7.3,3.9-12.9,7.1-14.6,8.3
				C667.9,455.2,685,495.3,725.1,516.9z"/>
			<path fill="#FFFFFF" d="M716.1,428.7L716.1,428.7c-1.7,2-3.3,4.7-4.6,7.6c-2.5,5.3-4.3,11-4.7,12.1c-0.6,1.8-17.7-10.7-17.7-10.7
				c-1.6-8.7-2.6-18.2-2.8-28.5c0.2,0.3,0.4,0.6,0.6,0.8c0,0,0,0,0,0C687.1,410.5,693.4,427.4,716.1,428.7z"/>
			<path fill="#FFFFFF" d="M712.4,337.1c6.3,4.2,5.1,21.1-10.8,20.9c-7.9-0.1-11.1-4.7-11.6-9.7c-0.3-2.6,0.2-5.3,1.2-7.5
				c1-2.3,2.4-4.2,4.1-5v0C698,336.1,706.9,337.3,712.4,337.1L712.4,337.1z M705.9,345.7c0-1.2-1-2.1-2.1-2.1c-1.2,0-2.1,1-2.1,2.1
				s1,2.1,2.1,2.1C704.9,347.8,705.9,346.9,705.9,345.7z"/>
			<path fill="#FFFFFF" d="M711.5,436.3c3.5,8.3,5.2,11.6,6.7,12.8c-7.3,22.4-9.3,40-9.3,40c-7.1-11.1-14.5-26.5-18.8-46.3
				c-0.4-1.7-0.7-3.4-1-5.1c0,0,17,12.5,17.7,10.7C707.2,447.2,709,441.5,711.5,436.3L711.5,436.3z"/>
			<path fill="#FFFFFF" d="M704.7,321.7c3.7,0.2,7,0.8,6.5,3.8c-0.5,3-5.8,1.1-7.5,1c-1.7-0.1-6.1,1-6.2-2.1
				C697.5,321.3,701.1,321.5,704.7,321.7z"/>
			<path fill="#FFD400" d="M699.6,533.8c3.2,1.8,5.7,4,7.6,6.6c0.4,0.6,0.8,1.1,1.2,1.6c0.6,0.9,1.2,1.8,1.6,2.7
				c4,7.1,2.8,11.5-2.8,12.8l-0.1,0c0.3,2.3-0.5,4-1.7,4.9c-3.6,2.7-7.4,1.5-13.2-3.5c-0.2-0.2-0.4-0.3-0.6-0.5
				c-4.9-4.2-12.3-6.6-12.7-6.7c0.3,0.2,7.7,6.5,10.9,12.1c1.7,3,2.3,5.9-0.1,7.6c-1.3,1-2.7,1.3-4,1.1c-3.2-0.4-6.3-3.4-8.5-5.2
				c-3-2.6-4.7-5.4-14.6-5c-2.4,0.1-4.5,0-6.4-0.3c-9.1-1.4-12.9-6.6-13.2-7c0,0,0,0,0,0c-0.2-5.9,1.4-12.9,4.8-18
				c3.1-4.6,6.8-8.1,10.4-10.5c5,0,9.7,0.2,14,0.5C684,528,693.2,530.1,699.6,533.8z"/>
			<path fill="#FFD400" d="M708.5,537.1c0.5,1.2,0.6,2.9-0.1,4.9c-0.4-0.5-0.7-1.1-1.2-1.6c-1.9-2.6-4.4-4.7-7.6-6.6
				C703.4,533.4,707.2,534.2,708.5,537.1z"/>
			<circle fill="#1C0000" cx="703.7" cy="345.7" r="2.1"/>
			<path fill="#930000" d="M690.1,442.8l-0.4,0.1c-1.7,0.9-3.4,1.8-5,2.6c-1.4-0.5-16.8-6.6-16.4-8.2c1.7-7.3,6.4-18.5,10.5-25.5
				c2.4-4.1,4.6-6.7,6-6.5c0.3,1.5,0.8,2.7,1.5,3.9c0.2,10.3,1.2,19.8,2.8,28.5C689.4,439.4,689.8,441.1,690.1,442.8z"/>
			<path fill="#930000" d="M672.2,526.8l0,0.2c-4.3-0.3-9-0.5-14-0.5c5-3.3,9.7-4.3,12.2-2.7C671.4,524.5,672,525.5,672.2,526.8z"/>
			<path fill="#930000" d="M658.2,526.5c-3.6,2.4-7.2,5.9-10.4,10.5c-3.4,5-4.9,12-4.8,18c0,0,0,0,0,0c0.2,7.3,3,13,8,11.1
				c-4.1,2.7-15.5,1.3-30-8.4c-28.1-18.7-39.4-25.2-26-66.7c12.3-38.1,35.8-65.4,47.1-63.4c1,0.2,1.9,0.6,2.7,1.2
				c12,9.9-8.3,68.7-6.4,73.3v0c1.2,1.2,1.6,2.7,1.5,4.5c5.4,1.6,9.5,4.5,12,5.8c3.5,2,13.2,7.7,18.5,11.5
				C667.9,522.2,663.2,523.2,658.2,526.5z"/>
			<path fill="#3A0000" d="M656.3,561.9L656.3,561.9c-1.9,2.2-3.7,3.5-5.2,4.1c0,0,0,0,0,0c-5,1.9-7.8-3.7-8-11.1
				C643.4,555.3,647.2,560.5,656.3,561.9z"/>
		</g>
		<g>
			<path fill="none" stroke="#000000" stroke-width="2" stroke-linecap="round" stroke-linejoin="round" stroke-miterlimit="10" d="
				M694.2,335.6c0,0,0.3,0.1,1,0.1c2.9,0.4,11.8,1.6,17.3,1.3c0.3,0,0.6,0,0.9-0.1"/>
			<path fill="none" stroke="#000000" stroke-width="2" stroke-linecap="round" stroke-linejoin="round" stroke-miterlimit="10" d="
				M695.1,335.7c-1.7,0.9-3.1,2.7-4.1,5c-0.9,2.3-1.4,4.9-1.2,7.5c0.5,5.1,3.7,9.7,11.6,9.7c15.9,0.1,17.1-16.7,10.8-20.9"/>
			<path fill="none" stroke="#000000" stroke-width="2" stroke-linecap="round" stroke-linejoin="round" stroke-miterlimit="10" d="
				M755.4,337.1c-0.2,0.1-0.5,0.1-0.8,0.2c-3.4,0.8-11.5,1.5-16.3,1.3c-0.6,0-1.1-0.1-1.5-0.1"/>
			<path fill="none" stroke="#000000" stroke-width="2" stroke-linecap="round" stroke-linejoin="round" stroke-miterlimit="10" d="
				M754.6,337.3c1.9,1.5,3.2,3.4,3.9,5.4c1.3,3.5,0.9,7.3-1,10.5c-2,3.3-5.6,5.8-10.7,6.1c-12.5,0.8-15.3-16.1-8.6-20.6"/>
			<path fill="none" stroke="#000000" stroke-width="2" stroke-linecap="round" stroke-linejoin="round" stroke-miterlimit="10" d="
				M703.7,326.5c1.7,0.1,7,2,7.5-1c0.5-3-2.9-3.7-6.5-3.8c-3.7-0.2-7.2-0.4-7.1,2.7C697.7,327.5,702,326.4,703.7,326.5z"/>
			<path fill="none" stroke="#000000" stroke-width="2" stroke-linecap="round" stroke-linejoin="round" stroke-miterlimit="10" d="
				M751.8,326.1c0.2-2-3.1-3.7-6.2-3.7c-3.1,0-7.3,1.1-6.8,3.7c0.5,2.6,3.8,1.5,5.8,1.6C746.7,327.9,751.6,328.6,751.8,326.1z"/>
			<path fill="none" stroke="#000000" stroke-width="2" stroke-linecap="round" stroke-linejoin="round" stroke-miterlimit="10" d="
				M691.1,340.8c-2.2-4.6-2.6-8.8,0-10.8c-1.9-1.1-3.4-14.8-0.4-17.8c13-12.8,26.2,4.4,37.1,3.7c10.9-0.6,25.3-9.3,29.9-5.3
				c4.6,4,2.9,20.6,1.5,21.5c1.8,0.9,3.3,7.4-0.8,10.6"/>
			<path fill="none" stroke="#000000" stroke-width="2" stroke-linecap="round" stroke-linejoin="round" stroke-miterlimit="10" d="
				M757.5,353.1c0,4,1.5,7.6,3.6,6.8"/>
			<path fill="none" stroke="#000000" stroke-width="2" stroke-linecap="round" stroke-linejoin="round" stroke-miterlimit="10" d="
				M760.2,360.9c0.3-0.3,0.6-0.6,0.9-0.9c0.9-0.9,2.1-1.9,3.4-2.5c1.7-0.8,3.4-1,4.9,0.5c2.9,3.2,1.9,17.5-8.8,13.7"/>
			<path fill="none" stroke="#000000" stroke-width="2" stroke-linecap="round" stroke-linejoin="round" stroke-miterlimit="10" d="
				M767.4,361.6c-0.8-0.4-2,0.2-2.9,1c-0.9,0.8-1.7,1.8-1.7,2.5"/>
			<path fill="none" stroke="#000000" stroke-width="2" stroke-linecap="round" stroke-linejoin="round" stroke-miterlimit="10" d="
				M765.5,365.9c0-1.8-1.1-3.3-1.1-3.3"/>
			<path fill="none" stroke="#000000" stroke-width="2" stroke-linecap="round" stroke-linejoin="round" stroke-miterlimit="10" d="
				M759.2,368.2c0.5,0.2,0.8,1.7,0.9,3.6c0.2,2.5,0.1,5.7,0,8.1c-0.2,4.3-4.2,11.2-4.3,19c0.1,2.5-0.1,4.6-0.3,6.4
				c-0.2,1.5-0.5,2.7-0.9,3.9c-1.4,4-3.7,6.1-6.4,7.5"/>
			<path fill="none" stroke="#000000" stroke-width="2" stroke-linecap="round" stroke-linejoin="round" stroke-miterlimit="10" d="
				M686.9,410c-0.2-0.3-0.4-0.6-0.6-0.8c-0.7-1.1-1.2-2.4-1.5-3.9c-0.8-3.9-0.5-9.1,0.1-16.6c0.8-9.5-1.3-13.3-1.2-18.2
				c0-1.1,0.1-2.2,0.4-3.5"/>
			<path fill="none" stroke="#000000" stroke-width="2" stroke-linecap="round" stroke-linejoin="round" stroke-miterlimit="10" d="
				M691.8,413.7c-2.1-1.1-3.7-2.3-4.9-3.7"/>
			<path fill="none" stroke="#000000" stroke-width="2" stroke-linecap="round" stroke-linejoin="round" stroke-miterlimit="10" d="
				M689.9,348.3c-2.4,2.2-3,5.9-3,8.3s-0.4,2.3-1.6,2.7c-1.2,0.4-1.5,0.5-2.9-1.8s-9.9-2.1-10,3.5c-0.1,5.6,1.9,13.6,11.3,9.5"/>
			<path fill="none" stroke="#000000" stroke-width="2" stroke-linecap="round" stroke-linejoin="round" stroke-miterlimit="10" d="
				M682.4,364.3c-0.3-1.6-0.7-2.7-1.3-3.4c-1.2-1.4-3-1-5,0.1"/>
			<path fill="none" stroke="#000000" stroke-width="2" stroke-linecap="round" stroke-linejoin="round" stroke-miterlimit="10" d="
				M679.3,365.1c-1.3-2.9,0.6-3.8,1.9-4.3"/>
			<path fill="none" stroke="#000000" stroke-width="2" stroke-linecap="round" stroke-linejoin="round" stroke-miterlimit="10" d="
				M712.4,358c-3.5,4.7-9.4,5.5-13.8,5.3"/>
			<path fill="none" stroke="#000000" stroke-width="2" stroke-linecap="round" stroke-linejoin="round" stroke-miterlimit="10" d="
				M731.9,343.8c4.4,9.5,6.2,27.4,5.8,32.7c0,0-0.2,7.4-20.7,2.1"/>
			<path fill="none" stroke="#000000" stroke-width="2" stroke-linecap="round" stroke-linejoin="round" stroke-miterlimit="10" d="
				M737.8,360.7c4.7,2.7,10.6,2.8,13.3,2.6"/>
			<path fill="none" stroke="#000000" stroke-width="2" stroke-linecap="round" stroke-linejoin="round" stroke-miterlimit="10" d="
				M709.4,379.7c-6.4,6.2-3.6,9.5-5.9,17c-0.4,1.3-1,2.8-1.8,4.4c-0.6,1.1-1.2,2.2-2,3.5"/>
			<path fill="none" stroke="#000000" stroke-width="2" stroke-linecap="round" stroke-linejoin="round" stroke-miterlimit="10" d="
				M735.5,405.3C735.5,405.3,735.5,405.3,735.5,405.3c-0.3-0.1-6.4-2.8-1.3-6.7"/>
			<path fill="none" stroke="#000000" stroke-width="2" stroke-linecap="round" stroke-linejoin="round" stroke-miterlimit="10" d="
				M701.7,401.1c6.3,7.6,12.5-0.9,33.9,4.1"/>
			<path fill="none" stroke="#000000" stroke-width="2" stroke-linecap="round" stroke-linejoin="round" stroke-miterlimit="10" d="
				M741.1,397.5c4.5-1.9,6.2-6.6,1.2-17"/>
			<path fill="none" stroke="#000000" stroke-width="2" stroke-linecap="round" stroke-linejoin="round" stroke-miterlimit="10" d="
				M703.5,396.7c11.1-6.1,22.4,1.7,30.7,1.8c0.1,0,0.3,0,0.4,0c2.4,0,4.6-0.3,6.4-1.1"/>
			<path fill="none" stroke="#000000" stroke-width="2" stroke-linecap="round" stroke-linejoin="round" stroke-miterlimit="10" d="
				M735.5,413.7c4.6-2.4,9.6-5.5,5-9.9c-3.7-3.5-1.3-5.3,0.6-6.3c0,0,0,0,0,0"/>
			<path fill="none" stroke="#000000" stroke-width="2" stroke-linecap="round" stroke-linejoin="round" stroke-miterlimit="10" d="
				M682.4,357.5c-10.4-64.1,2.7-62.5,7.5-62.5c12.3,0,6.5-4.6,16.3-4.2c12.7,1.2,13-5.5,22.2-5.4c9.2,0.1,13.5,6.3,19.8,6.2
				c9.5,0,7,6.5,17.3,6.7c11.9,0.2,3.4,35.7-1,59.2"/>
			<path fill="none" stroke="#000000" stroke-width="2" stroke-linecap="round" stroke-linejoin="round" stroke-miterlimit="10" d="
				M684.8,405.3c-1.4-0.2-3.6,2.5-6,6.5c-4.2,7.1-8.8,18.3-10.5,25.5c-0.3,1.5,15,7.6,16.4,8.2c0.1,0,0.1,0,0.1,0"/>
			<path fill="none" stroke="#000000" stroke-width="2" stroke-linecap="round" stroke-linejoin="round" stroke-miterlimit="10" d="
				M689.7,442.9c-1.7,0.9-3.4,1.8-5,2.6c-7.3,3.9-12.9,7.1-14.6,8.3c-2.1,1.4,14.9,41.5,55,63.1"/>
			<path fill="none" stroke="#000000" stroke-width="2" stroke-linecap="round" stroke-linejoin="round" stroke-miterlimit="10" d="
				M721,537c0.2-2.9,0.6-5.7,1.1-8.4c0.8-4.2,1.8-8.1,3.1-11.8c0.7-1.9,1.4-3.8,2.1-5.6c3.2-7.8,7.3-15.1,11.2-23.1
				c5.9-11.9,11.8-25.3,14.6-44.6c0.2-1.6,0.4-3.2,0.6-4.9c0.9-8.1,1.3-17.1,1-27.4c0-0.7,0-1.4-0.1-2.1"/>
			<path fill="none" stroke="#000000" stroke-width="2" stroke-linecap="round" stroke-linejoin="round" stroke-miterlimit="10" d="
				M755.6,405.3c3.3,1.9,6.2,5.7,8.7,9.9c5.4,9.2,8.7,21,8.8,22.8c0.1,1.6-6.4,6.9-10.5,10.3"/>
			<path fill="none" stroke="#000000" stroke-width="2" stroke-linecap="round" stroke-linejoin="round" stroke-miterlimit="10" d="
				M722.1,528.7c30.1-40.6,41.4-44.4,52.3-72.4c0.3-1.2-6-4.8-11.8-7.9c-4.9-2.6-9.4-4.8-9.4-4.8"/>
			<path fill="none" stroke="#000000" stroke-width="2" stroke-linecap="round" stroke-linejoin="round" stroke-miterlimit="10" d="
				M764.3,415.2c13.9,8,20.5,11.9,26.1,16.3c0.2,0.2,0.5,0.4,0.7,0.6c5.5,5.6,8.3,24.8,14.3,73.5"/>
			<path fill="none" stroke="#000000" stroke-width="2" stroke-linecap="round" stroke-linejoin="round" stroke-miterlimit="10" d="
				M791.2,432.1c7.6-2.6,8-2.9,11.9,0c37.5,30.9,59.3,98.4,40.7,113.1c-14.7,11.6-38.4,22.8-50.3,20.8c-3.1-0.5-5.4-1.9-6.5-4.4"/>
			<path fill="none" stroke="#000000" stroke-width="2" stroke-linecap="round" stroke-linejoin="round" stroke-miterlimit="10" d="
				M774.3,525.6c0-0.1,0-0.1,0-0.2c0.3-2.1,3.1-4.2,8.2-0.5c2,1.5,4.4,3.9,7.2,7.6c5.7,7.8,8.8,16.4,8.7,23.1
				c-0.1,4.6-1.7,8.3-4.9,10.3c-0.1,0.1-0.2,0.1-0.4,0.2"/>
			<path fill="none" stroke="#000000" stroke-width="2" stroke-linecap="round" stroke-linejoin="round" stroke-miterlimit="10" d="
				M815.2,508.1c0,0-7.3-1.3-9.8-0.5c-0.4,0.1-1.3,0.4-2.6,0.8c-7.9,2.6-29.8,10.5-29.3,17.1c0,0,0,0.1,0,0.1"/>
			<path fill="none" stroke="#000000" stroke-width="2" stroke-linecap="round" stroke-linejoin="round" stroke-miterlimit="10" d="
				M802.8,508.4c0.7-0.9,1.6-1.9,2.7-2.8c3.1-2.4,7.7-4.1,13.8-1.5"/>
			<path fill="none" stroke="#000000" stroke-width="2" stroke-linecap="round" stroke-linejoin="round" stroke-miterlimit="10" d="
				M798.4,555.6L798.4,555.6c-4.7,3.7-8.1,5.3-11.4,5.7c-2.4,0.3-4.6,0-7.1-0.5c-4.9-1-8.3,0.5-13,4.2c-1.1,0.9-2.3,1.9-3.7,3.1
				c-6.8,6-14.3-0.8-10.9-6.8c2.8-5.1,10.2-11.8,12-12"/>
			<path fill="none" stroke="#000000" stroke-width="2" stroke-linecap="round" stroke-linejoin="round" stroke-miterlimit="10" d="
				M782.6,524.9c-1.6,0.2-4.6,0.3-8.2,0.5c-0.3,0-0.6,0-0.9,0.1c-8.1,0.6-19.2,2-27.4,6.7c-4.3,2.5-7.7,5.9-9.5,10.5
				c-0.2,0.6-0.4,1.2-0.6,1.8c-0.2,0.6-0.3,1.1-0.4,1.7c-0.7,6.8,2.1,9.5,4.4,9.5h0"/>
			<path fill="none" stroke="#000000" stroke-width="2" stroke-linecap="round" stroke-linejoin="round" stroke-miterlimit="10" d="
				M758.4,537.8c-9.2,3.9-16.8,11.7-18.5,18c-0.9,3.2-0.2,6,2.5,7.7c4.4,3.6,9.9-2.1,9.9-2.1"/>
			<path fill="none" stroke="#000000" stroke-width="2" stroke-linecap="round" stroke-linejoin="round" stroke-miterlimit="10" d="
				M746.1,532.2c-6.1-0.6-10.7,1.8-11.8,4.8c-0.7,1.8,0,3.9,2.3,5.7"/>
			
				<polyline fill="none" stroke="#000000" stroke-width="2" stroke-linecap="round" stroke-linejoin="round" stroke-miterlimit="10" points="
				762.7,486.7 767.4,486.7 792.7,486.7 794.3,486.7 			"/>
			<path fill="none" stroke="#000000" stroke-width="2" stroke-linecap="round" stroke-linejoin="round" stroke-miterlimit="10" d="
				M767.4,486.7c-5.9-10-3.5-15.6,12.4-4.6c0.5,0.3,0.9,0.6,1.4,1"/>
			<path fill="none" stroke="#000000" stroke-width="2" stroke-linecap="round" stroke-linejoin="round" stroke-miterlimit="10" d="
				M779.8,482.1c8.6-6.8,25.1-10.9,12.9,4.6"/>
			<path fill="none" stroke="#000000" stroke-width="2" stroke-linecap="round" stroke-linejoin="round" stroke-miterlimit="10" d="
				M727.3,511.2c0,0-8.8-7.2-18.3-22.1c-7.1-11.1-14.5-26.5-18.8-46.3c-0.4-1.7-0.7-3.4-1-5.1c-1.6-8.7-2.6-18.2-2.8-28.5"/>
			<path fill="none" stroke="#000000" stroke-width="2" stroke-linecap="round" stroke-linejoin="round" stroke-miterlimit="10" d="
				M686.9,410C686.9,410,686.9,410,686.9,410c0.2,0.6,6.5,17.5,29.2,18.7c1.1,0.1,2.2,0.1,3.4,0.1c2.8,0,5.3-0.3,7.7-0.7
				c18.7-3,26.6-15.3,27.5-16.8c0.1-0.1,0.1-0.2,0.1-0.2"/>
			<path fill="none" stroke="#000000" stroke-width="2" stroke-linecap="round" stroke-linejoin="round" stroke-miterlimit="10" d="
				M716.1,428.8c-1.7,1.9-3.3,4.6-4.6,7.5c-2.5,5.3-4.3,11-4.7,12.1c-0.6,1.8-17.7-10.7-17.7-10.7"/>
			<path fill="none" stroke="#000000" stroke-width="2" stroke-linecap="round" stroke-linejoin="round" stroke-miterlimit="10" d="
				M727.3,428.1c1.3,1.1,2.7,3.8,3.9,6.9c2.1,5,4,11,4.5,12.2c1.3,3.2,18.1-8.5,18.1-8.5"/>
			<path fill="none" stroke="#000000" stroke-width="2" stroke-linecap="round" stroke-linejoin="round" stroke-miterlimit="10" d="
				M711.5,436.3c3.5,8.3,5.2,11.6,6.7,12.8c1.3,1.1,2.5,0.6,4.6,0.6c2.3-0.1,3.9,0.3,5-0.8c1.5-1.3,2.3-4.8,3.4-13.9"/>
			<path fill="none" stroke="#000000" stroke-width="2" stroke-linecap="round" stroke-linejoin="round" stroke-miterlimit="10" d="
				M718.2,449.1L718.2,449.1c-7.3,22.4-9.3,40.1-9.3,40.1"/>
			<path fill="none" stroke="#000000" stroke-width="2" stroke-linecap="round" stroke-linejoin="round" stroke-miterlimit="10" d="
				M727.8,448.9c5.1,15.3,10.4,37,10.7,39.3"/>
			<path fill="none" stroke="#000000" stroke-width="2" stroke-linecap="round" stroke-linejoin="round" stroke-miterlimit="10" d="
				M651.1,566.1c-4.1,2.7-15.5,1.3-30-8.4c-28.1-18.7-39.4-25.2-26-66.7c12.3-38.1,35.8-65.4,47.1-63.4c1,0.2,1.9,0.6,2.7,1.2
				c12,9.9-8.3,68.7-6.4,73.3"/>
			<path fill="none" stroke="#000000" stroke-width="2" stroke-linecap="round" stroke-linejoin="round" stroke-miterlimit="10" d="
				M643.1,555c0.2,7.3,3,13,8,11.1c0,0,0,0,0,0c1.5-0.6,3.3-1.9,5.2-4"/>
			<path fill="none" stroke="#000000" stroke-width="2" stroke-linecap="round" stroke-linejoin="round" stroke-miterlimit="10" d="
				M672.2,526.8c-0.2-1.4-0.9-2.4-1.8-3c-2.5-1.7-7.2-0.7-12.2,2.7c-3.6,2.4-7.2,5.9-10.4,10.5c-3.4,5-4.9,12-4.8,18"/>
			<path fill="none" stroke="#000000" stroke-width="2" stroke-linecap="round" stroke-linejoin="round" stroke-miterlimit="10" d="
				M624.5,499.3c7.9-0.2,12.1,0.8,14,2.8v0c1.2,1.2,1.6,2.7,1.5,4.5"/>
			<path fill="none" stroke="#000000" stroke-width="2" stroke-linecap="round" stroke-linejoin="round" stroke-miterlimit="10" d="
				M624.9,506.6c5.7-1.8,10.8-1.3,15.1,0c5.4,1.6,9.5,4.5,12,5.8c3.5,2,13.2,7.7,18.5,11.5"/>
			<path fill="none" stroke="#000000" stroke-width="2" stroke-linecap="round" stroke-linejoin="round" stroke-miterlimit="10" d="
				M658.2,526.5C658.2,526.5,658.2,526.5,658.2,526.5c5,0,9.7,0.2,14,0.5c11.8,0.9,21,3.1,27.4,6.8c3.2,1.8,5.7,4,7.6,6.6
				c0.4,0.6,0.8,1.1,1.2,1.6c0.6,0.9,1.2,1.8,1.6,2.7c4,7.1,2.8,11.5-2.8,12.8"/>
			<path fill="none" stroke="#000000" stroke-width="2" stroke-linecap="round" stroke-linejoin="round" stroke-miterlimit="10" d="
				M678.9,551.7c0.3,0.2,7.7,6.5,10.9,12.1c1.7,3,2.3,5.9-0.1,7.6c-1.3,1-2.7,1.3-4,1.1c-3.2-0.4-6.3-3.4-8.5-5.2
				c-3-2.6-4.7-5.4-14.6-5c-2.4,0.1-4.5,0-6.4-0.3c-9.1-1.4-12.9-6.6-13.2-7c0,0,0,0,0,0c0,0,0,0,0,0"/>
			<path fill="none" stroke="#000000" stroke-width="2" stroke-linecap="round" stroke-linejoin="round" stroke-miterlimit="10" d="
				M687.6,537.8c14.1,7.8,19,15,19.6,19.6c0.3,2.3-0.5,4-1.7,4.9c-3.6,2.7-7.4,1.5-13.2-3.5c-0.2-0.2-0.4-0.3-0.6-0.5
				c-4.9-4.2-12.3-6.6-12.7-6.7c0,0,0,0,0,0"/>
			<path fill="none" stroke="#000000" stroke-width="2" stroke-linecap="round" stroke-linejoin="round" stroke-miterlimit="10" d="
				M699.6,533.8L699.6,533.8c3.8-0.4,7.6,0.5,8.9,3.3c0.5,1.2,0.6,2.9-0.1,4.9"/>
			
				<circle fill="none" stroke="#000000" stroke-width="2" stroke-linecap="round" stroke-linejoin="round" stroke-miterlimit="10" cx="703.7" cy="345.7" r="2.1"/>
			
				<circle fill="none" stroke="#000000" stroke-width="2" stroke-linecap="round" stroke-linejoin="round" stroke-miterlimit="10" cx="747.1" cy="347.3" r="2.1"/>
			<path fill="none" stroke="#000000" stroke-width="2" stroke-linecap="round" stroke-linejoin="round" stroke-miterlimit="10" d="
				M642.2,427.5c17.7-10.6,32.4-14.6,36.6-15.7"/>
			<path fill="none" stroke="#000000" stroke-width="2" stroke-linecap="round" stroke-linejoin="round" stroke-miterlimit="10" d="
				M685.8,572.5l-11,23.4c-0.1,0.3,0.1,0.5,0.3,0.5l2.5,0l99.6,0.8l2.1,0c0.3,0,0.4-0.3,0.3-0.5l-12.8-31.7"/>
			
				<line fill="none" stroke="#000000" stroke-width="2" stroke-linecap="round" stroke-linejoin="round" stroke-miterlimit="10" x1="692.2" y1="558.9" x2="689.9" y2="563.8"/>
			<path fill="none" stroke="#000000" stroke-width="2" stroke-linecap="round" stroke-linejoin="round" stroke-miterlimit="10" d="
				M677.6,596.5L677.6,596.5l-1.9,3.7h3.2h96h3.1c0.3,0,0.5-0.3,0.4-0.6l-1.3-2.3"/>
			<path fill="none" stroke="#000000" stroke-width="2" stroke-linecap="round" stroke-linejoin="round" stroke-miterlimit="10" d="
				M678.9,600.2l-1.3,3.3c-0.1,0.2,0.1,0.4,0.3,0.4h98.3c0.2,0,0.3-0.2,0.2-0.4l-1.5-3.1"/>
			
				<polyline fill="none" stroke="#000000" stroke-width="2" stroke-linecap="round" stroke-linejoin="round" stroke-miterlimit="10" points="
				710.2,544.5 735.9,544.5 736,544.5 			"/>
			
				<polyline fill="none" stroke="#000000" stroke-width="2" stroke-linecap="round" stroke-linejoin="round" stroke-miterlimit="10" points="
				708.6,537 721,537 734.2,537 734.3,537 			"/>
		</g>
	</g>
	<path fill="none" stroke="#000000" stroke-width="2" stroke-linecap="round" stroke-linejoin="round" stroke-miterlimit="10" d="
		M686,303.1c-0.3,2.9,0.9,6.1,2.4,6.8"/>
	<path fill="none" stroke="#000000" stroke-width="2" stroke-linecap="round" stroke-linejoin="round" stroke-miterlimit="10" d="
		M690.5,298.4c0.1,2.2,0.6,4.9,1.9,5.6"/>
	<path fill="none" stroke="#000000" stroke-width="2" stroke-linecap="round" stroke-linejoin="round" stroke-miterlimit="10" d="
		M700.3,297.1c-0.1,2.7,0.8,5.9,1.6,6.4"/>
	<path fill="none" stroke="#000000" stroke-width="2" stroke-linecap="round" stroke-linejoin="round" stroke-miterlimit="10" d="
		M709.6,295.1c-0.3,2.7,0.7,8.8,1.1,8.9"/>
	<path fill="none" stroke="#000000" stroke-width="2" stroke-linecap="round" stroke-linejoin="round" stroke-miterlimit="10" d="
		M721.4,293.2c-1.5,2.7-2.5,10.7,1.3,16.3"/>
	<path fill="none" stroke="#000000" stroke-width="2" stroke-linecap="round" stroke-linejoin="round" stroke-miterlimit="10" d="
		M739.4,294.4c0.7,3.5-0.1,10.3-3.2,14.3"/>
	<path fill="none" stroke="#000000" stroke-width="2" stroke-linecap="round" stroke-linejoin="round" stroke-miterlimit="10" d="
		M749.2,296.4c0.3,3-1.7,8.7-3.2,9.9"/>
	<path fill="none" stroke="#000000" stroke-width="2" stroke-linecap="round" stroke-linejoin="round" stroke-miterlimit="10" d="
		M757,300.3c-0.4,2.7-1.8,4.8-2.3,5.2"/>
	<path fill="none" stroke="#000000" stroke-width="2" stroke-linecap="round" stroke-linejoin="round" stroke-miterlimit="10" d="
		M764.2,303.5c-0.9,2.6-2.3,4.5-3.2,5.3"/>
	<path fill="none" stroke="#000000" stroke-width="2" stroke-linecap="round" stroke-linejoin="round" stroke-miterlimit="10" d="
		M767.5,307.9c-0.6,4.1-3,6.8-3.3,7.1"/>
</g>
</svg>
