<?xml version="1.0" encoding="utf-8"?>
<!-- Generator: Adobe Illustrator 16.0.0, SVG Export Plug-In . SVG Version: 6.00 Build 0)  -->
<!DOCTYPE svg PUBLIC "-//W3C//DTD SVG 1.1//EN" "http://www.w3.org/Graphics/SVG/1.1/DTD/svg11.dtd">
<svg version="1.1" id="Calque_1" xmlns="http://www.w3.org/2000/svg" xmlns:xlink="http://www.w3.org/1999/xlink" x="0px" y="0px"
	 width="283.46px" height="283.46px" viewBox="0 0 283.46 283.46" enable-background="new 0 0 283.46 283.46" xml:space="preserve">
<g>
	<defs>
		<rect id="SVGID_1_" width="283.46" height="283.46"/>
	</defs>
	<clipPath id="SVGID_2_">
		<use xlink:href="#SVGID_1_"  overflow="visible"/>
	</clipPath>
	<path clip-path="url(#SVGID_2_)" fill="#F6F6F6" d="M269.291,141.732c0,70.449-57.109,127.559-127.559,127.559
		S14.173,212.182,14.173,141.732S71.283,14.173,141.732,14.173S269.291,71.283,269.291,141.732"/>
	
		<circle clip-path="url(#SVGID_2_)" fill="none" stroke="#000000" stroke-width="2" stroke-miterlimit="10" cx="141.732" cy="141.732" r="127.559"/>
	<path clip-path="url(#SVGID_2_)" fill="#68A8DE" d="M262.205,141.732c0,66.535-53.938,120.472-120.473,120.472
		c-66.536,0-120.473-53.937-120.473-120.472S75.197,21.26,141.732,21.26C208.268,21.26,262.205,75.197,262.205,141.732"/>
	
		<circle clip-path="url(#SVGID_2_)" fill="none" stroke="#000000" stroke-width="2" stroke-miterlimit="10" cx="141.732" cy="141.732" r="120.473"/>
	<path clip-path="url(#SVGID_2_)" fill="#68A8DE" d="M262.205,141.732c0,66.535-53.938,120.472-120.473,120.472
		c-66.536,0-120.473-53.937-120.473-120.472S75.197,21.26,141.732,21.26C208.268,21.26,262.205,75.197,262.205,141.732"/>
	
		<circle clip-path="url(#SVGID_2_)" fill="none" stroke="#000000" stroke-width="2" stroke-miterlimit="10" cx="141.732" cy="141.732" r="120.473"/>
	<path clip-path="url(#SVGID_2_)" fill="#68A8DE" d="M262.205,141.732c0,66.535-53.938,120.472-120.473,120.472
		c-66.536,0-120.473-53.937-120.473-120.472S75.197,21.26,141.732,21.26C208.268,21.26,262.205,75.197,262.205,141.732"/>
	
		<circle clip-path="url(#SVGID_2_)" fill="none" stroke="#000000" stroke-width="2" stroke-miterlimit="10" cx="141.732" cy="141.732" r="120.473"/>
	<path clip-path="url(#SVGID_2_)" fill="#191814" d="M179.308,229.504c-1.61-0.506-3.568,0.828-4.155-0.364
		c-1.838-3.735-5.443-6.033-7.295-9.702c-2.811-5.57-6.227-10.666-11.877-13.834c0.485-0.521,0.758-1.014,1.175-1.23
		c2.991-1.548,5.929-2.668,7.004-6.718c1.253-4.716-0.979-6.309-4.556-7.884c-1.318-0.58-0.564-2.413-0.532-3.658
		c0.041-1.526,1.38-1.017,2.267-1.104c6.828-0.681,13.688-1.122,20.476-2.083c4.914-0.696,9.863-1.936,14.138-4.505
		c4.45-2.674,4.064-5.861-0.33-8.498c-3.231-1.94-6.765-3.077-10.334-3.821c-3.866-0.808-5.408-3.436-5.142-6.567
		c0.408-4.789,2.231-9.367,2.322-14.331c0.04-2.198,1.03-4.357-0.262-6.494c-1.242-2.056-0.875-3.491,0.791-5.437
		c3.138-3.665,2.818-8.671-0.621-10.117c-5.856-2.46-2.6-3.577,0.272-5.45c7.971-5.194,13.525-11.861,12.272-22.118
		c1.677-0.543,2.223,2.19,3.518,1.158c1.255-1,0.946-3.058,0.344-4.12c-0.927-1.635-0.533-3.217-0.8-4.806
		c-2.076-12.416-7.383-22.764-21.346-27.94c-12.353-4.579-24.838-4.572-37.632-2.934c-17.588,2.252-31.253,11.287-42.543,24.281
		c-3.205,3.689-6.565,7.843-5.483,13.551c0.41,2.164-0.848,1.312-2.153,1.336c-5.155,0.095-11.21-1.942-15.164,2.064
		c-5.946,6.023-9.293,14.061-8.437,22.496c1.15,11.346,6.625,20.816,16.323,27.429c1.208,0.823,1.641,1.94,1.376,3.431
		c-2.034,11.422,2.487,16.997,13.719,17.558c3.418,0.171,7.887,1.807,8.089,5.114c0.564,9.223,1.953,18.443,1.298,27.735
		c-0.106,1.501,0.114,3.082-1.464,3.896c-5.219,2.689-6.383,7.596-7.757,12.737c-0.703,2.635,0.107,5.88-2.814,8.013
		c-5.248,3.833-7.782,10.629-14.246,13.263c-0.768,0.312-1.188,1.489-1.759,2.272c-0.31,0.424-0.608,0.854-0.906,1.282
		c0.676,0.43,1.355,0.856,2.04,1.273c0.738-0.941,1.52-1.858,2.365-2.741c2.621-2.74,5.491-4.512,8.995-2.596
		c3.665,2.004,5.296,5.854,4.304,9.739c-0.281,1.1-0.524,2.2-0.762,3.303c0.683,0.295,1.37,0.583,2.06,0.864
		c0.24-1.071,0.498-2.143,0.775-3.212c1.199-4.629-0.955-10.756-5.117-12.435c-3.916-1.579-2.161-3.102-0.897-4.843
		c1.163-1.605,2.662-2.968,5.033-5.547c-0.381,11.134,3.099,20.114,7.281,28.687c11.875,4.011,24.581,6.214,37.789,6.298
		c-0.005-0.099-0.018-0.189-0.018-0.297c0.008-3.383,3.352-2.067,4.66-3.757c0.508,1.589,0.648,2.953,0.131,3.992
		c1.672-0.056,3.336-0.14,4.989-0.262c-0.033-0.948,0.199-1.904,0.793-2.872c0.713-1.163,0.447-1.831-0.943-1.988
		c-1.792-0.204-2.896-1.239-2.438-2.998c0.691-2.653,2.538,1.173,3.882-1.074c0.272-1.145-3.612-2.519-0.325-4.977
		c1.401-1.047-0.035-5.009-2.774-5.784c-2.412-0.684-3.169,1.429-2.865,3.448c0.509,3.395-2.987,1.64-4.011,3.301
		c0.979,1.987,3.103,0.427,4.624,1.605c-2.818,0.7-7.471,0.17-3.828,5.236c0.564,0.785-0.656,1.816-1.62,2.094
		c-0.953,0.273-1.98,0.28-2.188-1.177c-1.181-8.259-8.007-11.512-13.646-16.164c-7.458-6.153-14.162-13.146-16.746-23.175
		c-1.222-4.743-0.397-9.348-0.462-13.972c-0.128-9.115-0.477-18.208-1.207-27.284c-0.263-3.259,0.791-4.254,4.1-4.176
		c6.826,0.163,6.146-0.128,7.103-7.061c1.464-10.615,0.627-20.99-1.195-31.378c-1.11-6.331-3.604-12.194-7.448-17.35
		c-1.165-1.563-1.845-2.376-0.171-4.042c8.438-8.398,16.432-16.855,29.434-18.707c11.385-1.622,21.942-0.8,30.992,6.208
		c6.145,4.756,9.434,11.621,7.436,19.95c-0.58,2.417-0.514,4.243,2.71,5.033c2.767,0.677,3.654,2.976,2.027,5.671
		c-1.241,2.056-1.417,4.919-5.502,2.217c-4.686-3.099-12.193-0.73-16.532,3.532c-1.3,1.276-1.02,2.207-0.087,3.314
		c3.068,3.641,4.205,8.242,4.871,12.612c0.499,3.27,1.73,4.564,4.479,5.023c2.433,0.407,4.487,2.203,4.474,3.959
		c-0.018,2.146-2.261,3.538-4.754,4.246c-6.943,1.973-13.893,3.273-21.087,1.825c-2.619-0.527-5.796-1.479-5.579-4.526
		c0.208-2.913,2.712-4.709,6.08-4.472c1.207,0.085,2.588,0.384,3.705-0.812c-6.075-2.539-10.195-1.056-11.626,4.018
		c-1.118,3.96,0.746,6.613,4.27,7.568c9.521,2.58,18.743,0.718,27.805-2.574c2.646-0.961,3.505-3.092,3.414-5.366
		c-0.081-2.024-0.904-3.933-3.284-5.015c-1.815-0.824-4.294-0.599-5.711-3.232c4.254-1.166,8.88,0.337,13.057-2.122
		c-0.54,1.603-1.148,3.187-1.609,4.812c-1.973,6.944,1.029,12.045,8.077,13.723c3.965,0.942,7.873,1.948,10.557,5.771
		c-7.029,4.551-14.888,5.987-22.737,7.204c-9.196,1.427-18.513,1.312-27.777,0.97c-5.875-0.216-11.723-1.237-17.581-1.919
		c-4.232-0.492-6.647,2.124-7.715,5.49c-1.264,3.98,0.506,7.092,4.659,8.469c8.876,2.943,18.048,3.404,27.266,2.86
		c2.295-0.135,3.997-2.153,5.511-3.944c0.513-0.606,0.526-2.053,2.046-1.022c0.722,0.488,1.27,0.761,1.375,1.744
		c0.332,3.114-0.31,5.726-3.674,6.638c-3.779,1.024-5.069,3.986-5.211,7.217c-0.3,6.759-0.092,13.541-0.092,20.313
		c0.484,0.031,0.968,0.062,1.45,0.095c1.068-2.217,0.182-4.73,0.63-7.041c5.721,6.237,7.355,15.266,0.89,21.667
		c-1.282,1.269-0.975,2.735-0.985,4.18c-0.033,4.606-0.041,9.211-0.053,13.817c7.012-0.767,13.843-2.132,20.439-4.049
		c-0.438-3.464-0.793-6.952-0.904-10.497c0.953,3.305,1.932,6.603,2.898,9.903c0.748-0.23,1.49-0.474,2.231-0.72
		c-2.028-8.204-4.046-16.414-5.958-24.657c4.187,7.443,7.781,15.086,10.777,22.944c0.72-0.273,1.437-0.55,2.149-0.836
		c-2.706-7.2-5.872-14.295-9.397-21.352c4.143-0.655,6.142,2.039,8.477,3.977c4.427,3.672,7.837,8.123,10.94,12.812
		c0.677-0.347,1.347-0.703,2.016-1.062c-1.124-1.62-2.262-3.232-3.42-4.83C191.26,237.666,186.648,231.807,179.308,229.504
		 M95.198,160.026c1.157-1.239,0.734-2.211,0.171-3.321c-0.532-1.048-0.878-2.342,0.917-2.625c1.347-0.212,2.47,0.564,2.54,1.793
		c0.19,3.318,0.302,6.672,0.009,9.973c-0.167,1.893-2.146,1.143-3.304,1.109c-8.74-0.25-13.553-8.7-10.158-17.779
		c0.396-1.06,1.055-2.021,1.6-3.022c1.905-3.502,4.824-4.892,8.668-3.833c4.606,1.271,3.259,4.981,3.252,8.174
		c-3.349-0.453-6.094-3.38-10.321-1.576C96.317,149.594,90.667,157.562,95.198,160.026 M150.306,90.43
		c-12.97-0.49-26.166,1.795-35.472,13.11c-2.518,3.061-5.471,5.885-8.653,8.239c-2.412,1.785-2.137,2.865-0.312,4.608
		c7.478,7.143,9.017,16.488,10.276,26.204c1.015,7.832,0.491,15.48-0.03,23.244c-0.221,3.277-1.168,4.213-4.377,4.237
		c-10.029,0.076-10.712-0.46-10.737-10.471c-0.005-1.999-0.001-3.998-0.001-5.997c0-1.832,0.07-3.667-0.016-5.496
		c-0.132-2.843,1.078-6.356-2.987-7.534c-3.799-1.101-8.32-1.675-10.604,1.835c-3.768,5.793-5.868,2.578-8.955-0.369
		c-6.275-5.993-9.749-13.302-11.192-21.706c-2.369-13.793,10.427-25.3,23.405-20.992c3.109,1.032,3.653,0.181,2.736-2.723
		c-1.07-3.387-0.473-6.712,1.607-9.498c11.343-15.198,25.756-25.455,45.009-28.185c9.97-1.414,19.776-1.38,29.583,0.999
		c14.344,3.481,23.146,12.339,26.138,26.806c0.434,2.098,1.379,4.719-2.286,5.444c-1.967,0.388-1.036,1.932-0.812,3.227
		c1.256,7.278-3.449,16.177-10.033,19.574c-1.699,0.876-2.297,0.796-2.624-1.136C177.14,97.15,164.865,90.98,150.306,90.43
		 M170.617,150.002c-2.293,0.175-4.953,0.293-4.713-3.869c0.058-0.996-0.958-2.016-1.302-3.082
		c-0.583-1.808-2.873-3.229-1.681-5.411c1.726-3.16,5.072-4.192,8.204-4.467c4.168-0.367,9.759,4.974,9.872,8.664
		C181.127,146.029,176.355,149.98,170.617,150.002 M127.862,193.097c-2.43-0.921-4.932-1.027-4.917-4.509
		c0.014-3.411,2.248-4.328,4.917-5.248V193.097z M138.707,186.591c-0.75,1.071-0.612,2.183-0.724,3.325
		c-0.221,2.268,1.415,5.517-3.381,5.178c-3.953-0.28-5.151-2.064-4.608-5.651c0.049-0.325,0.006-0.665,0.006-1.214
		c0.278-1.554-0.872-4.41,0.579-4.903c2.324-0.789,4.956,1.013,7.658,0.842C139.28,184.102,139.262,185.796,138.707,186.591
		 M148.021,191.869c0.657,3.61-1.001,4.194-4.313,4.274c-3.671,0.089-4.208-1.435-3.335-5.794c0.424-1.098-1.349-5.046,3.439-5.357
		c3.202-0.209,6.415-0.558,4.231,4.425C147.739,190.109,147.876,191.071,148.021,191.869 M151.496,195.814
		c-2.885,0.214-0.761-2.813-1.695-4.277c1.226-2.287-0.907-6.297,4.135-6.619c4.036-0.257,2.828,2.363,3.086,4.419
		C157.553,193.573,154.882,195.563,151.496,195.814"/>
	<path clip-path="url(#SVGID_2_)" fill="#D4841F" d="M155.998,243.48c6.467-6.4,4.831-15.429-0.889-21.667
		c-0.447,2.312,0.439,4.825-0.629,7.041c-0.484-0.03-0.967-0.062-1.451-0.094c0-6.772-0.208-13.554,0.091-20.312
		c0.144-3.231,1.433-6.193,5.211-7.218c3.365-0.911,4.007-3.523,3.675-6.639c-0.105-0.983-0.653-1.255-1.374-1.744
		c-1.521-1.028-1.533,0.416-2.048,1.024c-1.513,1.791-3.215,3.808-5.509,3.943c-9.219,0.545-18.391,0.082-27.267-2.859
		c-4.153-1.377-5.923-4.489-4.659-8.469c1.069-3.366,3.483-5.983,7.715-5.491c5.858,0.682,11.705,1.704,17.581,1.92
		c9.264,0.341,18.581,0.456,27.777-0.97c7.85-1.219,15.708-2.653,22.736-7.205c-2.683-3.823-6.591-4.828-10.556-5.772
		c-7.047-1.676-10.05-6.777-8.077-13.721c0.462-1.626,1.069-3.211,1.61-4.814c-4.178,2.46-8.803,0.956-13.059,2.122
		c1.417,2.634,3.896,2.409,5.713,3.234c2.38,1.081,3.201,2.99,3.282,5.014c0.093,2.274-0.768,4.405-3.413,5.366
		c-9.062,3.293-18.283,5.155-27.805,2.574c-3.523-0.955-5.387-3.608-4.27-7.569c1.431-5.072,5.551-6.555,11.627-4.016
		c-1.118,1.193-2.499,0.895-3.706,0.811c-3.368-0.237-5.872,1.559-6.08,4.471c-0.217,3.048,2.961,3.999,5.579,4.527
		c7.193,1.448,14.144,0.147,21.088-1.825c2.492-0.708,4.734-2.1,4.753-4.246c0.015-1.756-2.041-3.552-4.474-3.959
		c-2.748-0.46-3.979-1.754-4.478-5.023c-0.667-4.37-1.803-8.97-4.872-12.611c-0.932-1.107-1.212-2.038,0.087-3.315
		c4.338-4.261,11.847-6.631,16.532-3.532c4.086,2.702,4.261-0.16,5.503-2.217c1.627-2.695,0.738-4.993-2.028-5.671
		c-3.224-0.789-3.291-2.616-2.711-5.032c1.999-8.33-1.291-15.194-7.434-19.951c-9.051-7.007-19.608-7.83-30.993-6.208
		c-13.002,1.853-20.995,10.31-29.434,18.708c-1.674,1.666-0.993,2.479,0.171,4.041c3.844,5.157,6.338,11.02,7.448,17.35
		c1.822,10.388,2.659,20.764,1.195,31.377c-0.957,6.935-0.277,7.225-7.103,7.062c-3.309-0.079-4.363,0.917-4.1,4.175
		c0.731,9.076,1.079,18.168,1.207,27.284c0.065,4.624-0.76,9.228,0.462,13.972c2.584,10.028,9.288,17.022,16.746,23.175
		c5.639,4.652,12.465,7.904,13.646,16.163c0.208,1.458,1.236,1.45,2.188,1.178c0.964-0.276,2.186-1.31,1.621-2.094
		c-3.643-5.066,1.009-4.536,3.828-5.235c-1.521-1.18-3.646,0.382-4.623-1.606c1.022-1.661,4.519,0.094,4.009-3.301
		c-0.303-2.02,0.455-4.132,2.867-3.448c2.738,0.776,4.174,4.738,2.773,5.785c-3.287,2.457,0.598,3.832,0.325,4.976
		c-1.344,2.247-3.19-1.578-3.882,1.073c-0.459,1.76,0.646,2.794,2.438,2.998c1.391,0.159,1.657,0.826,0.942,1.99
		c-0.593,0.967-0.825,1.923-0.791,2.872c1.423-0.105,2.838-0.239,4.247-0.394c0.013-4.605,0.021-9.212,0.054-13.817
		C155.024,246.216,154.717,244.75,155.998,243.48 M187.02,176.384c-6.57-1.589-11.861-3.09-17.719-2.24
		C172.729,170.665,181.638,171.521,187.02,176.384 M160.795,173.852c-7.251,2.096-14.587,3.484-22.241,2.419
		C145.888,174.832,153.211,173.209,160.795,173.852 M137.392,131c7.646-0.018,13.562,5.111,13.608,11.797
		c0.056,8.031-4.654,12.209-13.754,12.203c-7.778-0.005-14.049-4.98-14.241-11.296C122.781,136.386,128.859,131.02,137.392,131
		 M116.808,185.587c-1.421,3.393-1.615,6.28,2.872,8.667c-3.609,1.437-4.967-0.376-5.58-2.432
		c-2.121-7.117,3.522-15.003,11.121-15.96c0.949-0.12,2.055-0.895,2.275,0.546c0.169,1.099-0.941,1.496-1.992,1.581
		C120.732,178.377,118.491,181.566,116.808,185.587"/>
	<path clip-path="url(#SVGID_2_)" fill="#3D3B38" d="M182.591,114.986c6.584-3.396,11.289-12.296,10.033-19.574
		c-0.224-1.294-1.154-2.838,0.812-3.227c3.666-0.724,2.721-3.346,2.287-5.443c-2.991-14.467-11.794-23.326-26.138-26.806
		c-9.808-2.379-19.612-2.414-29.582-1c-19.253,2.73-33.666,12.987-45.01,28.185c-2.079,2.786-2.676,6.111-1.607,9.498
		c0.917,2.904,0.374,3.756-2.735,2.724c-12.978-4.308-25.774,7.198-23.405,20.992c1.443,8.403,4.917,15.712,11.192,21.705
		c3.087,2.948,5.186,6.163,8.955,0.37c2.284-3.511,6.805-2.936,10.604-1.835c4.065,1.177,2.854,4.689,2.987,7.534
		c0.086,1.827,0.016,3.664,0.016,5.495c0,1.999-0.004,3.997,0.001,5.996c0.025,10.013,0.708,10.549,10.737,10.472
		c3.209-0.025,4.156-0.959,4.376-4.236c0.522-7.764,1.045-15.414,0.031-23.246c-1.259-9.715-2.798-19.059-10.277-26.203
		c-1.824-1.742-2.099-2.823,0.313-4.608c3.182-2.354,6.135-5.177,8.653-8.238c9.306-11.316,22.502-13.601,35.472-13.111
		c14.56,0.55,26.834,6.72,29.661,23.421C180.294,115.783,180.892,115.862,182.591,114.986"/>
	<path clip-path="url(#SVGID_2_)" fill="#528D41" d="M90.483,239.339c-3.504-1.916-6.374-0.144-8.995,2.597
		c-0.844,0.883-1.627,1.8-2.364,2.74c4.759,2.901,9.738,5.477,14.901,7.705c0.238-1.102,0.482-2.202,0.762-3.302
		C95.78,245.194,94.149,241.343,90.483,239.339"/>
	<path clip-path="url(#SVGID_2_)" fill="#528D41" d="M185.673,236.192c-2.335-1.937-4.334-4.632-8.476-3.978
		c3.525,7.058,6.691,14.153,9.398,21.353c3.419-1.373,6.763-2.893,10.019-4.562C193.511,244.315,190.102,239.864,185.673,236.192"/>
	<path clip-path="url(#SVGID_2_)" fill="#4E8740" d="M95.88,227.21c-2.372,2.579-3.87,3.941-5.034,5.547
		c-1.263,1.742-3.018,3.263,0.897,4.842c4.163,1.68,6.317,7.807,5.117,12.436c-0.277,1.068-0.534,2.14-0.775,3.212
		c2.324,0.953,4.681,1.842,7.075,2.65C98.978,247.324,95.498,238.343,95.88,227.21"/>
	<path clip-path="url(#SVGID_2_)" fill="#528D41" d="M179.626,256.117c1.623-0.537,3.229-1.11,4.82-1.714
		c-2.997-7.858-6.592-15.501-10.778-22.943C175.58,239.703,177.598,247.912,179.626,256.117"/>
	<path clip-path="url(#SVGID_2_)" fill="#D4841F" d="M98.893,150.494c0.006-3.192,1.354-6.904-3.252-8.174
		c-3.844-1.059-6.763,0.331-8.668,3.833c-0.545,1.002-1.204,1.963-1.6,3.021c-3.395,9.08,1.418,17.53,10.158,17.78
		c1.158,0.033,3.137,0.783,3.304-1.109c0.293-3.301,0.18-6.654-0.009-9.972c-0.07-1.229-1.193-2.006-2.54-1.794
		c-1.795,0.283-1.449,1.578-0.917,2.625c0.563,1.11,0.986,2.082-0.171,3.321c-4.531-2.465,1.12-10.433-6.626-11.108
		C92.799,147.114,95.543,150.041,98.893,150.494"/>
	<path clip-path="url(#SVGID_2_)" fill="#FFFFFF" d="M171.126,133.174c-3.132,0.275-6.479,1.307-8.204,4.466
		c-1.192,2.182,1.098,3.604,1.681,5.411c0.344,1.065,1.36,2.086,1.302,3.082c-0.241,4.162,2.42,4.043,4.713,3.869
		c5.738-0.021,10.51-3.973,10.38-8.164C180.885,138.147,175.294,132.807,171.126,133.174 M173.608,144.021
		c-1.643,0.064-2.876-0.057-2.636-2.253c0.187-1.706,0.854-2.828,2.664-2.729c1.806,0.099,2.436,1.325,2.36,3.127
		C176.345,144.097,174.979,143.968,173.608,144.021"/>
	<path clip-path="url(#SVGID_2_)" fill="#E3A53D" d="M175.401,257.43c0.666-0.193,1.332-0.388,1.994-0.593
		c-0.969-3.301-1.946-6.6-2.9-9.904C174.608,250.478,174.963,253.965,175.401,257.43"/>
	<path clip-path="url(#SVGID_2_)" fill="#FFFFFF" d="M138.237,184.168c-2.702,0.171-5.334-1.631-7.658-0.842
		c-1.451,0.492-0.301,3.348-0.579,4.901c0,0.55,0.043,0.89-0.006,1.215c-0.543,3.586,0.655,5.371,4.608,5.65
		c4.796,0.34,3.159-2.909,3.381-5.177c0.112-1.144-0.026-2.254,0.723-3.326C139.261,185.796,139.28,184.102,138.237,184.168"/>
	<path clip-path="url(#SVGID_2_)" fill="#FFFFFF" d="M143.812,184.992c-4.788,0.312-3.015,4.261-3.439,5.356
		c-0.874,4.36-0.336,5.885,3.335,5.796c3.312-0.081,4.971-0.664,4.313-4.274c-0.146-0.799-0.281-1.761,0.021-2.453
		C150.226,184.434,147.014,184.784,143.812,184.992"/>
	<path clip-path="url(#SVGID_2_)" fill="#FFFFFF" d="M153.936,184.919c-5.042,0.321-2.909,4.332-4.136,6.618
		c0.936,1.465-1.188,4.491,1.696,4.277c3.386-0.251,6.056-2.241,5.525-6.477C156.764,187.281,157.972,184.662,153.936,184.919"/>
	<path clip-path="url(#SVGID_2_)" fill="#FFFFFF" d="M122.944,188.588c-0.015,3.481,2.487,3.588,4.918,4.509v-9.757
		C125.192,184.26,122.958,185.177,122.944,188.588"/>
	<path clip-path="url(#SVGID_2_)" fill="#D4841F" d="M145.591,258.141c-1.307,1.689-4.65,0.374-4.659,3.757
		c-0.001,0.108,0.012,0.198,0.018,0.297c0.261,0.002,0.521,0.01,0.782,0.01c1.336,0,2.665-0.029,3.99-0.072
		C146.241,261.094,146.1,259.729,145.591,258.141"/>
	<path clip-path="url(#SVGID_2_)" fill="#191814" d="M137.246,155c9.1,0.007,13.81-4.173,13.753-12.202
		c-0.046-6.687-5.962-11.815-13.607-11.798c-8.532,0.02-14.61,5.387-14.387,12.704C123.196,150.021,129.467,154.994,137.246,155
		 M137.396,132.967c6.121,0.121,11.614,4.735,11.604,10.055c-0.009,5.542-5.144,9.983-11.538,9.979
		c-6.665-0.005-12.479-4.316-12.302-9.771C125.297,138.977,130.467,132.831,137.396,132.967"/>
	<path clip-path="url(#SVGID_2_)" fill="#191814" d="M127.496,176.407c-0.22-1.438-1.326-0.666-2.276-0.546
		c-7.599,0.957-13.241,8.845-11.121,15.961c0.613,2.056,1.971,3.869,5.581,2.432c-4.488-2.388-4.293-5.274-2.872-8.667
		c1.683-4.021,3.925-7.21,8.696-7.598C126.555,177.903,127.664,177.507,127.496,176.407"/>
	<path clip-path="url(#SVGID_2_)" fill="#191814" d="M160.795,173.852c-7.584-0.642-14.908,0.981-22.241,2.419
		C146.208,177.336,153.544,175.946,160.795,173.852"/>
	<path clip-path="url(#SVGID_2_)" fill="#191814" d="M187.02,176.384c-5.382-4.862-14.29-5.719-17.719-2.24
		C175.158,173.295,180.449,174.795,187.02,176.384"/>
	<path clip-path="url(#SVGID_2_)" fill="#191814" d="M173.636,139.04c-1.808-0.099-2.477,1.023-2.663,2.729
		c-0.24,2.196,0.993,2.317,2.636,2.253c1.369-0.055,2.735,0.074,2.389-1.855C176.072,140.364,175.442,139.139,173.636,139.04"/>
	<path clip-path="url(#SVGID_2_)" fill="#FFFFFF" d="M137.461,153c6.394,0.004,11.529-4.436,11.539-9.978
		c0.01-5.32-5.483-9.936-11.604-10.055c-6.928-0.137-12.099,6.01-12.236,10.261C124.982,148.684,130.796,152.995,137.461,153
		 M134.617,140.978c1.383,0.046,2.728-0.052,2.381,1.861c0.072,1.811-0.567,3.03-2.373,3.121c-1.81,0.092-2.467-1.037-2.652-2.74
		C131.731,141.01,132.988,140.924,134.617,140.978"/>
	<path clip-path="url(#SVGID_2_)" fill="#191814" d="M134.624,145.96c1.807-0.092,2.445-1.311,2.374-3.121
		c0.346-1.913-0.999-1.816-2.382-1.861c-1.628-0.054-2.885,0.032-2.644,2.242C132.158,144.923,132.814,146.052,134.624,145.96"/>
</g>
</svg>
