<?xml version="1.0" encoding="utf-8"?>
<!-- Generator: Adobe Illustrator 17.1.0, SVG Export Plug-In . SVG Version: 6.00 Build 0)  -->
<!DOCTYPE svg PUBLIC "-//W3C//DTD SVG 1.0//EN" "http://www.w3.org/TR/2001/REC-SVG-20010904/DTD/svg10.dtd" [
	<!ENTITY ns_extend "http://ns.adobe.com/Extensibility/1.0/">
	<!ENTITY ns_ai "http://ns.adobe.com/AdobeIllustrator/10.0/">
	<!ENTITY ns_graphs "http://ns.adobe.com/Graphs/1.0/">
	<!ENTITY ns_vars "http://ns.adobe.com/Variables/1.0/">
	<!ENTITY ns_imrep "http://ns.adobe.com/ImageReplacement/1.0/">
	<!ENTITY ns_sfw "http://ns.adobe.com/SaveForWeb/1.0/">
	<!ENTITY ns_custom "http://ns.adobe.com/GenericCustomNamespace/1.0/">
	<!ENTITY ns_adobe_xpath "http://ns.adobe.com/XPath/1.0/">
]>
<svg version="1.0" xmlns:x="&ns_extend;" xmlns:i="&ns_ai;" xmlns:graph="&ns_graphs;"
	 xmlns="http://www.w3.org/2000/svg" xmlns:xlink="http://www.w3.org/1999/xlink" x="0px" y="0px" viewBox="0 0 283.5 283.5"
	 enable-background="new 0 0 283.5 283.5" xml:space="preserve">
<metadata>
	<sfw  xmlns="&ns_sfw;">
		<slices></slices>
		<sliceSourceBounds  height="267.5" width="267.5" bottomLeftOrigin="true" x="8.6" y="-274"></sliceSourceBounds>
	</sfw>
</metadata>
<g id="Calque_3">
	<circle fill="#E5E682" cx="142.6" cy="142.6" r="127.4"/>
</g>
<g id="Calque_1">
	<circle fill="none" cx="141.7" cy="141.7" r="120.5"/>
	<circle fill="none" cx="141.7" cy="141.7" r="120.5"/>
	<g>
		<path fill="none" d="M77.1,243.4c0.3-0.4,0.6-0.9,0.9-1.3c0.6-0.8,1-2,1.8-2.3c6.5-2.6,9-9.4,14.2-13.3c2.9-2.1,2.1-5.4,2.8-8
			c1.4-5.1,2.5-10,7.8-12.7c1.6-0.8,1.4-2.4,1.5-3.9c0.7-9.3-0.7-18.5-1.3-27.7c-0.2-3.3-4.7-4.9-8.1-5.1
			c-11.2-0.6-15.8-6.1-13.7-17.6c0.3-1.5-0.2-2.6-1.4-3.4c-9.7-6.6-15.2-16.1-16.3-27.4c-0.9-8.4,2.5-16.5,8.4-22.5
			c4-4,10-2,15.2-2.1c1.3,0,2.6,0.8,2.2-1.3c-1.1-5.7,2.3-9.9,5.5-13.6c11.3-13,25-22,42.5-24.3c12.8-1.6,25.3-1.6,37.6,2.9
			c14,5.2,19.3,15.5,21.3,27.9c0.3,1.6-0.1,3.2,0.8,4.8c0.6,1.1,0.9,3.1-0.3,4.1c-1.3,1-1.8-1.7-3.5-1.2
			c1.3,10.3-4.3,16.9-12.3,22.1c-2.9,1.9-6.1,3-0.3,5.5c3.4,1.4,3.8,6.5,0.6,10.1c-1.7,1.9-2,3.4-0.8,5.4c1.3,2.1,0.3,4.3,0.3,6.5
			c-0.1,5-1.9,9.5-2.3,14.3c-0.3,3.1,1.3,5.8,5.1,6.6c3.6,0.7,7.1,1.9,10.3,3.8c4.4,2.6,4.8,5.8,0.3,8.5c-4.3,2.6-9.2,3.8-14.1,4.5
			c-6.8,1-13.6,1.4-20.5,2.1c-0.9,0.1-2.2-0.4-2.3,1.1c0,1.2-0.8,3.1,0.5,3.7c3.6,1.6,5.8,3.2,4.6,7.9c-1.1,4.1-4,5.2-7,6.7
			c-0.4,0.2-0.7,0.7-1.2,1.2c5.7,3.2,9.1,8.3,11.9,13.8c1.9,3.7,5.5,6,7.3,9.7c0.6,1.2,2.5-0.1,4.2,0.4c7.3,2.3,12,8.2,15.9,13.6
			c1.2,1.6,2.3,3.2,3.4,4.8c37.8-20.3,63.6-60.3,63.6-106.2c0-66.5-53.9-120.5-120.5-120.5S21.3,75.2,21.3,141.7
			C21.3,184.5,43.5,222,77.1,243.4z"/>
		<path fill="#13110C" d="M179.3,229.5c-1.6-0.5-3.6,0.8-4.2-0.4c-1.8-3.7-5.4-6-7.3-9.7c-2.8-5.6-6.2-10.7-11.9-13.8
			c0.5-0.5,0.8-1,1.2-1.2c3-1.5,5.9-2.7,7-6.7c1.3-4.7-1-6.3-4.6-7.9c-1.3-0.6-0.6-2.4-0.5-3.7c0-1.5,1.4-1,2.3-1.1
			c6.8-0.7,13.7-1.1,20.5-2.1c4.9-0.7,9.9-1.9,14.1-4.5c4.5-2.7,4.1-5.9-0.3-8.5c-3.2-1.9-6.8-3.1-10.3-3.8
			c-3.9-0.8-5.4-3.4-5.1-6.6c0.4-4.8,2.2-9.4,2.3-14.3c0-2.2,1-4.4-0.3-6.5c-1.2-2.1-0.9-3.5,0.8-5.4c3.1-3.7,2.8-8.7-0.6-10.1
			c-5.9-2.5-2.6-3.6,0.3-5.5c8-5.2,13.5-11.9,12.3-22.1c1.7-0.5,2.2,2.2,3.5,1.2c1.3-1,0.9-3.1,0.3-4.1c-0.9-1.6-0.5-3.2-0.8-4.8
			c-2.1-12.4-7.4-22.8-21.3-27.9c-12.4-4.6-24.8-4.6-37.6-2.9c-17.6,2.3-31.3,11.3-42.5,24.3c-3.2,3.7-6.6,7.8-5.5,13.6
			c0.4,2.2-0.8,1.3-2.2,1.3c-5.2,0.1-11.2-1.9-15.2,2.1c-5.9,6-9.3,14.1-8.4,22.5c1.2,11.3,6.6,20.8,16.3,27.4
			c1.2,0.8,1.6,1.9,1.4,3.4c-2,11.4,2.5,17,13.7,17.6c3.4,0.2,7.9,1.8,8.1,5.1c0.6,9.2,2,18.4,1.3,27.7c-0.1,1.5,0.1,3.1-1.5,3.9
			c-5.2,2.7-6.4,7.6-7.8,12.7c-0.7,2.6,0.1,5.9-2.8,8c-5.2,3.8-7.8,10.6-14.2,13.3c-0.8,0.3-1.2,1.5-1.8,2.3
			c-0.3,0.4-0.6,0.9-0.9,1.3c0.7,0.4,1.4,0.9,2,1.3c0.7-0.9,1.5-1.9,2.4-2.7c2.6-2.7,5.5-4.5,9-2.6c3.7,2,5.3,5.9,4.3,9.7
			c-0.3,1.1-0.5,2.2-0.8,3.3c0.7,0.3,1.4,0.6,2.1,0.9c0.2-1.1,0.5-2.1,0.8-3.2c1.2-4.6-1-10.8-5.1-12.4c-3.9-1.6-2.2-3.1-0.9-4.8
			c1.2-1.6,2.7-3,5-5.5c-0.4,11.1,3.1,20.1,7.3,28.7c11.9,4,24.6,6.2,37.8,6.3c0-0.1,0-0.2,0-0.3c0-3.4,3.4-2.1,4.7-3.8
			c0.5,1.6,0.6,3,0.1,4c1.7-0.1,3.3-0.1,5-0.3c0-0.9,0.2-1.9,0.8-2.9c0.7-1.2,0.4-1.8-0.9-2c-1.8-0.2-2.9-1.2-2.4-3
			c0.7-2.7,2.5,1.2,3.9-1.1c0.3-1.1-3.6-2.5-0.3-5c1.4-1,0-5-2.8-5.8c-2.4-0.7-3.2,1.4-2.9,3.4c0.5,3.4-3,1.6-4,3.3
			c1,2,3.1,0.4,4.6,1.6c-2.8,0.7-7.5,0.2-3.8,5.2c0.6,0.8-0.7,1.8-1.6,2.1c-1,0.3-2,0.3-2.2-1.2c-1.2-8.3-8-11.5-13.6-16.2
			c-7.5-6.2-14.2-13.1-16.7-23.2c-1.2-4.7-0.4-9.3-0.5-14c-0.1-9.1-0.5-18.2-1.2-27.3c-0.3-3.3,0.8-4.3,4.1-4.2
			c6.8,0.2,6.1-0.1,7.1-7.1c1.5-10.6,0.6-21-1.2-31.4c-1.1-6.3-3.6-12.2-7.4-17.3c-1.2-1.6-1.8-2.4-0.2-4
			c8.4-8.4,16.4-16.9,29.4-18.7c11.4-1.6,21.9-0.8,31,6.2c6.1,4.8,9.4,11.6,7.4,20c-0.6,2.4-0.5,4.2,2.7,5c2.8,0.7,3.7,3,2,5.7
			c-1.2,2.1-1.4,4.9-5.5,2.2c-4.7-3.1-12.2-0.7-16.5,3.5c-1.3,1.3-1,2.2-0.1,3.3c3.1,3.6,4.2,8.2,4.9,12.6c0.5,3.3,1.7,4.6,4.5,5
			c2.4,0.4,4.5,2.2,4.5,4c0,2.1-2.3,3.5-4.8,4.2c-6.9,2-13.9,3.3-21.1,1.8c-2.6-0.5-5.8-1.5-5.6-4.5c0.2-2.9,2.7-4.7,6.1-4.5
			c1.2,0.1,2.6,0.4,3.7-0.8c-6.1-2.5-10.2-1.1-11.6,4c-1.1,4,0.7,6.6,4.3,7.6c9.5,2.6,18.7,0.7,27.8-2.6c2.6-1,3.5-3.1,3.4-5.4
			c-0.1-2-0.9-3.9-3.3-5c-1.8-0.8-4.3-0.6-5.7-3.2c4.3-1.2,8.9,0.3,13.1-2.1c-0.5,1.6-1.1,3.2-1.6,4.8c-2,6.9,1,12,8.1,13.7
			c4,0.9,7.9,1.9,10.6,5.8c-7,4.6-14.9,6-22.7,7.2c-9.2,1.4-18.5,1.3-27.8,1c-5.9-0.2-11.7-1.2-17.6-1.9c-4.2-0.5-6.6,2.1-7.7,5.5
			c-1.3,4,0.5,7.1,4.7,8.5c8.9,2.9,18,3.4,27.3,2.9c2.3-0.1,4-2.2,5.5-3.9c0.5-0.6,0.5-2.1,2-1c0.7,0.5,1.3,0.8,1.4,1.7
			c0.3,3.1-0.3,5.7-3.7,6.6c-3.8,1-5.1,4-5.2,7.2c-0.3,6.8-0.1,13.5-0.1,20.3c0.5,0,1,0.1,1.5,0.1c1.1-2.2,0.2-4.7,0.6-7
			c5.7,6.2,7.4,15.3,0.9,21.7c-1.3,1.3-1,2.7-1,4.2c0,4.6,0,9.2-0.1,13.8c7-0.8,13.8-2.1,20.4-4c-0.4-3.5-0.8-7-0.9-10.5
			c1,3.3,1.9,6.6,2.9,9.9c0.7-0.2,1.5-0.5,2.2-0.7c-2-8.2-4-16.4-6-24.7c4.2,7.4,7.8,15.1,10.8,22.9c0.7-0.3,1.4-0.6,2.1-0.8
			c-2.7-7.2-5.9-14.3-9.4-21.4c4.1-0.7,6.1,2,8.5,4c4.4,3.7,7.8,8.1,10.9,12.8c0.7-0.3,1.3-0.7,2-1.1c-1.1-1.6-2.3-3.2-3.4-4.8
			C191.3,237.7,186.6,231.8,179.3,229.5z M95.2,160c1.2-1.2,0.7-2.2,0.2-3.3c-0.5-1-0.9-2.3,0.9-2.6c1.3-0.2,2.5,0.6,2.5,1.8
			c0.2,3.3,0.3,6.7,0,10c-0.2,1.9-2.1,1.1-3.3,1.1c-8.7-0.3-13.6-8.7-10.2-17.8c0.4-1.1,1.1-2,1.6-3c1.9-3.5,4.8-4.9,8.7-3.8
			c4.6,1.3,3.3,5,3.3,8.2c-3.3-0.5-6.1-3.4-10.3-1.6C96.3,149.6,90.7,157.6,95.2,160z M150.3,90.4c-13-0.5-26.2,1.8-35.5,13.1
			c-2.5,3.1-5.5,5.9-8.7,8.2c-2.4,1.8-2.1,2.9-0.3,4.6c7.5,7.1,9,16.5,10.3,26.2c1,7.8,0.5,15.5,0,23.2c-0.2,3.3-1.2,4.2-4.4,4.2
			c-10,0.1-10.7-0.5-10.7-10.5c0-2,0-4,0-6c0-1.8,0.1-3.7,0-5.5c-0.1-2.8,1.1-6.4-3-7.5c-3.8-1.1-8.3-1.7-10.6,1.8
			c-3.8,5.8-5.9,2.6-9-0.4c-6.3-6-9.7-13.3-11.2-21.7c-2.4-13.8,10.4-25.3,23.4-21c3.1,1,3.7,0.2,2.7-2.7c-1.1-3.4-0.5-6.7,1.6-9.5
			c11.3-15.2,25.8-25.5,45-28.2c10-1.4,19.8-1.4,29.6,1c14.3,3.5,23.1,12.3,26.1,26.8c0.4,2.1,1.4,4.7-2.3,5.4c-2,0.4-1,1.9-0.8,3.2
			c1.3,7.3-3.4,16.2-10,19.6c-1.7,0.9-2.3,0.8-2.6-1.1C177.1,97.2,164.9,91,150.3,90.4z M170.6,150c-2.3,0.2-5,0.3-4.7-3.9
			c0.1-1-1-2-1.3-3.1c-0.6-1.8-2.9-3.2-1.7-5.4c1.7-3.2,5.1-4.2,8.2-4.5c4.2-0.4,9.8,5,9.9,8.7C181.1,146,176.4,150,170.6,150z
			 M127.9,193.1c-2.4-0.9-4.9-1-4.9-4.5c0-3.4,2.2-4.3,4.9-5.2C127.9,186.8,127.9,189.8,127.9,193.1z M138.7,186.6
			c-0.7,1.1-0.6,2.2-0.7,3.3c-0.2,2.3,1.4,5.5-3.4,5.2c-4-0.3-5.2-2.1-4.6-5.7c0-0.3,0-0.7,0-1.2c0.3-1.6-0.9-4.4,0.6-4.9
			c2.3-0.8,5,1,7.7,0.8C139.3,184.1,139.3,185.8,138.7,186.6z M148,191.9c0.7,3.6-1,4.2-4.3,4.3c-3.7,0.1-4.2-1.4-3.3-5.8
			c0.4-1.1-1.3-5,3.4-5.4c3.2-0.2,6.4-0.6,4.2,4.4C147.7,190.1,147.9,191.1,148,191.9z M151.5,195.8c-2.9,0.2-0.8-2.8-1.7-4.3
			c1.2-2.3-0.9-6.3,4.1-6.6c4-0.3,2.8,2.4,3.1,4.4C157.6,193.6,154.9,195.6,151.5,195.8z"/>
		<path fill="#EC8500" d="M156,243.5c6.5-6.4,4.8-15.4-0.9-21.7c-0.4,2.3,0.4,4.8-0.6,7c-0.5,0-1-0.1-1.5-0.1
			c0-6.8-0.2-13.6,0.1-20.3c0.1-3.2,1.4-6.2,5.2-7.2c3.4-0.9,4-3.5,3.7-6.6c-0.1-1-0.7-1.3-1.4-1.7c-1.5-1-1.5,0.4-2,1
			c-1.5,1.8-3.2,3.8-5.5,3.9c-9.2,0.5-18.4,0.1-27.3-2.9c-4.2-1.4-5.9-4.5-4.7-8.5c1.1-3.4,3.5-6,7.7-5.5c5.9,0.7,11.7,1.7,17.6,1.9
			c9.3,0.3,18.6,0.5,27.8-1c7.9-1.2,15.7-2.7,22.7-7.2c-2.7-3.8-6.6-4.8-10.6-5.8c-7-1.7-10-6.8-8.1-13.7c0.5-1.6,1.1-3.2,1.6-4.8
			c-4.2,2.5-8.8,1-13.1,2.1c1.4,2.6,3.9,2.4,5.7,3.2c2.4,1.1,3.2,3,3.3,5c0.1,2.3-0.8,4.4-3.4,5.4c-9.1,3.3-18.3,5.2-27.8,2.6
			c-3.5-1-5.4-3.6-4.3-7.6c1.4-5.1,5.6-6.6,11.6-4c-1.1,1.2-2.5,0.9-3.7,0.8c-3.4-0.2-5.9,1.6-6.1,4.5c-0.2,3,3,4,5.6,4.5
			c7.2,1.4,14.1,0.1,21.1-1.8c2.5-0.7,4.7-2.1,4.8-4.2c0-1.8-2-3.6-4.5-4c-2.7-0.5-4-1.8-4.5-5c-0.7-4.4-1.8-9-4.9-12.6
			c-0.9-1.1-1.2-2,0.1-3.3c4.3-4.3,11.8-6.6,16.5-3.5c4.1,2.7,4.3-0.2,5.5-2.2c1.6-2.7,0.7-5-2-5.7c-3.2-0.8-3.3-2.6-2.7-5
			c2-8.3-1.3-15.2-7.4-20c-9.1-7-19.6-7.8-31-6.2c-13,1.9-21,10.3-29.4,18.7c-1.7,1.7-1,2.5,0.2,4c3.8,5.2,6.3,11,7.4,17.3
			c1.8,10.4,2.7,20.8,1.2,31.4c-1,6.9-0.3,7.2-7.1,7.1c-3.3-0.1-4.4,0.9-4.1,4.2c0.7,9.1,1.1,18.2,1.2,27.3c0.1,4.6-0.8,9.2,0.5,14
			c2.6,10,9.3,17,16.7,23.2c5.6,4.7,12.5,7.9,13.6,16.2c0.2,1.5,1.2,1.5,2.2,1.2c1-0.3,2.2-1.3,1.6-2.1c-3.6-5.1,1-4.5,3.8-5.2
			c-1.5-1.2-3.6,0.4-4.6-1.6c1-1.7,4.5,0.1,4-3.3c-0.3-2,0.5-4.1,2.9-3.4c2.7,0.8,4.2,4.7,2.8,5.8c-3.3,2.5,0.6,3.8,0.3,5
			c-1.3,2.2-3.2-1.6-3.9,1.1c-0.5,1.8,0.6,2.8,2.4,3c1.4,0.2,1.7,0.8,0.9,2c-0.6,1-0.8,1.9-0.8,2.9c1.4-0.1,2.8-0.2,4.2-0.4
			c0-4.6,0-9.2,0.1-13.8C155,246.2,154.7,244.8,156,243.5z M187,176.4c-6.6-1.6-11.9-3.1-17.7-2.2
			C172.7,170.7,181.6,171.5,187,176.4z M160.8,173.9c-7.3,2.1-14.6,3.5-22.2,2.4C145.9,174.8,153.2,173.2,160.8,173.9z M137.4,131
			c7.6,0,13.6,5.1,13.6,11.8c0.1,8-4.7,12.2-13.8,12.2c-7.8,0-14-5-14.2-11.3C122.8,136.4,128.9,131,137.4,131z M116.8,185.6
			c-1.4,3.4-1.6,6.3,2.9,8.7c-3.6,1.4-5-0.4-5.6-2.4c-2.1-7.1,3.5-15,11.1-16c0.9-0.1,2.1-0.9,2.3,0.5c0.2,1.1-0.9,1.5-2,1.6
			C120.7,178.4,118.5,181.6,116.8,185.6z"/>
		<path fill="#3B3835" d="M182.6,115c6.6-3.4,11.3-12.3,10-19.6c-0.2-1.3-1.2-2.8,0.8-3.2c3.7-0.7,2.7-3.3,2.3-5.4
			c-3-14.5-11.8-23.3-26.1-26.8c-9.8-2.4-19.6-2.4-29.6-1c-19.3,2.7-33.7,13-45,28.2c-2.1,2.8-2.7,6.1-1.6,9.5
			c0.9,2.9,0.4,3.8-2.7,2.7c-13-4.3-25.8,7.2-23.4,21c1.4,8.4,4.9,15.7,11.2,21.7c3.1,2.9,5.2,6.2,9,0.4c2.3-3.5,6.8-2.9,10.6-1.8
			c4.1,1.2,2.9,4.7,3,7.5c0.1,1.8,0,3.7,0,5.5c0,2,0,4,0,6c0,10,0.7,10.5,10.7,10.5c3.2,0,4.2-1,4.4-4.2c0.5-7.8,1-15.4,0-23.2
			c-1.3-9.7-2.8-19.1-10.3-26.2c-1.8-1.7-2.1-2.8,0.3-4.6c3.2-2.4,6.1-5.2,8.7-8.2c9.3-11.3,22.5-13.6,35.5-13.1
			c14.6,0.6,26.8,6.7,29.7,23.4C180.3,115.8,180.9,115.9,182.6,115z"/>
		<path fill="#168F39" d="M90.5,239.3c-3.5-1.9-6.4-0.1-9,2.6c-0.8,0.9-1.6,1.8-2.4,2.7c4.8,2.9,9.7,5.5,14.9,7.7
			c0.2-1.1,0.5-2.2,0.8-3.3C95.8,245.2,94.1,241.3,90.5,239.3z"/>
		<path fill="#168F39" d="M185.7,236.2c-2.3-1.9-4.3-4.6-8.5-4c3.5,7.1,6.7,14.2,9.4,21.4c3.4-1.4,6.8-2.9,10-4.6
			C193.5,244.3,190.1,239.9,185.7,236.2z"/>
		<path fill="#148838" d="M95.9,227.2c-2.4,2.6-3.9,3.9-5,5.5c-1.3,1.7-3,3.3,0.9,4.8c4.2,1.7,6.3,7.8,5.1,12.4
			c-0.3,1.1-0.5,2.1-0.8,3.2c2.3,1,4.7,1.8,7.1,2.7C99,247.3,95.5,238.3,95.9,227.2z"/>
		<path fill="#168F39" d="M179.6,256.1c1.6-0.5,3.2-1.1,4.8-1.7c-3-7.9-6.6-15.5-10.8-22.9C175.6,239.7,177.6,247.9,179.6,256.1z"/>
		<path fill="#EC8500" d="M98.9,150.5c0-3.2,1.4-6.9-3.3-8.2c-3.8-1.1-6.8,0.3-8.7,3.8c-0.5,1-1.2,2-1.6,3
			c-3.4,9.1,1.4,17.5,10.2,17.8c1.2,0,3.1,0.8,3.3-1.1c0.3-3.3,0.2-6.7,0-10c-0.1-1.2-1.2-2-2.5-1.8c-1.8,0.3-1.4,1.6-0.9,2.6
			c0.6,1.1,1,2.1-0.2,3.3c-4.5-2.5,1.1-10.4-6.6-11.1C92.8,147.1,95.5,150,98.9,150.5z"/>
		<path fill="#FFFFFF" d="M171.1,133.2c-3.1,0.3-6.5,1.3-8.2,4.5c-1.2,2.2,1.1,3.6,1.7,5.4c0.3,1.1,1.4,2.1,1.3,3.1
			c-0.2,4.2,2.4,4,4.7,3.9c5.7,0,10.5-4,10.4-8.2C180.9,138.1,175.3,132.8,171.1,133.2z M173.6,144c-1.6,0.1-2.9-0.1-2.6-2.3
			c0.2-1.7,0.9-2.8,2.7-2.7c1.8,0.1,2.4,1.3,2.4,3.1C176.3,144.1,175,144,173.6,144z"/>
		<path fill="#F7A72F" d="M175.4,257.4c0.7-0.2,1.3-0.4,2-0.6c-1-3.3-1.9-6.6-2.9-9.9C174.6,250.5,175,254,175.4,257.4z"/>
		<path fill="#FFFFFF" d="M138.2,184.2c-2.7,0.2-5.3-1.6-7.7-0.8c-1.5,0.5-0.3,3.3-0.6,4.9c0,0.5,0,0.9,0,1.2
			c-0.5,3.6,0.7,5.4,4.6,5.7c4.8,0.3,3.2-2.9,3.4-5.2c0.1-1.1,0-2.3,0.7-3.3C139.3,185.8,139.3,184.1,138.2,184.2z"/>
		<path fill="#FFFFFF" d="M143.8,185c-4.8,0.3-3,4.3-3.4,5.4c-0.9,4.4-0.3,5.9,3.3,5.8c3.3-0.1,5-0.7,4.3-4.3
			c-0.1-0.8-0.3-1.8,0-2.5C150.2,184.4,147,184.8,143.8,185z"/>
		<path fill="#FFFFFF" d="M153.9,184.9c-5,0.3-2.9,4.3-4.1,6.6c0.9,1.5-1.2,4.5,1.7,4.3c3.4-0.3,6.1-2.2,5.5-6.5
			C156.8,187.3,158,184.7,153.9,184.9z"/>
		<path fill="#FFFFFF" d="M122.9,188.6c0,3.5,2.5,3.6,4.9,4.5c0-3.3,0-6.3,0-9.8C125.2,184.3,123,185.2,122.9,188.6z"/>
		<path fill="#EC8500" d="M145.6,258.1c-1.3,1.7-4.7,0.4-4.7,3.8c0,0.1,0,0.2,0,0.3c0.3,0,0.5,0,0.8,0c1.3,0,2.7,0,4-0.1
			C146.2,261.1,146.1,259.7,145.6,258.1z"/>
		<path fill="#13110C" d="M137.2,155c9.1,0,13.8-4.2,13.8-12.2c0-6.7-6-11.8-13.6-11.8c-8.5,0-14.6,5.4-14.4,12.7
			C123.2,150,129.5,155,137.2,155z M137.4,133c6.1,0.1,11.6,4.7,11.6,10.1c0,5.5-5.1,10-11.5,10c-6.7,0-12.5-4.3-12.3-9.8
			C125.3,139,130.5,132.8,137.4,133z"/>
		<path fill="#13110C" d="M127.5,176.4c-0.2-1.4-1.3-0.7-2.3-0.5c-7.6,1-13.2,8.8-11.1,16c0.6,2.1,2,3.9,5.6,2.4
			c-4.5-2.4-4.3-5.3-2.9-8.7c1.7-4,3.9-7.2,8.7-7.6C126.6,177.9,127.7,177.5,127.5,176.4z"/>
		<path fill="#13110C" d="M160.8,173.9c-7.6-0.6-14.9,1-22.2,2.4C146.2,177.3,153.5,175.9,160.8,173.9z"/>
		<path fill="#13110C" d="M187,176.4c-5.4-4.9-14.3-5.7-17.7-2.2C175.2,173.3,180.4,174.8,187,176.4z"/>
		<path fill="#13110C" d="M173.6,139c-1.8-0.1-2.5,1-2.7,2.7c-0.2,2.2,1,2.3,2.6,2.3c1.4-0.1,2.7,0.1,2.4-1.9
			C176.1,140.4,175.4,139.1,173.6,139z"/>
		<path fill="#FFFFFF" d="M137.5,153c6.4,0,11.5-4.4,11.5-10c0-5.3-5.5-9.9-11.6-10.1c-6.9-0.1-12.1,6-12.2,10.3
			C125,148.7,130.8,153,137.5,153z M134.6,141c1.4,0,2.7-0.1,2.4,1.9c0.1,1.8-0.6,3-2.4,3.1c-1.8,0.1-2.5-1-2.7-2.7
			C131.7,141,133,140.9,134.6,141z"/>
		<path fill="#13110C" d="M134.6,146c1.8-0.1,2.4-1.3,2.4-3.1c0.3-1.9-1-1.8-2.4-1.9c-1.6-0.1-2.9,0-2.6,2.2
			C132.2,144.9,132.8,146.1,134.6,146z"/>
	</g>
</g>
<g id="Calque_2">
	<path fill="#F0F1F2" d="M142.4,6.5C68.5,6.5,8.6,66.4,8.6,140.2S68.5,274,142.4,274s133.7-59.9,133.7-133.7S216.2,6.5,142.4,6.5z
		 M142.4,262.2c-67.3,0-121.9-54.6-121.9-121.9C20.5,72.9,75,18.3,142.4,18.3s121.9,54.6,121.9,121.9
		C264.3,207.6,209.7,262.2,142.4,262.2z"/>
</g>
</svg>
