<?xml version="1.0" encoding="utf-8"?>
<!-- Generator: Adobe Illustrator 16.0.0, SVG Export Plug-In . SVG Version: 6.00 Build 0)  -->
<!DOCTYPE svg PUBLIC "-//W3C//DTD SVG 1.1//EN" "http://www.w3.org/Graphics/SVG/1.1/DTD/svg11.dtd">
<svg version="1.1" id="Calque_1" xmlns="http://www.w3.org/2000/svg" xmlns:xlink="http://www.w3.org/1999/xlink" x="0px" y="0px"
	 width="283.46px" height="283.46px" viewBox="0 0 283.46 283.46" enable-background="new 0 0 283.46 283.46" xml:space="preserve">
<g>
	<defs>
		<rect id="SVGID_1_" width="283.46" height="283.46"/>
	</defs>
	<clipPath id="SVGID_2_">
		<use xlink:href="#SVGID_1_"  overflow="visible"/>
	</clipPath>
	<path clip-path="url(#SVGID_2_)" fill="#F6F6F6" d="M269.291,141.732c0,70.449-57.109,127.559-127.559,127.559
		S14.173,212.182,14.173,141.732S71.283,14.173,141.732,14.173S269.291,71.283,269.291,141.732"/>
	
		<circle clip-path="url(#SVGID_2_)" fill="none" stroke="#000000" stroke-width="2" stroke-miterlimit="10" cx="141.732" cy="141.732" r="127.559"/>
	<path clip-path="url(#SVGID_2_)" fill="#68A8DE" d="M262.205,141.732c0,66.535-53.938,120.472-120.473,120.472
		c-66.536,0-120.473-53.937-120.473-120.472S75.197,21.26,141.732,21.26C208.268,21.26,262.205,75.197,262.205,141.732"/>
	
		<circle clip-path="url(#SVGID_2_)" fill="none" stroke="#000000" stroke-width="2" stroke-miterlimit="10" cx="141.732" cy="141.732" r="120.473"/>
	<path clip-path="url(#SVGID_2_)" fill="#68A8DE" d="M262.205,141.732c0,66.535-53.938,120.472-120.473,120.472
		c-66.536,0-120.473-53.937-120.473-120.472S75.197,21.26,141.732,21.26C208.268,21.26,262.205,75.197,262.205,141.732"/>
	
		<circle clip-path="url(#SVGID_2_)" fill="none" stroke="#000000" stroke-width="2" stroke-miterlimit="10" cx="141.732" cy="141.732" r="120.473"/>
	<path clip-path="url(#SVGID_2_)" fill="#68A8DE" d="M262.205,141.732c0,66.535-53.938,120.472-120.473,120.472
		c-66.536,0-120.473-53.937-120.473-120.472S75.197,21.26,141.732,21.26C208.268,21.26,262.205,75.197,262.205,141.732"/>
	
		<circle clip-path="url(#SVGID_2_)" fill="none" stroke="#000000" stroke-width="2" stroke-miterlimit="10" cx="141.732" cy="141.732" r="120.473"/>
	<path clip-path="url(#SVGID_2_)" fill="#191814" d="M251.212,170.152c-2.255-4.651-7.255-5.928-9.847-9.908
		c-0.393-0.604-2.856-0.604-3.751,0.01c-2.506,1.717-3.386,0.217-4.437-1.591c-3.868-6.655-15.085-8.441-20.34-2.813
		c-2.894,3.099-5.604,4.71-9.952,4.26c-4.226-0.438-7.584,2.292-6.626,6.324c1.047,4.406-0.196,7.88-1.025,11.87
		c-0.593,2.855-1.531,4.955-3.083,7.364c-1.843,2.858-3.812,3.58-6.836,3.421c-1.017-0.054-2.531,0.486-3.049,1.266
		c-2.971,4.472-6.528,3.449-10.53,1.731c-2.372-1.017-5.211-0.416-6.908-3.441c-3.022-5.393-4.812-11.207-6.804-16.97
		c-1.277-3.692-1.111-6.251,4.019-4.036c-2.118-8.81-10.898-21.012-19.171-22.714c-1.008-0.208-2.474-0.931-2.682-1.699
		c-0.389-1.438,1.256-2.765,2.209-2.858c2.729-0.268,3.005-2.482,4.062-4.119c8.824,3.908,19.047,4.551,27.725,1.657
		c5.618-1.874,6.387-5.543,2.228-9.969c-1.675-1.782-3.32-3.612-5.636-4.712c-1.732-0.824-2.841-2.228-1.742-4.281
		c2.502-4.672-0.441-7.169-3.804-9.61c2.382-0.576,2.98-2.175,2.803-4.4c-0.118-1.476-0.512-3.517,0.256-4.381
		c4.433-4.983-0.027-8.303-3.007-9.149c-6.71-1.906-9.757-7.697-14.721-11.336c-1.782-1.307-0.97-2.091,0.138-3.328
		c1.187-1.322,2.884-0.102,3.877-1.054c-2.256-5.182-7.315-4.439-12.016-5.188c1.9-2.994,4.3-4.619,6.438-6.497h-3
		c-6.557,2.866-13.38,4.092-21.561,2.613c1.99,2.263,3.176,3.611,5.295,6.02c-8.035-3.342-14.574-7.695-22.623-4.379
		c1.73,2.768,4.665,3.383,6.639,5.513c-2.333,0.715-4.73-0.461-6.795,0.788c-1.851,1.12-2.792,1.265-4.373-1.112
		c-2.771-4.169-6.902-6.797-13.332-4.731c10.199,7.466-1.206,5.411-3.017,7.866c1.321,0.657,2.524,1.13,3.595,1.811
		c5.497,3.491,5.425,3.425,0.102,7.235c-3.217,2.303-6.9,4.192-8.672,8.253c1.505,0.088,2.961,0.174,4.535,0.266
		c-0.314,0.378-0.461,0.662-0.694,0.818c-5.049,3.371-9.573,7.99-10.514,13.586c-0.719,4.279-2.637,4.437-5.427,5.533
		c-8.267,3.248-16.745,6.323-22.854,13.215c-2.921,3.296-5.949,5.4-10.474,6.595c-6.327,1.669-10.926,5.09-14.55,9.456
		c0.008,0.662,0.018,1.323,0.037,1.982c6.59-7.186,16.233-12.822,23.42-12.181c9.244,0.824,15.628,6.325,18.747,14.949
		c3.272,9.053,1.356,17.884-2.384,27.034c-10.911-9.493-23.159-13.604-36.738-14.101c-0.536-0.02-1.062-0.09-1.587-0.177
		c0.04,0.246,0.082,0.492,0.123,0.738c11.313,1.476,22.432,3.534,32.213,10.352c2.705,1.885,3.188,3.442,1.901,6.478
		c-4.15,9.783-6.039,20.065-7.207,30.66c-0.357,3.24-0.562,6.474-0.681,9.704c0.326,0.391,0.656,0.779,0.987,1.166
		c0.588-13.334,2.443-26.518,6.966-39.404c0.986-2.808,3.564-3.387,5.098-5.251c2.472-3.007,2.802-6.977,3.341-10.527
		c1.525-10.034,0.667-19.652-7.435-27.253c-3.89-3.649-8.737-4.663-13.964-5.761c6.65-8.617,15.615-12.545,24.763-16.216
		c0.972-0.39,1.942-0.92,2.729-0.126c0.975,0.982-0.291,1.794-0.648,2.574c-6.068,13.262-4.255,26.324,1.136,39.192
		c1.689,4.033,4.124,7.751,6.188,11.629c0.983,1.846,1.83,3.174,3.662,0.59c4.239-5.978,11.306-4.549,17.181-6.188
		c0.636-0.177,1.795,1.265,2.619,2.053c7.39,7.061,14.213,14.585,18.796,23.845c1.382,2.794,2.497,2.05,3.432-0.121
		c2.877-6.682,6.325-13.143,8.027-20.288c0.461-1.938,0.756-3.999,3.537-3.692c2.447,0.271,5.2-0.283,6.5,2.797
		c2.245,5.318,4.155,10.559,2.117,16.53c-0.592,1.735-0.987,4.243,1.639,5.644c8.893,4.744,13.404,12.964,17.287,21.771
		c1.911,4.333,2.85,8.935,4.489,13.324c0.603,1.609,0.656,3.166-0.131,5.048c-10.888-5.754-22.606-8.091-34.619-6.941
		c-11.78,1.128-23.297,4.237-34.754,7.287c-9.546,2.541-19.089,5.092-28.631,7.645c1.096,0.822,2.209,1.625,3.334,2.41
		c6.285,0.27,12.569,1.199,18.915,2.138c24.17,3.569,47.719,0.361,70.304-9.171c1.459-0.616,2.757-1.614,4.595-2.711
		c1.539,8.925-1.632,16.403-5.519,23.469c-1.329,2.416-2.817,4.776-4.435,7.047c0.568-0.071,1.136-0.149,1.703-0.227
		c5.489-7.53,9.434-15.781,9.617-25.619c0.038-2.025,0.729-2.617,2.607-2.467c1.49,0.12,3.119,0.398,4.475-0.045
		c4.494-1.468,9.461,1.945,14.146-1.95c-0.973,3.941,0.724,6.327,3.501,7.819c1.151,0.62,1.344,1.227,1.314,2.235
		c-0.104,3.614,2.184,5.599,4.751,6.846c0.489-0.264,0.976-0.534,1.461-0.804c-3.989-1.761-5.486-4.405-5.144-9.34
		c1.339-19.228,0.786-38.474,0.965-57.712c0.06-6.228,6.133-9.397,12.033-6.447c0.282,0.141,0.459,0.48,0.714,0.692
		c4.972,4.128,11.236-2.81,14.03-0.178c4.659,4.389,8.233,4.605,13.358,2.364c3.728-1.629,6.292,0.742,6.938,4.785
		c1.076,6.752,0.796,13.5,0.917,20.259c-0.055,1.339-0.071,2.677-0.075,4.015c0.701-1.12,1.387-2.252,2.052-3.396
		c-0.22-0.214-0.461-0.431-0.755-0.655c-0.809-0.618,0.311-1.104,1.043-1.573c0.576-0.368,1.215-0.848,1.724-1.383
		c0.329-0.613,0.657-1.229,0.976-1.85c1.155-4.572,4.362-8.167,4.212-13.754C253.071,178.341,253.327,174.521,251.212,170.152
		 M73.97,238.559c14.568-4.571,28.891-8.27,43.326-11.503c7.479-1.675,15.038-3.558,22.771-2.982
		c8.229,0.612,16.403,1.842,24.357,6.266C144.014,240.619,116.307,247.617,73.97,238.559 M179.122,196.708
		c1.092-3.915,5.209-6.623,9.606-6.318c-1.226,2.85-2.485,5.523,1.001,8.002c1.52,1.081-1.653,10.971-3.408,11.951
		c-1.119,0.625-2.078,0.858-3.217,0.261C180.041,208.995,177.839,201.322,179.122,196.708 M165.61,107.712
		c-2.779,1.631-5.73,1.876-8.793,0.613c-3.086-1.272-4.979-3.583-5.768-6.705c-0.713-2.824,1.275-2.794,3.495-2.551
		c0.93,0.432,2.626-1.049,3.511,1.071c0.987,2.364,2.979,2.378,4.929,1.338c1.651-0.881,3.109-0.644,3.678,0.938
		C167.303,104.2,167.793,106.431,165.61,107.712 M81.833,99.695c2.529-2.336,5.166-4.555,7.792-6.857
		c-1.783-1.893-3.186,0.9-4.914-0.242c1.29-3.409,4.583-4.706,7.273-6.556c4.961-3.413,5.02-4.02,0.197-7.486
		c-0.799-0.574-1.523-1.252-2.639-2.179c5.673-0.437,6.279-3.016,2.47-7.424c4.892,0.424,7.821,2.633,9.872,5.933
		c1.366,2.199,2.372,3.217,4.902,1.299c3.02-2.288,6.808-0.718,10.775-1.422c-2.648-2.031-5.004-3.838-8.251-6.329
		c8.447-0.909,14.382,3.419,20.89,5.827c1.136-2.782-1.283-3.963-1.636-6.686c5.34,3.012,9.932,0.93,15.241-2.111
		c-1.44,2.918-2.405,4.873-3.568,7.232c4.045-0.649,7.808-1.721,11.387,1.582c-0.792,0.646-1.416,1.175-2.059,1.679
		c-2.457,1.925-3.169,3.666,0.275,5.379c2.062,1.026,4.163,2.193,4.467,5.465c-6.824,0.044-13.696,1.641-19.825-3.007
		c-3.707-2.811-6.354-1.779-8.095,2.378c-0.953,2.277-2.142,4.426-4.012,6.229c-0.653-1.513-0.505-2.914,0.481-3.882
		c2.808-2.756-1.342-3.308-1.785-5.06c-0.342-1.351-2.46,0.424-3.44,1.446c-3.234,3.371-5.636,7.321-7.769,11.451
		c-0.895,1.733-1.75,3.51-3.549,4.881c-1.171-4.52,1.41-8.68,0.813-12.937c-2.228-0.868-2.038,1.99-3.98,2.139
		c0.521-4.595,3.362-7.557,6.76-10.422c-5.631,1.301-8.339,6.212-7.509,13.195c1.475,0.428,1.783-1.974,3.671-1.269
		c-1.274,2.483-0.19,5.843-3.691,7.485c-1.535,0.72-2.347,1.436-4.315,0.419c-4.865-2.514-9.122-0.528-11.036,4.528
		c-1.692,4.469-1.687,4.454-5.959,2.84c-1.727-0.653-2.91,1.417-4.939,0.976C77.308,104.776,79.296,102.039,81.833,99.695
		 M95.364,162.942c-5.357,0.047-10.334,1.097-14.288,4.932c-1.529,1.484-2.001-0.171-2.303-0.716
		c-4.409-7.957-8.217-16.077-9.895-25.209c-1.679-9.138,0.532-17.253,4.8-25.339c-1.559,15.731,7.55,26.57,16.787,37.318
		c1.839,2.142,3.958,4.044,5.992,6.012C98.404,161.822,97.692,162.921,95.364,162.942 M122.191,188.552
		c-0.085,0.055-0.815-0.597-0.961-1.019c-0.806-2.334,2.094-0.917,2.372-2.179C123.708,186.862,123.229,187.901,122.191,188.552
		 M123.384,183.965c-0.597-0.045-1.447-0.077-0.738-0.978c0.349-0.442,1.027-0.704,1.605-0.84c0.18-0.042,0.52,0.596,0.703,0.819
		C124.702,184.024,124.037,184.015,123.384,183.965 M127.412,178.204c-0.953,2.389-2.314,0.816-3.327,0.675
		c-1.795-0.248-1.157-1.689-0.7-2.704c0.427-0.949,2.122-1.328,1.307-2.826c-0.217-0.397-0.696-0.653-1.044-0.966
		c-2.197,1.695-0.021,5.834-3.674,6.755c-0.957-1.633,0.812-1.905,0.98-2.887c0.224-1.308-0.188-2.341-1.291-2.986
		c-1.197-0.699-2.202,0.349-2.364,1.081c-0.683,3.082,2.059,0.334,1.783,0.692c-2.661,3.452,1.945,4.977,1.856,7.652
		c-0.013,0.389-0.485,1.111-0.633,1.085c-0.59-0.111-1.389-0.301-1.663-0.739c-10.308-16.492-27.404-27.123-37.682-43.617
		c-6.229-9.997-8.702-20.833-1.066-30.805c-0.166,3.977,0.44,5.954,3.723,2.538c0.234-0.243,1.674-1.942,2.581,0.705
		c1.835,5.357,4.709,6.176,10.801,3.971c-4.726,0.797-9.123,0.218-9.816-5.194c-0.485-3.788,0.497-7.825,4.56-9.903
		c4.452-2.275,6.462,1.075,8.563,4.091c1.113-1.009,0.493-2.592,1.738-3.436c1.387-0.94,2.646-2.927,3.034,0.649
		c0.109,1.011,0.881,1.894,2.005,1.83c1.181-0.068,0.618-1.311,0.985-1.922c2.593-4.307,5.288-8.552,7.902-12.846
		c0.704-1.157,1.107-2.57,2.866-2.457c-0.347,1.99,3.248,2.093,2.127,4.488c-0.577,1.232-2.067,2.779,0.158,3.659
		c1.828,0.722,2.364-0.96,3.13-2.311c1.677-2.957,2.992-6.729,5.592-8.396c3.118-1.999,5.652,2.372,8.764,3.364
		c4.133,1.317,8.046,0.603,12.049,0.512c2.766-0.063,5.195,0.405,7.248,2.376c0.595,0.571,0.875,1.613,2.298,1.031
		c2.564-1.049,4.46,0.613,5.942,2.377c1.013,1.206,3.575,1.781,2.339,4.224c-1.354,2.675-3.637,1.752-5.416,0.907
		c-1.924-0.913-3.83-0.978-5.767-0.832c-3.118,0.234-7.193-1.466-8.968,1.978c-1.312,2.548,6.436,9.731,10.196,9.972
		c1.784,0.115,3.499,0.393,5.265,0.775c3.197,0.693,5.084,3.012,4.883,5.305c-0.253,2.874-1.245,5.988-5.36,7.075
		c-6.201,1.637-11.012-1.195-16.45-3.911c3.12,4.332,10.244,7.238,14.827,5.295c5.762-2.444,9.449-0.231,13.124,3.741
		c4.338,4.69,3.896,6.681-2.3,8.723c-8.573,2.825-16.691,1.157-25.035-1.677c-8.436-2.865-15.863-8.216-24.671-9.88
		c-4.757-0.898-9.84-1.505-13.794,2.791c1.667-0.739,2.979-1.084,3.75,1.084c0.97,2.723,3.361,2.965,5.646,2.602
		c1.705-0.272,3.217,0.966,4.146,0.892c5.361-0.427,9.855,6.026,15.699,1.694c1.999-1.481,4.872,0.027,5.991,1.654
		c0.994,1.443-0.942,2.446-2.721,3.228c-1.809,0.796-3.635,2.682-4.401,4.527c-3.295,7.942-10.421,10.598-17.899,13.592
		c3.249,1.365,5.233-0.986,7.496-1.867c2.402-0.936,4.656-2.25,7.38-3.6C133.34,161.458,130.723,169.899,127.412,178.204
		 M136.818,133.376c0.132,0.842-1.234,1.838-2.867,1.556c-1.077-0.774-3.396-0.61-2.964-3.223c0.13-0.791,0.27-2.111,1.125-1.56
		C133.728,131.191,136.443,130.982,136.818,133.376 M129.498,129.416c-0.623,2.608-1.661,3.971-3.906,3.56
		c-2.401-0.439-3.656-1.908-3.598-4.44c0.053-2.31,1.901-1.715,2.855-1.427C126.567,127.627,128.12,128.701,129.498,129.416
		 M120.921,127.425c0.028,1.989-1.432,3.415-3.331,3.477c-1.942,0.062-4.034-1.043-4.037-3.132c-0.003-2.683,2.527-1.457,4.04-1.81
		C118.716,126.472,120.887,124.948,120.921,127.425 M135.757,164.021c-1.232-0.155-1.966-0.638-1.718-1.821
		c1.112-5.304,0.074-11.057,3.225-16.863c4.097,6.928,7.453,13.245,9.39,20.318C143.007,165.096,139.393,164.479,135.757,164.021
		 M142.986,166.332c4.248,1.376,6.235,0.925,4.058-3.712c-1.575-3.355-2.667-6.941-4.315-10.254
		c-1.058-2.127-0.723-4.062-0.375-6.441c9.292,3.523,13.533,11.281,18.043,19.697c-4.515,0.2-8.289,1.647-11.659,3.596
		C145.275,171.221,143.916,170.288,142.986,166.332 M184.189,231.804c-3.575-1.215-6.747-0.038-10.028,0.289
		c-3.448,0.344-4.613-1.374-5.11-4.191c-1.878-10.637-5.29-20.607-11.844-29.4c-2.782-3.734-5.676-7.308-9.889-9.303
		c-2.433-1.152-2.922-2.936-2.057-4.739c1.333-2.784,0.06-5.639,0.845-8.255c0.466-1.553-2.625-2.923-0.048-4.17
		c2.906-1.407,5.828-2.853,8.886-3.838c1.275-0.411,1.647,1.633,1.813,2.454c1.356,6.684,3.89,12.91,7.059,19.048
		c-1.879,0.481-3.433-1.728-5.702,0.058c4.212,1.145,8.057,2.305,11.957,3.223c7.734,1.818,7.644,1.768,7.968,9.554
		c0.194,4.66,1.012,9.142,6.886,9.893c-1.527,7.514-5.358,2.841-8.526,1.912c-0.271,0.51-0.652,1.409,0.255,1.485
		c6.53,0.55,6.318,7.967,10.939,10.677C189.521,227.63,186.641,232.637,184.189,231.804 M193.841,237.601
		c-2.935-1.326-3.847-3.672-3.824-6.534c0.021-2.808,1.59-4.366,4.59-5.078C193.449,230.092,194.362,233.729,193.841,237.601
		 M194.677,218.357c-0.822,1.492,1.761,6.166-3.6,6.599c-3.543,0.287-6.996-2.753-7.069-5.837c-0.086-3.609,3.074-7.075,6.447-7.123
		C194.008,211.946,195.644,213.535,194.677,218.357 M194.978,202.479c0.054,2.97,0.02,5.941,0.02,9.104
		c-1.975-0.783-4.87,0.022-4.894-3.021c-0.019-2.49-1.177-5.299,1.27-7.462c0.792-0.699,1.53-1.262,2.613-1.014
		C195.396,200.41,194.962,201.599,194.978,202.479 M193.385,198.292c-1.758,0.668-1.957-0.611-2.717-1.165
		c-1.831-1.336-2.303-3.135-1.151-5.14c1.344-2.341,2.593-4.769,5.483-7.31c0,3.643,0.151,6.397-0.06,9.125
		C194.822,195.323,196.085,197.267,193.385,198.292 M245.345,200.057c-0.9-6.958,0.588-12.453-1.311-17.774
		c-1.043-2.924,2.318-4.405,2.634-7.151c-1.986,0.065-3.864,1.9-5.948,0.191c-1.998-1.637-4.013-0.97-6.054,0.367
		c-4.024,2.635-7.185,0.93-9.905-2.326c-1.423-1.704-2.306-3.007-5.041-0.895c-2.914,2.25-6.931,3.241-10.468,0.306
		c-1.793-1.487-3.866-0.839-5.722-0.691c-4.075,0.326-6.074-2.229-6.33-5.339c-0.286-3.462,2.336-5.474,5.922-5.736
		c0.663-0.049,1.352-0.108,1.995,0.009c3.321,0.607,5.812-0.143,7.745-3.291c3.926-6.39,17.425-4.727,19.966,2.877
		c1.104,3.302,2.245,3.956,4.662,1.285c0.739-0.816,2.155-1.396,2.637-0.787c2.907,3.688,6.918,6.161,10.063,9.678
		c5.004,5.593,0.939,11.358,1.373,16.88C251.843,191.201,248.012,195.067,245.345,200.057"/>
	<path clip-path="url(#SVGID_2_)" fill="#4F3586" d="M166.584,230.772c-1.837,1.097-3.135,2.095-4.595,2.711
		c-22.584,9.533-46.133,12.741-70.303,9.17c-6.346-0.938-12.631-1.868-18.916-2.136c19.538,13.665,43.311,21.687,68.961,21.687
		c5.046,0,10.017-0.313,14.899-0.916c1.617-2.27,3.105-4.632,4.435-7.047C164.953,247.175,168.124,239.697,166.584,230.772"/>
	<path clip-path="url(#SVGID_2_)" fill="#DA8D78" d="M132.821,223.175c12.012-1.149,23.73,1.188,34.62,6.941
		c0.787-1.882,0.731-3.438,0.131-5.048c-1.641-4.39-2.579-8.991-4.489-13.324c-3.884-8.808-8.396-17.026-17.288-21.771
		c-2.627-1.4-2.23-3.908-1.639-5.644c2.039-5.972,0.129-11.212-2.117-16.53c-1.3-3.08-4.052-2.526-6.5-2.797
		c-2.781-0.307-3.075,1.755-3.537,3.692c-1.702,7.146-5.149,13.606-8.027,20.288c-0.935,2.171-2.049,2.915-3.432,0.12
		c-4.583-9.259-11.405-16.783-18.795-23.844c-0.825-0.788-1.984-2.229-2.62-2.053c-5.874,1.64-12.942,0.211-17.18,6.188
		c-1.833,2.584-2.68,1.257-3.662-0.589c-2.065-3.878-4.499-7.596-6.189-11.629c-5.391-12.868-7.203-25.93-1.135-39.192
		c0.356-0.78,1.622-1.592,0.648-2.574c-0.788-0.794-1.757-0.264-2.729,0.126c-9.149,3.671-18.114,7.599-24.764,16.216
		c5.227,1.098,10.075,2.112,13.965,5.761c8.102,7.601,8.959,17.219,7.434,27.253c-0.539,3.551-0.868,7.521-3.341,10.527
		c-1.533,1.864-4.111,2.443-5.097,5.251c-4.524,12.887-6.378,26.07-6.967,39.404c5.754,6.733,12.235,12.828,19.325,18.156
		c9.543-2.553,19.086-5.104,28.631-7.645C109.525,227.412,121.041,224.303,132.821,223.175"/>
	<path clip-path="url(#SVGID_2_)" fill="#F2CD16" d="M57.012,178.42c1.288-3.036,0.804-4.593-1.9-6.478
		c-9.781-6.817-20.901-8.876-32.214-10.352c3.572,21.528,12.846,41.129,26.227,57.192c0.119-3.229,0.323-6.463,0.68-9.704
		C50.974,198.485,52.863,188.202,57.012,178.42"/>
	<path clip-path="url(#SVGID_2_)" fill="#F2CD16" d="M126.723,155.632c-2.262,0.881-4.246,3.232-7.496,1.867
		c7.478-2.994,14.604-5.649,17.9-13.592c0.766-1.845,2.591-3.731,4.4-4.527c1.777-0.782,3.715-1.785,2.722-3.227
		c-1.121-1.628-3.993-3.136-5.992-1.655c-5.844,4.332-10.338-2.121-15.699-1.694c-0.928,0.074-2.441-1.164-4.146-0.892
		c-2.285,0.363-4.676,0.121-5.645-2.602c-0.772-2.168-2.083-1.823-3.751-1.084c3.955-4.296,9.037-3.689,13.794-2.791
		c8.808,1.664,16.235,7.015,24.672,9.88c8.344,2.834,16.461,4.503,25.033,1.677c6.195-2.042,6.639-4.033,2.301-8.723
		c-3.674-3.972-7.362-6.185-13.124-3.741c-4.582,1.943-11.707-0.963-14.826-5.295c5.437,2.716,10.249,5.549,16.449,3.911
		c4.115-1.087,5.106-4.201,5.359-7.075c0.202-2.293-1.685-4.612-4.883-5.304c-1.765-0.383-3.479-0.661-5.263-0.776
		c-3.762-0.241-11.509-7.424-10.197-9.972c1.774-3.444,5.85-1.744,8.968-1.978c1.938-0.146,3.844-0.081,5.767,0.832
		c1.778,0.845,4.062,1.768,5.416-0.907c1.235-2.442-1.325-3.018-2.338-4.224c-1.483-1.764-3.38-3.426-5.943-2.377
		c-1.423,0.582-1.703-0.46-2.298-1.031c-2.054-1.971-4.483-2.439-7.248-2.376c-4.002,0.091-7.916,0.805-12.049-0.512
		c-3.111-0.992-5.646-5.362-8.764-3.364c-2.599,1.667-3.915,5.439-5.592,8.396c-0.765,1.351-1.302,3.033-3.129,2.311
		c-2.226-0.88-0.736-2.427-0.159-3.659c1.122-2.395-2.474-2.497-2.127-4.487c-1.758-0.114-2.162,1.299-2.866,2.456
		c-2.614,4.294-5.309,8.539-7.901,12.846c-0.368,0.611,0.196,1.854-0.985,1.922c-1.125,0.064-1.897-0.819-2.006-1.83
		c-0.388-3.575-1.647-1.589-3.033-0.649c-1.246,0.844-0.626,2.428-1.738,3.436c-2.101-3.016-4.112-6.366-8.563-4.091
		c-4.064,2.078-5.046,6.115-4.561,9.903c0.693,5.412,5.091,5.991,9.816,5.194c-6.091,2.205-8.965,1.386-10.801-3.971
		c-0.906-2.647-2.347-0.948-2.581-0.705c-3.282,3.416-3.889,1.439-3.722-2.538c-7.637,9.972-5.164,20.808,1.066,30.805
		c10.277,16.494,27.374,27.125,37.681,43.617c0.275,0.438,1.073,0.628,1.664,0.739c0.147,0.026,0.62-0.696,0.632-1.085
		c0.09-2.676-4.517-4.2-1.855-7.652c0.276-0.358-2.467,2.39-1.784-0.692c0.162-0.732,1.167-1.78,2.365-1.081
		c1.102,0.646,1.515,1.679,1.291,2.986c-0.168,0.981-1.937,1.254-0.981,2.887c3.654-0.921,1.477-5.06,3.674-6.755
		c0.348,0.312,0.827,0.568,1.044,0.966c0.815,1.498-0.879,1.877-1.307,2.826c-0.456,1.014-1.094,2.456,0.7,2.704
		c1.014,0.141,2.374,1.714,3.327-0.675c3.311-8.305,5.93-16.745,6.693-26.172C131.38,153.382,129.125,154.696,126.723,155.632
		 M120.874,96.13c6.775-1.235,13.715-2.158,20.388,0.133c2.548,0.875,4.716,0.911,6.301-0.727c1.62-1.675-1.172-3.324-1.063-5.195
		c3.799,3.043,3.696,5.803-0.355,7.572c-0.831,0.363-2.23-0.051-2.083,1.423c0.653,6.568-5.086,9.502-8.028,13.962
		c-2.327,3.527-10.323,3.848-16.218,0.942c5.516,0.23,10.747,2.663,14.658-1.97c-4.075,0.8-7.75,1.171-11.704-0.137
		c-3.975-1.314-6.362-3.624-7.525-7.493C113.61,99.208,114.718,97.251,120.874,96.13 M91.502,110.749
		c-0.152-2.401,0.687-3.878,3.361-4.093c-2.071-1.363-3.774-0.059-6.437,0.534c4.331-2.995,5.99-2.836,9.476,0.47
		C95.307,108.044,92.475,107.731,91.502,110.749"/>
	<path clip-path="url(#SVGID_2_)" fill="#D4D3D3" d="M243.101,181.241c-0.644-4.043-3.21-6.413-6.937-4.783
		c-5.124,2.239-8.699,2.022-13.358-2.365c-2.795-2.632-9.059,4.305-14.03,0.178c-0.256-0.212-0.432-0.551-0.715-0.691
		c-5.899-2.951-11.974,0.219-12.031,6.445c-0.181,19.239,0.373,38.485-0.965,57.712c-0.345,4.937,1.153,7.58,5.143,9.341
		c2.294-1.276,4.544-2.62,6.743-4.038c-0.283-0.051-0.566-0.097-0.85-0.149c-5.886-1.1-8.101-4.577-8.101-10.86
		c0-15.782,0-31.565,0-47.349c0.334-0.004,0.667-0.009,1-0.014c0,3.463,0.135,6.933-0.031,10.388
		c-0.255,5.311,4.362,2.771,6.46,3.635c2.434,1.001,1.386-2.167,1.507-3.489c0.226-2.451,0.064-4.939,0.064-7.926
		c1.547,1.531,0.946,2.947,0.965,4.158c0.116,7.604,0.12,7.131,7.491,7.729c5.184,0.42,4.8-3.078,5.457-5.901
		c0.431-1.855,0.082-3.891,0.469-5.825c0.554,2.932,1.251,5.884,0.004,8.732c-1.067,2.438,0.067,2.721,2.165,2.871
		c9.596,0.689,9.591,0.741,10.919-8.609c1.023,1.558,0.315,3.217,0.528,4.768c0.162,1.183-0.557,2.812,1.697,2.815
		c1.956,0.004,3.262-0.608,3.288-2.766c0.033-2.829-0.072-5.663,0.067-8.486c0.043-0.865-0.856-2.462,1.094-2.521
		c0.002-0.035,0.002-0.072,0.002-0.108c-0.002-0.001-0.007-0.006-0.007-0.006c0.021-0.018,0.036-0.033,0.057-0.051
		c-1.256-3.125-3.261-0.6-5.387-0.461c1.133-2.109,2.637-3.061,4.642-2.366c1.079,0.374,2.454,1.415,0.745,2.827
		c0.021,0.057,0.047,0.101,0.067,0.16c-0.043,0-0.078,0.004-0.119,0.005c-0.023,8.568-0.078,17.136-0.105,25.703
		c0.999-1.453,1.967-2.929,2.904-4.427c0.005-1.338,0.021-2.676,0.075-4.015C243.897,194.741,244.177,187.994,243.101,181.241
		 M199.438,181.155c3.334-3.797,5.401-1.289,7.424,1.036C204.58,181.024,202.415,179.554,199.438,181.155 M210.013,181.996
		c3.711-3.047,7.831-2.629,10.35,1.012C217.286,180.059,213.894,180.75,210.013,181.996 M224.179,182.726
		c3.31-3.829,5.312-3.634,10.561,1.509C230.579,182.397,227.789,179.726,224.179,182.726"/>
	<path clip-path="url(#SVGID_2_)" fill="#DA8D78" d="M61.101,175.131c3.74-9.152,5.656-17.983,2.383-27.034
		c-3.118-8.625-9.503-14.126-18.746-14.95c-7.188-0.64-16.83,4.996-23.42,12.181c0.154,5.268,0.648,10.448,1.458,15.524
		c0.524,0.087,1.051,0.158,1.586,0.178C37.941,161.526,50.19,165.637,61.101,175.131"/>
	<path clip-path="url(#SVGID_2_)" fill="#79361C" d="M81.066,107.212c4.272,1.615,4.267,1.629,5.959-2.84
		c1.914-5.056,6.17-7.041,11.036-4.527c1.968,1.016,2.78,0.301,4.315-0.42c3.501-1.642,2.417-5.001,3.691-7.485
		c-1.888-0.705-2.196,1.697-3.672,1.27c-0.829-6.983,1.879-11.895,7.51-13.196c-3.398,2.866-6.239,5.827-6.76,10.423
		c1.942-0.15,1.752-3.007,3.98-2.14c0.597,4.257-1.984,8.417-0.813,12.938c1.799-1.372,2.654-3.148,3.549-4.882
		c2.132-4.13,4.535-8.08,7.769-11.451c0.98-1.021,3.098-2.797,3.44-1.446c0.443,1.752,4.593,2.304,1.785,5.061
		c-0.986,0.967-1.134,2.369-0.481,3.881c1.87-1.802,3.059-3.952,4.012-6.228c1.741-4.157,4.388-5.189,8.095-2.378
		c6.129,4.648,13.001,3.051,19.825,3.006c-0.304-3.272-2.405-4.439-4.467-5.465c-3.444-1.713-2.732-3.454-0.275-5.379
		c0.643-0.504,1.267-1.032,2.059-1.679c-3.579-3.302-7.342-2.23-11.388-1.582c1.164-2.359,2.129-4.314,3.569-7.231
		c-5.309,3.04-9.902,5.122-15.242,2.11c0.354,2.724,2.773,3.905,1.637,6.686c-6.508-2.407-12.443-6.735-20.891-5.826
		c3.248,2.49,5.604,4.298,8.252,6.328c-3.967,0.705-7.755-0.865-10.775,1.423c-2.53,1.917-3.536,0.9-4.902-1.3
		c-2.051-3.299-4.98-5.508-9.872-5.933c3.809,4.409,3.203,6.988-2.47,7.425c1.116,0.927,1.84,1.605,2.639,2.179
		c4.823,3.465,4.764,4.073-0.197,7.485c-2.69,1.85-5.983,3.147-7.273,6.557c1.728,1.141,3.131-1.652,4.914,0.241
		c-2.626,2.303-5.263,4.521-7.792,6.857c-2.536,2.344-4.525,5.081-5.705,8.494C78.156,108.629,79.339,106.56,81.066,107.212"/>
	<path clip-path="url(#SVGID_2_)" fill="#F2CD16" d="M187.593,226.499c-4.621-2.71-4.409-10.126-10.939-10.677
		c-0.907-0.076-0.527-0.976-0.255-1.485c3.168,0.929,6.999,5.602,8.527-1.912c-5.874-0.751-6.692-5.232-6.887-9.892
		c-0.325-7.787-0.233-7.736-7.968-9.556c-3.901-0.918-7.744-2.077-11.957-3.222c2.269-1.785,3.823,0.424,5.703-0.058
		c-3.17-6.139-5.703-12.364-7.06-19.048c-0.167-0.821-0.538-2.865-1.813-2.454c-3.058,0.985-5.98,2.431-8.886,3.838
		c-2.577,1.247,0.514,2.617,0.048,4.17c-0.785,2.616,0.488,5.471-0.845,8.255c-0.864,1.804-0.376,3.587,2.058,4.739
		c4.213,1.995,7.104,5.568,9.888,9.303c6.554,8.794,9.966,18.765,11.844,29.401c0.497,2.816,1.661,4.533,5.11,4.19
		c3.281-0.327,6.453-1.504,10.028-0.289C186.641,232.637,189.521,227.63,187.593,226.499"/>
	<path clip-path="url(#SVGID_2_)" fill="#F2CD16" d="M117.296,227.056c-14.435,3.233-28.758,6.932-43.326,11.503
		c42.336,9.06,70.042,2.061,90.454-8.22c-7.955-4.423-16.129-5.654-24.357-6.266C132.333,223.498,124.775,225.381,117.296,227.056
		 M144.56,232.567c-0.27-0.086-0.53-0.156-0.787-0.22c-2.494-0.284-2.167,4.753-5.328,3.41c0.483-3.374,2.475-4.114,5.328-3.41
		C144.01,232.375,144.265,232.433,144.56,232.567"/>
	<path clip-path="url(#SVGID_2_)" fill="#FFFFFF" d="M250.19,170.778c-3.146-3.517-7.156-5.989-10.064-9.678
		c-0.48-0.609-1.896-0.029-2.636,0.787c-2.416,2.671-3.558,2.017-4.662-1.285c-2.541-7.604-16.04-9.267-19.966-2.877
		c-1.933,3.148-4.424,3.898-7.744,3.291c-0.645-0.117-1.333-0.058-1.996-0.009c-3.586,0.263-6.208,2.274-5.922,5.736
		c0.257,3.109,2.255,5.665,6.331,5.339c1.854-0.147,3.927-0.796,5.72,0.691c3.538,2.936,7.555,1.944,10.468-0.306
		c2.736-2.112,3.618-0.81,5.041,0.895c2.722,3.256,5.882,4.961,9.906,2.326c2.042-1.337,4.055-2.004,6.053-0.367
		c2.086,1.709,3.963-0.126,5.949-0.191c-0.315,2.746-3.677,4.228-2.634,7.151c1.899,5.321,0.41,10.816,1.31,17.774
		c2.667-4.989,6.498-8.855,6.221-12.398C251.13,182.137,255.194,176.371,250.19,170.778"/>
	<path clip-path="url(#SVGID_2_)" fill="#DA8D78" d="M90.465,153.929c-9.237-10.749-18.345-21.588-16.787-37.319
		c-4.268,8.087-6.479,16.202-4.8,25.34c1.678,9.131,5.486,17.251,9.896,25.208c0.302,0.545,0.773,2.2,2.303,0.716
		c3.954-3.835,8.931-4.885,14.287-4.932c2.329-0.02,3.04-1.119,1.094-3.002C94.424,157.973,92.304,156.068,90.465,153.929"/>
	<path clip-path="url(#SVGID_2_)" fill="#DA8D78" d="M148.737,169.219c3.37-1.95,7.145-3.396,11.659-3.597
		c-4.51-8.417-8.751-16.175-18.043-19.697c-0.348,2.38-0.683,4.313,0.375,6.44c1.648,3.314,2.74,6.9,4.315,10.254
		c2.178,4.639,0.19,5.088-4.058,3.713C143.916,170.288,145.275,171.222,148.737,169.219"/>
	<path clip-path="url(#SVGID_2_)" fill="#F2CD16" d="M183.104,210.604c1.139,0.598,2.098,0.364,3.218-0.261
		c1.755-0.98,4.927-10.869,3.407-11.95c-3.485-2.48-2.227-5.153-1.001-8.002c-4.396-0.306-8.516,2.402-9.605,6.317
		C177.838,201.322,180.042,208.995,183.104,210.604"/>
	<path clip-path="url(#SVGID_2_)" fill="#DA8D78" d="M137.265,145.337c-3.151,5.807-2.113,11.559-3.225,16.863
		c-0.248,1.184,0.486,1.666,1.718,1.821c3.634,0.458,7.249,1.074,10.896,1.634C144.718,158.582,141.361,152.266,137.265,145.337"/>
	<path clip-path="url(#SVGID_2_)" fill="#F2CD16" d="M190.456,211.996c-3.373,0.048-6.535,3.514-6.448,7.123
		c0.073,3.084,3.527,6.124,7.07,5.838c5.358-0.434,2.775-5.107,3.598-6.6C195.644,213.535,194.008,211.946,190.456,211.996"/>
	<path clip-path="url(#SVGID_2_)" fill="#FFFFFF" d="M162.984,101.478c-1.949,1.041-3.942,1.026-4.93-1.338
		c-0.885-2.12-2.58-0.638-3.51-1.071c-2.219-0.243-4.209-0.273-3.495,2.551c0.788,3.123,2.682,5.433,5.767,6.706
		c3.062,1.262,6.015,1.018,8.794-0.614c2.183-1.281,1.692-3.512,1.052-5.295C166.094,100.834,164.635,100.597,162.984,101.478"/>
	<path clip-path="url(#SVGID_2_)" fill="#D4D3D3" d="M194.94,193.803c0.212-2.728,0.06-5.482,0.06-9.125
		c-2.891,2.541-4.14,4.968-5.483,7.31c-1.15,2.005-0.681,3.804,1.15,5.14c0.761,0.554,0.96,1.833,2.719,1.165
		C196.084,197.267,194.822,195.323,194.94,193.803"/>
	<path clip-path="url(#SVGID_2_)" fill="#F2CD16" d="M193.986,200.087c-1.083-0.248-1.821,0.314-2.612,1.015
		c-2.448,2.163-1.29,4.971-1.271,7.46c0.023,3.045,2.918,2.238,4.895,3.022c0-3.163,0.034-6.135-0.021-9.104
		C194.961,201.6,195.396,200.41,193.986,200.087"/>
	<path clip-path="url(#SVGID_2_)" fill="#F2CD16" d="M190.017,231.065c-0.022,2.864,0.891,5.208,3.823,6.536
		c0.522-3.873-0.39-7.509,0.767-11.614C191.606,226.7,190.037,228.259,190.017,231.065"/>
	<path clip-path="url(#SVGID_2_)" fill="#FFFFFF" d="M121.993,128.536c-0.058,2.532,1.197,4,3.599,4.44
		c2.244,0.411,3.282-0.953,3.905-3.56c-1.378-0.715-2.93-1.789-4.649-2.307C123.895,126.821,122.046,126.226,121.993,128.536"/>
	<path clip-path="url(#SVGID_2_)" fill="#FFFFFF" d="M117.593,125.96c-1.513,0.353-4.043-0.873-4.039,1.81
		c0.003,2.088,2.095,3.194,4.037,3.131c1.899-0.061,3.359-1.487,3.331-3.476C120.887,124.948,118.717,126.472,117.593,125.96"/>
	<path clip-path="url(#SVGID_2_)" fill="#FFFFFF" d="M130.987,131.709c-0.432,2.613,1.887,2.449,2.965,3.222
		c1.632,0.283,2.999-0.713,2.867-1.555c-0.375-2.394-3.091-2.185-4.707-3.227C131.258,129.598,131.118,130.918,130.987,131.709"/>
	<path clip-path="url(#SVGID_2_)" fill="#F2CD16" d="M121.23,187.532c0.146,0.422,0.876,1.073,0.961,1.021
		c1.037-0.652,1.516-1.691,1.411-3.198C123.325,186.616,120.425,185.198,121.23,187.532"/>
	<path clip-path="url(#SVGID_2_)" fill="#F2CD16" d="M124.251,182.146c-0.578,0.137-1.257,0.398-1.605,0.841
		c-0.71,0.9,0.141,0.934,0.738,0.979c0.651,0.049,1.317,0.058,1.569-0.999C124.771,182.743,124.432,182.104,124.251,182.146"/>
	<path clip-path="url(#SVGID_2_)" fill="#191814" d="M122.768,112.133c3.954,1.308,7.63,0.937,11.705,0.137
		c-3.912,4.633-9.142,2.201-14.658,1.97c5.895,2.906,13.891,2.586,16.217-0.942c2.943-4.46,8.683-7.394,8.028-13.961
		c-0.147-1.475,1.253-1.061,2.084-1.424c4.052-1.769,4.155-4.529,0.355-7.572c-0.107,1.872,2.685,3.52,1.063,5.195
		c-1.585,1.638-3.753,1.602-6.301,0.727c-6.673-2.291-13.612-1.368-20.388-0.133c-6.155,1.121-7.263,3.078-5.63,8.511
		C116.406,108.509,118.793,110.819,122.768,112.133 M117.146,98.959c2.257-0.852,4.381-2.125,6.913-1.909
		c0.497,0.043,0.694,0.338,0.396,0.949c-1.015,2.089-0.458,3.598,1.936,3.942c0.982,0.141,2.158,0.515,2.76-1.198
		c0.763-2.171,0.057-3.435-2.295-4.276c4.913-1.401,9.029,0.194,13.181,0.656c3.421,0.38,4.016,4.239,1.273,7.998
		c-4.279,5.865-12.158,8.684-19.396,5.377c-3.466-1.584-5.166-4.329-5.795-7.762C115.917,101.626,114.962,99.784,117.146,98.959"/>
	<path clip-path="url(#SVGID_2_)" fill="#191814" d="M88.426,107.189c2.663-0.592,4.365-1.896,6.437-0.533
		c-2.674,0.215-3.514,1.692-3.361,4.092c0.973-3.017,3.805-2.704,6.4-3.088C94.417,104.354,92.757,104.196,88.426,107.189"/>
	<path clip-path="url(#SVGID_2_)" fill="#191814" d="M240.052,186.761c-0.141,2.823-0.034,5.657-0.069,8.486
		c-0.025,2.158-1.332,2.77-3.287,2.766c-2.254-0.005-1.535-1.633-1.698-2.814c-0.212-1.553,0.496-3.21-0.526-4.769
		c-1.328,9.352-1.325,9.299-10.919,8.609c-2.1-0.151-3.234-0.433-2.166-2.871c1.248-2.848,0.551-5.801-0.004-8.733
		c-0.388,1.936-0.037,3.972-0.469,5.825c-0.656,2.824-0.272,6.322-5.457,5.901c-7.371-0.599-7.375-0.124-7.491-7.729
		c-0.019-1.211,0.583-2.627-0.965-4.157c0,2.985,0.16,5.473-0.064,7.925c-0.121,1.323,0.927,4.491-1.507,3.488
		c-2.099-0.862-6.715,1.678-6.459-3.634c0.166-3.456,0.03-6.925,0.03-10.389c-0.333,0.005-0.667,0.01-1,0.015
		c0,15.783-0.001,31.566,0,47.35c0,6.282,2.215,9.76,8.102,10.859c0.282,0.054,0.564,0.1,0.848,0.149
		c0.564-0.364,1.124-0.734,1.683-1.107c-1.53-0.396-3.06-0.872-4.589-1.448c-3.457-1.305-5.294-3.749-5.15-7.99
		c0.336-9.988,0.102-19.994,0.113-29.993c0.002-1.75-0.243-4.562,2.425-3.238c1.517,0.753,6.536-1.83,4.777,3.94
		c-0.977,3.206-0.443,6.967-0.157,10.441c0.628,7.605-1.511,15.104-0.757,22.651c2.134-9.872,1.688-19.811,1.682-29.725
		c-0.001-2.346,0.21-5.676,1.876-6.14c3.239-0.903,6.938-0.577,10.373-0.155c1.364,0.168,0.745,2.334,0.75,3.593
		c0.043,9.566,0.039,19.135,0.878,28.711c0.049-0.043,0.097-0.086,0.146-0.129c-0.006-8.687-0.046-17.372,0.043-26.057
		c0.021-2.075-1.048-5.531,0.768-5.979c3.607-0.889,7.614-0.551,11.395-0.151c1.39,0.147,0.819,2.336,0.763,3.577
		c-0.229,4.997-0.051,9.975,0.258,15.08c0.279-0.335,0.559-0.671,0.835-1.009c-0.122-1.527-0.184-3.045-0.098-4.567
		c0.217-3.82,0.133-7.667,0.004-11.495c-0.071-2.104,0.522-2.942,2.781-2.909c2.281,0.033,2.267,1.289,2.265,2.898
		c-0.007,3.2-0.008,6.401-0.011,9.603c0.353-0.496,0.694-0.998,1.038-1.499c0.028-8.567,0.082-17.135,0.107-25.702
		C239.193,184.298,240.095,185.896,240.052,186.761"/>
	<path clip-path="url(#SVGID_2_)" fill="#191814" d="M241.146,184.13c0,0.037,0,0.073,0,0.11c0.041-0.001,0.075-0.006,0.119-0.006
		C241.265,184.234,241.162,184.145,241.146,184.13"/>
	<path clip-path="url(#SVGID_2_)" fill="#191814" d="M224.179,182.726c3.61-3,6.4-0.328,10.561,1.509
		C229.491,179.092,227.488,178.896,224.179,182.726"/>
	<path clip-path="url(#SVGID_2_)" fill="#191814" d="M210.013,181.996c3.881-1.246,7.273-1.938,10.35,1.012
		C217.844,179.368,213.724,178.95,210.013,181.996"/>
	<path clip-path="url(#SVGID_2_)" fill="#191814" d="M199.438,181.155c2.979-1.602,5.143-0.131,7.423,1.037
		C204.839,179.866,202.771,177.359,199.438,181.155"/>
	<path clip-path="url(#SVGID_2_)" fill="#191814" d="M240.451,181.247c-2.005-0.694-3.509,0.257-4.641,2.367
		c2.125-0.14,4.13-2.664,5.386,0.461C242.904,182.662,241.529,181.62,240.451,181.247"/>
	<path clip-path="url(#SVGID_2_)" fill="#191814" d="M241.196,184.075c-0.021,0.017-0.035,0.033-0.057,0.05
		c0,0,0.005,0.004,0.007,0.005c0.015,0.015,0.117,0.104,0.117,0.104C241.242,184.175,241.218,184.131,241.196,184.075"/>
	<path clip-path="url(#SVGID_2_)" fill="#191814" d="M143.771,232.348c0.257,0.063,0.519,0.134,0.788,0.22
		C144.265,232.433,144.01,232.375,143.771,232.348"/>
	<path clip-path="url(#SVGID_2_)" fill="#191814" d="M138.445,235.758c3.159,1.344,2.833-3.694,5.326-3.41
		C140.92,231.644,138.928,232.384,138.445,235.758"/>
	<path clip-path="url(#SVGID_2_)" fill="#FFFFFF" d="M121.914,110.498c7.238,3.307,15.117,0.488,19.396-5.377
		c2.743-3.759,2.148-7.618-1.273-7.998c-4.152-0.462-8.268-2.057-13.181-0.656c2.352,0.841,3.058,2.105,2.295,4.276
		c-0.602,1.713-1.777,1.339-2.76,1.198c-2.394-0.344-2.951-1.853-1.936-3.942c0.298-0.611,0.101-0.906-0.396-0.949
		c-2.532-0.216-4.656,1.057-6.913,1.909c-2.184,0.825-1.23,2.667-1.027,3.777C116.749,106.169,118.448,108.914,121.914,110.498"/>
	<path clip-path="url(#SVGID_2_)" fill="#E2B41F" d="M233.965,203.841c0.058-1.241,0.628-3.43-0.762-3.576
		c-3.781-0.4-7.787-0.738-11.395,0.15c-1.815,0.447-0.746,3.903-0.768,5.979c-0.089,8.685-0.049,17.371-0.043,26.056
		c4.753-4.156,9.176-8.681,13.226-13.528C233.915,213.814,233.737,208.837,233.965,203.841"/>
	<path clip-path="url(#SVGID_2_)" fill="#E2B41F" d="M219.225,200.275c-3.436-0.421-7.135-0.748-10.373,0.155
		c-1.666,0.465-1.877,3.795-1.876,6.139c0.007,9.915,0.452,19.854-1.682,29.725c-0.754-7.546,1.385-15.045,0.757-22.65
		c-0.286-3.475-0.819-7.235,0.157-10.441c1.758-5.771-3.261-3.188-4.777-3.939c-2.668-1.324-2.423,1.486-2.425,3.237
		c-0.012,9.998,0.223,20.005-0.113,29.993c-0.144,4.241,1.693,6.686,5.15,7.99c1.529,0.577,3.06,1.053,4.588,1.448
		c4.274-2.859,8.356-5.984,12.222-9.353c-0.839-9.577-0.835-19.144-0.878-28.711C219.97,202.609,220.588,200.442,219.225,200.275"/>
	<path clip-path="url(#SVGID_2_)" fill="#E2B41F" d="M237.746,198.94c-2.259-0.034-2.853,0.805-2.782,2.908
		c0.129,3.829,0.213,7.676-0.002,11.496c-0.086,1.522-0.025,3.04,0.097,4.567c1.717-2.101,3.367-4.257,4.941-6.472
		c0.003-3.2,0.004-6.401,0.01-9.602C240.014,200.229,240.027,198.974,237.746,198.94"/>
</g>
</svg>
