<?xml version="1.0" encoding="utf-8"?>
<!-- Generator: Adobe Illustrator 17.1.0, SVG Export Plug-In . SVG Version: 6.00 Build 0)  -->
<!DOCTYPE svg PUBLIC "-//W3C//DTD SVG 1.0//EN" "http://www.w3.org/TR/2001/REC-SVG-20010904/DTD/svg10.dtd" [
	<!ENTITY ns_extend "http://ns.adobe.com/Extensibility/1.0/">
	<!ENTITY ns_ai "http://ns.adobe.com/AdobeIllustrator/10.0/">
	<!ENTITY ns_graphs "http://ns.adobe.com/Graphs/1.0/">
	<!ENTITY ns_vars "http://ns.adobe.com/Variables/1.0/">
	<!ENTITY ns_imrep "http://ns.adobe.com/ImageReplacement/1.0/">
	<!ENTITY ns_sfw "http://ns.adobe.com/SaveForWeb/1.0/">
	<!ENTITY ns_custom "http://ns.adobe.com/GenericCustomNamespace/1.0/">
	<!ENTITY ns_adobe_xpath "http://ns.adobe.com/XPath/1.0/">
]>
<svg version="1.0" xmlns:x="&ns_extend;" xmlns:i="&ns_ai;" xmlns:graph="&ns_graphs;"
	 xmlns="http://www.w3.org/2000/svg" xmlns:xlink="http://www.w3.org/1999/xlink" x="0px" y="0px" viewBox="0 0 283.5 283.5"
	 enable-background="new 0 0 283.5 283.5" xml:space="preserve">
<metadata>
	<sfw  xmlns="&ns_sfw;">
		<slices></slices>
		<sliceSourceBounds  height="268.5" width="273" bottomLeftOrigin="true" x="3.1" y="9.5"></sliceSourceBounds>
	</sfw>
</metadata>
<g id="Calque_2">
	<circle fill="#E5E681" cx="142.6" cy="142.6" r="127.4"/>
	<path fill="#EFF0F1" d="M142.4,6.5C68.5,6.5,8.6,66.4,8.6,140.2S68.5,274,142.4,274s133.7-59.9,133.7-133.7S216.2,6.5,142.4,6.5z
		 M142.4,262.2c-67.3,0-121.9-54.6-121.9-121.9S75,18.3,142.4,18.3s121.9,54.6,121.9,121.9S209.7,262.2,142.4,262.2z"/>
	<path fill="#EFF0F1" d="M142.4,6.5C68.5,6.5,8.6,66.4,8.6,140.2S68.5,274,142.4,274s133.7-59.9,133.7-133.7S216.2,6.5,142.4,6.5z
		 M142.4,262.2c-67.3,0-121.9-54.6-121.9-121.9S75,18.3,142.4,18.3s121.9,54.6,121.9,121.9S209.7,262.2,142.4,262.2z"/>
	<path fill="#EFF0F1" d="M142.4,6.5C68.5,6.5,8.6,66.4,8.6,140.2S68.5,274,142.4,274s133.7-59.9,133.7-133.7S216.2,6.5,142.4,6.5z
		 M142.4,262.2c-67.3,0-121.9-54.6-121.9-121.9S75,18.3,142.4,18.3s121.9,54.6,121.9,121.9S209.7,262.2,142.4,262.2z"/>
	<path fill="#EFF0F1" d="M142.4,6.5C68.5,6.5,8.6,66.4,8.6,140.2S68.5,274,142.4,274s133.7-59.9,133.7-133.7S216.2,6.5,142.4,6.5z
		 M142.4,262.2c-67.3,0-121.9-54.6-121.9-121.9S75,18.3,142.4,18.3s121.9,54.6,121.9,121.9S209.7,262.2,142.4,262.2z"/>
</g>
<g id="Calque_1">
	<g id="Calque_3">
		<path fill="#FECB2E" stroke="#000000" stroke-width="2" d="M199.1,206.6c0,0,6.9,26.6,12.9,32.3c6,5.8,6,6.9,6,6.9l-7.5,2.2
			l-18.9,9.7H174l-3-37.1l0.6-11.8L199.1,206.6z"/>
		<polygon fill="#FECB2E" points="86.7,115.9 79.3,134.3 93.5,223.8 158.3,257.7 166.6,238.3 179.3,175.1 171.9,169.9 184,161.5 
			203.6,165.4 228.3,162.1 232,156.3 226.4,148.2 214.7,139.9 218,128.8 212.2,123.4 214.6,112.8 217.3,107.1 217.9,103.9 
			212.9,97.7 203,94 199.8,92.7 164.1,77.7 110.6,94.2 		"/>
		<path fill="#F98D79" stroke="#000000" stroke-width="3" d="M149.9,240.5"/>
		<path fill="none" stroke="#000000" stroke-width="2" d="M143.4,217.3c0.4-1,1.7-1.6,2.6-1.3c0.2,0.1,0.3,0.1,0.5,0.3
			c0.4,0.3,0.5,0.9,0.5,1.6c0,1.6-0.5,3-1.3,4.4c-0.2,0.4-0.5,0.8-1,0.8"/>
		<path fill="none" stroke="#000000" stroke-width="2" d="M152,213.7c-0.1,0-0.1,0.1-0.1,0.2c0.2,0.6,0.5,1.4,0.9,1.9
			c0.1,0.2,0.3,0.3,0.5,0.4c0.3,0.1,0.7-0.1,0.8-0.5"/>
		<path fill="none" stroke="#000000" stroke-width="2" d="M152.5,216.4c-1.4,0.9-2.3,2.4-2.6,4.1c-0.1,0.6-0.1,1.3,0.2,1.8
			c0.1,0.2,0.3,0.4,0.5,0.6c0.6,0.6,1.5,1.4,2.4,1.2c0.5-0.1,1-0.4,1.4-0.9c0.3-0.5,0.5-1,0.7-1.6"/>
		<path fill="none" stroke="#000000" stroke-width="2" d="M144.7,224.7c0,0-0.1,0-0.1-0.1c0-0.1,0.1-0.1,0.1-0.1
			c0.5-0.5,1.3-0.8,2-0.8c0.6,0.1,1.3,0.5,1.6,1c0.3,0.5,0.5,1.3,0.6,1.9c0.3,1.6,0.3,3.1,0.2,4.7c0,0.3-0.1,0.5-0.2,0.7
			s-0.4,0.4-0.7,0.3"/>
		<path fill="none" stroke="#000000" stroke-width="2" d="M152.4,225.7c-1.3,0.4-2.1,1.5-2.6,2.7c-0.3,0.7-0.4,1.6-0.1,2.3
			c0.3,0.7,1,1.4,1.8,1.3c0.1,0,0.2,0,0.3-0.1c0.1-0.1,0.2-0.1,0.3-0.2c0.6-0.7,1-1.6,1.3-2.5"/>
		<path fill="none" stroke="#000000" stroke-width="2" stroke-linecap="round" stroke-linejoin="round" d="M183,160.4
			c0.1,1,0.2,2.1,0,3.1c-0.2,1-0.7,2-1.7,2.5c-0.6,0.3-1.4,0.4-2.1,0.5c-3.9,0.8-6.5,4.4-8.4,7.8c-1.9,3.5-3.6,7.2-6.8,9.6
			c-1.5,1-3.1,1.7-4.7,2.4c-4.7,2.2-9.1,5.1-13.4,8"/>
		<path fill="none" stroke="#000000" stroke-width="2" stroke-linecap="round" stroke-linejoin="round" d="M104.1,116.3
			c-0.2,0-0.3,0-0.5,0c2.2-1.3,4.9-1.5,7.2-0.5s4.2,2.9,4.9,5.4c-0.2-0.7-0.8-1.3-1.6-1.6s-1.5-0.3-2.2-0.3c-0.6,0-1.3,0-1.8,0.1
			c-2.6,0.5-4.6,3.3-4.3,5.9"/>
		<path fill="none" stroke="#000000" stroke-width="2" stroke-linecap="round" stroke-linejoin="round" d="M170.5,123.4
			c0,0,0.5,6.4-7.1,7.9c-7.7,1.5-16.3-1.5-16.3-1.5"/>
		<path fill="none" stroke="#000000" stroke-width="2" stroke-linecap="round" stroke-linejoin="round" d="M207.3,122.8
			c0,0,11.1,1.3,10.6,8.3c-0.5,7-5.4,21-31.7,6.9"/>
		<g>
			<path fill="#FFFFFF" d="M142.8,145.2c-8.5,0-8.5,9.7,0,9.7C151.3,154.9,151.3,145.2,142.8,145.2z"/>
			<path fill="#FFFFFF" d="M156.4,148.4c-7.1-1.4-8.7,6.6-1.6,8S163.5,149.8,156.4,148.4z"/>
			<path fill="#FFFFFF" d="M151.7,147.7c-2.8-0.5-3.5,2.6-0.6,3.1C153.9,151.5,154.5,148.3,151.7,147.7z"/>
			<path fill="#FFFFFF" d="M164.4,152c-2.8-0.5-3.5,2.6-0.6,3.1C166.6,155.7,167.2,152.5,164.4,152z"/>
			<path fill="#FFFFFF" d="M164.5,154.1c-2.8-0.5-3.5,2.6-0.6,3.1C166.7,157.8,167.3,154.6,164.5,154.1z"/>
			<path fill="#FFFFFF" d="M165.2,156.2c-2.8-0.5-3.5,2.6-0.6,3.1C167.5,160,168,156.8,165.2,156.2z"/>
			<path fill="#FFFFFF" d="M167,156.7c-2.8-0.5-3.5,2.6-0.6,3.1C169.2,160.5,169.8,157.4,167,156.7z"/>
			<path fill="#FFFFFF" d="M169.4,156.4c-2.8-0.5-3.5,2.6-0.6,3.1C171.6,160.1,172.2,157,169.4,156.4z"/>
			<path fill="#FFFFFF" d="M171.1,155.4c-2.8-0.5-3.5,2.6-0.6,3.1C173.3,159.2,173.9,155.9,171.1,155.4z"/>
			<path fill="#FFFFFF" d="M168,154.1c-2.8-0.5-3.5,2.6-0.6,3.1C170.2,157.8,170.9,154.6,168,154.1z"/>
			<path fill="#FFFFFF" d="M166.1,152.9c-2.8-0.5-3.5,2.6-0.6,3.1S169,153.4,166.1,152.9z"/>
		</g>
		<path fill="none" stroke="#000000" stroke-width="2" stroke-linecap="round" stroke-linejoin="round" d="M136.5,146.8
			c0,0-1.7,8,5.2,8.1c6.9,0.1,7.8-7,7.6-8.1c0,0-1.3,10.2,4.3,10.1c5.6-0.1,6.9,0.2,8-5.9c0,0-1.3,9.6,4.4,9.4
			c5.7-0.1,8.1-3.8,8.1-3.8"/>
		<path fill="none" stroke="#000000" stroke-width="2" stroke-linecap="round" stroke-linejoin="round" d="M131.7,149.4
			c0,0,7.9-8,26.4,0c9.7,4.2,27.5,13.6,43.5,15.7c14.6,2,27.6-3,29.3-6.8c3.4-7.9-16.1-18.4-16.1-18.4"/>
		
			<line fill="none" stroke="#000000" stroke-width="2" stroke-linecap="round" stroke-linejoin="round" x1="126.8" y1="106.1" x2="118.9" y2="112.3"/>
		<path fill="none" stroke="#000000" stroke-width="2" stroke-linecap="round" stroke-linejoin="round" d="M118.6,113.9
			c0.4-0.4,0.5-1,0.3-1.6c-0.2-0.5-0.6-0.9-1-1.4c-2.1-1.9-4.5-3.9-7.3-3.9c-1.2,0-2.2,0.3-3.4,0.5c-2.1,0.5-4.3,1.2-6,2.6
			c-1.8,1.5-2.7,3.8-3.3,6c-1,4.4-0.7,9.4,1.8,13.2c1.6,2.4,4.2,4.3,7,4.6c2.9,0.3,6.1-1.3,7-4"/>
		<path fill="none" stroke="#000000" stroke-width="2" stroke-linecap="round" stroke-linejoin="round" d="M203,94
			c0,0,15.6,3.8,14.9,10c-0.6,6.2-4.1,6.3-4.1,6.3"/>
		<path fill="#85320D" stroke="#000000" stroke-width="2" stroke-linecap="round" stroke-linejoin="round" d="M131.7,80.2
			c-12.6,8.4-9.7,19.9-8.8,18.4c0.8-1.6,4.7-6.3,4.7-6.3c-0.6,5.1-0.9,9.1-0.9,12.3c0,0.6,0,1.2,0,1.7c0.1,5.8,0.9,7.8,0.9,7.8
			C138.5,91.4,148,85.1,148,85.1l-2,6.9l5.4-3.8c0,0-5.2,13.6-2.1,12.6c3.1-1,11.2-17.6,11.2-17.6s1.7-1.3,4.1,1.6s13,6.8,16.9,7.1
			c3.9,0.3,6.1-1.8,12.1-1.6c6,0.2,10.2,4.8,10.2,4.8c-0.2-0.4-0.4-0.7-0.6-1.2c-4.3-7.5-16.1-15.5-16.1-15.5c0.5-3.7,9.2-5,9.2-5
			c-10-8.9-17.4-5.2-17.4-5.2c2-6.8,7.5-10,7.5-10c-13.8-0.2-16.4,6.6-16.4,6.6c-10.8-5.8-14.6-2.6-14.6-2.6
			c6.4,6.1,5.1,8.6,5.1,8.6C137.8,57,129.1,64,129.1,64l13.6,8.9c-13.1-2.9-19.1,2.4-19.1,2.4c-11.9-17.1-19.9-11.2-19.9-11.2
			l6.1,8.4l-9.7,2.6c11.3,4.9,10.8,10.5,10.8,10.5c-11,2.9-20.5,15.4-19.3,14.2c1.2-1.3,10.6-1,10.6-1c-15.4,11.2-22.6,23.9-21,24.1
			c1.6,0.2,10-3.8,10.3-2.6c0.3,1.3-2.6,10-1.8,7.2c0.8-2.7,6.9-4.4,6.9-4.4s0.6-4.8,1-6.5c0.5-1.7,1.6-7.8,8.7-8.2
			s7.3-3.1,11.7,3.3l8.2-5.4"/>
		<path fill="none" stroke="#000000" stroke-width="2" stroke-linecap="round" stroke-linejoin="round" d="M139.9,109.3"/>
		<path fill="#FFFFFF" d="M139.5,109.5l0.4,4.3l2.3,4.6l2.2,4.4l3.7,2.5l5.4,1.6l6.3-0.3c0,0,5,0.2,5.1-0.5c0.1-0.7,3.6-1.9,4.1-2.1
			c0.5-0.2,3.8-2,3.8-2l3.6-3.9l3.8-6.4l0.7-7.3l-8.1-0.6l-8.8-0.8l-9.2-0.1l-5.7,0.9l-6.3,2.4"/>
		<path fill="none" stroke="#000000" stroke-width="2" stroke-linecap="round" stroke-linejoin="round" d="M185.4,95.1
			c0,0,6.5,4.1,2.6,7.6c-1.4,1.3-3.7,1.7-6.6,1.8c-0.2,0-0.3,0-0.5,0c-9.9,0-26.2-4.4-36.1,1.2c-13,7.2-8.3,7.1-8.3,7.1"/>
		<path fill="none" stroke="#000000" stroke-width="2" stroke-linecap="round" stroke-linejoin="round" d="M181.5,104.6
			c-0.9,12-5.1,19.5-22.7,22.3c-17.5,2.7-19.3-18-19.3-18"/>
		<circle stroke="#000000" stroke-width="2" stroke-linecap="round" stroke-linejoin="round" cx="157.3" cy="108.7" r="2.5"/>
		<polyline fill="#FFFFFF" points="189.2,109.5 192.6,117 195.3,121.7 201.6,122.8 206.5,122.8 211.6,122.3 213.9,120.6 
			215.2,117.2 214.6,112.8 213.7,110.2 211.2,109.3 203.3,107.9 199.9,107.1 192,106.9 		"/>
		<path fill="none" stroke="#000000" stroke-width="2" stroke-linecap="round" stroke-linejoin="round" d="M187.9,110.2
			c0,0,0.6-0.7,1.9-1.6c3.3-2,10.7-4.6,24,1.6c0,0,5.7,13.5-6.5,12.6c0,0-14.5,4.3-17.5-14.2"/>
		
			<ellipse stroke="#000000" stroke-width="2" stroke-linecap="round" stroke-linejoin="round" cx="206.1" cy="109.5" rx="2.5" ry="1.7"/>
		<path fill="#FECB2E" d="M215.2,115.8"/>
		<path fill="#F98D79" stroke="#000000" stroke-width="2" d="M172.3,173.2c0,0,15.9,30.4,13.8,31.1c-2.2,0.7-16.7-2.9-20.9-2.3
			c0,0,2.7-12.2,2.3-20.5L172.3,173.2z"/>
		<polygon fill="#F98D79" stroke="#000000" stroke-width="2" points="178.8,174 177.9,184.2 172.3,173.2 173.2,171.8 		"/>
		<polyline fill="#FECB2E" stroke="#000000" stroke-width="2" points="73.3,200.9 61.4,240.5 27.8,200.9 		"/>
		<path fill="#FECB2E" stroke="#000000" stroke-width="2" d="M3.1,187.8"/>
		<path fill="#F98D79" stroke="#000000" stroke-width="2" d="M35.6,156.5c0,0,5.5-16.3,44.6-28l4-3.7c0,0-9.7,18.7,5.8,42.5
			s25.2,25.7,32.3,35.9s19.1,18.1,27.5,37.3c0,0,18.9-33.1,17.6-59l5.8-9.7c0,0,9.6,3.4,13.6,5.8s13,10.1,20.4,28.7
			c0,0-2.9-1.6-4.1-1.2c-1.2,0.4-20.2,7.3-20.2,8.2c0,0.4,1.3,5.8,1.2,11.2c-0.1,5.6-1.7,11.1-2,11.9c-0.5,1.3,6.8-15.2,19.9,18.4
			l-88.8,13.4c0,0-67-22.6-54.4-52.1L35.6,156.5z"/>
		<path fill="#F98D79" stroke="#000000" stroke-width="2" d="M89.2,210.9c0,0,2.3-5.5,10.3-7.9c8-2.4,18.8-3,18.8-3
			s-46.4-41.4-31.9-78.6l-6,7.1c0,0-8.6,13.1-9.2,36.2"/>
		<path fill="#F98D79" stroke="#000000" stroke-width="2" d="M71.1,164.7c-0.5,23.1,18.1,46.2,18.1,46.2"/>
		<path fill="#F98D79" stroke="#000000" stroke-width="2" d="M35.6,156.5c0,0-13.1,1-15.7,5.6"/>
		<path fill="#F98D79" stroke="#000000" stroke-width="2" d="M17.6,162.1c0,0,16.8-9.9,29.1-4.2c12.3,5.7,28.7,17.7,15.4,61.7
			c0,0-18.2-17.2-34.3-18.7L17.6,162.1z"/>
	</g>
</g>
<g id="Calque_3_1_">
	<path fill="#EFF0F1" d="M142.4,5.5C68.5,5.5,8.6,65.4,8.6,139.2S68.5,273,142.4,273s133.7-59.9,133.7-133.7S216.2,5.5,142.4,5.5z
		 M142.4,261.2c-67.3,0-121.9-54.6-121.9-121.9S75,17.3,142.4,17.3s121.9,54.6,121.9,121.9S209.7,261.2,142.4,261.2z"/>
</g>
</svg>
