<?xml version="1.0" encoding="utf-8"?>
<!-- Generator: Adobe Illustrator 16.0.3, SVG Export Plug-In . SVG Version: 6.00 Build 0)  -->
<!DOCTYPE svg PUBLIC "-//W3C//DTD SVG 1.1//EN" "http://www.w3.org/Graphics/SVG/1.1/DTD/svg11.dtd">
<svg version="1.1" id="Layer_1" xmlns="http://www.w3.org/2000/svg" xmlns:xlink="http://www.w3.org/1999/xlink" x="0px" y="0px"
	 width="453px" height="453px" viewBox="0 0 453 453" enable-background="new 0 0 453 453" xml:space="preserve">
<g id="Layer_2_1_">
</g>
<g display="none">
	<path display="inline" fill-rule="evenodd" clip-rule="evenodd" fill="#020101" d="M408.042,327.677
		c-12.188-11.257-23.854-23.023-34.28-35.945c-3.033-3.758-6.746-5.356-11.341-5.382c-2.143-0.013-4.287,0.173-6.431,0.294
		c-0.757,0.042-1.413,0.11-2.159-0.384c-6.95-4.603-14.562-7.977-22.532-10.095c-6.161-1.637-11.088-4.343-14.549-9.671
		c-0.247-0.381-0.583-0.711-0.905-1.038c-0.596-0.605-0.701-1.316-0.523-2.108c1.752-7.76,2.588-15.606,2.01-23.669
		c0.983,0.384,1.223,1.162,1.608,1.785c3.236,5.223,4.896,11.011,6.144,16.962c0.197,0.941-0.166,2.551,1.186,2.679
		c1.493,0.141,1.476-1.568,1.85-2.536c4.008-10.375,3.496-20.67-0.576-30.928c-1.034-2.605-2.778-4.929-2.963-7.9
		c-0.146-2.363-0.514-4.727-0.968-7.053c-1.909-9.762-5.389-18.831-11.996-26.466c-5.604-6.477-12.602-10.868-20.613-13.74
		c-0.849-0.305-1.943-0.271-1.754-1.851c0.319-2.657,0.366-5.348,0.477-8.028c0.033-0.825,0.01-1.351,1.157-1.463
		c5.995-0.583,9.471-4.214,11.229-9.715c1.594-4.981-0.027-9.186-3.405-12.851c-3.919-4.249-8.904-6.916-14.055-9.339
		c-17.357-8.167-31.014-20.657-42.187-36.073c-6.7-9.244-15.06-16.504-25.716-20.894c-10.909-4.494-22.257-4.886-33.696-3.067
		c-12.415,1.973-22.298,7.509-27.36,19.941c-5.285,12.977-3.773,24.702,5.365,35.34c3.714,4.324,8.189,7.845,12.653,11.357
		c0.596,0.468,1.135,0.802,1.14,1.785c0.022,4.91,0.28,9.813,0.859,14.69c0.148,1.244-0.243,1.692-1.402,2.108
		c-4.607,1.658-9.117,3.564-13.482,5.799c-1.661,0.851-3.152,1.898-4.28,3.404c-3.287,4.391-1.394,10.021,3.853,11.449
		c1.637,0.445,3.312,0.571,5.006,0.641c3.274,0.133,6.502-0.445,10.007-0.834c-0.834,1.681-1.628,3.039-1.775,4.559
		c-0.216,2.234-1.327,3.971-2.513,5.787c-2.337,3.58-2.998,7.494-1.626,11.645c0.236,0.714,0.417,1.401,0.156,2.209
		c-2.574,7.975-0.921,14.957,5.062,20.856c0.643,0.634,0.932,1.259,0.971,2.18c0.235,5.553,1.359,10.949,3.292,16.15
		c0.527,1.418,0.251,1.934-1.107,2.513c-7.766,3.311-14.595,8.048-20.612,13.952c-1.529,1.5-3.098,2.989-4.144,4.906
		c-1.608,2.948-0.842,5.194,2.237,6.439c0.706,0.286,1.448,0.533,2.197,0.655c4.417,0.712,8.842,0.864,13.267,0.035
		c2.995-0.561,2.986-0.562,2.619,2.384c-0.075,0.605-0.24,1.295-0.041,1.824c0.546,1.446-0.314,2.027-1.301,2.728
		c-5.881,4.169-11.706,8.418-17.256,13.023c-5.957,4.941-12.108,9.714-16.093,16.567c-0.494,0.849-1.139,0.582-1.782,0.553
		c-4.311-0.188-8.392,0.662-12.158,2.788c-1.096,0.618-1.437,0.496-1.761-0.785c-0.913-3.608-3.033-6.257-6.888-6.837
		c-11.712-1.762-22.423,0.866-31.919,7.93c-4.081,3.036-6.841,5.934-3.359,12.605c0.318,0.611,0.516,1.296,0.895,1.861
		c0.759,1.133,0.596,1.662-0.733,2.31c-9.735,4.742-16.853,13.267-20.245,23.156c3.795,4.057,6.013,9.687,7.804,15.176
		c2.734,2.979,5.69,5.678,9.121,7.773c9.176,5.605,19.944,10.244,21.533,22.026c16.173,10.369,34.228,18.188,51.516,24.091
		c27.687,9.453,56.731,14.607,85.959,17.006c8.94-2.515,19.15-2.655,27.703-3.902c6.966-1.016,14.345-2.402,21.715-3.029
		c0.539-0.389,1.088-0.762,1.646-1.116c-0.754-2.114-0.168-4.78,2.018-6.217c1.978-1.3,4.033-2.3,6.146-3.08
		c3.453-3.358,7.747-5.334,12.382-6.757c2.171-0.667,4.768,0.641,5.89,2.624c0.979-0.691,1.949-1.397,2.916-2.12
		c1.384-1.035,2.764-1.152,3.943-0.703c2.172-1.43,5.031-0.491,6.549,1.464c1.636-0.704,3.317-1.296,5.075-1.708
		c2.94-3.055,6.065-5.975,9.405-8.524c13.041-14.887,24.953-30.855,40.683-43.08c1.369-1.064,2.988-1.357,4.453-1.094
		c1.373-2.187,2.749-4.369,4.098-6.561c1.736-2.769,4.813-2.839,6.977-1.518c2.716-6.522,7.248-12.6,11.67-18.159
		C409.344,328.871,408.69,328.276,408.042,327.677z"/>
	<path display="inline" fill-rule="evenodd" clip-rule="evenodd" fill="#3DA50B" d="M249.521,430.65
		c5.146-0.579,10.272-0.93,14.91-1.605c6.966-1.016,14.345-2.402,21.715-3.029c0.539-0.389,1.088-0.762,1.646-1.116
		c-0.754-2.114-0.168-4.78,2.018-6.217c1.978-1.3,4.033-2.3,6.146-3.08c3.453-3.358,7.747-5.334,12.382-6.757
		c2.171-0.667,4.768,0.641,5.89,2.624c0.979-0.691,1.949-1.397,2.916-2.12c1.384-1.035,2.764-1.152,3.943-0.703
		c2.172-1.43,5.031-0.491,6.549,1.464c1.636-0.704,3.317-1.296,5.075-1.708c2.94-3.055,6.065-5.975,9.405-8.524
		c1.324-1.512,2.636-3.037,3.942-4.566c-10.478-32.224-24.752-62.652-43.44-91.396c-0.339,0.541-0.534,0.774-0.645,1.042
		c-1.914,4.648-5.166,7.772-10.22,8.619c-1.532,0.257-1.32,1.145-1.323,2.122c-0.008,4.485-1.989,7.996-5.509,10.607
		c-5.437,4.034-11.604,5.153-18.109,3.664c-2.283-0.523-3.253-0.015-4.462,1.894c-3.359,5.31-8.146,8.246-14.671,8.342
		c-5.49,0.079-9.77-2.209-13.479-5.899c-1.15-1.146-1.845-1.56-3.145-0.098c-2.022,2.273-4.685,3.242-7.808,3.227
		c-2.203-0.011-4.276-0.709-6.645-0.986c0.363,0.948,0.629,1.656,0.904,2.358c3.594,9.193,7.291,18.349,10.765,27.587
		C236.22,387.527,243.139,409.003,249.521,430.65z"/>
	<path display="inline" fill-rule="evenodd" clip-rule="evenodd" fill="#152568" d="M359.071,295.374
		c6.381,19.14,11.852,38.537,15.961,58.293c0.582,2.797,1.744,4.168,4.334,5.11c0.219,0.08,0.427,0.175,0.639,0.266
		c0.919-0.761,1.849-1.511,2.794-2.245c1.369-1.064,2.988-1.357,4.453-1.094c1.373-2.187,2.749-4.369,4.098-6.561
		c1.736-2.769,4.813-2.839,6.977-1.518c2.481-5.96,6.481-11.549,10.527-16.711c-3.835-3.64-7.663-7.287-11.475-10.951
		c-8.406-8.078-16.639-16.368-23.705-25.644c-4.246-5.573-9.541-6.747-15.888-5.957c-1.104,0.137-1.509,0.172-0.832,1.462
		C357.868,291.565,358.445,293.494,359.071,295.374z"/>
	<path display="inline" fill-rule="evenodd" clip-rule="evenodd" fill="#152568" d="M151.437,412.033
		c-0.232,1.308-0.534,2.582-0.887,3.832c0.073,0.024,0.146,0.052,0.219,0.076c3.121,1.065,6.263,2.059,9.416,3.018
		c-1.714-2.604-3.515-5.155-5.422-7.645c-0.749-0.978-1.238-2.861-2.517-2.623c-1.099,0.205-0.264,2.084-0.734,3.125
		C151.481,411.886,151.45,411.96,151.437,412.033z"/>
	<path display="inline" fill-rule="evenodd" clip-rule="evenodd" fill="#152568" d="M125.993,331.261
		c4.338-0.211,6.955,2.428,8.967,5.742c2.917,4.802,2.406,10.133,1.746,15.354c-0.554,4.376-2.036,8.604-2.328,13.048
		c-0.118,1.784,0.057,3.1,1.947,4.116c3.84,2.063,6.795,5.207,8.991,8.96c4.536,7.755,6.509,16.239,6.818,25.153
		c0.032,0.952,0.221,1.718,0.856,2.51c3.523,4.389,6.894,8.887,9.927,13.622c8.719,2.562,17.547,4.747,26.46,6.568
		c0.408-3.76,0.692-7.542,0.834-11.349c0.054-1.452,0.4-3.042-0.807-4.321c-1.682-1.783-3.27-3.656-4.992-5.399
		c-4.426-4.479-8.881-8.933-13.379-13.342c-1.063-1.042-1.573-1.691-0.306-3.126c4.25-4.813,8.379-9.736,12.292-14.837
		c0.726-0.946,0.954-1.677,0.608-2.89c-3.627-12.743-9.135-24.641-15.873-36.013c-0.842-1.42-1.986-1.995-3.464-2.269
		c-3.432-0.636-3.438-0.058-2.701-4.121c0.307-1.689,0.079-2.998-0.952-4.245c-1.657-2.005-3.348-3.981-5.001-5.99
		c-0.655-0.796-1.276-0.995-2.375-0.679c-8.735,2.519-17.388,5.306-26.107,7.864c-2.551,0.748-2.604,2.208-2.639,4.153
		C124.496,330.858,124.904,331.314,125.993,331.261z"/>
	<path display="inline" fill-rule="evenodd" clip-rule="evenodd" fill="#A8BBCA" d="M202.858,283.369
		c2.414,0.062,4.61-0.241,6.581-1.39c1.065-0.621,1.468,0.017,1.975,0.751c2.636,3.823,2.316,7.68-0.998,11.779
		c-0.411,0.507-1.21,0.904-0.847,1.709c0.33,0.733,1.125,0.71,1.814,0.72c14.195,0.203,28.33,1.326,42.47,2.502
		c6.26,0.521,12.527,0.174,18.66-1.764c5.323-1.682,8.869-5.451,9.311-10.976c0.363-4.544-0.58-8.88-2.97-12.789
		c-3.286-5.379-8.444-6.54-14.201-5.761c-7.763,1.053-15.269,0.258-22.567-2.547c-1.347-0.517-2.286-0.466-3.379,0.811
		c-3.881,4.536-9.121,5.656-14.786,5.201c-2.023-0.163-3.833-1.169-5.192-2.716c-1.041-1.187-1.806-1.045-2.769,0.072
		c-1.714,1.989-3.754,3.589-6.138,4.737c-5.391,2.594-11.385,1.626-15.316-2.832c-1.574-1.786-2.434-1.722-4.138-0.184
		c-3.31,2.986-7.446,3.821-11.806,3.385c-1.98-0.198-3.176-1.421-3.345-3.475c-0.135-1.639,0.365-3.168,0.822-4.713
		c0.179-0.605,0.831-1.233,0.212-1.92c-0.698-0.773-1.515-0.181-2.134,0.045c-5.292,1.928-10.685,1.688-16.113,0.887
		c-0.672-0.099-1.363-0.27-1.971-0.562c-1.651-0.792-2.275-1.961-1.22-3.704c1.451-2.395,3.454-4.309,5.453-6.202
		c9.627-9.118,21.155-14.443,34.076-16.986c1.155-0.228,1.742-0.069,1.753,1.188c0.001,0.147,0.092,0.292,0.128,0.44
		c1.623,6.515,4.124,7.735,10.29,4.952c4.119-1.858,7.658-4.775,11.849-6.53c1.41-0.59,2.613-0.676,4.125-0.227
		c6.918,2.054,13.595,0.683,20.289-1.461c10.648-3.409,21.295-3.056,31.738,0.986c4.312,1.67,5.887,4.402,5.431,8.899
		c-0.126,1.242,0.385,1.667,1.496,1.757c1.221,0.098,2.461,0.136,3.65,0.395c6.893,1.504,10.925,5.518,10.026,13.187
		c-0.264,2.257,0.086,3.715,2.172,5.086c3.211,2.11,5.201,5.387,6.442,9.011c1.361,3.97,0.009,7.438-2.525,10.451
		c-1.1,1.309-1.205,2.369-0.617,3.906c2.06,5.385,1.491,10.697-0.942,15.821c-1.884,3.969-4.974,6.348-9.501,6.51
		c-1.21,0.044-1.792,0.36-1.677,1.766c0.658,8.039-3.6,11.584-10.044,13.986c-4.228,1.577-8.594,1.401-12.882,0.171
		c-1.653-0.472-2.552-0.531-3.543,1.341c-5.886,11.115-18.305,12.509-27.364,3.216c-2.174-2.229-2.337-2.365-4.271-0.029
		c-4.718,5.699-16.555,3.745-18.735-4.602c-0.792-3.032-0.926-2.998-3.671-1.555c-3.874,2.036-7.748,1.576-10.847-1.291
		c-2.63-2.432-3.323-6.265-1.882-9.979c0.383-0.988,0.748-1.44,1.973-1.146c2.308,0.557,4.685,0.788,7.073,0.766
		c0.726-0.007,1.575-0.063,1.592-0.926c0.018-0.905-0.905-0.914-1.574-0.929c-2.769-0.061-5.487-0.374-8.166-1.135
		c-3.449-0.979-5.959-2.9-6.482-6.608c-0.517-3.666,0.959-6.572,3.939-8.746c1.755-1.28,3.867-1.81,5.76-2.799
		C203.624,291.089,204.729,288.146,202.858,283.369z"/>
	<path display="inline" fill-rule="evenodd" clip-rule="evenodd" fill="#152568" d="M165.082,331.158
		c8.963,1.671,17.683,4.2,26.199,7.428c3.785,1.435,7.517,3.008,11.263,4.541c1.562,0.639,1.977,1.392,0.978,3.143
		c-2.729,4.785-5.5,9.544-8.557,14.118c-6.254,9.354-13.013,18.334-20.498,26.752c-2.614,2.94-2.579,2.915,0.028,5.466
		c9.863,9.646,19.238,19.726,27.88,30.506c1.695,2.115,3.341,4.262,4.966,6.422c9.749,1.492,19.562,2.607,29.398,3.414
		c3.514-0.986,7.221-1.61,10.948-2.075c-0.305-1.058-0.599-2.118-0.911-3.174c-4.057-13.691-8.281-27.321-12.94-40.816
		c-4.611-13.357-9.449-26.638-14.894-39.68c-2.069-4.958-3.202-10.38-6.805-14.624c-0.859-1.013-1.573-2.103-1.893-3.375
		c-0.402-1.604-1.149-1.59-2.432-0.879c-2.229,1.233-4.642,1.54-7.1,0.749c-5.966-1.921-9.735-7.94-7.352-14.34
		c0.38-1.021,0.772-1.801-0.625-2.614c-6.562-3.818-6.834-12.333-0.789-16.971c2.004-1.537,4.35-2.201,6.478-3.385
		c4.404-2.448,4.723-6.621,0.643-9.633c-1.204-0.889-2.24-1.885-2.773-3.265c-0.463-1.201-0.89-2.462-1.029-3.729
		c-0.187-1.698-1.426-2.59-2.56-3.33c-0.815-0.533-1.431,0.826-2.127,1.327c-3.927,2.821-8.364,3.414-12.915,2.562
		c-1.668-0.312-2.067,0.004-2.474,1.394c-2.252,7.693-4.578,15.365-6.427,23.17c-0.899,3.794-0.879,3.799,2.991,3.82
		c0.998,0,2.011-0.109,2.99,0.025c1.547,0.212,3.156,0.654,3.57,2.396c0.405,1.703-0.631,2.819-2.015,3.77
		c-2.765,1.898-5.87,2.975-9.036,3.857c-1.153,0.323-1.614,0.752-1.793,1.938c-0.66,4.373-1.41,8.733-2.211,13.083
		C162.957,330.764,164.066,330.969,165.082,331.158z"/>
	<path display="inline" fill-rule="evenodd" clip-rule="evenodd" fill="#FEFEFE" d="M193.197,70.001
		c20.146-0.579,35.781,7.979,47.52,23.831c8.295,11.202,17.748,21.084,29.17,29.088c5.926,4.153,12.576,6.963,18.851,10.464
		c3.969,2.213,7.755,4.697,10.252,8.672c4.161,6.621,0.31,15.653-7.282,17.172c-1.531,0.306-2.388,0.031-2.182-1.728
		c0.284-2.418-0.504-3.381-3.214-3.631c-4.577-0.422-8.479-2.978-12.344-5.325c-7.532-4.577-14.334-10.261-21.999-14.639
		c-8.903-5.085-17.696-10.546-28.066-12.116c-14.597-2.209-28.763-1.207-41.768,6.712c-2.299,1.401-4.37,3.104-6.287,4.999
		c-0.425,0.42-0.725,1.204-1.607,0.479c-5.872-4.825-11.882-9.528-15.768-16.255c-4.986-8.632-5.03-17.51-1.552-26.742
		c4.795-12.729,14.764-18.165,27.358-20.098C187.228,70.433,190.223,70.288,193.197,70.001z"/>
	<path display="inline" fill-rule="evenodd" clip-rule="evenodd" fill="#FED611" d="M171.003,195.636
		c-0.853-3.346-0.388-6.152,1.137-8.606c4.757-7.655,12.374-12.947,22.816-11.342c0.759,0.117,1.948,0.738,2.15-0.443
		c0.23-1.352-1.154-1.421-2.09-1.536c-6.168-0.755-11.912,0.302-16.971,4.135c-0.73,0.555-1.465,1.103-2.485,1.87
		c0.758-3.695,2.993-5.875,5.715-7.652c1.682-1.098,3.611-1.65,5.521-2.235c0.719-0.22,2.035-0.142,1.722-1.356
		c-0.348-1.349-1.485-0.579-2.322-0.435c-2.038,0.353-3.823,1.446-5.787,2.098c-0.312-1.187,0.009-2.204,0.295-3.244
		c0.573-2.081,1.622-3.036,4.049-3.009c12.136,0.135,24.17,1.083,36.132,3.229c8.491,1.524,17.056,2.256,25.521-0.379
		c1.09-0.34,2.329-0.573,3.174-1.257c1.981-1.599,3.615-1.009,5.588,0.071c5.914,3.237,12.09,5.901,18.778,7.613
		c-0.249,0.397-0.363,0.675-0.557,0.878c-9.449,9.9-5.297,25.265,3.625,32.183c1.957,1.518,2.201,2.588,1.075,4.727
		c-1.791,3.398-2.782,7.124-3.095,10.986c-0.349,4.304,3.865,7.387,7.854,5.767c0.836-0.339,0.951-1.102,1.17-1.849
		c1.08-3.701,2.83-6.937,6.27-9.021c5.172-3.133,9.933-1.812,12.571,3.665c4.146,8.608,2.795,16.826-2.082,24.675
		c-1.382,2.225-3.562,3.54-6.06,4.307c-0.753,0.23-1.413,0.359-2.132-0.253c-2.605-2.215-5.749-3.118-9.069-3.545
		c-0.711-0.092-1.488,0.101-1.434-1.186c0.213-5.115-3.018-7.812-7.22-9.562c-7.606-3.171-15.579-3.639-23.707-3.013
		c-5.814,0.447-11.045,3.107-16.698,4.121c-2.979,0.536-5.972,0.461-8.947,0.165c-0.909-0.091-2.183,0.066-2.535-1.438
		c-0.214-0.908-1-0.564-1.709-0.371c-3.819,1.044-7.199,2.969-10.483,5.1c-2.189,1.42-4.469,2.671-6.959,3.482
		c-3.114,1.014-4.754,0.391-5.36-2.701c-2.864-14.617-1.009-28.224,9.154-39.884c1.427-1.635,3.249-2.802,4.95-4.11
		c0.501-0.386,1.088-0.786,0.613-1.486c-0.542-0.799-1.323-0.484-1.769,0.038c-1.604,1.874-2.353,0.875-3.45-0.652
		c-8.509-11.835-26.256-12.135-35.341-0.662C172.153,194.108,171.706,194.714,171.003,195.636z"/>
	<path display="inline" fill-rule="evenodd" clip-rule="evenodd" fill="#152568" d="M297.943,264.23
		c2.913,1.91,4.771,4.699,6.386,7.688c2.729,5.056,2.366,9.847-1.317,14.291c-0.817,0.986-1.038,1.918-0.589,3.119
		c1.259,3.362,1.344,6.857,0.887,10.359c-0.151,1.161,0.134,2.04,0.733,2.963c11.953,18.383,22.275,37.631,30.984,57.763
		c4.707,10.882,8.812,21.967,12.473,33.207c9.844-11.588,19.438-23.406,30.998-33.295c-5.491-2.449-11.114-4.546-16.774-6.549
		c-8.286-2.932-16.724-5.376-25.214-7.633c-1.521-0.402-2.052-0.981-1.148-2.35c5.517-8.369,11.14-16.667,17.764-24.218
		c1.083-1.234,1.071-1.879,0.124-3.228c-8.004-11.393-16.295-22.567-25.029-33.408c-4.355-5.406-8.894-10.667-13.575-16.265
		c-1.077,3.216-2.012,5.958-2.906,8.714c-0.244,0.751-0.38,1.584-1.429,1.436c-0.882-0.124-0.89-0.876-1.001-1.58
		c-0.941-5.92-2.709-11.595-5.2-17.041c-0.333-0.727-0.469-1.812-1.42-1.957c-1.729-0.267-3.486-0.38-5.235-0.433
		c-0.559-0.017-0.592,0.646-0.521,1.099c0.273,1.734,0.155,3.459-0.044,5.185C296.779,263.042,297.164,263.721,297.943,264.23z"/>
	<path display="inline" fill-rule="evenodd" clip-rule="evenodd" fill="#FED611" d="M111.722,393.679
		c-2.071-1.062-2.943-0.218-3.772,1.339c-0.283,0.532-0.398,1.15-0.595,1.732c8.134,4.646,16.61,8.708,25.125,12.269
		c0.617-5.685-2.341-13.407-6.658-16.378c-0.461-0.317-0.762-0.599-1.344-0.053C120.533,396.277,116.097,395.924,111.722,393.679z"
		/>
	<path display="inline" fill-rule="evenodd" clip-rule="evenodd" fill="#FED611" d="M77.72,369.824
		c4.412,2.695,9.186,5.172,13.142,8.318c1.884-2.02,2.335-4.629,1.992-7.594c-0.024-0.213,0.113-0.442,0.167-0.666
		c1.451-5.959,5.548-9.793,10.553-12.747c3.668-2.165,5.473-5.502,6.507-9.348c0.961-3.576-0.452-5.818-4.081-6.653
		c-2.697-0.621-5.507-1.011-8.221-0.336c-9.451,2.351-17.094,7.387-22.417,15.67c-1.705,2.654-2.972,5.488-3.929,8.443
		C73.373,366.748,75.435,368.428,77.72,369.824z"/>
	<path display="inline" fill-rule="evenodd" clip-rule="evenodd" fill="#FED611" d="M120.466,375.799
		c-5.676-4.607-12.097-5.628-18.989-2.939c-3.617,1.412-6.545,3.783-9.307,6.381c3.619,3.194,6.333,7.119,7.078,12.577
		c2.115,1.354,4.253,2.678,6.425,3.948c0.263-1.412,1.116-2.555,2.186-3.577c1.062-1.013,2.189-1.662,3.675-0.642
		c1.41,0.967,3.052,1.453,4.708,1.77c3.797,0.723,7.396-0.926,7.979-4.044C125.162,384.258,124.773,379.295,120.466,375.799z"/>
	<path display="inline" fill-rule="evenodd" clip-rule="evenodd" fill="#FED611" d="M68.599,362.051
		c0.434,0.474,0.885,0.926,1.332,1.383c3.916-11.175,11.772-18.988,23.422-23.209c4.341-1.573,5.861-4.49,6.788-8.304
		c0.527-2.167-0.173-4.064-1.752-5.664c-3.554-3.6-8.017-3.569-12.242-2.303c-12.464,3.732-19.779,12.833-23.947,24.579
		C65.16,352.394,67.041,357.276,68.599,362.051z"/>
	<path display="inline" fill-rule="evenodd" clip-rule="evenodd" fill="#A8BBCA" d="M322.117,217.218
		c-4.919-7.317-10.442-13.551-16.608-19.224c-0.282-0.26-0.562-0.524-0.834-0.794c-0.479-0.475-1.005-0.819-1.559-0.168
		c-0.545,0.641-0.074,1.125,0.376,1.571c2.51,2.483,5.116,4.875,7.512,7.463c7.794,8.42,14.177,17.697,16.954,29.051
		c1.763,7.204,1.267,16.034-1.229,21.429c-0.932-3.014-1.744-5.87-2.7-8.679c-1.443-4.244-3.481-8.181-6.548-11.501
		c-0.578-0.628-0.674-1.286-0.802-2.052c-1.537-9.229-5.045-17.638-10.612-25.166c-0.436-0.589-0.77-1.849-1.865-1.052
		c-1.11,0.808,0.002,1.46,0.441,2.066c10.873,15.023,12.842,31.764,9.574,49.52c-0.747,4.055-1.928,7.985-3.416,12.353
		c-1.18-3.763-1.879-7.191-3.207-10.427c-1.66-4.05-3.57-7.962-5.978-11.611c-0.763-1.155-0.801-1.82,0.083-3.093
		c5.502-7.905,7.314-16.426,3.541-25.646c-1.567-3.825-3.713-7.325-8.224-7.829c-5.089-0.567-9.02,1.913-12.042,5.856
		c-1.072,1.397-1.956,2.983-2.325,4.712c-0.378,1.771-1.403,2.16-2.963,1.907c-1.693-0.276-2.852-1.025-2.825-2.974
		c0.046-3.354,0.956-6.517,2.151-9.598c0.743-1.919,2.623-3.949,2.286-5.576c-0.327-1.579-2.924-2.616-4.368-4.047
		c-6.018-5.964-8.252-13.122-6.313-21.41c0.731-3.129,2.759-5.586,4.912-7.915c0.65-0.705,1.342-0.896,2.237-0.824
		c1.146,0.092,2.321,0.267,3.446,0.118c8.868-1.18,15.941,2.906,22.54,7.921c10.438,7.934,15.548,19.054,18.028,31.595
		C322.015,214.373,322.476,215.552,322.117,217.218z"/>
	<path display="inline" fill-rule="evenodd" clip-rule="evenodd" fill="#152568" d="M138.199,393.375
		c0.929,2.24,1.271,4.681,0.856,7.197c-0.588,3.569-1.849,6.798-3.633,9.653c4.494,1.817,8.984,3.496,13.434,5.048
		c0.992-3.525,1.507-7.221,1.436-11.119c-0.135-7.26-1.616-14.267-4.495-20.926c-2.291-5.298-5.782-9.624-11.088-12.587
		c-0.233,2.784-0.17,5.311,0.41,7.767C136.292,383.365,136.204,388.56,138.199,393.375z"/>
	<path display="inline" fill-rule="evenodd" clip-rule="evenodd" fill="#4C2B10" d="M280.953,171.781
		c-7.169,0.557-13.659-2.471-20.148-5.395c-6.758-3.044-13.008-7.127-19.979-9.749c-7.751-2.916-15.745-4.808-23.915-6.095
		c-5.449-0.859-10.889-1.559-16.42-1.352c-6.74,0.253-13.36,1.23-19.817,3.193c-2.808,0.854-2.809,0.885-3.22-1.947
		c-0.551-3.789-0.47-7.635-0.937-11.417c-0.368-2.987,1.074-4.81,3.112-6.429c5.999-4.766,12.898-7.325,20.382-8.849
		c6.504-1.323,13.006-0.981,19.472-0.701c6.983,0.303,13.569,2.622,19.802,5.886c6.028,3.159,11.99,6.427,17.65,10.208
		c4.636,3.097,9.157,6.367,13.782,9.481c4.071,2.743,8.238,5.678,13.068,6.494c3.753,0.634,4.247,2.716,4.25,5.516
		c0.006,3.286-0.247,6.574-0.423,9.858c-0.061,1.113-0.867,1.31-1.802,1.301C284.277,171.771,282.74,171.781,280.953,171.781z"/>
	<path display="inline" fill-rule="evenodd" clip-rule="evenodd" fill="#152568" d="M191.177,426.696
		c4.493,0.894,9.007,1.696,13.535,2.421c-4.01-5.144-8.225-10.152-12.663-15.012c0.243,0.638-0.003,1.197-0.027,1.712
		C191.854,419.455,191.573,423.082,191.177,426.696z"/>
	<path display="inline" fill-rule="evenodd" clip-rule="evenodd" fill="#152568" d="M325.555,276.374
		c5.43,1.281,10.347,3.119,15.167,5.189c3.441,1.479,6.796,3.171,10.135,4.873c4.267,2.177,5.396,6.456,6.692,10.522
		c4.684,14.689,9.247,29.415,12.814,44.427c1.143,4.808,2.212,9.634,3.376,14.714c-5.899-2.086-11.452-4.139-17.067-6.009
		c-5.646-1.882-11.325-3.677-17.134-5c-1.987-0.454-2.165-1.05-1.008-2.809c5.218-7.931,10.802-15.58,16.969-22.794
		c0.91-1.065,1.021-1.86,0.206-3.017c-6.205-8.813-12.574-17.507-19.203-26.006c-3.242-4.16-6.605-8.226-9.897-12.348
		C326.246,277.67,326.004,277.129,325.555,276.374z"/>
	<path display="inline" fill-rule="evenodd" clip-rule="evenodd" fill="#49280D" d="M109.881,340.748
		c1.875-1.159,3.86-1.303,5.787-1.628c0.734-0.124,1.779,0.064,1.688-1.024c-0.086-1.03-1.126-0.802-1.861-0.83
		c-1.949-0.073-3.998,0.289-5.544,1.185c-3.301,1.915-6.409-0.088-9.587,0.109c-1.098,0.067-0.516-0.9-0.236-1.325
		c0.686-1.043,1.054-2.193,1.435-3.359c1.833-5.603-2.451-11.999-8.378-12.247c-2.578-0.107-5.221-0.456-7.754,0.438
		c-0.829,0.293-1.317,0.062-1.61-0.729c-0.053-0.142-0.152-0.266-0.226-0.401c-3.818-6.973-3.18-9.295,3.49-13.793
		c7.577-5.109,15.925-7.242,24.984-6.73c3.866,0.218,7.515,0.913,9.049,5.256c0.699,1.978,0.767,4.067,0.943,6.086
		c0.802,9.215,1.094,18.452,0.116,27.683c-0.448,4.232-4.953,7.408-8.815,8.347c-0.84,0.203-1.448-0.146-1.238-1.077
		C112.672,344.268,111.618,342.43,109.881,340.748z"/>
	<path display="inline" fill-rule="evenodd" clip-rule="evenodd" fill="#FED611" d="M94.697,374.489
		c-0.58-5.964,2.618-9.86,6.402-13.475c0.678-0.647,1.06,0.003,1.537,0.349c4,2.902,8.154,1.667,9.958-2.93
		c0.934-2.382,1.321-4.88,1.553-7.396c0.105-1.143,0.557-1.73,1.634-2.12c6.018-2.184,8.712-6.599,8.67-12.915
		c-0.021-3.135,1.073-3.84,4.051-2.563c4.364,1.869,5.97,5.702,6.581,10.058c0.527,3.762,0.275,7.554-0.727,11.182
		c-2.774,10.042-2.021,20.041-0.026,30.056c1.097,5.51,0.875,10.861-0.907,15.536c-1.5-3.959-3.82-7.027-6.961-9.443
		c-0.455-0.351-0.386-0.67-0.33-1.17c1.671-14.742-10.402-24.009-24.422-18.824C99.263,371.736,97.109,373.154,94.697,374.489z"/>
	<path display="inline" fill-rule="evenodd" clip-rule="evenodd" fill="#FEFEFE" d="M189.946,223.862
		c-8.163,0.725-16.856-5.837-18.915-12.94c-3.317-11.449,5.39-23.37,17.506-23.859c7.771-0.315,14.099,2.326,18.554,8.898
		c0.509,0.752,1.111,1.356,0.078,2.314c-6.599,6.121-9.775,14-11.06,22.677c-0.332,2.243-1.33,2.811-3.169,2.9
		C191.944,223.902,190.944,223.862,189.946,223.862z"/>
	<path display="inline" fill-rule="evenodd" clip-rule="evenodd" fill="#152568" d="M169.277,334.098
		c3.206,0.157,5.949,1.178,8.685,1.945c7.721,2.169,15.271,4.877,22.605,8.153c0.926,0.414,1.543,0.773,0.864,1.998
		c-4.634,8.367-9.846,16.35-15.924,24.396C181.362,357.7,176.128,345.666,169.277,334.098z"/>
	<path display="inline" fill-rule="evenodd" clip-rule="evenodd" fill="#152568" d="M173.816,275.107
		c-1.571,5.352-3.11,10.357-4.498,15.404c-1.07,3.892-2.032,7.817-2.873,11.765c-0.356,1.672-1.127,2.508-2.806,2.704
		c-4.335,0.507-8.517,1.727-12.688,2.943c-1.663,0.485-2.99,0.567-4.379-0.774c-1.255-1.212-2.88-2.137-4.59-2.504
		c-1.502-0.323-1.321-0.933-0.735-1.823c1.991-3.024,4.459-5.645,7.151-8.036c7.6-6.754,15.752-12.815,23.912-18.864
		C172.662,275.661,173.085,275.498,173.816,275.107z"/>
	<path display="inline" fill-rule="evenodd" clip-rule="evenodd" fill="#FEFEFE" d="M273.163,270.992
		c-3.945,6.123-13.852,7.883-20.187,3.549c-1.667-1.142-2.461-1.131-3.874,0.479c-3.221,3.664-7.473,3.788-11.844,2.462
		c-1.302-0.396-2.573-1.019-3.727-1.748c-1.302-0.824-2.065-0.712-3.008,0.6c-2.917,4.056-7.19,4.666-11.725,4.073
		c-1.791-0.235-3.181-1.489-4.2-3c-0.897-1.331-1.545-1.713-2.636-0.042c-2.247,3.444-5.698,4.494-9.601,4.046
		c-3.185-0.365-4.303-2.81-5.092-5.757c1.895,0.29,3.51,1.127,5.298,1.246c5.362,0.355,9.709-1.762,13.432-5.391
		c0.927-0.904,1.483-1.214,2.667-0.184c3.816,3.321,8.315,2.512,12.71,1.624c3.231-0.653,6.026-2.257,8.199-4.769
		c0.838-0.967,1.508-1.058,2.736-0.608c7.243,2.644,14.692,3.518,22.38,2.457C267.483,269.646,270.36,269.513,273.163,270.992z"/>
	<path display="inline" fill-rule="evenodd" clip-rule="evenodd" fill="#49280D" d="M171.098,305.915
		c1.15,0,2.301-0.006,3.451,0.002c0.651,0.004,1.23,0.177,1.476,0.859c0.268,0.743-0.033,1.324-0.55,1.863
		c-0.935,0.972-2.139,1.439-3.359,1.906c-6.79,2.603-13.986,3.748-20.923,5.843c-8.026,2.424-16.082,4.744-24.059,7.33
		c-2.605,0.844-2.601,0.863-2.629-1.93c-0.007-0.689,0.048-1.385-0.019-2.069c-0.131-1.341,0.345-2.029,1.72-2.479
		c13.556-4.426,27.208-8.497,41.222-11.232c1.181-0.231,2.445-0.03,3.671-0.03C171.098,305.958,171.098,305.937,171.098,305.915z"/>
	<path display="inline" fill-rule="evenodd" clip-rule="evenodd" fill="#B44605" d="M237.771,296.14
		c3.66-7.309,14.021-10.575,20.624-6.571c-0.708,0.606-1.419,1.172-2.076,1.793c-0.522,0.493-1.461,1.004-0.688,1.841
		c0.647,0.701,1.207-0.079,1.744-0.474c1.357-0.994,2.687-2.036,4.104-2.936c5.36-3.406,10.834-3.103,15.294,0.648
		c1.167,0.981,1.329,1.578,0.106,2.635c-3.046,2.637-6.775,3.461-10.547,4.062c-7.098,1.132-14.208,0.511-21.305-0.178
		C242.671,296.731,240.319,296.431,237.771,296.14z"/>
	<path display="inline" fill-rule="evenodd" clip-rule="evenodd" fill="#FED611" d="M177.531,222.18
		c5.688,3.76,11.583,4.198,17.986,3.176c0,3.053-0.033,6.09,0.02,9.127c0.016,0.914-0.556,0.933-1.153,1.061
		c-4.102,0.878-8.189,1.816-12.091,3.398c-0.87,0.353-1.244-0.02-1.515-0.797C179.041,233.145,177.854,228.036,177.531,222.18z"/>
	<path display="inline" fill-rule="evenodd" clip-rule="evenodd" fill="#152567" d="M146.232,309.029
		c-6.486,2.002-12.255,3.868-18.086,5.513c-1.197,0.337-2.473,1.596-3.643,0.812c-1.072-0.719-0.126-2.344-0.58-3.438
		c-0.683-1.647,0.006-2.487,1.354-3.336c4.831-3.043,15.276-4.183,19.588-0.306C145.132,308.513,145.506,308.634,146.232,309.029z"
		/>
	<path display="inline" fill-rule="evenodd" clip-rule="evenodd" fill="#152466" d="M112.089,352.232
		c-0.181,2.391-0.756,4.667-1.943,6.742c-1.157,2.023-3.734,2.6-5.722,1.434c-0.847-0.497-1.305-0.879-0.128-1.515
		c3.28-1.775,5.57-4.413,6.812-7.938c0.136-0.386,0.331-0.843,0.735-0.676C113.002,350.76,111.708,351.604,112.089,352.232z"/>
	<path display="inline" fill-rule="evenodd" clip-rule="evenodd" fill="#152466" d="M162.062,323.329
		c-1.674-1.967-3.253-3.804-4.81-5.658c-0.629-0.751-0.233-1.006,0.56-1.167c1.34-0.273,2.715-0.502,3.98-0.995
		c1.759-0.686,2.156,0.041,1.742,1.525C162.971,319.051,163.15,321.246,162.062,323.329z"/>
	<path display="inline" fill-rule="evenodd" clip-rule="evenodd" fill="#142364" d="M134.126,408.593
		c0.222-2.639-0.367-4.832,0.768-6.968c1.021-1.919,1.422-4.095,1.712-6.402C137.903,399.45,137.033,404.388,134.126,408.593z"/>
	<path display="inline" fill-rule="evenodd" clip-rule="evenodd" fill="#F8F8F8" d="M301.821,254.317
		c-1.725-0.16-3.357-0.344-4.996-0.454c-1.225-0.082-1.325-1.191-1.649-1.917c-0.384-0.863,0.662-0.779,1.136-0.997
		C299.727,249.383,299.729,249.393,301.821,254.317z"/>
	<path display="inline" fill-rule="evenodd" clip-rule="evenodd" fill="#020101" d="M244.829,196.749
		c2.16-0.085,4.261,0.262,6.369,0.722c5.436,1.187,8.447,4.987,10.414,9.766c1.164,2.831-0.217,4.609-3.286,4.725
		c-3.313,0.124-6.555-0.499-9.803-0.995c-6.505-0.995-12.981-0.304-19.465,0.228c-1.066,0.087-2.138,0.134-3.208,0.148
		c-1.28,0.017-2.524-0.245-3.103-1.521c-0.609-1.345-0.039-2.599,0.854-3.602c3.679-4.138,7.992-7.318,13.492-8.608
		C239.636,197.018,242.21,196.665,244.829,196.749z"/>
	<path display="inline" fill-rule="evenodd" clip-rule="evenodd" fill="#070500" d="M249.606,177.903
		c1.758,0.116,3.518,0.216,5.274,0.357c0.797,0.063,1.683,0.293,1.56,1.28c-0.128,1.016-1.059,0.624-1.688,0.569
		c-3.6-0.307-7.195-0.484-10.771,0.207c-5.283,1.02-9.481,3.766-12.702,8.053c-0.425,0.567-0.734,1.632-1.703,0.962
		c-1.037-0.717-0.204-1.521,0.257-2.143C234.751,180.549,241.493,177.792,249.606,177.903z"/>
	<path display="inline" fill-rule="evenodd" clip-rule="evenodd" fill="#040200" d="M293.291,229.851
		c2.218-0.006,4.291,0.104,5.666,1.983c0.359,0.49,0.768,1.001,0.926,1.565c0.23,0.815,1.004,1.969-0.066,2.459
		c-1.361,0.625-1.257-0.851-1.567-1.612c-0.814-1.991-2.785-2.953-4.877-2.463c-1.033,0.243-1.042,1.033-1.076,1.762
		c-0.071,1.528-0.062,3.061-0.046,4.59c0.008,0.666-0.042,1.3-0.846,1.348c-0.801,0.049-0.953-0.584-1.015-1.24
		c-0.536-5.717,0.847-10.782,5.094-14.846c0.553-0.527,1.242-1.524,2.083-0.588c0.746,0.829-0.259,1.312-0.767,1.819
		C295.336,226.094,294.08,227.694,293.291,229.851z"/>
	<path display="inline" fill-rule="evenodd" clip-rule="evenodd" fill="#0C0901" d="M231.408,195.525
		c-1.067-0.152-1.178-0.869-0.771-1.509c1.398-2.206,3.07-4.185,5.228-5.712c0.477-0.338,0.854-0.216,1.221,0.115
		c0.347,0.312,0.332,0.737,0.029,1.011c-1.937,1.748-3.706,3.637-5.177,5.8C231.827,195.391,231.559,195.445,231.408,195.525z"/>
	<path display="inline" fill-rule="evenodd" clip-rule="evenodd" fill="#0A0701" d="M239.22,221.863
		c-0.252,0.805-0.677,1.229-1.394,0.883c-2.288-1.107-4.346-2.562-6.187-4.318c-0.392-0.375-0.411-0.847-0.121-1.241
		c0.317-0.431,0.871-0.434,1.231-0.132c1.884,1.575,3.84,3.034,6.039,4.153C239.008,221.32,239.103,221.677,239.22,221.863z"/>
	<path display="inline" fill-rule="evenodd" clip-rule="evenodd" fill="#040301" d="M198.278,139.708
		c0.003,5.036-3.804,9.031-8.603,9.025c-5.001-0.005-8.955-3.977-8.953-8.991c0.001-5.437,3.297-8.273,9.006-8.626
		C194.493,130.82,198.901,135.464,198.278,139.708z"/>
	<path display="inline" fill-rule="evenodd" clip-rule="evenodd" fill="#040201" d="M224.494,144.595
		c-4.657,0.669-9.005-4.329-8.823-8.48c0.226-5.144,3.56-9.035,9.12-9.021c4.676,0.012,8.438,4.089,8.5,8.97
		C233.351,140.646,229.406,145.014,224.494,144.595z"/>
	<path display="inline" fill-rule="evenodd" clip-rule="evenodd" fill="#050504" d="M181.721,208.253
		c0.026,1.629-0.737,2.361-2.07,2.449c-1.541,0.104-2.274-0.887-2.309-2.24c-0.03-1.165,0.659-2.038,1.947-2.098
		C180.729,206.297,181.584,206.998,181.721,208.253z"/>
	<path display="inline" fill-rule="evenodd" clip-rule="evenodd" fill="#FEFEFE" d="M240.924,208.686
		c-4.886-0.302-9.489,0.722-14.154,0.799c-0.798,0.014-1.861,0.308-2.22-0.669c-0.279-0.762,0.455-1.39,0.948-1.973
		c6.086-7.228,18.255-10.334,27.049-6.97c3.632,1.39,5.72,4.225,7.234,7.554c0.834,1.834,0.159,2.648-1.934,2.688
		c-4.148,0.078-8.166-1.037-12.269-1.37c-0.525-0.044-0.865-0.12-0.73-0.787c0.401-1.958-0.149-3.291-2.417-2.957
		C240.25,205.321,240.424,206.893,240.924,208.686z"/>
	<path display="inline" fill-rule="evenodd" clip-rule="evenodd" fill="#A07520" d="M189.584,132.924
		c4.168,0.02,6.99,2.811,6.945,6.869c-0.042,3.79-3.276,7.022-7.031,7.029c-3.688,0.007-6.955-3.322-6.97-7.1
		C182.513,135.776,185.494,132.904,189.584,132.924z"/>
	<path display="inline" fill-rule="evenodd" clip-rule="evenodd" fill="#A07520" d="M224.447,142.798
		c-3.946,0.004-6.913-3.019-6.888-7.021c0.022-3.816,3.03-6.77,6.913-6.79c3.743-0.021,6.926,3.101,6.954,6.82
		C231.455,139.673,228.339,142.795,224.447,142.798z"/>
</g>
<g id="Layer_2_3_" display="none">
	
		<path display="inline" fill-rule="evenodd" clip-rule="evenodd" fill="#010101" stroke="#000000" stroke-linejoin="round" stroke-miterlimit="10" d="
		M298.671,419.179c7.089-1.538,14.588-3.31,21.467-6.214c4.046-2.638,8.194-5.109,12.419-7.446c1.771-1.509,3.428-3.171,4.908-5.054
		c0.707-0.899,1.51-1.412,2.33-1.622c-5.183-15.128-11.835-29.721-20.536-43.56c-4.827-7.678-10.524-14.589-18.674-18.933
		c-2.445-1.304-3.593-2.765-4.161-5.538c-3.031-14.795-7.438-29.1-16.065-41.777c-4.229-6.216-9.274-11.678-16.456-14.095
		c-3.808-1.282-4.069-3.318-3.658-6.336c1.167-8.565,3.875-16.703,6.837-24.778c1.276-3.48,2.984-5.158,7.324-5.229
		c13.795-0.227,22.89-15.606,15.849-26.956c-3.524-5.679-0.286-9.659,1.81-13.713c2.745-5.307,4.108-11.42,8.697-15.815
		c0.831-0.795,0.679-3.248,0.187-4.66c-0.871-2.504-0.008-3.846,1.821-5.431c3.047-2.638,4.577-6.019,2.981-10.103
		c-0.845-2.162,0.154-3.481,1.309-5.257c4.651-7.158,2.844-15.271,2.733-23.083c-0.015-1.048-1.032-2.584-1.99-3.035
		c-7.188-3.382-8.31-11.795-14.277-16.677c-4.694-3.841-7.739-9.128-14.741-8.709c-1.28,0.077-1.854-0.942-2.593-1.675
		c-3.36-3.339-7.373-5.026-12.126-4.745c-1.705,0.1-2.934-0.538-4.362-1.499c-7.532-5.062-16.972-3.259-25.012-6.658
		c-0.392-0.165-1.061,0.162-1.538,0.39c-3.538,1.683-7.164,2.497-11.17,2.557c-2.901,0.043-5.523,1.949-5.859,5.321
		c-0.513,5.134-6.705,8.641-4.166,14.674c0.091,0.217-1.243,1.115-1.983,1.585c-9.207,5.847-15.541,14.26-20.689,23.609
		c-1.501,2.727-3.03,4.315-6.274,4.853c-4.516,0.749-8.159,3.144-8.215,8.413c-0.024,2.249-1.925,2.208-2.899,3.281
		c-5.06,5.571-8.896,11.987-11.62,18.972c-0.545,1.398,0.061,3.793,0.998,5.117c2.744,3.872,4.42,7.618,2.93,12.582
		c-0.829,2.759,1.155,5.28,3.363,6.896c2.154,1.575,2.266,3.036,1.508,5.446c-2.325,7.398-2.656,14.888,1.167,21.925
		c1.879,3.46,0.707,4.689-2.491,6.057c-10.034,4.288-17.967,11.068-22.87,20.977c-3.934,7.949-1.449,13.986,6.875,16.912
		c7.346,2.582,15.01,3.448,22.741,3.533c3.136,0.035,4.805,0.506,4.901,4.317c0.097,3.809,2.957,6.308,6.24,8.187
		c5.82,3.334,5.87,3.467,1.12,7.997c-15.207,14.508-26.192,31.613-32.602,51.696c-1.07,3.352-1.04,5.76,2.226,7.74
		c-15.788,16.375-28.168,34.741-38.303,54.509c1.378-0.232,2.773,0.192,3.845,1.064c0.974-0.477,1.965-0.907,2.998-1.234
		c9.043-2.86,16.661,3.408,22.614,9.506c1.232,1.262,1.579,2.849,1.312,4.312c2.162,0.457,4.342,0.812,6.481,1.401
		c0.675,0.187,1.242,0.471,1.717,0.821h138.088C295.131,421.847,296.245,419.705,298.671,419.179z"/>
	<path display="inline" fill-rule="evenodd" clip-rule="evenodd" fill="#D0007A" d="M244.994,424
		c0.108-0.469,0.196-0.97,0.259-1.536c1.374-12.465,3.054-24.898,4.72-37.33c2.744-20.477,8.466-40.268,13.854-60.142
		c1.594-5.883,2.414-11.944,2.533-18.072c0.031-1.603-0.259-2.96-2.256-2.854c-1.351,0.072-2.086,0.947-1.287,2.155
		c3.868,5.855,0.044,9.884-3.473,13.662c-2,2.148-2.424,3.804-1.443,6.573c1.514,4.277,1.388,8.571-2.065,12.271
		c-1.525-1.331-0.937-2.596-0.677-3.743c0.729-3.229,1.492-7.078-0.836-9.255c-2.309-2.159-4.959,1.481-7.65,1.937
		c-3.391,0.574-3.954,2.278-2.983,5.69c0.992,3.491,0.352,7.213-3.376,9.865c-0.549-4.48,3.312-9.65-1.219-12.273
		c-3.094-1.792-8.837-1.062-11.153,1.311c-3.603,3.692-0.071,8.558,2.275,14.068c-4.386-2.772-6.344-5.934-5.917-9.08
		c0.966-7.122-3.987-6.111-8.031-7.03c-2.841-0.646-3.344,0.49-3.636,2.887c-0.441,3.626,1.855,6.701,2.172,10.943
		c-4.65-2.942-5.322-6.827-5.484-11.06c-0.071-1.841,1.001-4.034-1.168-5.444c-2.688-1.746-3.423-4.763-4.737-8.062
		c-6.208,7.714-3.19,14.424,0.062,21.674c-0.739-0.457-1.761-0.737-2.17-1.398c-3.198-5.165-5.625-2.369-7.924,0.743
		c-2.501,3.385-3.816,7.284-4.479,11.409c-1.961,12.203-4.579,24.345-5.71,36.624c-1.248,13.54-7.94,24.489-14.548,35.467H244.994z"
		/>
	<path display="inline" fill-rule="evenodd" clip-rule="evenodd" fill="#CB7B06" d="M265.906,209.368
		c11.768-4.308,17.047-3.732,21.743,2.447c3.711,4.885,3.708,12-0.3,17.602c-7.263,10.146-15.887,7.861-24.428,1.769
		c-0.407,0.848-0.562,1.116-0.539,1.133c6.015,4.295,2.818,9.157,1.105,14.153c-5.825,16.998-8.997,34.327-5.479,52.316
		c0.446,2.276,0.844,4.702,1.938,6.686c2.928,5.309,0.802,9.139-2.961,12.811c-10.135,9.892-33.449,13.5-46.071,7.205
		c-2.333-1.164-3.373-2.845-4.118-5.215c-2.312-7.345-4.739-14.659-7.339-21.906c-2.172-6.056-5.708-11.103-11.502-14.381
		c-1.677-0.948-3.282-2.301-4.443-3.831c-2.777-3.662-1.597-5.801,2.85-6.626c10.454-1.94,20.958-2.702,31.57-2.162
		c3.277,0.166,6.462-0.553,9.459-1.738c3.014-1.193,5.948-3.331,7.498,1.688c0.235,0.762,1.194,1.026,1.738,0.483
		c0.397-0.397,0.501-1.305,0.413-1.939c-0.65-4.663-7.051-9.485-12.09-9.099c0.856,2.181,3.805,2.09,4.668,4.691
		c-3.471,3.159-8.135,3.539-12.277,3.04c-9.818-1.182-19.296,0.721-28.856,1.969c-10.801,1.41-21.472,0.764-32.072-1.452
		c-11.12-2.325-13.81-8.883-7.177-18.212c5.38-7.568,12.462-13.323,20.922-17.296c1.851-0.869,3.401-1.208,5.461,0.068
		c7.45,4.617,15.37,4.423,23.172,1.053c4.989-2.155,9.833-4.211,15.467-3.408c2.357,0.336,4.378-0.743,5.792-2.803
		c-7.292,1.391-14.666,0.396-21.864,3.617c-13.988,6.259-26.504-0.874-28.022-15.575c-0.785-7.596,1.955-14.841,5.299-21.675
		c3.433-7.012,8.101-13.168,13.969-18.268c2.551-2.217,2.364-3.913,0.562-6.243c-4.28-5.531-9.64-8.392-16.798-7.244
		c-1.235,0.198-2.915,1.419-3.608-0.681c-0.484-1.464,0.246-2.77,1.354-3.848c1.787-1.738,3.91-2.314,6.368-2.345
		c1.691-0.02,3.419,1.324,5.077,0.019c0.286-1.25-0.567-1.652-1.371-2.008c-1.459-0.646-3.985,0-3.559-2.886
		c0.347-2.35,1.833-4.529,3.98-4.554c6.699-0.076,8.686-5.072,11.476-9.642c5.899-9.662,13.444-17.664,23.972-22.473
		c2.781-1.269,5.097-1.999,7.6,0.806c1.78,1.995,4.403,3.088,7.298,2.802c1.713-0.169,3.114,0.392,4.439,1.485
		c0.955,0.788,2.178,1.242,3.195,1.963c4.148,2.946,9.579,0.121,13.21,2.188c4.017,2.287,7.224,5.45,12.354,5.496
		c4.342,0.04,5.397,4.904,4.388,8.74c-1.764,6.691-4.253,13.191-5.662,19.871c-0.605,2.873-0.583,5.854-1.956,8.738
		c-1.637,3.439-1.335,7.127,1.19,10.128c1.71,2.034,1.652,3.6,0.155,5.643c-2.292,3.126-2.229,6.312,0.393,9.322
		c0.807,0.925,1.836,1.756,0.981,3.256c-2.172,3.814-1.754,7.242,1.869,9.932C269.486,207.314,264.102,207.382,265.906,209.368z"/>
	<path display="inline" fill-rule="evenodd" clip-rule="evenodd" fill="#BDBCDB" d="M288.453,412.146
		c1.736,3.885,3.236,7.844,4.55,11.854h2.131c-0.003-2.153,1.111-4.295,3.537-4.821c7.089-1.538,14.588-3.31,21.467-6.214
		c4.046-2.638,8.194-5.109,12.419-7.446c1.715-1.46,3.317-3.069,4.762-4.878c-6.046-18.075-13.915-35.329-25.872-50.556
		c-3.406-4.338-7.189-8.312-12.549-11.052c0,5.628-0.249,10.786,0.083,15.906c0.241,3.714-1.246,5.491-4.568,6.704
		c-8.093,2.958-16.091,6.176-24.446,9.413c4.767,5.034,9.545,9.427,15.002,12.831c3.684,2.299,3.885,4.425,1.909,7.856
		c-5.73,9.952-10.396,20.432-14.777,31.033c-0.166,0.402-0.383,0.809-0.587,1.223h18.877c-1.09-3.47-2.319-6.902-3.699-10.295
		c-0.584-1.438-1.546-2.837-0.304-4.498C287.855,409.68,287.962,411.045,288.453,412.146z"/>
	<path display="inline" fill-rule="evenodd" clip-rule="evenodd" fill="#BDBCDB" d="M267.997,424
		c0.464-0.473,0.836-1.12,1.176-1.958c4.312-10.639,9.258-20.997,14.824-31.029c1.514-2.729,0.933-3.978-1.414-5.539
		c-4.637-3.085-8.9-6.679-12.844-10.622c-4.65-4.652-4.443-5.577,1.563-7.772c7.063-2.581,14.113-5.202,21.193-7.739
		c2.53-0.905,3.533-2.419,3.459-5.227c-0.153-5.75-0.289-11.492-1.31-17.158c-2.941-16.316-7.008-32.262-16.555-46.196
		c-3.901-5.695-8.658-10.527-15.2-13.267c-1.572-0.659-3.086-1.543-3.341,1.268c-0.606,6.667-0.165,13.247,1.214,19.806
		c0.542,2.582,2.205,2.449,4.023,2.245c2.406-0.271,1.436-1.944,1.25-3.262c-0.191-1.354-1.009-2.728,0.404-4.349
		c2.361,2.472,2.396,5.535,2.539,8.491c0.506,10.51-0.956,20.831-4.002,30.833c-8.236,27.039-12.832,54.771-16.376,82.725
		c-0.627,4.946-0.945,7.489,0.023,8.751H267.997z"/>
	<path display="inline" fill-rule="evenodd" clip-rule="evenodd" fill="#BDBCDB" d="M202.239,313.73
		c-2.155-6.464-4.568-12.799-7.72-18.854c-1.125-2.163-1.956-3.037-4.188-0.924c-15.37,14.545-27.146,31.354-33.51,51.741
		c-0.923,2.956-0.318,4.522,2.312,6.051c5.267,3.06,10.375,6.411,14.678,10.804c4.683,4.779,4.575,5.319-1.352,7.774
		c-1.819,0.755-3.686,1.409-5.458,2.261c-15.504,7.445-13.812,3.339-14.576,21.89c-0.06,9.354,1.455,18.569,2.366,27.841
		c0.026,0.268,0.073,0.518,0.126,0.762c0.137,0.035,0.274,0.064,0.411,0.103c0.675,0.187,1.242,0.471,1.717,0.821h8.451
		c5.708-8.217,11.301-16.449,13.016-26.879c1.247-7.586,2.829-15.133,4.044-22.741c1.718-10.756,1.429-22.216,6.886-31.834
		c3.898-6.872,9.353-12.715,9.288-21.291c-0.008-1.143,1.363-2.517,2.419-3.396C202.619,316.638,202.851,315.565,202.239,313.73z"/>
	<path display="inline" fill-rule="evenodd" clip-rule="evenodd" fill="#BDBCDB" d="M121.924,409.193
		c0.974-0.477,1.965-0.907,2.998-1.234c9.043-2.86,16.661,3.408,22.614,9.506c1.232,1.262,1.579,2.849,1.312,4.312
		c1.148,0.242,2.301,0.458,3.45,0.694c-2.362-13.63-2.936-26.591-2.19-39.624c0.205-3.587,1.416-5.943,4.931-7.411
		c6.257-2.613,12.339-5.645,18.943-8.71c-3.489-4.313-7.834-6.836-11.9-9.758c-2.709-1.947-4.21-1.292-6.211,0.952
		c-13.965,15.657-25.69,32.498-35.151,50.541C121.15,408.648,121.557,408.895,121.924,409.193z"/>
	<path display="inline" fill-rule="evenodd" clip-rule="evenodd" fill="#FCFCFC" d="M175.867,165.36c2.638,0.11,5,0.754,7.219,2.078
		c5.533,3.299,5.748,4.673,1.519,9.312c-1.443,1.583-2.889,3.206-4.056,4.992c-2.217,3.391-4.454,5.78-9.085,3.656
		c-4.468-2.05-8.344-4.302-8.438-9.849c-0.083-4.853,2.933-7.47,7.132-8.922C171.988,165.994,173.96,165.769,175.867,165.36z"/>
	<path display="inline" fill-rule="evenodd" clip-rule="evenodd" fill="#C47607" d="M169.148,187.279
		c1.614,1.542,5.35,0.232,5.191,2.777c-0.159,2.54-1.199,6.252-3.906,7.042c-2.039,0.595-4.007-1.921-3.962-4.597
		C166.506,190.443,166.618,188.264,169.148,187.279z"/>
	<path display="inline" fill-rule="evenodd" clip-rule="evenodd" fill="#0B0806" d="M231.714,157.534
		c-3.802,0.552-6.982,0.934-10.128,1.499c-2.716,0.487-5,1.863-6.888,3.899c-1.432,1.544-1.224,3.313-0.631,5.037
		c0.816,2.37,2.614,1.192,4.056,0.873c5.229-1.162,10.363-1.031,15.214,1.374c7.791,3.865,8.742,13.252,1.754,18.403
		c-5.655,4.167-11.939,4.777-18.207,1.458c-4.632-2.454-8.491-6.008-7.489-11.833c0.777-4.526,3.109-8.769,1.721-13.625
		c-0.218-0.764,0.731-1.964,1.322-2.839C215.412,157.37,225.764,153.917,231.714,157.534z"/>
	<path display="inline" fill-rule="evenodd" clip-rule="evenodd" fill="#180E04" d="M274.131,228.759
		c2.164-4.162,3.411-7.056,1.147-10.109c-2.305-3.107-3.715,2.246-6.176,0.354c1.322-3.635,4.189-4.798,7.747-4.786
		c3.062,0.012,5.915,0.538,7.227,4.562c-2.587-0.081-3.854-2.62-6.626-2.002C279.008,220.929,280.896,225.281,274.131,228.759z"/>
	<path display="inline" fill-rule="evenodd" clip-rule="evenodd" fill="#170E04" d="M229.079,199.505
		c-7.206,5.202-16.471,0.251-18.3-10.261C215.775,196.037,220.196,201.945,229.079,199.505z"/>
	<path display="inline" fill-rule="evenodd" clip-rule="evenodd" fill="#101010" d="M173.219,172.056
		c1.832,0.179,2.915,1.216,3.034,3.063c0.123,1.904-0.956,3.156-2.772,3.284c-2.108,0.148-3.466-1.181-3.408-3.245
		C170.121,173.434,171.291,172.252,173.219,172.056z"/>
	<path display="inline" fill-rule="evenodd" clip-rule="evenodd" fill="#FCFCFC" d="M225.46,170.502
		c0.812,0.102,2.676,0.041,4.325,0.606c3.647,1.253,6.87,3.2,7.496,7.494c0.623,4.275-1.575,7.209-5.053,9.209
		c-1.668,0.959-3.574,1.703-5.463,2.04c-7.045,1.257-14.632-3.863-15.27-10.122C210.937,174.23,216.202,170.491,225.46,170.502z"/>
	<path display="inline" fill-rule="evenodd" clip-rule="evenodd" fill="#090909" d="M230.452,179.487
		c-0.314,1.896-1.361,3.266-3.426,3.119c-1.752-0.125-2.865-1.389-2.834-3.193c0.036-2.062,1.176-3.272,3.342-3.149
		C229.458,176.374,230.202,177.679,230.452,179.487z"/>
</g>
<circle fill-rule="evenodd" clip-rule="evenodd" fill="#DE3831" cx="226.39" cy="225.653" r="201.927"/>
<g>
	<path fill-rule="evenodd" clip-rule="evenodd" fill="#0098CB" d="M329.858,330.68c-0.672-19.73-6.345-38.23-14.858-55.926
		c-0.664-1.38-1.653-2.545-3.111-3.052c-7.54-2.619-15.244-4.568-23.206-5.353c-2.62-0.258-4.246,1.034-5.308,3.45
		c-1.85,4.201-3.954,8.291-6.113,12.34c-7.262,13.612-16.52,25.629-28.754,35.164c-4.27,3.328-4.883,3.18-7.846-1.382
		c-8.563-13.186-18.17-25.517-29.729-36.224c-10.756-9.962-22.816-17.624-37.375-20.873c-9.582-2.139-19.059-1.773-28.441,0.812
		c-4.986,1.374-5.371,3.284-1.739,6.687c8.246,7.728,11.925,17.457,12.524,28.534c0.968,17.908-3.725,34.772-9.604,51.394
		c-3.667,10.365-8.382,20.189-15.583,28.658c-2.832,3.33-5.993,6.213-9.994,8.069c-5.872,2.728-11.563,1.801-17.175-0.854
		c-1.727-0.817-3.552-1.724-5.297-0.209c-1.867,1.62-0.679,3.536-0.117,5.248c0.206,0.628,0.426,1.252,0.643,1.876
		c6.575,6.293,13.502,12.215,21.863,15.706c1.883,0.67,3.78,1.314,5.691,1.933c3.551,1.148,4.192,4.767,2.875,7.277
		c1.782,0.349,3.559,0.729,5.323,1.195c17.364,4.577,34.322,11.706,52.472,12.349c3.392,0.12,4.991,2.958,4.807,5.58h72.366
		c-0.014-2.511,1.59-5.048,4.827-5.08c1.781-0.018,3.561-0.07,5.34-0.116c0.583-0.867,1.503-1.516,2.831-1.705
		c5.513-0.786,11.027-1.563,16.542-2.343c3.067-10.13,8.24-19.305,14.776-27.932C323.07,376.661,330.686,354.962,329.858,330.68z"/>
	<path fill-rule="evenodd" clip-rule="evenodd" d="M394.533,337.479c-8.241-16.013-18.401-30.551-33.578-40.758
		c-4.031-2.712-6.44-5.752-8.063-10.303c-4.784-13.417-12.217-24.99-25.678-31.3c-5.856-2.744-11.811-4.778-16.922-9.317
		c-5.398-4.797-13.029-5.434-20.07-6.658c-2.639-0.458-6.169,0.146-7.729-1.355c-1.695-1.633,0.333-5.073,0.117-7.742
		c-0.212-2.653,0.288-4.511,3.365-5.329c2.226-0.592,3.845-2.561,4.642-4.793c0.716-2.007,2.057-3.255,3.632-4.593
		c3.742-3.178,7.01-6.738,6.93-12.206c-0.036-2.487-0.844-5.317,2.612-6.657c1.016-0.395,0.815-2.019,0.201-2.941
		c-1.588-2.383-0.771-4.542,0.245-6.812c3.43-7.649,6.318-15.524,9.723-23.198c3.774-8.512,4.552-18.225,6.015-27.561
		c2.313-14.762-4.491-24.377-16.933-30.81C283.982,95.29,263.51,90.55,242.23,88.929c-6.572-0.465-13.146-0.465-19.718,0
		c-5.785-0.176-9.658,2.477-12.043,7.739c-4.221,9.308-8.785,18.463-12.844,27.839c-1.544,3.568-3.066,5.942-7.486,5.352
		c-2.49-0.333-5.104,0.148-7.651,0.386c-5.188,0.484-7.919,3.222-6.813,8.33c1.003,4.635,3.026,9.025,2.469,13.953
		c-0.096,0.853,0.813,1.414,1.536,1.717c3.138,1.315,2.64,3.367,1.902,6.123c-1.622,6.055-3.836,12.351,1.622,17.859
		c1.057,1.066-0.173,1.672-0.712,2.303c-3.49,4.098-7.851,6.829-12.941,8.607c-5.681,1.986-7.121,7.507-3.427,12.324
		c1.986,2.589,4.429,4.709,6.968,6.723c0.948,0.752,1.937,1.361,1.884,2.854c-0.183,5.083,1.774,8.854,8.203,10.835
		c-7.805,0.878-9.659,5.146-9.135,11.002c0.094,1.05,0.437,2.098,0.797,3.1c1.125,3.132-2.052,3.3-3.339,4.604
		c-1.54,1.561-1.884-0.692-2.439-1.451c-4.522-6.186-10.278-10.261-18.126-10.768c-5.704-0.368-11.276,0.281-16.7,2.248
		c-1.454,0.527-2.921,1.25-4.665,0.915c-8.144-1.566-15.769,0.246-23.099,3.771c-2.416,1.162-4.719,2.703-7.256,3.446
		c-23.173,6.789-38.464,21.854-46.639,44.323c-2.073,5.696-3.029,11.729-3.891,17.734c-0.226,1.573-0.772,2.636-2.167,3.569
		c-4.133,2.767-7.932,5.793-11.445,9.04c2.94,0.553,4.544,4.473,3.302,7.326c1.437,0.715,2.527,2.008,2.693,3.611
		c10.33,10.137,29.637,30.171,26.849,39.547c9.66,4.923,17.724,12.292,25.531,19.956c2.29,2.248,4.59,4.517,6.943,6.721
		c-0.501-1.301-0.972-2.62-1.4-3.961c-0.405-1.269-1.708-2.681-0.381-4.1c1.625-1.737,2.977-0.009,4.319,0.574
		c10.567,4.596,18.472,3.078,26.418-5.156c3.389-3.511,6.389-7.344,8.794-11.573c10.398-18.284,16.362-38.081,18.609-58.861
		c1.857-17.172-0.757-33.252-15.907-44.585c2.034-1.8,4.383-2.332,6.734-2.861c18.535-4.175,35.238,0.293,50.608,10.827
		c15.972,10.946,27.908,25.693,38.734,41.456c7.412,10.794,7.416,10.84,17.172,1.9c13.467-12.339,22.986-27.413,30.143-44.066
		c1.002-2.331,2.171-3.249,4.805-2.851c7.468,1.129,14.777,2.891,22.029,4.941c1.25,0.354,2.014,1.163,2.588,2.333
		c8.838,17.964,14.625,36.755,15.155,56.907c0.618,23.534-6.838,44.496-20.747,63.275c-5.233,7.066-9.98,14.359-13.253,22.583
		c-0.874,2.197-1.615,4.414-2.254,6.646c1.062-0.15,2.122-0.301,3.183-0.451c0.266-0.104,0.534-0.203,0.801-0.306
		c2.124-6.805,5.208-13.316,9.562-19.445c4.685-6.592,9.497-13.117,13.223-20.331c1.13-2.186,2.328-2.2,4.088-0.75
		c3.54,2.915,7.17,5.713,11.24,7.886c1,0.533,2.596,0.779,2.335,2.374c-0.253,1.555-1.648,2.139-3.04,2.189
		c-4.773,0.171-7.528,3.131-9.822,6.828c-2.207,3.557-4.113,7.26-5.927,11.036c-0.52,1.082-0.907,2.148-1.174,3.201
		c2.054-0.785,4.082-1.636,6.066-2.598c1.429-3.054,2.942-6.061,4.793-8.921c1.858-2.872,4.258-4.439,7.561-4.715
		c2.646-0.222,5.274-0.332,7.89-0.34c-0.01-1.688,0.65-3.41,2.141-4.476c1.613-1.153,3.381-1.852,5.218-2.351
		c1.756-0.884,3.468-1.849,5.144-2.879c0.321-0.282,0.694-0.544,1.139-0.771c0.152-0.078,0.306-0.152,0.458-0.229
		c6.895-4.457,13.207-9.934,19.477-15.146c0.118-0.593,0.362-1.207,0.771-1.831c3.742-5.706,7.089-11.661,10.989-17.261
		c1.679-4.081,3.777-7.94,6.793-11.251c0.469-0.515,0.979-0.884,1.511-1.133C396.181,340.704,395.361,339.087,394.533,337.479z"/>
	<path fill-rule="evenodd" clip-rule="evenodd" fill="#FEFEFE" d="M61.389,414.544c2.876-0.309,5.765-0.526,8.644-0.609
		c-2.986-0.319-5.877-0.814-8.41-1.336c-0.224,0.698-0.55,1.32-0.965,1.874C60.901,414.496,61.145,414.519,61.389,414.544z"/>
	<path fill-rule="evenodd" clip-rule="evenodd" fill="#FEFEFE" d="M330.799,413.46c2.265-0.403,4.23,1.081,5.095,3.068
		c4.06-1.622,8.104-3.285,12.155-4.932c0.287-2.987,1.935-5.862,4.138-8.531c-0.524,0.242-1.056,0.477-1.588,0.707
		c-0.024,0.017-0.052,0.028-0.075,0.045c-0.002-0.004-0.003-0.007-0.004-0.011c-0.397,0.172-0.789,0.35-1.19,0.515
		c-4.018,1.65-6.44-2.192-5.927-5.624c-14.214,0.032-16.028,1.689-21.903,15.402c-0.05,0.116-0.091,0.229-0.138,0.343
		c1.221-0.549,2.427-1.131,3.615-1.76C327.257,411.476,329.398,412.086,330.799,413.46z"/>
	<path fill-rule="evenodd" clip-rule="evenodd" fill="#525253" d="M242.23,88.929c-6.572,0-13.146,0-19.718,0
		c0.102-0.223,0.145-0.458,0.131-0.702c6.485,0,12.97,0,19.455,0C242.084,88.472,242.129,88.706,242.23,88.929z"/>
	<path fill-rule="evenodd" clip-rule="evenodd" d="M304.722,332.973c-0.622,0.077-0.952-0.382-1.005-0.995
		c-0.304-3.627-3.473-4.984-5.731-6.933c-7.05-6.082-10.865-5.286-14.619,3.073c-1.26,2.806-3.323,1.492-5.141,1.661
		c-2.341,0.216-2.035-1.413-2.112-2.934c-0.232-4.528-2.048-8.181-6.535-9.769c-8.125-2.873-14.91,0.462-17.593,8.751
		c-0.69,2.134-1.657,2.765-3.708,2.68c-12.135-0.506-24.271-1.046-36.412-1.336c-2.78-0.066-4.368-1.008-5.754-3.346
		c-4.176-7.046-9.906-12.758-16.163-17.959c-2.234-1.856-3.52-1.572-3.833,1.597c-0.357,3.619-1.042,7.204-1.468,10.817
		c-0.963,8.177-0.936,8.311-8.862,8.195c-2.911-0.042-3.875,0.884-4.309,3.77c-2.765,18.383-5.762,36.731-8.66,55.095
		c-1.428,9.05-2.741,18.118-4.249,27.155c-0.466,2.795,0.121,4.353,3.207,4.562c2.417,0.164,4.808,0.811,7.221,0.874
		c2.494,0.064,2.864,1.251,2.541,3.336c-0.213,1.377-0.411,2.757-0.607,4.137c5.279,1.118,10.62,1.902,16.07,2.096
		c0.498,0.018,0.954,0.097,1.374,0.223c2.327-1.743,4.525-3.679,6.582-5.824c1.493-1.559,2.859-1.922,4.928-1.7
		c7.241,0.775,14.5,1.471,21.769,1.849c2.717,0.141,3.664,1.031,4.004,3.656c0.464,3.591,1.946,5.985,4.332,7.377h9.441
		c1.19-0.865,2.225-2.156,3.017-3.952c2.088-4.738,4.855-4.807,9.153-3.967c2.925,0.571,3.173,2.447,3.916,4.366
		c0.48,1.241,1.038,2.432,1.722,3.553h6.935c-0.014-2.511,1.59-5.048,4.827-5.08c1.781-0.018,3.561-0.07,5.34-0.116
		c0.324-0.482,0.766-0.886,1.311-1.191c0.893-0.969,2.184-1.213,3.987-0.863c2.34-0.332,4.68-0.663,7.019-0.994
		c0.672-0.652,1.288-1.539,1.851-2.733c12.354-26.241,18.272-53.962,20.084-82.955C307.922,336.864,310.857,332.213,304.722,332.973
		z"/>
	<path fill-rule="evenodd" clip-rule="evenodd" fill="#FECB00" d="M66.249,295.938c-1.153,0.695-2.303,1.416-3.522,1.979
		c-9.71,4.475-18.164,10.078-25.434,16.745c1.42,1.521,1.957,4.063,1.082,6.073c1.437,0.715,2.527,2.008,2.693,3.611
		c10.33,10.137,29.637,30.171,26.849,39.547c9.417,4.799,17.316,11.924,24.941,19.38c12.201-7.618,21.521-18.23,27.328-32.537
		c0.354-0.871,0.686-1.754,1.086-2.604c0.292-0.617,0.742-1.227,1.523-0.956c0.933,0.324,1.108,1.114,0.761,1.974
		c-0.654,1.618-1.354,3.219-2.042,4.824c-4.311,10.063-10.806,18.537-19.091,25.718c6.792,4.678,14.76,4.658,20.872,0.088
		c3.266-2.442,6.222-5.267,8.458-8.653c15.498-23.476,23.312-49.354,22.513-77.44c-0.465-16.339-9.266-27.851-24.355-34.097
		c-9.894-4.097-20.098-3.314-30.141-0.229c-16.435,5.051-29.326,14.071-34.407,31.525c-0.324,1.112-2.221,3.03,1.113,3.265
		C67.392,294.217,67.081,295.438,66.249,295.938z"/>
	<path fill-rule="evenodd" clip-rule="evenodd" fill="#FECB00" d="M280.424,258.024c2.461,2.996,3.841,5.588,2.651,8.391
		c-8.206,19.322-18.607,37.099-35.83,50.003c-2.343,1.755-3.432,2.05-5.324-0.832c-10.392-15.819-21.605-30.984-36.772-42.727
		c-7.837-6.067-16.23-11.074-25.758-14.029c-1.093-0.34-2.505-0.282-2.853-1.848c-0.907-4.089-2.319-8.008-4.17-11.756
		c-0.669-1.354,0.134-1.947,0.978-2.645c1.351-1.116,2.686-2.252,4.029-3.378c1.286-1.078,1.619-1.879,0.439-3.635
		c-3.068-4.567-1.553-8.98,3.594-10.815c2.312-0.824,4.637-3.913,6.535-2.574c1.66,1.171,2.368,4.004,4.865,4.904
		c0.538,0.194,0.697,0.799,0.398,1.35c-0.419,0.773-1.077,1.239-1.984,1.061c-1.454-0.287-2.883-0.703-4.342-0.947
		c-0.743-0.125-1.762-0.343-2.028,0.697c-0.238,0.929,0.464,1.464,1.314,1.694c1.3,0.353,2.611,0.668,3.918,0.997
		c9.397,2.371,18.672,5.132,27.719,8.632c9.899,3.829,20.146,5.864,30.775,5.859c4.047-0.003,8.285-0.282,9.644-4.879
		c1.344-4.539-1.256-8.166-4.594-10.891c-6.167-5.032-13.723-6.726-21.354-7.855c-11.049-1.636-22.294-1.875-33.148-4.913
		c-11.186-3.131-21.656-7.54-29.629-16.377c-4.458-4.941-3.556-8.204,2.595-10.506c4.503-1.686,8.387-4.345,11.562-7.914
		c1.436-1.615,2.414-2.331,4.585-0.936c3.065,1.97,6.614,3.014,10.272,3.393c2.543,0.264,3.689,0.961,2.181,3.716
		c-1.491,2.725-2.343,5.72-2.369,8.893c-0.038,4.645,2.126,8.056,6.449,9.712c3.291,1.262,6.74,1.944,10.287,1.787
		c1.199-0.053,3.214,0.671,3.22-1.255c0.006-1.499-1.887-1.143-3.027-1.123c-2.729,0.047-5.391-0.382-7.971-1.156
		c-5.405-1.622-7.624-4.957-6.333-10.383c1.988-8.352,6.274-15.487,13.002-20.899c4.777-3.842,8.795-3.084,12.283,2.057
		c2.439,3.592,4.483,7.436,4.58,11.922c0.137,6.348,4.056,9.924,9.328,11.923c6.002,2.276,12.074,4.47,18.532,5.378
		c6.329,0.889,9.433-0.441,12.867-5.869c1.82-2.877,3.263-5.92,4.127-9.157c0.671-2.512,2.295-2.915,4.208-2.397
		c2.461,0.666,0.67,2.345,0.375,3.469c-0.782,2.988-1.754,5.929-2.729,8.861c-0.258,0.776-0.854,1.646-0.25,2.273
		c2.138,2.22,5.167,1.961,7.876,2.492c2.044,0.4,2.351-1.434,2.794-2.789c0.664-2.029,1.323-3.861,4.086-3.375
		c0.718,0.126,1.783,0.155,1.983-0.874c0.209-1.07-0.75-1.375-1.537-1.447c-3.163-0.291-1.448-2.076-1.071-3.41
		c0.654-2.31,1.891-1.102,3.043-0.475c6.501,3.536,5.609,15.195-1.472,19.734c-2.688,1.724-5.482,2.811-8.748,2.483
		c-2.075-0.208-3.143,0.586-3.303,2.941c-0.973,14.258-2.09,28.506-3.155,42.757c-0.05,0.673-0.107,1.351-0.079,2.021
		c0.028,0.645-0.016,1.444,0.893,1.539c1.029,0.108,1.432-0.605,1.51-1.479C280.223,261.946,280.278,260.463,280.424,258.024z"/>
	<path fill-rule="evenodd" clip-rule="evenodd" fill="#FECB00" d="M329.248,313.094c1.233,6.537,1.754,13.161,2.266,20.179
		c1.07-0.747,1.675-1.278,2.372-1.632c1.208-0.612,1.935-3.36,3.302-1.987c1.696,1.704-0.8,2.925-1.855,4.127
		c-0.608,0.692-1.416,1.303-2.256,1.675c-1.438,0.636-1.866,1.647-1.947,3.146c-0.658,12.225-3.464,23.973-8.272,35.209
		c-0.821,1.921-0.345,2.928,0.899,4.199c4.382,4.476,9.401,8.027,14.97,10.878c1.823,0.935,2.963,0.713,4.502-0.742
		c5.948-5.626,13.334-8.428,21.199-10.143c1.024-0.225,2.38-0.76,2.662,0.759c0.283,1.527-1.286,1.479-2.236,1.694
		c-3.95,0.899-7.836,2.014-11.465,3.813c-5.538,2.747-10.506,6.202-14.017,12.029c1.706-0.07,3.381-0.085,5.038-0.067
		c0.293-0.392,0.646-0.747,1.067-1.049c1.613-1.153,3.381-1.852,5.218-2.351c1.756-0.884,3.468-1.849,5.144-2.879
		c0.321-0.282,0.694-0.544,1.139-0.771c0.152-0.078,0.306-0.152,0.458-0.229c6.895-4.457,13.207-9.934,19.477-15.146
		c0.118-0.593,0.362-1.207,0.771-1.831c3.742-5.706,7.089-11.661,10.989-17.261c1.593-3.871,3.572-7.537,6.346-10.73
		c-1.226-2.573-2.523-5.113-3.875-7.624c-8.604-15.979-19.13-30.344-34.958-39.994c-2.351-1.434-3.703-3.148-4.521-5.738
		c-3.38-10.694-8.481-20.396-17.19-27.794c-4.82-4.095-10.235-7.085-17.021-8.456c1.702,5.407,0.652,10.113-1.279,14.614
		c-0.937,2.184-0.709,3.836,0.306,5.956C322.309,287.123,326.738,299.79,329.248,313.094z"/>
	<path fill-rule="evenodd" clip-rule="evenodd" fill="#CB0000" d="M253.498,146.626c-13.879-4.698-27.628-9.807-41.895-13.283
		c-3.784-0.922-7.527-2.037-11.34-2.805c-2.132-0.429-2.323-1.245-1.493-3.023c4.843-10.374,9.514-20.828,14.488-31.137
		c2.107-4.368,6.927-5.706,13.096-4.753c16.119,2.489,32.073,5.542,47.049,12.359c0.859,0.391,2.028,0.928,2.397-0.229
		c0.421-1.319-1.031-1.741-1.953-2.158c-8.115-3.672-16.562-6.368-25.215-8.446c-1.676-0.403-3.351-0.815-4.979-1.428
		c8.694-0.317,17.01,1.876,25.322,3.856c12.445,2.965,24.611,6.668,35.693,13.421c10.815,6.589,14.589,16.052,12.582,28.216
		c-1.271,7.706-2.818,15.352-4.562,22.967c-0.606,2.647-1.722,3.568-4.371,3.476c-4.846-0.168-9.702-0.048-14.923-0.048
		c2.205-6.377,4.744-12.329,5.765-18.724c0.359-2.257,0.701-4.518,1.048-6.777c0.148-0.973,0.22-2.146-0.91-2.369
		c-1.302-0.256-1.371,1.102-1.5,1.936c-0.757,4.92-1.333,9.875-2.99,14.605c-0.979,2.791-2.064,5.542-3.024,8.338
		c-0.7,2.043-1.677,2.88-3.892,1.71c-11.189-5.908-22.959-10.559-34.469-15.773c4.01-2.218,7.926-1.687,11.988,0.062
		c4.588,1.975,5.012,1.726,7.194-2.604c2.796-5.546,5.539-11.121,8.377-16.646c1.434-2.789,1.1-4.458-2.06-5.5
		c-4.71-1.555-9.522-2.761-13.59-6.028c-1.927-1.548-4.992-0.534-7.469-1.374c-5.756-1.95-11.403-4.201-17.182-6.081
		c-0.77-0.25-1.747-0.46-2.152-1.069c-2.788-4.19-7.035-3.491-11.134-3.644c-1.719-0.065-2.874,0.271-3.659,1.781
		c-3.177,6.11-6.162,12.317-9.258,18.469c-1.1,2.185-0.011,3.157,1.894,3.952c6.729,2.809,13.658,5.097,20.412,7.841
		c1.755,0.713,3.598,1.325,4.921,2.729c1.617,1.714,3.566,2.177,5.828,2.29C251.873,140.954,252.859,142.032,253.498,146.626z"/>
	<path fill-rule="evenodd" clip-rule="evenodd" fill="#CB0000" d="M135.345,233.08c20.657-6.339,33.281,1.52,38.524,24.06
		c-5.081-1.209-10.018-1.183-14.957-1.119c-6.524,0.085-12.867,1.042-18.807,3.922c-1.261,0.611-2.384,0.797-3.771,0.034
		c-16.263-8.945-32.171-5.939-48.041,1.351c-12.216,5.61-20.951,14.526-24.516,27.419c-1.872,6.768-6.252,9.401-12.299,11.708
		c0.812-7.762,2.366-15.121,5.568-21.898c8.84-18.707,22.801-31.827,43.079-37.332c6.41-1.739,12.853-0.642,18.962,2.023
		c1.058,0.463,2.481,1.643,3.116,0.184c0.555-1.277-1.16-1.89-2.255-2.354c-3.992-1.696-8.131-2.824-12.555-3
		c8.676-6.594,23.529-6.117,33.587,1.033c0.658,0.468,1.262,1.011,1.895,1.516c0.638,0.509,1.32,1.125,2.063,0.243
		c0.759-0.898-0.075-1.471-0.61-2.006C141.917,236.447,138.814,235.062,135.345,233.08z"/>
	<path fill-rule="evenodd" clip-rule="evenodd" fill="#CB0000" d="M289.295,166.016c-7.537,5.549-15.17,9.716-24.369,8.554
		c-10.865-1.372-20.845-5.35-29.393-12.445c-4.671-3.875-10.097-6.007-15.949-7.466c-11.224-2.794-22.451-5.624-33.326-9.626
		c-2.008-0.739-3.897-1.804-5.829-2.743c-2.771-1.346-2.795-3.856-2.278-6.276c0.473-2.215,2.271-2.99,4.506-3.345
		c9.433-1.502,18.482,0.292,27.541,2.663c26.674,6.983,52.319,16.64,76.86,29.215C287.625,164.838,288.134,165.247,289.295,166.016z
		"/>
	<path fill-rule="evenodd" clip-rule="evenodd" fill="#CB0000" d="M281.008,250.422c0.393-10.419,0.39-10.396,10.129-8.634
		c5.98,1.083,11.881,2.428,17.206,5.498c9.114,5.255,8.555,13.623,5.652,21.083c-0.643,1.652-1.899,1.625-3.326,1.205
		c-7.36-2.169-14.807-3.926-22.458-4.725c-0.647-0.067-1.802-0.392-1.815-0.646C286.112,258.895,279.441,256.013,281.008,250.422z"
		/>
	<path fill-rule="evenodd" clip-rule="evenodd" fill="#FDFDFD" d="M177.681,211.755c16.425,10.205,34.956,11.179,53.209,13.398
		c6.423,0.781,12.702,2.314,18.394,5.642c1.275,0.746,2.553,1.451,3.443,2.699c-5.498,3.84-10.191,3.24-14.265-1.842
		c-0.839-1.046-1.266-1.259-2.525-0.429c-4.047,2.668-8.283,2.386-12.147-0.792c-1.263-1.038-2.002-1.144-3.452-0.279
		c-5.891,3.511-11.674,1.297-13.958-5.26c-0.665-1.909-0.993-2.269-2.917-0.83c-4.606,3.439-10.604,1.354-12.585-4.078
		c-0.788-2.16-2.093-1.339-3.573-0.946C181.974,220.453,178.084,217.614,177.681,211.755z"/>
	<path fill-rule="evenodd" clip-rule="evenodd" fill="#FEFEE0" d="M309.389,166.192c-2.904,7.542-5.642,14.649-8.43,21.89
		c-3.934-2.196-7.404-5.003-11.688-6.262c-1.392-0.409-2.143-1.088-1.124-2.565c0.147-0.213,0.154-0.517,0.276-0.754
		c2.061-4.024,2.312-10.193,5.881-11.867C298.372,164.726,304.022,166.192,309.389,166.192z"/>
	<path fill-rule="evenodd" clip-rule="evenodd" fill="#D50000" d="M214.268,235.828c3.326-1.232,6.143-4.829,10.29-1.729
		c2.115,1.582,4.877,0.866,7.263,1.257c0.061,1.326-0.886,1.522-1.424,2.048c-0.484,0.477-1.04,0.988-0.605,1.698
		c0.572,0.938,1.408,0.683,2.037,0.088c4.985-4.714,10.475-0.887,15.689-0.757c1.858,0.046,2.45,2.858,2.451,4.569
		c0.001,1.624-1.938,0.938-2.991,0.926C235.542,243.795,224.707,241.04,214.268,235.828z"/>
	<path fill-rule="evenodd" clip-rule="evenodd" fill="#F8F8DB" d="M284.163,203.211c-2.174-0.756-5.275-0.32-3.413-4.122
		c1.1-2.248,1.701-4.762,2.347-7.203c0.447-1.69,0.882-2.24,2.961-1.847c3.127,0.591,3.781,1.623,2.4,4.458
		c-1.102,2.261-1.775,4.73-2.67,7.095C285.46,202.459,285.146,203.42,284.163,203.211z"/>
	<path fill-rule="evenodd" clip-rule="evenodd" fill="#F6C400" d="M289.287,169.888c-1.219,2.913-2.428,5.828-3.658,8.735
		c-0.537,1.268-1.377,1.42-2.584,0.791c-2.009-1.049-4.08-1.981-6.548-3.167C280.754,173.693,285.186,172.367,289.287,169.888z"/>
	<path fill-rule="evenodd" clip-rule="evenodd" fill="#8B95A2" d="M267.774,182.207c-6.489,4.539-12.683,8.869-18.873,13.201
		c-0.444,0.312-0.954,0.692-1.312,0.023c-0.223-0.416-0.403-1.2-0.185-1.44c0.706-0.779,1.567-1.435,2.436-2.045
		c4.485-3.159,8.99-6.292,13.493-9.43C264.495,181.706,265.632,180.676,267.774,182.207z"/>
	<path fill-rule="evenodd" clip-rule="evenodd" fill="#8C96A3" d="M208.003,160.093c-4.917,3.635-9.642,7.143-14.387,10.624
		c-0.93,0.683-1.946,1.788-3.034,0.261c-1.223-1.718,0.604-2.006,1.423-2.58c3.943-2.762,7.941-5.445,11.935-8.135
		C205.121,159.468,206.297,158.257,208.003,160.093z"/>
	<path fill-rule="evenodd" clip-rule="evenodd" fill="#8A94A0" d="M246.89,191.115c-1.001-1.719-0.341-2.596,0.774-3.379
		c3.864-2.713,7.719-5.44,11.557-8.188c0.989-0.708,2.209-1.083,2.895-0.091c0.774,1.118-0.68,1.528-1.361,2.01
		C256.163,184.706,251.534,187.892,246.89,191.115z"/>
	<path fill-rule="evenodd" clip-rule="evenodd" fill="#86909C" d="M193.416,173.805c5.986-4.335,11.582-9.223,18.088-12.822
		c0.27,0.375,0.54,0.751,0.812,1.126c-5.991,4.311-11.981,8.621-17.972,12.932C194.035,174.629,193.725,174.217,193.416,173.805z"/>
	<path fill-rule="evenodd" clip-rule="evenodd" fill="#E9E9CE" d="M288.816,217.587c-1.128,3.282-2.353,5.304-4.909,5.099
		c-1.299-0.104-0.753-2.09-0.554-3.07C284.014,216.363,286.587,218.788,288.816,217.587z"/>
	<path fill-rule="evenodd" clip-rule="evenodd" fill="#E7B900" d="M234.306,164.536c-5.079-0.061-7.641-2.459-10.392-5.844
		C227.925,159.908,230.873,161.691,234.306,164.536z"/>
	<path fill-rule="evenodd" clip-rule="evenodd" fill="#FEFEFE" d="M209.317,329.367c13.326,0.562,25.962,1.166,38.604,1.566
		c2.572,0.082,2.434,1.19,2.053,3.017c-3.553,17.048-5.768,34.28-6.874,51.649c-0.13,2.047-0.922,3.104-2.603,4.05
		c-7.97,4.491-15.837,9.165-23.838,13.6c-2.927,1.622-5.049,3.416-3.304,6.947c1.367,2.767,4.384,3.042,8.121,1.002
		c6.11-3.339,12.208-6.702,18.674-10.254c-0.681,6.255-1.848,11.896-3.311,17.479c-0.283,1.082-0.371,2.572-2.183,2.245
		c-1.209-0.22-2.558,0.307-3.175-1.649c-0.933-2.951-3.13-1.856-4.854-0.783c-0.981,0.611-1.541,1.701-3.029,1.561
		c-8.019-0.752-16.046-1.404-24.708-2.146c9.747-13.083,13.98-27.693,16.324-42.967C217.573,359.321,216.58,344.32,209.317,329.367z
		"/>
	<path fill-rule="evenodd" clip-rule="evenodd" fill="#FEFEFE" d="M205.864,365.428c-1.304,14.852-4.835,32.105-16.459,46.579
		c-1.617,2.014-2.782,5.011-6.46,4.705c-2.175-0.181-2.675-0.873-2.367-2.91c2.271-15.035,4.468-30.08,6.692-45.122
		c1.791-12.111,3.566-24.226,5.411-36.328c0.193-1.271-0.502-3.179,1.845-3.379c1.988-0.169,3.47,0.127,4.55,2.24
		C204.087,341.018,206.392,351.379,205.864,365.428z"/>
	<path fill-rule="evenodd" clip-rule="evenodd" fill="#FEFEFE" d="M287.364,362.544c1.256-9.559,2.123-18.612,4.985-27.323
		c0.28-0.853,0.542-1.969,1.649-2.002c0.901-0.027,1.2,0.976,1.547,1.663c1.696,3.36,3.82,4.523,6.781,1.367
		c0.877-0.935,1.949-0.94,2.977-0.719c1.653,0.359,0.828,1.795,0.786,2.658c-1.405,29.199-7.703,57.222-20.342,83.693
		c-0.878,1.84-7.222,2.58-8.514,1.06c-0.648-0.763-0.1-1.513,0.096-2.26c3.64-13.954,5.952-28.153,7.794-42.436
		c0.248-1.924,1.03-3.135,2.81-4c3.017-1.469,5.932-3.15,8.856-4.802c3.041-1.719,4.232-5.802,2.318-8.547
		c-2.062-2.958-4.713-2.481-7.417-0.808C290.457,360.855,289.164,361.527,287.364,362.544z"/>
	<path fill-rule="evenodd" clip-rule="evenodd" fill="#FEFEFE" d="M253.005,382.193c1.091-17.13,3.583-33.055,7.563-48.759
		c0.44-1.733,1.117-3.13,3.062-3.175c2.359-0.053,1.7,1.852,1.913,3.216c0.258,1.657,1.328,2.731,2.967,2.839
		c2.224,0.147,4.72,0.734,6.021-1.988c0.66-1.383,1.326-2.168,3.23-2.218c3.786-0.1,4.445,1.178,3.693,4.741
		c-2.002,9.482-3.692,19.035-5.326,28.591c-0.513,3.003-1.75,5.003-4.54,6.448C265.535,375.024,259.647,378.483,253.005,382.193z"/>
	<path fill-rule="evenodd" clip-rule="evenodd" fill="#FEFEFE" d="M178.81,329.129c3.9-0.984,4.558,0.564,4.086,4.073
		c-3.585,26.691-7.022,53.405-10.41,80.124c-0.242,1.903-0.73,2.732-2.677,2.279c-0.655-0.151-1.325-0.245-1.99-0.354
		c-6.907-1.131-6.974-1.141-5.9-8.043c3.81-24.477,7.729-48.936,11.444-73.426C173.907,330.195,174.711,327.797,178.81,329.129z"/>
	<path fill-rule="evenodd" clip-rule="evenodd" fill="#FEFEFE" d="M273.635,382.321c-1.479,13.059-2.77,25.628-5.562,37.983
		c-0.283,1.255-0.174,2.715-2.144,2.869c-2.082,0.162-2.019-1.295-2.254-2.573c-0.556-3.011-2.808-3.345-5.214-3.194
		c-2.484,0.154-5.062,0.467-4.963,3.912c0.072,2.562-1.807,1.871-2.65,1.269c-1.394-0.995-5.119,1.116-4.278-2.443
		c1.832-7.757,3.149-15.561,3.77-23.494c0.083-1.05,0.505-1.727,1.426-2.233C258.934,390.472,266.088,386.5,273.635,382.321z"/>
	<path fill-rule="evenodd" clip-rule="evenodd" fill="#007DA7" d="M195.586,325.743c0.021,1.015-0.665,0.792-1.063,0.806
		c-0.8,0.026-1.097-0.457-0.99-1.238c0.074-0.538,0.261-1.126,0.867-0.825C194.917,324.742,195.25,325.368,195.586,325.743z"/>
	<path fill-rule="evenodd" clip-rule="evenodd" fill="#007299" d="M181.43,419.826c-0.274,0.151-0.668,0.483-1.114,0.585
		c-0.466,0.106-0.606-0.316-0.539-0.715c0.105-0.618,0.563-0.792,1.111-0.719C181.215,419.021,181.668,419.036,181.43,419.826z"/>
	<path fill-rule="evenodd" clip-rule="evenodd" fill="#070600" d="M60.461,345.783c4.596-8.873,11.987-15.357,20.298-21.056
		c0.742-0.508,1.762-0.823,1.688-2.191c-0.56-1.61-1.575-0.69-2.414-0.165c-5.027,3.151-9.62,6.868-13.741,11.122
		c-2.958,3.052-5.514,6.386-7.567,10.04C59.319,344.284,59.901,345.035,60.461,345.783z"/>
	<path fill-rule="evenodd" clip-rule="evenodd" fill="#090700" d="M119.684,335.131c0,0.809,0.003,1.616-0.001,2.425
		c-0.005,0.943-0.561,1.631-1.397,1.674c-1.151,0.061-1.091-0.975-1.035-1.751c0.504-6.977-2.684-12.447-7.065-17.438
		c-0.701-0.798-1.821-1.7-0.671-2.693c0.939-0.812,1.694,0.378,2.271,1.006C116.157,323.119,119.325,328.473,119.684,335.131z"/>
	<path fill-rule="evenodd" clip-rule="evenodd" fill="#0F0C00" d="M236.516,289.389c-0.151,1.921,0.163,3.561-1.285,3.832
		c-2.256,0.422-0.806-1.68-1.341-2.435c-1.52-2.139-2.931-0.665-4.207,0.381c-0.783,0.642-1.372,2.076-2.528,0.926
		c-1.002-0.997,0.045-1.954,0.727-2.746c1.389-1.611,3.154-2.371,5.302-2.438C235.488,286.837,236.938,287.46,236.516,289.389z"/>
	<path fill-rule="evenodd" clip-rule="evenodd" fill="#0E0B00" d="M240.805,293.507c0.549-1.624,0.065-3.988,2.791-4.112
		c2.178-0.098,3.922,0.812,4.836,2.853c0.385,0.859,0.391,1.957-0.573,2.505c-1.12,0.636-1.72,0.002-1.9-1.147
		c-0.147-0.941-0.739-1.462-1.651-1.235c-0.808,0.2-0.594,1.035-0.683,1.665c-0.146,1.026,0.832,2.8-1.176,2.716
		C240.493,296.669,241.415,294.628,240.805,293.507z"/>
	<path fill-rule="evenodd" clip-rule="evenodd" fill="#110E00" d="M251.257,298.032c-0.207,1.976-1.196,4.113-3.728,5.098
		c-1.834,0.714-3.434,0.163-4.618-1.443c-0.463-0.628-1.168-1.245-0.395-2.084c0.552-0.599,1.21-0.503,1.803-0.057
		c3.565,2.688,3.938-0.185,4.595-2.613c0.229-0.85,0.213-2.168,1.548-1.838C251.542,295.361,251.536,296.471,251.257,298.032z"/>
	<path fill-rule="evenodd" clip-rule="evenodd" fill="#171200" d="M261.713,285.603c0.564,0.022,1.686,0.429,2.634,1.24
		c0.55,0.47,0.821,1.107,0.411,1.771c-0.305,0.494-0.848,0.604-1.4,0.342c-2.064-0.98-3.905-1.47-4.429,1.696
		c-0.038,0.229-0.924,0.501-1.372,0.438c-0.834-0.116-0.972-0.877-0.844-1.56C257.158,287.157,258.415,285.616,261.713,285.603z"/>
	<path fill-rule="evenodd" clip-rule="evenodd" fill="#120E00" d="M254.605,305.035c-0.663,2.29-1.63,4.066-3.602,4.953
		c-1.723,0.776-3.108-0.27-4.392-1.278c-0.579-0.454-0.733-1.092-0.314-1.78c0.403-0.662,0.99-0.415,1.39-0.135
		c2.628,1.855,3.506,0.082,4.34-1.984c0.251-0.624,0.802-1.152,1.565-1.02C254.395,303.931,254.472,304.639,254.605,305.035z"/>
	<path fill-rule="evenodd" clip-rule="evenodd" fill="#110D00" d="M241.785,305.295c-0.436,1.194,0.052,3.154-1.651,3.25
		c-2.39,0.135-0.931-1.838-1.154-2.904c-0.103-0.488-0.206-1.127-0.546-1.384c-0.73-0.551-2.339-0.112-1.99-1.816
		c0.164-0.805,0.865-0.893,1.555-0.903c1.444-0.021,2.633,0.459,3.25,1.843C241.516,303.978,241.611,304.65,241.785,305.295z"/>
	<path fill-rule="evenodd" clip-rule="evenodd" fill="#2D2400" d="M258.323,302.881c-0.227-0.203-0.722-0.47-0.95-0.884
		c-0.719-1.307-0.563-2.712,0.276-3.832c1.092-1.456,2.935-2.061,4.229-0.817c1.586,1.523-0.475,1.772-1.381,2.304
		C259.271,300.371,260.472,302.511,258.323,302.881z"/>
	<path fill-rule="evenodd" clip-rule="evenodd" fill="#221B00" d="M261.738,291.599c1.349,0.168,1.593,1.299,1.81,2.288
		c0.177,0.808-0.185,1.711-1.159,1.682c-1.326-0.042-1.581-1.184-1.734-2.255C260.53,292.456,260.678,291.727,261.738,291.599z"/>
	<path fill-rule="evenodd" clip-rule="evenodd" fill="#141000" d="M237.269,296.68c-0.201,0.987-0.185,2.245-1.535,2.424
		c-1.031,0.136-1.336-0.748-1.224-1.591c0.137-1.029,0.228-2.257,1.571-2.467C237.297,294.854,237.187,295.865,237.269,296.68z"/>
	<path fill-rule="evenodd" clip-rule="evenodd" fill="#261E00" d="M253.555,297.086c-1.156-0.382-1.114-1.363-1.079-2.287
		c0.031-0.828,0.235-1.686,1.342-1.492c1.229,0.217,1.205,1.238,1.149,2.188C254.915,296.373,254.531,296.996,253.555,297.086z"/>
	<path fill-rule="evenodd" clip-rule="evenodd" fill="#090700" d="M373.36,353.907c0.037,0.929-0.145,1.541-0.952,1.722
		c-1.08,0.239-1.325-0.512-1.606-1.322c-1.144-3.296-2.489-6.508-4.383-9.457c-2.861-4.456-6.405-8.262-10.731-11.35
		c-0.748-0.535-2.312-1.096-1.271-2.407c0.964-1.214,1.98-0.021,2.766,0.564c7.281,5.428,12.771,12.212,15.653,20.938
		C373.002,353.1,373.229,353.584,373.36,353.907z"/>
	<path fill-rule="evenodd" clip-rule="evenodd" fill="#010000" d="M253.498,146.626c-1.482-3.701-3.771-5.922-8.147-4.7
		c-0.869,0.243-1.9-0.025-2.603-0.8c-5.651-6.242-14.061-6.661-21.097-9.979c-0.838-0.396-1.822-0.485-2.652-0.894
		c-7.047-3.475-7.047-3.49-3.457-10.646c2.595-5.174,5.256-10.315,7.784-15.521c0.846-1.74,1.774-2.664,3.729-1.607
		c1.372,0.742,2.772,0.678,4.263,0.222c2.399-0.734,4.623-0.662,5.611,2.212c0.426,1.234,1.504,1.5,2.471,1.852
		c6.449,2.341,12.936,4.581,19.37,6.96c1.487,0.55,2.93,0.219,4.391,0.33c1.06,0.081,2.38-0.323,3.08,0.592
		c3.603,4.716,9.493,4.56,14.27,6.727c2.742,1.244,3.428,2.312,1.981,5.059c-3.511,6.672-6.849,13.438-10.124,20.229
		c-0.96,1.992-2.125,3.351-4.307,2.179c-4.648-2.497-9.514-3.099-14.639-2.28C253.424,146.559,253.498,146.626,253.498,146.626z"/>
	<path fill-rule="evenodd" clip-rule="evenodd" d="M230.962,376.367c0.549-6.162,1.096-12.262,4.016-17.906
		c1.015-1.961,2.364-3.273,4.565-3.381c2.522-0.122,4.371,0.978,4.089,3.737c-0.821,8.037-1.964,16.056-6.64,22.948
		c-2.256,3.326-5.08,5.87-9.751,5.012c-3.139-0.576-5.254-2.139-6.099-5.098c-2.333-8.18-2.273-16.523-0.71-24.774
		c0.564-2.979,2.346-5.932,6.381-5.338c3.813,0.561,3.883,3.68,3.878,6.456c-0.006,3.761-0.448,7.52-0.657,11.281
		C229.903,371.66,229.694,374.039,230.962,376.367z"/>
	<path fill-rule="evenodd" clip-rule="evenodd" fill="#FDFDFD" d="M249.105,133.993c-0.757,3.443-2.341,4.081-5.126,2.926
		c-5.591-2.319-11.267-4.432-17.196-6.743c2.558-3.211,5.914-5.579,7.581-9.268c1.68-3.719,2.174-7.75,3.145-12.042
		c6.704,2.393,13.35,4.764,20.198,7.208c-2.351,4.266-5.146,8.12-6.424,12.708c-0.324,1.166-1.009,1.342-2.099,1.193
		c-2.003-0.274-4.027-0.39-6.038-0.608c-1.724-0.186-3.988-0.816-4.214,1.625c-0.231,2.511,2.336,2.114,3.92,2.393
		C244.821,133.732,246.842,133.788,249.105,133.993z"/>
	<path fill-rule="evenodd" clip-rule="evenodd" fill="#FBFBFB" d="M270.021,120.267c-2.515,2.531-3.22,5.426-4.758,7.893
		c-1.708,2.739-6.423,3.966-9.142,2.318c-1.386-0.839-0.429-1.794-0.137-2.374c1.512-2.993,3.249-5.871,4.841-8.826
		c0.655-1.218,2.022-1.7,2.567-0.798C264.911,120.997,267.241,119.656,270.021,120.267z"/>
	<path fill-rule="evenodd" clip-rule="evenodd" fill="#FAFAFA" d="M218.352,126.885c-1.604-0.636-3.733-0.565-2.204-3.382
		c2.943-5.422,5.598-11.004,8.322-16.544c0.648-1.317,1.275-2.369,3.001-1.631c1.911,0.818,0.741,1.975,0.297,2.951
		c-2.56,5.617-5.145,11.223-7.798,16.797C219.631,125.786,219.672,127.106,218.352,126.885z"/>
	<path fill-rule="evenodd" clip-rule="evenodd" fill="#FBFBFB" d="M262.269,143.643c1.019-2.02,2.177-3.982,3.005-6.076
		c0.551-1.388,1.29-1.683,2.692-1.691c7.203-0.047,7.214-0.075,4.023,6.326C269.591,147.013,269.591,147.013,262.269,143.643z"/>
	<path fill-rule="evenodd" clip-rule="evenodd" fill="#FAFAFA" d="M280.311,123.794c-2.05,8.597-2.608,8.96-11.933,7.925
		c0.894-2.115,1.584-4.232,2.654-6.135c0.952-1.691,2.274-3.253,4.325-0.971C277.108,126.562,278.4,124.317,280.311,123.794z"/>
	<path fill-rule="evenodd" clip-rule="evenodd" fill="#F7F7F7" d="M261.599,135.373c-2.132,6.603-3.144,7.262-7.887,5.161
		c-0.819-0.363-2.823-0.418-1.899-1.811c0.963-1.452,0.433-4.445,3.467-4.145C257.283,134.776,259.276,135.077,261.599,135.373z"/>
	<path fill-rule="evenodd" clip-rule="evenodd" fill="#EFEFEF" d="M223.714,126.485c3.034-6.516,5.767-12.384,8.675-18.628
		C234.059,114.501,230.707,121.796,223.714,126.485z"/>
	<path fill-rule="evenodd" clip-rule="evenodd" fill="#050505" d="M244.384,127.815c-2.494-0.167-4.94-0.675-5.872-3.372
		c-1.051-3.042-0.639-6.123,0.703-9.015c0.39-0.84,1.422-0.698,2.188-0.424c0.994,0.356,1.592,1.162,1.166,2.201
		c-0.535,1.312-0.405,2.643-0.465,3.978c-0.053,1.157,0.015,2.19,1.565,2.239c1.187,0.037,2.138-0.241,2.448-1.553
		c0.031-0.131,0.006-0.289,0.07-0.396c0.96-1.603,0.513-5.308,3.74-3.739c2.508,1.219,0.616,3.844-0.054,5.733
		C248.986,125.968,247.661,128.176,244.384,127.815z"/>
</g>
<g id="Layer_2_2_">
	<g>
		<path fill="#F0F1F2" d="M226.5,437c-32.219,0-62.432-6.399-89.8-19.021c-25.146-11.596-47.418-28.174-66.196-49.271
			C35.548,329.429,15.5,277.415,15.5,226c0-56.363,21.947-109.351,61.798-149.202C117.149,36.947,170.137,15,226.5,15
			c56.363,0,109.352,21.947,149.202,61.798C415.553,116.649,437.5,169.637,437.5,226c0,78.176-42.898,149.582-111.958,186.354
			c-4.11,2.202-8.353,4.281-12.606,6.186c-0.494,0.23-0.973,0.438-1.449,0.648l-0.846,0.371C284.066,431.13,255.753,437,226.5,437z
			 M226.008,27.613c-109.195,0-198.033,88.837-198.033,198.034c0,109.195,88.837,198.032,198.033,198.032
			c109.196,0,198.033-88.837,198.033-198.032C424.041,116.45,335.204,27.613,226.008,27.613z"/>
		<path fill="none" d="M226.5,16.5c28.285,0,55.723,5.539,81.549,16.461c24.947,10.551,47.354,25.657,66.594,44.897
			c19.239,19.24,34.348,41.646,44.896,66.592C430.462,170.277,436,197.714,436,225.999c0,38.717-10.643,76.535-30.777,109.367
			c-19.574,31.921-47.371,58.085-80.393,75.667c-4.076,2.184-8.283,4.247-12.507,6.133l-0.03,0.014l-0.031,0.018
			c-0.451,0.214-0.914,0.416-1.378,0.615c-0.284,0.125-0.571,0.25-0.825,0.364C283.659,429.672,255.546,435.5,226.5,435.5
			c-32,0-62.002-6.354-89.172-18.883c-24.958-11.509-47.064-27.965-65.704-48.908c-17.49-19.652-31.18-42.341-40.691-67.436
			C21.818,276.225,17,250.54,17,226c0-28.285,5.539-55.722,16.461-81.549c10.551-24.947,25.657-47.352,44.897-66.592
			c19.239-19.24,41.646-34.346,66.592-44.897C170.778,22.039,198.215,16.5,226.5,16.5 M226.008,425.179
			c26.938,0,53.067-5.273,77.669-15.682c23.761-10.05,45.101-24.438,63.423-42.761c18.323-18.323,32.71-39.662,42.763-63.424
			c10.402-24.604,15.682-50.731,15.682-77.668c0-26.936-5.276-53.066-15.682-77.667c-10.053-23.761-24.438-45.099-42.763-63.423
			c-18.322-18.324-39.662-32.71-63.422-42.76c-24.603-10.406-50.732-15.682-77.67-15.682c-26.936,0-53.066,5.276-77.668,15.682
			c-23.761,10.05-45.099,24.437-63.423,42.76c-18.324,18.323-32.71,39.662-42.76,63.423c-10.406,24.601-15.683,50.732-15.683,77.667
			c0,26.937,5.276,53.066,15.683,77.668c10.05,23.762,24.437,45.101,42.76,63.424c18.324,18.321,39.662,32.711,63.423,42.761
			C172.941,419.902,199.072,425.179,226.008,425.179 M14,226c0,99.875,76.854,212.5,212.5,212.5
			c30.124,0,58.791-6.267,84.755-17.571c0.769-0.344,1.544-0.668,2.292-1.021c4.318-1.929,8.549-4.004,12.7-6.229
			C393.332,377.957,439,307.312,439,226c0-117.367-95.133-212.5-212.5-212.5l0,0 M29.475,225.646
			c0-108.542,87.991-196.534,196.533-196.534c108.543,0,196.533,87.991,196.533,196.534c0,108.542-87.99,196.532-196.533,196.532
			l0,0"/>
	</g>
</g>
</svg>
