<?xml version="1.0" encoding="utf-8"?>
<!-- Generator: Adobe Illustrator 17.1.0, SVG Export Plug-In . SVG Version: 6.00 Build 0)  -->
<!DOCTYPE svg PUBLIC "-//W3C//DTD SVG 1.0//EN" "http://www.w3.org/TR/2001/REC-SVG-20010904/DTD/svg10.dtd" [
	<!ENTITY ns_extend "http://ns.adobe.com/Extensibility/1.0/">
	<!ENTITY ns_ai "http://ns.adobe.com/AdobeIllustrator/10.0/">
	<!ENTITY ns_graphs "http://ns.adobe.com/Graphs/1.0/">
	<!ENTITY ns_vars "http://ns.adobe.com/Variables/1.0/">
	<!ENTITY ns_imrep "http://ns.adobe.com/ImageReplacement/1.0/">
	<!ENTITY ns_sfw "http://ns.adobe.com/SaveForWeb/1.0/">
	<!ENTITY ns_custom "http://ns.adobe.com/GenericCustomNamespace/1.0/">
	<!ENTITY ns_adobe_xpath "http://ns.adobe.com/XPath/1.0/">
]>
<svg version="1.0" xmlns:x="&ns_extend;" xmlns:i="&ns_ai;" xmlns:graph="&ns_graphs;"
	 xmlns="http://www.w3.org/2000/svg" xmlns:xlink="http://www.w3.org/1999/xlink" x="0px" y="0px" viewBox="0 0 453 453"
	 enable-background="new 0 0 453 453" xml:space="preserve">
<metadata>
	<sfw  xmlns="&ns_sfw;">
		<slices></slices>
		<sliceSourceBounds  height="453" width="453" bottomLeftOrigin="true" x="-85" y="-85.5"></sliceSourceBounds>
	</sfw>
</metadata>
<g id="Calque_2">
	<circle fill="#6AADE1" cx="228" cy="226.5" r="201.9"/>
</g>
<g id="Layer_1">
	<path fill="#FFD90F" stroke="#000000" stroke-width="3" stroke-linecap="round" stroke-linejoin="round" d="M190.4,363.3
		c0,0.7-10.7,46.7-10.7,46.7l13.2-5.5l11.8-48.7L190.4,363.3z"/>
	<path fill="#F14E28" stroke="#000000" stroke-width="3" stroke-linecap="round" stroke-linejoin="round" d="M271.4,308
		c0,0,11,0.8,8.7,13.6c0,0,18.4,34.2,22.6,72.6l9.9,18.1c0,0-32.7,15.2-74,17.5c-41.3,2.3-63.9-7.4-63.9-7.4s6.4-18.6,13.9-26.4
		c0,0,14.4-70.8,21-72.1"/>
	<path fill="#F14E28" stroke="#000000" stroke-width="3" stroke-linecap="round" stroke-linejoin="round" d="M296.6,375l-0.5,6.9
		c0,0,7.6,1.8,11-3.6C307.1,378.2,301.1,375.7,296.6,375z"/>
	<path fill="#F14E28" stroke="#000000" stroke-width="3" stroke-linecap="round" stroke-linejoin="round" d="M256,381
		c0,0-6.8,0-11.9-4.7c3.4-1.4,3.2-1.3,11.9-1.9V381z"/>
	<path fill="#FFD90F" stroke="#000000" stroke-width="3" stroke-linecap="round" stroke-linejoin="round" d="M256.3,368.9
		c0,0-4.5,35.4-4.2,51.3l-1.6,12.5c0,0,25.8-3.9,42-9.4l0.7-7.9l3.4-42.3C296.7,373.2,285.9,352.6,256.3,368.9z"/>
	<path fill="#F14E28" stroke="#000000" stroke-width="3" stroke-linecap="round" stroke-linejoin="round" d="M278,322
		c18.1,0.8,30.8,31.6,29.1,56.2c0,0-9.2-5-27.6-5.9c-12.9-0.6-35.4,4-35.4,4C246.5,342.6,256.5,321,278,322z"/>
	<path fill="#F14E28" stroke="#000000" stroke-width="3" stroke-linecap="round" stroke-linejoin="round" d="M203.4,336
		c0,0-9.2-1.5-19.8,30.1c0,0,2.6,4.6,10.4,5.9L203.4,336z"/>
	<path fill="#FFD90F" stroke="#000000" stroke-width="3" stroke-linecap="round" stroke-linejoin="round" d="M189.9,294.7
		c0.5,11.1,17.7,12.2,17.7,12.2l2,17.2c0,0,13.2,6.8,33.1,1.6s28.7-14.6,28.7-14.6l-3.7-45.1c0,0-0.1-13.7,2.4-31.5
		c6.4-63,14-95.8,19.3-118.4l4.9-24l-13.1,10.7l-3.1-19.1l-12,10.7l-5.9-17.5l-11.2,13.8l-5.7-17.1l-12.1,13.3l-7.5-17.4l-11,14.4
		l-9.1-16.3l-10.1,16.2l-9.8-15.7c0,0-8.3,15.5-7.7,15.6s-9.9-13.2-9.9-13.2l-8.5,16c0,0-7.1-10.6-10.2-14.5
		c-0.1-0.1-0.7,16.4-0.7,16.4s-4,76.8-4.4,76.7c-0.4-0.1-5.2,3.3-6.2,5.4c-2.1,4.3-1.4,11-1.4,11l0.6,61.6c0,0-1.6,21.7-5.8,32.3
		c0,0-2.6,9.1,7.6,12.7c0,0,21.5,7.2,52.1,6.5c9.3-0.2,26.2-0.9,48.2-7.9"/>
	<path fill="none" stroke="#000000" stroke-width="3" stroke-linecap="round" stroke-linejoin="round" d="M230.6,284.6
		c7-1.2,9.2,3.7,9.7,4.8"/>
	<g id="Yeux">
		<circle fill="#FFFFFF" stroke="#000000" stroke-width="3" cx="155.5" cy="206.7" r="31.6"/>
		<circle cx="154.2" cy="206.7" r="4.6"/>
	</g>
	<path id="Nez" fill="#FFD90F" stroke="#000000" stroke-width="3" stroke-linecap="round" stroke-linejoin="round" d="M184.2,224.6
		c-7.6,1.9-20.1,1.9-37.5-0.7c0,0-6.3-1.3-11.1,4.9c-4.8,6.1-2.1,11.5-0.4,13.8c0.6,0.8,1,1.3,1,1.3s8.8,8.1,26.2,6.6"/>
	<circle fill="#FFFFFF" stroke="#000000" stroke-width="3" cx="206.2" cy="208.9" r="33.4"/>
	<circle cx="213.2" cy="208.7" r="4.6"/>
	<path fill="#FFD90F" stroke="#000000" stroke-width="3" stroke-linecap="round" stroke-linejoin="round" d="M261.9,238.5
		c0,0,18.6-9.6,18.6,12.1c0,17.7-16.6,13.5-19.8,11.8"/>
	<path fill="none" stroke="#000000" stroke-width="3" stroke-linecap="round" stroke-linejoin="round" d="M262.8,249.8
		c-0.3-0.1,3.7-7.4,12.1-2.3"/>
	<path fill="none" stroke="#000000" stroke-width="3" stroke-linecap="round" stroke-linejoin="round" d="M265.7,246.6
		c0,0,4.2,1.1,3.8,8.5"/>
	<rect y="0" fill="none" width="453" height="453"/>
</g>
<g id="Calque_3">
	<path fill="#EFF0F1" d="M230.4,10.6c-118.6,0-214.7,96.1-214.7,214.7S111.9,440,230.4,440s214.7-96.1,214.7-214.7
		S349,10.6,230.4,10.6z M230.4,421c-108.1,0-195.7-87.6-195.7-195.7S122.4,29.6,230.4,29.6s195.7,87.6,195.7,195.7
		S338.5,421,230.4,421z"/>
</g>
</svg>
