<?xml version="1.0" encoding="utf-8"?>
<!-- Generator: Adobe Illustrator 16.0.3, SVG Export Plug-In . SVG Version: 6.00 Build 0)  -->
<!DOCTYPE svg PUBLIC "-//W3C//DTD SVG 1.1//EN" "http://www.w3.org/Graphics/SVG/1.1/DTD/svg11.dtd">
<svg version="1.1" id="Layer_1" xmlns="http://www.w3.org/2000/svg" xmlns:xlink="http://www.w3.org/1999/xlink" x="0px" y="0px"
	 width="453px" height="453px" viewBox="413.5 163.5 453 453" enable-background="new 413.5 163.5 453 453" xml:space="preserve">
<circle fill="#6AADE1" cx="641.466" cy="390" r="201.868"/>
<path fill="#FFD90F" stroke="#000000" stroke-width="3" stroke-linecap="round" stroke-linejoin="round" d="M603.917,526.833
	c0,0.666-10.664,46.704-10.664,46.704L606.407,568l11.773-48.667L603.917,526.833z"/>
<path fill="#F14E28" stroke="#000000" stroke-width="3" stroke-linecap="round" stroke-linejoin="round" d="M684.913,471.485
	c0,0,11.004,0.848,8.688,13.625c0,0,18.399,34.223,22.566,72.598l9.88,18.091c0,0-32.701,15.2-74.041,17.534
	c-41.339,2.334-63.863-7.399-63.863-7.399s6.356-18.58,13.94-26.424c0,0,14.411-70.75,20.997-72.13"/>
<path fill="#F14E28" stroke="#000000" stroke-width="3" stroke-linecap="round" stroke-linejoin="round" d="M710.059,538.485
	l-0.499,6.872c0,0,7.606,1.809,11.037-3.623C720.597,541.734,714.617,539.217,710.059,538.485z"/>
<path fill="#F14E28" stroke="#000000" stroke-width="3" stroke-linecap="round" stroke-linejoin="round" d="M669.5,544.5
	c0,0-6.821,0-11.891-4.694c3.354-1.434,3.189-1.332,11.891-1.934V544.5z"/>
<path fill="#FFD90F" stroke="#000000" stroke-width="3" stroke-linecap="round" stroke-linejoin="round" d="M669.847,532.403
	c0,0-4.544,35.385-4.183,51.347l-1.584,12.525c0,0,25.776-3.854,42.01-9.415l0.731-7.877l3.367-42.314
	C710.188,536.669,699.443,516.057,669.847,532.403z"/>
<path fill="#F14E28" stroke="#000000" stroke-width="3" stroke-linecap="round" stroke-linejoin="round" d="M691.5,485.486
	c18.06,0.847,30.75,31.578,29.097,56.248c0,0-9.229-4.998-27.575-5.922c-12.896-0.649-35.411,3.992-35.411,3.992
	C660.003,506.125,670.023,484.479,691.5,485.486z"/>
<path fill="#F14E28" stroke="#000000" stroke-width="3" stroke-linecap="round" stroke-linejoin="round" d="M616.941,499.473
	c0,0-9.22-1.523-19.83,30.085c0,0,2.555,4.61,10.389,5.943L616.941,499.473z"/>
<path fill="#FFD90F" stroke="#000000" stroke-width="3" stroke-linecap="round" stroke-linejoin="round" d="M603.375,458.156
	c0.5,11.094,17.688,12.25,17.688,12.25l2.05,17.241c0,0,13.224,6.777,33.056,1.564s28.745-14.649,28.745-14.649l-3.663-45.062
	c0,0-0.108-13.658,2.375-31.502c6.375-63,13.977-95.777,19.289-118.423l4.937-24.002l-13.061,10.688l-3.14-19.084l-12.037,10.669
	l-5.852-17.47l-11.2,13.81l-5.688-17.125l-12.125,13.312l-7.479-17.382l-10.955,14.434l-9.065-16.26l-10.113,16.198l-9.761-15.74
	c0,0-8.318,15.47-7.67,15.625c0.648,0.155-9.893-13.249-9.893-13.249l-8.538,16.008c0,0-7.082-10.557-10.212-14.508
	c-0.061-0.076-0.704,16.396-0.704,16.396s-3.986,76.806-4.384,76.68c-0.396-0.126-5.184,3.258-6.235,5.408
	c-2.122,4.333-1.434,11.033-1.434,11.033l0.605,61.64c0,0-1.595,21.692-5.836,32.269c0,0-2.595,9.137,7.648,12.655
	c0,0,21.499,7.18,52.112,6.461c9.322-0.219,26.179-0.935,48.154-7.888"/>
<path fill="none" stroke="#000000" stroke-width="3" stroke-linecap="round" stroke-linejoin="round" d="M644.128,448.094
	c7.028-1.188,9.244,3.711,9.744,4.809"/>
<g id="Yeux">
	<circle fill="#FFFFFF" stroke="#000000" stroke-width="3" cx="568.953" cy="370.216" r="31.574"/>
	<circle cx="567.74" cy="370.236" r="4.574"/>
</g>
<path id="Nez" fill="#FFD90F" stroke="#000000" stroke-width="3" stroke-linecap="round" stroke-linejoin="round" d="
	M597.75,388.125c-7.646,1.875-20.125,1.875-37.493-0.734c0,0-6.328-1.286-11.14,4.853c-4.77,6.082-2.112,11.469-0.441,13.827
	c0.575,0.811,1.033,1.263,1.033,1.263s8.83,8.11,26.153,6.617"/>
<circle fill="#FFFFFF" stroke="#000000" stroke-width="3" cx="619.74" cy="372.431" r="33.361"/>
<circle cx="626.74" cy="372.236" r="4.574"/>
<path fill="#FFD90F" stroke="#000000" stroke-width="3" stroke-linecap="round" stroke-linejoin="round" d="M675.351,402.043
	c0,0,18.563-9.625,18.563,12.056c0,17.735-16.645,13.485-19.82,11.777"/>
<path fill="none" stroke="#000000" stroke-width="3" stroke-linecap="round" stroke-linejoin="round" d="M676.25,413.251
	c-0.333-0.083,3.665-7.373,12.124-2.312"/>
<path fill="none" stroke="#000000" stroke-width="3" stroke-linecap="round" stroke-linejoin="round" d="M679.158,410.083
	c0,0,4.15,1.11,3.788,8.473"/>
<g id="Cadre">
	<g>
		<path fill="#F0F1F2" d="M640.465,601.234c-32.219,0-62.432-6.399-89.8-19.021c-25.146-11.596-47.418-28.174-66.196-49.271
			c-34.956-39.276-55.003-91.291-55.003-142.707c0-56.363,21.947-109.352,61.798-149.202
			c39.853-39.852,92.838-61.798,149.202-61.798s109.353,21.947,149.202,61.798c39.853,39.851,61.798,92.838,61.798,149.202
			c0,78.174-42.897,149.583-111.958,186.354c-4.125,2.209-8.365,4.288-12.604,6.182c-0.501,0.237-0.981,0.447-1.464,0.657
			l-0.83,0.366C698.034,595.365,669.72,601.234,640.465,601.234z M639.973,191.848c-109.194,0-198.031,88.837-198.031,198.033
			c0,109.196,88.837,198.034,198.031,198.034c109.196,0,198.033-88.838,198.033-198.034
			C838.006,280.685,749.169,191.848,639.973,191.848z"/>
		<path d="M640.465,180.735c28.285,0,55.725,5.539,81.549,16.461c24.947,10.551,47.354,25.657,66.595,44.897
			c19.238,19.24,34.346,41.646,44.896,66.593c10.923,25.826,16.461,53.263,16.461,81.548c0,38.717-10.643,76.535-30.776,109.367
			c-19.574,31.921-47.371,58.084-80.393,75.667c-4.091,2.19-8.299,4.254-12.507,6.134l-0.033,0.015l-0.031,0.015
			c-0.455,0.218-0.921,0.419-1.388,0.624c-0.282,0.123-0.562,0.246-0.812,0.358c-26.397,11.494-54.512,17.321-83.56,17.321
			c-32,0-62.002-6.354-89.172-18.885c-24.958-11.509-47.064-27.964-65.704-48.906c-17.49-19.652-31.18-42.343-40.689-67.436
			c-9.115-24.052-13.935-49.733-13.935-74.274c0-28.285,5.539-55.723,16.461-81.548c10.551-24.947,25.657-47.352,44.897-66.593
			c19.238-19.241,41.646-34.346,66.592-44.897C584.743,186.273,612.18,180.735,640.465,180.735 M639.973,589.414
			c26.938,0,53.067-5.276,77.669-15.682c23.762-10.052,45.101-24.438,63.425-42.763c18.321-18.323,32.71-39.663,42.76-63.423
			c10.405-24.602,15.682-50.731,15.682-77.668c0-26.936-5.275-53.067-15.682-77.668c-10.05-23.761-24.438-45.099-42.76-63.423
			c-18.324-18.324-39.662-32.71-63.425-42.76c-24.602-10.406-50.731-15.682-77.669-15.682c-26.936,0-53.065,5.276-77.668,15.682
			c-23.761,10.05-45.099,24.437-63.423,42.76c-18.324,18.323-32.71,39.662-42.76,63.423c-10.406,24.602-15.682,50.732-15.682,77.668
			c0,26.937,5.274,53.067,15.682,77.668c10.05,23.76,24.437,45.1,42.76,63.423c18.323,18.324,39.662,32.711,63.423,42.763
			C586.906,584.138,613.037,589.414,639.973,589.414 M640.465,177.735c-117.367,0-212.5,95.133-212.5,212.5
			c0,99.875,76.854,212.5,212.5,212.5c30.124,0,58.791-6.268,84.755-17.57c0.769-0.344,1.544-0.668,2.292-1.023
			c4.318-1.928,8.549-4.004,12.7-6.227c67.085-35.723,112.753-106.367,112.753-187.679
			C852.965,272.868,757.832,177.735,640.465,177.735L640.465,177.735z M639.973,586.414c-108.542,0-196.531-87.992-196.531-196.534
			s87.989-196.533,196.531-196.533c108.543,0,196.533,87.991,196.533,196.533S748.516,586.414,639.973,586.414L639.973,586.414z"/>
	</g>
</g>
<rect x="413.5" y="163.5" fill="none" width="453" height="453"/>
</svg>
