<?xml version="1.0" encoding="utf-8"?>
<!-- Generator: Adobe Illustrator 17.1.0, SVG Export Plug-In . SVG Version: 6.00 Build 0)  -->
<!DOCTYPE svg PUBLIC "-//W3C//DTD SVG 1.0//EN" "http://www.w3.org/TR/2001/REC-SVG-20010904/DTD/svg10.dtd" [
	<!ENTITY ns_extend "http://ns.adobe.com/Extensibility/1.0/">
	<!ENTITY ns_ai "http://ns.adobe.com/AdobeIllustrator/10.0/">
	<!ENTITY ns_graphs "http://ns.adobe.com/Graphs/1.0/">
	<!ENTITY ns_vars "http://ns.adobe.com/Variables/1.0/">
	<!ENTITY ns_imrep "http://ns.adobe.com/ImageReplacement/1.0/">
	<!ENTITY ns_sfw "http://ns.adobe.com/SaveForWeb/1.0/">
	<!ENTITY ns_custom "http://ns.adobe.com/GenericCustomNamespace/1.0/">
	<!ENTITY ns_adobe_xpath "http://ns.adobe.com/XPath/1.0/">
]>
<svg version="1.0" xmlns:x="&ns_extend;" xmlns:i="&ns_ai;" xmlns:graph="&ns_graphs;"
	 xmlns="http://www.w3.org/2000/svg" xmlns:xlink="http://www.w3.org/1999/xlink" x="0px" y="0px" viewBox="0 0 283.5 283.5"
	 enable-background="new 0 0 283.5 283.5" xml:space="preserve">
<metadata>
	<sfw  xmlns="&ns_sfw;">
		<slices></slices>
		<sliceSourceBounds  width="262.6" height="262.6" x="15" y="10.4" bottomLeftOrigin="true"></sliceSourceBounds>
	</sfw>
</metadata>
<g id="Calque_2">
	<circle fill="#DDA9CE" cx="146.3" cy="141.7" r="121"/>
</g>
<g id="Calque_1">
	<g>
		<path fill="#262425" d="M199,91.7c-3.3-3.4-7.2-6-11.5-7.8c-3.9-1.6-4.1-3.6-2.4-6.9c1.7-3.2,3.6-6.4,5.6-9.4
			c8.9-13,20.1-22.4,33.1-28.6c-2.7-1.3-5.2-2.9-7.4-4.5c-0.8,0.4-1.5,0.8-2.3,1.2c-7.6,4.4-14.1,10.1-20.5,16
			c-7.5,8.1-14.1,16.9-19.6,26.4l-1.9,0.3c-1.4,0.9-2.9,0.4-4.4,0.3c-10.8-1-21.5-0.7-32.1,2c-5.9,1.5-6.6,1.1-10-4.2
			c-0.8-1.3-1.4-2.6-2.4-3.8c-4.2-7-9.3-13.2-14.6-19.4c-4.2-4.7-9.5-8.2-13.4-13.2c-0.4-1-1.2-1.4-2.2-1.7c-3.8-2-7.5-4.2-11.3-6.3
			c-2,1.6-4.3,2.6-6.9,3.5c-0.2,0.1-0.4,0.1-0.6,0.2c2.8,1.4,5.4,3,7.8,5.3c1,0.8,1.9,1.9,3.4,2.1c0.9,0.1,1.5,0.5,2.2,1
			c12.1,8.7,21.2,20,28.7,32.6c1.4,2.4,3.4,5,1.9,8.3c0,0.7,0,1.4,0,2c0.2,1.2-0.5,2-1.4,2.4c-7.5,3.8-12.9,9.7-17.6,16.5
			c-9.7,13.8-13.3,29-11.8,45.7c1.2,12.7,6.5,23.5,13.6,33.8c3.1,4.5,2.4,7-1,11.2c-2.5,3.2-6.4,4.1-9.2,6.6
			c-0.2,1.2,0.7,1.6,1.4,2.2c0.7,0.4,1.4,0.9,2,1.6c0.9,1.2,1.6,2.5,2.7,3.6c1.5,1.3,3.9,1.2,4.8,3.4c1.7,2.2,4.1,3.5,6.8,4
			c1.7,0.2,3.1,1,4.6,1.7c8.2,3.8,16.8,6,25.6,7.8c10.7,2.2,21.1,0.5,31.6-1.4c5.4-1.6,9.9-5.1,15.1-7.1c2.8-1.1,4.9-2.5,5.9-5.3
			c0.2-0.5,0.3-1,0.2-1.5c-0.2-1-0.6-2.1-1.6-2.4c-6.4-2.3-7.2-7.4-6.5-13.2c0.4-3.1-1.7-3-3.7-3.1c-3.7,1-4.9,4.2-6.4,7.1
			c-1.1,2-3.1,2.5-5,3c-7.2,1.7-14.4,1.8-21.6,0.1c-2.4-0.6-4.9-1.1-6.6-3.1c-1-1.2-2.1-2.2-3.3-3c-9.7-6.2-16.4-14.8-20.2-25.6
			c-0.4-1.2-0.8-2.6-2.2-3.1c-1.1,0.2-0.8-0.7-0.9-1.2c-2.3-11.7-1.8-23.4,1.1-34.9c1.7-6.8,3.8-13.4,8.6-18.7
			c2.9-1.8,4.4-4.8,6.5-7.3c3.4-4,7.3-7.4,11.8-10.1c1-0.6,2-1.3,2.8-2.2c0.6-0.6,1.1-1.3,1.9-1.6c11.6-3.9,23.4-4.2,35.3-1.8
			c3.1,0.6,6.5,1.6,8.8,4.4c0.3,0.6,1,0.8,1,1.5c-0.5,0-0.8-0.4-1.2-0.6c-2.5-0.8-5-3.8-7.5,0.1c0,0.5,0,1,0.2,1.4
			c2.5,5.3,7.1,6.7,12.4,6.5c2.5-0.1,6,1.1,7.1-2c1-2.9,0.3-6.3-1.7-9C200.2,92.8,199.6,92.3,199,91.7z"/>
		<path fill="#050304" d="M91.1,201.3c-4.6,0.8-9.2,2.1-13.7,3.5c-11.7,3.9-22.8,8.9-33.4,14.8c4.7,4.3,8.9,9.2,13.1,14.1
			c2.9-2,5.5-2.6,8.4,0.3c1.5,0.2,3,0.4,3.7-1.3c-3.5-4.9-3.5-4.9,1.6-8.6c0.7-0.5,1.4-0.9,2-1.4c7-4.9,7-4.9,12.7,0.7
			c1.6-0.8,1.5-2.3,1.4-3.8c-2.5-3.8-1.6-6.4,2.5-8.5c2.1-1.1,4.3-2.5,5.5-4.8c-0.4-1.1-1.4-1.2-2.3-1.3c-3.2-0.6-5,2-7.4,3.2
			c-1.4,0.7-2.8,2.5-4.8,0.6c3.1-2.9,7.9-1.5,10.5-4.8c1.4-0.8,2.9-1.7,4.3-2.5c8.1-4.4,9.8-10.3,5.4-18.1c-3.4-6-7.9-11.4-9.8-18.3
			c-3-10.9-4-21.8-1.9-32.9c3.4-17.5,11.8-31.7,27.3-41.3c1.2-0.7,3.5-1.3,1.8-3.6c-0.3,0.4-0.6,0.9-0.9,1.1
			c-23.1,12.2-37.1,46-28.4,74.8c2.5,8.2,6.7,15.2,11.3,22.1c2.1,3.1,3,6.4,0.6,9.6C98.3,198.1,95.4,200.5,91.1,201.3z"/>
		<path fill="#050305" d="M194.5,215.9c2.6,0.5,3.9,1.9,3.6,4.7c0.6,0.4,1.3,0.5,2,0.4c2-0.9,3.9-1.5,6.1-0.3
			c4.3,2.3,8.8,4.4,13.1,6.8c2.8,1.6,4,3.7,3.2,6.8c0.2,0.7,0.6,1.2,1.4,1.4c3.2-3.2,5.8-1.6,8.3,0.4c1.1-0.5,2.2-1.1,3.3-1.6
			c0.1-0.1,0.3-0.1,0.4-0.2c-13-9.5-27.6-17.2-43.8-23.2c-0.8,0.5-0.3,1.6-1,2.1l0,0c-0.4,0.4-0.4,0.8-0.1,1.2
			C192,215.3,193.3,215.6,194.5,215.9z"/>
		<path fill="#080A18" d="M192.1,211.1c0,0.8-0.2,1.6-1,2.1c0-1.7-1-3-2.3-3.5c-5.5-2-6.3-6.3-5.7-11.2c0.3-2.6-0.8-3.7-3-4.2
			c0.6-2.1,2.4-2.3,4-2.9c2.7-0.5,5.5-1,7.8-2.7c0.7-0.5,1.4-1.1,1.4-1.9c-0.1-1.4-1.3-1.2-2.2-1.4c-5.3-1-10.7-1.8-15.9-3.4
			c-5.7-1.4-11.4-2.6-17.2-3c-6.6-0.4-13.9-1.6-17.6,6.6c-0.7,1.5-2.2,1.2-3.1-0.3c-2.2-3.5,0.8-12.1,4.6-13.5
			c1.4-0.5,2.6-0.5,3.4,1c0.1,0.7-0.1,1.3-0.6,1.8c0.5,0.3,0.8-0.3,1.2-0.4c7.2-2.6,14.4-1.1,21.6,0c2.3,0.8,4.7,0.8,6.9,1.5
			c7.5,2,15.1,3.7,22.8,4.8c6.6,0.9,12.6-0.5,18.1-3.7c2.8-1.6,5.2-3.8,3.3-7.7c-2.2-3.6-5.4-6.2-8.5-9c-2.3-2.1-4.3-2.1-7-0.1
			c-10.7,8.2-21.7,5.9-28.3-5.8c-1.4-2.5-2.8-4.9-4.8-6.9c-1.1-1.1-2.7-2.6-1-4.2c1.5-1.4,3.1-0.3,4.5,0.7c1,0.8,2,1.8,2.9,2.7
			c1.4,1.7,2.2,3.7,3.3,5.6c4.8,8.4,15.6,9.3,21.9,1.9c1.2-1.4,1.6-3.8,4.1-4c1.3,0.6,0.2,2.4,1.4,3.1c5.8,3.6,11,7.8,14.9,13.5
			c3,4.3,2.6,7.8-1.3,11.3c-5.1,4.6-11.5,6.1-18.1,6.8c-2.5,0.3-3.9,1.1-5.1,3.5c-1.7,3.6-5.1,5.3-9,6.2c-2.2,0.5-5.1,0.7-4.7,4.3
			c0.3,3.4-0.2,7,3.8,8.8C189.5,208.5,192,208.4,192.1,211.1z"/>
		<path fill="#06060C" d="M207.4,153.1c-1.6-0.6-1.2-2.1-1.5-3.3c-1.7-2.8-1.5-6.2-3-9c-4-8.5-11-14-19.1-18.2
			c-5.4-2.7-5.7-3.1-4.3-8.7c0.3-1.3,0.7-2.5,0.6-3.9c-0.3-4.9,0.1-5.3,4.7-2.9c5.9,3,12.5,3.1,18.8,4.3c0.8,0.2,1.8,0.2,2.2-0.6
			c0.6-1,0-1.9-0.6-2.7c-1.3-1.7-3.2-2.3-5.2-2.5c-3.8-0.2-7.7,0.3-11.5-0.5c-2.9-1.8-7.5-2.6-5.1-7.9c3.7,6.6,9.9,6.1,16.1,5.9
			c2.4-0.1,2.7-1.4,2.6-3.3c-0.2-3.7-1.8-6.8-4.7-8.9c-3.3-2.4-6.7-5-10.4-6.6c-3.7-1.6-4.4-3.7-2.7-6.9c1.8-3.5,3.9-6.9,5.9-10.3
			c0.9-0.2,1.4-0.1,1,1c-1.9,3.4-3.8,6.8-5.7,10.2c-1.2,2.2-0.6,3.6,1.7,4.5c5.1,2,10.2,4.6,13.1,9.2c3.3,5.3,6.2,10.9,9.4,16.3
			c2.1,3.5,2,9.1,3.5,13.6c0.3,0.9,0.5,2.3,0.1,2.9c-3.9,4.6-1.7,10.8-4.2,15.9C207.3,144.2,209.1,149.1,207.4,153.1z"/>
		<path fill="#070609" d="M82.4,31.6c-0.4,0.4-0.8,0.7-1.2,1c3.8,2.2,7.1,5.6,11.8,5.8C89.5,35.9,86,33.6,82.4,31.6z"/>
		<path fill="#070609" d="M79.4,38c-1.5-0.8-2.9-1.5-4.4-2.2c-0.1,0-0.1,0-0.2,0.1c-2,0.8-3.6,0.2-4.7-0.9c-0.2,0-0.5,0.1-0.7,0.1
			c4.3,1.8,8.5,3.9,12.6,6.2C82.9,38.7,80.6,38.6,79.4,38z"/>
		<path fill="#0A090A" d="M222.9,38.6c-4.8,2.4-9.4,5.3-13.8,8.7c-7.4,5.6-14.5,11.7-19,20c0.3,0.3,0.6,0.6,1,1
			c8.7-12.8,20.2-22.2,33.8-28.7C224.2,39.2,223.5,38.9,222.9,38.6z"/>
		<path fill="#050304" d="M85.4,43.3c6.3,1.5,10.5,6.1,14.5,10.6c7.9,8.6,15.6,17.5,19.4,28.9c0.3,1,2.2,3-1.1,2.5
			c-0.4-6.6-4.7-11.3-8.1-16.4C103.4,58.8,94.9,50.6,85.4,43.3z"/>
		<path fill="#0E0D0D" d="M172,78.4c-0.1,1-0.6,1.2-1.6,1.2c-12.5-0.4-25.1-1.3-37.4,2.5c-3.8,1.2-5.7-1.9-7.6-4.3
			c-1.3-1.7-2.2-3.7-3.3-5.5c0.3-0.4,0.4-0.9,1-1c0.3,0.4,0.7,0.7,0.9,1.1c4.8,8.4,4.9,8.5,14,6.8C149.3,77.1,160.6,76.5,172,78.4z"
			/>
		<path fill="#090909" d="M123.1,71.2c-0.3,0.3-0.7,0.7-1,1c-6.8-10.5-14.7-20.2-24.5-28.1c-1.1-0.9-3.5-1.5-2.4-3.9
			C106.5,48.7,115.8,59.1,123.1,71.2z"/>
		<path fill="#0C0B0C" d="M194.1,52.2c-7.1,8.2-14.1,16.5-19.3,26.2c0,0.1-0.3,0.1-0.5,0c-0.1-0.1-0.2-0.2-0.4-0.3
			c4.4-10.9,12.1-19.6,20-28C194.7,50.8,194.6,51.5,194.1,52.2z"/>
		<path fill="#0F0E0F" d="M194.1,52.2c0-0.7,0-1.4-0.1-2.2c6.1-5.3,12-10.8,19.1-14.7c0.5,0.1,0.8,0.4,1,0.9
			C207.1,41.1,200.3,46.4,194.1,52.2z"/>
		<path fill="#080708" d="M215.7,34c-0.8,0.5-1.7,1-2.6,1.4c0.3,0.3,0.7,0.6,1,0.9c1-0.4,2-0.8,3-1.3
			C216.6,34.7,216.1,34.3,215.7,34z"/>
		<path fill="#C89845" d="M201,104.4c2.2-0.1,3.8,0.9,5.2,2.4c1.3,1.5,2.5,3.5,1.6,5.4c-1.1,2.4-3.1,0.6-4.8,0.3
			c-7.7-1.3-15.8-1-22.8-6.5c3,3.5,1.4,6.5,0,9.5c-1.2,2.7-0.4,4.3,2.6,5.5c9.2,3.9,16.8,9.8,21.2,19.1c-0.3,1.3,0,2.7,0.2,3.9
			c1.3,7-1.4,12.1-7.8,14.5c-7.2,2.6-13,0.5-16.5-5.9c-1.1-2-1.3-4.5-3.9-5.5c-2.1-1.5-3.5-4.4-7.9-3.4c6,3.8,7.6,10,11.4,14.6
			c5.2,6.5,16.8,6.9,23.5,0.2c3-3,4.9-2.4,7.4-0.3c3.5,3,7.2,5.9,9.7,9.9c1.3,4-0.4,6.8-3.8,8.7c-6.1,3.4-12.5,4.8-19.6,3.9
			c-7.6-0.9-14.8-3.7-22.5-3.8c-2-0.7-4.4-0.3-6.3-1.7c-6-2.4-12.3-1.6-18.4-1.5c-1.5,0-2.9,0.6-4.2-0.6c-1.1-2.4-2.4-1-3.4,0
			c-3.7,3.6-4.8,7.9-2.9,13.3c1.1-10.5,9.2-8.9,15.6-9.1c7.4-0.2,14.8,1.3,21.9,3.6c3.2,2.3,7.2,2.2,10.8,3.2
			c2.4,0.6,5.8,0.8,5.8,3.5c0,2.7-3.6,2.6-5.9,3.5c-1,0.4-2.3-0.4-2.9,1.1c-1.4,0.7-2.7,1.4-4.1,2.1c-2.6,1.4-4.1,3.7-5.1,6.3
			c-2.5,3.4-6.5,4-10.1,4.4c-9,1.2-18,1.7-25.8-4.4c-12.4-7.3-20.4-18.1-25.1-31.6c-3.7-7.4-2.9-15.4-2.3-23
			c0.8-10.6,3.6-20.9,9.2-30.2c0.6-1,0.9-2.2,2.2-2.6c2-2.4,3.9-4.8,5.9-7.2c3.1-1.4,3.5,1.7,4.9,3c0.8,0.6,0.9,1.5,0.9,2.4
			c-0.3,3.5-2.8,5.9-4.2,8.9c-2.1,4.6-1,8.4,2,11.9c4.7,5.5,16.2,7.1,22.8,3.3c0.8-1.3,2-1.9,3.4-2.1c2.1,0.5,5.1-2.7,6.1,0.2
			c0.8,2.4-2,4.5-4,6.2c-1.2,1-3.2,1.1-3.7,3c-0.4,0.5-0.9,0.9-1.6,1c7.7-1.2,13.4-7.6,13.3-15c-0.4-1.1-1.1-2-1.3-3.1
			c1.6-5.2,2-10.3-1.9-14.9c-2.2-2.6,0.6-4.6,0.7-6.9c0.2-2.2,2.2-3.9,2-6.3c0.1-1.9-0.6-3.8,0.3-5.7c3.3-3.9,7.1-0.7,10.7-0.8
			c2.6,0.8,5.4,1.5,3.7,5.3c0.1,0.2,0.1,0.4,0.2,0.6c-0.8,4,2.7,5,4.9,6.8C192.5,105.5,196.7,105,201,104.4z"/>
		<path fill="#F8DF5F" d="M200.3,251.9c0.5,0,0.9,0,1.4-0.1c3.3-1.7,6.6-3.5,9.9-5.2c0.2-0.8,0-1.7-0.4-2.6
			c-4.4-9.5-10.4-17.7-18.9-24c-1.1-0.8-2.3-1.4-3.7-1.1c-1.5,0.4-2.8,1-4.1,1.8c-11.8,6.7-24.4,9.3-37.8,8.2
			c-9.1-0.7-18.2-1.6-26.4-6.1c-3.9-2.2-7.7-4.5-12.1-5.6c-2.3-0.9-4.3-2.2-6.1-3.9c-1.6-2.4-3.7-1.8-5.6-0.6
			c-2.6,1.5-4.8,3.6-6.5,6.1c-3.5,5.2-3.4,5.8,2.5,7c10.2,2.1,17.6,12.3,16.4,20.7c-0.5,3.8,1,5.7,4.9,5.4c10.8,0,21.1,3.7,32,4.2
			c13.8,0.7,27.4,1.2,41.1-1.8C191.1,253.3,195.6,251.8,200.3,251.9z"/>
		<path fill="#120E13" d="M172.1,226c2.1,0.2,3.8-1,5.6-1.6c3.9-1.4,7.1-4.3,11.3-5c10.6,6.1,16.5,16.1,21.8,26.5
			c0.2,0.4,0.1,0.8-0.1,1.1c1.2-0.6,2.4-1.3,3.6-1.9c-1.5-6.1-6.1-10.7-9-16.3c6.7,2.9,12,7.2,16.4,12.5c1.6-0.8,3.1-1.6,4.7-2.4
			c-0.8-1.2-1.7-2.4-2.5-3.7c-0.3-0.3-0.6-0.7-0.9-1c-6.5-4.9-12.9-10-21.1-11.9c-1.2-0.3-1.4-1.3-2-2.1c-0.7,0-1.3,0-2,0
			c-2.5-1.5-5.2-2.9-6.7-5.6c0-0.5-0.1-0.9-0.1-1.4c-1.9,2.7-4.6,4.1-7.5,5.4c-4.3,1.9-8.4,4.3-12.6,6.6
			C171.3,225.6,171.6,225.8,172.1,226z"/>
		<path fill="#CE9D46" d="M141,96.2c0.7-0.5,1.4-1.1,2.1-1.6c4.8-4,10.8-4.1,16.6-4.9c2.3,0.6,5-0.2,6.6,2.4
			c-0.7,4.1-3.9,4.7-7.2,5.4c-4.7,0.2-9,2-13.7,2.5c-1,0.1-2,0.4-2.9,0.4c-1.3-0.1-2.9,0.1-3.3-1.5C138.8,97.5,140.6,97.2,141,96.2z
			"/>
		<path fill="#0B0A18" d="M171,225.2c0.4,0,0.8,0.1,1.2,0.1c-3.1,3.7-7.8,3.4-11.7,3.7c-13.5,1.1-26.8,0-39.6-4.9
			c-0.6-0.2-1.2-0.5-1.7-1c-3.7-2-7.3-4-11-5.9c4.6-0.9,8,2.4,11.7,3.8c14.4,5.5,29,7.9,44.3,5C166.4,225.5,168.6,225.3,171,225.2z"
			/>
		<path fill="#0E101F" d="M123.1,113.4c-9.8,17.5-14,35.9-9.1,55.8c0,0.2,0,0.4-0.1,0.5c-0.2,0.2-0.4,0.4-0.6,0.6
			c-0.7-2.3-1.9-4.6-2-7c-1.2-16.7,0.1-33,9-47.7C120.8,114.7,120.7,112,123.1,113.4z"/>
		<path fill="#121422" d="M160.1,90.4c-5.9,0.5-11.7,1.3-17,4.2c2.4-5.3,8-4,12.1-5.1c8-2.1,16.5-1.3,24.6,0c4,0.6,9,1.1,11.3,5.8
			c-4.3,0.7-7.4-2.8-11.5-3C173.3,89.7,166.5,92,160.1,90.4z"/>
		<path fill="#ADE2EC" d="M86.1,219.2c-2.8-3.1-3.5-5.7,1.2-7.9c2.7-1.3,4.8-3.8,7.7-4.9c0.7,1.3,1.4,2.6,2.2,3.9
			c-1.8,3.9-6.2,5.1-8.5,8.4C87.9,219.2,87.1,219.8,86.1,219.2z"/>
		<path fill="#C89845" d="M141,96.2c1.6,1.6-1.3,1.5-0.7,3c6.4,0.4,12.6-2.9,19.2-2.8c-0.7,2.1-2.6,2.3-4.3,2.8
			c-3.2,0.9-6.4,1.6-9.6,2.1c-5.2,0.9-9.8,2.8-12.5,7.8c-1.4-1-2.7-1.9-4.1-2.9C132.5,102.3,136.1,98.4,141,96.2z"/>
		<path fill="#B1E4EB" d="M92.7,205.1c-2.5,1.6-5,3.1-7.4,4.7c-4.1,2.7-4.1,2.7-6.7-2c3.9-2,8.2-2.8,12.4-3.7
			C91.6,204.3,92.5,204.1,92.7,205.1z"/>
		<path fill="#090C1D" d="M139.1,200.8c12,6,23.9,6.6,35.9-0.1c-1.6,4.9-6.4,4.7-9.9,5.2c-7.4,1-14.9,1-22-1.8
			C141.4,203.5,139.5,203,139.1,200.8z"/>
		<path fill="#050304" d="M88.1,218.4c2.3-3.6,5.5-6,9.1-8.1c1.5,1.1,4.7-0.4,4.8,3c-3.1-2.1-5,0.2-7.1,1.9
			c-1.5,1.2-2.7,2.7-4.1,4.1C89.6,220,88.5,220.4,88.1,218.4z"/>
		<path fill="#C89845" d="M180.1,92.2c4.1-0.7,7.4,1.7,10.9,3c0.9,1.3,2.9,1.5,3.4,3.5c-2.7-0.1-5-1.1-7.1-2.4
			c-1.6-1-2.9-1.2-4.2,0.4c0.8-3.5-2.6-3.1-4.1-4.4C179.3,91.9,179.7,91.8,180.1,92.2z"/>
		<path fill="#161113" d="M64.4,241.6c4.7-5.4,10.2-9.7,16.9-12.3c11.8-4.6,23.9,3.4,24.4,16.1c0.1,1.8-0.1,3.7,0.8,5.4
			c6.6,4.3,14,5.5,21.7,5.5c1-0.4,2.3-0.7,1.9-2.3c-5.5-1.9-11.2-2.9-17-3.1c-2.7-0.1-3.5-1.4-3.1-4.1c0.7-5.8-1.5-10.8-5.1-15.1
			c-4.2-5-9.9-7.5-16.3-7.9c-0.1-2.3,2-2.9,2.3-4.6c-1,0-2,0.2-2.7-0.8c-0.7,0.3-1.4,0.5-2,0.8c-0.2,1.4,0.4,3-1.1,4.1
			c-6.7,0.3-12.5,2.3-16.1,8.6c-0.6,2-2.3,1.3-3.7,1.4c-1.7,1.3-3.2,2.8-4.6,4.4C61.8,239,63.1,240.3,64.4,241.6z"/>
		<path fill="#A1D3E0" d="M54.4,230.5c0.2-0.2,0.4-0.3,0.6-0.5c1.7-1.3,4.6-2,3.1-5.1c-2.3-4.7-4.2-5.7-8.2-4.3
			c-0.9,0.3-1.7,1.1-2.8,0.7c-0.3,0.1-0.5,0.3-0.8,0.4C49.1,224.6,51.7,227.5,54.4,230.5z"/>
		<path fill="#A5D7E3" d="M55.7,216.8c5.7-3.3,11.8-5.2,17.5-7.7c3.5-1.5,3.9,1.6,5.2,3c2,2.2-0.6,2.8-1.7,3.6
			c-3.7,2.8-7.6,5.4-11.3,8.2c-2.1,1.6-3.5,2-5-0.7C59.1,221,57.4,219,55.7,216.8z"/>
		<path fill="#A7DAE5" d="M85,223.2c-5.7,2.3-11.7,3.9-16.1,8.6c-3,1.2-3.2-1.6-4.2-3c-1.3-1.9,1-2,1.8-2.7c3.1-2.5,6.3-4.9,9.5-7.2
			C81.5,214.9,84,216.2,85,223.2z"/>
		<path fill="#B6EAF0" d="M58.4,235.2c1-0.5,2-1,3.1-1.4c-0.7,1-1.3,1.8-2,2.6c0.7,0.7,1.3,1.5,2,2.2c1.4-1.7,2.7-3.4,3.7-5.4
			c-2.1-3.8-4.5-4.2-7.7-1.1c-0.3,0.3-0.7,0.6-1,0.8C57.2,233.7,57.8,234.4,58.4,235.2z"/>
		<path fill="#B8EEF5" d="M48.8,221.9c4.3-2.8,6.8,0,8.4,3.2c1.5,3-1.6,3.5-3.3,4.9c0.3,0.4,0.7,0.8,1,1.1c1.3-0.9,2.6-1.7,3.9-2.5
			c1.1-0.7,1.7-1.3,1.1-2.8c-2.6-6.7-6.7-8.1-12.8-4.5C47.5,222,48.2,222.2,48.8,221.9z"/>
		<path fill="#A2D4E0" d="M225.4,239.4c2.6-1.3,5.2-2.6,7.8-3.8c-5.6-4.6-5.8-4.4-9.2-0.4c-0.2,0.6-0.8,1.5-0.6,1.7
			C224.1,237.8,224.7,238.6,225.4,239.4z"/>
		<path fill="#AADEE9" d="M223,234.2c-2,1.4-2.8-0.6-4-1.5c-5.5-4.4-11.3-8.4-18.6-9.4c-3.9-0.5-0.3-2.1-0.5-3.1
			c1.4-2,2.8-2.5,5.4-1.4c5.7,2.5,11,5.8,16.4,8.7C225.4,229.5,225.3,231.4,223,234.2z"/>
		<path fill="#B2E6ED" d="M197.9,220.2c-3.8,0-6.6-1.2-6.7-5.6c3-1.4,5.5,0.7,7.7,1.8C200.8,217.4,198.2,218.9,197.9,220.2z"/>
		<path fill="#C89845" d="M174.1,177c1.5-1.3,3.1-0.7,4.7-0.4c6.3,1.2,12.6,2.6,18.9,3.5c5.7,0.8,11.2-0.6,16.4-2.9
			c3.8-1.7,6.3-4.4,5.9-8.9c2.2,4.8,1,7.6-4.6,10.4c-7.5,3.7-15.3,4.2-23.3,2.5C186,179.8,180.1,178.4,174.1,177z"/>
		<path fill="#C89845" d="M176,147.3c3.3-0.4,3.4,2.3,4.2,4.3c1.8,4.1,7.1,7.8,10.8,7.6c5.5-0.3,11.1-4.4,12.5-9
			c0.5-1.7,0.6-3.2,0-4.9c-0.6-1.7-1.2-3.5,0.4-5.1c1.6,3,1.7,6.3,1.8,9.6c-2.1,5.2-5.5,8.8-11.1,10.2c-7.6,2-12,0-16.1-7.5
			C177.7,150.8,176.9,149,176,147.3z"/>
		<path fill="#C89845" d="M184.2,192.3c-0.3-0.3-2.3-0.2-0.5-1.1c2.7-1.4,6.1-1.1,8.9-3.1c-3.1-3.9-7.8-3.2-11.6-4.7
			c-1.6-0.7-3.3-1.1-5-1.6c0,0,0-0.3,0.1-0.4c0.1-0.1,0.2-0.2,0.3-0.4c5.5,1.1,11,2.2,16.5,3.3c1.1,0.2,2.7-0.1,2.8,1.4
			c0.1,1-0.7,2.2-1.5,3C191.5,191.5,187.9,192.2,184.2,192.3z"/>
		<path fill="#C89845" d="M145.2,173.3c7.7,0.1,15.5-0.7,23.1,1c0.2,0.1,0.4,0.3,0.7,0.4c-0.4,0.2-0.8,0.5-1.1,0.7
			c-8.2-0.9-16.4-2.5-24.5,0.9C143.1,174.5,144.9,174.4,145.2,173.3z"/>
		<path fill="#FCFCFB" d="M211.1,123.3c-0.3,3.6-1.8,6.2-5,7.6c-2.8,1.2-4.9,0.3-6.9-1.9c-3.7-4-8.2-7.2-13.2-9.5
			c-2.7-1.2-3.5-2.6-2.5-5.3c1-2.8,2.6-1.7,4.7-1.3c5.6,1.3,11.3,2.3,17,3.1C209.6,116.6,210.1,120.1,211.1,123.3z"/>
		<path fill="#C89845" d="M201,104.4c-4.2,2.3-8.6,0.9-12.9,0.6c0,0-0.1-0.3-0.1-0.4c0-0.2,0.2-0.3,0.2-0.4
			C192.5,104.2,196.7,104.3,201,104.4z"/>
		<path fill="#C89845" d="M206.6,138.5c-0.8-1.7-2.7-2.5-1.7-4.3c0.4-0.7,1.9-1.4,2.6-0.5C208.6,135.1,208.3,136.7,206.6,138.5z"/>
		<path fill="#04040B" d="M167.1,103.9c0.3,0.3,0.7,0.6,1,1c-3.4,3.1-1.2,5.5,0.6,8.5c2.5,4.2,1.4,8.6-0.5,12.9
			c-1,4.9-4.8,6.8-9,8.2c-1.1,0.6-2.2,1.1-3.3,1.7c-7.2,3.9-14.5,2.9-21.1-1.1c-8.1-4.9-7.5-16.3,0.9-21.5c3.7-2.3,7.7-4.2,12-4.4
			c6.1-0.3,11.8-1.6,17-4.8C165.4,103.9,166.2,103.7,167.1,103.9z"/>
		<path fill="#1F1F24" d="M133.1,109.1c-0.7-4.6,3-5.8,6.1-7.3c4.7-2.2,9.9-2.2,14.8-3.6c1.9-0.5,3.7-1.2,5.6-1.8
			c2.7-0.6,4.8-2,6.6-4.1c1.5-1.1,2.3-0.2,2.9,1.1c0.4,1.6,0.8,3.3,0.2,4.9c-1.8,5.3-6.6,6.1-11.1,7.1c-6,1.3-12.3,1.3-18,3.9
			c-1.9,0.9-3.5,2.8-6,1.6C133.8,110.3,133.5,109.7,133.1,109.1z"/>
		<path fill="#C89845" d="M134.2,110.9c7.2-4.4,15.3-5.7,23.5-6.7c4.5-0.5,8.7-2,11.5-5.9c1.4,2.7-1.7,3.6-2.1,5.7
			c-4.6,4.4-10.3,5.8-16.4,6.3c-5.4,0.5-10.4,1.8-15,4.6c-4.5,2.8-5.9,6.8-5.6,11.7c0.3,4.9,3.5,7.9,7.7,9.3
			c5,1.8,10.3,2.9,15.6,0.4c0.7-0.3,1.6-0.2,2.5-0.2c1.4,1.6-0.3,2.3-1,2.4c-6.4,0.6-12.8,1.1-18.9-1.8c-7.4-3.5-9.9-12.6-4.9-19.7
			C132.4,115,133.1,112.9,134.2,110.9z"/>
		<path fill="#0C0B1D" d="M170,128.7c1.7,8.5-8.4,17.8-17.5,16.2c0.7-2.7,3.8-0.6,4.8-2.5c4.6-3.1,8.7-6.6,10.1-12.4
			C167.5,129.1,168.2,127.3,170,128.7z"/>
		<path fill="#C89845" d="M170,128.7c-2.6,0.9-1.7,3.6-2.9,5.3c-2.6,3.7-5.3,7-9.8,8.3c1.1-3.9,6.8-3.9,6.7-8.7
			c-1.5-1-2.9,2.7-4.9,0.8c3.6-2.1,6.6-4.9,9-8.2C169.2,126.7,169.8,127.6,170,128.7z"/>
		<path fill="#C89845" d="M169,93.3c-1-0.4-1.9-0.7-2.9-1.1c-2-0.6-4-1.3-6-1.9c6.7,0,13.6-1.5,20,1.8c-0.4,0-0.7,0-1.1,0.1
			c-1.9-0.1-3.8-0.1-5.6-0.8C171.5,90.9,169.9,91.3,169,93.3z"/>
		<path fill="#262425" d="M201,251c-1.1-0.4-2,0-2.7,0.9c-8.5,3-17.3,4.6-26.2,4.9c-14.7,0.5-29.4,0.1-44.1-1.5
			c-7.3-0.4-14.3-2.1-21-5.1c-3.8,1.9-3.9,6.2-6.1,9.2c-0.5,0.7-1,1.4-1.5,2.1c7.4,2,15.1,3,23.2,3c3.9,0,5.5,3.8,4.6,6.7h39.4
			c-0.5-1.9,0.1-4.2,2.2-5.7c4.1-3,9.1-4.2,14-5.4c6-1.5,11.2-4.2,16.7-7.1c3.1-1.6,6.2-3.3,9.3-4.9C206.2,249,203.6,250,201,251z"
			/>
		<path fill="#FAF668" d="M201,251c-0.7,0.4-1.4,0.8-2.2,1.1c-7.5,3.5-15.7,4.5-23.6,4.9c-13.3,0.7-26.8,0.8-40.1-0.8
			c-1.8-0.2-3.6-0.7-5.1-1.8c-5.6-1.2-11.3-2.3-16.9-3.5c4.6-2.2,8.9,0.2,13.1,1c18.3,3.6,36.8,4.5,55.2,1.9
			c5-0.7,10.5-0.8,15.4-3.4C198,249.9,199.7,249.8,201,251z"/>
		<path fill="#F5F067" d="M119.1,223.1c12.8,4,25.9,6.3,39.3,5.1c4.7-0.4,9.4-0.9,13.7-2.9c4.7-0.6,8.5-3.5,12.7-5.4
			c1.4-0.6,2.5-2.3,4.2-0.5c-14.8,9.5-30.8,12.7-48.3,10.2c-6.4-0.9-12.6-2.2-18.7-4.1C120.7,225,119.5,224.6,119.1,223.1z"/>
		<path fill="#49535C" d="M223,240.6c-1.8-2.2-3.8-4.3-6.1-6.2c-4.2-3.6-9-6.1-14.4-7.6c4.1,6.1,8.3,12,10.9,18.7
			C216.6,243.9,219.8,242.3,223,240.6z"/>
		<path fill="#49535C" d="M75.5,250.8c8,5.1,16.4,8.7,25.2,11c2.3-3.8,4.5-7.6,6.3-11.6c0-1.3,0.1-2.7,0.1-4
			c0.1-14.5-14.4-23.7-27.6-17.8c-6.4,2.9-11.6,7.1-16.1,12.2C67,244.4,70.9,247.9,75.5,250.8z"/>
		<path fill="#A1D3E1" d="M60.5,237.4c0.3-0.3,0.5-0.6,0.8-0.9c0.9-1.1,2.6-2.2,1.1-3.7c-1.1-1.1-2.4-0.5-3.6,0.4
			c-0.4,0.3-0.9,0.6-1.3,0.9C58.5,235.2,59.5,236.3,60.5,237.4z"/>
		<path fill="#14121F" d="M130,254.4c23.1,3.3,46.1,3.5,68.8-2.3c-1.6,2.1-1.7,2.4-9.5,3.8c-20,3.6-40.1,3.3-60.2,0.1
			c-0.4-0.1-0.8-0.5-1.2-0.8C128.7,255,129.3,254.7,130,254.4z"/>
		<path fill="#0B0B0B" d="M205.6,126.3c-2.5,0-3.6-0.9-3.6-3c0-2,0.8-3.1,2.9-3.1c2,0,3.1,0.9,3.1,2.9
			C208.1,125.2,207,126.1,205.6,126.3z"/>
		<path fill="#FDFDFD" d="M167.2,119.4c0.3,4.2-2.2,7.6-5.7,10.3c-6.1,4.8-12.9,6.6-20.4,4.4c-3.9-1.1-7.4-2.9-8-7.7
			c-0.7-4.9,1.3-8.2,5.6-10.6c4.5-2.5,9.4-2.6,14.2-3.7c1.6-0.4,3.2-0.5,4.8-0.9C164,109.8,167.1,112.2,167.2,119.4z"/>
		<path fill="#0F0E0F" d="M155.8,126.3c-2.3-0.3-3.7-1.2-3.9-3.4c-0.2-2.4,0.7-3.8,3.3-3.9c2.2-0.1,3.5,1,3.8,3
			C159.3,124.5,157.4,125.4,155.8,126.3z"/>
	</g>
</g>
<g id="Calque_3">
	<path fill="#F0F1F2" d="M146.3,10.4C73.8,10.4,15,69.2,15,141.7S73.8,273,146.3,273s131.3-58.8,131.3-131.3S218.8,10.4,146.3,10.4z
		 M146.3,262.7c-66.8,0-121-54.2-121-121s54.2-121,121-121s121,54.2,121,121S213.2,262.7,146.3,262.7z"/>
</g>
</svg>
