<?xml version="1.0" encoding="utf-8"?>
<!-- Generator: Adobe Illustrator 16.0.0, SVG Export Plug-In . SVG Version: 6.00 Build 0)  -->
<!DOCTYPE svg PUBLIC "-//W3C//DTD SVG 1.1//EN" "http://www.w3.org/Graphics/SVG/1.1/DTD/svg11.dtd">
<svg version="1.1" id="Calque_1" xmlns="http://www.w3.org/2000/svg" xmlns:xlink="http://www.w3.org/1999/xlink" x="0px" y="0px"
	 width="283.46px" height="283.46px" viewBox="0 0 283.46 283.46" enable-background="new 0 0 283.46 283.46" xml:space="preserve">
<g>
	<defs>
		<rect id="SVGID_1_" width="283.46" height="283.46"/>
	</defs>
	<clipPath id="SVGID_2_">
		<use xlink:href="#SVGID_1_"  overflow="visible"/>
	</clipPath>
	<path clip-path="url(#SVGID_2_)" fill="#F6F6F6" d="M269.291,141.732c0,70.449-57.109,127.559-127.559,127.559
		S14.173,212.182,14.173,141.732S71.283,14.173,141.732,14.173S269.291,71.283,269.291,141.732"/>
	
		<circle clip-path="url(#SVGID_2_)" fill="none" stroke="#000000" stroke-width="2" stroke-miterlimit="10" cx="141.732" cy="141.732" r="127.559"/>
	<path clip-path="url(#SVGID_2_)" fill="#68A8DE" d="M262.205,141.732c0,66.535-53.938,120.472-120.473,120.472
		c-66.536,0-120.473-53.937-120.473-120.472S75.197,21.26,141.732,21.26C208.268,21.26,262.205,75.197,262.205,141.732"/>
	
		<circle clip-path="url(#SVGID_2_)" fill="none" stroke="#000000" stroke-width="2" stroke-miterlimit="10" cx="141.732" cy="141.732" r="120.473"/>
	<path clip-path="url(#SVGID_2_)" fill="#68A8DE" d="M262.205,141.732c0,66.535-53.938,120.472-120.473,120.472
		c-66.536,0-120.473-53.937-120.473-120.472S75.197,21.26,141.732,21.26C208.268,21.26,262.205,75.197,262.205,141.732"/>
	
		<circle clip-path="url(#SVGID_2_)" fill="none" stroke="#000000" stroke-width="2" stroke-miterlimit="10" cx="141.732" cy="141.732" r="120.473"/>
	<path clip-path="url(#SVGID_2_)" fill="#68A8DE" d="M262.205,141.732c0,66.535-53.938,120.472-120.473,120.472
		c-66.536,0-120.473-53.937-120.473-120.472S75.197,21.26,141.732,21.26C208.268,21.26,262.205,75.197,262.205,141.732"/>
	
		<circle clip-path="url(#SVGID_2_)" fill="none" stroke="#000000" stroke-width="2" stroke-miterlimit="10" cx="141.732" cy="141.732" r="120.473"/>
	<path clip-path="url(#SVGID_2_)" fill="#68A8DE" d="M262.205,141.732c0,66.535-53.938,120.472-120.473,120.472
		c-66.536,0-120.473-53.937-120.473-120.472S75.197,21.26,141.732,21.26C208.268,21.26,262.205,75.197,262.205,141.732"/>
	
		<circle clip-path="url(#SVGID_2_)" fill="none" stroke="#000000" stroke-width="2" stroke-miterlimit="10" cx="141.732" cy="141.732" r="120.473"/>
	<path clip-path="url(#SVGID_2_)" fill="#191814" d="M193.119,178.721c-4.862-3.106-10.161-5.26-14.674-9.25
		c-3.725-3.296-9.273-4.749-14.637-2.795c-3.079,1.122-3.997-0.483-4.816-2.911c-1.601-4.741-0.623-8.999,1.203-13.581
		c2.495-6.254,4.425-12.185,9.016-17.874c4.638-5.748,8.765-12.937,11.387-20.396c3.289-9.356,4.366-18.793-0.953-27.688
		c-7.938-13.277-33.432-27.204-52.378-16.905c-1.265,0.688-1.824-0.177-2.578-0.378c-16.166-4.319-31.392-2.068-46.079,5.816
		c-15.724,8.442-28.403,28.444-21.704,48.61c1.914,5.763,5.297,11.304,3.303,18.05c-0.549,1.858,1.053,4.472,2.946,6.324
		c4.956,4.848,4.953,12.966,0.545,18.106c-5.788,6.749-10.645,13.922-9.761,23.542c0.26,2.818-0.16,6.004,2.719,7.407
		c2.839,1.382,4.664-1.601,6.786-2.871c1.387-0.831,2.407-2.277,3.585-3.452c2.467-2.46,4.93-4.923,7.907-7.898
		c0.116,8.016,0.172,7.829,6.761,9.828c3.166,0.961,6.245,0.27,9.345,0.569c0.69,0.065,1.218-1.255,2.145,0.411
		c2.16,3.881,5.569,2.269,9.078,1.763c5.273-0.759,9.657-4.028,15.043-4.389c2.628-0.177,4.441,1.659,7.145,1.387
		c7.06-0.714,10.375,4.547,7.97,11.123c-1.871,5.115-6.011,10.037-2.495,16.119c0.545,0.943-0.451,2.146-0.746,3.224
		c-2.082,7.608-4.956,15.073-5.124,23.082c-0.046,2.199-1.102,2.063-2.724,2.384c-6.228,1.236-12.497,0.843-18.759,0.93
		c-4.691,0.063-7.835,1.77-9.418,4.994c0.628,0.277,1.255,0.555,1.889,0.82c0.496-0.741,1.215-1.396,2.266-1.938
		c3.355-1.729,6.819-1.997,10.439-1.896c2.486,0.07,4.975,0.014,7.707,0.014c-0.194,1.971-1.142,3.873,0.648,6.062h-15.319
		c2.275,0.822,4.583,1.575,6.92,2.261c1.01-1.451,4.267,0.213,6.167-0.248c1.688-0.409,3.461-0.107,5.204-0.949
		c1.313-0.634,2.572,0.415,2.872,1.933c0.411,2.071-1.064,1.967-2.439,1.946c-0.264-0.003-0.531-0.005-0.797-0.007
		c3.459,0.67,6.967,1.198,10.524,1.564c-2.024-0.843-4.824,0.138-5.087-3.186c-0.064-0.807,0.669-1.352,1.284-1.061
		c1.881,0.889,5.115,0.279,4.767,4.336c1.167,0.111,2.338,0.203,3.514,0.28c-1.912-5.441-6.809-7.131-12.416-7.877
		c-2.124-0.283-4.054-0.794-3.524-3.203c0.499-2.269,2.133-3.057,4.769-2.134c3.943,1.381,8.053,2.373,12.162,3.159
		c3.86,0.738,5.071,3.396,5.244,6.647c0.065,1.231,0.157,2.451,0.276,3.66c0.502,0.006,1.002,0.019,1.506,0.019
		c0.892,0,1.778-0.014,2.665-0.033c-4.448-9.618-8.5-19.132-11.89-28.945c-1.275-3.692,0.886-5.326,2.953-7.112
		c3.263-2.818,4.848-4.877,0.129-8.257c-5.206-3.729-4.548-14.116,0.464-18.929c0.768-0.738,1.455-0.911,2.069-0.187
		c1.361,1.606,4.536,1.429,4.163,4.821c-0.399,3.624-0.194,7.312-0.288,10.971c-0.421,16.262,2.657,31.944,6.732,47.464
		c0.755-0.043,1.51-0.086,2.261-0.143c-0.68-4.728,0.905-9.348,1.211-14.007c0.349-5.31,1.786-10.552,2.823-15.807
		c0.312-1.574,0.678-3.208,1.418-4.601c0.368-0.692,1.647-1.259,2.507-1.25c1.455,0.014,1.028,1.418,1.028,2.295
		c-0.004,9.856,0.403,19.646,3.867,29.045c0.38,1.029,0.051,1.891-0.407,2.72c0.793-0.144,1.583-0.295,2.37-0.454
		c5.451-14.404,10.613-28.899,13.765-44.033c2.291-11.003,2.059-21.916-1.397-32.754c-1.773-5.562-5.589-8.669-10.874-9.658
		c-2.462-0.462-5.065-0.869-4.766-3.238c0.227-1.794,3.318-2.074,6.14-2.139c3.648,0.675,7.639,2.016,10.915,5.102
		c8.697,8.193,12.382,18.938,15.281,30.047c2.411,9.241,2.319,9.276-5.473,14.69c-1.353,0.939-2.854,1.672-4.182,2.643
		c-2.373,1.736-3.216,3.855-0.979,6.296c4.214,4.598,4.637,9.211,1.843,15.034c-2.392,4.984-4.923,9.88-7.58,14.697
		c1.131-0.362,2.255-0.742,3.371-1.136c1.267-2.438,2.491-4.899,3.647-7.4c0.969-2.097,1.571-4.396,2.754-6.355
		c3.321-5.495,3.253-10.533-1.396-15.236c-1.878-1.898-1.276-3.232,0.808-4.613c2.885-1.911,5.408-4.414,8.402-6.104
		c2.945-1.662,3.127-3.622,2.502-6.596c-2.15-10.221-5.159-20.116-9.815-29.673c9.048,5.104,14.836,12.983,18.951,22.173
		c4.811,10.741,8.138,21.904,10.481,33.28c0.588-0.484,1.169-0.977,1.748-1.472c-2.11-10.159-5.022-20.109-8.986-29.809
		C207.016,193.876,202.292,184.579,193.119,178.721 M133.896,219.931c2.101,0.907,1.703,2.193,0.865,3.54
		c-0.605,0.97-1.451,1.847-2.347,2.57c-2.764,2.23-2.954,4.976-1.864,8.069c1.75,4.968,3.478,9.944,5.364,15.344
		c-10.577-1.738-10.548-1.733-8.948-11.482c0.912-5.557,2.527-10.923,4.264-16.253C131.574,220.665,131.799,219.023,133.896,219.931
		 M176.59,114.937c-1.658,2.962-2.921,6.152-5.376,8.919c-1.464-6.991-5.92-9.949-12.801-11.144c-3.302-0.573-6.15-3.944-9.1-6.186
		c-0.611-0.465-0.342-1.487,0.005-2.311c0.625-1.484,1.167-3.009,1.638-4.55c0.455-1.489-0.919-3.896,0.971-4.423
		c2.072-0.577,4.379-0.389,6.716,0.55c7.322,2.94,12.296,8.655,17.621,13.998C177.845,111.375,177.64,113.061,176.59,114.937
		 M148.734,126.176c1.28,1.881,2.864,3.555,4.129,5.444c3.114,4.65,1.311,8.378-4.31,9.232c-1.266,0.193-1.937-0.497-2.347-1.345
		c-2.46-5.086-4.706-10.279-7.278-15.306c-1.462-2.855-0.535-4.942,1.347-6.971c1.014-1.092,1.994-2.268,3.19-3.128
		c2.021-1.454,1.89-5.629,4.924-5.088c2.302,0.41,4.266,2.722,6.726,4.428c-2.429,1.181-4.185,2.24-5.827,3.653
		C145.839,120.061,146.612,123.06,148.734,126.176 M172.084,78.542c5.815,5.343,9.245,11.724,8.916,19.815
		c0,1.163-0.025,2.326,0.005,3.488c0.064,2.515-0.329,5.622-2.302,6.481c-1.479,0.645-2.691-2.765-4.167-4.036
		c-6.091-5.245-11.753-11.518-20.859-11.32c-1,0.021-2.818,0.527-2.574-1.282c0.366-2.717-3.618-5.372-0.296-7.933
		c5.233-4.033,11.158-6.442,17.852-6.779C170.157,76.899,171.068,77.609,172.084,78.542 M160.026,70.753
		c1.865,1.043,4.334,1.554,5.74,3.872c-5.912,1.708-11.796,3.184-16.515,7.296c-1.007,0.877-1.875,0.912-2.799-0.756
		c-1.007-1.815-2.671-3.645-4.501-4.548c-4.307-2.121-2.715-3.3-0.081-5.7C148.052,65.286,154.117,67.447,160.026,70.753
		 M145.479,66.207c-5.623,2.224-8.779,10.324-15.342,2.629C135.059,65.867,135.635,65.758,145.479,66.207 M63.786,142.323
		c-0.857-2.011-1.863-3.956-1.708-7.082c3.036,2.755,7.145,2.153,8.488,6.5c0.655,2.118,3.919,2.175,5.266,0.354
		c1.353-1.83,2.536-0.74,3.836-0.903c-0.038,0.215-0.029,0.365-0.09,0.477c-1.413,2.581-0.779,7.157-4.864,7.161
		C70.162,148.834,65.853,147.171,63.786,142.323 M74.66,150.564c-0.458,3.514-2.387,5.176-4.932,5.123
		c-1.031-0.022-2.288-2.532-1.644-4.087C69.859,147.312,72.491,153.181,74.66,150.564 M94.938,190.292
		c2.476-0.074,4.362-2.133,6.892-0.941C99.949,192.035,97.958,193.465,94.938,190.292 M106.982,189.909
		c-0.821,0.429-2.18,0.184-1.942-1.318c0.401-2.533,2.736-2.189,4.448-2.78c0.692-0.239,1.439-1.074,1.53,1.272
		C111.036,189.004,108.575,189.075,106.982,189.909 M115.603,186.933c-0.797,0.211-2.367,0.565-2.489-0.743
		c-0.376-4.033,3.663-3.28,5.565-5.103C119.584,184.274,118.461,186.176,115.603,186.933 M144.027,205.495
		c-0.188-1.415,0.836-1.562,1.896-1.47c3.858,0.337,6.392,3.848,4.969,7.34c-1.101,2.703-1.669,5.464-2.108,8.24
		C141.423,216.519,144.679,210.405,144.027,205.495 M153.176,230.739c-2.161,7.065-2.732,14.543-3.858,21.987
		c-3.157-10.587-4.86-21.401-5.425-32.819c2.904,0.502,5.945,5.19,7.409-0.641C154.247,222.839,154.527,226.32,153.176,230.739
		 M157.981,223.991c-1.639-0.032-6.065-7.741-5.901-10.275c0.212-3.295,2.088-4.868,5.97-4.701c3.986-0.822,5.873,1.474,5.882,5.385
		C163.939,218.341,160.157,224.034,157.981,223.991 M165.022,253.651c-1.935-12.167-6.371-24.302,0.563-36.311
		c2.321,7.313,2.321,7.313,11.358-0.294C174.21,229.868,170.146,241.87,165.022,253.651 M179.037,204.67
		c-0.02,6.248-2.457,10.73-7.967,13.954c-2.281,1.336-2.654,1.053-3.095-1.145c-0.185-0.926-0.509-1.891-1.02-2.673
		c-2.859-4.378-2.306-7.558,1.807-11.376c6.236-5.793,7.48-13.577,5.873-22.045C178.222,188.622,179.062,196.535,179.037,204.67
		 M171.728,186.147c1.939,1.797,0.56,5.365-0.307,7.79c-1.922,5.374-5.632,9.24-11.139,11.418c-3.051,1.207-5.308-0.362-7.77-1.297
		c-8.234-3.125-15.192-8.197-21.342-14.418c-1.939-1.962-3.701-3.766-6.799-1.891c-0.893,0.541-2.791,1-3.26-0.842
		c-0.538-2.114,1.207-1.702,2.482-1.941c4.808-0.904,7.986-4.864,12.329-6.713c4.849-2.063,8.041-6.284,11.888-9.648
		c0.654-0.572,0.867-0.955,0.464-1.998c-1.188-3.069-8.602-5.288-11.164-3.146c-0.253,0.212-0.72,0.593-0.676,0.675
		c2.842,5.335-2.708,5.041-4.755,6.497c-10.363,7.365-21.556,13.118-33.931,16.496c-6.101,1.666-12.093,2.337-18.288,0.88
		c-1.281-0.302-2.471-0.874-2.345-2.111c0.268-2.639-1.361-5.578,0.981-7.903c1.756-1.743,3.709-3.288,5.445-5.048
		c2.335-2.366,2.002-5.079,0.463-7.662c-1.619-2.717-4.38-2.969-6.814-1.803c-1.85,0.886-4.657,1.006-5.375,4.92
		c2.495-1.14,4.324-1.748,5.897-2.755c1.863-1.193,3.026-0.484,4.305,0.847c1.275,1.328,0.907,2.372,0.21,3.954
		c-1.87,4.244-6.128,5.893-9.199,8.73c-3.999,3.693-8.034,7.36-11.881,11.221c-1.095,1.098-2.665,2.495-3.69,1.99
		c-1.236-0.609-1.354-2.617-1.524-4.296c-1.078-10.631,5.216-17.972,11.584-24.896c5.793-6.299,12.098-12.068,14.429-20.654
		c0.737-2.713,2.634-1.287,4-1.475c1.302-0.178,2.404-0.364,3.233,1.804c2.656,6.951,9.518,11.07,15.391,9.889
		c11.78-2.369,16.478-7.067,17.436-17.062c0.144-1.5-0.726-3.363,1.699-4.065c0.699-0.203,1.917-1.228,0.823-2.277
		c-0.761-0.729-1.757-0.294-2.691,0.276c-8.791,5.366-18.564,7.146-28.626,8.565c-6.491,0.915-12.732,0.776-19.061-0.22
		c-8.783-1.381-11.466-5.94-15.144-16.91c-7.913-23.599,11.433-43.819,28.364-50.065c11.786-4.347,23.761-6.023,35.924-1.956
		c8.34,2.788,15.87,7.195,21.377,14.21c6.448,8.211,5.892,15.867-0.611,26.137c-0.869,1.372-1.685,2.948-2.937,3.877
		c-6.861,5.094-5.822,10.911-2.012,17.231c1.592,2.64,2.803,5.507,4.221,8.254c2.642,5.121,5.078,5.618,10.754,2.226
		c3.372-2.015,4.277-6.365,1.487-9.756c-1.985-2.415-3.403-5.218-5.476-7.475c-1.44-1.569-0.729-2.604-0.067-3.874
		c2.283-4.376,6.792-4.21,10.6-4.436c3.722-0.221,7.807,4.685,8.305,9.096c0.44,3.898,0.062,7.667-4.284,9.514
		c-2.44,1.037-3.755,2.417-3.845,5.513c-0.085,2.958-1.296,6.033-2.598,8.779c-4.469,9.419-1.745,17.861,3.528,25.737
		C164.622,178.387,167.817,182.523,171.728,186.147 M121.027,181.309c0.507-2.793,3.227-2.849,5.097-3.732
		c1.178-0.556,0.897,1.51,1.641,2.012c-1,2.178-2.565,3.471-5.092,3.433C121.425,183.002,120.799,182.562,121.027,181.309
		 M129.013,176.53c-0.144-2.465,2.215-2.536,3.556-3.348c1.089-0.659,1.911,0.644,2.441,1.736c-0.698,2.014-2.365,3.035-4.18,3.581
		C129.5,178.901,129.08,177.683,129.013,176.53 M139.533,169.043c1.256,2.557,0.188,4.288-1.969,5.661
		C135.189,171.805,135.396,169.782,139.533,169.043 M141.712,166.89c0.207-0.599,1.094-1.217,1.596-0.73
		c1.173,1.137,0.925,2.498,0.02,4.012C141.724,169.443,141.205,168.354,141.712,166.89 M91.421,141.111
		c0.88-1.342,2.262-1.194,3.56-1.095c2.477,0.189,4.8-0.546,7.192-0.92c1.456-0.227,3.765-1.796,4.324,1.683
		c0.279,1.737,2.462,1.158,3.901,1.214c1.356,0.054,2.135-0.721,2.569-1.903c1.564-4.258,1.558-4.26,6.626-6.159
		c0.704,6.597-3.977,13.306-10.74,15.746c-5.711,2.059-13.131,0.045-16.27-4.736C91.945,143.967,90.308,142.809,91.421,141.111"/>
	<path clip-path="url(#SVGID_2_)" fill="#191814" d="M195.418,242.555c0.262,2.226,0.525,4.446,0.765,6.666
		c0.709-0.359,1.412-0.729,2.113-1.103c-0.664-6.135-1.694-12.355-3.085-18.76C192.699,234.544,194.953,238.6,195.418,242.555"/>
	<path clip-path="url(#SVGID_2_)" fill="#F2CD16" d="M158.209,148.342c1.302-2.745,2.513-5.82,2.598-8.778
		c0.09-3.096,1.404-4.476,3.845-5.514c4.346-1.847,4.725-5.615,4.284-9.513c-0.498-4.411-4.583-9.317-8.305-9.096
		c-3.808,0.226-8.316,0.059-10.6,4.435c-0.662,1.271-1.373,2.306,0.067,3.875c2.072,2.256,3.49,5.06,5.476,7.474
		c2.79,3.392,1.885,7.742-1.487,9.757c-5.676,3.391-8.112,2.896-10.754-2.227c-1.418-2.746-2.63-5.614-4.221-8.253
		c-3.81-6.32-4.849-12.137,2.012-17.231c1.251-0.929,2.067-2.505,2.937-3.877c6.503-10.27,7.059-17.926,0.611-26.137
		c-5.507-7.015-13.038-11.423-21.377-14.211c-12.163-4.066-24.138-2.39-35.924,1.957c-16.931,6.245-36.277,26.466-28.364,50.065
		c3.678,10.97,6.361,15.528,15.144,16.91c6.329,0.995,12.57,1.134,19.061,0.219c10.062-1.418,19.835-3.198,28.626-8.564
		c0.934-0.57,1.93-1.005,2.691-0.276c1.094,1.049-0.124,2.074-0.823,2.276c-2.425,0.703-1.555,2.565-1.699,4.065
		c-0.958,9.995-5.656,14.693-17.436,17.063c-5.873,1.181-12.735-2.938-15.391-9.89c-0.829-2.167-1.931-1.981-3.233-1.803
		c-1.366,0.187-3.264-1.239-4,1.476c-2.331,8.586-8.636,14.354-14.429,20.653c-6.368,6.925-12.662,14.267-11.584,24.896
		c0.17,1.679,0.288,3.686,1.524,4.295c1.025,0.505,2.595-0.892,3.69-1.99c3.847-3.858,7.882-7.526,11.881-11.22
		c3.071-2.838,7.329-4.486,9.199-8.73c0.697-1.583,1.065-2.626-0.21-3.954c-1.28-1.331-2.442-2.04-4.305-0.847
		c-1.573,1.007-3.403,1.614-5.897,2.755c0.718-3.915,3.525-4.034,5.375-4.92c2.434-1.166,5.195-0.914,6.813,1.803
		c1.54,2.583,1.873,5.297-0.462,7.662c-1.736,1.761-3.69,3.306-5.445,5.048c-2.342,2.325-0.713,5.265-0.981,7.903
		c-0.126,1.237,1.064,1.81,2.345,2.111c6.195,1.457,12.187,0.786,18.288-0.879c12.375-3.379,23.568-9.131,33.931-16.497
		c2.047-1.456,7.597-1.162,4.755-6.497c-0.044-0.083,0.423-0.463,0.676-0.675c2.562-2.143,9.976,0.075,11.163,3.146
		c0.404,1.043,0.191,1.425-0.463,1.998c-3.847,3.364-7.039,7.585-11.888,9.648c-4.344,1.849-7.521,5.809-12.329,6.713
		c-1.275,0.238-3.02-0.172-2.482,1.941c0.469,1.842,2.367,1.383,3.26,0.843c3.098-1.875,4.86-0.072,6.798,1.889
		c6.151,6.222,13.108,11.293,21.343,14.419c2.462,0.935,4.719,2.504,7.77,1.297c5.507-2.179,9.217-6.045,11.139-11.418
		c0.866-2.425,2.245-5.993,0.306-7.79c-3.909-3.624-7.104-7.761-9.989-12.067C156.464,166.203,153.739,157.762,158.209,148.342
		 M154.53,125.705c-0.392,0.204-0.552-2.159,0.482-3.214c2.855-2.914,6.251-2.899,10.498-1.968c-2.009,2.337-4.021,0.95-5.983,1.794
		c3.198,1.917,2.759,4.675,1.86,8.691C159.839,127.338,159.337,123.2,154.53,125.705 M124.262,114.067
		c-2.632-0.164-3.323-1.4-3.291-3.749c0.029-2.2,0.839-3.412,3.692-3.3c1.618,0.285,3.325,1.418,3.216,3.626
		C127.787,112.511,126.966,114.238,124.262,114.067 M127.799,96.899c-3.22-0.014-4.824-2.19-4.793-5.431
		c0.031-3.221,1.619-5.401,4.858-5.371c3.229,0.029,5.754,1.429,5.087,5.41C133.597,95.574,131.013,96.914,127.799,96.899
		 M133.975,99.136c0.024-3.16,2.531-3.996,4.573-3.946c2.32,0.057,4.919,1.133,4.469,4.591c-0.252,2.912-1.822,4.388-4.816,4.21
		C135.165,103.811,133.953,102.1,133.975,99.136"/>
	<path clip-path="url(#SVGID_2_)" fill="#3B664B" d="M188.773,179.369c4.656,9.557,7.664,19.452,9.815,29.673
		c0.625,2.975,0.444,4.934-2.503,6.595c-2.994,1.69-5.516,4.193-8.401,6.105c-2.084,1.381-2.686,2.714-0.809,4.612
		c4.651,4.703,4.719,9.741,1.397,15.236c-1.183,1.958-1.784,4.259-2.755,6.356c-1.154,2.501-2.381,4.962-3.646,7.398
		c4.924-1.739,9.704-3.785,14.311-6.125c-0.238-2.22-0.503-4.441-0.765-6.666c-0.465-3.954-2.719-8.011-0.207-13.196
		c1.391,6.403,2.421,12.625,3.085,18.76c7.087-3.776,13.755-8.234,19.91-13.296c-2.343-11.376-5.671-22.539-10.481-33.28
		C203.609,192.353,197.822,184.474,188.773,179.369"/>
	<path clip-path="url(#SVGID_2_)" fill="#3B664B" d="M184.238,226.751c-2.237-2.44-1.395-4.56,0.979-6.296
		c1.326-0.971,2.827-1.703,4.181-2.643c7.793-5.414,7.884-5.449,5.472-14.69c-2.897-11.107-6.583-21.854-15.28-30.047
		c-3.276-3.086-7.267-4.427-10.915-5.102c-2.821,0.064-5.913,0.345-6.14,2.139c-0.299,2.369,2.304,2.776,4.766,3.238
		c5.284,0.988,9.102,4.097,10.875,9.657c3.456,10.839,3.688,21.751,1.396,32.755c-3.15,15.134-8.312,29.629-13.765,44.033
		c4.32-0.876,8.554-1.988,12.692-3.313c2.658-4.817,5.189-9.713,7.58-14.697C188.874,235.962,188.451,231.349,184.238,226.751"/>
	<path clip-path="url(#SVGID_2_)" fill="#F2CD16" d="M134.707,251.878c-4.11-0.787-8.22-1.779-12.162-3.159
		c-2.636-0.923-4.27-0.135-4.769,2.134c-0.531,2.408,1.4,2.921,3.524,3.202c5.607,0.747,10.503,2.438,12.416,7.878
		c2.155,0.142,4.326,0.227,6.511,0.253c-0.12-1.21-0.211-2.43-0.276-3.66C139.777,255.274,138.567,252.617,134.707,251.878"/>
	<path clip-path="url(#SVGID_2_)" fill="#BCBAB9" d="M151.103,91.687c-0.244,1.809,1.574,1.304,2.574,1.282
		c9.106-0.198,14.769,6.075,20.858,11.32c1.477,1.271,2.688,4.681,4.167,4.036c1.974-0.859,2.368-3.966,2.303-6.481
		c-0.03-1.162-0.005-2.325-0.005-3.488c0.328-8.091-3.101-14.472-8.916-19.814c-1.016-0.933-1.927-1.643-3.426-1.567
		c-6.693,0.337-12.618,2.746-17.852,6.78C147.484,86.316,151.469,88.97,151.103,91.687"/>
	<path clip-path="url(#SVGID_2_)" fill="#3B664B" d="M141.996,214.533c0.096-3.659-0.11-7.347,0.288-10.971
		c0.374-3.393-2.801-3.215-4.161-4.821c-0.615-0.725-1.302-0.552-2.07,0.187c-5.012,4.812-5.67,15.199-0.464,18.929
		c4.719,3.38,3.134,5.439-0.129,8.257c-2.067,1.786-4.228,3.42-2.953,7.112c3.39,9.813,7.442,19.327,11.89,28.945
		c1.451-0.031,2.894-0.091,4.332-0.174C144.654,246.478,141.576,230.795,141.996,214.533"/>
	<path clip-path="url(#SVGID_2_)" fill="#E1A783" d="M163.845,257.53c-3.465-9.399-3.871-19.189-3.867-29.045
		c0.001-0.877,0.428-2.281-1.028-2.295c-0.86-0.009-2.138,0.558-2.507,1.25c-0.741,1.393-1.106,3.025-1.417,4.601
		c-1.037,5.256-2.477,10.498-2.824,15.806c-0.306,4.659-1.89,9.281-1.211,14.007c4.214-0.319,8.366-0.86,12.448-1.604
		C163.896,259.421,164.224,258.559,163.845,257.53"/>
	<path clip-path="url(#SVGID_2_)" fill="#BCBAB9" d="M158.643,95.791c-2.337-0.939-4.644-1.127-6.716-0.549
		c-1.89,0.526-0.517,2.933-0.971,4.423c-0.47,1.54-1.013,3.065-1.638,4.549c-0.348,0.825-0.616,1.847-0.005,2.311
		c2.948,2.242,5.799,5.614,9.1,6.187c6.881,1.195,11.336,4.153,12.801,11.143c2.455-2.767,3.717-5.956,5.376-8.919
		c1.05-1.876,1.255-3.56-0.326-5.147C170.938,104.446,165.965,98.731,158.643,95.791"/>
	<path clip-path="url(#SVGID_2_)" fill="#FFFFFF" d="M165.585,217.34c-6.934,12.009-2.497,24.144-0.562,36.311
		c5.124-11.779,9.188-23.781,11.923-36.603C167.907,224.655,167.907,224.655,165.585,217.34"/>
	<path clip-path="url(#SVGID_2_)" fill="#BCBAB9" d="M149.287,117.095c1.645-1.413,3.4-2.472,5.828-3.653
		c-2.46-1.706-4.423-4.018-6.726-4.428c-3.034-0.541-2.902,3.634-4.925,5.088c-1.194,0.86-2.176,2.036-3.189,3.128
		c-1.881,2.029-2.808,4.116-1.347,6.972c2.573,5.026,4.819,10.219,7.278,15.305c0.41,0.848,1.081,1.538,2.347,1.345
		c5.62-0.854,7.425-4.582,4.312-9.231c-1.266-1.89-2.85-3.564-4.13-5.445C146.612,123.059,145.838,120.06,149.287,117.095"/>
	<path clip-path="url(#SVGID_2_)" fill="#FFFFFF" d="M168.763,203.43c-4.112,3.819-4.666,6.998-1.808,11.377
		c0.512,0.782,0.835,1.747,1.021,2.673c0.439,2.196,0.812,2.48,3.096,1.145c5.508-3.224,7.946-7.706,7.965-13.954
		c0.025-8.135-0.814-16.048-4.399-23.285C176.242,189.854,174.998,197.637,168.763,203.43"/>
	<path clip-path="url(#SVGID_2_)" fill="#FFFFFF" d="M108.853,149.676c6.763-2.438,11.444-9.147,10.74-15.745
		c-5.068,1.899-5.062,1.901-6.626,6.16c-0.434,1.181-1.214,1.956-2.569,1.903c-1.439-0.057-3.622,0.523-3.902-1.215
		c-0.559-3.479-2.867-1.91-4.323-1.683c-2.392,0.374-4.715,1.109-7.192,0.92c-1.298-0.099-2.68-0.247-3.56,1.095
		c-1.113,1.697,0.523,2.855,1.162,3.829C95.722,149.721,103.142,151.735,108.853,149.676"/>
	<path clip-path="url(#SVGID_2_)" fill="#BCBAB9" d="M141.951,76.618c1.831,0.902,3.496,2.732,4.501,4.547
		c0.924,1.668,1.793,1.633,2.799,0.756c4.719-4.111,10.604-5.587,16.516-7.295c-1.405-2.319-3.874-2.83-5.739-3.873
		c-5.911-3.305-11.977-5.466-18.156,0.165C139.237,73.317,137.646,74.497,141.951,76.618"/>
	<path clip-path="url(#SVGID_2_)" fill="#FFFFFF" d="M143.893,219.907c0.564,11.418,2.268,22.232,5.426,32.819
		c1.125-7.444,1.696-14.922,3.857-21.987c1.352-4.419,1.07-7.9-1.874-11.473C149.838,225.098,146.797,220.409,143.893,219.907"/>
	<path clip-path="url(#SVGID_2_)" fill="#F2CD16" d="M115.458,249c-2.732,0-5.221,0.056-7.707-0.013
		c-3.62-0.103-7.084,0.166-10.439,1.895c-1.051,0.542-1.77,1.198-2.266,1.94c1.889,0.795,3.804,1.54,5.74,2.239h15.32
		C114.316,252.874,115.264,250.97,115.458,249"/>
	<path clip-path="url(#SVGID_2_)" fill="#E1A783" d="M158.05,209.015c-3.881-0.167-5.759,1.407-5.971,4.701
		c-0.163,2.534,4.264,10.243,5.902,10.275c2.176,0.043,5.958-5.65,5.95-9.593C163.923,210.487,162.035,208.192,158.05,209.015"/>
	<path clip-path="url(#SVGID_2_)" fill="#3B664B" d="M126.967,237.972c-1.6,9.748-1.629,9.744,8.948,11.482
		c-1.886-5.399-3.614-10.376-5.364-15.344c-1.09-3.094-0.9-5.839,1.864-8.069c0.896-0.724,1.742-1.601,2.347-2.571
		c0.838-1.346,1.236-2.632-0.865-3.539c-2.098-0.907-2.323,0.734-2.666,1.788C129.494,227.049,127.878,232.415,126.967,237.972"/>
	<path clip-path="url(#SVGID_2_)" fill="#FFFFFF" d="M79.578,141.669c0.061-0.112,0.052-0.262,0.09-0.476
		c-1.3,0.163-2.483-0.927-3.836,0.902c-1.347,1.822-4.611,1.765-5.266-0.353c-1.343-4.347-5.452-3.745-8.488-6.501
		c-0.155,3.126,0.851,5.071,1.708,7.082c2.067,4.848,6.376,6.512,10.928,6.507C78.799,148.826,78.165,144.25,79.578,141.669"/>
	<path clip-path="url(#SVGID_2_)" fill="#FFFFFF" d="M148.784,219.605c0.438-2.775,1.006-5.537,2.108-8.239
		c1.423-3.492-1.11-7.005-4.97-7.342c-1.06-0.092-2.083,0.057-1.896,1.471C144.679,210.404,141.423,216.519,148.784,219.605"/>
	<path clip-path="url(#SVGID_2_)" fill="#BCBAB9" d="M145.479,66.207c-9.844-0.449-10.42-0.34-15.342,2.628
		C136.7,76.53,139.855,68.431,145.479,66.207"/>
	<path clip-path="url(#SVGID_2_)" fill="#FFFFFF" d="M121.95,258.058c-0.301-1.516-1.559-2.564-2.872-1.931
		c-1.743,0.841-3.516,0.539-5.204,0.948c-1.9,0.461-5.157-1.202-6.168,0.249c3.603,1.058,7.275,1.951,11.008,2.675
		c0.266,0.002,0.533,0.003,0.797,0.007C120.886,260.024,122.361,260.131,121.95,258.058"/>
	<path clip-path="url(#SVGID_2_)" fill="#F2CD16" d="M68.083,151.601c-0.644,1.555,0.613,4.065,1.645,4.087
		c2.544,0.053,4.474-1.608,4.931-5.123C72.491,153.181,69.858,147.312,68.083,151.601"/>
	<path clip-path="url(#SVGID_2_)" fill="#FFFFFF" d="M122.672,183.021c2.527,0.038,4.092-1.255,5.092-3.432
		c-0.743-0.503-0.462-2.568-1.64-2.012c-1.871,0.883-4.591,0.938-5.098,3.731C120.798,182.562,121.424,183.002,122.672,183.021"/>
	<path clip-path="url(#SVGID_2_)" fill="#FFFFFF" d="M113.114,186.189c0.122,1.31,1.692,0.954,2.489,0.743
		c2.858-0.758,3.982-2.658,3.076-5.846C116.777,182.909,112.738,182.156,113.114,186.189"/>
	<path clip-path="url(#SVGID_2_)" fill="#FFFFFF" d="M130.83,178.501c1.815-0.548,3.482-1.568,4.18-3.581
		c-0.53-1.094-1.352-2.396-2.442-1.737c-1.34,0.811-3.7,0.883-3.555,3.348C129.08,177.682,129.5,178.901,130.83,178.501"/>
	<path clip-path="url(#SVGID_2_)" fill="#3B664B" d="M125.435,257.316c-0.616-0.291-1.348,0.255-1.284,1.062
		c0.263,3.322,3.063,2.341,5.086,3.184c0.321,0.033,0.644,0.061,0.965,0.092C130.55,257.595,127.316,258.206,125.435,257.316"/>
	<path clip-path="url(#SVGID_2_)" fill="#FFFFFF" d="M109.487,185.811c-1.711,0.591-4.046,0.246-4.447,2.779
		c-0.238,1.503,1.12,1.749,1.941,1.319c1.594-0.833,4.054-0.904,4.037-2.825C110.926,184.735,110.18,185.571,109.487,185.811"/>
	<path clip-path="url(#SVGID_2_)" fill="#FFFFFF" d="M139.532,169.044c-4.137,0.737-4.342,2.76-1.969,5.661
		C139.721,173.331,140.788,171.6,139.532,169.044"/>
	<path clip-path="url(#SVGID_2_)" fill="#FFFFFF" d="M94.938,190.292c3.02,3.173,5.011,1.744,6.892-0.942
		C99.3,188.159,97.414,190.217,94.938,190.292"/>
	<path clip-path="url(#SVGID_2_)" fill="#FFFFFF" d="M143.309,166.159c-0.503-0.487-1.39,0.132-1.597,0.73
		c-0.507,1.464,0.012,2.554,1.615,3.282C144.232,168.657,144.48,167.296,143.309,166.159"/>
	<path clip-path="url(#SVGID_2_)" fill="#191814" d="M127.864,86.097c-3.24-0.029-4.828,2.151-4.859,5.372
		c-0.031,3.241,1.573,5.417,4.794,5.431c3.213,0.014,5.798-1.326,5.151-5.392C133.617,87.526,131.093,86.127,127.864,86.097
		 M128.481,94.756c-1.963,0.181-3.315-1.366-3.407-3.381c-0.076-1.684,1.456-3.103,2.671-3.147c1.929-0.069,3.056,1.589,3.394,4.233
		C131.631,94.063,129.424,94.669,128.481,94.756"/>
	<path clip-path="url(#SVGID_2_)" fill="#191814" d="M143.017,99.781c0.45-3.458-2.149-4.534-4.469-4.591
		c-2.041-0.05-4.549,0.786-4.573,3.946c-0.022,2.964,1.19,4.674,4.227,4.855C141.195,104.169,142.765,102.693,143.017,99.781
		 M136.134,100.057c-0.028-1.437,1.49-1.995,2.366-2.94c0.875,0.945,2.393,1.503,2.365,2.94c-0.024,1.258-1.086,1.919-2.365,1.919
		C137.221,101.976,136.158,101.315,136.134,100.057"/>
	<path clip-path="url(#SVGID_2_)" fill="#191814" d="M161.388,131.007c0.897-4.016,1.339-6.774-1.859-8.691
		c1.961-0.844,3.973,0.543,5.982-1.794c-4.246-0.931-7.644-0.946-10.498,1.968c-1.033,1.055-0.873,3.418-0.482,3.214
		C159.336,123.199,159.839,127.339,161.388,131.007"/>
	<path clip-path="url(#SVGID_2_)" fill="#191814" d="M124.663,107.019c-2.852-0.113-3.662,1.1-3.692,3.3
		c-0.032,2.349,0.659,3.584,3.291,3.749c2.705,0.169,3.525-1.558,3.617-3.423C127.987,108.437,126.281,107.304,124.663,107.019
		 M124.221,111.939c-0.819-0.01-1.192-0.404-1.198-1.199c-0.007-0.856,0.009-1.808,1.172-1.621c0.547,0.088,1.322,0.715,1.419,1.211
		C125.787,111.201,124.876,111.569,124.221,111.939"/>
	<path clip-path="url(#SVGID_2_)" fill="#F2CD16" d="M127.746,88.228c-1.215,0.044-2.747,1.463-2.671,3.147
		c0.091,2.014,1.444,3.562,3.407,3.381c0.943-0.087,3.15-0.694,2.658-2.295C130.801,89.817,129.674,88.159,127.746,88.228"/>
	<path clip-path="url(#SVGID_2_)" fill="#F2CD16" d="M140.866,100.057c0.028-1.437-1.49-1.995-2.366-2.94
		c-0.875,0.945-2.393,1.503-2.365,2.94c0.024,1.258,1.086,1.919,2.365,1.919C139.779,101.976,140.842,101.315,140.866,100.057"/>
	<path clip-path="url(#SVGID_2_)" fill="#F2CD16" d="M124.196,109.119c-1.163-0.187-1.18,0.764-1.172,1.621
		c0.006,0.795,0.379,1.189,1.198,1.199c0.655-0.37,1.565-0.739,1.393-1.609C125.517,109.834,124.743,109.208,124.196,109.119"/>
</g>
</svg>
