<?xml version="1.0" encoding="utf-8"?>
<!-- Generator: Adobe Illustrator 16.0.0, SVG Export Plug-In . SVG Version: 6.00 Build 0)  -->
<!DOCTYPE svg PUBLIC "-//W3C//DTD SVG 1.1//EN" "http://www.w3.org/Graphics/SVG/1.1/DTD/svg11.dtd">
<svg version="1.1" id="Calque_1" xmlns="http://www.w3.org/2000/svg" xmlns:xlink="http://www.w3.org/1999/xlink" x="0px" y="0px"
	 width="283.46px" height="283.46px" viewBox="0 0 283.46 283.46" enable-background="new 0 0 283.46 283.46" xml:space="preserve">
<g>
	<defs>
		<rect id="SVGID_1_" width="283.46" height="283.46"/>
	</defs>
	<clipPath id="SVGID_2_">
		<use xlink:href="#SVGID_1_"  overflow="visible"/>
	</clipPath>
	<path clip-path="url(#SVGID_2_)" fill="#F6F6F6" d="M269.291,141.732c0,70.449-57.109,127.559-127.559,127.559
		S14.173,212.182,14.173,141.732S71.283,14.173,141.732,14.173S269.291,71.283,269.291,141.732"/>
	
		<circle clip-path="url(#SVGID_2_)" fill="none" stroke="#000000" stroke-width="2" stroke-miterlimit="10" cx="141.732" cy="141.732" r="127.559"/>
	<path clip-path="url(#SVGID_2_)" fill="#68A8DE" d="M262.205,141.732c0,66.535-53.938,120.472-120.473,120.472
		c-66.536,0-120.473-53.937-120.473-120.472S75.197,21.26,141.732,21.26C208.268,21.26,262.205,75.197,262.205,141.732"/>
	
		<circle clip-path="url(#SVGID_2_)" fill="none" stroke="#000000" stroke-width="2" stroke-miterlimit="10" cx="141.732" cy="141.732" r="120.473"/>
	<path clip-path="url(#SVGID_2_)" fill="#68A8DE" d="M262.205,141.732c0,66.535-53.938,120.472-120.473,120.472
		c-66.536,0-120.473-53.937-120.473-120.472S75.197,21.26,141.732,21.26C208.268,21.26,262.205,75.197,262.205,141.732"/>
	
		<circle clip-path="url(#SVGID_2_)" fill="none" stroke="#000000" stroke-width="2" stroke-miterlimit="10" cx="141.732" cy="141.732" r="120.473"/>
	<path clip-path="url(#SVGID_2_)" fill="#68A8DE" d="M262.205,141.732c0,66.535-53.938,120.472-120.473,120.472
		c-66.536,0-120.473-53.937-120.473-120.472S75.197,21.26,141.732,21.26C208.268,21.26,262.205,75.197,262.205,141.732"/>
	
		<circle clip-path="url(#SVGID_2_)" fill="none" stroke="#000000" stroke-width="2" stroke-miterlimit="10" cx="141.732" cy="141.732" r="120.473"/>
	<path clip-path="url(#SVGID_2_)" fill="#68A8DE" d="M262.205,141.732c0,66.535-53.938,120.472-120.473,120.472
		c-66.536,0-120.473-53.937-120.473-120.472S75.197,21.26,141.732,21.26C208.268,21.26,262.205,75.197,262.205,141.732"/>
	
		<circle clip-path="url(#SVGID_2_)" fill="none" stroke="#000000" stroke-width="2" stroke-miterlimit="10" cx="141.732" cy="141.732" r="120.473"/>
	<path clip-path="url(#SVGID_2_)" fill="#191814" d="M184.717,245.987c-4.382,0.311-5.509,2.172-5.82,10.366
		c1.231-0.398,2.456-0.814,3.67-1.252c-0.318-0.554-0.51-1.219-0.52-2.039c-0.028-2.543,1.469-3.991,4.016-4.028
		c2.185-0.034,3.445,1.244,3.806,3.159c1.008-0.439,2.01-0.893,3.004-1.359C192.202,246.283,188.622,245.711,184.717,245.987"/>
	<path clip-path="url(#SVGID_2_)" fill="#191814" d="M133.665,248.629c-0.769-3.567-4.649-3.761-7.438-4.54
		c-13.708-3.828-27.342-1.775-40.952,0.926c-1.346,0.269-1.984,1.026-2.319,1.894c1.187,0.665,2.383,1.314,3.595,1.939
		c0.415-0.347,0.924-0.607,1.546-0.745c12.567-2.767,25.108-4.397,37.858-0.278c4.526,1.462,5.429,3.834,4.879,7.781
		c-5.777-1.669-11.499-2.277-17.337-2.737c-5.741-0.453-11.355-0.201-16.934,0.573c2.355,0.953,4.746,1.836,7.173,2.643
		c8.017-0.429,16.394,0.198,22.647,1.733c2.612,0.642,2.886,1.581,2.593,3.493c-0.011,0.072-0.019,0.146-0.031,0.218
		c1.15,0.121,2.303,0.231,3.462,0.32c0.354-1.136,0.779-2.265,1.318-3.382C135.017,255.79,134.352,251.814,133.665,248.629"/>
	<path clip-path="url(#SVGID_2_)" fill="#191814" d="M243.89,195.518c-3.693-4.241-8.478-6.962-13.713-8.842
		c-10.528-3.78-21.104-1.034-27.324,6.32c-2.712,3.206-1.933,6.678-1.898,9.954c0.044,4.296-0.68,9.159,1.829,12.813
		c4.768,6.942,10.544,13.123,18.332,16.581c1.298-1.137,2.574-2.298,3.821-3.49c-0.105-0.044-0.207-0.079-0.312-0.125
		c-4.125-1.756-7.907-4.442-11.177-7.705c-1.496-1.492-2.177-3.278-0.964-4.808c0.875-1.104,1.499-3.177,4.074-2.484
		c2.225,0.601,3.681,1.177,3.453,3.766c-0.301,3.412,2.337,3.892,4.713,4.443c0.703,0.163,2.079-0.663,2.253-0.413
		c0.824,1.185,1.701,2.028,2.619,2.616c0.964-1.026,1.912-2.069,2.84-3.131c-0.265-0.245-0.555-0.467-0.89-0.616
		c0.761-0.119,1.415-0.372,2.011-0.687c5.451-6.414,10.246-13.403,14.273-20.868C246.412,198.017,245.111,196.921,243.89,195.518
		 M237.214,196.365c1.714,0.443,2.355,2.018,4.024,3.247C237.188,200.67,236.46,199.225,237.214,196.365 M231.751,203.538
		c-0.477-0.262-1.143-0.404-1.394-0.807c-0.919-1.474,0.476-1.848,1.276-2.635C232.093,201.351,232.177,202.438,231.751,203.538
		 M228.312,191.153c0.82,0.309,1.507,0.975,2.255,1.477c-0.76,0.746-1.506,2.1-2.283,2.118c-1.866,0.043-4.204,1.579-5.545-1.305
		c-0.964-2.076-3.012-2.716-5.24-2.892C221.31,189.707,224.878,189.863,228.312,191.153 M223.671,199.558
		c-1.725,1.306-2.849-0.428-5.261-1.359c2.628-0.2,4.059-0.31,5.488-0.419C223.836,198.39,224.004,199.305,223.671,199.558
		 M209.296,214.517c-0.532-2.849-3.292-5.477-0.406-8.393c0.065-0.065-0.384-0.95-0.696-1.023c-1.217-0.289-2.943,0.137-1.668-2.213
		c0.701-1.291,1.286-2.093,2.89-1.906c1.836,0.215,2.642,1.21,2.568,2.943C211.831,207.57,213.07,211.551,209.296,214.517
		 M209.471,197.726c1.739-1.68,4.326-1.664,4.976-4.346c-0.305,2.036,3.178,2.908,1.572,4.997
		C213.641,201.473,211.8,196.213,209.471,197.726 M217.211,210.201c-2.855-1.671-2.071-3.612-2.063-6.105
		c1.832,1.355,3.4,2.79,5.668,1.028c0.875-0.681,2.317,0.005,2.846,1.196c0.896,2.021-1.181,1.2-1.74,1.793
		C220.604,209.509,220.562,212.161,217.211,210.201 M228.188,214.912v0.288c-0.056-0.004-0.111-0.009-0.168-0.012
		c-0.483,0.941,1.311,2.256-0.021,2.649c-1.428,0.422-3.372,0.786-4.625-0.367c-0.784-0.722-0.831-2.255,0.92-2.408
		c1.229-0.106,2.482,0.062,3.727,0.126c0.018-0.033,0.03-0.066,0.053-0.099l0.048,0.045c-0.024-0.023-0.051-0.048-0.052-0.049
		C228.105,215.021,228.15,214.973,228.188,214.912v-5.031c2.172,0.886,4.163,1.397,6.341,1.394
		C232.097,212.06,229.604,212.594,228.188,214.912 M233.298,206.242c2.688,1.357,5.512,0.468,8.223,0.898
		C239.636,211.297,236.969,211.125,233.298,206.242"/>
	<path clip-path="url(#SVGID_2_)" fill="#191814" d="M211.794,234.074c-10.207-9.656-21.413-17.959-33.451-25.175
		c-1.552-0.93-3.101-1.83-3.41-3.989c-1.605-11.249-1.638-11.244,9.85-12.701c0.661-0.084-0.163,0.039,0.496-0.061
		c9.763-1.467,12.511-8.046,6.771-15.999c-2.113-2.929-5.174-4.646-7.89-6.822c-4.083-3.273-5.682-6.739-3.774-9.776
		c4.365-6.953,4.991-13.966,1.527-21.362c-1.13-2.412,0.03-2.901,2.161-2.851c2.329,0.056,4.664,0.109,6.989-0.077
		c2.204-0.177,4.491-0.521,5.425-2.855c0.919-2.298-0.42-4.196-1.801-5.907c-2.217-2.747-4.936-4.891-7.936-6.769
		c-4.431-2.773-4.322-6.429,0.173-9.16c1.562-0.948,3.298-1.595,4.891-2.498c6.643-3.763,12.273-8.57,15.83-15.489
		c3.273-6.365,2.83-7.568-3.761-10.31c-6.062-2.522-11.016-6.13-13.066-12.8c-2.442-7.944-2.508-7.974-10.805-5.872
		c-8.006,2.028-15.926,2.78-24.166,0.803C149.216,62.813,144.49,58.343,139,55h-1c-1.351,0.959-2.911,1.55-4.159,2.725
		c-12.365,11.642-26.698,15.038-42.926,9.952c-3.496-1.096-5.751-0.145-7.307,3.118c-2.527,5.299-5.932,10.046-9.762,14.458
		c-5.553,6.395-11.897,11.637-20.591,13.21c-1.882,0.341-4.28,0.148-4.835,2.708c-0.49,2.258,1.173,3.694,2.527,5.148
		c6.483,6.96,14.811,9.897,23.998,10.965c5.465,0.635,5.811,1.519,2.512,6.004c-3.46,4.702-6.189,9.571-3.617,15.696
		c0.779,1.856-0.043,3.549-0.805,5.258c-1.94,4.347-2.052,8.721,0.3,12.963c0.87,1.567,1.485,3.036,0.104,4.565
		c-4.689,5.191-4.31,11.276-3.007,17.463c0.555,2.632,0.081,4.578-2.49,5.783c-10.766,5.043-19.986,12.152-28.913,19.711
		c1.964,3.194,4.069,6.291,6.313,9.278c4.323,0.592,6.499,4.315,6.69,8.139c0.924,1.029,1.863,2.044,2.82,3.04
		c0.116-0.951,0.182-1.914,0.184-2.889c0.015-7.887-4.723-11.195-12.19-12.726c8.155-4.17,16.122-5.637,23.604-1.185
		c7.468,4.443,13.782,10.609,13.445,20.326c-0.17,4.905-2.402,9.218-4.77,13.412c0.973,0.646,1.957,1.278,2.95,1.897
		c1.22-2.497,2.312-5.065,3.227-7.732c5.612-16.35-6.547-33.287-23.848-33.289c-2.591,0-5.183,0-9.11,0
		c8.105-5.765,15.117-10.638,23.02-14.182c2.164-0.971,2.854-0.506,3.635,1.448c5.85,14.632,17.149,24.068,30.444,31.486
		c8.749,4.883,18.152,8.183,27.776,10.896c3.031,0.854,5.145,0.457,5.809-3.096c0.259-1.384,0.89-2.698,1.324-3.966
		c5.727,6.707,6.292,15.14,7.627,23.31c0.449,2.749,0.918,5.53,0.938,8.299c0.011,1.657,1.007,3.714-1.386,4.866
		c8.117-0.384,16.024-1.575,23.644-3.488c-2.553-8.552-6.146-16.771-11.57-24.421c-2.29-3.229-1.225-5.761,0.76-8.422
		c1.278,0.698,0.322,2.168,0.992,3.168c0.761,1.134,1.012,2.202,2.66,0.663c4.96-4.632,8.572-9.896,9.19-17.288
		c9.339,7.573,17.413,15.987,24.581,25.343c-6.195,4.178-8.36,4.299-13.636-0.088c-2.612-2.171-3.778-2-4.576,1.309
		c-1.085,4.501-3.716,6.488-8.532,5.299c-2.476-0.611-2.291,1.567-1.917,2.89c1.146,4.057,2.812,7.707,5.208,10.71
		c1.369-0.384,2.727-0.795,4.076-1.226c-3.112-1.884-3.42-5.452-5.228-8.108c4.075-1.229,8.47-1.959,9.159-7.255
		c3.887,2.059,7.354,3.498,12.094,2.285c3.811-0.974,2.824,3.003,2.898,5.192c1.14-0.595,2.269-1.207,3.388-1.836
		c-0.021-0.09-0.035-0.181-0.058-0.271c-0.422-1.655-0.705-3.17-0.452-5.367c1.222,1.283,2.344,2.607,3.401,3.959
		c0.995-0.597,1.983-1.203,2.96-1.828c-1.446-2.07-2.935-4.113-4.483-6.118c-3.4-4.401-6.961-8.641-10.49-12.899
		c6.999,4.811,13.421,10.173,19.325,16.091c1.396-0.979,2.767-1.99,4.116-3.027C213.985,236.222,212.91,235.13,211.794,234.074
		 M178.167,153.422c-1.212,2.38-1.742,3.993-5.018,1.741c-5.473-3.765-11.942-4.804-18.981-4.055c1.389-3.381,0.74-6.239,0.8-9.024
		c0.115-5.287,2.079-8.923,6.887-8.762c4.859,0.163,10.833-0.81,14.293,4.395C179.355,142.544,181.098,147.667,178.167,153.422
		 M106.957,103.651c-4.999-2.342-8.835,0.231-8.874,5.723c-0.021,2.859-1.048,4.158-3.733,4.689
		c-1.575,0.312-3.023,1.286-4.599,1.565c-1.845,0.328-4.068,3.755-5.299,0.829c-0.977-2.322-1.997-5.961,1.719-8.239
		c10.448-6.404,21.708-10.349,33.787-12.263c7.071-1.121,14.153-0.927,21.246-0.949c6.433-0.021,6.433,0,5.288,6.535
		c-11.188-1.261-22.209-0.668-33.085,2.32C111.273,104.447,109.352,104.773,106.957,103.651 M107.029,109.761
		c-0.407,1.442-1.406,2.944-2.771,2.742c-1.361-0.202-3.414-0.817-3.22-3.045c0.16-1.83,1.481-3.351,3.074-3.238
		C105.601,106.325,106.92,107.788,107.029,109.761 M112.47,107.268c10.202-1.673,20.191-4.309,30.881-2.619
		c4.676,0.739,5.493,3.319,7.627,6.734c-9.838-2.013-19.238-1.265-28.61-1.371c-3.091-0.035-6.192-0.24-9.22,0.876
		c-0.43,0.158-2.227,1.486-2.578-1.169C110.286,107.565,111.85,107.37,112.47,107.268 M152.028,143.814
		c-0.098,4.145-1.797,7.208-5.85,8.028c-2.476,0.501-4.249,1.954-4.839,3.696c-1.185,3.496-3.425,3.843-5.923,3.461
		c-8.014-0.001-14.336-5.029-16.253-12.567c-1.481-5.824,2.623-13.705,8.825-16.945C138.78,123.851,152.306,131.952,152.028,143.814
		 M151.043,103.714c-0.633-3.954-0.306-7.933-0.065-11.91c0.124-2.052,1.192-2.019,2.646-1.539c3.88,1.28,7.696,1.345,11.342-0.734
		c1.615-0.92,2.552-0.767,3.372,1.117c0.494,1.133,1.986,1.796,2.641,2.901c1.212,2.046,5.193,2.205,4.716,4.433
		c-0.642,2.987-2.542,6.01-4.675,8.299c-2.997,3.215-7.288,4.489-11.883,5.413C156.48,111.606,151.58,107.07,151.043,103.714
		 M172.75,112.973c2.033,1.486,6.164,1.063,5.044,5.72c-2.239-0.886-4.166-1.643-6.088-2.411c-1.747-0.698-3.49-1.407-5.628-2.269
		C168.34,111.823,170.377,111.238,172.75,112.973 M154.111,132.041c0.412-0.118,0.916,0.082,1.379,0.14
		c-0.93,0.507-1.649,2.462-2.64,1.009C151.663,131.446,153.537,132.204,154.111,132.041 M179.208,113.962
		c-0.499-3.944-5.588-2.035-4.502-6.165c0.197-0.75,0.566-2.396,1.876-1.437C178.521,107.781,180.846,109.241,179.208,113.962
		 M77.987,112.965c-8.579-0.502-16.187-3.407-23.222-9.618c8.036-2.209,14.478-6.095,19.979-11.568
		c4.937-4.913,8.797-10.609,12.167-16.637c1.107-1.979,1.515-3.124,4.543-2.317c17.071,4.549,32.31,0.759,45.396-11.207
		c1.102-1.006,1.638-1.486,3.109-0.251c11.807,9.912,25.543,10.105,39.66,7.233c3.582-0.728,5.766-2.043,7.053,3.276
		c1.754,7.258,7.558,11.788,14.36,14.545c2.801,1.135,3.478,1.541,1.673,4.652c-4.196,7.23-10.723,11.266-17.726,14.957
		c-1.451,0.765-2.759,1.32-3.803-0.386c-0.981-1.607-4.049-2.093-2.457-5.128c1.904-3.63,1.319-6.132-3.092-7.857
		c-2.783-1.088-4.878-3.875-5.639-7.165c-0.359-1.553-1.313-3.463-2.892-1.884c-5.766,5.771-11.473,5.325-17.339,0.121
		c-2.166,8.269-2.174,8.505-10.649,8.22c-18.078-0.607-35.367,2.223-51.318,11.148c-3.232,1.809-7.662,2.823-6.892,8.27
		C81.193,113.442,79.176,113.035,77.987,112.965 M77.771,132.63c2.371-7.579,8.396-11.597,15.137-14.469
		c3.341-1.423,6.959-2.739,10.88-2.195c3.423,0.475,4.682,3.109,6.35,5.317c-0.695,2.17-1.584,3.861-3.101,5.213
		c-1.1,0.98-2.882,2.293-1.933,3.64c2.863,4.062-0.272,6.324-2.164,9.039c-1.67,2.398-0.654,5.13-0.948,7.699
		c-0.15,1.308,0.69,3.201-1.882,3.135c-1.672-0.043-3.502,0.195-4.032-1.923c-1.823-7.278-7.315-8.885-13.773-9.089
		C78.958,138.891,76.752,135.885,77.771,132.63 M139.073,218.878c-3.965,10.926-3.97,10.939-15.103,7.177
		c-12.376-4.184-23.825-10.241-33.313-19.177c-5.584-5.259-10.457-11.521-13.189-20.313c13.789,10.664,27.224,19.497,43.154,23.713
		c4.731,1.252,9.42,2.615,14.38,2.749C140.406,213.173,140.869,213.931,139.073,218.878 M166.396,221.97
		c-1.063,1.787-2.692,2.827-3.406-0.494c-0.697-3.237-4.582-6.561-2.512-9.28c1.721-2.259,6.075-2.511,9.272-3.654
		C170.862,213.588,168.831,217.885,166.396,221.97 M129.617,172.289c-0.331-0.818-1.217-1.748-2.378-0.896
		c-0.786,0.577-1.672,1.273-0.829,2.428c3.506,4.798,3.513,9.57-0.006,14.366c-0.843,1.149,0.058,1.848,0.842,2.426
		c1.155,0.854,2.165-0.107,2.419-0.862c2.674-7.928,8.134-3.825,12.747-2.98c9.107,1.67,17.84,5.204,27.603,5.34
		c-1.004,2.908-2.314,4.843-5.49,4.928c-1.822,0.049-2.897,1.263-2.37,2.981c0.529,1.729,2.169,0.94,3.384,0.727
		c0.778-0.138,1.506-0.553,2.277-0.756c0.991-0.261,2.111-1.256,2.887,0.341c0.586,1.205,0.326,2.227-0.665,3.123
		c-2.454,2.218-5.303,3.693-8.487,4.521c-22.86,5.946-43.62,0.463-63.438-11.221c-7.362-4.34-13.81-9.796-20.57-14.881
		c-6.089-4.58-4.074-15.658,3.518-19.856c1.122-0.62,2.399-0.958,3.629-1.436c-0.722-1.837-2.705-2.401-4.131-3.211
		c-3.484-1.98-5.275-4.768-4.374-8.477c0.848-3.489,3.516-6.549,7.109-6.663c4.121-0.132,7.961,1.722,9.492,6.269
		c0.496,1.474-0.335,3.76,1.796,4.224c3.02,0.657,6.139,1.024,9.229,1.131c1.744,0.062,1.19-1.734,1.152-2.738
		c-0.2-5.181,1.54-9.545,3.596-14.352c1.94-4.537,3.163-9.881,4.453-14.936c0.975-3.819-2.674-5.296-4.9-9.168
		c7.534,4.602,13.567,8.987,21.328,11.911c-5.884,2.844-10.409,6.501-12.36,12.352c-4.535,13.605,3.961,24.69,17.673,26.003
		c2.793,0.267,5.246-0.003,5.683,3.787c0.12,1.044,1.635,2.057,2.703,2.811c0.559,0.395,1.747,0.529,2.278,0.192
		c0.987-0.626,0.836-1.965,0.104-2.602c-2.933-2.554-4.011-5.688-1.996-8.977c2.161-3.525,5.788-4.314,9.925-4.23
		c6.46,0.131,12.887,0.326,18.226,4.378c4.788,3.634,4.371,6.116-1.291,9.719c-0.816-2.192,0.504-4.732-2.533-5.7
		c-2.169-0.69-3.508,0.486-4.906,1.401c-0.906,0.592-2.63,1.399-1.52,3.112c1.268,1.958,2.421,0.896,3.573-0.25
		c0.3-0.299,0.841-0.354,1.335-0.548c-0.506,3.782,0.948,2.312,2.601,3.947c3.598,3.559,4.775-0.258,6.969-0.856
		c0.261-0.07,0.745,0.072,0.892,0.28c3.343,4.769,9.785,5.974,12.7,11.411c1.895,3.534,0.663,5.496-2.448,6.036
		c-6.517,1.131-13.018,1.8-19.797,1.548c-11.304-0.419-21.349-6.167-32.542-6.409c-2.174-0.047-2.852-1.44-2.69-3.354
		C132.228,176.118,130.463,174.376,129.617,172.289"/>
	<path clip-path="url(#SVGID_2_)" fill="#313480" d="M200.666,246.52c0.022,0.089,0.037,0.18,0.058,0.269
		c0.972-0.547,1.937-1.105,2.892-1.678c-1.058-1.352-2.18-2.675-3.401-3.958C199.961,243.349,200.244,244.864,200.666,246.52"/>
	<path clip-path="url(#SVGID_2_)" fill="#313480" d="M148.918,257.197c-0.021-2.77-0.488-5.551-0.938-8.299
		c-1.335-8.17-1.902-16.604-7.628-23.311c-0.435,1.268-1.066,2.582-1.324,3.966c-0.664,3.554-2.778,3.95-5.81,3.096
		c-9.623-2.713-19.026-6.014-27.776-10.896C92.147,214.334,80.849,204.898,75,190.267c-0.782-1.953-1.472-2.419-3.636-1.448
		C63.46,192.363,56.45,197.235,48.345,203c3.927,0,6.518,0,9.109,0c17.301,0.001,29.46,16.939,23.849,33.288
		c-0.916,2.667-2.007,5.237-3.228,7.734c1.602,0.999,3.23,1.961,4.881,2.886c0.335-0.867,0.974-1.626,2.319-1.894
		c13.61-2.701,27.245-4.754,40.952-0.927c2.79,0.779,6.67,0.975,7.438,4.541c0.687,3.187,1.352,7.161,0.06,9.838
		c-0.539,1.117-0.964,2.246-1.317,3.381c3.077,0.236,6.187,0.357,9.325,0.357c1.945,0,3.877-0.051,5.8-0.142
		C149.926,260.91,148.93,258.854,148.918,257.197"/>
	<path clip-path="url(#SVGID_2_)" fill="#313480" d="M171.045,244.137c4.815,1.189,7.447-0.799,8.532-5.299
		c0.797-3.308,1.963-3.479,4.575-1.308c5.276,4.386,7.441,4.265,13.636,0.087c-7.168-9.355-15.241-17.771-24.581-25.343
		c-0.618,7.393-4.229,12.656-9.189,17.288c-1.648,1.539-1.899,0.471-2.659-0.663c-0.671-1,0.286-2.471-0.994-3.168
		c-1.983,2.661-3.049,5.192-0.759,8.423c5.424,7.649,9.018,15.868,11.57,24.42c1.059-0.267,2.112-0.544,3.159-0.837
		c-2.396-3.004-4.061-6.655-5.207-10.71C168.754,245.704,168.568,243.525,171.045,244.137"/>
	<path clip-path="url(#SVGID_2_)" fill="#E19E3A" d="M134.707,181.979c11.193,0.243,21.237,5.99,32.542,6.409
		c6.778,0.252,13.279-0.417,19.796-1.548c3.11-0.54,4.343-2.502,2.448-6.036c-2.915-5.438-9.356-6.643-12.7-11.411
		c-0.146-0.208-0.631-0.351-0.893-0.28c-2.192,0.599-3.371,4.415-6.968,0.856c-1.652-1.635-3.106-0.165-2.601-3.946
		c-0.494,0.192-1.034,0.248-1.334,0.547c-1.153,1.146-2.306,2.208-3.573,0.251c-1.11-1.714,0.612-2.521,1.518-3.113
		c1.4-0.915,2.738-2.093,4.907-1.401c3.037,0.968,1.717,3.508,2.533,5.7c5.662-3.603,6.079-6.085,1.291-9.719
		c-5.339-4.052-11.767-4.247-18.227-4.379c-4.136-0.084-7.763,0.705-9.924,4.231c-2.015,3.289-0.937,6.423,1.996,8.976
		c0.732,0.638,0.883,1.977-0.104,2.603c-0.531,0.337-1.721,0.202-2.278-0.192c-1.068-0.754-2.583-1.766-2.703-2.811
		c-0.437-3.79-2.889-3.521-5.683-3.787c-13.712-1.313-22.208-12.397-17.673-26.003c1.951-5.851,6.476-9.508,12.36-12.352
		c-7.76-2.924-13.794-7.309-21.328-11.911c2.226,3.873,5.876,5.349,4.901,9.168c-1.291,5.055-2.513,10.399-4.454,14.936
		c-2.056,4.806-3.796,9.171-3.596,14.352c0.038,1.004,0.592,2.8-1.152,2.738c-3.09-0.106-6.209-0.474-9.228-1.131
		c-2.131-0.463-1.301-2.75-1.797-4.224c-1.53-4.547-5.371-6.401-9.492-6.27c-3.592,0.115-6.261,3.174-7.109,6.663
		c-0.901,3.709,0.891,6.496,4.374,8.477c1.426,0.81,3.41,1.374,4.131,3.211c-1.229,0.478-2.507,0.815-3.629,1.437
		c-7.592,4.197-9.607,15.275-3.518,19.855c6.76,5.085,13.208,10.541,20.57,14.881c19.818,11.684,40.578,17.167,63.438,11.221
		c3.184-0.828,6.033-2.304,8.487-4.521c0.99-0.896,1.251-1.918,0.665-3.123c-0.774-1.597-1.896-0.602-2.886-0.341
		c-0.772,0.203-1.499,0.618-2.278,0.756c-1.216,0.214-2.854,1.002-3.384-0.727c-0.527-1.719,0.548-2.933,2.37-2.981
		c3.175-0.085,4.486-2.02,5.49-4.928c-9.763-0.136-18.495-3.67-27.602-5.34c-4.613-0.845-10.074-4.948-12.748,2.98
		c-0.255,0.755-1.264,1.717-2.42,0.862c-0.783-0.579-1.685-1.276-0.842-2.425c3.519-4.797,3.512-9.569,0.007-14.367
		c-0.844-1.154,0.043-1.851,0.828-2.428c1.161-0.853,2.047,0.077,2.378,0.896c0.846,2.087,2.612,3.828,2.399,6.336
		C131.854,180.538,132.533,181.932,134.707,181.979 M150.402,159.991c2.921,0.499,5.468,2.333,5.25,4.581
		c-0.29,3.01-4.838,1.696-6.423,4.097c-1.759-1.26-2.272-2.923-2.31-5.107C146.87,160.724,148.811,160.563,150.402,159.991
		 M90.205,152.251c-0.788,0.87-2.04,1.147-2.65,0.504c-2.718-2.867-3.391-0.277-4.206,1.51c-0.54,1.184-1.063,2.104-2.483,1.62
		c-1.277-0.435-1.155-1.913-0.764-2.486c1.521-2.232-0.171-3.972-0.643-6.24c3.83-0.262,7.559-0.969,9.985,2.813
		C89.886,150.661,91.339,151,90.205,152.251"/>
	<path clip-path="url(#SVGID_2_)" fill="#313480" d="M66.45,208.386c-7.482-4.452-15.449-2.985-23.604,1.185
		c7.467,1.53,12.205,4.838,12.19,12.727c-0.002,0.974-0.068,1.937-0.184,2.888c6.107,6.356,12.906,12.041,20.273,16.939
		c2.369-4.194,4.6-8.508,4.77-13.412C80.232,218.994,73.918,212.828,66.45,208.386"/>
	<path clip-path="url(#SVGID_2_)" fill="#313480" d="M80.9,111.369c-0.77-5.447,3.66-6.461,6.893-8.27
		c15.951-8.926,33.239-11.755,51.317-11.148c8.475,0.285,8.483,0.049,10.649-8.221c5.866,5.204,11.573,5.651,17.339-0.12
		c1.578-1.58,2.532,0.331,2.891,1.883c0.762,3.291,2.856,6.078,5.64,7.166c4.411,1.725,4.996,4.226,3.092,7.857
		c-1.592,3.035,1.475,3.521,2.457,5.128c1.044,1.706,2.352,1.151,3.803,0.386c7.003-3.691,13.529-7.728,17.726-14.958
		c1.805-3.11,1.128-3.516-1.674-4.651c-6.802-2.757-12.605-7.288-14.359-14.545c-1.286-5.319-3.47-4.004-7.052-3.276
		c-14.118,2.871-27.854,2.679-39.662-7.234c-1.471-1.235-2.007-0.755-3.109,0.252c-13.086,11.965-28.325,15.755-45.396,11.207
		c-3.028-0.807-3.436,0.338-4.543,2.317c-3.37,6.027-7.229,11.724-12.167,16.636c-5.501,5.473-11.943,9.359-19.979,11.568
		c7.035,6.212,14.643,9.117,23.222,9.619C79.176,113.034,81.193,113.441,80.9,111.369"/>
	<path clip-path="url(#SVGID_2_)" fill="#313480" d="M135.002,213.026c-4.96-0.134-9.649-1.497-14.38-2.749
		c-15.93-4.216-29.365-13.049-43.154-23.713c2.732,8.793,7.605,15.055,13.189,20.313c9.488,8.936,20.937,14.992,33.313,19.177
		c11.133,3.763,11.138,3.749,15.103-7.177C140.869,213.931,140.406,213.173,135.002,213.026"/>
	<path clip-path="url(#SVGID_2_)" fill="#FFFFFF" d="M119.164,146.434c1.917,7.537,8.239,12.565,16.253,12.566
		c2.498,0.381,4.738,0.035,5.923-3.461c0.59-1.742,2.363-3.195,4.839-3.696c4.053-0.82,5.752-3.885,5.849-8.027
		c0.278-11.864-13.248-19.964-24.039-14.328C121.787,132.727,117.683,140.608,119.164,146.434 M130.029,138.922
		c2.172,0.166,3.754,0.292,2.843,2.843c0.8,2.867-1.076,4.05-2.965,4.049c-1.929-0.002-3.713-1.775-3.727-3.727
		C126.166,140.121,127.469,138.727,130.029,138.922"/>
	<path clip-path="url(#SVGID_2_)" fill="#F5E827" d="M45.342,214.006c2.112,2.812,4.346,5.525,6.691,8.139
		C51.841,218.321,49.665,214.598,45.342,214.006"/>
	<path clip-path="url(#SVGID_2_)" fill="#FFFFFF" d="M126.383,257.817c-6.253-1.535-14.63-2.162-22.647-1.734
		c8.059,2.678,16.495,4.526,25.21,5.446c0.011-0.073,0.019-0.146,0.031-0.219C129.269,259.399,128.995,258.458,126.383,257.817"/>
	<path clip-path="url(#SVGID_2_)" fill="#999DC9" d="M82.305,138.997c6.458,0.204,11.95,1.81,13.773,9.089
		c0.53,2.117,2.36,1.88,4.032,1.923c2.572,0.065,1.732-1.827,1.882-3.136c0.294-2.569-0.722-5.301,0.948-7.698
		c1.892-2.716,5.027-4.977,2.164-9.04c-0.949-1.346,0.833-2.659,1.933-3.639c1.517-1.352,2.406-3.044,3.101-5.213
		c-1.668-2.208-2.927-4.843-6.35-5.317c-3.922-0.545-7.54,0.772-10.88,2.195c-6.741,2.872-12.766,6.889-15.138,14.468
		C76.752,135.885,78.958,138.891,82.305,138.997"/>
	<path clip-path="url(#SVGID_2_)" fill="#313480" d="M113.407,103.86c10.875-2.988,21.897-3.581,33.085-2.32
		c1.145-6.535,1.145-6.556-5.289-6.535c-7.093,0.022-14.174-0.172-21.245,0.949c-12.08,1.914-23.34,5.859-33.787,12.263
		c-3.716,2.278-2.697,5.918-1.72,8.239c1.231,2.926,3.455-0.501,5.3-0.828c1.575-0.28,3.024-1.254,4.599-1.565
		c2.684-0.531,3.712-1.831,3.733-4.69c0.039-5.492,3.874-8.065,8.873-5.723C109.351,104.772,111.273,104.447,113.407,103.86"/>
	<path clip-path="url(#SVGID_2_)" fill="#FFFFFF" d="M161.854,133.322c-4.807-0.162-6.772,3.474-6.886,8.762
		c-0.062,2.785,0.588,5.645-0.8,9.024c7.037-0.748,13.509,0.29,18.98,4.054c3.275,2.252,3.806,0.639,5.019-1.74
		c2.93-5.755,1.188-10.879-2.02-15.705C172.688,132.511,166.714,133.485,161.854,133.322 M167.275,149.963
		c-1.847-0.166-2.341-1.471-2.285-3.15c0.06-1.759,0.82-2.919,2.652-2.761c1.809,0.156,2.688,1.574,3.424,3.108
		C169.976,148.446,169.253,150.142,167.275,149.963"/>
	<path clip-path="url(#SVGID_2_)" fill="#FFFFFF" d="M113.497,252.868c5.839,0.46,11.56,1.068,17.337,2.737
		c0.55-3.947-0.352-6.319-4.879-7.781c-12.75-4.119-25.29-2.488-37.858,0.278c-0.622,0.138-1.131,0.398-1.546,0.745
		c3.253,1.68,6.595,3.211,10.013,4.594C102.143,252.667,107.756,252.415,113.497,252.868"/>
	<path clip-path="url(#SVGID_2_)" fill="#EEC998" d="M226.977,221.528c-0.174-0.25-1.55,0.576-2.253,0.413
		c-2.375-0.552-5.014-1.032-4.713-4.443c0.228-2.59-1.229-3.165-3.453-3.766c-2.575-0.692-3.199,1.381-4.074,2.484
		c-1.213,1.529-0.533,3.315,0.964,4.808c3.27,3.263,7.052,5.949,11.177,7.705c0.106,0.046,0.207,0.081,0.312,0.125
		c1.597-1.525,3.148-3.099,4.659-4.71C228.678,223.557,227.802,222.713,226.977,221.528"/>
	<path clip-path="url(#SVGID_2_)" fill="#313480" d="M191.602,224.265c3.529,4.259,7.091,8.498,10.49,12.899
		c1.549,2.005,3.037,4.048,4.483,6.118c1.474-0.943,2.923-1.921,4.352-2.927C205.023,234.438,198.601,229.074,191.602,224.265"/>
	<path clip-path="url(#SVGID_2_)" fill="#F5E827" d="M159.137,111.693c4.594-0.924,8.885-2.198,11.882-5.413
		c2.132-2.288,4.033-5.311,4.674-8.299c0.479-2.228-3.503-2.387-4.715-4.433c-0.655-1.105-2.146-1.768-2.641-2.901
		c-0.82-1.883-1.757-2.037-3.372-1.116c-3.646,2.078-7.462,2.013-11.342,0.733c-1.453-0.479-2.521-0.513-2.646,1.539
		c-0.241,3.978-0.567,7.957,0.065,11.91C151.581,107.07,156.48,111.606,159.137,111.693 M162.098,93
		c4.761,0.046,7.897,3.207,7.902,7.967c0.006,4.736-3.142,7.961-7.837,8.032c-3.864,0.058-8.145-4.13-8.157-7.983
		C153.99,96.587,157.654,92.958,162.098,93"/>
	<path clip-path="url(#SVGID_2_)" fill="#F5E827" d="M113.148,110.887c3.028-1.115,6.128-0.911,9.219-0.876
		c9.373,0.107,18.772-0.642,28.611,1.371c-2.135-3.414-2.952-5.995-7.628-6.734c-10.689-1.689-20.679,0.947-30.881,2.62
		c-0.619,0.101-2.183,0.296-1.899,2.45C110.92,112.375,112.717,111.046,113.148,110.887"/>
	<path clip-path="url(#SVGID_2_)" fill="#F5E827" d="M194.438,243.433c-4.741,1.213-8.208-0.227-12.095-2.284
		c-0.689,5.296-5.085,6.025-9.158,7.255c1.807,2.655,2.114,6.224,5.227,8.107c0.161-0.052,0.322-0.104,0.484-0.156
		c0.312-8.195,1.438-10.057,5.82-10.366c3.905-0.277,7.485,0.295,8.155,4.846c1.505-0.707,2.993-1.443,4.464-2.209
		C197.261,246.437,198.248,242.459,194.438,243.433"/>
	<path clip-path="url(#SVGID_2_)" fill="#313480" d="M160.479,212.195c-2.071,2.719,1.815,6.043,2.511,9.28
		c0.715,3.321,2.344,2.281,3.407,0.495c2.435-4.086,4.466-8.382,3.354-13.431C166.554,209.685,162.199,209.937,160.479,212.195"/>
	<path clip-path="url(#SVGID_2_)" fill="#F5E827" d="M186.062,249.033c-2.547,0.039-4.045,1.486-4.016,4.03
		c0.01,0.819,0.201,1.484,0.52,2.038c2.474-0.892,4.907-1.862,7.302-2.908C189.509,250.278,188.248,249,186.062,249.033"/>
	<path clip-path="url(#SVGID_2_)" fill="#EEC998" d="M211.983,203.925c0.073-1.732-0.732-2.729-2.568-2.942
		c-1.604-0.188-2.188,0.615-2.89,1.905c-1.275,2.35,0.451,1.925,1.668,2.213c0.312,0.074,0.762,0.958,0.696,1.023
		c-2.886,2.916-0.125,5.543,0.406,8.393C213.071,211.551,211.831,207.57,211.983,203.925"/>
	<path clip-path="url(#SVGID_2_)" fill="#CC5D9A" d="M232.436,221.015c0.377-0.432,0.75-0.867,1.121-1.305
		c-0.596,0.316-1.249,0.569-2.012,0.688C231.88,220.546,232.171,220.769,232.436,221.015"/>
	<path clip-path="url(#SVGID_2_)" fill="#F5E827" d="M166.078,114.012c2.138,0.863,3.881,1.572,5.628,2.269
		c1.922,0.768,3.849,1.525,6.088,2.411c1.12-4.657-3.011-4.234-5.044-5.72C170.377,111.237,168.34,111.823,166.078,114.012"/>
	<path clip-path="url(#SVGID_2_)" fill="#CC5D9A" d="M223.661,206.32c-0.529-1.191-1.971-1.877-2.846-1.197
		c-2.269,1.763-3.836,0.327-5.668-1.026c-0.008,2.492-0.791,4.435,2.062,6.104c3.353,1.96,3.395-0.691,4.711-2.087
		C222.481,207.521,224.559,208.342,223.661,206.32"/>
	<path clip-path="url(#SVGID_2_)" fill="#CC5D9A" d="M222.739,193.443c1.34,2.884,3.678,1.348,5.545,1.304
		c0.776-0.018,1.522-1.371,2.282-2.117c-0.747-0.502-1.435-1.169-2.256-1.477c-3.433-1.29-7.002-1.446-10.812-0.602
		C219.727,190.729,221.773,191.367,222.739,193.443"/>
	<path clip-path="url(#SVGID_2_)" fill="#F5E827" d="M104.112,106.219c-1.593-0.113-2.914,1.408-3.074,3.239
		c-0.194,2.227,1.859,2.842,3.22,3.044c1.365,0.202,2.364-1.3,2.771-2.741C106.92,107.788,105.601,106.325,104.112,106.219"/>
	<path clip-path="url(#SVGID_2_)" fill="#CC5D9A" d="M233.298,206.242c3.671,4.883,6.338,5.055,8.223,0.898
		C238.81,206.71,235.986,207.6,233.298,206.242"/>
	<path clip-path="url(#SVGID_2_)" fill="#313480" d="M176.581,106.36c-1.308-0.959-1.678,0.687-1.876,1.437
		c-1.086,4.13,4.005,2.221,4.502,6.165C180.846,109.24,178.521,107.781,176.581,106.36"/>
	<path clip-path="url(#SVGID_2_)" fill="#CC5D9A" d="M216.019,198.376c1.605-2.089-1.877-2.96-1.571-4.996
		c-0.65,2.682-3.237,2.665-4.977,4.347C211.8,196.213,213.64,201.473,216.019,198.376"/>
	<path clip-path="url(#SVGID_2_)" fill="#CC5D9A" d="M228.073,215.09c-0.022,0.031-0.036,0.065-0.053,0.1
		c0.056,0.002,0.112,0.008,0.168,0.01c0,0-0.035-0.033-0.068-0.064L228.073,215.09z"/>
	<path clip-path="url(#SVGID_2_)" fill="#CC5D9A" d="M224.294,215.063c-1.751,0.152-1.704,1.685-0.92,2.406
		c1.252,1.154,3.197,0.79,4.625,0.368c1.332-0.394-0.462-1.708,0.021-2.648C226.776,215.124,225.523,214.956,224.294,215.063"/>
	<path clip-path="url(#SVGID_2_)" fill="#CC5D9A" d="M228.121,215.135c0.032,0.032,0.067,0.064,0.067,0.064v-0.288
		c-0.038,0.062-0.083,0.11-0.119,0.175C228.071,215.088,228.097,215.111,228.121,215.135"/>
	<path clip-path="url(#SVGID_2_)" fill="#CC5D9A" d="M228.188,214.911c1.417-2.317,3.908-2.852,6.341-3.637
		c-2.177,0.004-4.169-0.507-6.341-1.394V214.911z"/>
	<path clip-path="url(#SVGID_2_)" fill="#CC5D9A" d="M241.238,199.613c-1.668-1.23-2.311-2.805-4.024-3.248
		C236.46,199.225,237.188,200.67,241.238,199.613"/>
	<path clip-path="url(#SVGID_2_)" fill="#CC5D9A" d="M218.409,198.198c2.413,0.932,3.538,2.666,5.261,1.358
		c0.334-0.252,0.165-1.167,0.229-1.776C222.468,197.889,221.038,197.998,218.409,198.198"/>
	<path clip-path="url(#SVGID_2_)" fill="#CC5D9A" d="M230.357,202.731c0.252,0.402,0.917,0.545,1.394,0.807
		c0.426-1.1,0.342-2.188-0.117-3.441C230.833,200.884,229.438,201.258,230.357,202.731"/>
	<path clip-path="url(#SVGID_2_)" fill="#E19E3A" d="M155.49,132.18c-0.463-0.058-0.966-0.257-1.38-0.14
		c-0.573,0.163-2.448-0.594-1.259,1.15C153.841,134.642,154.561,132.688,155.49,132.18"/>
	<path clip-path="url(#SVGID_2_)" fill="#191814" d="M89.443,149.972c-2.426-3.782-6.155-3.075-9.985-2.813
		c0.472,2.269,2.164,4.008,0.643,6.24c-0.39,0.573-0.512,2.052,0.764,2.487c1.421,0.482,1.943-0.438,2.483-1.621
		c0.815-1.787,1.488-4.377,4.207-1.511c0.61,0.645,1.861,0.366,2.649-0.504C91.338,150.999,89.885,150.66,89.443,149.972"/>
	<path clip-path="url(#SVGID_2_)" fill="#191814" d="M149.23,168.669c1.585-2.4,6.132-1.088,6.423-4.097
		c0.217-2.248-2.329-4.081-5.25-4.581c-1.594,0.573-3.533,0.732-3.484,3.571C146.957,165.745,147.471,167.409,149.23,168.669"/>
	<path clip-path="url(#SVGID_2_)" fill="#191814" d="M126.18,142.087c0.014,1.953,1.798,3.725,3.727,3.727
		c1.889,0.002,3.766-1.182,2.965-4.049c0.912-2.551-0.671-2.677-2.843-2.843C127.468,138.727,126.166,140.122,126.18,142.087"/>
	<path clip-path="url(#SVGID_2_)" fill="#191814" d="M167.643,144.052c-1.832-0.158-2.594,1.002-2.652,2.761
		c-0.056,1.681,0.438,2.984,2.285,3.15c1.977,0.178,2.7-1.517,3.791-2.803C170.332,145.626,169.451,144.208,167.643,144.052"/>
	<path clip-path="url(#SVGID_2_)" fill="#191814" d="M162.163,108.999c4.695-0.07,7.843-3.296,7.837-8.032
		c-0.005-4.76-3.142-7.921-7.902-7.967c-4.442-0.043-8.106,3.587-8.092,8.016C154.018,104.869,158.299,109.057,162.163,108.999
		 M162.177,96.31c2.095,0.105,4.782,1.508,4.82,4.683c0.039,3.242-2.833,3.645-5.08,5.145c-1.528-1.496-3.941-2.393-3.873-5.131
		C158.108,98.384,160.079,96.205,162.177,96.31"/>
	<path clip-path="url(#SVGID_2_)" fill="#F5E827" d="M161.916,106.139c2.248-1.5,5.119-1.904,5.08-5.145
		c-0.038-3.175-2.724-4.578-4.819-4.683c-2.098-0.106-4.067,2.073-4.133,4.697C157.977,103.745,160.39,104.642,161.916,106.139"/>
</g>
</svg>
