<?xml version="1.0" encoding="utf-8"?>
<!-- Generator: Adobe Illustrator 17.1.0, SVG Export Plug-In . SVG Version: 6.00 Build 0)  -->
<!DOCTYPE svg PUBLIC "-//W3C//DTD SVG 1.0//EN" "http://www.w3.org/TR/2001/REC-SVG-20010904/DTD/svg10.dtd" [
	<!ENTITY ns_extend "http://ns.adobe.com/Extensibility/1.0/">
	<!ENTITY ns_ai "http://ns.adobe.com/AdobeIllustrator/10.0/">
	<!ENTITY ns_graphs "http://ns.adobe.com/Graphs/1.0/">
	<!ENTITY ns_vars "http://ns.adobe.com/Variables/1.0/">
	<!ENTITY ns_imrep "http://ns.adobe.com/ImageReplacement/1.0/">
	<!ENTITY ns_sfw "http://ns.adobe.com/SaveForWeb/1.0/">
	<!ENTITY ns_custom "http://ns.adobe.com/GenericCustomNamespace/1.0/">
	<!ENTITY ns_adobe_xpath "http://ns.adobe.com/XPath/1.0/">
]>
<svg version="1.0" xmlns:x="&ns_extend;" xmlns:i="&ns_ai;" xmlns:graph="&ns_graphs;"
	 xmlns="http://www.w3.org/2000/svg" xmlns:xlink="http://www.w3.org/1999/xlink" x="0px" y="0px" viewBox="0 0 283.5 283.5"
	 enable-background="new 0 0 283.5 283.5" xml:space="preserve">
<metadata>
	<sfw  xmlns="&ns_sfw;">
		<slices></slices>
		<sliceSourceBounds  width="262.6" height="262.6" x="15" y="10.4" bottomLeftOrigin="true"></sliceSourceBounds>
	</sfw>
</metadata>
<g id="Calque_2">
	<circle fill="#FFE783" cx="146.3" cy="141.7" r="121"/>
</g>
<g id="Calque_4">
	<g>
		<path fill="#120703" d="M66.7,156.7c1.1-15.5,4.2-30.4,12.6-43.8c3.2-5,7.1-9.4,12-12.5c6.4-4.1,11.5-10.1,18.6-12.7
			c10-3.7,19.5-9.3,30.9-8.3c3.3,0.3,7.1-0.5,10.6-1.1c6-0.9,11.7,0.4,15.6,5.8c2,2.8,5,2,7.1,1.2c7.1-2.8,12.7-0.2,18.1,4.1
			c6,4.9,9.4,11.4,11.6,18.7c-0.1,0.7-0.2,1.4-1,1.7c-2.4-1.7-2.9-4.5-4-6.9c-2.6-5.7-6.7-10-11.8-13.5c-2.3-1.1-4.6-2.5-7.5-1.9
			c1,0.7,2,1.2,2.9,1.9c0.3,0.2,0.6,0.4,0.9,0.6c1.9,1.9,4,3.7,5.6,5.8c8.2,12.5,12.7,26.5,15.9,41c1.6,7.4,3.1,14.9,3.5,22.5
			c-0.3,1.1-0.8,1.9-2.1,1.6c-1.6-1.5-1.5-3.6-1.9-5.5c-2-12.6-4.3-25.1-8.4-37.2c-1.8-5.4-4.3-10.7-7-15.7c-3.3-6-8.1-10.4-14.4-13
			c-0.9-0.4-1.9-0.7-2.8-0.9c-0.5-0.1-1-0.2-1.4,0.1c-0.1,0.4,0.3,0.6,0.6,0.8c11.6,4.7,17.6,14.3,21.6,25.4
			c3.8,10.7,5.1,21.9,6.3,33c0.5,4.5,1.5,8.9,1.8,13.3c0.1,1.1,0.5,2.2,0,3.3c-0.7,1.2-1.5,1.2-2.5,0.4c-2.4-3.6-2.3-7.8-2.8-11.8
			c-1.3-12.6-2.5-25.3-6.9-37.3c-2.9-8.1-6.9-15.5-14.5-20.2c-2.8-2.4-6.2-3.4-9.8-4.1c3.4,1.2,6.5,2.9,9.1,5.4
			c2.7,2.3,4.5,5.4,5.9,8.6c6.9,15.4,11.6,31.4,13.5,48.1c0.5,4.3-0.1,8.7,0.7,13.1c-0.4,1.4-0.5,3.2-2.8,1.8
			c-2.1-4.4-1.4-9.3-1.9-13.9c-1.8-17.6-6-34.5-14.5-50.2c-2.6-4.8-6.4-7.5-11.5-8.6c-1.9-1.1-4.1-0.6-5.8-1
			c3.6,0.6,6.3,3.2,9.5,5.1c3.1,2.4,4.8,5.7,6.3,9.1c6.4,14.6,9.9,30,11.3,45.9c0.5,5,1.1,9.9,0.4,14.9c-0.5,1-1,1.9-2.3,1.6
			c-1.6-4.6-1.1-9.5-1.6-14.3c-1.8-16.7-5.1-33-12.3-48.2c-2.4-5.1-6.5-8.4-11.9-10c-2.8-0.9-5.6-0.9-8.3,0.5
			c-1.1,0.5-2.3,1-3.4,2.2c3.6-1.2,6.9-1,10.1,0.2c6.2,2.4,8.9,7.8,11.2,13.4c4.6,11.1,7.1,22.8,8.5,34.7c0.7,6,1.6,12.1,1.5,18.2
			c0,1.4,0.1,2.7-0.4,4.1c-1.7,2.1-2.5,0.9-3-0.9c-0.8-2.9-0.8-5.9-1-8.9c-0.7-16.3-4.1-32.1-10.2-47.3c-0.9-2.2-2.1-4.3-3.6-6.1
			c-3.6-4.1-9.2-5-14.7-2.4c-1.4,0.7-2.7,1.9-4.5,1.5c-0.4-0.2-0.6-0.5-0.7-0.9c1.1-4.1,0.7-5.2-3.5-7.3c-9.5-4.9-19.4-4.7-29.5-1.8
			c-17.2,5-25.1,18.3-30.2,34c-2.9,9.1-4.7,18.4-5.3,27.9c-0.1,1.6,0.1,3.6-2.3,4.1C66.1,161.3,66.3,159,66.7,156.7z"/>
		<path fill="#090704" d="M111,198.2c3.7-2.6,7.4-5.1,10.8-7.9c3.5-2.9,4.2,1.6,6.4,2.1c1.8,0.4,1.3,1.7,1.1,3.2
			c-1.9,12.3-1.8,24.5,3.4,36.2c0.9,2,1.9,3.3,4.1,3c4-0.6,4.7,1.9,5.1,5.1c1,7.6,0.4,15.2,0.7,22.7c0.1,1.3,0.1,2.5,0,3.8
			c3.1,0.2,6.2,0.4,9.3,0.6c0.7-3.5,1.1-7.1,1.3-10.7c0.9-20.2-1.6-40.1-7.4-59.5c-1.3-4.4-0.2-6,4.5-6c3.2,0,6.2-0.3,9.3-0.9
			c11.3-2.6,21.7-6.9,28.5-17.1c1-1.6,2.3-3.1,1.4-5.1c-0.6-0.9-1.3-0.5-2-0.1c-3,3.5-5.3,7.7-9.5,10c-0.8,0.5-1.6,1.2-2.5,1.7
			c-5.7,3.4-11.6,6.3-18.4,7.2c-1,0.1-3,1.1-3-0.9c0-5-2.1-2.3-3.7-1.2c-5.7,4.2-12,6-19,5.1c-1.1-0.1-2.5-0.2-2.7-1.5
			c-0.2-1.2,1-1.6,1.8-2.2c5.9-4.2,12.3-7.2,19.5-8.2c3.3-0.4,7-1.4,9.8,1.8c0.5,0.6,1.4,0.6,2.1,0.2c0.6-0.4,0.7-1,0.6-1.6
			c-0.2-3.5-7.8-10.6-11.3-10.5c-0.9,0-1.8,0.2-2.1,1.2c-0.4,1.1,0.1,1.9,1,2.5c0.7,0.5,1.6,0.7,2.5,0.9c0.6,0.2,1.3,0,1.7,0.9
			c-1.7,0.5-3.5,0.1-5.2,0.4c-0.3,0.1-0.7,0.1-1,0.3c-1.7,0.4-3.5,0.6-5.2,1.2c-9.7,2.9-17.9,8.7-25.8,14.8
			c-8,6.2-15.3,13.1-23.8,18.6c-4.6,3-9.4,5.8-15.1,6c-4.9,0.2-7.8-2.4-8.1-7.2c-0.1-1.9,0.1-3.7-0.1-5.6c-0.3-0.9-0.2-2.1-1.7-1.9
			c-0.5,2.2-1.5,4.5-1.3,6.7c0.3,4.2,0.7,8.6,5.9,10.1c1.4,0.4,1.9,1.5,2.4,2.7c1.8-0.8,3.7-1.6,5.8-1.2c1.5-0.1,2.7,0.3,3.5,1.7
			c0.4,0.6,0.9,1.4,1.7,1.1c0.9-0.3,0.8-1.2,0.7-1.9c-0.4-2.7,1.6-3.3,3.5-4.1c2.1-0.9,2.9,0.3,3.7,1.9c0.3,0.7,0.9,1.4,1.7,1.1
			c1.1-0.3,0.9-1.3,0.8-2.2c-0.4-4.8-0.3-5,4.2-7c0.7-0.3,1.1-0.9,1.4-1.5c3.1-3.9,4.9-4.5,7.8-2.6c1-0.6,0.9-1.4,0.3-2.3
			C109,200.4,109.4,199.3,111,198.2z"/>
		<path fill="#090703" d="M207.7,130.1c2.2,9.5,2.8,19.2,3.1,28.9c0,0.8-0.5,1.4-0.9,2c-5.6,7.9-6.1,16.7-3.5,25.5
			c4,13.8,8.3,27.5,10.4,41.7c0.4,2.7,2,4.6,4.8,5.1c2.4,0.4,3.5,1.8,4.1,3.7c1.5-0.4,3-0.7,4.5-0.8c0-1.3,0.6-1.6,2.5-1.8
			c3.7-3.1,7.4-6.3,10.7-9.8c4.4-4.6,9.3-9.9,10.3-16.4c0.5-3.1,3-4,5.3-3.5c-2.2-8.6-5.7-16.7-9.7-24.5c-3.6-6.9-7.5-13.7-13.5-19
			c-4-3.5-8.5-6.5-12-10.5c-2.1-2.4-4.7-4.1-7.5-5.4c-2.1-0.9-3.3-2-3.5-4.6c-0.4-4.2-1.1-8.3-2.1-12.4c-1.7-6.9-3.3-14-6.6-20.4
			c-0.6,0.3-0.7,0.9-0.8,1.5c-1,1.5-0.2,2.9,0.2,4.3C205.1,119.2,206.4,124.6,207.7,130.1z"/>
		<path fill="#110804" d="M69.1,201.9c-0.1-0.9,0.1-1.9-0.9-2.4c0.5-5.4-1.7-10.5-1.8-15.8c-0.3-9-1.1-18,0.3-27
			c0.4,2.3-0.7,4.7,0.8,6.8c1.5,1.6,1,3.5,1,5.4c-0.1,6.1,0.1,12.1,1.3,18.4c3.1-5.9,3.6-11.6,3.2-18.1c-1-15.2-0.5-30.6,6.9-44.5
			c4.8-9,11.7-16.2,20.9-20.8c7.8-3.9,16-4.8,24.4-2.2c4.4,1.3,8.7,3,12.8,5.2c0,0.2,0,0.4,0,0.6c-0.7,3.3-2.9,2-4.6,1.3
			c-4.9-2-9.8-3.6-15-4.5c-10.7-1.9-24.1,5.9-26.7,16.5c-1,3.8-1.1,7.4-5,9.5c-1.1,0.6-1.5,2.4-0.6,3.7c0.8,1.3,2.2,1.4,3.7,1.3
			c5.6-0.6,11.1-1.4,16.8-1.1c2.4,0.1,4.1,0.1,4,3.7c-0.1,2.3,0.2,5.2,2.3,7.3c1.5,1.5,0.4,2.4-1.2,2.8c-1.3,0.3-2.7,0.1-4.1,0.2
			c-4.4,0.4-8.7,1.3-12.1,4.4c-3.6,3.3-2.9,6.8,1.6,8.6c6.3,2.6,12.5,1.2,18.6-1.1c1.3-0.5,2.4-1.3,3.7-1.8c1-0.4,2.2-1.5,3-0.3
			c0.8,1.2-0.1,2.4-1,3.3c-2,1.8-4.5,2.6-6.9,3.6c-2.2,0.8-4.6,1.2-7,1.4c-4.3,1.2-8.4,0.2-12.5-1.1c-5.7-3.1-5.8-3.2-9.9,2.1
			c-7,8.9-11.4,19-13.8,30C70.9,198.8,71.4,201,69.1,201.9z"/>
		<path fill="#A75B18" d="M101.4,206.1c1.4-2.3,3.8-3.4,5.9-4.5c2-1,1.6,1.4,2.2,2.4c1.7,2.2,2.8,4.6,2,7.5c-3-0.2-5.3,1-7.3,3.1
			c-0.2-0.1-0.3-0.2-0.5-0.3C102,211.8,101.7,209,101.4,206.1z"/>
		<path fill="#A25E25" d="M81.2,216.8c2.8-0.8,3.7,1.2,4.8,3.5c-2.1-5.9,2.6-6,5.6-7.3c1.2-0.5,1.2-0.4,4.1,4.3
			c0.7-2.4-2.1-4.5-0.7-6.3c1.2-1.7,2.9-3.5,5.5-3.2c0.2,0.2,0.3,0.4,0.2,0.6c0,0.2-0.1,0.3-0.1,0.3c-4.1,3.9-4.1,3.9-1.5,7.3
			c-0.5,1-1.4,2.3-2.3,2.1c-5.7-1.2-9.7,3.7-14.9,4c0-1.5,1.4-3.3-0.8-4.4C80.8,217.3,80.9,217.1,81.2,216.8z"/>
		<path fill="#A25C1E" d="M99.1,216c-3-1-3.8-3.1-1.8-5.3c0.9-1,1.7-2.2,3.3-2.2c2.6,1.1,1.7,4.3,3.6,5.8c0,0,0.2,0.2,0.2,0.2
			C102.9,216,100.5,214.5,99.1,216z"/>
		<path fill="#A45E22" d="M80.9,217.4c3.9,1.4,4,1.7,0.9,4.6c-1.7,0.4-2.1,3.2-4.5,2.3c0-0.7-0.2-1.4-0.5-2.1
			C75.2,217.3,75.6,216.7,80.9,217.4z"/>
		<path fill="#372920" d="M111.6,211.4c-0.7-2.5-1.4-5-2-7.5c0.9-0.5,0.5-1.4,0.7-2.1c1.8,2.6,2,5.8,2.9,8.8
			C113.6,212.2,112.7,212.3,111.6,211.4z"/>
		<path fill="#352517" d="M80.9,217.4c-4.8,0-4.8,0-3.4,4.4c0.3,0.9,0.9,1.8-0.2,2.6c-1.5-1.5-1.7-3.5-2.2-5.5
			c1.2-3.1,3.7-2.2,6-2.1C81.1,217,81,217.2,80.9,217.4z"/>
		<path fill="#928B00" d="M151.2,266.9c7.6,0.5,15.3,1.1,22.9,1.6c0.3-1.2,1-2.2,2.4-2.9c14.3-6.9,28.9-12.6,42.2-21
			c-0.9-2.6,0.8-5.4,3.4-6.5c1.5-0.6,3-1.1,4.6-1.4c-0.1-0.2-0.1-0.5-0.1-0.7c-0.5-2.3-1.5-3.5-4-3.5c-3.2,0.1-4.7-1.7-5-4.8
			c-0.1-1.1-0.3-2.2-0.5-3.3c-1.8-12.3-5.6-24-9.2-35.8c-3-9.8-3.5-19.5,3.8-28c0.4-0.5,0.6-1.1,0.2-1.7c-1.4-0.9-2.7-1.1-4,0.1
			c-0.2,0.9-0.6,1.6-1.7,1.4c-3.7-1.2-4.5-0.8-6,3.8c-0.6,0.8-1.2,0.5-1.8,0c-2.9-1.6-4.3,0.5-5.8,2.3c-0.3,0.7-0.1,2-1.6,1.5
			c-0.5-1-1.1-1.6-2.2-0.7c0.1,4.4-3,7-5.7,9.6c-9.2,8.8-20.4,12.7-33,12.6c-5.3,0-7.1,2.1-5.6,7c6,19.7,8.8,39.9,7.4,60.5
			C151.8,260.4,151.7,263.7,151.2,266.9z"/>
		<path fill="#FED522" d="M230.6,236.1c1.2-1,2.4-1.9,3.5-2.9c-0.7,0-1.3,0.1-2,0.1c-3.1,0.1-3.5,0.9-3.2,3
			C229.5,236.2,230,236.1,230.6,236.1z"/>
		<path fill="#FED522" d="M107.2,165.5c3.5-0.8,7.1-1.4,10.4-3c1.9-0.9,3.8-1.9,4.9-4.8c-4.8,2.8-9.2,4.7-14.1,5.4
			c-4.3,0.6-8.5,0.4-12.5-1.3c-4.6-2-5.5-5.9-1.9-9.5c4.2-4.4,9.8-5.1,15.5-5.3c1.2,0,2.4,0.6,3.6-0.4c-3.8-2.7-3.8-6.4-3-10.3
			c0.4-1.8-0.9-1.4-1.7-1.4c-5.4-0.4-10.7,0.4-16.1,1c-1,0.1-2,0.2-3,0.3c-1.9,0.2-3.5-0.2-4.6-1.9c-1.1-1.7-0.1-3.1,0.8-4.5
			c0.8-1.3,2-2.2,3.3-2.9c1-0.5,4.6-0.2,0.9-2.6c-0.9-0.5,0-1.9,0.3-2.8c3.3-11.8,16.1-20.1,28.3-18.4c5.6,0.8,10.9,2.6,16.1,4.9
			c1.7,0.7,2.7,1,3.6-0.7c1.4,0.2,2.2-0.9,3.2-1.6c5.8-4,14.3-2.4,18.2,3.5c2.5,3.8,4.1,7.9,5.5,12.2c5.1,15.7,7.6,31.8,8,48.2
			c0.1,2.3,0.2,2.3,2,2.1c2.1-2.9,3.3-3.1,6.7-1.3c1.4,2,1.2,3.8-0.8,5.3c-0.8,0.7-1.8,1.3-2.3,2.3c-8,5.9-16.7,9.6-27.2,9.6
			c0.7-1.7,2.2-2.6,2.3-4.7c-3.4,2.7-6.5,4.9-10.2,6.2c-5.2,1.9-10.4,2.5-15.7,0.3c-1.7-0.7-2.2-1.5-0.4-2.8
			c7.8-5.9,16.4-10.1,26.4-10.4c2.4-0.1,5.1-0.7,6.3,2.6c0.1,0.3,0.9,0.7,1.2,0.6c0.9-0.2,0.6-1,0.3-1.5c-2-4-4.6-7.4-8.9-9.2
			c-1.1-0.5-2.8-1.3-3.3,0.1c-0.9,2.1,1.7,1.4,2.5,2.2c0.2,0.2,0.7,0.1,1.1,0.2c1.5,1.1,1.9,2.1-0.5,2.5c-1.3,0.2-2.7-0.4-4,0.5l0,0
			c-1.7,0.7-3.8-0.2-5.3,1.4c-12.3,4.2-22.3,12.1-32.2,20.1c-7.5,6.1-14.6,12.9-23.7,17c-2.5,1.1-5,2.2-7.8,2.6
			C73,216.1,69,212.6,69,206c0-1.4,0.1-2.7,0.1-4.1c1.9-8,3.8-16,7.6-23.4c2.9-5.7,6.4-11,10.6-15.8c1.6-1.9,2.9-3.5,5-0.4
			c0.5,0.8,1.5,1.2,2.3,1.8C98.7,166.1,102.8,166.9,107.2,165.5z"/>
		<path fill="#AA5A14" d="M138,106.7c-1.4,0.9-2.6,0.1-3.8-0.5c-20.3-11-37.4-2.7-49.1,12.2c-7.2,9.1-9.8,19.8-10.8,31
			c-0.8,9-1.3,17.9,0.5,26.8c0.1,0.7,0.2,1.6-0.2,2.2c-2,3.7-2.9,7.9-4.8,12.7c-2.8-9.6-2.1-18.6-2.2-27.6c1.3-9,2-18.1,4.5-26.9
			c3.1-11.2,7.2-21.8,15.5-30.2C98.9,94.9,120,91.1,133.7,98c1.4,0.7,2.7,1.7,4.1,2.6C140.5,102.5,141,104.5,138,106.7z"/>
		<path fill="#AC5911" d="M181.5,171c-2.4-1.5-4.5-0.8-6.5,0.8c-0.5-14.2-2-28.3-5.4-42.2c-1.6-6.5-3.7-12.9-6.9-18.9
			c-2-3.9-4.8-7-8.9-8.7c-1.7-1.4-3.7-1.1-5.6-1c-2.7,0.1-2.1-1.2-1.1-2.7c5-3,9.7-1.3,14.1,1.2c4.6,2.6,7.6,6.7,9.6,11.6
			c5.9,14.9,9.6,30.4,10.8,46.4c0.3,4.5,0.5,9,0.7,13.4C182,171.3,181.8,171.2,181.5,171z"/>
		<path fill="#AB5A11" d="M191.1,168c-0.7-0.2-1.5-0.4-2.2-0.7c-0.5,0.2-0.9,0.4-1.4,0.6c-1.4,0-2,2.1-3.7,1.5
			c-0.3-20.2-3.5-39.7-11.2-58.5c-1.7-4.1-3.6-7.9-7-10.9c-1-1.5-2.7-2-4-3.2c-0.7-0.7-2.5-0.8-1.8-2.2c0.5-1,1.9-0.6,3-0.2
			c7.2,1.1,10.8,6.1,13.9,12.2c7.6,15.1,11.5,31.2,13,48C190.2,159.1,190.7,163.5,191.1,168z"/>
		<path fill="#AA5B13" d="M211.9,158.9c-1.3,0-2.7,0-4,0.1c-1.5-9.2-2.9-18.4-5-27.4c-3.1-12.8-7.8-24.9-14.7-36.1
			c-1.2-2.4-3.1-4-5.2-5.4l0,0c-0.8-0.9-2.1-1.3-2.3-3c2.6-0.8,4.5,1.3,6.8,1.5c5.2,3,9.2,7.1,11.7,12.6c1.3,2.8,2.8,5.5,4.1,8.3
			C208.7,125.5,211.8,142,211.9,158.9z"/>
		<path fill="#AA5A14" d="M198.5,164.2c-2.4-0.4-3.8,1.6-5.8,2.3c-0.7-9.9-1.3-19.9-3.6-29.6c-2.7-11.7-6.8-22.9-11.8-33.8
			c-1.1-2.5-3.2-4.1-4.7-6.2c-0.3-0.7-1.2-1.5-0.6-2.3c0.6-0.8,1.5-0.5,2.3-0.1c7.7,4.3,11.8,11.4,14.8,19.4
			c3.9,10.2,5.4,20.9,6.7,31.6C196.6,151.7,196.5,158.1,198.5,164.2z"/>
		<path fill="#A75C15" d="M206.3,160.4c-3.3-0.7-4.6,1.6-6,3.8c-2.2-12.4-2.9-25-5.3-37.3c-1-4.8-2.2-9.5-4-14
			c-4.4-11.3-11.4-20.1-23.8-24c2.2-2.4,4.3-1.9,6.4-1.1c8.2,2.9,13.6,8.6,17.6,16.3c6.8,13.1,10,27.3,12.8,41.6
			C204.9,150.6,205.5,155.5,206.3,160.4z"/>
		<path fill="#AB5A12" d="M135.1,88.5c3.3,1.5,5.8,4.2,8.4,6.6c1.3,1.2,1,2,0.1,3.4c-1.6,2.5-2.9,3.2-5.2,0.6
			c-1.9-2.1-4.8-3.1-7.2-4.5c-2.8-2-6-2.1-9.2-2.1c-2.5,0-5,0.1-7.5,0c-1,0-2.5,0.7-2.8-0.9c-0.2-1.2,1-1.9,2-2.4
			c5.2-2.6,10.6-3.3,16.3-2.1C131.8,87.5,133.4,88,135.1,88.5z"/>
		<path fill="#A75A15" d="M126.3,83.8c7.4-4.3,19.6-1.8,24.8,8.7c0.3,0.7,0.6,1.7-0.3,1.9c-1.9,0.3-3.7,2.6-5.8,0.7
			c-1.5-1.4-2.8-3.2-4.3-4.6c-2-1.8-4.2-3.6-6.8-4.5C131.5,84.9,129,84.5,126.3,83.8z"/>
		<path fill="#A55B1A" d="M143.2,81.4c6.1-0.5,10.8,1.8,14.3,6.4c0.7,0.9,2.5,2.4,0.5,3.3c-1.6,0.7-3.9,2.8-5.5,0.2
			C149.9,87.5,147.1,84,143.2,81.4z"/>
		<path fill="#A35C1B" d="M151.9,80.5c5.7-0.7,10,0,13.2,3.7c0.9,1,2.7,2.4,0.5,3.6c-1.7,0.9-4.3,2.5-5.6,0.6
			C157.9,85.5,155.5,83.2,151.9,80.5z"/>
		<path fill="#965925" d="M135.1,88.5c-3.8,0-7.4-1.9-11.4-1.5c-4.3,0.4-8.1,1.7-11.4,5.3c4.5,0,9,0.1,13.5,0
			c2.3-0.1,4.1,0.6,5.4,2.5c-8.4-2.4-17-2.2-25.6-1C111.2,86.6,126.4,84,135.1,88.5z"/>
		<path fill="#935D30" d="M174.3,94.4c-2.1-0.3-2.2,0.9-1.8,2.4c-3.3-2.4-6.7-4.6-11.2-4.9C164.5,89.4,168.9,90.4,174.3,94.4z"/>
		<path fill="#E6C942" d="M183.9,169.4c1.4-0.1,1.7-2.9,3.7-1.5c-2,4.2-5,7.6-9,10.1c0.1-1.1,0.9-1.8,1.7-2.3
			c1.7-1.3,2.1-2.8,1.3-4.7c0.2,0,0.5,0,0.7,0C183.5,171.1,183.5,170.1,183.9,169.4z"/>
		<path fill="#935D2B" d="M162.9,94.5c-0.8,0.1-1.7,0.1-2.7,0.2c1.4,2.5,4.8,2.6,5.6,5.3c-3.5-2-6.7-4.5-10.7-5.8
			C157.8,93.5,160.4,93.3,162.9,94.5z"/>
		<path fill="#905C2C" d="M147,98.2c-0.5,1.6-0.2,2.5,1.8,2.3c1.7-0.1,3.8-0.7,4.9,1.4c-3.5-1-7-0.7-10.5,0.7
			C144.1,99.9,144.1,99.9,147,98.2z"/>
		<path fill="#965E2B" d="M187.4,88.5c-2.1,0.3-4-1.1-6.4-1.3c0.7,1.1,1.3,2,1.9,2.9c-1.9-1-3.8-2.1-6.5-3.5
			C181.1,85.7,184.4,86.3,187.4,88.5z"/>
		<path fill="#965E2B" d="M183,90.1c2.7,0.8,4.6,2.5,5.2,5.4C186.5,93.7,184.7,91.9,183,90.1z"/>
		<path fill="#928B01" d="M137,193.6c4.4-2,5.3,1,6.2,4.2c2.9,10.2,4.6,20.6,5.9,31.1c0.3,2.3-0.3,3.3-2.8,3.7
			c-9.7,1.4-11.1,0.6-13.8-8.9c-2.3-8.2-2.5-16.4-1.6-24.8C131.2,195.1,132.2,192.2,137,193.6z"/>
		<path fill="#F5D127" d="M144.7,247.7c0.7,6.2,0.7,12.4,0.2,18.7c1.5,0.1,3,0.2,4.5,0.3c0.1-0.5,0.2-0.9,0.2-1.4
			c1.1-9.6,1-19.2,0.2-28.8c-0.2-2-1.2-2.4-2.7-1.8c-1.5,0.6-4.5-0.8-3.9,2.9C144,241,144.4,244.4,144.7,247.7z"/>
		<path fill="#32190B" d="M104.1,214.3c-3.1-0.8-1.9-4.2-3.6-5.8c0-0.2,0-0.5,0-0.7c0.7-0.3,0.8-1,0.9-1.7
			C102.6,208.8,103.5,211.5,104.1,214.3z"/>
		<path fill="#FED522" d="M148.5,174.1c0.9-1.3,2.3-0.8,3.4-0.8c1.8-0.1,1.7-0.9,1-2.2c1.6-0.3,1.8,1.2,3.1,2.1
			C153.3,174,150.9,174.1,148.5,174.1z"/>
		<path fill="#FED522" d="M143.2,175.5c1.3-2.2,3.4-1.4,5.3-1.4C146.9,175,145,175.2,143.2,175.5z"/>
		<path fill="#928B00" d="M218.9,221.7c1.2,8.8-0.6,8.8,10.9,9.3c2.6,0,5.1-0.2,7.7-0.6c2.1-1.9,4.1-3.8,6-5.8
			c4.4-4.6,9.3-9.9,10.3-16.4c0.3-2,1.5-3.1,3-3.5c-2.4-8.5-5.6-16.7-10-24.6c-3.9-7-8-13.8-14.2-19.1c-4.1-3.5-8.6-4.4-13.5-2.1
			c-4,1.8-7,4.8-8.8,8.8c-2.8,6.2-2.6,12.7-0.5,19C213.4,198.1,217.2,209.6,218.9,221.7z"/>
		<path fill="#8C870F" d="M225.8,155c-3.9,0.3-7.2,0.9-10.1,2.7c-1.2,0.7-1.8,0.6-1.9-0.9c0-2.7-0.1-5.5-0.1-8.2
			c0-1.5,0.8-1.5,1.9-1.1C219.6,149,222.7,151.4,225.8,155z"/>
		<path fill="#FBFBFB" d="M90,138.5c1.8-0.4,3-0.5,4.1,1.7c1.5,3,5.5,2.4,6.5-0.9c0.7-2.1,1.7-2,3.3-1.9c1.7,0,3,0.2,3.7,2.3
			c1.3,4.4,1.2,4.9-3.1,5.6c-4,0.7-7.6,2.2-10.8,4.8c-2.9,2.4-6.6,1.6-8.3-1.9c-1.3-2.6-1.1-5.3-0.2-8C86.1,137.7,88.4,139,90,138.5
			z"/>
		<path fill="#AB5A15" d="M79.6,169c-0.6,0.9-1.1,1.8-1.7,2.8c-1.9,0.7-1.7-0.6-1.8-1.7c-1-11.7,0.3-23.3,3-34.7
			c0.2-0.8,0.4-1.5,1.1-1.8c1.2-0.3,1.3,0.8,1.7,1.5c0.8,1.6,1.5,3.1,0.5,4.9c-0.5,0.9-0.6,1.9-0.5,2.9c0.5,4.1,0.2,8.2-0.5,12.2
			c-0.3,1.5-0.4,3.1,0,4.5C82.7,163.2,81.7,166.2,79.6,169z"/>
		<path fill="#9C5D28" d="M79.6,169c2.7-8.5,1.6-17.2,1.7-25.8c0-1,0.2-2,0.6-2.9c1.2-2.5,0.2-4.5-1.7-6.8c-1,4.9-2.1,9.3-2.9,13.7
			c-1.4,7.5-0.5,15.1-0.8,22.6c0,1,0.2,1.7,1.4,1.8c-0.3,0.5-0.6,1.6-0.9,1.5c-1.2,0-1-1.2-1.1-2c-0.8-7.1-1.1-14.2-0.1-21.3
			c1.3-8.5,2.4-17.1,6.7-24.8c2-3.6,4.4-6.9,7.9-9.5c-2.4,3.9-1.6,9.2-6,12.2c-1.7,1.2-2.4,3.3-2.1,5.4c1.2,7.4,0,14.8-0.5,22.2
			c-0.1,1.7-0.2,3.6,0.3,5.2C83.4,164.3,82.2,166.8,79.6,169z"/>
		<path fill="#9F5C20" d="M84.5,162.3c-0.9-3.4-0.4-6.5-0.5-9.5c0-0.5,0.4-1.3,0.7-1c1.6,1,4.1,0.9,5.1,2.6c0.8,1.4,0.2,3.1-1.2,4.3
			C87.4,159.7,86.1,160.9,84.5,162.3z"/>
		<path fill="#FED522" d="M107.2,165.5c-4.5,2-8.7,1.2-12.6-1.4C98.7,165.6,102.9,165.8,107.2,165.5z"/>
		<path fill="#0C0A07" d="M149.5,129.9c1.1-0.3,2.2-0.5,3.3-0.8c2-0.5,3.5-1.5,3.8-3.6c0.3-2.1-0.7-3.6-2.5-4.6
			c-0.7-0.4-2-0.6-1.4-1.7c0.7-1.3,1.8-0.3,2.6,0.2c5,2.8,5.2,8,0.2,10.8c-2,1.1-2.1,1.9-1.3,3.9c2.2,5.6,0.5,9.9-5,12.3
			c-7.2,3.1-14.7,3.9-22.3,1.8c-4.9-1.3-6.8-4.6-6.1-9.7c0.2-1.5,1.3-3.2-1.1-4.1c-0.5-0.2,0.4-1,0.7-1.5c1.2-1,2.6-0.5,3.9-0.5
			C132.7,133,141.1,131.4,149.5,129.9z"/>
		<path fill="#EBD356" d="M149.5,129.9c-9.6,3.1-19.4,3.2-29.4,3c0.6-1.1,1.7-0.9,2.6-0.9c7.5,0.1,15,0,22.3-2.1
			C146.5,129.5,148,129.9,149.5,129.9z"/>
		<path fill="#FAFBFA" d="M131.6,135.4c3-0.1,6-1.2,8.5,2.3c1.4,2.1,5.1,0.4,5.4-2.5c0.3-2.9,2.5-2.4,4-2.9c2.1-0.7,2.3,1.5,2.7,2.8
			c1.7,4.4,0.3,7.7-4.2,9.7c-6.9,3-14,3.2-21.2,1.3c-3.6-0.9-4.4-3.5-4.1-6.9c0.3-3.6,2.7-4,5.6-3.7
			C129.3,135.5,130.5,135.4,131.6,135.4z"/>
	</g>
</g>
<g id="Calque_3">
	<path fill="#F0F1F2" d="M146.3,10.4C73.8,10.4,15,69.2,15,141.7S73.8,273,146.3,273s131.3-58.8,131.3-131.3S218.8,10.4,146.3,10.4z
		 M146.3,262.7c-66.8,0-121-54.2-121-121s54.2-121,121-121s121,54.2,121,121S213.2,262.7,146.3,262.7z"/>
</g>
</svg>
