<?xml version="1.0" encoding="utf-8"?>
<!-- Generator: Adobe Illustrator 17.1.0, SVG Export Plug-In . SVG Version: 6.00 Build 0)  -->
<!DOCTYPE svg PUBLIC "-//W3C//DTD SVG 1.0//EN" "http://www.w3.org/TR/2001/REC-SVG-20010904/DTD/svg10.dtd" [
	<!ENTITY ns_extend "http://ns.adobe.com/Extensibility/1.0/">
	<!ENTITY ns_ai "http://ns.adobe.com/AdobeIllustrator/10.0/">
	<!ENTITY ns_graphs "http://ns.adobe.com/Graphs/1.0/">
	<!ENTITY ns_vars "http://ns.adobe.com/Variables/1.0/">
	<!ENTITY ns_imrep "http://ns.adobe.com/ImageReplacement/1.0/">
	<!ENTITY ns_sfw "http://ns.adobe.com/SaveForWeb/1.0/">
	<!ENTITY ns_custom "http://ns.adobe.com/GenericCustomNamespace/1.0/">
	<!ENTITY ns_adobe_xpath "http://ns.adobe.com/XPath/1.0/">
]>
<svg version="1.0" xmlns:x="&ns_extend;" xmlns:i="&ns_ai;" xmlns:graph="&ns_graphs;"
	 xmlns="http://www.w3.org/2000/svg" xmlns:xlink="http://www.w3.org/1999/xlink" x="0px" y="0px" viewBox="0 0 402 400.5"
	 enable-background="new 0 0 402 400.5" xml:space="preserve">
<metadata>
	<sfw  xmlns="&ns_sfw;">
		<slices></slices>
		<sliceSourceBounds  width="340.1" height="731.8" x="138" y="62.2" bottomLeftOrigin="true"></sliceSourceBounds>
	</sfw>
</metadata>
<g id="Calque_3_-_copie">
	<circle fill="#FF9B48" cx="200.3" cy="198.4" r="165.6"/>
</g>
<g id="Calque_3_-_copie_2">
	<g>
		<path fill="none" stroke="#000000" stroke-width="2" stroke-linecap="round" stroke-linejoin="round" stroke-miterlimit="10" d="
			M222,351.4C222,351.5,222,351.5,222,351.4C222,351.5,222,351.5,222,351.4z"/>
		<path fill="none" stroke="#000000" stroke-width="2" stroke-linecap="round" stroke-linejoin="round" stroke-miterlimit="10" d="
			M276.8,331.7c-0.2,0-0.4,0-0.6,0C276.4,331.8,276.6,331.7,276.8,331.7z"/>
		<path fill="none" stroke="#000000" stroke-width="2" stroke-linecap="round" stroke-linejoin="round" stroke-miterlimit="10" d="
			M265.5,331.1c-0.2-0.1-0.4-0.1-0.7-0.2C265.1,331,265.3,331,265.5,331.1z"/>
		<path fill="none" stroke="#000000" stroke-width="2" stroke-linecap="round" stroke-linejoin="round" stroke-miterlimit="10" d="
			M185.3,296c0-2.6-0.2-7.7-1-13.8C185.1,288.3,185.3,293.4,185.3,296z"/>
		<path fill="none" stroke="#000000" stroke-width="2" stroke-linecap="round" stroke-linejoin="round" stroke-miterlimit="10" d="
			M185.3,297.7c0,0,0-0.1,0-0.1C185.3,297.6,185.3,297.7,185.3,297.7z"/>
		<path fill="none" stroke="#000000" stroke-width="2" stroke-linecap="round" stroke-linejoin="round" stroke-miterlimit="10" d="
			M185.3,297.5c0,0,0-0.1,0-0.2C185.3,297.4,185.3,297.5,185.3,297.5z"/>
		<path fill="none" stroke="#000000" stroke-width="2" stroke-linecap="round" stroke-linejoin="round" stroke-miterlimit="10" d="
			M185.3,297.8C185.3,297.8,185.3,297.8,185.3,297.8C185.3,297.8,185.3,297.8,185.3,297.8z"/>
		<path fill="none" stroke="#000000" stroke-width="2" stroke-linecap="round" stroke-linejoin="round" stroke-miterlimit="10" d="
			M143.1,246.9c-4.5,2.7-6.2,6.9-6.1,11.7c0-0.5,0-1,0-1.5C138.8,254.8,141.1,251.3,143.1,246.9z"/>
		<path fill="none" stroke="#000000" stroke-width="2" stroke-linecap="round" stroke-linejoin="round" stroke-miterlimit="10" d="
			M180.2,274.2l3.1,1.7c-0.3-1.7-0.7-3.4-1.1-5.1L180.2,274.2z"/>
		<path fill="none" stroke="#000000" stroke-width="2" stroke-linecap="round" stroke-linejoin="round" stroke-miterlimit="10" d="
			M183.5,276.9c-0.1-0.3-0.1-0.6-0.2-0.8C183.4,276.3,183.4,276.6,183.5,276.9z"/>
		<path fill="none" stroke="#000000" stroke-width="2" stroke-linecap="round" stroke-linejoin="round" stroke-miterlimit="10" d="
			M184.3,282.2c-0.2-1.6-0.5-3.3-0.8-5.1C183.8,278.9,184.1,280.6,184.3,282.2z"/>
		<path fill="none" stroke="#000000" stroke-width="2" stroke-linecap="round" stroke-linejoin="round" stroke-miterlimit="10" d="
			M264.3,330.7c-0.2-0.1-0.4-0.1-0.6-0.2C263.9,330.6,264.1,330.7,264.3,330.7z"/>
		<path fill="none" stroke="#000000" stroke-width="2" stroke-linecap="round" stroke-linejoin="round" stroke-miterlimit="10" d="
			M224.7,353c-0.1,0.1-0.2,0.2-0.2,0.3C224.6,353.3,224.7,353.2,224.7,353z"/>
		<path fill="none" stroke="#000000" stroke-width="2" stroke-linecap="round" stroke-linejoin="round" stroke-miterlimit="10" d="
			M215.3,361.6c0.1,0.1,0.1,0.2,0.2,0.3C215.4,361.8,215.4,361.7,215.3,361.6z"/>
		<path fill="none" stroke="#000000" stroke-width="2" stroke-linecap="round" stroke-linejoin="round" stroke-miterlimit="10" d="
			M224.1,354C224.1,354,224.1,354,224.1,354C224.1,354,224.1,354,224.1,354z"/>
		<path fill="none" stroke="#000000" stroke-width="2" stroke-linecap="round" stroke-linejoin="round" stroke-miterlimit="10" d="
			M222.1,350.7C222.1,350.7,222.1,350.7,222.1,350.7C222.1,350.7,222.1,350.7,222.1,350.7z"/>
		<path fill="none" stroke="#000000" stroke-width="2" stroke-linecap="round" stroke-linejoin="round" stroke-miterlimit="10" d="
			M222.1,351.1C222.1,351.1,222.1,351.2,222.1,351.1C222.1,351.2,222.1,351.1,222.1,351.1z"/>
		<path fill="none" stroke="#000000" stroke-width="2" stroke-linecap="round" stroke-linejoin="round" stroke-miterlimit="10" d="
			M224.4,353.6c0,0.1-0.1,0.1-0.1,0.2C224.3,353.7,224.3,353.7,224.4,353.6z"/>
		<path fill="none" stroke="#000000" stroke-width="2" stroke-linecap="round" stroke-linejoin="round" stroke-miterlimit="10" d="
			M191.9,270.6c0-0.1,0-0.2,0-0.3C191.9,270.4,191.9,270.5,191.9,270.6z"/>
		<path fill="none" stroke="#000000" stroke-width="2" stroke-linecap="round" stroke-linejoin="round" stroke-miterlimit="10" d="
			M192.1,273.4c0-0.2,0-0.4,0-0.6C192,273,192,273.2,192.1,273.4z"/>
		<path fill="none" stroke="#000000" stroke-width="2" stroke-linecap="round" stroke-linejoin="round" stroke-miterlimit="10" d="
			M214.7,360.2c0.1,0.1,0.1,0.3,0.2,0.4C214.8,360.5,214.7,360.3,214.7,360.2z"/>
		<path fill="none" stroke="#000000" stroke-width="2" stroke-linecap="round" stroke-linejoin="round" stroke-miterlimit="10" d="
			M219.2,353.9c-0.3,0.2-0.6,0.4-0.9,0.6C218.7,354.3,219,354.1,219.2,353.9z"/>
		<path fill="none" stroke="#000000" stroke-width="2" stroke-linecap="round" stroke-linejoin="round" stroke-miterlimit="10" d="
			M214,359c0.1,0.1,0.1,0.2,0.2,0.4C214.1,359.2,214.1,359.1,214,359z"/>
		<path fill="none" stroke="#000000" stroke-width="2" stroke-linecap="round" stroke-linejoin="round" stroke-miterlimit="10" d="
			M185.3,296c0,0.5,0,1,0,1.3C185.3,297,185.3,296.6,185.3,296z"/>
		<path fill="none" stroke="#000000" stroke-width="2" stroke-linecap="round" stroke-linejoin="round" stroke-miterlimit="10" d="
			M160.8,301.1c0,0-0.1-0.1-0.2-0.2C160.7,301,160.8,301.1,160.8,301.1z"/>
		<path fill="none" stroke="#000000" stroke-width="2" stroke-linecap="round" stroke-linejoin="round" stroke-miterlimit="10" d="
			M160.9,301.2C160.9,301.2,160.9,301.2,160.9,301.2C160.9,301.2,160.9,301.2,160.9,301.2z"/>
		<path fill="none" stroke="#000000" stroke-width="2" stroke-linecap="round" stroke-linejoin="round" stroke-miterlimit="10" d="
			M160.6,300.9c-0.1-0.1-0.2-0.2-0.3-0.3C160.4,300.7,160.5,300.8,160.6,300.9z"/>
		<path fill="none" stroke="#000000" stroke-width="2" stroke-linecap="round" stroke-linejoin="round" stroke-miterlimit="10" d="
			M266.8,331.3c-0.2,0-0.5-0.1-0.7-0.1C266.3,331.3,266.6,331.3,266.8,331.3z"/>
		<path fill="none" stroke="#000000" stroke-width="2" stroke-linecap="round" stroke-linejoin="round" stroke-miterlimit="10" d="
			M159.8,300c-0.2-0.2-0.3-0.4-0.5-0.6C159.5,299.6,159.7,299.8,159.8,300z"/>
		<path fill="none" stroke="#000000" stroke-width="2" stroke-linecap="round" stroke-linejoin="round" stroke-miterlimit="10" d="
			M160.3,300.5c-0.1-0.1-0.3-0.3-0.4-0.5C160,300.2,160.1,300.3,160.3,300.5z"/>
		<path fill="none" stroke="#000000" stroke-width="2" stroke-linecap="round" stroke-linejoin="round" stroke-miterlimit="10" d="
			M268.1,331.6c-0.2,0-0.5-0.1-0.7-0.1C267.7,331.5,267.9,331.5,268.1,331.6z"/>
		<path fill="none" stroke="#000000" stroke-width="2" stroke-linecap="round" stroke-linejoin="round" stroke-miterlimit="10" d="
			M270.9,331.8c-0.2,0-0.5,0-0.7,0C270.4,331.8,270.7,331.8,270.9,331.8z"/>
		<path fill="none" stroke="#000000" stroke-width="2" stroke-linecap="round" stroke-linejoin="round" stroke-miterlimit="10" d="
			M137.4,262.1c-0.2-1.1-0.3-2.2-0.4-3.2C137.1,259.9,137.2,261,137.4,262.1z"/>
		<path fill="none" stroke="#000000" stroke-width="2" stroke-linecap="round" stroke-linejoin="round" stroke-miterlimit="10" d="
			M275.3,331.8c-0.2,0-0.5,0-0.7,0C274.9,331.8,275.1,331.8,275.3,331.8z"/>
		<path fill="none" stroke="#000000" stroke-width="2" stroke-linecap="round" stroke-linejoin="round" stroke-miterlimit="10" d="
			M269.5,331.7c-0.2,0-0.5,0-0.7-0.1C269,331.7,269.3,331.7,269.5,331.7z"/>
		<path fill="none" stroke="#000000" stroke-width="2" stroke-linecap="round" stroke-linejoin="round" stroke-miterlimit="10" d="
			M273.9,331.8c-0.2,0-0.5,0-0.7,0C273.4,331.9,273.6,331.9,273.9,331.8z"/>
		<path fill="none" stroke="#000000" stroke-width="2" stroke-linecap="round" stroke-linejoin="round" stroke-miterlimit="10" d="
			M159.2,299.3c-0.2-0.2-0.4-0.5-0.6-0.7C158.8,298.9,159,299.1,159.2,299.3z"/>
		<path fill="none" stroke="#000000" stroke-width="2" stroke-linecap="round" stroke-linejoin="round" stroke-miterlimit="10" d="
			M272.4,331.8c-0.2,0-0.5,0-0.7,0C271.9,331.8,272.1,331.8,272.4,331.8z"/>
		<path fill="none" stroke="#000000" stroke-width="2" stroke-linecap="round" stroke-linejoin="round" stroke-miterlimit="10" d="
			M144.1,278.5c-0.7-1.2-1.4-2.4-2-3.6C142.8,276.1,143.5,277.3,144.1,278.5z"/>
		<path fill="none" stroke="#000000" stroke-width="2" stroke-linecap="round" stroke-linejoin="round" stroke-miterlimit="10" d="
			M146.3,282.1c-0.7-1.1-1.4-2.3-2.1-3.5C144.9,279.8,145.6,280.9,146.3,282.1z"/>
		<path fill="none" stroke="#000000" stroke-width="2" stroke-linecap="round" stroke-linejoin="round" stroke-miterlimit="10" d="
			M142.1,274.9c-0.9-1.8-1.8-3.7-2.5-5.5C140.3,271.2,141.2,273.1,142.1,274.9z"/>
		<path fill="none" stroke="#000000" stroke-width="2" stroke-linecap="round" stroke-linejoin="round" stroke-miterlimit="10" d="
			M139.6,269.3c-0.5-1.2-0.9-2.4-1.3-3.6C138.7,266.9,139.1,268.1,139.6,269.3z"/>
		<path fill="none" stroke="#000000" stroke-width="2" stroke-linecap="round" stroke-linejoin="round" stroke-miterlimit="10" d="
			M138.3,265.6c-0.3-1.2-0.6-2.3-0.8-3.4C137.6,263.3,137.9,264.5,138.3,265.6z"/>
		<path fill="none" stroke="#000000" stroke-width="2" stroke-linecap="round" stroke-linejoin="round" stroke-miterlimit="10" d="
			M148.6,285.5c-0.7-1.1-1.5-2.2-2.2-3.4C147.1,283.3,147.8,284.4,148.6,285.5z"/>
		<path fill="none" stroke="#000000" stroke-width="2" stroke-linecap="round" stroke-linejoin="round" stroke-miterlimit="10" d="
			M158.6,298.6c-0.2-0.3-0.5-0.6-0.7-0.9C158.1,298,158.4,298.3,158.6,298.6z"/>
		<path fill="none" stroke="#000000" stroke-width="2" stroke-linecap="round" stroke-linejoin="round" stroke-miterlimit="10" d="
			M150.9,288.7c-0.7-1-1.5-2.1-2.2-3.2C149.4,286.7,150.1,287.7,150.9,288.7z"/>
		<path fill="none" stroke="#000000" stroke-width="2" stroke-linecap="round" stroke-linejoin="round" stroke-miterlimit="10" d="
			M157.8,297.7c-0.2-0.3-0.5-0.6-0.8-0.9C157.3,297.1,157.6,297.4,157.8,297.7z"/>
		<path fill="none" stroke="#000000" stroke-width="2" stroke-linecap="round" stroke-linejoin="round" stroke-miterlimit="10" d="
			M156.1,295.6c-0.3-0.4-0.6-0.8-0.9-1.1C155.5,294.9,155.8,295.2,156.1,295.6z"/>
		<path fill="none" stroke="#000000" stroke-width="2" stroke-linecap="round" stroke-linejoin="round" stroke-miterlimit="10" d="
			M157,296.7c-0.3-0.3-0.6-0.7-0.9-1.1C156.4,296,156.7,296.4,157,296.7z"/>
		<path fill="none" stroke="#000000" stroke-width="2" stroke-linecap="round" stroke-linejoin="round" stroke-miterlimit="10" d="
			M155.2,294.4c-0.6-0.8-1.3-1.7-2-2.6C153.8,292.7,154.5,293.6,155.2,294.4z"/>
		<path fill="none" stroke="#000000" stroke-width="2" stroke-linecap="round" stroke-linejoin="round" stroke-miterlimit="10" d="
			M153.1,291.7c-0.7-0.9-1.4-1.9-2.2-2.9C151.7,289.8,152.4,290.8,153.1,291.7z"/>
		<path fill="none" stroke="#000000" stroke-width="2" stroke-linecap="round" stroke-linejoin="round" stroke-miterlimit="10" d="
			M237.3,233.7c0.1-0.2,0.2-0.4,0.3-0.6C237.5,233.3,237.4,233.5,237.3,233.7z"/>
		<path fill="none" stroke="#000000" stroke-width="2" stroke-linecap="round" stroke-linejoin="round" stroke-miterlimit="10" d="
			M147.9,227.4c0,0.5,0,0.9,0,1.4C147.9,228.3,147.9,227.8,147.9,227.4z"/>
		<path fill="none" stroke="#000000" stroke-width="2" stroke-linecap="round" stroke-linejoin="round" stroke-miterlimit="10" d="
			M147.8,224.4c0,0.4,0,0.8,0.1,1.3C147.9,225.3,147.8,224.9,147.8,224.4z"/>
		<path fill="none" stroke="#000000" stroke-width="2" stroke-linecap="round" stroke-linejoin="round" stroke-miterlimit="10" d="
			M235.1,333.9c-0.2,0.5-0.4,1-0.7,1.4C234.7,334.9,234.9,334.4,235.1,333.9z"/>
		<path fill="none" stroke="#000000" stroke-width="2" stroke-linecap="round" stroke-linejoin="round" stroke-miterlimit="10" d="
			M147.9,225.9c0,0.4,0,0.9,0,1.3C147.9,226.8,147.9,226.4,147.9,225.9z"/>
		<path fill="none" stroke="#000000" stroke-width="2" stroke-linecap="round" stroke-linejoin="round" stroke-miterlimit="10" d="
			M263.2,330.3c-0.2-0.1-0.4-0.2-0.6-0.3C262.8,330.1,263,330.2,263.2,330.3z"/>
		<path fill="none" stroke="#000000" stroke-width="2" stroke-linecap="round" stroke-linejoin="round" stroke-miterlimit="10" d="
			M252.5,318C252.5,318,252.5,318,252.5,318C252.5,318,252.5,318,252.5,318z"/>
		<path fill="none" stroke="#000000" stroke-width="2" stroke-linecap="round" stroke-linejoin="round" stroke-miterlimit="10" d="
			M147.5,221.4c0,0.3,0.1,0.6,0.1,1C147.6,222.1,147.5,221.8,147.5,221.4z"/>
		<path fill="none" stroke="#000000" stroke-width="2" stroke-linecap="round" stroke-linejoin="round" stroke-miterlimit="10" d="
			M222,351.7C222,351.7,222,351.8,222,351.7C222,351.8,222,351.7,222,351.7z"/>
		<path fill="none" stroke="#000000" stroke-width="2" stroke-linecap="round" stroke-linejoin="round" stroke-miterlimit="10" d="
			M241.6,227.3c0.1-0.1,0.2-0.2,0.2-0.2C241.8,227.2,241.7,227.2,241.6,227.3z"/>
		<path fill="none" stroke="#000000" stroke-width="2" stroke-linecap="round" stroke-linejoin="round" stroke-miterlimit="10" d="
			M242.3,226.5C242.4,226.5,242.4,226.5,242.3,226.5C242.4,226.5,242.4,226.5,242.3,226.5z"/>
		<path fill="none" stroke="#000000" stroke-width="2" stroke-linecap="round" stroke-linejoin="round" stroke-miterlimit="10" d="
			M242,226.9c0.1-0.1,0.1-0.1,0.2-0.2C242.1,226.8,242.1,226.8,242,226.9z"/>
		<path fill="none" stroke="#000000" stroke-width="2" stroke-linecap="round" stroke-linejoin="round" stroke-miterlimit="10" d="
			M147.2,219.9c0,0.2,0.1,0.5,0.1,0.7C147.3,220.4,147.3,220.1,147.2,219.9z"/>
		<path fill="none" stroke="#000000" stroke-width="2" stroke-linecap="round" stroke-linejoin="round" stroke-miterlimit="10" d="
			M252.8,318.7C252.8,318.6,252.8,318.6,252.8,318.7C252.8,318.6,252.8,318.6,252.8,318.7z"/>
		<path fill="none" stroke="#000000" stroke-width="2" stroke-linecap="round" stroke-linejoin="round" stroke-miterlimit="10" d="
			M147.7,222.9c0,0.4,0.1,0.8,0.1,1.1C147.8,223.7,147.7,223.3,147.7,222.9z"/>
		<path fill="none" stroke="#000000" stroke-width="2" stroke-linecap="round" stroke-linejoin="round" stroke-miterlimit="10" d="
			M253,319.3C253,319.2,253,319.2,253,319.3C253,319.2,253,319.2,253,319.3z"/>
		<path fill="none" stroke="#000000" stroke-width="2" stroke-linecap="round" stroke-linejoin="round" stroke-miterlimit="10" d="
			M304.9,317.3c0,0,0.7,8.7-9.8,11.5c0,0-8.6,2.3-17.5,2.9c0,0,0,0,0,0l-10.4,17.9l-0.3,0.5c15.5-6.8,29.7-15.9,42.3-26.9l-2.6-6.3
			C306.2,317,305.6,317.1,304.9,317.3z"/>
		<path fill="none" stroke="#000000" stroke-width="2" stroke-linecap="round" stroke-linejoin="round" stroke-miterlimit="10" d="
			M254.7,322.3C254.7,322.3,254.6,322.3,254.7,322.3C254.6,322.3,254.7,322.3,254.7,322.3z"/>
		<path fill="none" stroke="#000000" stroke-width="2" stroke-linecap="round" stroke-linejoin="round" stroke-miterlimit="10" d="
			M259.8,327.9c-0.2-0.3-0.4-0.5-0.5-0.8C259.4,327.3,259.6,327.6,259.8,327.9z"/>
		<path fill="none" stroke="#000000" stroke-width="2" stroke-linecap="round" stroke-linejoin="round" stroke-miterlimit="10" d="
			M261.3,329.3c-0.2-0.1-0.3-0.3-0.5-0.4C261,329,261.1,329.1,261.3,329.3z"/>
		<path fill="none" stroke="#000000" stroke-width="2" stroke-linecap="round" stroke-linejoin="round" stroke-miterlimit="10" d="
			M260.5,328.6c-0.2-0.2-0.3-0.3-0.5-0.5C260.2,328.3,260.3,328.4,260.5,328.6z"/>
		<path fill="none" stroke="#000000" stroke-width="2" stroke-linecap="round" stroke-linejoin="round" stroke-miterlimit="10" d="
			M254,321.2C254,321.2,254,321.2,254,321.2C254,321.2,254,321.2,254,321.2z"/>
		<path fill="none" stroke="#000000" stroke-width="2" stroke-linecap="round" stroke-linejoin="round" stroke-miterlimit="10" d="
			M253.3,319.8C253.3,319.8,253.3,319.8,253.3,319.8C253.3,319.8,253.3,319.8,253.3,319.8z"/>
		<path fill="none" stroke="#000000" stroke-width="2" stroke-linecap="round" stroke-linejoin="round" stroke-miterlimit="10" d="
			M262.2,329.8c-0.2-0.1-0.4-0.2-0.5-0.3C261.9,329.6,262,329.7,262.2,329.8z"/>
		<path fill="none" stroke="#000000" stroke-width="2" stroke-linecap="round" stroke-linejoin="round" stroke-miterlimit="10" d="
			M253.6,320.3C253.6,320.3,253.5,320.3,253.6,320.3C253.5,320.3,253.6,320.3,253.6,320.3z"/>
		<path fill="none" stroke="#000000" stroke-width="2" stroke-linecap="round" stroke-linejoin="round" stroke-miterlimit="10" d="
			M253.8,320.8C253.8,320.8,253.8,320.8,253.8,320.8C253.8,320.8,253.8,320.8,253.8,320.8z"/>
		<path fill="none" stroke="#000000" stroke-width="2" stroke-linecap="round" stroke-linejoin="round" stroke-miterlimit="10" d="
			M241.1,227.9c0.1-0.1,0.2-0.2,0.3-0.3C241.3,227.7,241.2,227.8,241.1,227.9z"/>
		<path fill="none" stroke="#000000" stroke-width="2" stroke-linecap="round" stroke-linejoin="round" stroke-miterlimit="10" d="
			M204.4,329.7c0.6,0.2,1.1,0.4,1.6,0.6C205.5,330.1,204.9,329.9,204.4,329.7L204.4,329.7z"/>
		<path fill="none" stroke="#000000" stroke-width="2" stroke-linecap="round" stroke-linejoin="round" stroke-miterlimit="10" d="
			M228.1,347.7c-0.2,0.3-0.4,0.6-0.5,0.9C227.7,348.3,227.9,348,228.1,347.7z"/>
		<path fill="none" stroke="#000000" stroke-width="2" stroke-linecap="round" stroke-linejoin="round" stroke-miterlimit="10" d="
			M211,306.3c-5.5-9.4-12.9-19.1-17.8-25.2l0,0C198.1,287.2,205.5,296.9,211,306.3z"/>
		<path fill="none" stroke="#000000" stroke-width="2" stroke-linecap="round" stroke-linejoin="round" stroke-miterlimit="10" d="
			M227.2,349.1c-0.2,0.3-0.3,0.5-0.5,0.8C226.9,349.7,227.1,349.4,227.2,349.1z"/>
		<path fill="none" stroke="#000000" stroke-width="2" stroke-linecap="round" stroke-linejoin="round" stroke-miterlimit="10" d="
			M230,344.3c-0.2,0.4-0.4,0.8-0.7,1.2C229.5,345.1,229.7,344.7,230,344.3z"/>
		<path fill="none" stroke="#000000" stroke-width="2" stroke-linecap="round" stroke-linejoin="round" stroke-miterlimit="10" d="
			M229,346.1c-0.2,0.4-0.4,0.7-0.6,1C228.6,346.8,228.8,346.5,229,346.1z"/>
		<path fill="none" stroke="#000000" stroke-width="2" stroke-linecap="round" stroke-linejoin="round" stroke-miterlimit="10" d="
			M211.1,359.2c0.4-0.3,0.8-0.5,1.2-0.8c1-0.6,1.9-1.2,2.7-1.8C213.8,357.5,212.5,358.3,211.1,359.2L211.1,359.2z"/>
		<path fill="none" stroke="#000000" stroke-width="2" stroke-linecap="round" stroke-linejoin="round" stroke-miterlimit="10" d="
			M222,352C222,352.1,222,352.1,222,352C222,352.1,222,352.1,222,352z"/>
		<path fill="none" stroke="#000000" stroke-width="2" stroke-linecap="round" stroke-linejoin="round" stroke-miterlimit="10" d="
			M240.5,228.6c0.1-0.1,0.2-0.3,0.3-0.4C240.7,228.4,240.6,228.5,240.5,228.6z"/>
		<path fill="none" stroke="#000000" stroke-width="2" stroke-linecap="round" stroke-linejoin="round" stroke-miterlimit="10" d="
			M207.1,330.7C207.1,330.7,207.1,330.7,207.1,330.7c-0.2-0.1-0.5-0.2-0.7-0.3C206.6,330.5,206.8,330.6,207.1,330.7z"/>
		<path fill="none" stroke="#000000" stroke-width="2" stroke-linecap="round" stroke-linejoin="round" stroke-miterlimit="10" d="
			M222,351.9C222,351.9,222,352,222,351.9C222,352,222,351.9,222,351.9z"/>
		<path fill="none" stroke="#000000" stroke-width="2" stroke-linecap="round" stroke-linejoin="round" stroke-miterlimit="10" d="
			M225.8,351.4c-0.1,0.2-0.2,0.4-0.3,0.5C225.6,351.8,225.7,351.6,225.8,351.4z"/>
		<path fill="none" stroke="#000000" stroke-width="2" stroke-linecap="round" stroke-linejoin="round" stroke-miterlimit="10" d="
			M225.2,352.3c-0.1,0.1-0.2,0.3-0.3,0.4C225,352.6,225.1,352.5,225.2,352.3z"/>
		<path fill="none" stroke="#000000" stroke-width="2" stroke-linecap="round" stroke-linejoin="round" stroke-miterlimit="10" d="
			M226.5,350.4c-0.1,0.2-0.3,0.4-0.4,0.6C226.2,350.8,226.3,350.6,226.5,350.4z"/>
		<path fill="none" stroke="#000000" stroke-width="2" stroke-linecap="round" stroke-linejoin="round" stroke-miterlimit="10" d="
			M237.9,232.5c0.1-0.2,0.2-0.4,0.3-0.6C238.1,232.1,238,232.3,237.9,232.5z"/>
		<path fill="none" stroke="#000000" stroke-width="2" stroke-linecap="round" stroke-linejoin="round" stroke-miterlimit="10" d="
			M236.8,234.9c0.1-0.2,0.2-0.5,0.3-0.7C237,234.5,236.9,234.7,236.8,234.9z"/>
		<path fill="none" stroke="#000000" stroke-width="2" stroke-linecap="round" stroke-linejoin="round" stroke-miterlimit="10" d="
			M238.5,231.4c0.1-0.2,0.2-0.4,0.4-0.6C238.8,231,238.6,231.2,238.5,231.4z"/>
		<path fill="none" stroke="#000000" stroke-width="2" stroke-linecap="round" stroke-linejoin="round" stroke-miterlimit="10" d="
			M239.2,230.4c0.1-0.2,0.2-0.3,0.3-0.5C239.4,230,239.3,230.2,239.2,230.4z"/>
		<path fill="none" stroke="#000000" stroke-width="2" stroke-linecap="round" stroke-linejoin="round" stroke-miterlimit="10" d="
			M236.4,236.3c0.1-0.2,0.1-0.5,0.2-0.7C236.5,235.8,236.4,236,236.4,236.3z"/>
		<path fill="none" stroke="#000000" stroke-width="2" stroke-linecap="round" stroke-linejoin="round" stroke-miterlimit="10" d="
			M239.9,229.5c0.1-0.2,0.2-0.3,0.3-0.4C240.1,229.2,240,229.3,239.9,229.5z"/>
		<path fill="none" stroke="#000000" stroke-width="2" stroke-linecap="round" stroke-linejoin="round" stroke-miterlimit="10" d="
			M233.9,336.5c-0.2,0.5-0.5,1-0.7,1.4C233.5,337.4,233.7,337,233.9,336.5z"/>
		<path fill="none" stroke="#000000" stroke-width="2" stroke-linecap="round" stroke-linejoin="round" stroke-miterlimit="10" d="
			M232.8,338.8c-0.2,0.5-0.5,1-0.7,1.4C232.3,339.8,232.5,339.3,232.8,338.8z"/>
		<path fill="none" stroke="#000000" stroke-width="2" stroke-linecap="round" stroke-linejoin="round" stroke-miterlimit="10" d="
			M236,237.6c0-0.2,0.1-0.5,0.2-0.7C236.1,237.1,236.1,237.4,236,237.6z"/>
		<path fill="none" stroke="#000000" stroke-width="2" stroke-linecap="round" stroke-linejoin="round" stroke-miterlimit="10" d="
			M232,340.5c-0.6,1.2-1.2,2.4-1.8,3.4C230.7,342.9,231.3,341.7,232,340.5z"/>
		<path fill="none" stroke="#000000" stroke-width="2" stroke-linecap="round" stroke-linejoin="round" stroke-miterlimit="10" d="
			M219.5,353.7c0.8-0.5,1.5-1,1.9-1.2c0,0,0,0,0,0C220.9,352.8,220.3,353.2,219.5,353.7z"/>
		<path fill="none" stroke="#000000" stroke-width="2" stroke-linecap="round" stroke-linejoin="round" stroke-miterlimit="10" d="
			M235.9,239.6c0-0.4,0-0.8,0.1-1.3C235.9,238.7,235.9,239.1,235.9,239.6z"/>
		
			<path fill="#FFFFFF" stroke="#000000" stroke-width="2" stroke-linecap="round" stroke-linejoin="round" stroke-miterlimit="10" d="
			M306.7,316.9l2.6,6.3c3.3-2.9,6.4-5.8,9.5-9l-0.6-1.4C315.9,314.2,312.3,315.7,306.7,316.9z"/>
		
			<path fill="#FFCC00" stroke="#000000" stroke-width="2" stroke-linecap="round" stroke-linejoin="round" stroke-miterlimit="10" d="
			M252.5,318C252.5,318,252.5,318,252.5,318c0.1,0.2,0.2,0.4,0.2,0.6c0,0,0,0,0,0.1c0.1,0.2,0.2,0.4,0.2,0.5c0,0,0,0.1,0,0.1
			c0.1,0.2,0.1,0.3,0.2,0.5c0,0,0,0.1,0,0.1c0.1,0.2,0.1,0.3,0.2,0.4c0,0,0,0,0,0.1c0.1,0.1,0.1,0.3,0.2,0.4c0,0,0,0,0,0.1
			c0.1,0.1,0.1,0.3,0.2,0.4c0,0,0,0,0,0c0.3,0.5,0.5,0.9,0.6,1.1c0,0,0,0,0,0c0,0.1,0.1,0.1,0.1,0.2l4.5,4.5
			c0.2,0.3,0.3,0.6,0.5,0.8c0.1,0.1,0.1,0.2,0.2,0.2c0.1,0.2,0.3,0.3,0.5,0.5c0.1,0.1,0.2,0.2,0.3,0.3c0.2,0.1,0.3,0.3,0.5,0.4
			c0.1,0.1,0.3,0.2,0.4,0.2c0.2,0.1,0.3,0.2,0.5,0.3c0.1,0.1,0.3,0.1,0.4,0.2c0.2,0.1,0.4,0.2,0.6,0.3c0.2,0.1,0.3,0.1,0.5,0.2
			c0.2,0.1,0.4,0.2,0.6,0.2c0.2,0.1,0.4,0.1,0.5,0.2c0.2,0.1,0.4,0.1,0.7,0.2c0.2,0,0.4,0.1,0.6,0.1c0.2,0,0.4,0.1,0.7,0.1
			c0.2,0,0.4,0.1,0.6,0.1c0.2,0,0.5,0.1,0.7,0.1c0.2,0,0.4,0.1,0.7,0.1c0.2,0,0.5,0,0.7,0.1c0.2,0,0.5,0,0.7,0.1c0.2,0,0.5,0,0.7,0
			c0.2,0,0.5,0,0.7,0c0.2,0,0.5,0,0.7,0c0.3,0,0.5,0,0.8,0c0.2,0,0.5,0,0.7,0c0.3,0,0.5,0,0.8,0c0.2,0,0.5,0,0.7,0
			c0.3,0,0.6,0,0.8,0c0.2,0,0.4,0,0.6,0c0.3,0,0.6,0,0.9-0.1c8.9-0.7,17.5-2.9,17.5-2.9c10.5-2.8,9.8-11.5,9.8-11.5
			c0.6-0.1,1.2-0.2,1.8-0.4c5.6-1.2,9.2-2.7,11.5-4.1c2.6-1.6,3.5-2.9,3.5-2.9c3.8-4.5-1.7-7.3-1.7-7.3c0.7-7.7-7-8-7-8l-2.2,0.3
			l3.2,7.8c-3.9,0.4-8.5,1.2-12.3,1.9l-3.3-8l-8.7,1.2c-7,1-11.2-3.5-11.2-3.5c-1.4-3.1,1.4-8,1.4-8c4.9-15-5.2-13.9-5.2-13.9
			c-9.1,0-9.4,13.6-9.4,13.6c-2.4,10.8-7,11.9-7,11.9c-7.1,5.4-7.8,11.7-6.8,16.6c0,0,0,0,0,0C251.7,315.7,252.1,316.9,252.5,318z"
			/>
		
			<path fill="#FFFFFF" stroke="#000000" stroke-width="2" stroke-linecap="round" stroke-linejoin="round" stroke-miterlimit="10" d="
			M314,302.6l-3.2-7.8l-6-14.6c0.7,1.3-1.2,3.6-4.2,5.1c-3,1.5-6,1.8-6.6,0.5l4.4,10.7l3.3,8C305.5,303.8,310.1,303,314,302.6z"/>
		
			<ellipse transform="matrix(0.4594 0.8883 -0.8883 0.4594 413.3093 -112.8658)" fill="#FFFFFF" stroke="#000000" stroke-width="2" stroke-linecap="round" stroke-linejoin="round" stroke-miterlimit="10" cx="299.4" cy="283.1" rx="2.6" ry="6.1"/>
		
			<path fill="#8ACC54" stroke="#000000" stroke-width="2" stroke-linecap="round" stroke-linejoin="round" stroke-miterlimit="10" d="
			M124.4,266.9c0.2,0.6,0.5,1.2,0.8,1.8c0,0.1,0.1,0.1,0.1,0.2c0.3,0.6,0.6,1.3,0.9,1.9c0.1,0.2,0.2,0.3,0.2,0.5
			c0.3,0.5,0.6,1.1,0.9,1.6c0.1,0.1,0.1,0.2,0.2,0.3c0.4,0.6,0.7,1.2,1.1,1.8c0.1,0.1,0.2,0.3,0.3,0.4c0.3,0.5,0.6,1,1,1.4
			c0.1,0.1,0.2,0.2,0.2,0.3c0.4,0.6,0.8,1.1,1.2,1.6c0.1,0.1,0.2,0.2,0.3,0.3c0.3,0.4,0.7,0.9,1.1,1.3c0.1,0.1,0.2,0.2,0.3,0.4
			c0.4,0.5,0.9,1,1.3,1.5c0.1,0.1,0.2,0.2,0.3,0.3c0.4,0.4,0.8,0.8,1.1,1.2c0.1,0.1,0.2,0.2,0.4,0.4c0.5,0.5,0.9,0.9,1.4,1.4
			c0.1,0.1,0.1,0.1,0.2,0.2c0.4,0.4,0.8,0.8,1.2,1.1c0.1,0.1,0.3,0.2,0.4,0.4c0.5,0.4,0.9,0.8,1.4,1.2c0,0,0.1,0.1,0.1,0.1
			c0.4,0.4,0.8,0.7,1.3,1.1c0.1,0.1,0.3,0.2,0.4,0.4c0.4,0.3,0.8,0.6,1.2,0.9c0.1,0.1,0.2,0.1,0.3,0.2c0.4,0.3,0.9,0.7,1.3,1
			c0.2,0.1,0.3,0.2,0.5,0.4c0.3,0.2,0.7,0.5,1,0.7c0.1,0.1,0.3,0.2,0.4,0.3c0.4,0.3,0.8,0.6,1.2,0.8c0.2,0.1,0.3,0.2,0.5,0.3
			c0.3,0.2,0.5,0.4,0.8,0.5c0.2,0.1,0.3,0.2,0.5,0.3c0.4,0.2,0.7,0.5,1.1,0.7c0.2,0.1,0.4,0.2,0.6,0.3c0.2,0.1,0.4,0.3,0.6,0.4
			c0.2,0.1,0.4,0.2,0.6,0.3c4.8,2.8,8.1,4.1,8.1,4.1s0,0-0.1-0.1c0,0,0,0,0,0c0,0-0.1-0.1-0.2-0.2c0,0,0,0,0,0
			c-0.1-0.1-0.2-0.2-0.3-0.3c0,0,0,0-0.1-0.1c-0.1-0.1-0.3-0.3-0.4-0.5c0,0,0,0,0,0c-0.2-0.2-0.3-0.4-0.5-0.6c0,0,0-0.1-0.1-0.1
			c-0.2-0.2-0.4-0.5-0.6-0.7c0,0,0,0,0,0c-0.2-0.3-0.5-0.6-0.7-0.9c0,0,0,0,0,0c-0.2-0.3-0.5-0.6-0.8-0.9c0,0,0,0,0,0
			c-0.3-0.3-0.6-0.7-0.9-1.1c0,0,0,0,0,0c-0.3-0.4-0.6-0.8-0.9-1.1c0,0,0,0-0.1-0.1c-0.6-0.8-1.3-1.7-2-2.6c0,0,0,0,0-0.1
			c-0.7-0.9-1.4-1.9-2.2-2.9c0,0,0-0.1-0.1-0.1c-0.7-1-1.5-2.1-2.2-3.2c0,0,0,0,0-0.1c-0.7-1.1-1.5-2.2-2.2-3.4c0,0,0-0.1-0.1-0.1
			c-0.7-1.1-1.4-2.3-2.1-3.5c0,0,0,0,0-0.1c-0.7-1.2-1.4-2.4-2-3.6c0,0,0,0,0,0c-0.9-1.8-1.8-3.7-2.5-5.5c0,0,0,0,0-0.1
			c-0.5-1.2-0.9-2.4-1.3-3.6c0,0,0-0.1,0-0.1c-0.3-1.2-0.6-2.3-0.8-3.4c0-0.1,0-0.1,0-0.2c-0.2-1.1-0.3-2.2-0.4-3.2
			c0-0.1,0-0.1,0-0.2c-0.1-4.8,1.6-9,6.1-11.7c1.4-3,2.7-6.5,3.6-10.2c0,0-0.1,0-0.1,0c-24.4,2.7-23.1,22.4-23.1,22.4l-0.1,5.2
			c0.2,0.7,0.5,1.4,0.7,2.1C124.3,266.6,124.3,266.7,124.4,266.9z"/>
		
			<path fill="#8ACC54" stroke="#000000" stroke-width="2" stroke-linecap="round" stroke-linejoin="round" stroke-miterlimit="10" d="
			M188.3,260.2l-6.1,10.6c0.4,1.7,0.8,3.4,1.1,5.1l0,0c0,0,0,0.1,0,0.1c0.1,0.3,0.1,0.6,0.2,0.8c0,0.1,0,0.2,0,0.3
			c0.3,1.7,0.6,3.4,0.8,5.1c0,0,0,0,0,0c0.8,6.1,1,11.2,1,13.8c0,0,0,0,0,0c0,0.5,0,1,0,1.3c0,0,0,0,0,0.1c0,0.1,0,0.1,0,0.2
			c0,0,0,0,0,0.1c0,0,0,0.1,0,0.1c0,0,0,0,0,0c0,0,0,0,0,0c0,0,0,0,0,0s1.3-2.7,2.9-7.3c0.1-0.1,0.1-0.3,0.2-0.5
			c0.1-0.3,0.2-0.6,0.3-1c0.1-0.2,0.1-0.4,0.2-0.6c0.1-0.3,0.2-0.6,0.3-1c0.1-0.2,0.1-0.4,0.2-0.7c0.2-0.5,0.3-1,0.5-1.5
			c0.1-0.2,0.1-0.5,0.2-0.7c0.1-0.3,0.2-0.7,0.3-1c0.1-0.3,0.2-0.6,0.2-0.9c0.1-0.4,0.2-0.7,0.3-1.1c0.1-0.3,0.1-0.5,0.2-0.8
			c0.1-0.6,0.3-1.2,0.4-1.8c0.2-0.9,0.4-1.7,0.6-2.6l0-0.2c0-0.9,0-1.8-0.1-2.7c0-0.2,0-0.4,0-0.6c0-0.7-0.1-1.5-0.1-2.2
			c0-0.1,0-0.2,0-0.3c-0.2-1.8-0.4-3.4-0.7-5c0,0,0,0,0,0c-0.4-2.4-1-4.6-1.7-6.6C189,259.1,188.5,259.7,188.3,260.2z"/>
		
			<path fill="#8ACC54" stroke="#000000" stroke-width="2" stroke-linecap="round" stroke-linejoin="round" stroke-miterlimit="10" d="
			M190.1,284.5c0.1-0.3,0.2-0.7,0.3-1C190.3,283.8,190.2,284.2,190.1,284.5z"/>
		
			<path fill="#8ACC54" stroke="#000000" stroke-width="2" stroke-linecap="round" stroke-linejoin="round" stroke-miterlimit="10" d="
			M129.8,276.8c-0.3-0.5-0.7-0.9-1-1.4C129.2,275.9,129.5,276.3,129.8,276.8z"/>
		
			<path fill="#8ACC54" stroke="#000000" stroke-width="2" stroke-linecap="round" stroke-linejoin="round" stroke-miterlimit="10" d="
			M128.6,275c-0.4-0.6-0.7-1.2-1.1-1.8C127.8,273.8,128.2,274.4,128.6,275z"/>
		
			<path fill="#8ACC54" stroke="#000000" stroke-width="2" stroke-linecap="round" stroke-linejoin="round" stroke-miterlimit="10" d="
			M131.3,278.8c-0.4-0.5-0.8-1.1-1.2-1.6C130.4,277.7,130.9,278.3,131.3,278.8z"/>
		
			<path fill="#8ACC54" stroke="#000000" stroke-width="2" stroke-linecap="round" stroke-linejoin="round" stroke-miterlimit="10" d="
			M127.3,272.9c-0.3-0.5-0.6-1.1-0.9-1.6C126.7,271.8,127,272.4,127.3,272.9z"/>
		
			<path fill="#8ACC54" stroke="#000000" stroke-width="2" stroke-linecap="round" stroke-linejoin="round" stroke-miterlimit="10" d="
			M141.9,289.6c-0.4-0.3-0.8-0.7-1.3-1.1C141.1,288.9,141.5,289.2,141.9,289.6z"/>
		
			<path fill="#8ACC54" stroke="#000000" stroke-width="2" stroke-linecap="round" stroke-linejoin="round" stroke-miterlimit="10" d="
			M126.2,270.8c-0.3-0.6-0.6-1.3-0.9-1.9C125.6,269.6,125.9,270.2,126.2,270.8z"/>
		
			<path fill="#8ACC54" stroke="#000000" stroke-width="2" stroke-linecap="round" stroke-linejoin="round" stroke-miterlimit="10" d="
			M135.6,283.8c-0.4-0.4-0.8-0.8-1.1-1.2C134.8,283,135.2,283.4,135.6,283.8z"/>
		
			<path fill="#8ACC54" stroke="#000000" stroke-width="2" stroke-linecap="round" stroke-linejoin="round" stroke-miterlimit="10" d="
			M140.5,288.4c-0.5-0.4-0.9-0.8-1.4-1.2C139.6,287.6,140,288,140.5,288.4z"/>
		
			<path fill="#8ACC54" stroke="#000000" stroke-width="2" stroke-linecap="round" stroke-linejoin="round" stroke-miterlimit="10" d="
			M134.2,282.3c-0.4-0.5-0.9-1-1.3-1.5C133.3,281.3,133.8,281.8,134.2,282.3z"/>
		
			<path fill="#8ACC54" stroke="#000000" stroke-width="2" stroke-linecap="round" stroke-linejoin="round" stroke-miterlimit="10" d="
			M138.7,286.8c-0.4-0.4-0.8-0.7-1.2-1.1C137.9,286.1,138.3,286.5,138.7,286.8z"/>
		
			<path fill="#8ACC54" stroke="#000000" stroke-width="2" stroke-linecap="round" stroke-linejoin="round" stroke-miterlimit="10" d="
			M125.2,268.7c-0.3-0.6-0.5-1.2-0.8-1.8C124.7,267.5,124.9,268.1,125.2,268.7z"/>
		
			<path fill="#8ACC54" stroke="#000000" stroke-width="2" stroke-linecap="round" stroke-linejoin="round" stroke-miterlimit="10" d="
			M137.3,285.5c-0.5-0.4-0.9-0.9-1.4-1.4C136.4,284.6,136.8,285.1,137.3,285.5z"/>
		
			<path fill="#8ACC54" stroke="#000000" stroke-width="2" stroke-linecap="round" stroke-linejoin="round" stroke-miterlimit="10" d="
			M132.6,280.4c-0.4-0.4-0.7-0.9-1.1-1.3C131.9,279.6,132.2,280,132.6,280.4z"/>
		
			<path fill="#8ACC54" stroke="#000000" stroke-width="2" stroke-linecap="round" stroke-linejoin="round" stroke-miterlimit="10" d="
			M193.3,281.1L193.3,281.1c-0.6-0.8-1.2-1.5-1.7-2.1c0,0,0,0,0-0.1c-0.1,0.6-0.3,1.2-0.4,1.8c0.1-0.6,0.3-1.1,0.4-1.7
			C192.1,279.6,192.7,280.4,193.3,281.1z"/>
		
			<path fill="#8ACC54" stroke="#000000" stroke-width="2" stroke-linecap="round" stroke-linejoin="round" stroke-miterlimit="10" d="
			M199.6,328.3C199.6,328.3,199.5,328.4,199.6,328.3C199.6,328.4,199.6,328.3,199.6,328.3z"/>
		
			<path fill="#8ACC54" stroke="#000000" stroke-width="2" stroke-linecap="round" stroke-linejoin="round" stroke-miterlimit="10" d="
			M204.3,329.7C204.3,329.7,204.4,329.7,204.3,329.7L204.3,329.7C204.4,329.7,204.3,329.7,204.3,329.7z"/>
		
			<path fill="#8ACC54" stroke="#000000" stroke-width="2" stroke-linecap="round" stroke-linejoin="round" stroke-miterlimit="10" d="
			M199.4,328.5c0,0-0.1,0.1-0.2,0.1C199.3,328.5,199.4,328.5,199.4,328.5z"/>
		
			<path fill="#8ACC54" stroke="#000000" stroke-width="2" stroke-linecap="round" stroke-linejoin="round" stroke-miterlimit="10" d="
			M188.4,290c0.1-0.3,0.2-0.6,0.3-1C188.6,289.4,188.5,289.7,188.4,290z"/>
		
			<path fill="#8ACC54" stroke="#000000" stroke-width="2" stroke-linecap="round" stroke-linejoin="round" stroke-miterlimit="10" d="
			M201.7,328.9c-0.7-0.2-1.4-0.4-2.1-0.5C200.3,328.5,201,328.7,201.7,328.9z"/>
		
			<path fill="#8ACC54" stroke="#000000" stroke-width="2" stroke-linecap="round" stroke-linejoin="round" stroke-miterlimit="10" d="
			M203.9,329.6c-0.6-0.2-1.2-0.4-1.8-0.6C202.7,329.2,203.3,329.4,203.9,329.6z"/>
		
			<path fill="#8ACC54" stroke="#000000" stroke-width="2" stroke-linecap="round" stroke-linejoin="round" stroke-miterlimit="10" d="
			M189.4,286.8c0.2-0.5,0.3-1,0.5-1.5C189.7,285.8,189.6,286.3,189.4,286.8z"/>
		
			<path fill="#8ACC54" stroke="#000000" stroke-width="2" stroke-linecap="round" stroke-linejoin="round" stroke-miterlimit="10" d="
			M188.9,288.4c0.1-0.3,0.2-0.6,0.3-1C189.1,287.8,189,288.1,188.9,288.4z"/>
		
			<path fill="#8ACC54" stroke="#000000" stroke-width="2" stroke-linecap="round" stroke-linejoin="round" stroke-miterlimit="10" d="
			M188.2,290.5C188.2,290.5,188.2,290.5,188.2,290.5c-1.6,4.6-2.9,7.3-2.9,7.3c-8.8,8.1-24.4,3.4-24.4,3.4s-3.4-1.4-8.1-4.1
			c0.3,0.2,0.6,0.4,0.9,0.5c8.2,28.1,3.8,46.3,3.8,46.3c9,3.7,22.4-2.7,31.7-8.4c5-3.1,8.8-5.9,10-6.9
			C199.5,312.7,192.6,298.2,188.2,290.5z"/>
		
			<path fill="#8ACC54" stroke="#000000" stroke-width="2" stroke-linecap="round" stroke-linejoin="round" stroke-miterlimit="10" d="
			M190.6,282.6c0.1-0.4,0.2-0.7,0.3-1.1C190.8,281.9,190.7,282.3,190.6,282.6z"/>
		
			<path fill="#8ACC54" stroke="#000000" stroke-width="2" stroke-linecap="round" stroke-linejoin="round" stroke-miterlimit="10" d="
			M207.3,361.8c1.3-0.9,2.6-1.7,3.8-2.5l0,0C209.9,360.1,208.6,360.9,207.3,361.8z"/>
		
			<path fill="#8ACC54" stroke="#000000" stroke-width="2" stroke-linecap="round" stroke-linejoin="round" stroke-miterlimit="10" d="
			M151,296c-0.4-0.2-0.7-0.4-1.1-0.7C150.3,295.6,150.7,295.8,151,296z"/>
		
			<path fill="#8ACC54" stroke="#000000" stroke-width="2" stroke-linecap="round" stroke-linejoin="round" stroke-miterlimit="10" d="
			M148.1,294.2c-0.4-0.3-0.8-0.5-1.2-0.8C147.3,293.6,147.7,293.9,148.1,294.2z"/>
		
			<path fill="#8ACC54" stroke="#000000" stroke-width="2" stroke-linecap="round" stroke-linejoin="round" stroke-miterlimit="10" d="
			M149.5,295c-0.3-0.2-0.5-0.3-0.8-0.5C148.9,294.7,149.2,294.9,149.5,295z"/>
		
			<path fill="#8ACC54" stroke="#000000" stroke-width="2" stroke-linecap="round" stroke-linejoin="round" stroke-miterlimit="10" d="
			M146.5,293.1c-0.3-0.2-0.6-0.5-1-0.7C145.9,292.6,146.2,292.8,146.5,293.1z"/>
		
			<path fill="#8ACC54" stroke="#000000" stroke-width="2" stroke-linecap="round" stroke-linejoin="round" stroke-miterlimit="10" d="
			M143.5,290.8c-0.4-0.3-0.8-0.6-1.2-0.9C142.7,290.2,143.1,290.5,143.5,290.8z"/>
		
			<path fill="#8ACC54" stroke="#000000" stroke-width="2" stroke-linecap="round" stroke-linejoin="round" stroke-miterlimit="10" d="
			M152.2,296.8c-0.2-0.1-0.4-0.2-0.6-0.4C151.8,296.5,152,296.6,152.2,296.8z"/>
		
			<path fill="#8ACC54" stroke="#000000" stroke-width="2" stroke-linecap="round" stroke-linejoin="round" stroke-miterlimit="10" d="
			M123.5,264.3c0.2,0.7,0.5,1.4,0.7,2.1C123.9,265.7,123.7,265,123.5,264.3z"/>
		
			<path fill="#8ACC54" stroke="#000000" stroke-width="2" stroke-linecap="round" stroke-linejoin="round" stroke-miterlimit="10" d="
			M145.1,292c-0.4-0.3-0.9-0.6-1.3-1C144.2,291.4,144.6,291.7,145.1,292z"/>
		
			<path fill="#43A72F" stroke="#000000" stroke-width="2" stroke-linecap="round" stroke-linejoin="round" stroke-miterlimit="10" d="
			M189.2,335.5c-9.3,5.7-22.7,12.1-31.7,8.4c0,0,4.4-18.2-3.8-46.3c-0.3-0.2-0.6-0.3-0.9-0.5c-0.2-0.1-0.4-0.2-0.6-0.3
			c-0.2-0.1-0.4-0.2-0.6-0.4c-0.2-0.1-0.4-0.2-0.6-0.3c-0.4-0.2-0.7-0.4-1.1-0.7c-0.2-0.1-0.3-0.2-0.5-0.3c-0.3-0.2-0.5-0.3-0.8-0.5
			c-0.2-0.1-0.3-0.2-0.5-0.3c-0.4-0.3-0.8-0.5-1.2-0.8c-0.1-0.1-0.3-0.2-0.4-0.3c-0.3-0.2-0.6-0.5-1-0.7c-0.2-0.1-0.3-0.2-0.5-0.4
			c-0.4-0.3-0.9-0.6-1.3-1c-0.1-0.1-0.2-0.1-0.3-0.2c-0.4-0.3-0.8-0.6-1.2-0.9c-0.1-0.1-0.3-0.2-0.4-0.4c-0.4-0.3-0.8-0.7-1.3-1.1
			c0,0-0.1-0.1-0.1-0.1c-0.5-0.4-0.9-0.8-1.4-1.2c-0.1-0.1-0.3-0.2-0.4-0.4c-0.4-0.4-0.8-0.7-1.2-1.1c-0.1-0.1-0.1-0.1-0.2-0.2
			c-0.5-0.4-0.9-0.9-1.4-1.4c-0.1-0.1-0.2-0.2-0.4-0.4c-0.4-0.4-0.8-0.8-1.1-1.2c-0.1-0.1-0.2-0.2-0.3-0.3c-0.4-0.5-0.9-1-1.3-1.5
			c-0.1-0.1-0.2-0.2-0.3-0.4c-0.4-0.4-0.7-0.9-1.1-1.3c-0.1-0.1-0.2-0.2-0.3-0.3c-0.4-0.5-0.8-1.1-1.2-1.6c-0.1-0.1-0.2-0.2-0.2-0.3
			c-0.3-0.5-0.7-0.9-1-1.4c-0.1-0.1-0.2-0.3-0.3-0.4c-0.4-0.6-0.7-1.2-1.1-1.8c-0.1-0.1-0.1-0.2-0.2-0.3c-0.3-0.5-0.6-1.1-0.9-1.6
			c-0.1-0.2-0.2-0.3-0.2-0.5c-0.3-0.6-0.6-1.3-0.9-1.9c0-0.1-0.1-0.1-0.1-0.2c-0.3-0.6-0.5-1.2-0.8-1.8c-0.1-0.2-0.1-0.4-0.2-0.5
			c-0.3-0.7-0.5-1.4-0.7-2.1l0.1-4.4c-5.9,3.7-12.2,9.1-18.3,16.8c0,0-12.3,28-1.9,56c27.2,19.7,60.7,31.3,96.9,31.3
			c1.2,0,2.4,0,3.5,0c1.2-0.8,2.3-1.5,3.4-2.3C205.2,345.3,195.4,338.3,189.2,335.5z"/>
		
			<path fill="#43A72F" stroke="#000000" stroke-width="2" stroke-linecap="round" stroke-linejoin="round" stroke-miterlimit="10" d="
			M222,352.1C222,352.1,222,352.1,222,352.1c0-0.1,0-0.1,0-0.1c0,0,0,0,0-0.1c0,0,0-0.1,0-0.1c0,0,0,0,0-0.1c0-0.1,0-0.1,0-0.2
			c0,0,0,0,0-0.1c0-0.1,0-0.2,0-0.3c0,0,0,0,0,0c0-0.1,0-0.2,0-0.4c0,0,0,0,0,0c0.1-1.5-0.1-4.2-1.3-7.3c0-0.1,0-0.1-0.1-0.2
			c-0.1-0.2-0.2-0.5-0.3-0.7c0,0,0-0.1-0.1-0.1c-0.1-0.3-0.2-0.5-0.4-0.8c0,0,0-0.1,0-0.1c-0.6-1.1-1.3-2.2-2.3-3.4
			c0,0-0.1-0.1-0.1-0.1c-0.2-0.2-0.4-0.4-0.6-0.7c-0.1-0.1-0.2-0.2-0.3-0.3c-0.2-0.2-0.4-0.4-0.6-0.6c-0.1-0.1-0.2-0.2-0.3-0.3
			c-2.1-2-5-3.9-8.8-5.5c0,0,0,0,0,0c-0.2-0.1-0.5-0.2-0.7-0.3c-0.1,0-0.2-0.1-0.4-0.1c-0.5-0.2-1.1-0.4-1.6-0.6c0,0,0,0-0.1,0
			c-0.1,0-0.3-0.1-0.4-0.1c-0.6-0.2-1.2-0.4-1.8-0.6c-0.1,0-0.2-0.1-0.4-0.1c-0.7-0.2-1.4-0.4-2.1-0.5c0,0,0,0-0.1,0
			c0,0,0,0-0.1,0.1c0,0-0.1,0.1-0.2,0.1c0,0-0.1,0-0.1,0.1c0,0,0,0,0,0c-1.2,0.9-5,3.8-10,6.9c6.2,2.8,16,9.8,18.1,26.3
			c1.3-0.9,2.6-1.7,3.8-2.5c1.4-0.9,2.7-1.8,3.9-2.6c1.3-0.8,2.4-1.6,3.3-2.2c0.3-0.2,0.6-0.4,0.9-0.6c0.1-0.1,0.2-0.1,0.2-0.2
			c0.8-0.5,1.5-1,1.9-1.2C221.7,352.2,222,352.1,222,352.1z"/>
		
			<path fill="#43A72F" stroke="#000000" stroke-width="2" stroke-linecap="round" stroke-linejoin="round" stroke-miterlimit="10" d="
			M215.3,361.6c-0.2-0.3-0.3-0.6-0.5-1c-0.1-0.1-0.1-0.3-0.2-0.4c-0.2-0.3-0.3-0.6-0.5-0.9c-0.1-0.1-0.1-0.2-0.2-0.4
			c-0.2-0.4-0.4-0.8-0.7-1.2c-0.5,0.3-1,0.6-1.5,1c0.1-0.1,0.3-0.2,0.4-0.3c-0.4,0.3-0.8,0.5-1.2,0.8c-1.2,0.8-2.5,1.7-3.8,2.5
			c-1.1,0.7-2.3,1.5-3.4,2.3c4.1-0.1,8.2-0.3,12.3-0.7c-0.2-0.5-0.4-0.9-0.6-1.4C215.4,361.8,215.4,361.7,215.3,361.6z"/>
		
			<path fill="#43A72F" stroke="#000000" stroke-width="2" stroke-linecap="round" stroke-linejoin="round" stroke-miterlimit="10" d="
			M199.2,328.7C199.2,328.7,199.2,328.7,199.2,328.7C199.2,328.6,199.2,328.6,199.2,328.7c0.1-0.1,0.2-0.2,0.2-0.2
			c0,0,0.1-0.1,0.1-0.1c0,0,0.1,0,0.1,0c0.7,0.2,1.4,0.4,2.1,0.5c0.1,0,0.2,0.1,0.4,0.1c0.6,0.2,1.2,0.4,1.8,0.6
			c0.1,0,0.3,0.1,0.4,0.1c0,0,0,0,0.1,0c0.6,0.2,1.1,0.4,1.6,0.6c0.1,0,0.2,0.1,0.4,0.1c0.2,0.1,0.5,0.2,0.7,0.3
			c1.9-0.4,5.6-1.1,9.9-1.3c0.6-5.2,0.1-12-3.9-19.4c-0.7-1.2-1.4-2.5-2.1-3.7c-5.5-9.4-12.9-19.1-17.8-25.2
			c-0.6-0.8-1.2-1.5-1.7-2.1c-0.1,0.6-0.3,1.2-0.4,1.7c-0.1,0.3-0.1,0.6-0.2,0.8c-0.1,0.4-0.2,0.7-0.3,1.1c-0.1,0.3-0.2,0.6-0.2,0.9
			c-0.1,0.3-0.2,0.7-0.3,1c-0.1,0.3-0.1,0.5-0.2,0.7c-0.2,0.5-0.3,1-0.5,1.5c-0.1,0.2-0.1,0.4-0.2,0.7c-0.1,0.3-0.2,0.6-0.3,1
			c-0.1,0.2-0.1,0.4-0.2,0.6c-0.1,0.3-0.2,0.7-0.3,1c-0.1,0.2-0.1,0.3-0.2,0.5c0,0,0,0,0,0.1C192.6,298.2,199.5,312.7,199.2,328.7z"
			/>
		
			<path fill="#43A72F" stroke="#000000" stroke-width="2" stroke-linecap="round" stroke-linejoin="round" stroke-miterlimit="10" d="
			M191.9,270.3c0,0.1,0,0.2,0,0.3c0.1,0.7,0.1,1.4,0.1,2.2c0,0.2,0,0.4,0,0.6c0,0.9,0.1,1.8,0.1,2.7l0,0.2c-0.2,0.9-0.4,1.8-0.6,2.6
			c0,0,0,0,0,0.1c0.5,0.6,1.1,1.4,1.7,2.1c4.9,6.1,12.2,15.8,17.8,25.2c0.7,1.3,1.5,2.5,2.1,3.7c4,7.4,4.5,14.2,3.9,19.4
			c2.8-0.2,5.9-0.1,9,0.3c-1.3-24.8-26.7-55.3-34.8-64.5c0,0,0,0,0,0C191.5,266.8,191.7,268.5,191.9,270.3z"/>
		
			<path fill="#43A72F" stroke="#000000" stroke-width="2" stroke-linecap="round" stroke-linejoin="round" stroke-miterlimit="10" d="
			M220.4,342.4c0,0,0,0.1,0.1,0.1C220.4,342.5,220.4,342.4,220.4,342.4z"/>
		
			<path fill="#43A72F" stroke="#000000" stroke-width="2" stroke-linecap="round" stroke-linejoin="round" stroke-miterlimit="10" d="
			M215.8,336.2c0.1,0.1,0.2,0.2,0.3,0.3C216,336.4,215.9,336.3,215.8,336.2z"/>
		
			<path fill="#43A72F" stroke="#000000" stroke-width="2" stroke-linecap="round" stroke-linejoin="round" stroke-miterlimit="10" d="
			M220.7,343.3c0,0.1,0,0.1,0.1,0.2C220.8,343.4,220.8,343.3,220.7,343.3z"/>
		
			<path fill="#43A72F" stroke="#000000" stroke-width="2" stroke-linecap="round" stroke-linejoin="round" stroke-miterlimit="10" d="
			M219.9,341.6C220,341.6,220,341.6,219.9,341.6C220,341.6,220,341.6,219.9,341.6z"/>
		
			<path fill="#43A72F" stroke="#000000" stroke-width="2" stroke-linecap="round" stroke-linejoin="round" stroke-miterlimit="10" d="
			M216.7,337.1c0.1,0.1,0.2,0.2,0.3,0.3C216.9,337.3,216.8,337.2,216.7,337.1z"/>
		
			<path fill="#43A72F" stroke="#000000" stroke-width="2" stroke-linecap="round" stroke-linejoin="round" stroke-miterlimit="10" d="
			M217.6,338.1c0,0,0.1,0.1,0.1,0.1C217.6,338.1,217.6,338.1,217.6,338.1z"/>
		
			<path fill="#43A72F" stroke="#000000" stroke-width="2" stroke-linecap="round" stroke-linejoin="round" stroke-miterlimit="10" d="
			M237.3,328.9c-0.6,1.4-1.2,2.8-1.8,4.1c0,0,0,0,0,0c-0.1,0.3-0.3,0.6-0.4,0.9c-0.2,0.5-0.4,1-0.7,1.4c-0.2,0.4-0.4,0.8-0.6,1.2
			c-0.2,0.5-0.5,1-0.7,1.4c-0.2,0.3-0.3,0.6-0.5,0.9c-0.2,0.5-0.5,1-0.7,1.4c0,0.1-0.1,0.1-0.1,0.2c-0.6,1.2-1.2,2.4-1.8,3.4
			c-0.1,0.1-0.1,0.3-0.2,0.4c-0.2,0.4-0.4,0.8-0.7,1.2c-0.1,0.2-0.2,0.4-0.3,0.6c-0.2,0.4-0.4,0.7-0.6,1c-0.1,0.2-0.2,0.4-0.3,0.6
			c-0.2,0.3-0.4,0.6-0.5,0.9c-0.1,0.2-0.2,0.4-0.3,0.5c-0.2,0.3-0.3,0.5-0.5,0.8c-0.1,0.2-0.2,0.3-0.3,0.5c-0.1,0.2-0.3,0.4-0.4,0.6
			c-0.1,0.1-0.2,0.3-0.3,0.4c-0.1,0.2-0.2,0.4-0.3,0.5c-0.1,0.1-0.2,0.2-0.2,0.3c-0.1,0.2-0.2,0.3-0.3,0.4c-0.1,0.1-0.1,0.2-0.2,0.3
			c-0.1,0.1-0.2,0.2-0.2,0.3c-0.1,0.1-0.1,0.2-0.2,0.2c0,0.1-0.1,0.1-0.1,0.2c-0.1,0.1-0.1,0.1-0.1,0.2c0,0,0,0,0,0.1
			c0,0.1-0.1,0.1-0.1,0.1s-1.1-0.7-2.6-1.6c-0.4,0.3-1.1,0.7-1.9,1.2c-0.1,0.1-0.2,0.1-0.2,0.2c-0.3,0.2-0.6,0.4-0.9,0.6
			c-1,0.6-2.1,1.4-3.3,2.2c-0.9,0.6-1.8,1.2-2.7,1.8c-0.1,0.1-0.3,0.2-0.4,0.3c0.5-0.3,1-0.6,1.5-1c0.2,0.4,0.4,0.8,0.7,1.2
			c0.1,0.1,0.1,0.2,0.2,0.4c0.2,0.3,0.3,0.6,0.5,0.9c0.1,0.1,0.1,0.3,0.2,0.4c0.2,0.3,0.3,0.6,0.5,1c0.1,0.1,0.1,0.2,0.2,0.3
			c0.2,0.5,0.4,0.9,0.6,1.4c18-1.7,35.1-6.3,50.9-13.2l0.3-0.5C250.6,347.2,241.6,336.2,237.3,328.9z M219.5,353.7
			c0.2-0.1,0.4-0.2,0.5-0.3C219.8,353.5,219.7,353.6,219.5,353.7z"/>
		
			<path fill="#43A72F" stroke="#000000" stroke-width="2" stroke-linecap="round" stroke-linejoin="round" stroke-miterlimit="10" d="
			M267.3,349.6l10.4-17.9c0,0,0,0,0,0c-0.3,0-0.6,0-0.9,0.1c-0.2,0-0.4,0-0.6,0c-0.3,0-0.6,0-0.8,0c-0.2,0-0.5,0-0.7,0
			c-0.3,0-0.5,0-0.8,0c-0.2,0-0.5,0-0.7,0c-0.3,0-0.5,0-0.8,0c-0.2,0-0.5,0-0.7,0c-0.2,0-0.5,0-0.7,0c-0.2,0-0.5,0-0.7,0
			c-0.2,0-0.5,0-0.7-0.1c-0.2,0-0.5,0-0.7-0.1c-0.2,0-0.4-0.1-0.7-0.1c-0.2,0-0.5-0.1-0.7-0.1c-0.2,0-0.4-0.1-0.6-0.1
			c-0.2,0-0.5-0.1-0.7-0.1c-0.2,0-0.4-0.1-0.6-0.1c-0.2-0.1-0.4-0.1-0.7-0.2c-0.2-0.1-0.4-0.1-0.5-0.2c-0.2-0.1-0.4-0.1-0.6-0.2
			c-0.2-0.1-0.3-0.1-0.5-0.2c-0.2-0.1-0.4-0.2-0.6-0.3c-0.1-0.1-0.3-0.1-0.4-0.2c-0.2-0.1-0.4-0.2-0.5-0.3c-0.1-0.1-0.3-0.2-0.4-0.2
			c-0.2-0.1-0.3-0.3-0.5-0.4c-0.1-0.1-0.2-0.2-0.3-0.3c-0.2-0.2-0.3-0.3-0.5-0.5c-0.1-0.1-0.2-0.2-0.2-0.2c-0.2-0.3-0.4-0.5-0.5-0.8
			l-4.5-4.5c0,0-0.1-0.1-0.1-0.2c0,0,0,0,0,0c-0.1-0.2-0.4-0.6-0.6-1.1c0,0,0,0,0,0c-0.1-0.1-0.1-0.2-0.2-0.4c0,0,0,0,0-0.1
			c-0.1-0.1-0.1-0.3-0.2-0.4c0,0,0,0,0-0.1c-0.1-0.1-0.1-0.3-0.2-0.4c0,0,0-0.1,0-0.1c-0.1-0.2-0.1-0.3-0.2-0.5c0,0,0-0.1,0-0.1
			c-0.1-0.2-0.2-0.3-0.2-0.5c0,0,0,0,0-0.1c-0.1-0.2-0.2-0.4-0.2-0.6c0,0,0,0,0,0c-0.4-1.1-0.8-2.3-1.1-3.6c0,0,0,0,0,0
			c-3.1,0-8.8,2-13.9,14c-0.1,0.2-0.2,0.4-0.2,0.5C241.6,336.2,250.6,347.2,267.3,349.6z"/>
		<path fill="none" stroke="#000000" stroke-width="2" stroke-linecap="round" stroke-linejoin="round" d="M219.5,353.7
			c0.2-0.1,0.4-0.2,0.5-0.3"/>
		
			<path fill="#FFCC00" stroke="#000000" stroke-width="2" stroke-linecap="round" stroke-linejoin="round" stroke-miterlimit="10" d="
			M217,329.4c-4.3,0.2-8,0.9-9.9,1.3c0,0,0,0,0,0c0,0,0,0,0,0c3.8,1.6,6.6,3.5,8.8,5.5c0.1,0.1,0.2,0.2,0.3,0.3
			c0.2,0.2,0.4,0.4,0.6,0.6c0.1,0.1,0.2,0.2,0.3,0.3c0.2,0.2,0.4,0.4,0.6,0.7c0,0,0.1,0.1,0.1,0.1c0.9,1.1,1.7,2.3,2.3,3.4
			c0,0,0,0.1,0,0.1c0.1,0.3,0.3,0.5,0.4,0.8c0,0,0,0.1,0.1,0.1c0.1,0.2,0.2,0.5,0.3,0.7c0,0.1,0,0.1,0.1,0.2
			c1.2,3.1,1.3,5.8,1.3,7.3c0,0,0,0,0,0c0,0.1,0,0.3,0,0.4c0,0,0,0,0,0c0,0.1,0,0.2,0,0.3c0,0,0,0,0,0.1c0,0.1,0,0.1,0,0.2
			c0,0,0,0,0,0.1c0,0,0,0.1,0,0.1c0,0,0,0,0,0.1c0,0,0,0,0,0.1c0,0,0,0,0,0s-0.2,0.1-0.6,0.4c0,0,0,0,0,0c1.5,1,2.6,1.6,2.6,1.6
			s0,0,0.1-0.1c0,0,0,0,0-0.1c0-0.1,0.1-0.1,0.1-0.2c0-0.1,0.1-0.1,0.1-0.2c0.1-0.1,0.1-0.1,0.2-0.2c0.1-0.1,0.1-0.2,0.2-0.3
			c0.1-0.1,0.1-0.2,0.2-0.3c0.1-0.1,0.2-0.3,0.3-0.4c0.1-0.1,0.1-0.2,0.2-0.3c0.1-0.2,0.2-0.4,0.3-0.5c0.1-0.1,0.2-0.3,0.3-0.4
			c0.1-0.2,0.3-0.4,0.4-0.6c0.1-0.2,0.2-0.3,0.3-0.5c0.1-0.2,0.3-0.5,0.5-0.8c0.1-0.2,0.2-0.4,0.3-0.5c0.2-0.3,0.3-0.6,0.5-0.9
			c0.1-0.2,0.2-0.4,0.3-0.6c0.2-0.3,0.4-0.7,0.6-1c0.1-0.2,0.2-0.4,0.3-0.6c0.2-0.4,0.4-0.8,0.7-1.2c0.1-0.1,0.1-0.3,0.2-0.4
			c0.6-1.1,1.2-2.2,1.8-3.4c0-0.1,0.1-0.1,0.1-0.2c0.2-0.5,0.5-0.9,0.7-1.4c0.2-0.3,0.3-0.6,0.5-0.9c0.2-0.5,0.4-0.9,0.7-1.4
			c0.2-0.4,0.4-0.8,0.6-1.2c0.2-0.5,0.4-1,0.7-1.4c0.1-0.3,0.3-0.6,0.4-0.9c0,0,0,0,0,0c-2.8-1.8-6.1-2.7-9.6-3.2
			C222.9,329.3,219.8,329.3,217,329.4z"/>
		
			<path fill="#FFCC00" stroke="#000000" stroke-width="2" stroke-linecap="round" stroke-linejoin="round" stroke-miterlimit="10" d="
			M137,257.1c0,0.5,0,1,0,1.5c0,0.1,0,0.1,0,0.2c0,1.1,0.2,2.1,0.4,3.2c0,0.1,0,0.1,0,0.2c0.2,1.1,0.5,2.3,0.8,3.4c0,0,0,0.1,0,0.1
			c0.4,1.2,0.8,2.4,1.3,3.6c0,0,0,0,0,0.1c0.7,1.8,1.6,3.7,2.5,5.5c0,0,0,0,0,0c0.6,1.2,1.3,2.4,2,3.6c0,0,0,0,0,0.1
			c0.7,1.2,1.4,2.4,2.1,3.5c0,0,0,0.1,0.1,0.1c0.7,1.1,1.5,2.3,2.2,3.4c0,0,0,0,0,0.1c0.7,1.1,1.5,2.1,2.2,3.2c0,0,0,0.1,0.1,0.1
			c0.7,1,1.5,2,2.2,2.9c0,0,0,0,0,0.1c0.7,0.9,1.4,1.8,2,2.6c0,0,0,0,0.1,0.1c0.3,0.4,0.6,0.8,0.9,1.1c0,0,0,0,0,0
			c0.3,0.4,0.6,0.7,0.9,1.1c0,0,0,0,0,0c0.3,0.3,0.5,0.6,0.8,0.9c0,0,0,0,0,0c0.3,0.3,0.5,0.6,0.7,0.9c0,0,0,0,0,0
			c0.2,0.3,0.4,0.5,0.6,0.7c0,0,0,0.1,0.1,0.1c0.2,0.2,0.4,0.4,0.5,0.6c0,0,0,0,0,0c0.2,0.2,0.3,0.3,0.4,0.5c0,0,0,0,0.1,0.1
			c0.1,0.1,0.2,0.2,0.3,0.3c0,0,0,0,0,0c0.1,0.1,0.1,0.2,0.2,0.2c0,0,0,0,0,0c0,0,0.1,0.1,0.1,0.1s15.6,4.7,24.4-3.4c0,0,0,0,0,0
			c0,0,0,0,0,0c0,0,0,0,0,0c0,0,0-0.1,0-0.1c0,0,0,0,0-0.1c0,0,0-0.1,0-0.2c0,0,0,0,0-0.1c0-0.3,0-0.7,0-1.3c0,0,0,0,0,0
			c0-2.6-0.2-7.7-1-13.8c0,0,0,0,0,0c-0.2-1.6-0.5-3.3-0.8-5.1c0-0.1,0-0.2,0-0.3c-0.1-0.3-0.1-0.6-0.2-0.8c0,0,0-0.1,0-0.1l0,0
			l-3.1-1.7l2-3.4l6.1-10.6c0.3-0.6,0.7-1.1,1.2-1.6c3.2-3,10.1-3.8,10.1-3.8c4.8,0,2.1-5.9,2.1-5.9c2.7,3.2,17.7,5.9,28.5,7
			c10.7,1.1,7.5-5.9,5.9-14c-0.1-0.5-0.2-1.1-0.2-1.6c0,0,0,0,0,0c0-0.3,0-0.6,0-0.8c0-0.4,0-0.8,0.1-1.3c0-0.2,0-0.5,0.1-0.7
			c0-0.2,0.1-0.5,0.2-0.7c0-0.2,0.1-0.4,0.2-0.6c0.1-0.2,0.1-0.5,0.2-0.7c0.1-0.2,0.1-0.4,0.2-0.6c0.1-0.2,0.2-0.5,0.3-0.7
			c0.1-0.2,0.2-0.4,0.2-0.6c0.1-0.2,0.2-0.4,0.3-0.6c0.1-0.2,0.2-0.4,0.3-0.5c0.1-0.2,0.2-0.4,0.3-0.6c0.1-0.2,0.2-0.3,0.3-0.5
			c0.1-0.2,0.2-0.4,0.4-0.6c0.1-0.2,0.2-0.3,0.3-0.5c0.1-0.2,0.2-0.3,0.3-0.5c0.1-0.1,0.2-0.3,0.3-0.4c0.1-0.2,0.2-0.3,0.3-0.4
			c0.1-0.1,0.2-0.3,0.3-0.4c0.1-0.1,0.2-0.3,0.3-0.4c0.1-0.1,0.2-0.2,0.3-0.3c0.1-0.1,0.2-0.2,0.3-0.3c0.1-0.1,0.2-0.2,0.2-0.3
			c0.1-0.1,0.2-0.2,0.2-0.2c0.1-0.1,0.1-0.1,0.2-0.2c0.1-0.1,0.1-0.1,0.2-0.2c0.1-0.1,0.1-0.1,0.2-0.2c0,0,0.1-0.1,0.1-0.1
			c0.1-0.1,0.1-0.1,0.1-0.1c7-5.9,3.8-15.6,3.8-15.6l5.9-7c2.7-1.1,1.6-4.8,1.6-4.8c2.1-5.4-1.1-14.5-1.1-14.5
			c3.2-4.8,2.1-22.6,2.1-22.6c-12.9-19.9-48.3-22-48.3-22c-33.3-3.8-50.5,27.4-50.5,27.4c-3.8,9.1,4.8,29.5,4.8,29.5
			c-2.7,0-12.7-18.9-12.7-18.9c-1.1,2.7,4.7,20,4.7,20c-3.2-1.1-12.2-15.9-12.2-15.9c-2.7,5.4,6.3,36.3,6.3,36.3
			c0.1,0.5,0.2,1,0.3,1.6c0,0.2,0.1,0.5,0.1,0.7c0,0.3,0.1,0.5,0.1,0.8c0,0.3,0.1,0.6,0.1,1c0,0.2,0,0.4,0.1,0.6
			c0,0.4,0.1,0.8,0.1,1.1c0,0.1,0,0.2,0,0.4c0,0.4,0,0.8,0.1,1.3c0,0.1,0,0.1,0,0.2c0,0.4,0,0.9,0,1.3c0,0,0,0.1,0,0.1
			c0,0.5,0,0.9,0,1.4c0,0,0,0,0,0c-0.1,2.8-0.5,5.4-1.1,8c-0.9,3.7-2.2,7.2-3.6,10.2C141.1,251.3,138.8,254.8,137,257.1z
			 M220.6,194.6c4.4-0.1,14.4,0,21.3,2c0.3,0.1,0.6,0.1,0.8,0.2c0,0,0,0,0,0c4,1.3,6.8,3.3,6.7,6.4c-5.4,13.2-20.9,4.5-27.5,0
			C220.6,200.4,220,197.3,220.6,194.6z M171.6,181.2c4.9,0,9.4,0.5,13.3,1.3c0,0,0,0,0,0c0.6,0.1,1.1,0.2,1.6,0.3c0,0,0.1,0,0.1,0
			c0.5,0.1,1,0.2,1.6,0.4c0.1,0,0.2,0.1,0.4,0.1c0.5,0.1,0.9,0.2,1.3,0.4c0.2,0,0.3,0.1,0.5,0.1c0.4,0.1,0.8,0.2,1.2,0.4
			c0.2,0.1,0.4,0.1,0.6,0.2c0.2,0,0.3,0.1,0.5,0.1c0,0,0,0,0,0c11.7,3.8,17.6,9.7,17.6,9.7c-0.6,3.3-10.1,11.7-26.1,4.3
			C173,193.2,171.5,185.5,171.6,181.2z"/>
		
			<path fill="#BF7408" stroke="#000000" stroke-width="2" stroke-linecap="round" stroke-linejoin="round" stroke-miterlimit="10" d="
			M147.9,227.4c0,0,0-0.1,0-0.1c0-0.4,0-0.9,0-1.3c0-0.1,0-0.1,0-0.2c0-0.4,0-0.8-0.1-1.3c0-0.1,0-0.2,0-0.4c0-0.4-0.1-0.7-0.1-1.1
			c0-0.2,0-0.4-0.1-0.6c0-0.3-0.1-0.6-0.1-1c0-0.3-0.1-0.5-0.1-0.8c0-0.2-0.1-0.5-0.1-0.7c-0.1-0.5-0.2-1-0.3-1.6c0,0-9-31-6.3-36.3
			c0,0,9,14.9,12.2,15.9c0,0-6.5-18.7-5.4-21.4c0,0,10.8,20.3,13.5,20.3c0,0-8.6-20.4-4.8-29.5c0,0,17.2-31.2,50.5-27.4
			c0,0,35.4,2.1,48.3,22c0,0,1.1,17.7-2.1,22.6c0,0,3.2,9.1,1.1,14.5c0,0,1.1,3.8-1.6,4.8l-5.9,7c0,0,3.2,9.7-3.8,15.6
			c0,0,0,0-0.1,0.1c0,0,0,0-0.1,0.1c0,0-0.1,0.1-0.2,0.2c0,0-0.1,0.1-0.2,0.2c-0.1,0.1-0.1,0.1-0.2,0.2c-0.1,0.1-0.1,0.2-0.2,0.2
			c-0.1,0.1-0.2,0.2-0.2,0.3c-0.1,0.1-0.2,0.2-0.3,0.3c-0.1,0.1-0.2,0.2-0.3,0.3c-0.1,0.1-0.2,0.3-0.3,0.4c-0.1,0.1-0.2,0.2-0.3,0.4
			c-0.1,0.1-0.2,0.3-0.3,0.4c-0.1,0.1-0.2,0.3-0.3,0.4c-0.1,0.2-0.2,0.3-0.3,0.5c-0.1,0.2-0.2,0.3-0.3,0.5c-0.1,0.2-0.2,0.4-0.4,0.6
			c-0.1,0.2-0.2,0.3-0.3,0.5c-0.1,0.2-0.2,0.4-0.3,0.6c-0.1,0.2-0.2,0.4-0.3,0.5c-0.1,0.2-0.2,0.4-0.3,0.6c-0.1,0.2-0.2,0.4-0.2,0.6
			c-0.1,0.2-0.2,0.4-0.3,0.7c-0.1,0.2-0.1,0.4-0.2,0.6c-0.1,0.2-0.2,0.5-0.2,0.7c-0.1,0.2-0.1,0.4-0.2,0.6c-0.1,0.2-0.1,0.5-0.2,0.7
			c0,0.2-0.1,0.5-0.1,0.7c-0.1,0.4-0.1,0.8-0.1,1.3c0,0.3,0,0.6,0,0.8c0,0,0,0,0,0c20-1,40.5-22.1,44.8-40.3
			c4.8-20.4-15-42.4-15-42.4c11.8-8.1,29-58-23.6-74.1c-52.6-16.1-77.3,28.5-77.3,28.5c-14.5-0.5-62.8,6.4-68.7,46.2
			c-5.9,39.7,26.9,63.9,26.9,63.9l-2.1-20.9c1.7,16.1,19.2,25.5,27.2,29c0-0.5,0.1-0.9,0.1-1.4c0,0,0,0,0,0
			C147.9,228.3,147.9,227.8,147.9,227.4z"/>
		
			<path fill="#FFFFFF" stroke="#000000" stroke-width="2" stroke-linecap="round" stroke-linejoin="round" stroke-miterlimit="10" d="
			M188.2,183.2c0.1,0,0.2,0.1,0.4,0.1C188.5,183.3,188.4,183.2,188.2,183.2z"/>
		
			<path fill="#FFFFFF" stroke="#000000" stroke-width="2" stroke-linecap="round" stroke-linejoin="round" stroke-miterlimit="10" d="
			M184.1,198.4c16.1,7.4,25.6-0.9,26.1-4.3c0,0-5.9-5.8-17.6-9.7c-0.2,2.1-1.9,3.7-4,3.7c-2.2,0-4.1-1.8-4.1-4.1
			c0-0.6,0.1-1.1,0.4-1.6c-4-0.8-8.4-1.2-13.3-1.3C171.5,185.5,173,193.2,184.1,198.4z"/>
		
			<path fill="#FFFFFF" stroke="#000000" stroke-width="2" stroke-linecap="round" stroke-linejoin="round" stroke-miterlimit="10" d="
			M191.6,184.2c0.2,0.1,0.4,0.1,0.6,0.2C192,184.3,191.8,184.2,191.6,184.2z"/>
		
			<path fill="#FFFFFF" stroke="#000000" stroke-width="2" stroke-linecap="round" stroke-linejoin="round" stroke-miterlimit="10" d="
			M190,183.7c0.2,0,0.3,0.1,0.5,0.1C190.3,183.8,190.1,183.7,190,183.7z"/>
		
			<path fill="#FFFFFF" stroke="#000000" stroke-width="2" stroke-linecap="round" stroke-linejoin="round" stroke-miterlimit="10" d="
			M186.6,182.8c0,0,0.1,0,0.1,0C186.7,182.8,186.6,182.8,186.6,182.8z"/>
		<path stroke="#000000" stroke-width="2" stroke-linecap="round" stroke-linejoin="round" stroke-miterlimit="10" d="M188.7,188.2
			c2.1,0,3.8-1.6,4-3.7c0,0,0,0,0,0c-0.2,0-0.3-0.1-0.5-0.1c-0.2-0.1-0.4-0.1-0.6-0.2c-0.4-0.1-0.8-0.2-1.2-0.4
			c-0.2,0-0.3-0.1-0.5-0.1c-0.4-0.1-0.9-0.2-1.3-0.4c-0.1,0-0.2-0.1-0.4-0.1c-0.5-0.1-1-0.2-1.6-0.4c0,0-0.1,0-0.1,0
			c-0.5-0.1-1.1-0.2-1.6-0.3c0,0,0,0,0,0c-0.2,0.5-0.4,1.1-0.4,1.6C184.6,186.4,186.4,188.2,188.7,188.2z"/>
		
			<path fill="#FFFFFF" stroke="#000000" stroke-width="2" stroke-linecap="round" stroke-linejoin="round" stroke-miterlimit="10" d="
			M249.5,203.3c0.2-3.1-2.7-5.1-6.7-6.4c0.1,0.3,0.2,0.7,0.2,1.1c0,2.3-1.9,4.2-4.2,4.2c-2.3,0-4.2-1.9-4.2-4.2
			c0-0.9,0.3-1.8,0.9-2.5c2.3,0.2,4.5,0.6,6.5,1.2c-2.7-0.8-5.7-1.2-8.8-1.6c-4.9-0.5-9.8-0.5-12.5-0.4c-0.7,2.7-0.1,5.8,1.3,8.7
			C228.6,207.8,244.1,216.5,249.5,203.3z"/>
		<path stroke="#000000" stroke-width="2" stroke-linecap="round" stroke-linejoin="round" stroke-miterlimit="10" d="M234.6,198
			c0,2.3,1.9,4.2,4.2,4.2c2.3,0,4.2-1.9,4.2-4.2c0-0.4-0.1-0.7-0.2-1.1c0,0,0,0,0,0c-0.3-0.1-0.6-0.2-0.8-0.2
			c-2-0.5-4.2-0.9-6.5-1.2C234.9,196.2,234.6,197,234.6,198z"/>
	</g>
	<path fill="none" stroke="#000000" stroke-width="2" stroke-miterlimit="10" d="M304.9,317.3c0,0-17.6-5.8-16.8,0.7
		c0.9,6.6,5.8,4.3,5.8,4.3"/>
	<line fill="none" stroke="#000000" stroke-width="2" stroke-miterlimit="10" x1="319.9" y1="302.6" x2="294" y2="312"/>
	<path fill="none" stroke="#000000" stroke-width="2" stroke-linecap="round" stroke-linejoin="round" stroke-miterlimit="10" d="
		M201.7,249c0,0,0.3-7.1-21.5-10.1"/>
	<path fill="none" stroke="#000000" stroke-width="2" stroke-linecap="round" stroke-linejoin="round" stroke-miterlimit="10" d="
		M177.4,243.9c0,0,4.3-2.7,2.8-12"/>
	<path fill="none" stroke="#000000" stroke-width="2" stroke-linecap="round" stroke-linejoin="round" stroke-miterlimit="10" d="
		M180.2,274.2c0,0-3.6,3.8-4.2,4.9"/>
	<path fill="none" stroke="#000000" stroke-width="2" stroke-linecap="round" stroke-linejoin="round" stroke-miterlimit="10" d="
		M155.6,168.7c0,0,0.5-16.8,9.1-24.1"/>
	<path fill="none" stroke="#000000" stroke-width="2" stroke-linecap="round" stroke-linejoin="round" stroke-miterlimit="10" d="
		M254.9,161.9c0,0-1.7-17.7-24.5-29.1"/>
	<path fill="none" stroke="#000000" stroke-width="2" stroke-linecap="round" stroke-linejoin="round" stroke-miterlimit="10" d="
		M234.6,113.6c21,21.1,20.4,46.6,20.4,46.6s9.6-20.6,0-42"/>
	<path fill="none" stroke="#000000" stroke-width="2" stroke-linecap="round" stroke-linejoin="round" stroke-miterlimit="10" d="
		M220.6,194.6c0,0,0.9-5.7,5.3-7.4"/>
	
		<path fill="#FFFFFF" stroke="#000000" stroke-width="2" stroke-linecap="round" stroke-linejoin="round" stroke-miterlimit="10" d="
		M230.4,194.6c0,0,2.4-1.1,4.7-6.4"/>
	
		<path fill="#FFFFFF" stroke="#000000" stroke-width="2" stroke-linecap="round" stroke-linejoin="round" stroke-miterlimit="10" d="
		M242,196.6c0,0,2.4-0.3,2.4-5.7"/>
	
		<path fill="#FFFFFF" stroke="#000000" stroke-width="2" stroke-linecap="round" stroke-linejoin="round" stroke-miterlimit="10" d="
		M249.5,199.3c0,0,3.8-3.1,5.2-7.4"/>
	<path fill="none" stroke="#000000" stroke-width="2" stroke-linecap="round" stroke-linejoin="round" stroke-miterlimit="10" d="
		M239.9,229.5c0,0,16.5-3.2,22.4-15.6"/>
	<path fill="none" stroke="#000000" stroke-width="2" stroke-linecap="round" stroke-linejoin="round" stroke-miterlimit="10" d="
		M221.9,203.3c0,0,4.3,10.9,1.4,13.9s-15.1,8-20.3,1.3"/>
	<path fill="none" stroke="#000000" stroke-width="2" stroke-linecap="round" stroke-linejoin="round" stroke-miterlimit="10" d="
		M224,215.9c0,0,7.8,5.3,10.4,2.3"/>
	<path fill="none" stroke="#000000" stroke-width="2" stroke-linecap="round" stroke-linejoin="round" stroke-miterlimit="10" d="
		M207.6,175.2c0,0,5.1,15.5,2.4,22.1s-30.4,6.3-41-1.9"/>
	<path fill="none" stroke="#000000" stroke-width="2" stroke-linecap="round" stroke-linejoin="round" stroke-miterlimit="10" d="
		M197.3,186.2c-0.1-2.4-0.2-4.9-0.3-7.3c0-0.8,0.3-1.9,1.1-1.7"/>
	<path fill="none" stroke="#000000" stroke-width="2" stroke-linecap="round" stroke-linejoin="round" stroke-miterlimit="10" d="
		M187.7,181.9c-1-2.7,0-6,2.2-7.8"/>
	<path fill="none" stroke="#000000" stroke-width="2" stroke-linecap="round" stroke-linejoin="round" stroke-miterlimit="10" d="
		M178.9,181.1c-0.5-0.7-0.8-1.5-1-2.2c-0.3-1.1-0.6-2.3-0.8-3.5c-0.5-2.8-0.6-5.8,0.1-8.5"/>
	<path fill="none" stroke="#000000" stroke-width="2" stroke-linecap="round" stroke-linejoin="round" stroke-miterlimit="10" d="
		M172.1,181.7c4.1-3.4,9.2-5.6,14.6-6.3"/>
</g>
<g id="Calque_3_-_copie_3">
	<path fill="#F0F1F2" d="M200.3,6.3C94.8,6.3,9.2,91.9,9.2,197.4s85.6,191.1,191.1,191.1S391.5,303,391.5,197.4S305.9,6.3,200.3,6.3
		z M200.3,363.1c-91.5,0-165.6-74.2-165.6-165.6S108.9,31.8,200.3,31.8S366,106,366,197.4S291.8,363.1,200.3,363.1z"/>
</g>
<g id="Calque_4">
	<path fill="none" stroke="#000000" stroke-width="3" stroke-linecap="round" stroke-linejoin="round" d="M333.6,68.7
		c0,0-7,12.6,3.8,27c9.6,12.8,8.3,16.2,7.6,21.6c-13.9,26.2-31.7,15.9-31.7,37.6c0,21.6,35.5,3.4,32.9,27.3
		c-2.5,23.9-46.5,58.4-46.9,69.5c-0.9,27.3,34.7,33.3,34.2,54.8c-1,35.5-20.5,14.2-20.5,14.2s24.6,30,26-14.8
		c0.3-10.6-29.5-26.9-32-36c0,0-7.6-17.1,12.7-31.9c20.3-14.8,34.2-25.1,32.9-37.6c-1.3-12.5-20.3-13.7-20.3-13.7
		s-21.5-6.8-20.3-15.9s12.7-15.9,12.7-15.9s10.1-8,13.9-19.4c3.8-11.4-11.4-27.3-11.4-27.3c-4.9-7.8-3.6-12.6,1.3-26.2"/>
</g>
<g id="Calque_3_-_copie_4">
	<path fill="#F0F1F2" d="M200.3,6.3C94.8,6.3,9.2,91.9,9.2,197.4s85.6,191.1,191.1,191.1S391.5,303,391.5,197.4S305.9,6.3,200.3,6.3
		z M200.3,363.1c-91.5,0-165.6-74.2-165.6-165.6S108.9,31.8,200.3,31.8S366,106,366,197.4S291.8,363.1,200.3,363.1z"/>
</g>
</svg>
