<?xml version="1.0" encoding="utf-8"?>
<!-- Generator: Adobe Illustrator 17.1.0, SVG Export Plug-In . SVG Version: 6.00 Build 0)  -->
<!DOCTYPE svg PUBLIC "-//W3C//DTD SVG 1.0//EN" "http://www.w3.org/TR/2001/REC-SVG-20010904/DTD/svg10.dtd" [
	<!ENTITY ns_extend "http://ns.adobe.com/Extensibility/1.0/">
	<!ENTITY ns_ai "http://ns.adobe.com/AdobeIllustrator/10.0/">
	<!ENTITY ns_graphs "http://ns.adobe.com/Graphs/1.0/">
	<!ENTITY ns_vars "http://ns.adobe.com/Variables/1.0/">
	<!ENTITY ns_imrep "http://ns.adobe.com/ImageReplacement/1.0/">
	<!ENTITY ns_sfw "http://ns.adobe.com/SaveForWeb/1.0/">
	<!ENTITY ns_custom "http://ns.adobe.com/GenericCustomNamespace/1.0/">
	<!ENTITY ns_adobe_xpath "http://ns.adobe.com/XPath/1.0/">
]>
<svg version="1.0" xmlns:x="&ns_extend;" xmlns:i="&ns_ai;" xmlns:graph="&ns_graphs;"
	 xmlns="http://www.w3.org/2000/svg" xmlns:xlink="http://www.w3.org/1999/xlink" x="0px" y="0px" viewBox="0 0 402 400.5"
	 enable-background="new 0 0 402 400.5" xml:space="preserve">
<metadata>
	<sfw  xmlns="&ns_sfw;">
		<slices></slices>
		<sliceSourceBounds  width="382.3" height="642.1" x="95.8" y="108.4" bottomLeftOrigin="true"></sliceSourceBounds>
	</sfw>
</metadata>
<g id="Calque_3_-_copie">
	<circle fill="#FF9B48" cx="200.3" cy="198.4" r="165.6"/>
</g>
<g id="Calque_3_-_copie_3" display="none">
	<path display="inline" fill="#F0F1F2" d="M200.3,6.3C94.8,6.3,9.2,91.9,9.2,197.4s85.6,191.1,191.1,191.1S391.5,303,391.5,197.4
		S305.9,6.3,200.3,6.3z M200.3,363.1c-91.5,0-165.6-74.2-165.6-165.6S108.9,31.8,200.3,31.8S366,106,366,197.4
		S291.8,363.1,200.3,363.1z"/>
</g>
<g id="Calque_4">
	<g>
		<path fill="#965108" d="M73.9,334.5c0.5,0.5,1.1,0.9,1.6,1.4l-0.7-3.3C74.6,333.3,74.3,334,73.9,334.5z"/>
		<path fill="#965108" d="M51.2,308.1c3,8.5,13.4,15.9,21.2,19.5c0.7,0.3,1.2,0.7,1.6,1.2l-18.2-90.8c0,0-3.6-13.6-13.6-10
			c-10,3.6-10,14.5-10,14.5l12.5,62.4C47.2,304.2,50.1,305,51.2,308.1z"/>
		<g>
			<defs>
				<rect id="SVGID_1_" x="31.2" y="123.4" width="343" height="525"/>
			</defs>
			<clipPath id="SVGID_2_">
				<use xlink:href="#SVGID_1_"  overflow="visible"/>
			</clipPath>
			
				<path clip-path="url(#SVGID_2_)" fill="none" stroke="#000000" stroke-width="3" stroke-linecap="round" stroke-linejoin="round" d="
				M73.9,334.5c0.5,0.5,1.1,0.9,1.6,1.4l-0.7-3.3C74.6,333.3,74.3,334,73.9,334.5z"/>
			
				<path clip-path="url(#SVGID_2_)" fill="none" stroke="#000000" stroke-width="3" stroke-linecap="round" stroke-linejoin="round" d="
				M51.2,308.1c3,8.5,13.4,15.9,21.2,19.5c0.7,0.3,1.2,0.7,1.6,1.2l-18.2-90.8c0,0-3.6-13.6-13.6-10c-10,3.6-10,14.5-10,14.5
				l12.5,62.4C47.2,304.2,50.1,305,51.2,308.1z"/>
		</g>
		<g>
			<defs>
				<rect id="SVGID_3_" x="31.2" y="123.4" width="343" height="525"/>
			</defs>
			<clipPath id="SVGID_4_">
				<use xlink:href="#SVGID_3_"  overflow="visible"/>
			</clipPath>
		</g>
		<path fill="#0570A9" d="M314.3,344.3c0.2-0.8,0.6-1.5,1.2-2c-1.8-4.8-4.4-9.9-8.2-14.4c0,0,1.9,7.5,2.4,15.9
			C311.2,343.2,312.9,343.4,314.3,344.3z"/>
		<path fill="#0570A9" d="M265.5,375c0-1.3,0.5-2.6,1.3-3.6c4.5-5.2,10.4-9.2,16.9-12.3c-9.9-10.2-20.3-30-27.1-59.6h-9.8
			c0,0-9.8-42.6,13.3-60.3l-20.4-2.7c0,0-18.6,39-10.6,64.8c0,0-21.3,4.4-33.7,1.8v-24.8L183.9,264c0,0-12.4,48.8,11.5,107.4
			c0,0-1,1.3-2.4,3.7H265.5z"/>
		<path fill="none" stroke="#000000" stroke-width="3" stroke-linecap="round" stroke-linejoin="round" d="M265.5,375
			c0-1.3,0.5-2.6,1.3-3.6c4.5-5.2,10.4-9.2,16.9-12.3c-9.9-10.2-20.3-30-27.1-59.6h-9.8c0,0-9.8-42.6,13.3-60.3l-20.4-2.7
			c0,0-18.6,39-10.6,64.8c0,0-21.3,4.4-33.7,1.8v-24.8L183.9,264c0,0-12.4,48.8,11.5,107.4c0,0-1,1.3-2.4,3.7H265.5z"/>
		<path fill="none" stroke="#000000" stroke-width="3" stroke-linecap="round" stroke-linejoin="round" d="M314.3,344.3
			c0.2-0.8,0.6-1.5,1.2-2c-1.8-4.8-4.4-9.9-8.2-14.4c0,0,1.9,7.5,2.4,15.9C311.2,343.2,312.9,343.4,314.3,344.3z"/>
		<path fill="#96CADE" d="M247.8,291.5c0,0,12.6-16.5-1.5-49.6c-0.7-0.1-1.1-0.1-1.1-0.1c-7.1-15.1-22.2-10.6-22.2-10.6l4.4,9.8
			c20.4,7.1-14.2,36.4-14.2,36.4l-6,6l2.5,2C209.7,285.3,218.5,268.4,247.8,291.5"/>
		<path fill="none" stroke="#000000" stroke-width="3" stroke-linecap="round" stroke-linejoin="round" d="M247.8,291.5
			c0,0,12.6-16.5-1.5-49.6c-0.7-0.1-1.1-0.1-1.1-0.1c-7.1-15.1-22.2-10.6-22.2-10.6l4.4,9.8c20.4,7.1-14.2,36.4-14.2,36.4l-6,6
			l2.5,2C209.7,285.3,218.5,268.4,247.8,291.5L247.8,291.5z"/>
		<path fill="#96CADE" d="M199.1,280.6c-7-8.8-16-23.7-16-23.7c-2.8,3-5.8,7.4-8.9,12.5v31L199.1,280.6"/>
		<path fill="none" stroke="#000000" stroke-width="3" stroke-linecap="round" stroke-linejoin="round" d="M199.1,280.6
			c-7-8.8-16-23.7-16-23.7c-2.8,3-5.8,7.4-8.9,12.5v31L199.1,280.6L199.1,280.6z"/>
		<path fill="#96CADE" d="M320.7,257.1c0,0-2.7,23.5,12.3,31.7c0,0,2.5,0.2,6.1,0c-1.6,7.1-7.4,14.1-24,3.4l5.1,4.4
			c0,0-19,13.5-26.6-17.5c-0.6-3.9-8.3-44.3,17.3-36.9c0,0-2.2,4.2-3.1,7.4c0,0,2.6-8.5,6-11.3c2,3.9,3.9,7.9,5.7,12
			C319.6,250.3,318.6,251.6,320.7,257.1"/>
		<path fill="none" stroke="#000000" stroke-width="3" stroke-linecap="round" stroke-linejoin="round" d="M320.7,257.1
			c0,0-2.7,23.5,12.3,31.7c0,0,2.5,0.2,6.1,0c-1.6,7.1-7.4,14.1-24,3.4l5.1,4.4c0,0-19,13.5-26.6-17.5c-0.6-3.9-8.3-44.3,17.3-36.9
			c0,0-2.2,4.2-3.1,7.4c0,0,2.6-8.5,6-11.3c2,3.9,3.9,7.9,5.7,12C319.6,250.3,318.6,251.6,320.7,257.1L320.7,257.1z"/>
		<path fill="#96CADE" d="M307.9,344.9c0.5-0.5,1.1-0.9,1.8-1.2c-0.5-8.4-2.4-15.9-2.4-15.9c0,0,0,0,0,0.1l-13.9-30.3
			c-7.7-2-21.9-7.7-25.1-23c-2.9-13.7,3.1-24.9,7.8-31.1c-6.9-0.2-13.9-0.6-19.6-0.9c-2.7,2.9-4.8,6.1-6.4,9.6
			c7.8,26.2-2.2,39.3-2.2,39.3c-0.8-0.6-1.6-1.2-2.4-1.8c0.6,5.9,1.5,9.8,1.5,9.8h9.8c6.7,29.6,17.1,49.4,27.1,59.6
			c6.5-3.1,13.6-5.2,20.7-6.5C304.8,349.6,305.8,347.1,307.9,344.9z"/>
		<path fill="none" stroke="#000000" stroke-width="3" stroke-linecap="round" stroke-linejoin="round" d="M307.9,344.9
			c0.5-0.5,1.1-0.9,1.8-1.2c-0.5-8.4-2.4-15.9-2.4-15.9c0,0,0,0,0,0.1l-13.9-30.3c-7.7-2-21.9-7.7-25.1-23
			c-2.9-13.7,3.1-24.9,7.8-31.1c-6.9-0.2-13.9-0.6-19.6-0.9c-2.7,2.9-4.8,6.1-6.4,9.6c7.8,26.2-2.2,39.3-2.2,39.3
			c-0.8-0.6-1.6-1.2-2.4-1.8c0.6,5.9,1.5,9.8,1.5,9.8h9.8c6.7,29.6,17.1,49.4,27.1,59.6c6.5-3.1,13.6-5.2,20.7-6.5
			C304.8,349.6,305.8,347.1,307.9,344.9z"/>
		<path fill="#96CADE" d="M195.5,303c12.4,2.7,33.7-1.8,33.7-1.8c-2-6.5-2.3-13.8-1.7-21.1c-13.3-3.5-17.8,5.1-17.8,5.1l-2.5-2
			l-2.9,2.9c-1.4-1-3.2-3-5.3-5.6l-3.6,2.9V303"/>
		<path fill="none" stroke="#000000" stroke-width="3" stroke-linecap="round" stroke-linejoin="round" d="M195.5,303
			c12.4,2.7,33.7-1.8,33.7-1.8c-2-6.5-2.3-13.8-1.7-21.1c-13.3-3.5-17.8,5.1-17.8,5.1l-2.5-2l-2.9,2.9c-1.4-1-3.2-3-5.3-5.6
			l-3.6,2.9V303L195.5,303z"/>
		<path fill="#96CADE" d="M149.9,320.9c23.3,6.5,30,26.8,31.8,39.5l7.8-5.5c-7.2-23.1-9-43.9-8.8-59.7l-6.6,5.2v-31
			C164.5,285.7,154.4,309.7,149.9,320.9"/>
		<path fill="none" stroke="#000000" stroke-width="3" stroke-linecap="round" stroke-linejoin="round" d="M149.9,320.9
			c23.3,6.5,30,26.8,31.8,39.5l7.8-5.5c-7.2-23.1-9-43.9-8.8-59.7l-6.6,5.2v-31C164.5,285.7,154.4,309.7,149.9,320.9L149.9,320.9z"
			/>
		<path fill="#0570A9" d="M199.9,308.3c0,6.4-4.4,11.5-9.8,11.5c-5.4,0-9.8-5.2-9.8-11.5c0-6.4,4.4-11.5,9.8-11.5
			C195.5,296.8,199.9,302,199.9,308.3"/>
		<path fill="none" stroke="#000000" stroke-width="3" stroke-linecap="round" stroke-linejoin="round" d="M199.9,308.3
			c0,6.4-4.4,11.5-9.8,11.5c-5.4,0-9.8-5.2-9.8-11.5c0-6.4,4.4-11.5,9.8-11.5C195.5,296.8,199.9,302,199.9,308.3L199.9,308.3z"/>
		<path fill="#0570A9" d="M250.5,303c0,5.9-4,10.6-8.9,10.6c-4.9,0-8.9-4.8-8.9-10.6c0-5.9,4-10.6,8.9-10.6
			C246.5,292.4,250.5,297.1,250.5,303"/>
		<path fill="none" stroke="#000000" stroke-width="3" stroke-linecap="round" stroke-linejoin="round" d="M250.5,303
			c0,5.9-4,10.6-8.9,10.6c-4.9,0-8.9-4.8-8.9-10.6c0-5.9,4-10.6,8.9-10.6C246.5,292.4,250.5,297.1,250.5,303L250.5,303z
			 M197.2,323.4c0,0-1.8,47.9,33.7,44.4c0.4,0,0.8-0.1,1.1-0.1c-5.1-11.3-8.6-33-10.1-43.5C207.1,325.3,197.2,323.4,197.2,323.4
			L197.2,323.4z M249.6,319c-10.2,3.1-19.6,4.6-27.6,5.2c1.5,10.5,5,32.2,10.1,43.5C266.1,363.2,249.6,319,249.6,319L249.6,319z"/>
		<g>
			<defs>
				<rect id="SVGID_5_" x="31.2" y="123.4" width="343" height="525"/>
			</defs>
			<clipPath id="SVGID_6_">
				<use xlink:href="#SVGID_5_"  overflow="visible"/>
			</clipPath>
			<path clip-path="url(#SVGID_6_)" fill="#FFCC00" d="M333,288.8c0,0,39,3.5,36.4-30.2c0,0-3.5-54.1-31.1-71.9
				c0,0-9.8-40.8-33.7-43.5c0,0-31-2.3-28.1,18.1c0,0-15,9.8-5.8,20.4c0,0-9.1,9.8,0.7,18.6c9.8,8.8,17.9-1.5,13.9-6.6
				c0,0,21.5,26.6,34.3,56.5c0,0-1.9,1.9,4.7,14.2l-3.6-7.4C320.7,257.1,318,280.6,333,288.8"/>
			
				<path clip-path="url(#SVGID_6_)" fill="none" stroke="#000000" stroke-width="3" stroke-linecap="round" stroke-linejoin="round" d="
				M333,288.8c0,0,39,3.5,36.4-30.2c0,0-3.5-54.1-31.1-71.9c0,0-9.8-40.8-33.7-43.5c0,0-31-2.3-28.1,18.1c0,0-15,9.8-5.8,20.4
				c0,0-9.1,9.8,0.7,18.6c9.8,8.8,17.9-1.5,13.9-6.6c0,0,21.5,26.6,34.3,56.5c0,0-1.9,1.9,4.7,14.2l-3.6-7.4
				C320.7,257.1,318,280.6,333,288.8L333,288.8z M347.6,232.1c0,0,10.6-1.1,17.5-13.9 M351.6,241.2c0,0,10.6-1.1,17.5-13.9
				 M355.7,251.1c0,0,10.6-1.1,17.5-13.9 M270.7,181.8c0,0,6.9-7.3,10.6-7.3 M276.5,161.4c0,0,2.9-2.9,8.8-2.9"/>
		</g>
		<path fill="#96CADE" d="M301.1,295c-2.9-3.1-5.5-8.1-7.5-15.9c0,0-6.3-29.4,5.9-36.5l-0.3,0c-4.5,1-13.7,1.1-23.3,0.9
			c-4.6,6.2-10.6,17.3-7.8,31.1c3.2,15.3,17.4,21,25.1,23l-1.2-2.6H301.1"/>
		<path fill="none" stroke="#000000" stroke-width="3" stroke-linecap="round" stroke-linejoin="round" d="M301.1,295
			c-2.9-3.1-5.5-8.1-7.5-15.9c0,0-6.3-29.4,5.9-36.5l-0.3,0c-4.5,1-13.7,1.1-23.3,0.9c-4.6,6.2-10.6,17.3-7.8,31.1
			c3.2,15.3,17.4,21,25.1,23l-1.2-2.6H301.1L301.1,295z"/>
		<path fill="#96CADE" d="M155.9,375h22c2.1-1,4.1-2.4,4.5-3.9c0,0,2.4-42.1-34.5-50.8c0,0-5.3,1.1-8.9,8c0,0-9.8,0.4-11.1,13.6
			C127.8,342,159.9,346.1,155.9,375z"/>
		<path fill="none" stroke="#000000" stroke-width="3" stroke-linecap="round" stroke-linejoin="round" d="M155.9,375h22
			c2.1-1,4.1-2.4,4.5-3.9c0,0,2.4-42.1-34.5-50.8c0,0-5.3,1.1-8.9,8c0,0-9.8,0.4-11.1,13.6C127.8,342,159.9,346.1,155.9,375z"/>
		<path fill="none" stroke="#000000" stroke-width="3" stroke-linecap="round" stroke-linejoin="round" d="M164.6,350.9
			c0,0-3.3-14.2-25.6-22.5"/>
		<path fill="#FFCC00" d="M127.8,342c-7.5,1.1-22.9,3-34.3,2.7c0,0,2.9,4,2.9,4.9c0,0-5.9-13-20-12.8c1.9,1.7,3.7,3.4,5.6,5.1
			c7.1,6.7,15.1,12.4,23.3,17.7c8.1,5.2,16.5,9.9,25.9,12c1.9,0.4,3,1.8,3.4,3.4h21.3C159.9,346.1,127.8,342,127.8,342z"/>
		<g>
			<defs>
				<rect id="SVGID_7_" x="31.2" y="123.4" width="343" height="525"/>
			</defs>
			<clipPath id="SVGID_8_">
				<use xlink:href="#SVGID_7_"  overflow="visible"/>
			</clipPath>
			
				<path clip-path="url(#SVGID_8_)" fill="none" stroke="#000000" stroke-width="3" stroke-linecap="round" stroke-linejoin="round" d="
				M127.8,342c-7.5,1.1-22.9,3-34.3,2.7c0,0,2.9,4,2.9,4.9c0,0-5.9-13-20-12.8c1.9,1.7,3.7,3.4,5.6,5.1c7.1,6.7,15.1,12.4,23.3,17.7
				c8.1,5.2,16.5,9.9,25.9,12c1.9,0.4,3,1.8,3.4,3.4h21.3C159.9,346.1,127.8,342,127.8,342z"/>
			<path clip-path="url(#SVGID_8_)" fill="#FFCC00" d="M207.2,283.3l6-6c0,0,34.6-29.3,14.2-36.4l-4.4-9.8l-19.4-78.7
				c-21.4-32-43.8-27.8-43.8-27.8c-45.9,5.3-52.3,47-52.3,47c-15,6.4-9.6,12.8-9.6,12.8h27.8c-7.5,16-16,17.1-16,17.1
				c-22.4,11.8-8.5,26.7-8.5,26.7c-7.5,4.3-12.8,15-12.8,15c-7.5,25.6,24.6,5.3,24.6,5.3c9.6,8.5,44.9-23.5,44.9-23.5
				c15,13.9,46.7,61,46.7,61l3-2.7L207.2,283.3"/>
			
				<path clip-path="url(#SVGID_8_)" fill="none" stroke="#000000" stroke-width="3" stroke-linecap="round" stroke-linejoin="round" d="
				M207.2,283.3l6-6c0,0,34.6-29.3,14.2-36.4l-4.4-9.8l-19.4-78.7c-21.4-32-43.8-27.8-43.8-27.8c-45.9,5.3-52.3,47-52.3,47
				c-15,6.4-9.6,12.8-9.6,12.8h27.8c-7.5,16-16,17.1-16,17.1c-22.4,11.8-8.5,26.7-8.5,26.7c-7.5,4.3-12.8,15-12.8,15
				c-7.5,25.6,24.6,5.3,24.6,5.3c9.6,8.5,44.9-23.5,44.9-23.5c15,13.9,46.7,61,46.7,61l3-2.7L207.2,283.3L207.2,283.3z"/>
		</g>
		<path fill="#FFCC00" d="M189.7,200.5c0,0-26.7,17.1-32,24.6"/>
		<path fill="none" stroke="#000000" stroke-width="3" stroke-linecap="round" stroke-linejoin="round" d="M189.7,200.5
			c0,0-26.7,17.1-32,24.6"/>
		<path fill="#CC0000" d="M223.9,152.5l8.5-1.1c0,0-8.5-11.8-18.2-12.8l3.2-5.3c0,0-20.3-2.1-26.7,6.4c0,0,13.9,7.5,6.4,19.2
			c0,0-14.3,15.2-8.5,32.6c3.3-1,6.7-1.8,9.5-2.5c-0.2-4.1-0.1-21.1,15-17.3c5.9,1.5,7.8,5,7.6,9c1.4-0.3,2.5-0.2,3.1,0.6l1.1-10.7
			l6.4,1.1C231.4,171.7,234.6,156.7,223.9,152.5"/>
		<path fill="none" stroke="#000000" stroke-width="3" stroke-linecap="round" stroke-linejoin="round" d="M223.9,152.5l8.5-1.1
			c0,0-8.5-11.8-18.2-12.8l3.2-5.3c0,0-20.3-2.1-26.7,6.4c0,0,13.9,7.5,6.4,19.2c0,0-14.3,15.2-8.5,32.6c3.3-1,6.7-1.8,9.5-2.5
			c-0.2-4.1-0.1-21.1,15-17.3c5.9,1.5,7.8,5,7.6,9c1.4-0.3,2.5-0.2,3.1,0.6l1.1-10.7l6.4,1.1C231.4,171.7,234.6,156.7,223.9,152.5
			L223.9,152.5z"/>
		<path fill="#FFCC00" d="M204.6,187.7l-1.1,6.4c3.9-0.2,7.1,0.9,9.9,2.9c2-2.6,15.7-21.4-0.2-25.3c-15.1-3.8-15.2,13.3-15,17.3
			C201.9,188.2,204.6,187.7,204.6,187.7"/>
		<path fill="none" stroke="#000000" stroke-width="3" stroke-linecap="round" stroke-linejoin="round" d="M204.6,187.7l-1.1,6.4
			c3.9-0.2,7.1,0.9,9.9,2.9c2-2.6,15.7-21.4-0.2-25.3c-15.1-3.8-15.2,13.3-15,17.3C201.9,188.2,204.6,187.7,204.6,187.7L204.6,187.7
			z M137.3,209.1c0,0-10.7,31-36.3,19.2 M127.7,170.6c0,0-6.4,15,11.8,6.4c0,0,17.1-10.7,28.8-9.6 M139.5,196.3
			c0,0,9.6,1.1,18.2-2.1 M212.1,178.1c0,0-7.5-1.1-7.5,9.6c0,0,6.4-4.3,7.5,0"/>
		<path fill="#FFFFFF" d="M125.6,184.5H99.8c-1.8,4.9-3.9,14.8,7.5,18.4c0.7-0.4,1.5-0.9,2.3-1.3
			C109.6,201.6,118.1,200.5,125.6,184.5"/>
		<path fill="none" stroke="#000000" stroke-width="3" stroke-linecap="round" stroke-linejoin="round" d="M125.6,184.5H99.8
			c-1.8,4.9-3.9,14.8,7.5,18.4c0.7-0.4,1.5-0.9,2.3-1.3C109.6,201.6,118.1,200.5,125.6,184.5L125.6,184.5z"/>
		<path fill="#FFFFFF" d="M139.5,177c-2.4,1.2-4.4,1.9-6.1,2.3c-0.1,4.8,1.3,15.5,16.1,13.8c15.7-1.8,19.9-18,17-25.7
			C154.9,167.4,139.5,177,139.5,177"/>
		<path fill="none" stroke="#000000" stroke-width="3" stroke-linecap="round" stroke-linejoin="round" d="M139.5,177
			c-2.4,1.2-4.4,1.9-6.1,2.3c-0.1,4.8,1.3,15.5,16.1,13.8c15.7-1.8,19.9-18,17-25.7C154.9,167.4,139.5,177,139.5,177L139.5,177z
			 M152.3,170.7c0.2-0.1,0.3-0.1,0.5-0.2C152.6,170.5,152.4,170.6,152.3,170.7L152.3,170.7z"/>
		<path d="M153.6,170.3c-0.3,0-0.6,0.1-0.8,0.1c-0.2,0.1-0.3,0.1-0.5,0.2c-1,0.5-1.6,1.5-1.6,2.6c0,1.6,1.3,3,3,3c1.6,0,3-1.3,3-3
			C156.6,171.7,155.3,170.3,153.6,170.3"/>
		<path d="M112.4,184.5h-3.6c-0.7,0.5-1.2,1.4-1.2,2.3c0,1.6,1.3,3,3,3c1.6,0,3-1.3,3-3C113.5,185.9,113.1,185,112.4,184.5"/>
		<path fill="#CC0000" d="M91.4,166.3c0,0-13.9,5.3,1.1,5.3l35.3-1.1c0,0,35.3-21.4,49.1-21.4c0,0,2.1-4.3-8.5-4.3
			c0,0,6.4-13.9-6.4-7.5l-9.6,5.3l2.1-10.7l-20.3,18.2l-1.1-10.7l-9.6,15l-12.8-11.8l2.1,12.8c0,0-16-12.8-21.4-10.7
			c-5.3,2.1,7.5,13.9,7.5,13.9s-8.5-2.1-11.8,0C83.9,161,91.4,166.3,91.4,166.3"/>
		<path fill="none" stroke="#000000" stroke-width="3" stroke-linecap="round" stroke-linejoin="round" d="M91.4,166.3
			c0,0-13.9,5.3,1.1,5.3l35.3-1.1c0,0,35.3-21.4,49.1-21.4c0,0,2.1-4.3-8.5-4.3c0,0,6.4-13.9-6.4-7.5l-9.6,5.3l2.1-10.7l-20.3,18.2
			l-1.1-10.7l-9.6,15l-12.8-11.8l2.1,12.8c0,0-16-12.8-21.4-10.7c-5.3,2.1,7.5,13.9,7.5,13.9s-8.5-2.1-11.8,0
			C83.9,161,91.4,166.3,91.4,166.3L91.4,166.3z"/>
		<path d="M192.2,223.6c0,0,4.6-8.3,12.4-4.3c-1.1-9.4-12-14.3-18.5-16.4c-1.4,0.9-3,2-4.9,3.3v2.9c-0.8-0.5-1.7-0.8-2.6-1.1
			c-5.2,3.6-11.2,7.9-15.5,11.7c2.8,2.6,8.6,8.5,9.7,13.9c1,0.1,1.8,0.3,2.6,0.4C177.3,229.5,184.3,216.3,192.2,223.6"/>
		<path fill="none" stroke="#000000" stroke-width="3" stroke-linecap="round" stroke-linejoin="round" d="M192.2,223.6
			c0,0,4.6-8.3,12.4-4.3c-1.1-9.4-12-14.3-18.5-16.4c-1.4,0.9-3,2-4.9,3.3v2.9c-0.8-0.5-1.7-0.8-2.6-1.1
			c-5.2,3.6-11.2,7.9-15.5,11.7c2.8,2.6,8.6,8.5,9.7,13.9c1,0.1,1.8,0.3,2.6,0.4C177.3,229.5,184.3,216.3,192.2,223.6L192.2,223.6z"
			/>
		<path fill="#FFFFFF" d="M161,221.4c1.8,2.5,5.3,4.9,11.9,1.1c4.8-2.7,2.6-7.9,0.6-11.1C168.9,214.8,164.3,218.4,161,221.4"/>
		<path fill="none" stroke="#000000" stroke-width="3" stroke-linecap="round" stroke-linejoin="round" d="M161,221.4
			c1.8,2.5,5.3,4.9,11.9,1.1c4.8-2.7,2.6-7.9,0.6-11.1C168.9,214.8,164.3,218.4,161,221.4L161,221.4z"/>
		<path fill="#FFFFFF" d="M172.9,212c1.4,2.7,4.9,6.9,12.7,2.5c5-2.9,2.4-8.4,0.3-11.5C182.7,205.1,177.8,208.5,172.9,212"/>
		<path fill="none" stroke="#000000" stroke-width="3" stroke-linecap="round" stroke-linejoin="round" d="M172.9,212
			c1.4,2.7,4.9,6.9,12.7,2.5c5-2.9,2.4-8.4,0.3-11.5C182.7,205.1,177.8,208.5,172.9,212L172.9,212z"/>
		<path fill="#FF0000" d="M204.6,219.3c-7.7-4-12.4,4.3-12.4,4.3c-8-7.3-14.9,5.9-17,10.4c1.7,0.3,2.7,0.7,2.7,0.7s27.8-1.1,26.7-15
			C204.6,219.6,204.6,219.4,204.6,219.3"/>
		<path fill="none" stroke="#000000" stroke-width="3" stroke-linecap="round" stroke-linejoin="round" d="M204.6,219.3
			c-7.7-4-12.4,4.3-12.4,4.3c-8-7.3-14.9,5.9-17,10.4c1.7,0.3,2.7,0.7,2.7,0.7s27.8-1.1,26.7-15
			C204.6,219.6,204.6,219.4,204.6,219.3L204.6,219.3z"/>
		<path fill="#CC0000" d="M226,219.8c0,0-5.3-26.7-22.4-25.6l1.1-6.4c0,0-25.6,4.3-28.8,10.7l2.1-13.9c0,0-29.9,17.1-43.8,38.5
			l-4.4-1c-11.4,13.6-24.3,8.3-28.7,6.3c0,0-0.7-0.7-1.5-2c-5,0.1-9.7,0.4-8.1,0.9c3.2,1.1,10.7,7.5,10.7,7.5l-19.2,2.1
			c0,0,5.3,13.9,47-5.3l-3.2,7.5c0,0,18.2-7.5,31-25.6c0,0,13.9-9.6,23.5-4.3v-7.5c0,0,22.4,4.3,23.5,18.2c1.1,13.9-26.7,15-26.7,15
			s-23.5-8.5-27.8,18.2l9.6-5.3l2.1,17.1l9.6-13.9l4.3,12.8l12.8-13.9l4.3,8.5c0,0,16-13.9,19.2-19.2l3.2,5.3c0,0,9.6-20.3,5.3-31
			L226,219.8"/>
		<path fill="none" stroke="#000000" stroke-width="3" stroke-linecap="round" stroke-linejoin="round" d="M226,219.8
			c0,0-5.3-26.7-22.4-25.6l1.1-6.4c0,0-25.6,4.3-28.8,10.7l2.1-13.9c0,0-29.9,17.1-43.8,38.5l-4.4-1c-11.4,13.6-24.3,8.3-28.7,6.3
			c0,0-0.7-0.7-1.5-2c-5,0.1-9.7,0.4-8.1,0.9c3.2,1.1,10.7,7.5,10.7,7.5l-19.2,2.1c0,0,5.3,13.9,47-5.3l-3.2,7.5
			c0,0,18.2-7.5,31-25.6c0,0,13.9-9.6,23.5-4.3v-7.5c0,0,22.4,4.3,23.5,18.2c1.1,13.9-26.7,15-26.7,15s-23.5-8.5-27.8,18.2l9.6-5.3
			l2.1,17.1l9.6-13.9l4.3,12.8l12.8-13.9l4.3,8.5c0,0,16-13.9,19.2-19.2l3.2,5.3c0,0,9.6-20.3,5.3-31L226,219.8L226,219.8z"/>
	</g>
</g>
<g id="Calque_3_-_copie_4">
	<path fill="#F0F1F2" d="M200.3,6.3C94.8,6.3,9.2,91.9,9.2,197.4s85.6,191.1,191.1,191.1S391.5,303,391.5,197.4S305.9,6.3,200.3,6.3
		z M200.3,363.1c-91.5,0-165.6-74.2-165.6-165.6S108.9,31.8,200.3,31.8S366,106,366,197.4S291.8,363.1,200.3,363.1z"/>
</g>
</svg>
