<?xml version="1.0" encoding="utf-8"?>
<!-- Generator: Adobe Illustrator 17.1.0, SVG Export Plug-In . SVG Version: 6.00 Build 0)  -->
<!DOCTYPE svg PUBLIC "-//W3C//DTD SVG 1.0//EN" "http://www.w3.org/TR/2001/REC-SVG-20010904/DTD/svg10.dtd" [
	<!ENTITY ns_extend "http://ns.adobe.com/Extensibility/1.0/">
	<!ENTITY ns_ai "http://ns.adobe.com/AdobeIllustrator/10.0/">
	<!ENTITY ns_graphs "http://ns.adobe.com/Graphs/1.0/">
	<!ENTITY ns_vars "http://ns.adobe.com/Variables/1.0/">
	<!ENTITY ns_imrep "http://ns.adobe.com/ImageReplacement/1.0/">
	<!ENTITY ns_sfw "http://ns.adobe.com/SaveForWeb/1.0/">
	<!ENTITY ns_custom "http://ns.adobe.com/GenericCustomNamespace/1.0/">
	<!ENTITY ns_adobe_xpath "http://ns.adobe.com/XPath/1.0/">
]>
<svg version="1.0" xmlns:x="&ns_extend;" xmlns:i="&ns_ai;" xmlns:graph="&ns_graphs;"
	 xmlns="http://www.w3.org/2000/svg" xmlns:xlink="http://www.w3.org/1999/xlink" x="0px" y="0px" viewBox="0 0 283.5 283.5"
	 enable-background="new 0 0 283.5 283.5" xml:space="preserve">
<metadata>
	<sfw  xmlns="&ns_sfw;">
		<slices></slices>
		<sliceSourceBounds  width="262.6" height="262.6" x="15" y="10.4" bottomLeftOrigin="true"></sliceSourceBounds>
	</sfw>
</metadata>
<g id="Calque_2">
	<circle fill="#F46E4A" cx="146.3" cy="141.7" r="121"/>
</g>
<g id="Calque_4">
	<g>
		<path fill="#010101" d="M245.3,191.9c1.6-1.4,2-3.3,1.3-5.4c-0.6-2-1.8-3.3-4.1-3.7c-4.6-0.9-8.8,0.2-13,1.7
			c-1.7,0.6-3.4,1.3-5.2,1.2c-2.5-0.2-5.1,0.2-6.9,1.7c-4.2,3.7-9.3,5-14.5,6.3c-2.1,0.5-4,1.8-6.2,0.4c-0.5-0.3-1.2-0.1-1.8,0
			c-7.6,0.6-15.1,1.5-22.8,0.6c-8.1-1-15.7-7.9-17-15.8c-0.1-0.8-0.5-1.9,0.9-2.2c3.6-0.7,4.6-3.5,5.1-6.6c0.1-0.6-0.1-1.5,0.8-1.7
			c2.2-0.7,3.5-2.5,5.3-3.8c2.2-1.7,4.5-2.7,7.2-0.9c0.8,0.5,1.8,0.7,2.8,0.8c3.5,0.6,5.3-0.3,6.8-3.6c0.2-0.3,0.3-0.9,0.5-0.9
			c2.8-0.4,5.3-2.3,7.9-2.3c3.1,0,6-0.4,8.8-1.5c0.9-0.3,1.4-0.3,2.2,0.4c1.6,1.3,3.5,1.8,5.5,1.4c1.3-0.3,2.1,0,3,1
			c2.4,2.7,6.4,2,8-1.3c1.9-3.9,0.6-9-3-12c-2.5-2.1-5.2-4.1-7.7-6.2c-1.8-1.4-3.4-3-4.8-4.9c5.6-2.1,7.2-3.1,9.2-5.4
			c6.7-7.9,3.5-20.4-6.4-25c-4.4-2.1-9.2-3.1-13.9-2.1c-4.5,0.9-6.5-0.8-8.2-4.5c-1.5-3.3-4.2-5.7-7.9-6.5c-3.1-0.7-6.2-1.1-9.4-0.2
			c-4.5,1.2-8.8,0.8-12.9-1.5c-1.3-0.7-2.7-1.3-4.1-1.8c-1.6-0.6-3.3-0.8-5.1-0.3c-2.3,0.6-3.5-0.2-3.7-2.7c-0.1-0.7,0.1-1.3,0.2-2
			c0-0.4-0.1-0.8-0.5-0.9c-0.5-0.1-0.6,0.3-0.7,0.6c-0.3,1-0.2,1.9,0,2.9c0.3,1.3,1.6,2.6,0.8,3.7c-0.7,1-2.2,1.6-3.3,2.3
			c-0.5,0.3-1,0.6-1.5,1c-0.9,0.6-1.5,0.5-2.2-0.5c-1.7-2.5-3.9-4.7-3.9-8.2c-1.1,1.5-0.9,2.7-0.2,3.9c1,1.6,2,3.2,3,4.8
			c0.3,0.5,0.8,0.9,0.2,1.6c-1.3,1.4-5.7,1.8-7.2,0.6c-2-1.6-4-3.2-6.6-3.7c-1.5-0.3-1.8-0.2-3.1,0.8c3.8,0.1,6.6,1.7,9,4.2
			c-3.1,2.9-6.2,0.2-9.6,0.2c0.6,1.3,1.4,1.3,2.1,1.3c1.9,0.2,1.8,0.9,0.8,2.3c-1.6,2.2-2.7,4.7-3.3,7.4c-0.3,1.3-0.6,1.8-2.2,1.1
			c-6.1-2.8-11.8,0.8-12.3,7.5c0,0.5,0.1,1.3-0.2,1.5c-2.8,2.4-4.7,6.1-8.9,6.5c-3.2,0.3-5.2,2.2-6.4,5c-0.5,1.1-1.1,1.6-2.2,1.9
			c-3.7,1.2-7.5,1.7-11.3,2.1c-8.8,1-16.2,4.8-20.9,12.6c-1.5,2.6-3.1,5-5.1,7.2c-3.4,3.7-4.8,8.5-5.1,13.5
			c-0.4,7.1-1.5,13.9-6.1,19.7c-3.3,4.3-3.6,9.1-2.3,14.2c0.3,1.2,0.3,2.3,0,3.4c9.6,7.8,17.2,18.4,25.7,27.3
			c8.4,8.8,17.8,19,29.7,22.7c2.9,0.9,4.2,4.3,3.3,6.8c7.3,3,14.7,4.8,22.5,6.3c15.4,2.5,30.8,4.5,46.4,4.7
			c2.2-3.5,3.4-7.6,3.3-11.9c-0.1-1.9,0.5-3.1,1.9-4.4c4.1-3.8,4.8-7.7,2.5-12.8c-1.5-3.3-3.8-6-6.2-8.6c-2-2.1-3.9-4.3-6-6.5
			c0.4-0.2,0.6-0.3,0.7-0.2c0.5,0.1,1,0.2,1.5,0.3c11.6,2.8,23.3,4,35.2,3c4.7-0.4,7.9-3,9.9-7.2c0.4-0.8,0.8-1.2,1.8-1.2
			c2.9,0.2,5.7-0.6,8.4-1.3c1.3-0.3,2.5-0.9,2.9-2.3c0.4-1.3,0.9-1.4,2.2-1.2c4.9,0.9,9.4-0.1,13.2-3.5c0.9-0.8,1.7-1,2.9-0.9
			c5.6,0.7,9.9-1.7,8.4-8.6c-0.2-0.8,0-1.3,0.5-1.8c1.9-2.3,2.1-5,1.1-7.7C244.5,193.2,244.4,192.7,245.3,191.9z"/>
		<path fill="#FEFEFE" d="M52.1,146.6c3.6-5.7,8.2-9.4,14.2-11.1c4.9-1.4,10.1-1.6,15.1-2.6c3.1-0.6,5.5-1.6,6.5-5
			c0.6-1.8,2.3-2.5,4.1-2.8c1-0.2,1.9-0.3,2.9-0.4c0.2,1.6-0.1,3-1,4.5c-6.6,11.1-5.8,22,2.4,32.1c2.6,3.2,5.6,6.1,8.6,9
			c6.3,6.1,12.1,12.6,15.6,20.9c0.5,1.2,1.1,1.3,1.8,0.1c1.3-2,2.7-4,4-6c0.6-0.9,1-1.2,1.7,0c2.5,4.4,3.7,9.2,4.3,14.2
			c0.1,0.8-0.3,1.5-0.7,2.1c-4.3,7.7-6.7,15.7-5.4,24.7c0.5,3.8,0,7.5-1.3,11.1c-0.6,1.7-1,3.5-1.4,5.2c-0.8,3.8-0.2,7.1,2.6,10
			c2.3,2.4,4.2,5.1,6.3,7.7c1.4,1.7,3.4,2,4.9,0.6c2.2-2,2.2-2,5,0c-3.8,2-7.3,4-11.7,1.2c-3.4-2.1-7.4-1.3-11-0.5
			c-5.3,1.3-10.4,0.8-15.6-1c-3.4-1.2-6.9-2.2-10.3-3.3c-2.4-0.8-3.5-2.9-2.7-5.4c0.8-2.3,0.4-4-1.3-5.9c-7.8-9.2-12.6-19.5-12.5-32
			c0.2-16.3,0.4-32.6-0.7-48.8C75.9,154.5,67.6,143.3,52.1,146.6z"/>
		<path fill="#F7DB00" d="M189,153.2c-0.4,0.9-0.2,1.3,0.2,1.6c2.2,1.7,0.6,2.3-0.9,2.8c-5.1,1.8-11.2,1-14.4-1.9
			c1.6-1,3.2-1.6,4.9-2.1c0.5-0.2,1.4,0,1.2-0.9c-0.2-0.7-1-0.5-1.6-0.5c-1.3,0.1-2.6,0.5-3.6,1.2c-4.5,3.3-9,2.9-13.4-0.2
			c-4.5-3.1-9.3-2.4-14.2-1.8c-1.9,0.2-3.9,0.5-5.8,0.6c-3,0.1-5.8-0.3-7.6-3.3c-0.8-1.4-2.5-1.9-3.9-2.6c-1.7-0.9-3.4-1.9-4.1-4.1
			c3.6-0.3,6.7-1.5,9-4.2c0.5-0.6,1.6-1.3,0.7-2.1c-0.9-0.9-1.4,0.4-1.8,1c-3.1,4-7.2,4-11.5,3.1c-2.2-0.5-4.3-1.1-6.5-1.6
			c-0.4,1,0.3,1.1,0.7,1.3c1.5,0.8,3.1,1.2,4.7,1.6c1.6,0.3,2.8,0.9,3.6,2.6c1.1,2.2,3.4,3.4,5.6,4.5c1.3,0.7,2.5,1.4,3.3,2.7
			c1.2,2,3.1,2.7,5.3,2.8c2.8,0.1,5.6-0.1,8.3-0.5c2.7-0.4,5.4-0.4,8.1-0.3c1.4,0.1,2.8,0.4,4.1,1.2c3.7,2.3,7.4,4.4,12.1,2.9
			c0.6-0.2,1.1,0.3,1.7,0.6c2.5,1.4,5.1,2.6,8.1,2.7c1.6,0.1,1.3,1,0.7,1.8c-1,1.4-2.5,1.7-4,1.4c-1.2-0.2-2.3-0.6-3.4-1.2
			c-3.3-1.6-6.2-0.8-8.4,1.6c-2.3,2.4-4.7,3.6-8,2.6c-0.3-0.1-0.6-0.1-0.9-0.1c-0.5,0-1.2-0.1-1.3,0.5c-0.1,0.6,0.6,0.7,1.1,0.9
			c0.9,0.4,2.4-0.4,2.8,0.9c0.4,1.2,0.1,2.5-0.3,3.8c-0.9,2.5-3.5,3.8-5.8,2.6c-3.3-1.7-6.7-1.6-10.2-1.3
			c-4.5,0.3-10.2-0.9-14.5-3.1c1.7-2.5,3.6-4.3,7-3.6c2.6,0.5,4.4-0.9,4.4-3.2c0-0.5,0.1-1.2-0.6-1.3c-0.5-0.1-0.7,0.5-0.8,0.9
			c-0.4,2.3-1.8,2.6-3.8,2.2c-2.4-0.5-4.4,0.1-5.9,2.3c-1.7,2.4-6.2,2-7.5-0.7c-0.6-1.1-1.1-1.2-2.2-1.3c-4.6-0.6-9-2.2-12.6-5.1
			c-7.2-5.8-11.5-13.1-11.1-22.6c0.1-1.2,0.2-2.4,0.5-3.6c0.7-2.5,1.3-4.9,0.5-7.6c-0.7-2.3,2.3-6.9,4.4-7.8c1-0.5,1.1,0.4,1.5,0.8
			c2.3,2.2,5.8,3.1,8.6,2c0.6-0.2,1.5-0.5,1.2-1.3c-0.3-0.9-1-0.2-1.5,0c-2.4,0.7-4.7,0.5-6.6-1.2c-2-1.8-1.8-4.2-1.1-6.5
			c0.7-2.4,2.4-3.9,4.9-4.1c3-0.3,6-0.2,7.2,3.4c0.1,0.4,0.4,0.7,0.8,0.7c0.4,0,0.7-0.3,0.6-0.7c-0.2-1.2,0.5-0.9,1.2-0.8
			c3,0.5,6.1,1.1,9.1,1.6c1,0.2,1.6,0.4,1.6,1.7c0.4,8.9,5.1,15,13,18.5c7.3,3.2,15.1,4.4,23,2.4c5.6-1.4,10-4.9,13.1-9.7
			c2.3-3.6,7.9-4.6,11.3-2c1.8,1.4,2.2,3.4,1.7,5.5c-0.5,1.9-2.2,2.6-4,2.7c-1.8,0.2-3.5-0.2-5.1-0.8c-0.4-0.2-0.9-0.5-1.2,0.1
			c-0.3,0.6,0.2,0.9,0.7,1.1c3.2,1.4,8,2.3,10.7-1.9c0.5-0.8,1.1-0.8,1.9-0.6c2.4,0.7,4.5,1.9,6.3,3.5c5.2,4.6,10.3,9.3,15.8,13.5
			c2.9,2.3,3.9,5.4,3.1,9.1c-0.5,2-1.7,3-3.6,3.3c-1.7,0.3-2.8-0.8-3.5-2.3c-0.2-0.5-0.4-1-0.7-1.4c-0.3-0.4-0.4-1.1-1.1-0.9
			c-0.6,0.2-0.4,0.7-0.4,1.1c0.1,0.9-0.7,0.8-1.2,0.9c-1.9,0.3-3.5-0.6-5-1.6c-1.2-0.7-2.1-2.8-3.9-0.2c-1.3,1.9-6,1.6-8,0.2
			C190.8,154.6,189.9,153.9,189,153.2z"/>
		<path fill="#FEFEFE" d="M39.7,209.5c6.6,6.7,12.5,14.3,18.9,21c7.1,7.5,15,16.1,24.6,20.7c1.6-0.2,3.3-0.1,4.9,0.8
			c0.6,0.3,1.1,0.6,1.4-0.3c0.5-1.5,1-3-0.4-4.4c-5.5-5.5-8.9-12.2-11.3-19.5c-0.8-2.6-2-5-2.1-7.8c-0.5-16.4,0.8-32.9-0.7-48.7
			c0.6-6.1-0.3-11.1-3.3-15.9c-5.8-9.6-18.7-10.3-24.9-1c-2.8,4.2-3.9,9-4.2,13.9c-0.4,5.3-0.5,10.5-2.4,15.6
			c-1.2,3.4-1.7,6.9-0.8,10.5C40.6,199.3,40.5,204.4,39.7,209.5z"/>
		<path fill="#0E711E" d="M108.3,264.1c1.2,0.5,2.4,1.1,3.5,1.7c0.8,0.2,1.5,0.3,2.3,0.4c14.8,2.4,29.6,4.3,44.6,4.7
			c0.1-0.2,0.3-0.5,0.5-0.7c2.3-3.2,3.6-7,3.3-11.1c-0.1-0.9,0-1.7-1.4-1.3c-3.7,1-7.2,2-7.7,6.6c-0.1,0.9-0.6,1.7-0.9,2.5
			c-0.6,1.6-1.6,1.7-2.8,0.7c-1.2-1-2.3-2.1-3.2-3.5c-1.2-1.8-2.6-2.6-4.7-1.5c-1.4,0.7-2.9,1.2-4.4,1.7c-1.8,0.6-3.4,0.6-5.2-0.3
			c-3.1-1.6-6.4-2.1-9.8-1.9c-1.9,0.1-3.6,1-5.4,1.4c-3.6,0.8-7-0.2-10.5-0.5C106.9,263.7,107.7,263.8,108.3,264.1z"/>
		<path fill="#FEFEFE" d="M154.9,182.2c3,6.7,6.9,11.8,14.2,13.5c4.8,1.1,9.6,0.9,14.4,0.6c3.8-0.3,7.5-0.4,11.3-0.8
			c3.2-0.4,4.3,0.9,4.2,4.1c-0.2,6,0.6,11.9,2.7,17.5c1.3,3.5,0.5,6.5-2.4,8.8c-2.1,1.6-4.5,2.7-7.1,2.7
			c-11.3,0.1-22.6-0.3-33.6-3.1c-3.4-0.9-5.5-2.9-6.4-6.2c-3-11-2.7-22.1,0.3-33C152.8,184.8,153.6,183.5,154.9,182.2z"/>
		<path fill="#FEFEFE" d="M177.9,117.2c0,9.6-8.3,17.6-18.3,17.6c-10.7,0-19.2-8-19.2-18.1c0-9.7,8.4-17.7,18.5-17.8
			C169.4,98.9,177.9,107,177.9,117.2z"/>
		<path fill="#F4B484" d="M150.8,267.1c-2.1-2.6-3.9-4.8-6.2-6.6c-2.1-1.7-4.4-3.1-7-4.1c-2.8-1-3.7-2.4-3.5-5.4
			c0.1-1.1,0.2-2.2,0.3-3.4c0.2-2.1-0.5-3.9-1.9-5.5c-3.2-3.5-3.8-7.9-2.7-12.3c1.7-6.4,1.8-12.8,0.5-19.2c-0.8-3.9,1.5-6.9,3.3-10
			c0.5-0.9,1.6-0.7,2.5-0.5c1.1,0.2,1.9,1,2,2.1c0.3,2.2,0.6,4.3,0.8,6.5c0.5,8.7,3.3,16.6,7.2,24.3c2.8,5.5,5.9,10.8,9.2,16
			c1.2,1.9,1.4,3.8,0.6,5.8C154.2,258.8,152.2,262.6,150.8,267.1z"/>
		<path fill="#F7DB00" d="M103,263.7c-0.6-0.2-1.2-0.4-1.8-0.6c-0.9-0.3-1.8-0.5-2.7-0.7C100,262.9,101.5,263.3,103,263.7z"/>
		<path fill="#FEFEFE" d="M146.9,189.1c1,1.1-0.7,2.8,0.8,3.3c1,0.4,1-1.1,1.7-1.9c0.3,2.6-0.3,4.8-0.5,7
			c-0.4,6.3-0.4,12.5,0.8,18.7c1,5,3.3,9.3,6.7,13.1c2.5,2.7,5,5.4,7.4,8.2c1.9,2.2,3.5,4.7,4,7.7c0.5,2.9,0,5.5-2.3,7.6
			c-2.5,2.4-5.2,4.2-9.4,4.8c3.6-4.8,0.7-8.4-1.4-12.1c-3.7-6.6-7.6-12.9-10.7-19.9c-3.1-7-3.8-14.5-4.3-22c0-0.5-0.2-1.1,0.3-1.5
			c2.6-1.8,3.2-4.8,4.3-7.5C145.2,192.8,146,191,146.9,189.1z"/>
		<path fill="#F7DB00" d="M179.6,112c-2.6-7-7.6-10.6-13.6-13.2c-6.7-2.9-13.5-4.4-20.7-2.8c-7.9,1.7-13.4,6.2-15.7,14.2
			c-0.3,1-0.5,1.6-1.8,1.3c-3.1-0.6-6.2-1.2-9.3-1.7c-1.4-0.2-1.6-0.9-1.3-2c1.7-5.9,2.9-9.1,8.8-10.1c5.9-1,11.2-3.2,16-6.9
			c3.4-2.7,7.2-3.1,11.1-0.7c4.8,2.9,9.9,3.4,15.5,2.3c8.5-1.7,14.2,1.5,17.5,9.5c0.3,0.8,0.2,1.2-0.4,1.7
			C183,105.7,181.1,108.2,179.6,112z"/>
		<path fill="#FEFEFE" d="M134.1,174c-2.4,2.7-4.5,5-6.6,7.4c-2.1,2.4-3.8,5.1-5.5,7.7c-0.2-0.1-0.5-0.2-0.6-0.4
			c-4.5-9.1-11.4-16.2-18.7-23c-5.2-4.8-9.1-10.3-11-17.3c-1.8-6.9,0.4-13.1,3.7-19.3c0.7,0.9,0.7,1.6,0.4,2.2
			c-2.9,6.3-1.8,12.6,0.9,18.5c3.7,8.1,9.5,14.1,18.4,16.4c3.6,0.9,6.4,3.2,9.7,4.3C128,171.5,130.6,173.5,134.1,174z"/>
		<path fill="#F7DB00" d="M221.1,215.5c-2,0.8-3.7-1.7-6.1-1.2c-0.4,0.1-0.5-0.7-0.6-1.1c-2.3-6-2.9-12.2-2-18.4
			c0.7-4.4,4.5-6.1,8.2-7.1c7.5-2.2,12,2.6,14.2,8.8c0.6,1.8,0.2,3.7-1.4,4.9c-1.5,1.2-3.3,0.9-5,0.5c-1.5-0.4-1.6-2-2.2-3.2
			c-0.3-0.6-0.4-1.6-1.1-1.5c-0.9,0.1-0.6,1-0.7,1.7c-0.5,3.5-3.6,5.5-6.9,4.6c-0.5-0.1-1.1-0.9-1.4,0.1c-0.2,0.7,0.5,1.1,1,1.3
			c2.2,0.7,4.4,0.4,6.2-1c1-0.8,1.7-1.2,2.5,0.1c0.3,0.5,0.8,0.8,1.5,0.9c1.2,0.2,1.7,1.2,1.9,2.3c0.3,1.5,0.4,3,1.8,4
			c0.8,0.6-0.1,1-0.4,1.4C228,215,224.8,215.4,221.1,215.5z"/>
		<path fill="#FEFEFE" d="M34.2,204.3c1.4,1.2,2.8,2.5,4.1,3.8c0.5-2.8,0.7-5.7,0.1-8.6c-1-5.1-1.7-10.2-0.5-15.4
			c-3.5,4.4-5.6,9-3.9,14.6C34.7,200.5,34.6,202.4,34.2,204.3z"/>
		<path fill="#F4B484" d="M146.7,184.2c0,0.2,0.1,0.8-0.2,1.3c-2,4.5-3.1,9.3-5.7,13.5c-0.9,1.5-1.7,1.9-3,0.5
			c-0.5-0.5-1.1-0.9-1.8-0.8c-2.1,0.1-2.5-1-2.8-2.8c-0.7-4.2-2-8.2-4-11.9c-0.8-1.4-0.6-2.3,0.6-3.3c0.9-0.8,1.8-1.7,2.4-2.7
			c2.3-3.4,5.5-3.4,9-2.6C143.6,176,146.7,180.8,146.7,184.2z"/>
		<path fill="#CCE2EF" d="M156.3,97.4c-8.9,2.3-15.5,6.6-17.3,15.7c-1.8,9.1,2.4,15.7,10,20.7c-12.2-1.6-20.1-11.2-18.3-22
			C132.7,100.6,143.9,95.3,156.3,97.4z"/>
		<path fill="#FEFEFE" d="M194.6,105.6c4.5-2.2,8.9-1.9,12.9,0.3c5.2,2.8,8.1,7.3,8.1,13.3c0,5.6-2.5,9.6-7.3,12.3
			c-1.1,0.6-2.3,1.1-3.6,1.2c-0.6,0-1.6,0.7-1.7-0.3c-0.1-0.7-0.6-1.7,0.3-2.3c1.3-0.8,1.7-2.3,2.6-3.3c1.4-1.6,1.2-3.5-0.5-5.5
			c-0.6-0.7-0.9-1.3-0.6-2.3c0.7-2.1-0.7-4.7-3.1-5.6c-1.3-0.5-2.1-1.2-2.6-2.5C198.2,108.8,196.7,107.1,194.6,105.6z"/>
		<path fill="#FEFEFE" d="M206.8,219.9c-2.7,0.6-2.8-1.4-3.7-3.5c-2.5-5.8-2.8-11.8-2.7-17.9c0-1.6,0.6-2.4,2-3.1
			c2.4-1.1,4.8-1.7,7.4-1.8c0.9,0,1.2,0.1,1.1,1.1c-1.3,7.2,0.6,14,2.6,20.8c0.8,2.9,0.8,3-2.1,3.8C210,219.7,208.6,220,206.8,219.9
			z"/>
		<path fill="#FEFEFE" d="M202.4,128.5c-1,0.6-2,0.2-3,0c-0.5-0.1-0.9-0.2-1.1,0.4c-0.1,0.4,0.3,0.7,0.6,0.8
			c0.2,0.1,0.4,0.2,0.6,0.2c0.7,0.2,1.7-0.1,2.1,0.9c0.1,0.2-0.1,0.5-0.2,0.6c-0.9,0.4-1.5-0.4-2.2-0.7c-0.7-0.3-1.4-1-2.2-1.2
			c-2.7-0.9-4.9-2.1-5.4-5.4c-0.2-1.5-1.8-2.3-3.3-2.8c-0.7-0.2-1.4-0.4-1.5-1.4c-0.4-4.7,0.8-8.8,4.3-12.1c1.1-1.1,2.3-1.3,3.4-0.2
			c1.5,1.5,3.9,2.6,2.9,5.6c-0.4,1.1,0.8,1,1.5,1c1.7,0.1,3.1,0.8,4,2.2c1.1,1.8,0.4,3.2-1.7,3.2c-1.8,0-3.5,0.2-4.9,1.4
			c-1.8,1.5-1.8,3.4,0.2,4.7C198.3,126.9,200.1,128.1,202.4,128.5z"/>
		<path fill="#F3B484" d="M127.5,233.6c0.5,4.1,2.4,7.4,4.8,10.6c0.7,1,0.7,2.3,0.7,3.5c0,1.7,0,3.3,0,5c0.1,2.1,0.9,3.8,2.8,4.8
			c0.6,0.3,1.4,0.6,0.8,1.4c-0.5,0.8-1.3,1.3-2.3,0.7c-1.1-0.7-1.9-1.7-2.7-2.7c-1-1.4-1.9-2.9-3.3-4c-3-2.6-4.4-5.7-3.6-9.8
			C125.5,239.8,126.4,236.8,127.5,233.6z"/>
		<path fill="#F7DB00" d="M229.1,186.3c4.5-2.1,8.9-2.4,13.4-2.1c2.2,0.2,2.7,1.9,2.9,3.7c0.2,1.9-0.8,3-2.5,3.5
			c-2.3,0.7-4.8,0.1-7.1,1.3c-0.4,0.2-0.7-0.1-0.9-0.4C233.4,190.1,231.3,188.3,229.1,186.3z"/>
		<path fill="#CCE2EF" d="M195.6,103.3c-6.5,3.6-10.2,8.3-10,15.6c0,0.7,0.8,2-0.9,2c-1.4,0-3.3,0.5-3.6-1.7
			c-1-7.4,1.4-15,11.4-15.9C193.4,103.2,194.3,103.3,195.6,103.3z"/>
		<path fill="#F6DB00" d="M229.2,203.9c0.9-0.2,1.8-0.3,2.7-0.5c3.3-0.7,5.3-3.5,4.6-6.8c-0.5-2.1-0.1-3.1,2.2-3.2
			c1.8,0,3.8-1.1,4.9,1.3c1.1,2.5,0.3,5.4-1.9,6.8c-2.9,1.9-6.1,3.3-9.7,3.1C231,204.6,230.1,204.6,229.2,203.9z"/>
		<path fill="#FCFCFC" d="M148.6,187.9c-0.4-4.6-0.9-8.6-3.9-11.9c-0.7-0.8-0.2-1,0.5-1.1c2.6-0.3,5.1,0.1,7.4,1.4
			c1.2,0.7,1.3,1.9,1.1,3.2c-0.3,1.7-1.2,3.1-2.2,4.4C150.6,185.1,149.8,186.3,148.6,187.9z"/>
		<path fill="#F6DB01" d="M233.1,206.3c2.1-0.1,4.8-0.8,7.2-2.1c1.4-0.7,1.8-0.4,1.9,1.1c0.1,3.1-0.9,4.8-3.5,5.5
			c-3,0.8-6.9-0.5-8-2.7C229.9,206.6,230.2,206.3,233.1,206.3z"/>
		<path fill="#F1B283" d="M128.6,211.8c2.1,4.2,1.6,14.1-1,20.1C128.4,225.3,125.8,218.6,128.6,211.8z"/>
		<path fill="#FAFAFA" d="M204.9,125.7c-2.1,1.5-6.8,0.7-8.1-1.4c-0.6-0.9-0.2-1.6,0.5-2.2c1.3-1.2,4.9-1.5,6.4-0.4
			c0.5,0.4,1.7,0.7,0.2,1.8C202,124.8,204,125.2,204.9,125.7z"/>
		<path fill="#0E711E" d="M106.4,263c-3.8-0.8-7.6-1.8-11.2-3.5C99,260.4,102.8,261.4,106.4,263C106.4,263,106.4,263,106.4,263z"/>
		<path fill="#0D0B05" d="M109.2,112.6c-1.6-0.5-2.4,0.6-3.4,1.1c-0.3,0.1-0.6,0.5-1,0.1c-0.3-0.4-0.1-0.7,0.1-1
			c1.6-2.4,6.9-2.1,8.2,0.5c0.2,0.4,0.3,0.9,0.3,1.3c0,0.5-0.2,0.9-0.7,0.9c-0.5,0-0.6-0.4-0.6-0.8c-0.1-0.8-0.2-1.6-1.3-1.3
			c-0.9,0.3-1.2,1-1.1,2c0,0.1,0.1,0.3,0.1,0.4c-0.1,0.6,1,1.6,0,1.8c-1.1,0.2-1.2-1.1-1.4-1.9C108.1,114.6,108.6,113.6,109.2,112.6
			z"/>
		<path fill="#050505" d="M161.6,125.4c-3.9-0.2-5.9-2.5-7.5-5.4c-0.6-1.2-0.4-1.9,0.9-2.5c3-1.4,6.1-2.3,9.3-1.1
			c2.2,0.8,2.8,2.2,2.2,4.4c-1,3.6-4.5,6.8-7.6,6.8c-0.5,0-1.4,0.3-1.5-0.6c-0.1-0.8,0.8-0.8,1.4-0.8
			C159.8,126.4,160.6,126.2,161.6,125.4z"/>
		<path fill="#FCFCFC" d="M163.4,123.3c-3.2,1.4-6.8-0.2-8-3.5c-0.2-0.5-0.1-0.8,0.3-1.1c1.7-1.5,6.7-2,8.6-0.8
			c0.4,0.3,0.9,0.6,0.9,1.2c0,0.9-0.8,0.4-1.2,0.5C162.1,120.1,161.9,121.2,163.4,123.3z"/>
	</g>
</g>
<g id="Calque_3">
	<path fill="#F0F1F2" d="M146.3,10.4C73.8,10.4,15,69.2,15,141.7S73.8,273,146.3,273s131.3-58.8,131.3-131.3S218.8,10.4,146.3,10.4z
		 M146.3,262.7c-66.8,0-121-54.2-121-121s54.2-121,121-121s121,54.2,121,121S213.2,262.7,146.3,262.7z"/>
</g>
</svg>
