<?xml version="1.0" encoding="utf-8"?>
<!-- Generator: Adobe Illustrator 16.0.3, SVG Export Plug-In . SVG Version: 6.00 Build 0)  -->
<!DOCTYPE svg PUBLIC "-//W3C//DTD SVG 1.1//EN" "http://www.w3.org/Graphics/SVG/1.1/DTD/svg11.dtd">
<svg version="1.1" id="Layer_1" xmlns="http://www.w3.org/2000/svg" xmlns:xlink="http://www.w3.org/1999/xlink" x="0px" y="0px"
	 width="453px" height="453px" viewBox="0 0 453 453" enable-background="new 0 0 453 453" xml:space="preserve">
<g id="Layer_2_1_">
</g>
<g display="none">
	<path display="inline" fill-rule="evenodd" clip-rule="evenodd" fill="#020101" d="M408.042,327.677
		c-12.188-11.257-23.854-23.023-34.28-35.945c-3.033-3.758-6.746-5.356-11.341-5.382c-2.143-0.013-4.287,0.173-6.431,0.294
		c-0.757,0.042-1.413,0.11-2.159-0.384c-6.95-4.603-14.562-7.977-22.532-10.095c-6.161-1.637-11.088-4.343-14.549-9.671
		c-0.247-0.381-0.583-0.711-0.905-1.038c-0.596-0.605-0.701-1.316-0.523-2.108c1.752-7.76,2.588-15.606,2.01-23.669
		c0.983,0.384,1.223,1.162,1.608,1.785c3.236,5.223,4.896,11.011,6.144,16.962c0.197,0.941-0.166,2.551,1.186,2.679
		c1.493,0.141,1.476-1.568,1.85-2.536c4.008-10.375,3.496-20.67-0.576-30.928c-1.034-2.605-2.778-4.929-2.963-7.9
		c-0.146-2.363-0.514-4.727-0.968-7.053c-1.909-9.762-5.389-18.831-11.996-26.466c-5.604-6.477-12.602-10.868-20.613-13.74
		c-0.849-0.305-1.943-0.271-1.754-1.851c0.319-2.657,0.366-5.348,0.477-8.028c0.033-0.825,0.01-1.351,1.157-1.463
		c5.995-0.583,9.471-4.214,11.229-9.715c1.594-4.981-0.027-9.186-3.405-12.851c-3.919-4.249-8.904-6.916-14.055-9.339
		c-17.357-8.167-31.014-20.657-42.187-36.073c-6.7-9.244-15.06-16.504-25.716-20.894c-10.909-4.494-22.257-4.886-33.696-3.067
		c-12.415,1.973-22.298,7.509-27.36,19.941c-5.285,12.977-3.773,24.702,5.365,35.34c3.714,4.324,8.189,7.845,12.653,11.357
		c0.596,0.468,1.135,0.802,1.14,1.785c0.022,4.91,0.28,9.813,0.859,14.69c0.148,1.244-0.243,1.692-1.402,2.108
		c-4.607,1.658-9.117,3.564-13.482,5.799c-1.661,0.851-3.152,1.898-4.28,3.404c-3.287,4.391-1.394,10.021,3.853,11.449
		c1.637,0.445,3.312,0.571,5.006,0.641c3.274,0.133,6.502-0.445,10.007-0.834c-0.834,1.681-1.628,3.039-1.775,4.559
		c-0.216,2.234-1.327,3.971-2.513,5.787c-2.337,3.58-2.998,7.494-1.626,11.645c0.236,0.714,0.417,1.401,0.156,2.209
		c-2.574,7.975-0.921,14.957,5.062,20.856c0.643,0.634,0.932,1.259,0.971,2.18c0.235,5.553,1.359,10.949,3.292,16.15
		c0.527,1.418,0.251,1.934-1.107,2.513c-7.766,3.311-14.595,8.048-20.612,13.952c-1.529,1.5-3.098,2.989-4.144,4.906
		c-1.608,2.948-0.842,5.194,2.237,6.439c0.706,0.286,1.448,0.533,2.197,0.655c4.417,0.712,8.842,0.864,13.267,0.035
		c2.995-0.561,2.986-0.562,2.619,2.384c-0.075,0.605-0.24,1.295-0.041,1.824c0.546,1.446-0.314,2.027-1.301,2.728
		c-5.881,4.169-11.706,8.418-17.256,13.023c-5.957,4.941-12.108,9.714-16.093,16.567c-0.494,0.849-1.139,0.582-1.782,0.553
		c-4.311-0.188-8.392,0.662-12.158,2.788c-1.096,0.618-1.437,0.496-1.761-0.785c-0.913-3.608-3.033-6.257-6.888-6.837
		c-11.712-1.762-22.423,0.866-31.919,7.93c-4.081,3.036-6.841,5.934-3.359,12.605c0.318,0.611,0.516,1.296,0.895,1.861
		c0.759,1.133,0.596,1.662-0.733,2.31c-9.735,4.742-16.853,13.267-20.245,23.156c3.795,4.057,6.013,9.687,7.804,15.176
		c2.734,2.979,5.69,5.678,9.121,7.773c9.176,5.605,19.944,10.244,21.533,22.026c16.173,10.369,34.228,18.188,51.516,24.091
		c27.687,9.453,56.731,14.607,85.959,17.006c8.94-2.515,19.15-2.655,27.703-3.902c6.966-1.016,14.345-2.402,21.715-3.029
		c0.539-0.389,1.088-0.762,1.646-1.116c-0.754-2.114-0.168-4.78,2.018-6.217c1.978-1.3,4.033-2.3,6.146-3.08
		c3.453-3.358,7.747-5.334,12.382-6.757c2.171-0.667,4.768,0.641,5.89,2.624c0.979-0.691,1.949-1.397,2.916-2.12
		c1.384-1.035,2.764-1.152,3.943-0.703c2.172-1.43,5.031-0.491,6.549,1.464c1.636-0.704,3.317-1.296,5.075-1.708
		c2.94-3.055,6.065-5.975,9.405-8.524c13.041-14.887,24.953-30.855,40.683-43.08c1.369-1.064,2.988-1.357,4.453-1.094
		c1.373-2.187,2.749-4.369,4.098-6.561c1.736-2.769,4.813-2.839,6.977-1.518c2.716-6.522,7.248-12.6,11.67-18.159
		C409.344,328.871,408.69,328.276,408.042,327.677z"/>
	<path display="inline" fill-rule="evenodd" clip-rule="evenodd" fill="#3DA50B" d="M249.521,430.65
		c5.146-0.579,10.272-0.93,14.91-1.605c6.966-1.016,14.345-2.402,21.715-3.029c0.539-0.389,1.088-0.762,1.646-1.116
		c-0.754-2.114-0.168-4.78,2.018-6.217c1.978-1.3,4.033-2.3,6.146-3.08c3.453-3.358,7.747-5.334,12.382-6.757
		c2.171-0.667,4.768,0.641,5.89,2.624c0.979-0.691,1.949-1.397,2.916-2.12c1.384-1.035,2.764-1.152,3.943-0.703
		c2.172-1.43,5.031-0.491,6.549,1.464c1.636-0.704,3.317-1.296,5.075-1.708c2.94-3.055,6.065-5.975,9.405-8.524
		c1.324-1.512,2.636-3.037,3.942-4.566c-10.478-32.224-24.752-62.652-43.44-91.396c-0.339,0.541-0.534,0.774-0.645,1.042
		c-1.914,4.648-5.166,7.772-10.22,8.619c-1.532,0.257-1.32,1.145-1.323,2.122c-0.008,4.485-1.989,7.996-5.509,10.607
		c-5.437,4.034-11.604,5.153-18.109,3.664c-2.283-0.523-3.253-0.015-4.462,1.894c-3.359,5.31-8.146,8.246-14.671,8.342
		c-5.49,0.079-9.77-2.209-13.479-5.899c-1.15-1.146-1.845-1.56-3.145-0.098c-2.022,2.273-4.685,3.242-7.808,3.227
		c-2.203-0.011-4.276-0.709-6.645-0.986c0.363,0.948,0.629,1.656,0.904,2.358c3.594,9.193,7.291,18.349,10.765,27.587
		C236.22,387.527,243.139,409.003,249.521,430.65z"/>
	<path display="inline" fill-rule="evenodd" clip-rule="evenodd" fill="#152568" d="M359.071,295.374
		c6.381,19.14,11.852,38.537,15.961,58.293c0.582,2.797,1.744,4.168,4.334,5.11c0.219,0.08,0.427,0.175,0.639,0.266
		c0.919-0.761,1.849-1.511,2.794-2.245c1.369-1.064,2.988-1.357,4.453-1.094c1.373-2.187,2.749-4.369,4.098-6.561
		c1.736-2.769,4.813-2.839,6.977-1.518c2.481-5.96,6.481-11.549,10.527-16.711c-3.835-3.64-7.663-7.287-11.475-10.951
		c-8.406-8.078-16.639-16.368-23.705-25.644c-4.246-5.573-9.541-6.747-15.888-5.957c-1.104,0.137-1.509,0.172-0.832,1.462
		C357.868,291.565,358.445,293.494,359.071,295.374z"/>
	<path display="inline" fill-rule="evenodd" clip-rule="evenodd" fill="#152568" d="M151.437,412.033
		c-0.232,1.308-0.534,2.582-0.887,3.832c0.073,0.024,0.146,0.052,0.219,0.076c3.121,1.065,6.263,2.059,9.416,3.018
		c-1.714-2.604-3.515-5.155-5.422-7.645c-0.749-0.978-1.238-2.861-2.517-2.623c-1.099,0.205-0.264,2.084-0.734,3.125
		C151.481,411.886,151.45,411.96,151.437,412.033z"/>
	<path display="inline" fill-rule="evenodd" clip-rule="evenodd" fill="#152568" d="M125.993,331.261
		c4.338-0.211,6.955,2.428,8.967,5.742c2.917,4.802,2.406,10.133,1.746,15.354c-0.554,4.376-2.036,8.604-2.328,13.048
		c-0.118,1.784,0.057,3.1,1.947,4.116c3.84,2.063,6.795,5.207,8.991,8.96c4.536,7.755,6.509,16.239,6.818,25.153
		c0.032,0.952,0.221,1.718,0.856,2.51c3.523,4.389,6.894,8.887,9.927,13.622c8.719,2.562,17.547,4.747,26.46,6.568
		c0.408-3.76,0.692-7.542,0.834-11.349c0.054-1.452,0.4-3.042-0.807-4.321c-1.682-1.783-3.27-3.656-4.992-5.399
		c-4.426-4.479-8.881-8.933-13.379-13.342c-1.063-1.042-1.573-1.691-0.306-3.126c4.25-4.813,8.379-9.736,12.292-14.837
		c0.726-0.946,0.954-1.677,0.608-2.89c-3.627-12.743-9.135-24.641-15.873-36.013c-0.842-1.42-1.986-1.995-3.464-2.269
		c-3.432-0.636-3.438-0.058-2.701-4.121c0.307-1.689,0.079-2.998-0.952-4.245c-1.657-2.005-3.348-3.981-5.001-5.99
		c-0.655-0.796-1.276-0.995-2.375-0.679c-8.735,2.519-17.388,5.306-26.107,7.864c-2.551,0.748-2.604,2.208-2.639,4.153
		C124.496,330.858,124.904,331.314,125.993,331.261z"/>
	<path display="inline" fill-rule="evenodd" clip-rule="evenodd" fill="#A8BBCA" d="M202.858,283.369
		c2.414,0.062,4.61-0.241,6.581-1.39c1.065-0.621,1.468,0.017,1.975,0.751c2.636,3.823,2.316,7.68-0.998,11.779
		c-0.411,0.507-1.21,0.904-0.847,1.709c0.33,0.733,1.125,0.71,1.814,0.72c14.195,0.203,28.33,1.326,42.47,2.502
		c6.26,0.521,12.527,0.174,18.66-1.764c5.323-1.682,8.869-5.451,9.311-10.976c0.363-4.544-0.58-8.88-2.97-12.789
		c-3.286-5.379-8.444-6.54-14.201-5.761c-7.763,1.053-15.269,0.258-22.567-2.547c-1.347-0.517-2.286-0.466-3.379,0.811
		c-3.881,4.536-9.121,5.656-14.786,5.201c-2.023-0.163-3.833-1.169-5.192-2.716c-1.041-1.187-1.806-1.045-2.769,0.072
		c-1.714,1.989-3.754,3.589-6.138,4.737c-5.391,2.594-11.385,1.626-15.316-2.832c-1.574-1.786-2.434-1.722-4.138-0.184
		c-3.31,2.986-7.446,3.821-11.806,3.385c-1.98-0.198-3.176-1.421-3.345-3.475c-0.135-1.639,0.365-3.168,0.822-4.713
		c0.179-0.605,0.831-1.233,0.212-1.92c-0.698-0.773-1.515-0.181-2.134,0.045c-5.292,1.928-10.685,1.688-16.113,0.887
		c-0.672-0.099-1.363-0.27-1.971-0.562c-1.651-0.792-2.275-1.961-1.22-3.704c1.451-2.395,3.454-4.309,5.453-6.202
		c9.627-9.118,21.155-14.443,34.076-16.986c1.155-0.228,1.742-0.069,1.753,1.188c0.001,0.147,0.092,0.292,0.128,0.44
		c1.623,6.515,4.124,7.735,10.29,4.952c4.119-1.858,7.658-4.775,11.849-6.53c1.41-0.59,2.613-0.676,4.125-0.227
		c6.918,2.054,13.595,0.683,20.289-1.461c10.648-3.409,21.295-3.056,31.738,0.986c4.312,1.67,5.887,4.402,5.431,8.899
		c-0.126,1.242,0.385,1.667,1.496,1.757c1.221,0.098,2.461,0.136,3.65,0.395c6.893,1.504,10.925,5.518,10.026,13.187
		c-0.264,2.257,0.086,3.715,2.172,5.086c3.211,2.11,5.201,5.387,6.442,9.011c1.361,3.97,0.009,7.438-2.525,10.451
		c-1.1,1.309-1.205,2.369-0.617,3.906c2.06,5.385,1.491,10.697-0.942,15.821c-1.884,3.969-4.974,6.348-9.501,6.51
		c-1.21,0.044-1.792,0.36-1.677,1.766c0.658,8.039-3.6,11.584-10.044,13.986c-4.228,1.577-8.594,1.401-12.882,0.171
		c-1.653-0.472-2.552-0.531-3.543,1.341c-5.886,11.115-18.305,12.509-27.364,3.216c-2.174-2.229-2.337-2.365-4.271-0.029
		c-4.718,5.699-16.555,3.745-18.735-4.602c-0.792-3.032-0.926-2.998-3.671-1.555c-3.874,2.036-7.748,1.576-10.847-1.291
		c-2.63-2.432-3.323-6.265-1.882-9.979c0.383-0.988,0.748-1.44,1.973-1.146c2.308,0.557,4.685,0.788,7.073,0.766
		c0.726-0.007,1.575-0.063,1.592-0.926c0.018-0.905-0.905-0.914-1.574-0.929c-2.769-0.061-5.487-0.374-8.166-1.135
		c-3.449-0.979-5.959-2.9-6.482-6.608c-0.517-3.666,0.959-6.572,3.939-8.746c1.755-1.28,3.867-1.81,5.76-2.799
		C203.624,291.089,204.729,288.146,202.858,283.369z"/>
	<path display="inline" fill-rule="evenodd" clip-rule="evenodd" fill="#152568" d="M165.082,331.158
		c8.963,1.671,17.683,4.2,26.199,7.428c3.785,1.435,7.517,3.008,11.263,4.541c1.562,0.639,1.977,1.392,0.978,3.143
		c-2.729,4.785-5.5,9.544-8.557,14.118c-6.254,9.354-13.013,18.334-20.498,26.752c-2.614,2.94-2.579,2.915,0.028,5.466
		c9.863,9.646,19.238,19.726,27.88,30.506c1.695,2.115,3.341,4.262,4.966,6.422c9.749,1.492,19.562,2.607,29.398,3.414
		c3.514-0.986,7.221-1.61,10.948-2.075c-0.305-1.058-0.599-2.118-0.911-3.174c-4.057-13.691-8.281-27.321-12.94-40.816
		c-4.611-13.357-9.449-26.638-14.894-39.68c-2.069-4.958-3.202-10.38-6.805-14.624c-0.859-1.013-1.573-2.103-1.893-3.375
		c-0.402-1.604-1.149-1.59-2.432-0.879c-2.229,1.233-4.642,1.54-7.1,0.749c-5.966-1.921-9.735-7.94-7.352-14.34
		c0.38-1.021,0.772-1.801-0.625-2.614c-6.562-3.818-6.834-12.333-0.789-16.971c2.004-1.537,4.35-2.201,6.478-3.385
		c4.404-2.448,4.723-6.621,0.643-9.633c-1.204-0.889-2.24-1.885-2.773-3.265c-0.463-1.201-0.89-2.462-1.029-3.729
		c-0.187-1.698-1.426-2.59-2.56-3.33c-0.815-0.533-1.431,0.826-2.127,1.327c-3.927,2.821-8.364,3.414-12.915,2.562
		c-1.668-0.312-2.067,0.004-2.474,1.394c-2.252,7.693-4.578,15.365-6.427,23.17c-0.899,3.794-0.879,3.799,2.991,3.82
		c0.998,0,2.011-0.109,2.99,0.025c1.547,0.212,3.156,0.654,3.57,2.396c0.405,1.703-0.631,2.819-2.015,3.77
		c-2.765,1.898-5.87,2.975-9.036,3.857c-1.153,0.323-1.614,0.752-1.793,1.938c-0.66,4.373-1.41,8.733-2.211,13.083
		C162.957,330.764,164.066,330.969,165.082,331.158z"/>
	<path display="inline" fill-rule="evenodd" clip-rule="evenodd" fill="#FEFEFE" d="M193.197,70.001
		c20.146-0.579,35.781,7.979,47.52,23.831c8.295,11.202,17.748,21.084,29.17,29.088c5.926,4.153,12.576,6.963,18.851,10.464
		c3.969,2.213,7.755,4.697,10.252,8.672c4.161,6.621,0.31,15.653-7.282,17.172c-1.531,0.306-2.388,0.031-2.182-1.728
		c0.284-2.418-0.504-3.381-3.214-3.631c-4.577-0.422-8.479-2.978-12.344-5.325c-7.532-4.577-14.334-10.261-21.999-14.639
		c-8.903-5.085-17.696-10.546-28.066-12.116c-14.597-2.209-28.763-1.207-41.768,6.712c-2.299,1.401-4.37,3.104-6.287,4.999
		c-0.425,0.42-0.725,1.204-1.607,0.479c-5.872-4.825-11.882-9.528-15.768-16.255c-4.986-8.632-5.03-17.51-1.552-26.742
		c4.795-12.729,14.764-18.165,27.358-20.098C187.228,70.433,190.223,70.288,193.197,70.001z"/>
	<path display="inline" fill-rule="evenodd" clip-rule="evenodd" fill="#FED611" d="M171.003,195.636
		c-0.853-3.346-0.388-6.152,1.137-8.606c4.757-7.655,12.374-12.947,22.816-11.342c0.759,0.117,1.948,0.738,2.15-0.443
		c0.23-1.352-1.154-1.421-2.09-1.536c-6.168-0.755-11.912,0.302-16.971,4.135c-0.73,0.555-1.465,1.103-2.485,1.87
		c0.758-3.695,2.993-5.875,5.715-7.652c1.682-1.098,3.611-1.65,5.521-2.235c0.719-0.22,2.035-0.142,1.722-1.356
		c-0.348-1.349-1.485-0.579-2.322-0.435c-2.038,0.353-3.823,1.446-5.787,2.098c-0.312-1.187,0.009-2.204,0.295-3.244
		c0.573-2.081,1.622-3.036,4.049-3.009c12.136,0.135,24.17,1.083,36.132,3.229c8.491,1.524,17.056,2.256,25.521-0.379
		c1.09-0.34,2.329-0.573,3.174-1.257c1.981-1.599,3.615-1.009,5.588,0.071c5.914,3.237,12.09,5.901,18.778,7.613
		c-0.249,0.397-0.363,0.675-0.557,0.878c-9.449,9.9-5.297,25.265,3.625,32.183c1.957,1.518,2.201,2.588,1.075,4.727
		c-1.791,3.398-2.782,7.124-3.095,10.986c-0.349,4.304,3.865,7.387,7.854,5.767c0.836-0.339,0.951-1.102,1.17-1.849
		c1.08-3.701,2.83-6.937,6.27-9.021c5.172-3.133,9.933-1.812,12.571,3.665c4.146,8.608,2.795,16.826-2.082,24.675
		c-1.382,2.225-3.562,3.54-6.06,4.307c-0.753,0.23-1.413,0.359-2.132-0.253c-2.605-2.215-5.749-3.118-9.069-3.545
		c-0.711-0.092-1.488,0.101-1.434-1.186c0.213-5.115-3.018-7.812-7.22-9.562c-7.606-3.171-15.579-3.639-23.707-3.013
		c-5.814,0.447-11.045,3.107-16.698,4.121c-2.979,0.536-5.972,0.461-8.947,0.165c-0.909-0.091-2.183,0.066-2.535-1.438
		c-0.214-0.908-1-0.564-1.709-0.371c-3.819,1.044-7.199,2.969-10.483,5.1c-2.189,1.42-4.469,2.671-6.959,3.482
		c-3.114,1.014-4.754,0.391-5.36-2.701c-2.864-14.617-1.009-28.224,9.154-39.884c1.427-1.635,3.249-2.802,4.95-4.11
		c0.501-0.386,1.088-0.786,0.613-1.486c-0.542-0.799-1.323-0.484-1.769,0.038c-1.604,1.874-2.353,0.875-3.45-0.652
		c-8.509-11.835-26.256-12.135-35.341-0.662C172.153,194.108,171.706,194.714,171.003,195.636z"/>
	<path display="inline" fill-rule="evenodd" clip-rule="evenodd" fill="#152568" d="M297.943,264.23
		c2.913,1.91,4.771,4.699,6.386,7.688c2.729,5.056,2.366,9.847-1.317,14.291c-0.817,0.986-1.038,1.918-0.589,3.119
		c1.259,3.362,1.344,6.857,0.887,10.359c-0.151,1.161,0.134,2.04,0.733,2.963c11.953,18.383,22.275,37.631,30.984,57.763
		c4.707,10.882,8.812,21.967,12.473,33.207c9.844-11.588,19.438-23.406,30.998-33.295c-5.491-2.449-11.114-4.546-16.774-6.549
		c-8.286-2.932-16.724-5.376-25.214-7.633c-1.521-0.402-2.052-0.981-1.148-2.35c5.517-8.369,11.14-16.667,17.764-24.218
		c1.083-1.234,1.071-1.879,0.124-3.228c-8.004-11.393-16.295-22.567-25.029-33.408c-4.355-5.406-8.894-10.667-13.575-16.265
		c-1.077,3.216-2.012,5.958-2.906,8.714c-0.244,0.751-0.38,1.584-1.429,1.436c-0.882-0.124-0.89-0.876-1.001-1.58
		c-0.941-5.92-2.709-11.595-5.2-17.041c-0.333-0.727-0.469-1.812-1.42-1.957c-1.729-0.267-3.486-0.38-5.235-0.433
		c-0.559-0.017-0.592,0.646-0.521,1.099c0.273,1.734,0.155,3.459-0.044,5.185C296.779,263.042,297.164,263.721,297.943,264.23z"/>
	<path display="inline" fill-rule="evenodd" clip-rule="evenodd" fill="#FED611" d="M111.722,393.679
		c-2.071-1.062-2.943-0.218-3.772,1.339c-0.283,0.532-0.398,1.15-0.595,1.732c8.134,4.646,16.61,8.708,25.125,12.269
		c0.617-5.685-2.341-13.407-6.658-16.378c-0.461-0.317-0.762-0.599-1.344-0.053C120.533,396.277,116.097,395.924,111.722,393.679z"
		/>
	<path display="inline" fill-rule="evenodd" clip-rule="evenodd" fill="#FED611" d="M77.72,369.824
		c4.412,2.695,9.186,5.172,13.142,8.318c1.884-2.02,2.335-4.629,1.992-7.594c-0.024-0.213,0.113-0.442,0.167-0.666
		c1.451-5.959,5.548-9.793,10.553-12.747c3.668-2.165,5.473-5.502,6.507-9.348c0.961-3.576-0.452-5.818-4.081-6.653
		c-2.697-0.621-5.507-1.011-8.221-0.336c-9.451,2.351-17.094,7.387-22.417,15.67c-1.705,2.654-2.972,5.488-3.929,8.443
		C73.373,366.748,75.435,368.428,77.72,369.824z"/>
	<path display="inline" fill-rule="evenodd" clip-rule="evenodd" fill="#FED611" d="M120.466,375.799
		c-5.676-4.607-12.097-5.628-18.989-2.939c-3.617,1.412-6.545,3.783-9.307,6.381c3.619,3.194,6.333,7.119,7.078,12.577
		c2.115,1.354,4.253,2.678,6.425,3.948c0.263-1.412,1.116-2.555,2.186-3.577c1.062-1.013,2.189-1.662,3.675-0.642
		c1.41,0.967,3.052,1.453,4.708,1.77c3.797,0.723,7.396-0.926,7.979-4.044C125.162,384.258,124.773,379.295,120.466,375.799z"/>
	<path display="inline" fill-rule="evenodd" clip-rule="evenodd" fill="#FED611" d="M68.599,362.051
		c0.434,0.474,0.885,0.926,1.332,1.383c3.916-11.175,11.772-18.988,23.422-23.209c4.341-1.573,5.861-4.49,6.788-8.304
		c0.527-2.167-0.173-4.064-1.752-5.664c-3.554-3.6-8.017-3.569-12.242-2.303c-12.464,3.732-19.779,12.833-23.947,24.579
		C65.16,352.394,67.041,357.276,68.599,362.051z"/>
	<path display="inline" fill-rule="evenodd" clip-rule="evenodd" fill="#A8BBCA" d="M322.117,217.218
		c-4.919-7.317-10.442-13.551-16.608-19.224c-0.282-0.26-0.562-0.524-0.834-0.794c-0.479-0.475-1.005-0.819-1.559-0.168
		c-0.545,0.641-0.074,1.125,0.376,1.571c2.51,2.483,5.116,4.875,7.512,7.463c7.794,8.42,14.177,17.697,16.954,29.051
		c1.763,7.204,1.267,16.034-1.229,21.429c-0.932-3.014-1.744-5.87-2.7-8.679c-1.443-4.244-3.481-8.181-6.548-11.501
		c-0.578-0.628-0.674-1.286-0.802-2.052c-1.537-9.229-5.045-17.638-10.612-25.166c-0.436-0.589-0.77-1.849-1.865-1.052
		c-1.11,0.808,0.002,1.46,0.441,2.066c10.873,15.023,12.842,31.764,9.574,49.52c-0.747,4.055-1.928,7.985-3.416,12.353
		c-1.18-3.763-1.879-7.191-3.207-10.427c-1.66-4.05-3.57-7.962-5.978-11.611c-0.763-1.155-0.801-1.82,0.083-3.093
		c5.502-7.905,7.314-16.426,3.541-25.646c-1.567-3.825-3.713-7.325-8.224-7.829c-5.089-0.567-9.02,1.913-12.042,5.856
		c-1.072,1.397-1.956,2.983-2.325,4.712c-0.378,1.771-1.403,2.16-2.963,1.907c-1.693-0.276-2.852-1.025-2.825-2.974
		c0.046-3.354,0.956-6.517,2.151-9.598c0.743-1.919,2.623-3.949,2.286-5.576c-0.327-1.579-2.924-2.616-4.368-4.047
		c-6.018-5.964-8.252-13.122-6.313-21.41c0.731-3.129,2.759-5.586,4.912-7.915c0.65-0.705,1.342-0.896,2.237-0.824
		c1.146,0.092,2.321,0.267,3.446,0.118c8.868-1.18,15.941,2.906,22.54,7.921c10.438,7.934,15.548,19.054,18.028,31.595
		C322.015,214.373,322.476,215.552,322.117,217.218z"/>
	<path display="inline" fill-rule="evenodd" clip-rule="evenodd" fill="#152568" d="M138.199,393.375
		c0.929,2.24,1.271,4.681,0.856,7.197c-0.588,3.569-1.849,6.798-3.633,9.653c4.494,1.817,8.984,3.496,13.434,5.048
		c0.992-3.525,1.507-7.221,1.436-11.119c-0.135-7.26-1.616-14.267-4.495-20.926c-2.291-5.298-5.782-9.624-11.088-12.587
		c-0.233,2.784-0.17,5.311,0.41,7.767C136.292,383.365,136.204,388.56,138.199,393.375z"/>
	<path display="inline" fill-rule="evenodd" clip-rule="evenodd" fill="#4C2B10" d="M280.953,171.781
		c-7.169,0.557-13.659-2.471-20.148-5.395c-6.758-3.044-13.008-7.127-19.979-9.749c-7.751-2.916-15.745-4.808-23.915-6.095
		c-5.449-0.859-10.889-1.559-16.42-1.352c-6.74,0.253-13.36,1.23-19.817,3.193c-2.808,0.854-2.809,0.885-3.22-1.947
		c-0.551-3.789-0.47-7.635-0.937-11.417c-0.368-2.987,1.074-4.81,3.112-6.429c5.999-4.766,12.898-7.325,20.382-8.849
		c6.504-1.323,13.006-0.981,19.472-0.701c6.983,0.303,13.569,2.622,19.802,5.886c6.028,3.159,11.99,6.427,17.65,10.208
		c4.636,3.097,9.157,6.367,13.782,9.481c4.071,2.743,8.238,5.678,13.068,6.494c3.753,0.634,4.247,2.716,4.25,5.516
		c0.006,3.286-0.247,6.574-0.423,9.858c-0.061,1.113-0.867,1.31-1.802,1.301C284.277,171.771,282.74,171.781,280.953,171.781z"/>
	<path display="inline" fill-rule="evenodd" clip-rule="evenodd" fill="#152568" d="M191.177,426.696
		c4.493,0.894,9.007,1.696,13.535,2.421c-4.01-5.144-8.225-10.152-12.663-15.012c0.243,0.638-0.003,1.197-0.027,1.712
		C191.854,419.455,191.573,423.082,191.177,426.696z"/>
	<path display="inline" fill-rule="evenodd" clip-rule="evenodd" fill="#152568" d="M325.555,276.374
		c5.43,1.281,10.347,3.119,15.167,5.189c3.441,1.479,6.796,3.171,10.135,4.873c4.267,2.177,5.396,6.456,6.692,10.522
		c4.684,14.689,9.247,29.415,12.814,44.427c1.143,4.808,2.212,9.634,3.376,14.714c-5.899-2.086-11.452-4.139-17.067-6.009
		c-5.646-1.882-11.325-3.677-17.134-5c-1.987-0.454-2.165-1.05-1.008-2.809c5.218-7.931,10.802-15.58,16.969-22.794
		c0.91-1.065,1.021-1.86,0.206-3.017c-6.205-8.813-12.574-17.507-19.203-26.006c-3.242-4.16-6.605-8.226-9.897-12.348
		C326.246,277.67,326.004,277.129,325.555,276.374z"/>
	<path display="inline" fill-rule="evenodd" clip-rule="evenodd" fill="#49280D" d="M109.881,340.748
		c1.875-1.159,3.86-1.303,5.787-1.628c0.734-0.124,1.779,0.064,1.688-1.024c-0.086-1.03-1.126-0.802-1.861-0.83
		c-1.949-0.073-3.998,0.289-5.544,1.185c-3.301,1.915-6.409-0.088-9.587,0.109c-1.098,0.067-0.516-0.9-0.236-1.325
		c0.686-1.043,1.054-2.193,1.435-3.359c1.833-5.603-2.451-11.999-8.378-12.247c-2.578-0.107-5.221-0.456-7.754,0.438
		c-0.829,0.293-1.317,0.062-1.61-0.729c-0.053-0.142-0.152-0.266-0.226-0.401c-3.818-6.973-3.18-9.295,3.49-13.793
		c7.577-5.109,15.925-7.242,24.984-6.73c3.866,0.218,7.515,0.913,9.049,5.256c0.699,1.978,0.767,4.067,0.943,6.086
		c0.802,9.215,1.094,18.452,0.116,27.683c-0.448,4.232-4.953,7.408-8.815,8.347c-0.84,0.203-1.448-0.146-1.238-1.077
		C112.672,344.268,111.618,342.43,109.881,340.748z"/>
	<path display="inline" fill-rule="evenodd" clip-rule="evenodd" fill="#FED611" d="M94.697,374.489
		c-0.58-5.964,2.618-9.86,6.402-13.475c0.678-0.647,1.06,0.003,1.537,0.349c4,2.902,8.154,1.667,9.958-2.93
		c0.934-2.382,1.321-4.88,1.553-7.396c0.105-1.143,0.557-1.73,1.634-2.12c6.018-2.184,8.712-6.599,8.67-12.915
		c-0.021-3.135,1.073-3.84,4.051-2.563c4.364,1.869,5.97,5.702,6.581,10.058c0.527,3.762,0.275,7.554-0.727,11.182
		c-2.774,10.042-2.021,20.041-0.026,30.056c1.097,5.51,0.875,10.861-0.907,15.536c-1.5-3.959-3.82-7.027-6.961-9.443
		c-0.455-0.351-0.386-0.67-0.33-1.17c1.671-14.742-10.402-24.009-24.422-18.824C99.263,371.736,97.109,373.154,94.697,374.489z"/>
	<path display="inline" fill-rule="evenodd" clip-rule="evenodd" fill="#FEFEFE" d="M189.946,223.862
		c-8.163,0.725-16.856-5.837-18.915-12.94c-3.317-11.449,5.39-23.37,17.506-23.859c7.771-0.315,14.099,2.326,18.554,8.898
		c0.509,0.752,1.111,1.356,0.078,2.314c-6.599,6.121-9.775,14-11.06,22.677c-0.332,2.243-1.33,2.811-3.169,2.9
		C191.944,223.902,190.944,223.862,189.946,223.862z"/>
	<path display="inline" fill-rule="evenodd" clip-rule="evenodd" fill="#152568" d="M169.277,334.098
		c3.206,0.157,5.949,1.178,8.685,1.945c7.721,2.169,15.271,4.877,22.605,8.153c0.926,0.414,1.543,0.773,0.864,1.998
		c-4.634,8.367-9.846,16.35-15.924,24.396C181.362,357.7,176.128,345.666,169.277,334.098z"/>
	<path display="inline" fill-rule="evenodd" clip-rule="evenodd" fill="#152568" d="M173.816,275.107
		c-1.571,5.352-3.11,10.357-4.498,15.404c-1.07,3.892-2.032,7.817-2.873,11.765c-0.356,1.672-1.127,2.508-2.806,2.704
		c-4.335,0.507-8.517,1.727-12.688,2.943c-1.663,0.485-2.99,0.567-4.379-0.774c-1.255-1.212-2.88-2.137-4.59-2.504
		c-1.502-0.323-1.321-0.933-0.735-1.823c1.991-3.024,4.459-5.645,7.151-8.036c7.6-6.754,15.752-12.815,23.912-18.864
		C172.662,275.661,173.085,275.498,173.816,275.107z"/>
	<path display="inline" fill-rule="evenodd" clip-rule="evenodd" fill="#FEFEFE" d="M273.163,270.992
		c-3.945,6.123-13.852,7.883-20.187,3.549c-1.667-1.142-2.461-1.131-3.874,0.479c-3.221,3.664-7.473,3.788-11.844,2.462
		c-1.302-0.396-2.573-1.019-3.727-1.748c-1.302-0.824-2.065-0.712-3.008,0.6c-2.917,4.056-7.19,4.666-11.725,4.073
		c-1.791-0.235-3.181-1.489-4.2-3c-0.897-1.331-1.545-1.713-2.636-0.042c-2.247,3.444-5.698,4.494-9.601,4.046
		c-3.185-0.365-4.303-2.81-5.092-5.757c1.895,0.29,3.51,1.127,5.298,1.246c5.362,0.355,9.709-1.762,13.432-5.391
		c0.927-0.904,1.483-1.214,2.667-0.184c3.816,3.321,8.315,2.512,12.71,1.624c3.231-0.653,6.026-2.257,8.199-4.769
		c0.838-0.967,1.508-1.058,2.736-0.608c7.243,2.644,14.692,3.518,22.38,2.457C267.483,269.646,270.36,269.513,273.163,270.992z"/>
	<path display="inline" fill-rule="evenodd" clip-rule="evenodd" fill="#49280D" d="M171.098,305.915
		c1.15,0,2.301-0.006,3.451,0.002c0.651,0.004,1.23,0.177,1.476,0.859c0.268,0.743-0.033,1.324-0.55,1.863
		c-0.935,0.972-2.139,1.439-3.359,1.906c-6.79,2.603-13.986,3.748-20.923,5.843c-8.026,2.424-16.082,4.744-24.059,7.33
		c-2.605,0.844-2.601,0.863-2.629-1.93c-0.007-0.689,0.048-1.385-0.019-2.069c-0.131-1.341,0.345-2.029,1.72-2.479
		c13.556-4.426,27.208-8.497,41.222-11.232c1.181-0.231,2.445-0.03,3.671-0.03C171.098,305.958,171.098,305.937,171.098,305.915z"/>
	<path display="inline" fill-rule="evenodd" clip-rule="evenodd" fill="#B44605" d="M237.771,296.14
		c3.66-7.309,14.021-10.575,20.624-6.571c-0.708,0.606-1.419,1.172-2.076,1.793c-0.522,0.493-1.461,1.004-0.688,1.841
		c0.647,0.701,1.207-0.079,1.744-0.474c1.357-0.994,2.687-2.036,4.104-2.936c5.36-3.406,10.834-3.103,15.294,0.648
		c1.167,0.981,1.329,1.578,0.106,2.635c-3.046,2.637-6.775,3.461-10.547,4.062c-7.098,1.132-14.208,0.511-21.305-0.178
		C242.671,296.731,240.319,296.431,237.771,296.14z"/>
	<path display="inline" fill-rule="evenodd" clip-rule="evenodd" fill="#FED611" d="M177.531,222.18
		c5.688,3.76,11.583,4.198,17.986,3.176c0,3.053-0.033,6.09,0.02,9.127c0.016,0.914-0.556,0.933-1.153,1.061
		c-4.102,0.878-8.189,1.816-12.091,3.398c-0.87,0.353-1.244-0.02-1.515-0.797C179.041,233.145,177.854,228.036,177.531,222.18z"/>
	<path display="inline" fill-rule="evenodd" clip-rule="evenodd" fill="#152567" d="M146.232,309.029
		c-6.486,2.002-12.255,3.868-18.086,5.513c-1.197,0.337-2.473,1.596-3.643,0.812c-1.072-0.719-0.126-2.344-0.58-3.438
		c-0.683-1.647,0.006-2.487,1.354-3.336c4.831-3.043,15.276-4.183,19.588-0.306C145.132,308.513,145.506,308.634,146.232,309.029z"
		/>
	<path display="inline" fill-rule="evenodd" clip-rule="evenodd" fill="#152466" d="M112.089,352.232
		c-0.181,2.391-0.756,4.667-1.943,6.742c-1.157,2.023-3.734,2.6-5.722,1.434c-0.847-0.497-1.305-0.879-0.128-1.515
		c3.28-1.775,5.57-4.413,6.812-7.938c0.136-0.386,0.331-0.843,0.735-0.676C113.002,350.76,111.708,351.604,112.089,352.232z"/>
	<path display="inline" fill-rule="evenodd" clip-rule="evenodd" fill="#152466" d="M162.062,323.329
		c-1.674-1.967-3.253-3.804-4.81-5.658c-0.629-0.751-0.233-1.006,0.56-1.167c1.34-0.273,2.715-0.502,3.98-0.995
		c1.759-0.686,2.156,0.041,1.742,1.525C162.971,319.051,163.15,321.246,162.062,323.329z"/>
	<path display="inline" fill-rule="evenodd" clip-rule="evenodd" fill="#142364" d="M134.126,408.593
		c0.222-2.639-0.367-4.832,0.768-6.968c1.021-1.919,1.422-4.095,1.712-6.402C137.903,399.45,137.033,404.388,134.126,408.593z"/>
	<path display="inline" fill-rule="evenodd" clip-rule="evenodd" fill="#F8F8F8" d="M301.821,254.317
		c-1.725-0.16-3.357-0.344-4.996-0.454c-1.225-0.082-1.325-1.191-1.649-1.917c-0.384-0.863,0.662-0.779,1.136-0.997
		C299.727,249.383,299.729,249.393,301.821,254.317z"/>
	<path display="inline" fill-rule="evenodd" clip-rule="evenodd" fill="#020101" d="M244.829,196.749
		c2.16-0.085,4.261,0.262,6.369,0.722c5.436,1.187,8.447,4.987,10.414,9.766c1.164,2.831-0.217,4.609-3.286,4.725
		c-3.313,0.124-6.555-0.499-9.803-0.995c-6.505-0.995-12.981-0.304-19.465,0.228c-1.066,0.087-2.138,0.134-3.208,0.148
		c-1.28,0.017-2.524-0.245-3.103-1.521c-0.609-1.345-0.039-2.599,0.854-3.602c3.679-4.138,7.992-7.318,13.492-8.608
		C239.636,197.018,242.21,196.665,244.829,196.749z"/>
	<path display="inline" fill-rule="evenodd" clip-rule="evenodd" fill="#070500" d="M249.606,177.903
		c1.758,0.116,3.518,0.216,5.274,0.357c0.797,0.063,1.683,0.293,1.56,1.28c-0.128,1.016-1.059,0.624-1.688,0.569
		c-3.6-0.307-7.195-0.484-10.771,0.207c-5.283,1.02-9.481,3.766-12.702,8.053c-0.425,0.567-0.734,1.632-1.703,0.962
		c-1.037-0.717-0.204-1.521,0.257-2.143C234.751,180.549,241.493,177.792,249.606,177.903z"/>
	<path display="inline" fill-rule="evenodd" clip-rule="evenodd" fill="#040200" d="M293.291,229.851
		c2.218-0.006,4.291,0.104,5.666,1.983c0.359,0.49,0.768,1.001,0.926,1.565c0.23,0.815,1.004,1.969-0.066,2.459
		c-1.361,0.625-1.257-0.851-1.567-1.612c-0.814-1.991-2.785-2.953-4.877-2.463c-1.033,0.243-1.042,1.033-1.076,1.762
		c-0.071,1.528-0.062,3.061-0.046,4.59c0.008,0.666-0.042,1.3-0.846,1.348c-0.801,0.049-0.953-0.584-1.015-1.24
		c-0.536-5.717,0.847-10.782,5.094-14.846c0.553-0.527,1.242-1.524,2.083-0.588c0.746,0.829-0.259,1.312-0.767,1.819
		C295.336,226.094,294.08,227.694,293.291,229.851z"/>
	<path display="inline" fill-rule="evenodd" clip-rule="evenodd" fill="#0C0901" d="M231.408,195.525
		c-1.067-0.152-1.178-0.869-0.771-1.509c1.398-2.206,3.07-4.185,5.228-5.712c0.477-0.338,0.854-0.216,1.221,0.115
		c0.347,0.312,0.332,0.737,0.029,1.011c-1.937,1.748-3.706,3.637-5.177,5.8C231.827,195.391,231.559,195.445,231.408,195.525z"/>
	<path display="inline" fill-rule="evenodd" clip-rule="evenodd" fill="#0A0701" d="M239.22,221.863
		c-0.252,0.805-0.677,1.229-1.394,0.883c-2.288-1.107-4.346-2.562-6.187-4.318c-0.392-0.375-0.411-0.847-0.121-1.241
		c0.317-0.431,0.871-0.434,1.231-0.132c1.884,1.575,3.84,3.034,6.039,4.153C239.008,221.32,239.103,221.677,239.22,221.863z"/>
	<path display="inline" fill-rule="evenodd" clip-rule="evenodd" fill="#040301" d="M198.278,139.708
		c0.003,5.036-3.804,9.031-8.603,9.025c-5.001-0.005-8.955-3.977-8.953-8.991c0.001-5.437,3.297-8.273,9.006-8.626
		C194.493,130.82,198.901,135.464,198.278,139.708z"/>
	<path display="inline" fill-rule="evenodd" clip-rule="evenodd" fill="#040201" d="M224.494,144.595
		c-4.657,0.669-9.005-4.329-8.823-8.48c0.226-5.144,3.56-9.035,9.12-9.021c4.676,0.012,8.438,4.089,8.5,8.97
		C233.351,140.646,229.406,145.014,224.494,144.595z"/>
	<path display="inline" fill-rule="evenodd" clip-rule="evenodd" fill="#050504" d="M181.721,208.253
		c0.026,1.629-0.737,2.361-2.07,2.449c-1.541,0.104-2.274-0.887-2.309-2.24c-0.03-1.165,0.659-2.038,1.947-2.098
		C180.729,206.297,181.584,206.998,181.721,208.253z"/>
	<path display="inline" fill-rule="evenodd" clip-rule="evenodd" fill="#FEFEFE" d="M240.924,208.686
		c-4.886-0.302-9.489,0.722-14.154,0.799c-0.798,0.014-1.861,0.308-2.22-0.669c-0.279-0.762,0.455-1.39,0.948-1.973
		c6.086-7.228,18.255-10.334,27.049-6.97c3.632,1.39,5.72,4.225,7.234,7.554c0.834,1.834,0.159,2.648-1.934,2.688
		c-4.148,0.078-8.166-1.037-12.269-1.37c-0.525-0.044-0.865-0.12-0.73-0.787c0.401-1.958-0.149-3.291-2.417-2.957
		C240.25,205.321,240.424,206.893,240.924,208.686z"/>
	<path display="inline" fill-rule="evenodd" clip-rule="evenodd" fill="#A07520" d="M189.584,132.924
		c4.168,0.02,6.99,2.811,6.945,6.869c-0.042,3.79-3.276,7.022-7.031,7.029c-3.688,0.007-6.955-3.322-6.97-7.1
		C182.513,135.776,185.494,132.904,189.584,132.924z"/>
	<path display="inline" fill-rule="evenodd" clip-rule="evenodd" fill="#A07520" d="M224.447,142.798
		c-3.946,0.004-6.913-3.019-6.888-7.021c0.022-3.816,3.03-6.77,6.913-6.79c3.743-0.021,6.926,3.101,6.954,6.82
		C231.455,139.673,228.339,142.795,224.447,142.798z"/>
</g>
<g id="Layer_2_3_" display="none">
	
		<path display="inline" fill-rule="evenodd" clip-rule="evenodd" fill="#010101" stroke="#000000" stroke-linejoin="round" stroke-miterlimit="10" d="
		M298.671,419.179c7.089-1.538,14.588-3.31,21.467-6.214c4.046-2.638,8.194-5.109,12.419-7.446c1.771-1.509,3.428-3.171,4.908-5.054
		c0.707-0.899,1.51-1.412,2.33-1.622c-5.183-15.128-11.835-29.721-20.536-43.56c-4.827-7.678-10.524-14.589-18.674-18.933
		c-2.445-1.304-3.593-2.765-4.161-5.538c-3.031-14.795-7.438-29.1-16.065-41.777c-4.229-6.216-9.274-11.678-16.456-14.095
		c-3.808-1.282-4.069-3.318-3.658-6.336c1.167-8.565,3.875-16.703,6.837-24.778c1.276-3.48,2.984-5.158,7.324-5.229
		c13.795-0.227,22.89-15.606,15.849-26.956c-3.524-5.679-0.286-9.659,1.81-13.713c2.745-5.307,4.108-11.42,8.697-15.815
		c0.831-0.795,0.679-3.248,0.187-4.66c-0.871-2.504-0.008-3.846,1.821-5.431c3.047-2.638,4.577-6.019,2.981-10.103
		c-0.845-2.162,0.154-3.481,1.309-5.257c4.651-7.158,2.844-15.271,2.733-23.083c-0.015-1.048-1.032-2.584-1.99-3.035
		c-7.188-3.382-8.31-11.795-14.277-16.677c-4.694-3.841-7.739-9.128-14.741-8.709c-1.28,0.077-1.854-0.942-2.593-1.675
		c-3.36-3.339-7.373-5.026-12.126-4.745c-1.705,0.1-2.934-0.538-4.362-1.499c-7.532-5.062-16.972-3.259-25.012-6.658
		c-0.392-0.165-1.061,0.162-1.538,0.39c-3.538,1.683-7.164,2.497-11.17,2.557c-2.901,0.043-5.523,1.949-5.859,5.321
		c-0.513,5.134-6.705,8.641-4.166,14.674c0.091,0.217-1.243,1.115-1.983,1.585c-9.207,5.847-15.541,14.26-20.689,23.609
		c-1.501,2.727-3.03,4.315-6.274,4.853c-4.516,0.749-8.159,3.144-8.215,8.413c-0.024,2.249-1.925,2.208-2.899,3.281
		c-5.06,5.571-8.896,11.987-11.62,18.972c-0.545,1.398,0.061,3.793,0.998,5.117c2.744,3.872,4.42,7.618,2.93,12.582
		c-0.829,2.759,1.155,5.28,3.363,6.896c2.154,1.575,2.266,3.036,1.508,5.446c-2.325,7.398-2.656,14.888,1.167,21.925
		c1.879,3.46,0.707,4.689-2.491,6.057c-10.034,4.288-17.967,11.068-22.87,20.977c-3.934,7.949-1.449,13.986,6.875,16.912
		c7.346,2.582,15.01,3.448,22.741,3.533c3.136,0.035,4.805,0.506,4.901,4.317c0.097,3.809,2.957,6.308,6.24,8.187
		c5.82,3.334,5.87,3.467,1.12,7.997c-15.207,14.508-26.192,31.613-32.602,51.696c-1.07,3.352-1.04,5.76,2.226,7.74
		c-15.788,16.375-28.168,34.741-38.303,54.509c1.378-0.232,2.773,0.192,3.845,1.064c0.974-0.477,1.965-0.907,2.998-1.234
		c9.043-2.86,16.661,3.408,22.614,9.506c1.232,1.262,1.579,2.849,1.312,4.312c2.162,0.457,4.342,0.812,6.481,1.401
		c0.675,0.187,1.242,0.471,1.717,0.821h138.088C295.131,421.847,296.245,419.705,298.671,419.179z"/>
	<path display="inline" fill-rule="evenodd" clip-rule="evenodd" fill="#D0007A" d="M244.994,424
		c0.108-0.469,0.196-0.97,0.259-1.536c1.374-12.465,3.054-24.898,4.72-37.33c2.744-20.477,8.466-40.268,13.854-60.142
		c1.594-5.883,2.414-11.944,2.533-18.072c0.031-1.603-0.259-2.96-2.256-2.854c-1.351,0.072-2.086,0.947-1.287,2.155
		c3.868,5.855,0.044,9.884-3.473,13.662c-2,2.148-2.424,3.804-1.443,6.573c1.514,4.277,1.388,8.571-2.065,12.271
		c-1.525-1.331-0.937-2.596-0.677-3.743c0.729-3.229,1.492-7.078-0.836-9.255c-2.309-2.159-4.959,1.481-7.65,1.937
		c-3.391,0.574-3.954,2.278-2.983,5.69c0.992,3.491,0.352,7.213-3.376,9.865c-0.549-4.48,3.312-9.65-1.219-12.273
		c-3.094-1.792-8.837-1.062-11.153,1.311c-3.603,3.692-0.071,8.558,2.275,14.068c-4.386-2.772-6.344-5.934-5.917-9.08
		c0.966-7.122-3.987-6.111-8.031-7.03c-2.841-0.646-3.344,0.49-3.636,2.887c-0.441,3.626,1.855,6.701,2.172,10.943
		c-4.65-2.942-5.322-6.827-5.484-11.06c-0.071-1.841,1.001-4.034-1.168-5.444c-2.688-1.746-3.423-4.763-4.737-8.062
		c-6.208,7.714-3.19,14.424,0.062,21.674c-0.739-0.457-1.761-0.737-2.17-1.398c-3.198-5.165-5.625-2.369-7.924,0.743
		c-2.501,3.385-3.816,7.284-4.479,11.409c-1.961,12.203-4.579,24.345-5.71,36.624c-1.248,13.54-7.94,24.489-14.548,35.467H244.994z"
		/>
	<path display="inline" fill-rule="evenodd" clip-rule="evenodd" fill="#CB7B06" d="M265.906,209.368
		c11.768-4.308,17.047-3.732,21.743,2.447c3.711,4.885,3.708,12-0.3,17.602c-7.263,10.146-15.887,7.861-24.428,1.769
		c-0.407,0.848-0.562,1.116-0.539,1.133c6.015,4.295,2.818,9.157,1.105,14.153c-5.825,16.998-8.997,34.327-5.479,52.316
		c0.446,2.276,0.844,4.702,1.938,6.686c2.928,5.309,0.802,9.139-2.961,12.811c-10.135,9.892-33.449,13.5-46.071,7.205
		c-2.333-1.164-3.373-2.845-4.118-5.215c-2.312-7.345-4.739-14.659-7.339-21.906c-2.172-6.056-5.708-11.103-11.502-14.381
		c-1.677-0.948-3.282-2.301-4.443-3.831c-2.777-3.662-1.597-5.801,2.85-6.626c10.454-1.94,20.958-2.702,31.57-2.162
		c3.277,0.166,6.462-0.553,9.459-1.738c3.014-1.193,5.948-3.331,7.498,1.688c0.235,0.762,1.194,1.026,1.738,0.483
		c0.397-0.397,0.501-1.305,0.413-1.939c-0.65-4.663-7.051-9.485-12.09-9.099c0.856,2.181,3.805,2.09,4.668,4.691
		c-3.471,3.159-8.135,3.539-12.277,3.04c-9.818-1.182-19.296,0.721-28.856,1.969c-10.801,1.41-21.472,0.764-32.072-1.452
		c-11.12-2.325-13.81-8.883-7.177-18.212c5.38-7.568,12.462-13.323,20.922-17.296c1.851-0.869,3.401-1.208,5.461,0.068
		c7.45,4.617,15.37,4.423,23.172,1.053c4.989-2.155,9.833-4.211,15.467-3.408c2.357,0.336,4.378-0.743,5.792-2.803
		c-7.292,1.391-14.666,0.396-21.864,3.617c-13.988,6.259-26.504-0.874-28.022-15.575c-0.785-7.596,1.955-14.841,5.299-21.675
		c3.433-7.012,8.101-13.168,13.969-18.268c2.551-2.217,2.364-3.913,0.562-6.243c-4.28-5.531-9.64-8.392-16.798-7.244
		c-1.235,0.198-2.915,1.419-3.608-0.681c-0.484-1.464,0.246-2.77,1.354-3.848c1.787-1.738,3.91-2.314,6.368-2.345
		c1.691-0.02,3.419,1.324,5.077,0.019c0.286-1.25-0.567-1.652-1.371-2.008c-1.459-0.646-3.985,0-3.559-2.886
		c0.347-2.35,1.833-4.529,3.98-4.554c6.699-0.076,8.686-5.072,11.476-9.642c5.899-9.662,13.444-17.664,23.972-22.473
		c2.781-1.269,5.097-1.999,7.6,0.806c1.78,1.995,4.403,3.088,7.298,2.802c1.713-0.169,3.114,0.392,4.439,1.485
		c0.955,0.788,2.178,1.242,3.195,1.963c4.148,2.946,9.579,0.121,13.21,2.188c4.017,2.287,7.224,5.45,12.354,5.496
		c4.342,0.04,5.397,4.904,4.388,8.74c-1.764,6.691-4.253,13.191-5.662,19.871c-0.605,2.873-0.583,5.854-1.956,8.738
		c-1.637,3.439-1.335,7.127,1.19,10.128c1.71,2.034,1.652,3.6,0.155,5.643c-2.292,3.126-2.229,6.312,0.393,9.322
		c0.807,0.925,1.836,1.756,0.981,3.256c-2.172,3.814-1.754,7.242,1.869,9.932C269.486,207.314,264.102,207.382,265.906,209.368z"/>
	<path display="inline" fill-rule="evenodd" clip-rule="evenodd" fill="#BDBCDB" d="M288.453,412.146
		c1.736,3.885,3.236,7.844,4.55,11.854h2.131c-0.003-2.153,1.111-4.295,3.537-4.821c7.089-1.538,14.588-3.31,21.467-6.214
		c4.046-2.638,8.194-5.109,12.419-7.446c1.715-1.46,3.317-3.069,4.762-4.878c-6.046-18.075-13.915-35.329-25.872-50.556
		c-3.406-4.338-7.189-8.312-12.549-11.052c0,5.628-0.249,10.786,0.083,15.906c0.241,3.714-1.246,5.491-4.568,6.704
		c-8.093,2.958-16.091,6.176-24.446,9.413c4.767,5.034,9.545,9.427,15.002,12.831c3.684,2.299,3.885,4.425,1.909,7.856
		c-5.73,9.952-10.396,20.432-14.777,31.033c-0.166,0.402-0.383,0.809-0.587,1.223h18.877c-1.09-3.47-2.319-6.902-3.699-10.295
		c-0.584-1.438-1.546-2.837-0.304-4.498C287.855,409.68,287.962,411.045,288.453,412.146z"/>
	<path display="inline" fill-rule="evenodd" clip-rule="evenodd" fill="#BDBCDB" d="M267.997,424
		c0.464-0.473,0.836-1.12,1.176-1.958c4.312-10.639,9.258-20.997,14.824-31.029c1.514-2.729,0.933-3.978-1.414-5.539
		c-4.637-3.085-8.9-6.679-12.844-10.622c-4.65-4.652-4.443-5.577,1.563-7.772c7.063-2.581,14.113-5.202,21.193-7.739
		c2.53-0.905,3.533-2.419,3.459-5.227c-0.153-5.75-0.289-11.492-1.31-17.158c-2.941-16.316-7.008-32.262-16.555-46.196
		c-3.901-5.695-8.658-10.527-15.2-13.267c-1.572-0.659-3.086-1.543-3.341,1.268c-0.606,6.667-0.165,13.247,1.214,19.806
		c0.542,2.582,2.205,2.449,4.023,2.245c2.406-0.271,1.436-1.944,1.25-3.262c-0.191-1.354-1.009-2.728,0.404-4.349
		c2.361,2.472,2.396,5.535,2.539,8.491c0.506,10.51-0.956,20.831-4.002,30.833c-8.236,27.039-12.832,54.771-16.376,82.725
		c-0.627,4.946-0.945,7.489,0.023,8.751H267.997z"/>
	<path display="inline" fill-rule="evenodd" clip-rule="evenodd" fill="#BDBCDB" d="M202.239,313.73
		c-2.155-6.464-4.568-12.799-7.72-18.854c-1.125-2.163-1.956-3.037-4.188-0.924c-15.37,14.545-27.146,31.354-33.51,51.741
		c-0.923,2.956-0.318,4.522,2.312,6.051c5.267,3.06,10.375,6.411,14.678,10.804c4.683,4.779,4.575,5.319-1.352,7.774
		c-1.819,0.755-3.686,1.409-5.458,2.261c-15.504,7.445-13.812,3.339-14.576,21.89c-0.06,9.354,1.455,18.569,2.366,27.841
		c0.026,0.268,0.073,0.518,0.126,0.762c0.137,0.035,0.274,0.064,0.411,0.103c0.675,0.187,1.242,0.471,1.717,0.821h8.451
		c5.708-8.217,11.301-16.449,13.016-26.879c1.247-7.586,2.829-15.133,4.044-22.741c1.718-10.756,1.429-22.216,6.886-31.834
		c3.898-6.872,9.353-12.715,9.288-21.291c-0.008-1.143,1.363-2.517,2.419-3.396C202.619,316.638,202.851,315.565,202.239,313.73z"/>
	<path display="inline" fill-rule="evenodd" clip-rule="evenodd" fill="#BDBCDB" d="M121.924,409.193
		c0.974-0.477,1.965-0.907,2.998-1.234c9.043-2.86,16.661,3.408,22.614,9.506c1.232,1.262,1.579,2.849,1.312,4.312
		c1.148,0.242,2.301,0.458,3.45,0.694c-2.362-13.63-2.936-26.591-2.19-39.624c0.205-3.587,1.416-5.943,4.931-7.411
		c6.257-2.613,12.339-5.645,18.943-8.71c-3.489-4.313-7.834-6.836-11.9-9.758c-2.709-1.947-4.21-1.292-6.211,0.952
		c-13.965,15.657-25.69,32.498-35.151,50.541C121.15,408.648,121.557,408.895,121.924,409.193z"/>
	<path display="inline" fill-rule="evenodd" clip-rule="evenodd" fill="#FCFCFC" d="M175.867,165.36c2.638,0.11,5,0.754,7.219,2.078
		c5.533,3.299,5.748,4.673,1.519,9.312c-1.443,1.583-2.889,3.206-4.056,4.992c-2.217,3.391-4.454,5.78-9.085,3.656
		c-4.468-2.05-8.344-4.302-8.438-9.849c-0.083-4.853,2.933-7.47,7.132-8.922C171.988,165.994,173.96,165.769,175.867,165.36z"/>
	<path display="inline" fill-rule="evenodd" clip-rule="evenodd" fill="#C47607" d="M169.148,187.279
		c1.614,1.542,5.35,0.232,5.191,2.777c-0.159,2.54-1.199,6.252-3.906,7.042c-2.039,0.595-4.007-1.921-3.962-4.597
		C166.506,190.443,166.618,188.264,169.148,187.279z"/>
	<path display="inline" fill-rule="evenodd" clip-rule="evenodd" fill="#0B0806" d="M231.714,157.534
		c-3.802,0.552-6.982,0.934-10.128,1.499c-2.716,0.487-5,1.863-6.888,3.899c-1.432,1.544-1.224,3.313-0.631,5.037
		c0.816,2.37,2.614,1.192,4.056,0.873c5.229-1.162,10.363-1.031,15.214,1.374c7.791,3.865,8.742,13.252,1.754,18.403
		c-5.655,4.167-11.939,4.777-18.207,1.458c-4.632-2.454-8.491-6.008-7.489-11.833c0.777-4.526,3.109-8.769,1.721-13.625
		c-0.218-0.764,0.731-1.964,1.322-2.839C215.412,157.37,225.764,153.917,231.714,157.534z"/>
	<path display="inline" fill-rule="evenodd" clip-rule="evenodd" fill="#180E04" d="M274.131,228.759
		c2.164-4.162,3.411-7.056,1.147-10.109c-2.305-3.107-3.715,2.246-6.176,0.354c1.322-3.635,4.189-4.798,7.747-4.786
		c3.062,0.012,5.915,0.538,7.227,4.562c-2.587-0.081-3.854-2.62-6.626-2.002C279.008,220.929,280.896,225.281,274.131,228.759z"/>
	<path display="inline" fill-rule="evenodd" clip-rule="evenodd" fill="#170E04" d="M229.079,199.505
		c-7.206,5.202-16.471,0.251-18.3-10.261C215.775,196.037,220.196,201.945,229.079,199.505z"/>
	<path display="inline" fill-rule="evenodd" clip-rule="evenodd" fill="#101010" d="M173.219,172.056
		c1.832,0.179,2.915,1.216,3.034,3.063c0.123,1.904-0.956,3.156-2.772,3.284c-2.108,0.148-3.466-1.181-3.408-3.245
		C170.121,173.434,171.291,172.252,173.219,172.056z"/>
	<path display="inline" fill-rule="evenodd" clip-rule="evenodd" fill="#FCFCFC" d="M225.46,170.502
		c0.812,0.102,2.676,0.041,4.325,0.606c3.647,1.253,6.87,3.2,7.496,7.494c0.623,4.275-1.575,7.209-5.053,9.209
		c-1.668,0.959-3.574,1.703-5.463,2.04c-7.045,1.257-14.632-3.863-15.27-10.122C210.937,174.23,216.202,170.491,225.46,170.502z"/>
	<path display="inline" fill-rule="evenodd" clip-rule="evenodd" fill="#090909" d="M230.452,179.487
		c-0.314,1.896-1.361,3.266-3.426,3.119c-1.752-0.125-2.865-1.389-2.834-3.193c0.036-2.062,1.176-3.272,3.342-3.149
		C229.458,176.374,230.202,177.679,230.452,179.487z"/>
</g>
<circle fill-rule="evenodd" clip-rule="evenodd" fill="#6CB4E5" cx="225.518" cy="225.605" r="198.062"/>
<g display="none">
	
		<path display="inline" fill-rule="evenodd" clip-rule="evenodd" fill="#5B64A6" stroke="#000000" stroke-linecap="round" stroke-linejoin="round" stroke-miterlimit="10" d="
		M213.717,386.589c3.925,12.519,7.625,25.091,9.876,38.043c0.179,1.032,0.456,2.092,1.267,2.88
		c15.185,0.002,30.371,0.004,45.557,0.007c0.397-0.748,1.063-1.394,2.06-1.836c9.005-3.994,18.248-7.183,27.601-10.032
		c-2.304-2.841-4.727-5.593-6.84-8.581c-5.009-7.082-8.998-14.695-12.042-22.827c-1.326-3.541-1.734-3.632-5.176-2.065
		c-2.95,1.342-5.957,1.742-8.917,0.39c-2.651-1.211-4.16-0.575-5.876,1.809c-4.048,5.623-12.31,5.858-16.621,0.774
		c-3.11-3.667-3.082-3.633-6.593-0.728c-2.939,2.431-6.249,3.228-9.914,1.833c-4.096-1.558-6.671-4.412-7.165-8.851
		c-0.47-4.223-0.407-4.229-4.661-3.955c-3.824,0.248-4.736,1.271-4.236,5.171C212.382,381.312,212.904,383.996,213.717,386.589z"/>
	
		<path display="inline" fill-rule="evenodd" clip-rule="evenodd" fill="#13458C" stroke="#000000" stroke-linecap="round" stroke-linejoin="round" stroke-miterlimit="10" d="
		M163.523,426.683c0.507,0.233,0.915,0.511,1.266,0.811l44.407,0.025c0.622-1.398-0.256-2.514-0.732-3.684
		c-6.743-16.554-12.735-33.305-14.498-51.283c-0.482-4.917-1.791-5.613-6.519-4.039c-7.983,2.658-13.122,8.578-17.21,15.552
		c-6.156,10.504-9.376,22.092-11.905,33.857c-0.414,1.926-1.297,3.877-1.513,5.891C159.035,424.815,161.314,425.666,163.523,426.683
		z"/>
	
		<path display="inline" fill-rule="evenodd" clip-rule="evenodd" fill="#0E0D08" stroke="#000000" stroke-linecap="round" stroke-linejoin="round" stroke-miterlimit="10" d="
		M204.291,321.944c-1.19-0.312-1.957,0.66-2.938,0.981c-3.426,1.119-6.784,0.329-8.285-2.83c-2.953-6.218-8.563-9.589-13.598-13.582
		c-2.207-1.751-4.74-3.09-7.14-4.594c-7.29-4.565-11.476-11.052-12.141-19.687c-0.401-5.207,1.493-9.33,6.281-11.661
		c2.098-1.022,1.585-1.648,0.317-2.893c-8.378-8.225-12.644-18.07-11.624-29.957c0.086-1.012,0.388-1.87-1.286-2.266
		c-11.155-2.628-18.073-12.168-17.284-23.634c0.121-1.758,0.426-3.513,0.784-5.24c0.247-1.19,0.521-2.299-0.493-3.262
		c-0.135-0.739,0.312-0.963,0.921-1.045c2.791,0.78,2.222,2.847,1.923,4.88c-0.8,5.435-1.149,10.826,1.68,15.896
		c4.94,8.853,10.527,12.013,20.42,8.61c0.56-0.191,1.111-0.421,1.699-0.495c0.828-0.103,1.81-0.232,2.25,0.594
		c0.597,1.119-0.451,1.674-1.16,2.23c-0.748,0.587-1.621,1.031-2.533,1.249c-4.924,1.176-4.291,1.851-4.396,6.546
		c-0.24,10.661,4.764,18.686,12.664,25.301c-1.283-3.157-3.071-6.098-3.817-9.456c-0.308-1.386-0.772-2.753-0.669-4.187
		c0.082-1.134-0.054-2.665,1.551-2.726c1.397-0.053,1.441,1.375,1.576,2.385c0.478,3.576,1.856,6.82,3.442,10.013
		c1.286,2.59,3.121,4.355,6.088,4.896c2.107,0.384,3.985,1.436,5.838,2.509c2.76,1.599,3.186,1.365,3.988-1.781
		c1.076-4.215,0.615-8.4-1.447-12.058c-6.219-11.026-4.709-22.531-2.548-34.091c0.351-1.877,0.353-2.952-1.706-3.345
		c-0.809-0.155-1.608-0.411-2.31-0.876c-0.603-0.398-1.21-0.861-1.054-1.68c0.211-1.107,1.149-1.102,1.962-0.983
		c2.221,0.326,4.415,0.816,6.632,1.179c6.555,1.075,12.422-0.536,17.712-4.438c2.263-1.67,2.212-2.217-0.294-3.692
		c-1.119-0.659-2.354-1.146-3.246-2.129c-0.558-0.614-1.167-1.345-0.661-2.203c0.56-0.948,1.472-0.458,2.22-0.219
		c1.133,0.362,2.081,1.111,3.129,1.654c4.457,2.311,9.195,3.761,14.184,4.24c3.126,0.3,3.796-0.428,3.73-3.568
		c-0.106-5.012-2.265-9.096-5.791-12.542c-0.677-0.661-1.408-1.271-2.057-1.953c-0.965-1.015-3.169-1.957-1.598-3.568
		c1.269-1.3,2.844,0.224,3.99,1.193c5.387,4.552,8.907,10.076,8.772,17.414c-0.037,1.98,0.618,3.376,2.851,2.989
		c15.365-2.666,28.833-8.413,36.76-22.981c1.19-2.188,1.843-4.609,2.829-6.885c0.454-1.048,1.016-2.459,2.515-1.814
		c1.194,0.514,0.85,1.819,0.589,2.85c-0.673,2.651-1.764,5.147-3.051,7.548c-1.184,2.208-0.555,3.494,1.749,4.324
		c2.734,0.985,5.329,0.748,7.922-0.416c1.079-0.485,2.08-1.132,3.192-1.541c0.677-0.25,1.441-0.438,1.938,0.259
		c0.604,0.847,0.082,1.559-0.503,2.186c-0.489,0.525-1.149,0.822-1.73,1.226c-2.033,1.414-2.183,4.357-0.344,5.942
		c1.07,0.923,1.781,0.17,2.358-0.564c4.423-5.62,7.567-12.887,4.329-21.159c-0.173-0.44,0.12,0.056-0.149-0.319
		c-3.646-5.072-3.989-10.671-3.641-16.766c0.519-9.041-4.728-15.29-11.854-20.068c-2.826-1.895-6.12-2.521-9.512-2.211
		c-3.162,0.289-5.496-0.848-7.148-3.555c-0.677-1.107-1.612-2.035-2.517-2.974c-7.965-8.263-14.604-9.716-25.258-5.513
		c-0.55,0.217-1.08,0.488-1.657,0.626c-0.82,0.197-1.708,0.39-2.163-0.568c-0.346-0.728-0.007-1.573,0.597-1.877
		c5.059-2.549,3.08-6.385,1.884-10.046c-2.899-8.874-8.872-14.688-17.808-17.267c-9.312-2.688-18.635-3.035-27.786,0.806
		c-5.503,2.311-9.843,6.036-13.102,11.02c-1.25,1.913-2.559,3.727-4.992,4.219c-13.169,2.665-17.811,12.38-20.021,24.146
		c-0.947,5.042-0.776,10.127-0.718,15.204c0.03,2.644-0.766,4.769-2.618,6.699c-2.454,2.557-4.524,5.456-6.654,8.294
		c-4.881,6.502-5.668,13.833-4.43,21.588c-0.204,0.734-0.327,1.547-1.39,1.459c-2.817-6.412-1.986-12.698,0.719-18.887
		c2.353-5.383,5.913-9.958,10.013-14.083c1.46-1.469,2.026-2.894,1.959-4.956c-0.317-9.634,0.197-19.166,4.427-28.097
		c3.418-7.215,9.067-11.689,16.821-13.401c2.078-0.459,3.521-1.219,4.737-3.117c5.716-8.917,13.941-13.936,24.513-14.926
		c7.379-0.691,14.667-0.138,21.674,2.432c11.02,4.041,16.517,12.512,18.415,23.641c0.383,2.246,0.791,3.075,3.394,2.633
		c10.519-1.789,17.961,3.329,23.834,11.379c1.353,1.854,2.581,2.711,5.104,2.59c12.477-0.605,24.305,11.221,24.012,24.625
		c-0.126,5.777,0.739,10.664,3.265,15.957c4.496,9.418,1.017,18.012-5.464,25.431c-1.699,1.945-1.744,3.506-1.273,5.928
		c1.481,7.614,3.58,14.495,10.75,19.064c3.134,1.997,4.28,6.004,4.438,10.3c2.312-2.198,1.707-5.334,3.578-7.779
		c1.486,6.303-4.951,9.938-4.591,15.765c4.272-0.691,6.254-3.808,8.812-6.481c-0.059,2.801-2.639,5.753-6.115,7.357
		c-2.628,1.213-5.606,7.962-4.707,10.74c0.994,3.067,1.312,6.087-1.074,8.667c-1.588,1.716,0.233,2.289,0.942,3.061
		c6.568,7.144,12.853,14.516,18.492,22.423c1.448,2.029,2.764,4.131,3.545,6.513c1.387,4.227,0.269,7.737-3.755,9.518
		c-6.341,2.805-12.949,4.397-20.1,1.553c2.911,6.412-0.479,10.66-4.794,14.503c-3.298,2.936-6.272,6.069-7.831,10.305
		c-1.203-0.144-1.471-0.989-1.514-2.008c1.412-3.883,3.942-6.952,7.085-9.541c2.224-1.832,4.228-3.829,5.173-6.617
		c1.253-3.692-0.241-5.415-3.987-4.672c-1.048,0.208-2.136,0.554-3.157,0.349c-5.743-1.146-11.499,0.235-17.235-0.188
		c-1.474-0.109-2.803,0.186-4.11,0.817c-8.774,4.234-17.753,4.675-26.812,1.112c-2.629-1.034-3.499-0.45-3.981,2.271
		c-1.932,10.884-2.366,21.843-2.113,32.857c0.038,1.653,0.104,3.315-0.132,4.961c-0.118,0.82-0.267,1.905-1.192,1.958
		c-1.058,0.06-1.535-0.942-1.77-1.917c-0.11-0.46-0.158-0.932-0.178-1.406c-0.674-17.227,0.499-34.274,5.045-50.98
		c0.885-3.251,2.524-6.111,5.129-8.344c1-0.857,2.074-1.615,3.388-1.844c1.388-0.242,3.187-0.65,3.742,0.974
		c0.636,1.856-1.386,1.78-2.469,2.225c-4.292,1.758-8.371,8.93-7.614,13.406c0.237,1.401,1.258,1.94,2.388,2.345
		c8.107,2.906,16.22,3.158,24.185-0.385c2.573-1.146,5.096-1.212,7.828-1.414c5.29-0.393,10.632,0.686,15.705-0.022
		c5.305-0.741,10.07-1.908,15.555-0.009c3.738,1.295,8.169-0.608,12-2.218c3.434-1.443,4.252-3.947,2.676-7.588
		c-2.673-6.172-7.251-11.045-11.379-16.206c-3.247-4.062-6.717-7.943-10.246-11.764c-1.664-1.802-2.312-3.538-0.459-5.582
		c0.478-0.526,0.794-1.189,0.927-1.895c0.217-1.152,0.692-2.518-0.255-3.373c-1.045-0.944-1.921,0.365-2.766,0.838
		c-3.346,1.878-6.769,3.378-10.73,3.178c-1.918-0.097-2.262,0.7-1.322,2.369c2.552,4.528,5.204,9,7.14,13.858
		c2.927,7.343,1.02,11.815-6.42,14.421c-7.265,2.544-14.675,3.706-22.308,1.857c-4.856-1.178-8.019-5.052-7.664-9.285
		c0.1-1.201,0.256-2.643,1.671-2.777c1.467-0.139,1.286,1.4,1.514,2.352c1.138,4.76,2.209,5.666,7.021,6.644
		c7.033,1.428,13.618-0.348,20.145-2.581c2.542-0.87,3.616-2.854,3.582-5.525c-0.029-2.313-0.79-4.395-1.741-6.451
		c-4.145-8.969-9.532-17.146-15.771-24.778c-3.321-4.063-3.21-5.254,1.504-7.239c2.978-1.254,3.51-3.11,2.68-5.906
		c-0.477-1.603-1.172-3.087-1.916-4.568c-0.478-0.948-1.121-2.209-0.054-2.896c1.278-0.822,2.104,0.489,2.813,1.371
		c1.449,1.799,2.125,3.963,2.536,6.18c0.405,2.183,1.291,2.878,3.655,2.346c8.362-1.883,8.384-1.788,6.907-10.315
		c-0.081-0.466-0.211-0.929-0.232-1.399c-0.053-1.156-0.387-2.615,1.19-2.901c1.339-0.244,1.698,1.102,1.989,2.085
		c0.74,2.498,1.387,5.058,1.143,7.678c-0.233,2.501,0.991,3.124,3.145,2.962c2.146-0.161,4.771,0.575,4.931-2.953
		c0.146-3.282-1.167-5.99-3.197-8.41c-1.604-1.913-3.474-3.567-5.543-4.951c-2.438-1.631-3.656-3.864-4.032-6.75
		c-0.783-6.023-2.558-11.769-5.108-17.288c-1.073-2.321-2.899-3.141-5.219-4.162c-5.767-2.539-9.007,0.009-13.057,3.794
		c-7.888,7.373-17.933,10.7-28.427,12.766c-6.097,1.2-12.017,0.389-17.901-1.014c-2.338-0.557-4.004-0.107-5.766,1.513
		c-4.417,4.063-9.789,6.091-15.729,6.605c-4.177,0.362-5.81,1.132-6.204,5.317c-0.889,9.435-2.639,18.99,2.558,28.02
		c3.311,5.751,4.288,11.998,1.541,18.413c-0.469,1.095-0.717,2.243-0.559,3.462c0.104,0.802,0.354,1.744-0.575,2.221
		c-1.006,0.517-1.808-0.152-2.558-0.727c-0.846-0.648-1.534-1.478-2.349-2.161c-2.792-2.336-5.949-3.877-9.627-4.075
		c-9.048-0.484-14.438,6.222-12.049,14.944c1.635,5.972,4.967,10.747,10.378,13.81c6.326,3.581,11.901,8.123,17.352,12.858
		c1.082,0.938,1.99,1.999,2.704,3.254c2.937,5.164,3.105,5.229,8.977,4.191C203.561,320.377,204.612,320.557,204.291,321.944z"/>
	
		<path display="inline" fill-rule="evenodd" clip-rule="evenodd" fill="#13458C" stroke="#000000" stroke-linecap="round" stroke-linejoin="round" stroke-miterlimit="10" d="
		M223.485,427.5c-4.274,0-8.547,0-12.821,0c-1.68-1.009-2.01-2.883-2.667-4.461c-5.304-12.735-10.064-25.673-12.571-39.284
		c-2.077-11.277-3.241-22.634,0.196-33.907c1.992-6.533,5.208-12.396,10.063-17.253c2.44-2.441,3.621-2.082,4.362,1.388
		c1.437,6.727,2.213,13.57,1.484,20.41c-1.423,13.354,0.197,26.348,4.326,39.009c3.4,10.427,5.822,21.063,7.987,31.783
		C224.021,426.054,224.097,426.803,223.485,427.5z"/>
	
		<path display="inline" fill-rule="evenodd" clip-rule="evenodd" fill="#06070D" stroke="#000000" stroke-linecap="round" stroke-linejoin="round" stroke-miterlimit="10" d="
		M156.523,423.683c0.447,0.205,0.898,0.399,1.35,0.594c1.513-9.416,3.949-18.603,7.273-27.557
		c3.148-8.482,7.074-16.486,14.084-22.59c3.01-2.621,6.426-4.373,10.264-5.293c2.049-0.49,3.661-0.352,3.6,2.591
		c-0.053,2.574,0.328,5.181,0.741,7.737c2.728,16.874,8.382,32.825,15.362,48.354c0.49-0.006,0.979-0.013,1.467-0.019
		c-4.884-11.377-9.408-22.887-12.472-34.908c-3.344-13.125-5.384-26.378-2.311-39.845c1.89-8.278,5.491-15.707,12.416-21.643
		c2.295,7.96,2.927,15.712,2.188,23.442c-1.129,11.811,0.062,23.369,3.391,34.619c3.744,12.656,7.312,25.327,9.609,38.334
		c0.458,0.004,0.916,0.008,1.375,0.013c-0.85-4.517-1.719-9.028-2.544-13.549c-2.147-11.756-7.061-22.769-9.244-34.514
		c-0.848-4.561-0.859-4.623,3.7-4.86c1.122-0.059,2.183-0.903,3.396-0.325c-0.726,5.44,1.148,9.663,6.005,12.171
		c6.266,3.234,11.29,0.746,15.528-4.159c6.103,9.754,14.911,10.106,21.188,0.996c0.927-1.344,1.488-0.934,2.505-0.393
		c3.846,2.047,7.843,2.159,11.438-0.271c2.153-1.454,2.598-0.754,3.273,1.183c3.577,10.246,8.771,19.617,15.642,28.02
		c1.124,1.374,2.243,2.75,3.347,4.137c2.762-0.849,5.533-1.666,8.312-2.464c-0.868-13.734-1.152-27.654-6.109-41.423
		c5.837,6.535,9.554,13.338,12.729,20.459c2.518,5.647,4.661,11.426,6.556,17.288c0.776-0.214,1.554-0.427,2.331-0.641
		c-0.475-1.5-0.961-2.995-1.484-4.478c-4.928-13.964-10.786-27.464-21.884-37.894c-0.923-0.867-1.136-2.037-1.549-3.124
		c-3.955-10.412-8.955-20.254-15.819-29.083c-0.359-0.457-0.718-0.914-1.076-1.372c-1.766,0.444-2.177,2.066-2.834,3.398
		c-3.418,6.935-5.604,14.299-7.297,21.807c-0.488,2.166-1.289,3.678-3.575,4.287c-2.875,0.765-5.032,2.588-6.479,5.172
		c-0.894,1.595-1.942,2.095-3.771,1.417c-4.306-1.597-8.391-0.954-12.051,1.827c-1.174,0.893-1.88,1.061-2.785-0.375
		c-3.53-5.604-8.875-6.729-14.869-5.421c-1.931,0.421-2.482-0.044-2.945-1.726c-1.137-4.132-3.618-7.327-7.775-8.529
		c-3.024-0.874-3.809-2.515-3.691-5.396c0.316-7.753-0.591-15.402-3.599-22.585c-1.606-3.834-3.839-7.359-1.768-11.667
		c0.098-0.203,0.05-0.468,0.022-0.703c-0.086-0.728-0.242-1.431-1.108-1.586c-0.676-0.121-1.216,0.28-1.411,0.83
		c-0.767,2.171-2.481,4.021-2.243,6.532c0.458,0.481,0.916,0.963,1.374,1.443c3.468,6.612,3.436,6.587-1.217,12.392
		c-1.398,1.746-2.552,3.688-3.843,5.521c-0.536,0.761-0.991,1.711-1.734,2.173c-8.54,5.31-12,13.707-13.86,22.974
		c-0.63,3.144-1.53,5.616-4.57,7.329c-2.658,1.496-4.641,4.01-6.401,6.552c-9.357,13.521-13.198,29-16.246,44.761
		C156.454,423.66,156.488,423.666,156.523,423.683z"/>
	
		<path display="inline" fill-rule="evenodd" clip-rule="evenodd" fill="#13458C" stroke="#000000" stroke-linecap="round" stroke-linejoin="round" stroke-miterlimit="10" d="
		M306.419,413.767c5.011-1.448,10.044-2.83,15.083-4.212c-4.477-14.325-10.534-27.94-20.967-39.591
		c-0.163,0.651-0.079,1.209,0.072,1.748C304.485,385.48,306.249,399.53,306.419,413.767z"/>
	
		<path display="inline" fill-rule="evenodd" clip-rule="evenodd" fill="#272D31" stroke="#000000" stroke-linecap="round" stroke-linejoin="round" stroke-miterlimit="10" d="
		M128.433,191.936c0.236-0.5,0.472-0.999,0.708-1.499c1.058-0.045,1.284,0.835,1.663,1.521c1.574,2.855,3.325,5.577,5.608,7.937
		c0.702,0.726,1.577,1.449,1.225,2.688c-0.251,0.246-0.502,0.492-0.754,0.737C133.075,200.262,130.014,196.648,128.433,191.936z"/>
	
		<path display="inline" fill-rule="evenodd" clip-rule="evenodd" fill="#99D8F7" stroke="#000000" stroke-linecap="round" stroke-linejoin="round" stroke-miterlimit="10" d="
		M137.637,202.584c-3.429-3.631-6.539-7.486-8.496-12.146c-2.709-9.747,0.307-18.347,6.855-25.166
		c5.379-5.602,7.176-11.43,6.704-18.898c-0.412-6.509,1.194-12.903,3.918-18.932c3.353-7.42,8.928-12.061,16.938-13.658
		c1.675-0.334,2.978-0.807,3.975-2.459c7.528-12.467,19.1-16.535,32.993-15.519c3.774,0.277,7.504,0.891,11.112,2.121
		c10.635,3.625,18.04,13.188,18.906,24.349c0.105,1.356-0.116,2.194-1.496,2.736c-1.246,0.49-2.696,0.792-3.481,2.106
		c0.681,1.332,1.495,0.425,2.08,0.136c13.099-6.487,23.208-1.586,30.216,8.414c1.572,2.244,2.994,3.197,5.936,3.052
		c14.026-0.691,25.289,13.514,22.518,28.308c-0.479,2.552-0.078,4.395,1.325,6.536c6.943,10.6,4.196,20.404-3.103,28.874
		c-0.303,0.352-0.92,0.951-1.017,0.885c-2.154-1.463-2.235-4.206-3.701-6.121c-0.8-1.045-0.319-1.651,0.756-2.119
		c1.683-0.732,3.378-1.481,4.854-3.113c-1.676-0.802-2.471,0.337-3.354,0.82c-3.758,2.056-7.523,2.451-11.56,0.737
		c-2.229-0.945-2.826-1.844-1.416-4.126c2.005-3.243,3.474-6.78,3.943-10.761c-1.565,0.062-1.616,1.046-1.821,1.767
		c-4.192,14.696-14.777,22.868-28.47,27.782c-4.225,1.517-8.603,2.53-13.088,3.073c-2.071,0.25-2.615-0.349-2.48-2.429
		c0.582-8.972-4.042-15.23-10.905-20.231c-0.237-0.173-0.636-0.124-1.288-0.231c0.142,1.694,1.521,2.124,2.376,2.868
		c5.231,4.556,8.596,9.934,8.417,17.198c-0.063,2.596-0.973,3.186-3.38,2.928c-6.194-0.663-12.049-2.281-17.444-5.45
		c-0.907-0.533-1.852-1.004-2.802-1.456c-0.124-0.059-0.387,0.173-0.892,0.421c1.517,1.834,3.521,2.841,5.515,3.579
		c3.384,1.251,2.387,2.439,0.347,4.083c-7.033,5.667-14.95,6.549-23.45,4.54c-1.252-0.296-2.514-0.555-3.78-0.785
		c-0.106-0.019-0.277,0.316-0.637,0.754c2.217,1.544,4.895,1.397,7.383,2.261c-4.685,9.388-3.096,19.321-2.549,29.178
		c0.099,1.785,1.222,3.038,2.025,4.457c3.269,5.771,5.015,11.719,2.516,18.296c-0.73,1.922-1.362,2.801-3.389,1.061
		c-2.449-2.102-5.43-3.398-8.689-3.682c-1.517-0.132-2.294-0.946-3.066-2.053c-3.026-4.343-5.222-8.98-5.366-14.396
		c-0.014-0.536,0.112-1.195-0.651-1.419c-0.985,2.247-0.999,3.645,0.087,7.242c0.893,2.96,2.261,5.699,3.953,8.293
		c0.413,0.633,1.765,1.409,0.547,2.212c-1.006,0.664-2.168,0.322-3.176-0.655c-4.823-4.678-8.775-9.922-10.77-16.419
		c-0.654-2.133-1.152-4.359-1.35-6.575c-0.23-2.578-0.47-5.281,0.056-7.769c0.684-3.238,4.437-1.726,6.367-3.283
		c0.784-0.632,2.093-0.56,2.464-1.782c-0.606-0.746-1.262-0.377-1.901-0.134c-13.295,5.05-24.284-1.814-25.553-15.988
		c-0.286-3.197-0.177-6.39,0.758-9.491C139.45,204.765,139.486,203.373,137.637,202.584z"/>
	
		<path display="inline" fill-rule="evenodd" clip-rule="evenodd" fill="#FED611" stroke="#000000" stroke-linecap="round" stroke-linejoin="round" stroke-miterlimit="10" d="
		M281.098,333.218c-4.868,8.383-7.451,17.577-9.475,26.953c-0.405,1.874-0.842,3.007-3.159,3.282
		c-3.657,0.434-6.103,2.826-7.591,6.218c-0.319,0.729-0.115,2.37-1.979,1.414c-6.063-3.11-11.402-1.997-15.89,3.182
		c-3.737-8.57-9.648-10.734-18.608-6.793c-0.731-6.877-4.088-11.38-11.244-12.455c-1.821-0.273-1.081-1.854-1.075-2.879
		c0.045-7.59-0.196-15.121-2.635-22.432c-0.944-2.832-2.318-5.408-3.757-7.988c-1.644-2.948,2.429-5.278,0.624-9.007
		c-1.328,2.866-1.454,5.812-3.391,7.788c-5.163,2.441-7.318,1.709-9.762-3.544c-0.527-1.132-1.282-1.961-2.116-2.778
		c-5.259-5.157-11.057-9.598-17.463-13.257c-5.938-3.394-9.783-8.379-11.391-15.108c-2.476-10.364,5.367-18.094,15.818-15.474
		c3.28,0.822,6.09,2.527,8.556,4.821c0.924,0.859,1.854,1.713,3.138,2.481c-1.838-2.591,0.011-4.533,0.753-6.635
		c2.424-6.863,0.429-13.075-3.065-18.928c-1.33-2.229-2.023-4.467-2.115-6.992c-0.237-6.491-0.936-13.006,0.521-19.436
		c1.148-5.063,2.331-5.901,7.368-6.149c6.148-0.302,11.516-2.617,15.901-6.894c1.541-1.504,2.802-1.812,4.917-1.331
		c19.963,4.536,36.81-1.403,50.962-15.712c1.521-1.538,2.434-2.413,4.497-0.971c1.204,0.842,2.951,1.632,4.289,1.418
		c3.79-0.604,4.875,1.837,6.11,4.477c2.775,5.932,4.793,12.091,5.486,18.613c0.233,2.192,1.005,3.718,2.968,4.823
		c2.276,1.281,4.18,3.099,5.915,5.048c2.249,2.526,3.788,5.36,3.948,8.875c0.143,3.106-0.513,5.063-4.282,4.46
		c-1.843-0.295-4.213,0.625-5.542-0.238c-1.456-0.946-0.019-3.39-0.332-5.181c-0.474-2.715-0.581-5.52-2.103-8.23
		c-1.121,1.078-0.631,1.979-0.425,2.789c0.615,2.416,1.045,4.844,1.007,7.353c-0.038,2.503-0.611,4.246-3.692,4.449
		c-2.321,0.151-4.628,0.929-6.877,1.636c-1.602,0.502-2.005,0.082-2.155-1.521c-0.356-3.788-1.431-7.333-4.502-10.352
		c-0.658,2.078,1.046,2.949,1.431,4.28c0.425,1.471,1.012,2.896,1.397,4.376c0.739,2.836,0.469,5.165-3.109,5.728
		c-0.677,0.106-1.282,0.603-1.951,0.829c-2.417,0.817-2.383,1.825-0.76,3.714c7.205,8.383,13.129,17.616,17.672,27.707
		c3.356,7.455,1.765,10.896-6.034,13.149c-5.502,1.591-11.085,2.324-16.823,1.686c-6.033-0.673-7.859-2.509-8.467-8.722
		c-0.042-0.42,0.025-0.948-0.592-1.069c-2.177,4.524,0.43,9.438,5.883,10.812c4.057,1.022,8.217,0.982,12.345,0.505
		c3.407-0.395,6.737-1.211,10.002-2.304c6.134-2.054,8.193-5.983,6.028-12.079c-1.746-4.913-4.377-9.416-6.949-13.934
		c-0.754-1.323-1.569-2.611-2.312-3.843c0.564-0.992,1.367-0.637,1.992-0.62c5.168,0.135,9.857-1.277,13.843-4.557
		c1.837-1.512,2.545-1.05,2.917,1.007c0.413,2.29,0.537,4.648-1.477,6.219c-1.971,1.537-1.245,2.512,0.105,3.909
		c6.829,7.065,13.145,14.573,18.874,22.562c1.165,1.626,2.269,3.332,3.135,5.13c2.473,5.134,1.193,8.455-4.137,10.276
		c-4.373,1.494-9.474,3.52-13.425,1.389c-4.309-2.324-7.353-0.959-10.945,0.351c-0.437,0.159-0.966,0.337-1.385,0.233
		c-6.268-1.562-12.672,0.836-18.93-0.669c-1.334-0.321-2.252,0.509-3.281,1.023c-9.135,4.563-18.37,4.682-27.768,0.804
		c-1.956-0.808-2.967-1.794-2.08-3.955c0.133-0.325,0.201-0.68,0.275-1.026c1.317-6.155,2.832-12.15,11.239-12.922
		c-3.248-1.24-5.262-0.841-7.462,1.136c-2.477,2.227-3.719,5.165-4.499,8.293c-4.147,16.634-5.869,33.508-4.832,50.639
		c0.052,0.85-0.332,1.956,1.106,2.477c0.8-1.302,0.347-2.71,0.288-4.008c-0.572-12.574,0.197-25.047,2.43-37.442
		c0.41-2.276,0.961-2.777,3.269-1.789c9.684,4.146,19.328,3.896,28.75-0.945c1.24-0.637,2.281-0.786,3.66-0.33
		c1.299,0.431,3.007,0.787,4.162,0.297c6.182-2.622,12.876,2.036,18.973-1.507c1.119-0.65,1.562,0.749,1.887,1.572
		c1.711,4.329-0.297,7.613-3.257,10.43C286.844,325.246,283.047,328.462,281.098,333.218z"/>
	
		<path display="inline" fill-rule="evenodd" clip-rule="evenodd" fill="#FDFDFD" stroke="#000000" stroke-linecap="round" stroke-linejoin="round" stroke-miterlimit="10" d="
		M279.539,261.947c-2.783,0.326-4.619-0.756-6.12-3.173c-1.61-2.592-3.639-4.937-5.612-7.28c-0.987-1.173-0.834-1.645,0.535-2.235
		c8.67-3.738,17.639-5.908,27.151-5.539c1.611,0.062,1.863,0.81,1.951,2.199c0.46,7.261-4.964,13.639-13.35,15.472
		C282.606,261.716,281.059,261.769,279.539,261.947z"/>
	
		<path display="inline" fill-rule="evenodd" clip-rule="evenodd" fill="#13458C" stroke="#000000" stroke-linecap="round" stroke-linejoin="round" stroke-miterlimit="10" d="
		M290.688,361.43c0.9,4.049-1.469,8.651-5.601,10.881c-3.611,1.949-5.285,6.141-3.94,10.053c4.21,12.249,10.874,22.98,19.442,33.133
		c1.45-0.44,2.903-0.873,4.358-1.298c-0.771-28.371-6.388-54.761-23.615-78.435c-3.007,6.107-5.033,11.777-6.545,18.209
		c2.176-0.606,3.885-0.914,5.643-0.847C285.244,353.311,289.67,356.856,290.688,361.43z"/>
	
		<path display="inline" fill-rule="evenodd" clip-rule="evenodd" fill="#5A427A" stroke="#000000" stroke-linecap="round" stroke-linejoin="round" stroke-miterlimit="10" d="
		M241.343,376.756c-0.026,5.125-4.615,9.597-9.817,9.565c-5.432-0.033-10.08-4.603-10.034-9.864
		c0.048-5.468,4.345-9.316,10.335-9.257C237.596,367.258,241.373,371.051,241.343,376.756z"/>
	
		<path display="inline" fill-rule="evenodd" clip-rule="evenodd" fill="#5A427A" stroke="#000000" stroke-linecap="round" stroke-linejoin="round" stroke-miterlimit="10" d="
		M280.301,373.74c-0.038,5.33-4.107,9.171-9.633,9.092c-5.177-0.075-8.789-4.294-8.884-10.374c-0.063-4.034,4.553-7.935,9.325-7.881
		C276.411,364.637,280.338,368.551,280.301,373.74z"/>
	
		<path display="inline" fill-rule="evenodd" clip-rule="evenodd" fill="#5A427A" stroke="#000000" stroke-linecap="round" stroke-linejoin="round" stroke-miterlimit="10" d="
		M252.86,387.99c-5.593,0.02-9.434-3.324-9.489-8.262c-0.059-5.12,3.95-8.875,9.425-8.83c5.531,0.046,9.169,3.449,9.167,8.577
		C261.962,384.808,258.581,387.97,252.86,387.99z"/>
	
		<path display="inline" fill-rule="evenodd" clip-rule="evenodd" fill="#5A417A" stroke="#000000" stroke-linecap="round" stroke-linejoin="round" stroke-miterlimit="10" d="
		M279.751,354.628c4.291-0.051,8.243,2.837,9.319,6.807c0.99,3.653-0.553,6.918-4.25,9.252c-1.741,1.1-2.923,1.172-3.747-1.084
		c-0.977-2.674-2.952-4.504-5.56-5.657c-1.064-0.473-3.14-0.072-2.689-2.02c0.525-2.272-0.115-5.221,2.79-6.456
		C276.913,354.918,278.292,354.513,279.751,354.628z"/>
	
		<path display="inline" fill-rule="evenodd" clip-rule="evenodd" fill="#5A4179" stroke="#000000" stroke-linecap="round" stroke-linejoin="round" stroke-miterlimit="10" d="
		M211.434,362.713c0.46-2.107-0.863-4.986,1.463-5.826c2.361-0.851,4.696,0.819,6.534,2.587c3.078,2.958,4.007,6.603,2.531,9.855
		c-1.409,3.105-5.578,4.779-8.683,3.573c-0.979-0.38-1.103-1.072-1.169-1.918C211.889,368.182,211.653,365.381,211.434,362.713z"/>
	
		<path display="inline" fill-rule="evenodd" clip-rule="evenodd" fill="#13448B" stroke="#000000" stroke-linecap="round" stroke-linejoin="round" stroke-miterlimit="10" d="
		M196.265,345.164c-2.118,6.637-3.414,13.292-3.301,20.179c0.023,1.39-0.703,1.864-1.963,1.885
		c-0.706,0.012-1.424,0.043-2.113,0.182c-4.607,0.928-4.713,0.911-3.611-3.535C187.083,356.586,189.773,349.757,196.265,345.164z"/>
	
		<path display="inline" fill-rule="evenodd" clip-rule="evenodd" fill="#0E1418" stroke="#000000" stroke-linecap="round" stroke-linejoin="round" stroke-miterlimit="10" d="
		M249.16,149.902c-21.604-4.251-38.384,3.21-53.054,18.433C199.287,154.903,238.376,141.179,249.16,149.902z"/>
	
		<path display="inline" fill-rule="evenodd" clip-rule="evenodd" fill="#11171B" stroke="#000000" stroke-linecap="round" stroke-linejoin="round" stroke-miterlimit="10" d="
		M178.733,221.917c-4.281,0.934-7.377,3.412-10.707,5.8c-4.097,2.94-11.994,0.994-15.24-3.682
		c6.139,2.765,11.808,6.076,17.561-0.151c-4.611-1.088-7.446-3.855-8.621-8.132c-0.841-3.063-1.747-6.169-0.552-9.421
		c1.354,4.403,1.004,9.311,4.316,13.009C169.201,223.484,173.981,222.012,178.733,221.917z"/>
	
		<path display="inline" fill-rule="evenodd" clip-rule="evenodd" fill="#151D21" stroke="#000000" stroke-linecap="round" stroke-linejoin="round" stroke-miterlimit="10" d="
		M238.462,175.955c4.445,4.04,8.194,19.852,6.225,26.101C243.897,193.054,242.099,184.304,238.462,175.955z"/>
	
		<path display="inline" fill-rule="evenodd" clip-rule="evenodd" fill="#151D22" stroke="#000000" stroke-linecap="round" stroke-linejoin="round" stroke-miterlimit="10" d="
		M174.851,232.999c-1.013,8.841-0.075,17.469,3.129,26.628C173.392,255.459,171.594,238.965,174.851,232.999z"/>
	
		<path display="inline" fill-rule="evenodd" clip-rule="evenodd" fill="#131C20" stroke="#000000" stroke-linecap="round" stroke-linejoin="round" stroke-miterlimit="10" d="
		M257.787,193.322c0-7.252,0-14.233,0-21.274C260.399,175.276,260.479,189.048,257.787,193.322z"/>
	
		<path display="inline" fill-rule="evenodd" clip-rule="evenodd" fill="#121005" stroke="#000000" stroke-linecap="round" stroke-linejoin="round" stroke-miterlimit="10" d="
		M198.678,264.182c8.928,5.783,11.381,5.77,16.844-0.637c-4.285-1.667-8.433-3.478-10.908-7.757
		c3.44,1.877,6.299,4.791,10.227,5.774c4.843,1.213,7.172-3.495,11.555-4.333c-3.055-3.389-4.75-6.906-4.287-11.678
		c1.983,1.728,1.4,3.829,2.045,5.485c1.694,4.347,3.355,5.285,7.664,3.844c0.336-0.112,0.658-0.29,1.002-0.351
		c3.412-0.604,6.236-1.297,3.699-5.925c-0.933-1.701-0.787-4.129-0.001-6.369c1.914,0.876,0.951,2.51,1.028,3.683
		c0.371,5.616,1.647,6.755,7.143,5.812c1.822-0.313,4.826,0.316,5.199-1.21c0.538-2.198-1.572-4.238-3.133-6.046
		c-1.534-1.774-3.781-2.626-5.952-4.281c5.995-0.153,11.366,7.026,11.828,15.036c0.725,12.578-6.746,24.97-15.825,25.534
		c7.082-3.973,12.463-9.205,13.795-17.878c-0.606,0.333-0.988,0.424-1.18,0.665c-8.728,11.024-20.551,11.815-32.802,8.964
		c-3.935-0.916-7.676-2.832-11.932-3.235C201.909,269.016,199.806,266.908,198.678,264.182z"/>
	
		<path display="inline" fill-rule="evenodd" clip-rule="evenodd" fill="#1A1601" stroke="#000000" stroke-linecap="round" stroke-linejoin="round" stroke-miterlimit="10" d="
		M192.267,292.631c-2.825-1.412-3.783-0.184-4.552,1.383c-0.838,1.708-0.444,3.15,0.815,4.524c1.917,2.092,4.752,2.802,7.6,4.652
		c-4.299,0.035-9.008-2.86-10.086-5.749c-0.624-1.67-0.586-3.506,0.656-4.685c2.407-2.285,1.171-3.6-0.754-5.186
		c-4.581-3.771-9.488-6.546-16.627-5.205C175.042,277.945,186.587,283.35,192.267,292.631z"/>
	
		<path display="inline" fill-rule="evenodd" clip-rule="evenodd" fill="#2C2503" stroke="#000000" stroke-linecap="round" stroke-linejoin="round" stroke-miterlimit="10" d="
		M268.206,335.872c-0.8,8.181-1.654,16.354-3.721,24.333c-0.389-0.06-0.778-0.119-1.168-0.179c1.2-8.122,2.4-16.243,3.601-24.364
		C267.348,335.731,267.776,335.802,268.206,335.872z"/>
	
		<path display="inline" fill-rule="evenodd" clip-rule="evenodd" fill="#2D2603" stroke="#000000" stroke-linecap="round" stroke-linejoin="round" stroke-miterlimit="10" d="
		M256.106,356.942c-0.504-7.268,0.209-13.657,1.732-19.979c0.135-0.56,0.443-1.189,1.206-0.874c0.485,0.201,0.519,0.73,0.393,1.21
		c-1.57,5.982-1.924,12.1-2.071,18.244C257.36,355.786,256.956,356.02,256.106,356.942z"/>
	
		<path display="inline" fill-rule="evenodd" clip-rule="evenodd" fill="#101010" stroke="#000000" stroke-linecap="round" stroke-linejoin="round" stroke-miterlimit="10" d="
		M283.962,253.859c-1.068-0.104-1.76-0.688-1.764-1.779c-0.003-1.232,0.641-1.985,1.971-1.904c1.308,0.081,1.899,0.882,1.789,2.106
		C285.857,253.405,285.021,253.807,283.962,253.859z"/>
	
		<path display="inline" fill-rule="evenodd" clip-rule="evenodd" fill="#FDFDFD" stroke="#000000" stroke-linecap="round" stroke-linejoin="round" stroke-miterlimit="10" d="
		M225.636,272.21c-2.864,0.061-6.165-0.13-9.352-1.155c-3.232-1.042-3.585-2.273-1.23-4.699c3.673-3.785,8.108-6.487,12.949-8.488
		c6.594-2.727,13.513-4.167,20.566-5.127c2.021-0.275,2.465,0.466,2.59,2.197c0.14,1.952-0.182,3.643-1.291,5.347
		C244.4,268.679,237.413,272.242,225.636,272.21z"/>
	
		<path display="inline" fill-rule="evenodd" clip-rule="evenodd" fill="#0B0B0B" stroke="#000000" stroke-linecap="round" stroke-linejoin="round" stroke-miterlimit="10" d="
		M237.812,260.581c-0.024,1.301-0.741,1.97-1.974,1.948c-1.218-0.02-2.023-0.716-1.979-1.976c0.041-1.189,0.699-1.935,2.008-1.937
		C237.2,258.616,237.725,259.374,237.812,260.581z"/>
</g>
<g id="Layer_3">
	<g>
		<path fill-rule="evenodd" clip-rule="evenodd" fill="#0A0504" d="M394.658,323.248c-1.921-18.591-5.791-36.766-13.393-53.963
			c-11.123-25.164-28.664-45.042-50.826-60.996c-2.399-1.728-2.158-2.292,0.056-3.693c3.892-2.461,6.749-5.733,6.449-10.742
			c-0.104-1.754-0.396-3.67-2.194-4.525c-1.741-0.828-2.678,0.835-3.833,1.716c-2.943,2.243-5.414,1.386-5.898-2.272
			c-0.328-2.474-0.125-5.022-0.106-7.537c0.064-8.388-3.37-13.275-11.328-16.215c-3.787-1.399-7.153-3.706-8.879-7.292
			c-1.781-3.703-2.686-7.837-3.883-11.81c-7.383-24.472-22.416-42.633-45.82-52.884c-18.518-8.11-37.556-6.371-56.318,0.276
			c-3.959,1.403-7.148,3.775-9.536,7.077c-1.915,2.646-4.36,4.333-7.173,5.827c-9.342,4.959-16.361,12.231-21.511,21.494
			c-2.114,3.802-3.945,7.775-8.639,9.867c-3.46,1.542-6.509,5.315-5.435,9.497c1.142,4.449,1.122,8.807,1.308,13.246
			c0.041,0.978,0.346,2.018,0.795,2.892c1.409,2.738,2.808,5.254,0.693,8.466c-0.732,1.113-0.265,3.229,0.076,4.794
			c1.125,5.169-1.046,12.417-5.372,14.911c-4.35,2.509-7.523,5.7-9.971,10.101c-3.614,6.495-1.973,12.738,4.604,16.195
			c8.137,4.277,16.805,3.782,25.474,3.054c2.641-0.221,4.028,1.065,5.248,2.859c1.126,1.656,0.864,3.265-0.599,4.745
			c-1.113,1.127-1.41,2.683-1.429,4.203c-0.02,1.592-0.819,2.417-2.095,3.24c-6.259,4.033-12.039,8.734-17.164,14.094
			c-10.326,10.796-21.058,21.244-28.827,34.255c-4.934,8.263-8.846,16.849-11.243,26.17c-1.261,4.904-1.742,9.853-2.178,14.877
			c-0.493,5.698-6.939,6.697-9.627,10.799c-0.267,0.408-0.725,0.692-1.095,1.032c-9.357,8.602-18.378,17.485-25.1,28.43
			c-0.399,0.65-0.786,1.306-1.178,1.959c3.161-0.855,6.875,1.397,6.161,5.636c0.008,0.054,0.016,0.107,0.022,0.162
			c5.63,0.949,11.196,4.607,13.722,9.801c16.469,3.776,29.512,16.474,43,27.349c12.865,4.225,25.586,9.396,38.712,12.337
			c2.124,0.476,3.33,2.396,3.544,4.402H283.74c0.562-1.071,1.522-1.964,2.931-2.402c2.441-0.76,4.887-1.325,7.386-1.792
			c2.582-0.538,5.161-1.095,7.736-1.674c-0.493-1.922,0.084-4.14,2.184-5.53c5.187-3.437,11.014-5.613,16.5-8.5
			c1.991-0.971,3.897-0.593,5.301,0.438c9.452-4.567,18.448-10.166,27.585-15.396c1.642-8.028,8.773-13.995,15.114-18.543
			c1.302-0.934,2.591-1.09,3.717-0.748c3.366-2.312,6.85-4.48,10.328-6.652c2.485-6.197,5.45-12.087,9.661-17.806
			c1.252-1.7,2.926-2.364,4.507-2.287C396.064,338.537,395.447,330.883,394.658,323.248z"/>
		<path fill-rule="evenodd" clip-rule="evenodd" fill="#9AA3CA" d="M386.299,326.088c-0.477-3.742-0.684-7.529-1.335-11.239
			c-2.632-14.99-5.181-30.01-12.265-43.77c-1.779-3.457-3.288-7.061-4.757-10.662c-0.418-1.024-1.667-2.677,0.825-3.102
			c1.326,0.095,1.55-0.482,0.947-1.56c-9.914-17.154-23.312-31.094-39.28-42.687c-7.153-5.193-14.905-9.276-22.985-12.778
			c-1.153-0.5-2.816-1.735-3.245,0.598c-1.374,7.487-5.318,13.799-9.093,20.151c-13.497,22.71-29.244,43.369-53.145,56.229
			c-14.686,7.902-30.153,13.669-47.106,12.513c-12.775-0.871-23.002-7.05-26.725-19.573c-2.101-7.067-0.855-13.964,2.046-20.606
			c0.857-1.962,1.808-3.838,1.456-6.118c-0.648-4.206-3.659-5.724-6.955-3.22c-4.199,3.19-8.632,6.213-12.263,9.983
			c-12.366,12.837-25.283,25.283-33.772,41.292c-5.477,10.327-9.195,21.199-9.007,33.062c0.056,3.519,1.953,7.675-4.083,7.943
			c-0.107,0.005-0.219,0.121-0.313,0.203c-8.882,7.813-18.25,15.274-25.481,24.622c-2.616,3.382-5.055,6.861-7.343,10.421
			c1.695,0.868,2.88,2.687,2.45,5.239c0.008,0.054,0.016,0.107,0.022,0.162c5.63,0.949,11.196,4.607,13.722,9.801
			c16.469,3.776,29.512,16.474,43,27.349c12.865,4.225,25.586,9.396,38.712,12.337c2.124,0.476,3.33,2.396,3.544,4.402H283.74
			c0.562-1.071,1.522-1.964,2.931-2.402c2.441-0.76,4.887-1.325,7.386-1.792c0.912-0.19,1.822-0.396,2.733-0.592
			c0.752-8.272,1.381-16.552,1.309-24.869c-0.086-9.932-0.753-19.855-1.071-29.786c-0.21-6.561-1.199-13.012-2.345-19.453
			c-0.269-1.513-0.448-3.208-2.03-3.789c-4.064-1.497-4.955-5.239-5.189-8.548c-0.756-10.646,0.06-21.383-1.744-31.986
			c-0.114-0.675-0.218-1.618,0.671-1.944c1.051-0.387,1.703,0.399,2.099,1.173c1.169,2.287,1.444,4.808,1.552,7.32
			c0.322,7.546,0.488,15.099,0.879,22.64c0.365,7.06,1.362,8.416,8.194,9.335c21.091,2.837,42.147,2.96,62.99-2.006
			c7.326-1.745,14.522-3.908,20.949-8.15C385.439,330.656,386.661,328.937,386.299,326.088z"/>
		<path fill-rule="evenodd" clip-rule="evenodd" fill="#FED41B" d="M300.412,362.718c1.038,19.584,1.827,39.142,0.146,58.763
			c0.411-0.092,0.823-0.175,1.234-0.268c-0.493-1.922,0.084-4.14,2.184-5.53c5.187-3.437,11.014-5.613,16.5-8.5
			c1.991-0.971,3.897-0.593,5.301,0.438c9.452-4.567,18.448-10.166,27.585-15.396c1.642-8.028,8.773-13.995,15.114-18.543
			c1.302-0.934,2.591-1.09,3.717-0.748c2.732-1.877,5.547-3.654,8.369-5.421c0.13-3.104,0.224-6.213,0.276-9.328
			c0-5.791-0.014-11.582,0.007-17.372c0.008-2.09-0.623-2.586-2.717-1.709c-7.811,3.274-16.111,4.796-24.379,6.351
			c-16.994,3.196-34.084,2.045-51.165,0.931c-4.585-0.299-4.459-0.312-3.727,4.015C299.55,354.479,300.193,358.595,300.412,362.718z
			"/>
		<path fill-rule="evenodd" clip-rule="evenodd" fill="#FED41B" d="M183.997,257.03c2.362,1.359,3.596,0.309,4.276-1.981
			c0.692-2.331-0.055-5.985,2.408-6.621c2.016-0.521,3.148,3.103,5.012,4.539c1.192,0.919,2.231,2.047,3.466,2.897
			c2.92,2.012,5.092,1.326,6.5-1.869c0.504-1.145,1.024-2.315,1.751-3.319c1.481-2.04,3.246-2.951,5.733-1.327
			c1.889,1.233,4.022,2.086,5.966,3.244c3.151,1.877,5.216,0.92,6.542-2.282c0.909-2.195,1.937-4.353,2.666-6.606
			c0.591-1.828,1.511-1.741,2.755-0.861c1.329,0.939,2.646,1.904,3.899,2.942c2.738,2.272,4.816,1.904,6.077-1.452
			c1.008-2.684,1.813-5.501,2.243-8.329c0.416-2.742,1.002-3.831,3.697-1.872c1.22,0.887,2.532,2.521,4.344,1.381
			c1.834-1.152,1.863-3.155,1.767-5.079c-0.499-9.893-5.747-17.531-12.04-24.522c-3.687-4.095-7.688-7.95-12.995-10.111
			c-1.651-0.672-2.759-1.206-3.38,1.05c-0.745,2.709-2.351,1.96-3.974,0.845c-1.864-1.281-3.708-2.593-5.592-3.842
			c-4.549-3.017-5.97-2.855-9.751,1.024c-4.69,4.812-4.69,4.812-10.3,1.125c-3.998-2.626-5.138-2.375-7.984,1.765
			c-3.555,5.169-3.555,5.169-8.459,1.119c-4.029-3.328-4.719-3.236-7.975,1.065c-4.018,5.308-4.018,5.307-8.67,0.612
			c-0.266-0.269-0.532-0.537-0.8-0.802c-4.134-4.1-4.28-4.104-8.412-0.196c-3.885,3.673-3.617,3.56-5.728-1.447
			c-1.521-3.607,0.809-5.312,2.558-7.49c2.014-1.645,2.979-3.98,3.919-6.269c0.613-1.494,1.435-2.876,2.974-3.004
			c1.766-0.147,1.338,1.746,1.796,2.804c3.415,7.893,15.137,11.585,21.689,4.831c0.47-1.167,2.322-2.085,0.945-3.592
			c-1.206-1.318-2.259-0.111-3.268,0.578c-4.601,3.146-10.23,2.721-13.705-1.039c-3.01-3.258-2.563-8.862,1.156-13.03
			c1.842-2.063,4.026-3.833,5.765-5.971c3.626-4.457,4.972-9.458,3.113-15.136c-0.716-2.187-1.942-3.357-4.284-3.512
			c-5.429-0.357-10.8-0.268-16.067,1.334c-1.156,0.352-2.56,1.04-3.496-0.21c-0.803-1.072-0.386-2.402,0.015-3.626
			c0.898-2.736,2.875-4.399,5.47-5.33c2.406-0.863,3.922-2.427,5.005-4.749c4.328-9.284,10.243-17.577,18.968-22.961
			c16.604-10.246,34.051-13,52.204-3.579c3.482,1.808,5.689,4.868,8.353,7.502c1.406,1.391,0.363,2.428-0.259,3.657
			c-4.968,9.826-5.785,19.926-0.069,29.524c2.404,4.036,3.487,7.736,3.197,12.267c-0.26,4.078,0,8.275,4.671,10.169
			c4.997,2.025,9.594,1.004,13.814-2.158c0.497-0.373,0.952-0.803,1.427-1.206c0.727-0.365,1.119-1.01,1.272-1.754
			c0.666-3.224,2.734-4.008,5.789-3.8c3.105,0.21,4.464,1.802,4.738,4.674c0.084,0.879,0.354,1.688,0.685,2.504
			c0.706,1.744,0.56,3.081-1.582,3.781c-1.237,0.404-2.537,1.172-1.433,2.915c0.915,1.651,2.41,2.224,4.144,1.889
			c4.132-0.8,8.255-1.917,10.545-5.83c1.563-2.67,2.628-1.774,4.176-0.157c9.627,10.059,12.536,24.378,5.937,37.841
			c-9.535,19.45-22.164,36.487-37.965,51.09c-12.859,11.885-28.271,19.359-45.285,23.543c-10.5,2.581-20.835,3.2-30.861-1.83
			c-3.77-3.762-8.563-6.599-10.51-11.994c-1.461-4.051-0.837-8.199-0.767-12.312c0.027-1.639,1.293-2.004,2.736-1.503
			c0.972,0.338,1.556,1.259,2.443,1.738c1.742,2.109,3.439,4.259,5.243,6.316c1.323,1.509,2.901,2.732,4.802,3.483
			c1.265,0.499,2.764,1.431,3.668-0.155c1.01-1.77-0.967-2.221-1.937-2.95c-2.073-1.559-4.392-2.821-5.761-5.158
			C182.352,258.878,182.343,257.7,183.997,257.03z"/>
		<path fill-rule="evenodd" clip-rule="evenodd" fill="#97773A" d="M194.191,100.475c3.709-3.128,8.025-4.705,12.474-5.969
			c12.407-3.526,24.888-4.522,37.596-1.507c15.205,3.608,26.9,12.537,37.165,23.804c11.057,12.137,15.245,27.484,20.042,42.557
			c0.475,1.492,0.003,2.583-1.073,3.713c-2.444,2.57-5.495,2.284-8.467,1.873c-2.625-0.363-1.863-2.99-2.324-4.608
			c-2.389-8.375-9.808-13.977-18.146-13.496c-4.006,0.232-6.913,2.789-10.085,4.744c-1.077,0.665-0.673,2.071-0.692,3.175
			c-0.049,2.642,0.17,5.308-0.109,7.923c-0.46,4.314-3.219,6.111-8.488,5.885c-4.05-0.174-5.512-1.793-5.678-6.359
			c-0.051-1.384-0.149-2.789,0.024-4.151c0.448-3.531-0.49-6.395-2.517-9.473c-5.349-8.127-6.045-16.897-1.698-25.798
			c3.127-6.402,2.952-7.476-2.081-12.44c-7.035-6.939-15.535-10.516-25.315-11.117C207.924,98.807,201.057,99.085,194.191,100.475z"
			/>
		<path fill-rule="evenodd" clip-rule="evenodd" fill="#9AA3CA" d="M384.26,362.204c2.129-4.722,4.646-9.277,7.923-13.728
			c0.349-0.473,0.729-0.864,1.132-1.184c-0.36-5.624-0.373-11.282-1.53-16.833c-0.786-0.543-1.563-0.594-2.325,0.048
			c-0.485,1.181-1.049,2.42-2.176,3.008c-2.916,1.521-3.199,3.811-3.109,6.889C384.384,347.678,384.424,354.946,384.26,362.204z"/>
		<path fill-rule="evenodd" clip-rule="evenodd" fill="#FBD31F" d="M218.932,230.606c5.567-0.868,11.258-0.889,16.711-2.556
			c6.061-1.853,7.525-4.946,3.759-9.933c-6.83-9.042-15.562-13.05-28.562-10.935c-8.705,1.415-16.934,4.77-25.53,6.604
			c-12.811,2.735-25.717,4.888-38.874,2.805c-3.353-0.532-6.574-1.609-8.797-4.575c-2.162-2.882-2.542-5.556,0.04-8.455
			c1.659-1.863,3.043-3.967,5.444-5.609c1.004,2.487,1.761,4.953,2.958,7.183c1.613,3.006,3.285,3.156,5.599,0.836
			c1.753-1.758,2.808-5.008,5.265-5.044c2.435-0.036,3.652,3.154,5.512,4.811c4.564,4.064,5.976,3.869,9.16-1.426
			c2.654-4.413,2.753-4.433,6.864-1.253c0.596,0.461,1.17,0.951,1.755,1.427c3.836,3.114,4.87,2.95,7.591-1.206
			c3.643-5.562,3.643-5.562,9.372-2.143c4.315,2.575,5.063,2.385,8.471-1.459c5.142-5.801,3.345-5.663,10.494-1.53
			c1.729,1,3.314,2.271,4.883,3.521c2.274,1.811,4.139,1.794,5.365-1.088c0.655-1.542,1.503-1.927,2.854-0.872
			c9.055,7.07,16.913,15.034,19.717,26.709c0.584,2.432,1.269,4.655-2.931,2.867c-3.325-1.417-5.235,0.301-5.761,4.104
			c-0.12,0.867-0.354,1.721-0.557,2.575c-1.637,6.88-1.639,6.879-7.438,3.539c-4.386-2.524-5.769-1.715-7.611,3.133
			c-2.9,7.631-1.47,8.095-9.072,4.092c-6.893-3.629-8.584-3.277-12.317,3.782c-1.481,2.802-2.622,2.469-4.34,0.627
			c-1.971-2.112-3.953-4.217-5.831-6.41c-2.141-2.502-3.692-2.482-5.565,0.274c-1.224,1.801-1.856,3.855-2.216,5.972
			c-0.342,2.014-1.241,1.901-2.493,0.803c-2.387-2.097-4.119-4.706-5.788-7.373c-0.319-0.511-0.482-0.807,0.066-1.197
			c3.748-2.673,0.517-3.038-1.287-3.775c-5.952-2.43-6.951-5.909-2.857-11.001c1.332-1.657,1.413-2.98,0.503-4.749
			c-0.6-1.167-2.728-2.631-0.911-3.689c1.623-0.946,4.028-1.525,6.002,0.175c2.577,2.219,3.906,5.214,5.039,8.266
			c0.686,1.847,1.488,3.157,3.665,2.998c7.345-0.715,14.708-0.168,22.061-0.308c4.095-0.079,8.193-0.016,12.16-0.015
			C220.788,230.847,219.68,231.423,218.932,230.606z"/>
		<path fill-rule="evenodd" clip-rule="evenodd" fill="#96773A" d="M321.265,183.741c0,1.636-0.099,3.279,0.018,4.907
			c0.424,5.967,3.425,8.269,9.285,7.201c0.663-0.121,1.403-0.987,1.964-0.046c0.413,0.692-0.07,1.428-0.4,2.122
			c-1.844,3.875-7.89,6.081-12.11,4.106c-4.54-2.125-8.796-4.848-13.602-6.425c-0.698-0.229-1.557-0.603-1.47-1.51
			c0.557-5.775-2.645-10.979-2.482-16.688c0.075-2.696,4.439-8.779,7.368-9.348c3.012-0.584,5.554,1.201,7.723,3.165
			C321.308,174.619,321.688,179.072,321.265,183.741z"/>
		<path fill-rule="evenodd" clip-rule="evenodd" fill="#FBFBFB" d="M168.834,161.434c-3.485,6.933-6.104,8.535-11.632,6.43
			c-4.789-1.822-7.555-8.009-5.883-13.2c0.482-1.497,1.358-2.297,2.855-2.636c4.186-0.947,8.38-1.595,12.706-1.51
			c2.906,0.057,4.171,1.245,3.994,4.108c-0.153,2.479,0.749,5.259-2.073,6.936c-0.971-0.376-1.378-1.436-2.28-1.891
			c-0.715-0.361-1.434-0.406-2.092,0.126c-0.437,0.354-0.535,0.831-0.295,1.335c0.364,0.768,1.023,1.042,1.833,0.99
			C166.961,162.06,167.776,161.24,168.834,161.434z"/>
		<path fill-rule="evenodd" clip-rule="evenodd" fill="#EECD36" d="M272.402,176.244c-1.813-1.557-0.405-2.588,0.666-3.554
			c0.417-0.376,1.307-0.252,1.684-0.643c1.067-1.104-2.005-8.379-3.601-8.568c-2.895-0.344-5.784-0.591-6.531,3.328
			c-0.177,0.93-0.886,1.106-1.688,1.116c1.207-2.705,1.225-5.566,1.266-8.464c0.102-7.103,5.787-10.733,12.477-8.167
			c4.788,1.835,8.327,4.833,9.014,10.107c1.062,8.159-1.913,11.726-10.395,12.801C273.846,174.383,272.468,174.276,272.402,176.244z
			"/>
		<path fill-rule="evenodd" clip-rule="evenodd" fill="#B3634B" d="M214.491,226.885c-0.251,0-0.511,0.04-0.753-0.006
			c-1.891-0.359-4.998,0.983-5.452-0.752c-0.557-2.129,2.216-3.709,4.049-4.951c2.678-1.814,5.584-2.93,8.698-0.709
			c1.19,0.849,2.037,0.156,2.924-0.714c2.649-2.595,6.017-2.253,9.259-1.928c2.328,0.234,3.541,2.199,3.787,4.177
			c0.279,2.255-2.045,2.094-3.498,2.501c-3.146,0.882-6.349,1.407-9.625,1.643C220.75,226.371,217.655,227.053,214.491,226.885z"/>
		<path fill-rule="evenodd" clip-rule="evenodd" fill="#9396AA" d="M391.784,330.46c-0.774,0.016-1.55,0.032-2.325,0.048
			c-0.424-12.356-1.854-24.571-5.208-36.508c-3.618-12.879-8.229-25.34-15.483-36.685c0.686-0.295,0.91-0.87,0.947-1.56
			c6.438,9.418,10.422,19.92,14.018,30.668C388.524,300.749,390.535,315.52,391.784,330.46z"/>
		<path fill-rule="evenodd" clip-rule="evenodd" fill="#E9CB3A" d="M179.977,188.99c-1.131,2.171-6.896,5.294-9.27,4.591
			c-6.175-1.831-12.25-3.958-13.677-11.657c-2.879,0.863-2.804,3.728-4.203,5.435c-0.983,1.2-1.187,3.119-3.229,3.268
			c2.379-3.089,2.524-7.457,5.888-10.046c0.948-0.729,0.265-1.803-0.762-2.408c-1.24-0.732-2.178-1.78-2.355-3.24
			c-0.167-1.37-0.299-3.234,1.035-3.738c1.899-0.719,3.887,0.405,5.685,1.167c1.632,0.692,0.42,1.922,0.144,2.887
			c-1.647,5.754-0.407,10.61,3.521,13.621c4.306,3.298,10.971,3.74,15.605,1.035C178.895,189.592,179.438,189.294,179.977,188.99z"
			/>
		<path fill-rule="evenodd" clip-rule="evenodd" fill="#DFC546" d="M176.996,258.719c-0.481-0.113-1.037-0.11-1.431-0.36
			c-2.36-1.5-3.002-0.903-3.209,1.884c-0.561,7.507,0.895,13.98,7.403,18.685c1.31,0.947,2.887,2.01,3.333,3.863
			c-11.362-5.921-15.493-17.923-10.325-31.095C174.285,254.217,175.641,256.468,176.996,258.719z"/>
		<path fill-rule="evenodd" clip-rule="evenodd" fill="#E6CE6C" d="M218.932,230.606c1.849,0,3.698,0,5.547,0
			c-0.004,0.273-0.008,0.547-0.012,0.82c-12.394,0-24.788,0-37.183,0c1.172-0.909,2.572-0.897,3.938-0.896
			C200.458,230.54,209.695,230.578,218.932,230.606z"/>
		<path fill-rule="evenodd" clip-rule="evenodd" fill="#844746" d="M301.645,169.566c-0.926-0.076-1.724-0.372-1.901-1.41
			c-0.113-0.656,4.673-4.718,5.456-4.64c1.03,0.104,1.53,0.789,1.58,1.755C306.854,166.672,303.279,169.626,301.645,169.566z"/>
		<path fill-rule="evenodd" clip-rule="evenodd" fill="#C4B252" d="M183.997,257.03c-0.778,0.937-0.948,2.061-0.985,3.225
			c-2.061-2.375-4.101-4.761-5.093-7.867C179.836,254.13,181.837,255.684,183.997,257.03z"/>
		<path fill-rule="evenodd" clip-rule="evenodd" fill="#A19F9D" d="M298.707,174.781c-1.52-1.777-3.038-3.555-4.557-5.332
			C296.21,170.824,299.365,171.189,298.707,174.781z"/>
		<path fill-rule="evenodd" clip-rule="evenodd" fill="#0C0604" d="M186.892,156.819c0.201-16.745,15.646-22.146,28.401-17.388
			c12.144,4.53,15.728,15.833,8.963,26.905c-1.088,1.781-2.417,2.563-4.54,2.711c-7.011,0.491-14.021,1.083-21.002,1.883
			c-4.643,0.533-7.711-1.364-9.783-5.31C187.444,162.789,186.57,159.808,186.892,156.819z"/>
		<path fill-rule="evenodd" clip-rule="evenodd" fill="#1C1003" d="M208.715,180.755c-3.864-0.822-8.58-0.072-12.508-2.863
			c-0.951-0.675-2.536-1.159-1.56-2.815c0.759-1.289,1.97-0.841,2.995-0.324c4.125,2.079,8.632,2.401,13.096,2.955
			c1.267,0.158,3.22-0.314,3.06,1.737c-0.126,1.626-1.878,1.228-3.075,1.305C210.224,180.782,209.721,180.755,208.715,180.755z"/>
		<path fill-rule="evenodd" clip-rule="evenodd" fill="#1F1E1F" d="M168.834,161.434c-0.387,0.474-0.684,1.094-1.176,1.396
			c-1.838,1.13-3.606,1.074-4.768-0.945c-0.804-1.398-0.417-2.86,1.16-3.324c1.842-0.542,3.785-0.564,4.396,1.984
			c0.084,0.352,0.229,0.69,0.35,1.025C168.801,161.562,168.834,161.434,168.834,161.434z"/>
		<path fill-rule="evenodd" clip-rule="evenodd" fill="#120B03" d="M275.883,158.353c2.875,2.353,4.574,4.914,3.216,8.389
			c-0.547,1.401-1.656,2.878-3.397,2.173c-1.688-0.684-0.735-1.988-0.143-3.133c0.715-1.382,0.4-2.802-0.749-3.747
			c-1.037-0.852-2.316-1.671-3.639-0.224c-0.667,0.73-1.447,0.945-2.307,0.231c-0.826-0.686-0.727-1.634-0.491-2.433
			c0.954-3.246,3.297-5.1,6.569-5.199c3.227-0.097,6.229,0.836,7.807,4.137c0.36,0.753,0.329,1.462-0.337,2.036
			c-0.834,0.719-1.645,0.537-2.295-0.234C279.144,159.196,278.26,157.949,275.883,158.353z"/>
		<path fill-rule="evenodd" clip-rule="evenodd" fill="#FDFDFD" d="M198.65,167.328c-4.469,0.242-7.958-3.405-8.309-8.682
			c-0.519-7.814,3.856-14.639,10.531-16.428c9.194-2.464,18.02,0.637,21.741,7.639c2.447,4.604,1.318,11.684-2.349,15.097
			c-0.634,0.59-1.321,0.609-2.067,0.678c-3.255,0.3-6.508,0.641-9.765,0.924C205.174,166.839,201.911,167.072,198.65,167.328z"/>
		<path fill-rule="evenodd" clip-rule="evenodd" fill="#161515" d="M210.462,160.014c-1.694-0.152-3.134-0.729-3.166-2.586
			c-0.039-2.262,1.577-2.94,3.544-2.946c1.78-0.006,2.937,0.873,2.89,2.711C213.679,159.243,212.2,159.864,210.462,160.014z"/>
	</g>
</g>
<g id="Layer_2_2_">
	<g>
		<path fill="#F0F1F2" d="M226.5,437c-32.219,0-62.432-6.399-89.8-19.021c-25.146-11.596-47.418-28.174-66.196-49.271
			C35.548,329.429,15.5,277.415,15.5,226c0-56.363,21.947-109.351,61.798-149.202C117.149,36.947,170.137,15,226.5,15
			c56.363,0,109.352,21.947,149.202,61.798C415.553,116.649,437.5,169.637,437.5,226c0,78.176-42.898,149.582-111.958,186.354
			c-4.11,2.202-8.353,4.281-12.606,6.186c-0.494,0.23-0.973,0.438-1.449,0.648l-0.846,0.371C284.066,431.13,255.753,437,226.5,437z
			 M226.008,27.613c-109.195,0-198.033,88.837-198.033,198.034c0,109.195,88.837,198.032,198.033,198.032
			c109.196,0,198.033-88.837,198.033-198.032C424.041,116.45,335.204,27.613,226.008,27.613z"/>
		<path fill="none" d="M226.5,16.5c28.285,0,55.723,5.539,81.549,16.461c24.947,10.551,47.354,25.657,66.594,44.897
			c19.239,19.24,34.348,41.646,44.896,66.592C430.462,170.277,436,197.714,436,225.999c0,38.717-10.643,76.535-30.777,109.367
			c-19.574,31.921-47.371,58.085-80.393,75.667c-4.076,2.184-8.283,4.247-12.507,6.133l-0.03,0.014l-0.031,0.018
			c-0.451,0.214-0.914,0.416-1.378,0.615c-0.284,0.125-0.571,0.25-0.825,0.364C283.659,429.672,255.546,435.5,226.5,435.5
			c-32,0-62.002-6.354-89.172-18.883c-24.958-11.509-47.064-27.965-65.704-48.908c-17.49-19.652-31.18-42.341-40.691-67.436
			C21.818,276.225,17,250.54,17,226c0-28.285,5.539-55.722,16.461-81.549c10.551-24.947,25.657-47.352,44.897-66.592
			c19.239-19.24,41.646-34.346,66.592-44.897C170.778,22.039,198.215,16.5,226.5,16.5 M226.008,425.179
			c26.938,0,53.067-5.273,77.669-15.682c23.761-10.05,45.101-24.438,63.423-42.761c18.323-18.323,32.71-39.662,42.763-63.424
			c10.402-24.604,15.682-50.731,15.682-77.668c0-26.936-5.276-53.066-15.682-77.667c-10.053-23.761-24.438-45.099-42.763-63.423
			c-18.322-18.324-39.662-32.71-63.422-42.76c-24.603-10.406-50.732-15.682-77.67-15.682c-26.936,0-53.066,5.276-77.668,15.682
			c-23.761,10.05-45.099,24.437-63.423,42.76c-18.324,18.323-32.71,39.662-42.76,63.423c-10.406,24.601-15.683,50.732-15.683,77.667
			c0,26.937,5.276,53.066,15.683,77.668c10.05,23.762,24.437,45.101,42.76,63.424c18.324,18.321,39.662,32.711,63.423,42.761
			C172.941,419.902,199.072,425.179,226.008,425.179 M14,226c0,99.875,76.854,212.5,212.5,212.5
			c30.124,0,58.791-6.267,84.755-17.571c0.769-0.344,1.544-0.668,2.292-1.021c4.318-1.929,8.549-4.004,12.7-6.229
			C393.332,377.957,439,307.312,439,226c0-117.367-95.133-212.5-212.5-212.5l0,0 M29.475,225.646
			c0-108.542,87.991-196.534,196.533-196.534c108.543,0,196.533,87.991,196.533,196.534c0,108.542-87.99,196.532-196.533,196.532
			l0,0"/>
	</g>
</g>
</svg>
