<?xml version="1.0" encoding="utf-8"?>
<!-- Generator: Adobe Illustrator 17.1.0, SVG Export Plug-In . SVG Version: 6.00 Build 0)  -->
<!DOCTYPE svg PUBLIC "-//W3C//DTD SVG 1.0//EN" "http://www.w3.org/TR/2001/REC-SVG-20010904/DTD/svg10.dtd" [
	<!ENTITY ns_extend "http://ns.adobe.com/Extensibility/1.0/">
	<!ENTITY ns_ai "http://ns.adobe.com/AdobeIllustrator/10.0/">
	<!ENTITY ns_graphs "http://ns.adobe.com/Graphs/1.0/">
	<!ENTITY ns_vars "http://ns.adobe.com/Variables/1.0/">
	<!ENTITY ns_imrep "http://ns.adobe.com/ImageReplacement/1.0/">
	<!ENTITY ns_sfw "http://ns.adobe.com/SaveForWeb/1.0/">
	<!ENTITY ns_custom "http://ns.adobe.com/GenericCustomNamespace/1.0/">
	<!ENTITY ns_adobe_xpath "http://ns.adobe.com/XPath/1.0/">
]>
<svg version="1.0" xmlns:x="&ns_extend;" xmlns:i="&ns_ai;" xmlns:graph="&ns_graphs;"
	 xmlns="http://www.w3.org/2000/svg" xmlns:xlink="http://www.w3.org/1999/xlink" x="0px" y="0px" viewBox="0 0 283.5 283.5"
	 enable-background="new 0 0 283.5 283.5" xml:space="preserve">
<metadata>
	<sfw  xmlns="&ns_sfw;">
		<slices></slices>
		<sliceSourceBounds  width="262.6" height="262.6" x="15" y="10.4" bottomLeftOrigin="true"></sliceSourceBounds>
	</sfw>
</metadata>
<g id="Calque_2">
	<path fill="#EF8067" d="M146.3,20.8c-66.8,0-121,54.2-121,121c0,63.7,49.2,115.9,111.8,120.7c4,0.1,8.1,0.2,12.1,0.3
		c65.5-1.5,118.2-55.1,118.2-121C267.3,74.9,213.1,20.8,146.3,20.8z"/>
</g>
<g id="Calque_4">
	<g id="CHg5LJ.tif">
	</g>
	<g id="nfYagB.tif">
		<g>
			<path fill="#010002" d="M105.5,261.2c6.3,1.2,12.7,2,19.1,2.8c24.5,1.1,49.1,2.7,73-3.6c-1.2-2.9-2.7-5.6-4.5-8.2
				c-3.5-5.1-7.9-9.5-11.9-14.2c-3.1-3.7-7.1-6.4-11.9-7.7c-0.3-1.3,0-2.6-0.2-3.9c-0.1-0.9,0.4-1.9-0.4-2.6c-1,0.5-1,1.4-1,2.3
				c0,3-0.1,6.1,0.2,9.1c0.2,2.2,0.6,4.4,0.5,6.6c-0.1,3.2-1,6-4.2,7.5c-3.3,1.7-6.8,2.8-10.5,2.9c-4.7,0.2-9.3-0.6-13.9-1.5
				c-9.1-1.7-14.9-11.2-15.1-18c-0.1-3.3,0-6.7,0-10c0-0.9,0.1-1.9-0.8-2.6c-1.4,0.4-0.2,1.7-0.8,2.3c-16,7.2-28.5,18.2-38.3,32
				C90.6,258.5,98.8,260,105.5,261.2z"/>
			<path fill="#080205" d="M169.3,230.3c-0.7-1.4-0.2-2.9-0.3-4.4c-0.1-0.7,0.3-1.5-0.4-2.1c-0.8-1.2-0.5-2.4-0.4-3.7
				c0.2-1.9,0.3-3.8,0.9-5.6c0.4-1.2-0.1-1.6-1.2-1.8c-1.1-0.2-2.2-0.6-3.2-1.2c-0.8-0.5-1.5-0.2-2.4,0c-3.2,0.6-6.4,0.8-9.4-1
				c-1.3-0.8-2.4-1.6-3.1-3c-0.6-1.3-1.4-1.3-2.4-0.7c-1.3,0.7-2.6,1.6-3.8,2.4c-0.5,0.4-1.2,1.1-1.8,0.4c-0.7-0.8,0.1-1.4,0.7-1.9
				c4-3.2,8.4-5,13.5-5.3c6.6-0.4,13,0.6,19.2,2.9c5.8,2.1,11.8,2.7,17.9,2.4c1.2-0.1,2.4-0.4,3.4-1c1.8-1.1,2.3-2.2,1.9-4.3
				c-0.8-3.9-2.4-7.3-5.3-10.1c-3.5-3.3-6.7-6.7-9-10.9c-0.6-1.1-1.5-1.3-2.7-1.1c-7.2,1.3-12.5-1.3-15.9-7.8
				c-0.1-0.3-0.3-0.6-0.4-0.9c-0.2-0.6-0.7-1.5,0.1-1.9c0.9-0.5,1.2,0.5,1.5,1c2,3.9,4.8,6.8,9.3,7.7c2.5,0.5,4.9,0.1,7.2-0.9
				c3.1-1.5,3.9-4.3,4.1-7.4c0.5-7.7-0.8-15-4.5-21.8c-0.5-0.9-0.9-1.8-1.4-2.7c-1.1-2.2-1-2.4,1-3.6c1.8-1.1,3.8-2.1,5.4-3.5
				c0.5-0.4,1.2-0.7,1.1-1.4c-0.1-0.8-1-0.7-1.5-0.9c-1.1-0.4-2.3-0.7-3.4-1.2c-1.2-0.6-2.4-0.7-3.7-0.5c-8,1-16,0.7-23.9-1.2
				c-1.3-0.3-2.3-0.2-3.4,0.5c-2.2,1.2-4.6,1.8-7.1,2c-2.2,0.2-2.5,0.5-2.5,2.7c0.4,11.7,0.2,23.4,0.5,35.1
				c0.2,5.9,0.1,11.8,0.3,17.6c0.1,1.7-0.5,3-1.7,4.2c-4.1,4.4-8.1,8.8-11.6,13.7c-1.7,2.3-3.5,4.5-5.7,6.3
				c-0.9,0.7-1.3,1.5-1.2,2.6c0.1,0.6,0.1,1.3-0.4,1.8c-0.8,0.6,0,1.7-0.7,2.3c0.1-1.5,0-3-0.5-4.7c-3.3,2.7-6.6,5.2-10.1,7.4
				c-3.8,2.3-7.7,4.2-11.8,6c-1.2,0.5-1.5,0.3-1.6-1c-1.2-14.5-2.2-29-2-43.5c0.2-14.7,1.6-29.3,3.6-43.8c0.1-0.8,0.3-1.2-0.9-1.2
				c-7.7,0-11.3-5.2-8.7-12.5c0.8-2.1,2.1-3.9,4-5.1c0.7-0.4,1-0.8,0.8-1.7c-2.1-8.5,0-16,5.2-22.8c2.7-3.6,4.4-7.6,6-11.7
				c2.8-7,7.6-12.4,14.1-16.3c0.8-0.5,1.4-1.1,1.8-2c4.6-9.1,12.3-13.6,22.4-13.9c3.5-0.1,5.8-1.7,8.1-3.9c1.6-1.5,3-3.1,5.5-2.8
				c1.6,0.4,2.6,1.5,3.3,2.9c1.9,3.5,4.5,5.6,8.4,7c8,2.8,13.7,8.8,18.2,15.8c2.4,3.7,4,7.7,5,12c1,4.4,3.7,7.7,6.5,10.9
				c5.1,6,6.2,12.9,5,20.4c-0.2,1.1-0.1,1.6,1,2.2c4.8,2.6,6.2,7.5,3.8,12.3c-1.5,2.8-3,5.6-6.8,5.7c-0.9,0-0.6,0.8-0.6,1.3
				c0,12.6-0.2,25.2,0.4,37.7c0.5,10.4,1.2,20.8,2.1,31.2c0.3,3.7,0.7,7.4,1.2,11.1c0.2,1.2-0.2,1.5-1.3,1.7
				c-11.8,2-22.9-0.3-33.3-5.9c-1.4-0.8-1.7-0.3-1.9,0.9C169.4,220.9,169,225.6,169.3,230.3z"/>
			<path fill="#FBDA50" d="M123.8,220.1c-0.7-2.7,0.7-4.4,2.6-6.1c3.6-3.1,5.9-7.4,9-11c2.4-2.7,4.8-5.4,7.3-7.9
				c0.9-0.9,1.3-1.8,1.3-3.1c-0.3-18.1-0.5-36.3-0.9-54.4c0-1.5,0.4-1.9,1.8-1.9c3.2,0,6.2-0.8,8.8-2.6c1.6-1.1,2.8,0,4.1,0.3
				c7.8,1.5,15.5,1.9,23.4,0.7c0.8-0.1,1.5-0.2,2.2,0.2c1.8,1,3.7,1.6,5.7,2.1c0.5,0.1,1.1,0,1.2,0.7c0.1,0.6-0.4,0.9-0.8,1.2
				c-2,1.8-4.2,3.2-6.7,4.3c-1.7,0.7-1.7,1.5-0.9,3c3.5,6.2,5.8,12.8,6.1,19.9c0.1,2.5,0,4.9-0.5,7.4c-0.6,3-2.4,5.1-5.4,6
				c-6.3,1.9-12.1-0.6-15.3-6.6c-0.4-0.7-0.6-1.6-1.2-2.2c-0.5,0.2-0.5,0.4-0.4,0.7c2.9,7.2,8.5,11.1,16.7,9.1
				c1.3-0.3,1.8-0.2,2.4,1c2.1,4.2,5.2,7.6,8.6,10.7c2.9,2.6,4.7,5.9,5.8,9.6c1.1,3.9,0.4,6.3-5,7.1c-6.4,1-12.6-0.2-18.6-2.3
				c-7.7-2.6-15.6-4-23.7-2.1c-3.3,0.8-6.3,2.4-8.8,4.6c-0.4,0.3-1.2,0.6-0.7,1.2c0.5,0.5,0.9-0.3,1.2-0.5c1.7-1.4,3.5-2.5,5.5-3.3
				c0.5-0.2,1-0.5,1.3,0.4c0.9,3.3,3.6,4.6,6.6,5.2c2.2,0.5,4.5,0.5,6.6-0.7c0.4-0.2,0.7-0.4,1.2,0c1.6,1.5,3.6,1.8,5.8,1.9
				c-1.1,3.8-1.6,7.6-1.6,11.4c-0.6,4.8-0.3,9.6,0.1,14.3c0.8,8.2-0.9,10.9-8.8,13.4c-5.9,1.9-11.8,1-17.8,0.1
				c-9.6-1.4-15-7.3-17.7-16.2c-0.3-1.1-0.4-2.1-0.3-3.2C124.3,228.3,124.5,224.2,123.8,220.1z"/>
			<path fill="#34073E" d="M149.9,66.9c-1,0.6-0.8,1.7-1,2.5c-2.8,12-4.8,24.1-6.9,36.3c-0.5,2.8-0.9,5.6-1.2,8.4
				c-0.1,1-0.4,1.2-1.4,1.3c-1.6,0.2-3.2,0.7-4.6,1.5c-1.5,0.8-3.1,0-4.6-0.2c-3.6-0.5-12.8,0.2-16.4,3.1c0-2.4,0.7-4.6,1.2-6.7
				c2.2-10.2,5.9-19.9,10.5-29.3c2.4-4.7,5-9.4,7.9-13.8c0.3-0.5,1.3-1.2,0.6-1.7c-0.8-0.6-1,0.7-1.3,1.1
				c-6.1,9.3-11.1,19.2-14.7,29.8c-2.1,6.1-3.9,12.3-5,18.8c-0.2,1-0.5,1.6-1.8,1.8c-2.8,0.3-5.7,0.6-7.9,2.6
				c-0.4,0.4-0.9,0.2-1.4,0.1c-0.7-0.1-1.5-0.3-2.3-0.1c-3,0.7-2.7,0.9-3.2-2.6c-1-6.5,0.4-12.4,4.2-17.9c3.2-4.6,5.8-9.5,7.8-14.9
				c2.3-6,6.8-10.6,12.2-14.1c1.5-1,2.6-2.2,3.5-3.8c4.1-7.4,10.6-11.4,18.9-12.6c2.5-0.4,5.2,0.5,7.5-1.2c1.6-1.1,3.1-2.3,4.5-3.7
				c2.7-2.7,4.6-2.5,6.6,0.8c0.8,1.2,1.5,2.5,2.4,3.6c1.1,1.4,2.5,2.5,4.3,2.9c4.2,1,7.7,3.4,11,6.1c7.1,5.7,11.5,13.1,13.7,21.9
				c1.2,4.8,4.4,8.4,7.4,12.2c4.5,5.7,5.1,12.3,4.1,19.2c-0.1,0.8-0.7,1-1.4,1c-0.9,0-1.9-0.1-2.8,0c-1,0.1-1.5-0.4-1.7-1.3
				c-1.8-6.9-4.3-13.6-7.2-20.1c-4.3-9.7-9.6-18.8-15.9-27.2c-1-1.3-2-2.6-2.9-3.9c-0.3-0.4-0.6-0.8-1.1-0.5c-0.6,0.4,0,0.8,0.3,1.1
				c6.5,8.1,12.2,16.9,16.7,26.3c3.9,8.1,7.1,16.4,9.4,25.1c0.1,0.2,0.1,0.5,0.2,0.9c-4.9-3.7-10.1-2.8-15.3-2.1
				c-0.8,0.1-1.3,0-1.9-0.4c-0.7-0.4-1.3-1-2-1.1c-2.6-0.3-3.3-2.1-3.8-4.3c-3.5-13.9-7.6-27.5-11.8-41.2c-0.8-2.5-1.7-5-2.5-7.5
				c-0.1-0.4-0.1-1-0.8-0.8c-0.6,0.2-0.2,0.7-0.1,1.1c1.3,4.2,2.7,8.4,4,12.6c3.7,12.2,7.3,24.5,10.5,36.9c0.4,1.7-0.1,1.9-1.5,1.9
				c-3.6,0-7.3-0.4-10.9,0.6c-1.9,0.5-3.7,1.2-5.3,2.5c-0.5,0.4-0.9,0.7-1.4,0.1c-2-2.5-4.7-2.9-7.7-2.8c-1.1,0-2.3-0.1-3.4,0
				c-1.9,0.3-2.3-0.6-2.1-2.3c1.3-8.6,2.7-17.2,4.3-25.8c1.2-6.2,2.4-12.5,3.9-18.6C150.4,67.8,150.5,67.3,149.9,66.9z"/>
			<path fill="#4F1A08" d="M114.7,143.2c-0.5,0.3-0.5,0.6-0.5,0.9c-0.3,7.5-0.7,15-0.3,22.5c0.4,8.1,0,16.2,0.3,24.3
				c0.3,8.4,0.6,16.9,0.7,25.4c0,0.4,0.1,0.8,0.1,1.1c0.8,4-0.2,5.8-4,7.3c-0.8,0.3-1,0.2-1.2-0.7c-0.7-2.6-0.4-5.3-0.6-7.9
				c-0.2-3.3-0.4-6.7-0.6-10c-0.4-8.3,0-16.6-0.4-24.8c-0.5-9.5,0.5-18.9,0.2-28.4c-0.1-1.9,0.4-3.8,0.3-5.7c0-0.3,0.1-0.9-0.4-0.9
				c-0.6-0.1-0.6,0.5-0.7,0.9c0,0.2,0,0.4,0,0.6c-0.5,15.2-0.5,30.3-0.3,45.5c0.1,6.4,0.4,12.7,0.7,19.1c0.2,3.9,0.4,7.8,0.8,11.7
				c0.1,1.5-0.5,2.3-1.8,2.9c-0.9,0.4-1.3,0.3-1.3-0.7c-0.2-4.4-0.5-8.8-0.8-13.2c-0.5-9.9-0.7-19.8-0.9-29.7
				c-0.2-6.3-0.1-12.6-0.2-18.9c0-0.9,0.2-1.7,0.3-2.6c0-0.5,0-1-0.6-1.1c-0.7-0.1-0.5,0.6-0.5,1c0,0.4,0,0.9,0,1.3
				c0,7.9-0.1,15.8,0,23.7c0.1,8.3,0.3,16.7,0.8,25c0.3,4.8,0.2,9.7,1,14.5c0.2,1.3-0.1,2.3-1.5,2.6c-1.2,0.3-2.3,1.7-3.3,1.2
				c-1.1-0.6-0.4-2.2-0.5-3.3c-0.6-5.7-0.9-11.4-1.2-17.1c-0.4-7.8-0.9-15.6-0.6-23.5c0.3-7.7,0.6-15.5,1.4-23.2
				c0.6-6.8,1.4-13.5,2.4-20.2c0.1-0.4,0.1-1,0.3-1.1c2-0.9,3.6-2.7,6.1-2.4c2.4,0.3,5,0.5,7.3-0.3c2.5-0.9,4.9-0.8,7.4-0.7
				c4.1,0.2,7.9-0.8,11.5-2.5c1.3-0.6,1.7-0.3,1.6,1c-0.7,6.2-0.1,12.4-0.4,18.6c-0.4,8.5,0.1,17,0.2,25.5c0,5.1,0,10.2,0.8,15.3
				c0.5,3.3-0.7,5.4-2.7,7.6c-2,2.2-3.6,4.7-5.4,7c-0.3,0.4-0.5,1-1.1,0.8c-0.5-0.2-0.3-0.8-0.3-1.2c-0.9-6.8-1.2-13.7-1.6-20.5
				c-0.3-5.1,0-10.2-0.3-15.3c-0.5-6.2,0.2-12.3,0.1-18.5c0-3.9,0.5-7.8,0.7-11.7c0-0.6,0.1-1.2-0.5-2.2c-0.3,1.5-0.6,2.6-0.6,3.7
				c-0.1,1.9-0.3,3.8-0.4,5.7c-0.5,10-0.6,20-0.4,29.9c0.2,7.1,0.7,14.2,1.1,21.3c0.2,3,0.6,6,1,9c0.3,2-1.3,2.5-2.3,3.7
				c-0.8-2.6-0.7-5.2-0.9-7.7c-0.5-5.1-0.5-10.3-0.9-15.5c-0.4-6-0.5-12.1-0.8-18.1c-0.2-3.2-0.1-6.3-0.3-9.5
				c-0.4-7.1-0.3-14.1-0.4-21.2c0-0.4,0.3-1.2-0.4-1.3c-0.8-0.1-0.7,0.8-0.7,1.3c0.8,8.1-0.2,16.2,0.7,24.2c0.1,0.5,0,1,0,1.5
				c0.1,5.4,0.1,10.9,0.4,16.3c0.4,6.4,0.8,12.8,1.1,19.2c0.2,3.6,0.5,7.1,0.9,10.7c0.1,0.6,0,0.9-0.4,1.4c-1.4,1.6-3.3,2.7-5,4.1
				c-1,0.8-0.9-0.4-0.9-0.9c0.1-5.4-0.3-10.9-0.5-16.3c-0.2-6.6,0-13.3-0.4-19.9c-0.6-12.8-0.1-25.5-0.3-38.3
				C115,144.7,115.2,143.9,114.7,143.2z"/>
			<path fill="#4F1A08" d="M199.3,152.4c-0.5,8.4-0.3,16.4-0.1,24.4c0.2,8.1,0.6,16.1,0.7,24.3c-0.7-1.6-1.3-3.3-2.1-4.9
				c-1-2.1-2.4-3.9-4.2-5.3c-0.7-0.6-0.8-1.2-0.8-2c0.2-8.1-0.6-16.2-0.4-24.2c0-2-0.3-3.9-0.5-6.3c-0.7,1-0.6,1.7-0.6,2.3
				c0,8.2,0.6,16.4,0.4,24.6c0,0.9,0.2,1.7,0.3,2.6c0,0.3,0.1,0.7-0.3,0.8c-0.4,0.1-0.6-0.1-0.8-0.4c-2.3-2.7-4.7-5.3-6.1-8.6
				c-0.2-0.5-0.4-0.9,0.2-1.3c3.7-2.4,3.7-6.4,4-10.1c0.3-3.2-0.2-6.4-0.9-9.6c-0.2-0.8-0.3-1.3,0.8-1.4c4.5-0.1,7.2-4.1,8-7.8
				c1-4.8-0.6-8.8-4.6-11.7c-0.4-0.3-1.1-0.4-0.8-1c0.2-0.5,0.8-0.3,1.2-0.3c1,0,2,0.1,2.9-0.5c0.6-0.3,1-0.2,1.6,0.1
				c0.8,0.5,1.6,1.2,2.5,1.3c2.1,0.2,2.2,1.5,2.2,3.2c-0.1,9.2-0.2,18.3,0,27.5c0.2,7.9,0.7,15.9,1.1,23.8c0.3,4.8,0.7,9.5,1.1,14.3
				c0.4,4.2,0.8,8.4,1.3,12.6c0.1,1.1-0.2,1.4-1,1.6c-0.8,0.1-1.6,0.3-2-0.9c-0.5-1.7-0.3-3.5-0.5-5.2c-0.5-4.5-0.5-9-0.9-13.6
				c-1.2-15.6-1.2-31.3-1.1-46.9C200,153.4,200.2,153,199.3,152.4z"/>
			<path fill="#34073E" d="M169.5,115.4c2.7-0.2,5.2,0.2,7.7,1c6.6,2.2,9.3,9.5,5.8,15.5c-1.1,1.9-2.9,1.3-4.4,1.5
				c-7.4,1-14.7,0.2-21.9-1.4c-1.6-0.4-2.4-1.1-2.6-2.7c-0.2-1.7-0.6-3.4-0.2-5.2c1.1-5.6,4.6-7.5,9.8-8.4
				C165.7,115.4,167.7,115.1,169.5,115.4z"/>
			<path fill="#4F1A08" d="M137.5,198.8c-0.3-5.7-0.5-11-0.8-16.3c-0.6-12-0.4-24-0.3-36c0-3.4,0.4-6.8,0.3-10.2
				c0-0.4-0.1-0.9,0.3-1c1.5-0.4,3,0.1,4.4,0.4c0.9,0.2,1,1.4,1,2.3c0,4.5-0.1,9.1,0,13.6c0.4,11.5,0.3,23,0.4,34.5
				c0,0.9,0.1,1.8,0.3,2.6C144.2,193.5,140.7,195.9,137.5,198.8z"/>
			<path fill="#34073E" d="M127.4,117.6c1.8,0.1,3.5-0.3,5.3,0.3c0.5,0.2,0.9,0.2,0.7,1c-1.3,4.9-0.2,9.5,1.6,14
				c0.2,0.5,0.9,1.1-0.1,1.5c-4.4,1.8-8.9,3.4-13.7,2.7c-4.4-0.6-6.1-3.9-6.9-8c-0.3-1.8-0.4-3.6-0.4-5.5c0-2.6,1.4-4.3,4-5
				C121,117.9,124.2,117.4,127.4,117.6z"/>
			<path fill="#34073E" d="M134,123.5c0-5.5,0.6-6.1,5.6-7.1c0.2,0,0.5-0.2,0.7-0.2c3.4-0.6,6.9-0.8,10.3-0.1
				c1.2,0.2,2.3,0.8,3.2,1.5c0.9,0.7,1.3,1.6,0.6,2.8c-1.9,3.1-1.8,6.5-0.9,9.9c0.3,1.2,0.1,1.8-1,2.4c-4.8,2.4-9.8,2.5-14.9,1.4
				c-0.8-0.2-1.3-0.7-1.6-1.4C134.5,129.6,133.8,126.5,134,123.5z"/>
			<path fill="#34073E" d="M182.5,118.2c4.3-0.4,8.3-0.7,12.2,0.3c2.5,0.6,3.2,2.7,3.4,4.9c0.2,2.8,0.2,5.7-0.5,8.4
				c-0.7,2.8-2.5,4-5.6,3.9c-2.5-0.1-4.9-1-7.2-1.9c-0.7-0.3-1.2-0.7-0.7-1.6C186.7,127.5,185.6,123,182.5,118.2z"/>
			<path fill="#34073E" d="M117.7,137.2c-4,1.5-7.9,1.7-11.8,0.4c-1.4-0.5-2.2-1.6-2.6-3c-0.8-2.8-1-5.6-0.8-8.4
				c0.2-2.4,1.8-3.9,3.9-4.7c1.8-0.7,3.8-1,5.7-0.9c1,0,1.2,0.4,1,1.2c-0.8,2.9,0.1,5.7,0.4,8.6
				C113.9,133.1,115.6,135.2,117.7,137.2z"/>
			<path fill="#34073E" d="M202.4,137c-1.3,0.1-2.8-0.2-4.2-1.3c-0.5-0.3-0.9-0.6-0.5-1.3c1.8-4,1.7-8.3,1-12.5
				c-0.2-1.2,0.1-1.5,1.2-1.8c4.2-1.1,10.4,1.6,10.7,7.6c0.2,3.6-1.8,6.6-4.7,8.8C204.9,137.2,203.9,136.9,202.4,137z"/>
			<path fill="#34073E" d="M91.5,133.1c-0.5-4.9,4.2-10.3,9.2-9.9c1.2,0.1,1.5,0.3,1.2,1.6c-1.1,3.9-0.1,7.6,1.1,11.3
				c0.1,0.3,0.4,0.7,0.6,0.9c1.6,1.9,1.6,1.9-0.8,2.9c-3.8,1.5-7.2,1-9.6-1.6C91.8,137,91.5,135.9,91.5,133.1z"/>
			<path fill="#FEFEFE" d="M196.3,147c0,5.1-3.1,9-7,9.6c-1.2,0.2-1.8-0.1-2.1-1.4c-0.9-3.6-2.6-6.8-4.3-10
				c-0.5-0.9-0.4-1.4,0.6-1.8c2.5-1.2,4.9-2.6,6.9-4.5c0.7-0.7,1.2-0.4,1.8,0.1C195.1,141,196.2,144,196.3,147z"/>
			<path fill="#4F1A08" d="M200.3,205c0.4,4.7,0.8,9.1,1.2,13.4c0.2,2.4,0.1,2.5-2.2,2.5c-1.5,0-2.9-0.1-4.4,0
				c-1.5,0.1-2-0.7-2.1-1.9c-0.2-2.8,0.2-5.7-0.3-8.5c-0.2-1.3,1.1-1.2,1.9-1.3C196.9,208.7,198.9,207.6,200.3,205z"/>
			<path fill="#FDFDFD" d="M159.2,203.8c1.6-0.1,3.3,0.2,5,0.3c1,0.1,1.1,0.5,1,1.4c-0.5,3.8-3.1,5.6-7.6,5.1
				c-2.6-0.3-4.9-1.3-6.3-3.7c-0.9-1.5-0.7-2,1.1-2.4C154.5,204,156.8,203.8,159.2,203.8z"/>
			<path fill="#4E1A08" d="M186,213c-0.1,1.6-0.3,3.6-0.4,5.6c0,0.8-0.3,1-1.1,0.7c-0.6-0.2-1.2-0.3-1.8-0.5c-3.9-1-4.5-1.9-4-5.9
				c0.1-0.6,0.3-1.1,1-1.2c1.2-0.1,2.1-0.9,2.8-1.8c0.7-0.9,1.7-1.2,2.7-0.8c1.1,0.4,0.7,1.4,0.7,2.1C186,211.8,186,212.2,186,213z"
				/>
			<path fill="#4E1A08" d="M192.1,218.1c0,2.8,0,2.8-2.8,2.4c-1.7-0.3-2.8-0.8-2.5-2.9c0.3-2,0.1-4.2,0.1-6.2c0-1.4,0.5-2,1.9-1.8
				c0.1,0,0.3,0,0.4,0c2.7,0,2.8,0,2.7,2.6C191.6,214.1,192.2,216,192.1,218.1z"/>
			<path fill="#FCFCFC" d="M169.1,211.5c-0.9,0-1.8-0.2-2.6-0.6c-1.4-0.6-2.6-1.3-1.2-3c0.2-0.3,0.3-0.7,0.4-1.1
				c0.7-2.4,0.7-2.4,3.2-1.8c1.8,0.4,3.5,1,5.3,1.5c1.2,0.3,1.2,0.9,0.6,1.7C173.5,210.4,171.6,211.3,169.1,211.5z"/>
			<path fill="#4D1908" d="M178,214.4c0,2.9-0.1,2.9-2.4,1.8c-1.3-0.6-2.5-1.4-3.8-2.1c-1.4-0.7-0.9-1.4,0-2.1
				c0.9-0.6,5.3-0.5,6,0.3C178.3,213,177.9,213.9,178,214.4z"/>
			<path fill="#FAFAFA" d="M182.1,208.9c-1.7,2.4-3.5,2.7-7.4,1.6c0.1-0.9,0.9-1.3,1.1-2.1c0.2-0.9,0.7-1,1.6-0.7
				C178.9,208.1,180.4,208.4,182.1,208.9z"/>
			<path fill="#0C0B08" d="M171.7,141.3c-0.8,0.6-1.4-0.3-2.1-0.1c-0.4,0.7,0,1.4,0,2.2c0,4.9-3.8,9.4-8.4,10
				c-5.2,0.7-10-2.4-11.3-7.1c-1.4-5,1.1-10.1,5.7-12.1c1.1-0.5,2-0.5,3.1,0.3c3.6,2.5,7.5,4.4,11.6,5.9c0.4,0.2,0.8,0.3,1.2,0.5
				C171.6,140.9,171.6,141.1,171.7,141.3z"/>
			<path fill="#131106" d="M143.6,198.2c0,0.8-0.8,1.1-1.2,1.5c-2,1.9-4,3.8-5.7,6.1c-0.7,1-1.4,2.1-1.9,3.3c-1.5,4.2,0.5,7.7,5,8.3
				c1.3,0.2,2.6,0.1,4,0.1c0.4,0,0.9-0.1,0.9,0.4c0.1,0.5-0.4,0.6-0.7,0.6c-2.7,0.1-5.5,0.1-7.9-1.4c-2.6-1.6-3.4-5.5-1.9-8.8
				c1.9-4.1,5.2-7.1,8.5-10c0.1-0.1,0.3-0.1,0.5-0.2C143.4,198,143.5,198.1,143.6,198.2z"/>
			<path fill="#080201" d="M132.3,139.8c-1.9,20.5-2,40.9,0.1,61.4C129.5,196.7,129.5,147.3,132.3,139.8z"/>
			<path fill="#181818" d="M187.5,148.8c-0.6-0.1-0.8-0.5-0.8-1.1c0-0.7,0.4-1,1.1-1c0.8,0,1.1,0.5,1.1,1.2
				C188.7,148.5,188.2,148.8,187.5,148.8z"/>
			<path fill="#FEFEFE" d="M159.6,152.5c-4.2,0-8-3-8.9-6.9c-1-4.3,1.1-8.6,5-10.4c0.9-0.4,1.7-0.5,2.6,0.2c2.7,1.9,5.7,3.4,8.7,4.6
				c1,0.4,1.4,1,1.5,2.1C169.2,147.6,165.1,152.5,159.6,152.5z"/>
			<path fill="#141415" d="M158.1,144.9c0-0.6,0.3-1.1,1-1.1c0.7,0,1.1,0.3,1.2,0.9c0.1,0.8-0.3,1.2-1.1,1.2
				C158.5,146,158.2,145.5,158.1,144.9z"/>
		</g>
	</g>
</g>
<g id="Calque_3">
	<path fill="#F0F1F2" d="M146.3,10.4C73.8,10.4,15,69.2,15,141.7S73.8,273,146.3,273s131.3-58.8,131.3-131.3S218.8,10.4,146.3,10.4z
		 M146.3,262.7c-66.8,0-121-54.2-121-121s54.2-121,121-121s121,54.2,121,121S213.2,262.7,146.3,262.7z"/>
</g>
</svg>
