<?xml version="1.0" encoding="utf-8"?>
<!-- Generator: Adobe Illustrator 16.0.3, SVG Export Plug-In . SVG Version: 6.00 Build 0)  -->
<!DOCTYPE svg PUBLIC "-//W3C//DTD SVG 1.1//EN" "http://www.w3.org/Graphics/SVG/1.1/DTD/svg11.dtd">
<svg version="1.1" xmlns="http://www.w3.org/2000/svg" xmlns:xlink="http://www.w3.org/1999/xlink" x="0px" y="0px" width="453px"
	 height="453px" viewBox="0 0 453 453" enable-background="new 0 0 453 453" xml:space="preserve">
<g id="Layer_1" display="none">
	<g id="Layer_3" display="inline">
	</g>
	<g id="Layer_2">
		<circle display="inline" fill="#BDE18A" cx="226.758" cy="227.044" r="202.113"/>
		<path display="inline" fill="#FFFFFF" stroke="#000000" stroke-width="3" stroke-linecap="round" stroke-linejoin="round" d="
			M272.27,403.576l1.344,19.349c0,0,124.524-43.354,141.036-124.899l-61.458-4.961c0,0-39.178-19.274-58.219-20.502
			c9.028,16.496,19.729,41.422,19.729,41.422c-4.184,6.692-26.777,18.408-26.777,18.408l20.083,16.736
			C290.434,389.294,272.27,403.576,272.27,403.576z"/>
		<g id="Layer_4" display="inline">
			
				<circle fill="none" stroke="#000000" stroke-width="3" stroke-linecap="round" stroke-linejoin="round" stroke-miterlimit="10" cx="221.25" cy="226.898" r="203.08"/>
		</g>
		<g display="inline">
			<path fill="#FFFFFF" stroke="#000000" stroke-width="3" stroke-linecap="round" stroke-linejoin="round" d="M268.743,407.277
				c0.507,2.121,0,12.982,0,12.982s-55.493,25.139-123.493-2.861s-86.708-68.957-86.708-68.957
				c35.364-50.57,92.24-74.998,99.745-78.062v51.545l30.125,7.531l-11.715,15.062C176.697,344.52,210.168,394.726,268.743,407.277"
				/>
		</g>
		<path display="inline" fill="#FFFFFF" d="M173.805,264.539c-4.975,1.52-9.885,3.339-14.681,5.507c0,0-0.294,0.113-0.837,0.335
			v51.545l30.125,7.531l-11.715,15.062c0,0,33.471,50.206,92.046,62.759C224.169,371.77,181.646,281.705,173.805,264.539"/>
		<path display="inline" fill="none" stroke="#000000" stroke-width="3" stroke-linecap="round" stroke-linejoin="round" d="
			M173.805,264.539c-4.975,1.52-9.885,3.339-14.681,5.507c0,0-0.294,0.113-0.837,0.335v51.545l30.125,7.531l-11.715,15.062
			c0,0,33.471,50.206,92.046,62.759C224.169,371.77,181.646,281.705,173.805,264.539L173.805,264.539z"/>
		<path display="inline" fill="#FFFFFF" d="M318.949,312.722c0,0-20.659-42.344-23.232-43.147
			c-4.354,51.599-26.974,137.704-26.974,137.704s25.938-19.245,43.512-59.41l-20.083-16.736
			C292.172,331.131,314.766,319.415,318.949,312.722"/>
		<path display="inline" fill="none" stroke="#000000" stroke-width="3" stroke-linecap="round" stroke-linejoin="round" d="
			M318.949,312.722c0,0-11.494-24.063-20.523-40.562c-0.615-0.04-1.165-1.782-3.738-2.588
			c-4.354,51.6-25.943,137.705-25.943,137.705s25.938-19.245,43.512-59.41l-20.083-16.736
			C292.172,331.131,314.766,319.415,318.949,312.722L318.949,312.722z M344.891,322.763c0,0,17.737,35.802,17.737,55.887"/>
		<path display="inline" fill="#D0BEDD" d="M289.471,313.935c-6.169,13.771-11.767,13.78-11.767,13.78l-13.556-26.107l-13.277,3.543
			c0.143-0.017,0.227-0.027,0.227-0.027l-16.568,30.124c-13.926-5.253-25.253-11.966-34.441-19.11
			c14.915,26.627,34.516,57.464,55.316,78.909l13.34,12.232l3.734-14.809C276.82,374.824,284.078,343.948,289.471,313.935"/>
		<path display="inline" fill="none" stroke="#000000" stroke-width="3" stroke-linecap="round" stroke-linejoin="round" d="
			M289.471,313.935c-6.169,13.771-11.767,13.78-11.767,13.78l-13.556-26.107l-13.277,3.543c0.143-0.017,0.227-0.027,0.227-0.027
			l-16.568,30.124c-13.926-5.253-25.253-11.966-34.441-19.11c14.915,26.627,34.516,57.464,55.316,78.909l13.34,12.232l3.734-14.809
			C276.82,374.824,284.078,343.948,289.471,313.935L289.471,313.935z"/>
		<polyline display="inline" fill="#18965F" points="237.039,307.634 253.605,334.242 266.158,334.744 278.205,299.098 
			237.039,307.634 		"/>
		
			<polygon display="inline" fill="none" stroke="#000000" stroke-width="3" stroke-linecap="round" stroke-linejoin="round" points="
			237.039,307.634 253.605,334.242 266.158,334.744 278.205,299.098 		"/>
		<path display="inline" fill="#D0BEDD" stroke="#000000" stroke-width="3" stroke-linecap="round" stroke-linejoin="round" d="
			M174.418,252.615c9.559,37.121,51.558,48.65,77.227,51.99l-17.115,30.641c-57.233-21.589-70.788-67.775-70.788-67.775l3.176-5.434
			L174.418,252.615"/>
		<path display="inline" fill="none" stroke="#000000" stroke-width="3" stroke-linecap="round" stroke-linejoin="round" d="
			M264.148,301.607l13.556,26.106c13.319,0,18.622-26.346,20.879-42.565c0,0-4.146-8.332-5.146-7.062
			C287.038,286.21,276.884,298.07,264.148,301.607L264.148,301.607z"/>
		<path display="inline" fill="#18965F" d="M266.201,334.615l-0.043,0.129l-11.126-0.445l-10.409,48.714
			c7.836,9.397,15.941,17.752,24.12,24.266c0,0,3.304-12.583,7.629-31.007L266.201,334.615"/>
		<path display="inline" fill="none" stroke="#000000" stroke-width="3" stroke-linecap="round" stroke-linejoin="round" d="
			M266.201,334.615l-0.043,0.129l-11.126-0.445l-10.409,48.714c7.836,9.397,15.941,17.752,24.12,24.266
			c0,0,3.304-12.583,7.629-31.007L266.201,334.615L266.201,334.615z"/>
		<path display="inline" fill="#E6E6E6" d="M179.373,245.379c0,0-30.623-8.031-21.086,18.577c0,0,22.594,55.727,47.695,83.841
			c21.34,23.9,54.723,51.711,54.723,51.711l2.766,28.731l10.545-0.501l-1.262-32.247c0,0,44.032-91.585,22.443-120.704
			l-10.396,8.246c0,0,28.616,5.02-20.081,108.44l-51.71-48.696c0,0-31.629-44.18-41.67-70.789
			c-10.043-26.609,10.041-18.074,10.041-18.074L179.373,245.379"/>
		<path display="inline" fill="none" stroke="#000000" stroke-width="3" stroke-linecap="round" stroke-linejoin="round" d="
			M178.299,245.379c0,0-30.623-8.031-21.086,18.577c0,0,22.594,55.727,47.695,83.841c21.34,23.9,54.723,51.711,54.723,51.711
			l4.049,26.029l-0.209,2.452l10.545-0.501l-2.336-31.997c0,0,44.065-91.255,22.478-120.374l-11.312,6.344
			c0,0,29.501,6.592-19.196,110.014l-51.709-48.696c0,0-31.629-44.181-41.67-70.79c-10.043-26.608,10.041-18.073,10.041-18.073
			L178.299,245.379L178.299,245.379z"/>
		<path display="inline" fill="#CB904B" stroke="#000000" stroke-width="3" stroke-linecap="round" stroke-linejoin="round" d="
			M259.326,113.912c0,0,45.414,11.571,44.025,55.972c0,0,3.903,4.026-1.519,7.193l-7.822,11.068c0,0,15.265,10.406,4.857,22.201
			c0,0-2.082,15.956,4.163,27.054c0,0,11.101,8.326-1.389,12.488c0,0-36.074,7.631-64.519,1.389c0,0-21.507-6.244-23.588,9.714
			c0,0-2.082,15.954,43.013,16.647c0,0,31.312-8.73,35.381-11.793c4.069-3.062,8.86,4.104,5.549,6.938l-9.711,6.244
			c3.012,0.746,2.855,8.06-2.082,8.324c0,0-13.604,18.547-42.318,15.957c0,0-76.313-6.244-65.214-61.051
			c0,0,5.552-9.713,8.326-11.101c0,0-21.507,1.388-13.181-18.731c7.651-18.491,18.037-5.55,22.2-0.694l-2.081-6.245l-1.388-9.711
			l-9.02-24.976l11.1-32.607l21.508-20.119L259.326,113.912"/>
		<g display="inline">
			<path fill="none" stroke="#000000" stroke-width="3" stroke-linecap="round" stroke-linejoin="round" d="M297.46,272.702
				l-9.712,6.243c3.346,0.828,2.134,9.078-2.061,8.312c0,0-13.938,19.142-42.319,15.957c0,0-76.313-6.244-65.214-61.051
				c0,0,5.552-9.713,8.326-11.102c0,0-21.507,1.389-13.181-18.73c7.651-18.491,18.037-5.55,22.2-0.694l-2.081-6.245l-1.388-9.711
				l-9.02-24.976l11.1-32.607l21.508-20.119l43.707-4.163l0,0c0,0,44.813,11.017,43.425,55.417c0,0,4.828,3.664-0.417,7.247
				l-8.321,11.568c0,0,15.264,10.406,4.856,22.201c0,0-2.082,15.956,4.163,27.055c0,0,11.101,8.325-1.389,12.488
				c0,0-36.074,7.631-64.519,1.389c0,0-21.507-6.244-23.588,9.713c0,0,25.319,9.354,70.415,10.047l7.979-5.19 M229.494,158.219
				c0,0,30.523-9.713,54.111,0.694 M232.963,146.425c0,0,32.607-2.082,41.624-0.694 M239.898,134.631c0,0,14.569-1.388,25.67,0
				 M179.576,230.297c0.111,3.352,0.596,7.324,2.742,8.398c1.799,0.897,3.016-4.033,3.647-7.615
				C184.895,231.1,182.292,231.045,179.576,230.297L179.576,230.297z"/>
			<path fill="#333333" d="M257.245,104.89c-2.082-8.928-18.731,0-18.731,0c-16.649-8.928-27.058,4.072-27.058,4.072
				c-13.183-4.856-22.2,14.569-22.2,14.569c-8.325-2.775-11.794,9.713-11.794,9.713c-9.712,0.694-4.856,17.344-4.856,17.344
				c-11.101,2.082-2.081,15.262-2.081,15.262c-10.405,5.55,1.388,23.588,1.388,23.588c-4.295,5.904,0.547,15.541,2.957,19.603
				c5.744-10.412,12.592-5.911,17.207-1.227c2.031-0.366,3.977-0.755,4.811-1.033c5.551-4.162-6.243-16.649-6.243-16.649
				c5.55-3.469,0.693-29.138,0.693-29.138c6.244-2.775,2.774-18.732,2.774-18.732s-8.324,1.388-0.692-2.081
				c7.631-3.468,18.731-14.569,18.731-14.569c9.713,0.693,15.957-6.937,18.037-6.937c13.182,4.163,20.119-2.775,20.119-2.775
				c13.875,4.857,15.262-6.244,15.262-6.244C266.261,106.188,257.245,104.89,257.245,104.89"/>
			<path fill="none" stroke="#000000" stroke-width="3" stroke-linecap="round" stroke-linejoin="round" d="M257.245,104.89
				c-2.082-8.928-18.731,0-18.731,0c-16.649-8.928-27.058,4.072-27.058,4.072c-13.183-4.856-22.2,14.569-22.2,14.569
				c-8.325-2.775-11.794,9.713-11.794,9.713c-9.712,0.694-4.856,17.344-4.856,17.344c-11.101,2.082-2.081,15.262-2.081,15.262
				c-10.405,5.55,1.388,23.588,1.388,23.588c-4.295,5.904,0.547,15.541,2.957,19.603c5.744-10.412,12.592-5.911,17.207-1.227
				c2.031-0.366,3.977-0.755,4.811-1.033c5.551-4.162-6.243-16.649-6.243-16.649c5.55-3.469,0.693-29.138,0.693-29.138
				c6.244-2.775,2.774-18.732,2.774-18.732s-8.324,1.388-0.692-2.081c7.631-3.468,18.731-14.569,18.731-14.569
				c9.713,0.693,15.957-6.937,18.037-6.937c13.182,4.163,20.119-2.775,20.119-2.775c13.875,4.857,15.262-6.244,15.262-6.244
				C266.261,106.188,257.245,104.89,257.245,104.89L257.245,104.89z"/>
		</g>
		<path display="inline" fill="#FFFFFF" d="M237.126,251.184c0,0-3.783-1.094-8.326-1.192v24.1
			c5.705,1.706,13.539,2.994,24.282,3.366v-24.121C247.686,252.986,242.279,252.314,237.126,251.184"/>
		<path display="inline" fill="none" stroke="#000000" stroke-width="3" stroke-linecap="round" stroke-linejoin="round" d="
			M237.126,251.184c0,0-3.783-1.094-8.326-1.192v24.1c5.705,1.706,13.539,2.994,24.282,3.366v-24.121
			C247.686,252.986,242.279,252.314,237.126,251.184L237.126,251.184z"/>
		<path display="inline" fill="#FFFFFF" d="M213.538,260.896c0,0-1.081,8.308,15.262,13.192v-24.101
			C222.505,249.854,214.747,251.628,213.538,260.896"/>
		<path display="inline" fill="none" stroke="#000000" stroke-width="3" stroke-linecap="round" stroke-linejoin="round" d="
			M213.538,260.896c0,0-1.081,8.308,15.262,13.192v-24.101C222.505,249.854,214.747,251.628,213.538,260.896L213.538,260.896z"/>
		<path display="inline" fill="#FFFFFF" d="M275.281,252.703v21.02c6.076-1.769,16.92-8.545,17.343-8.604v-14.276
			C288.053,251.516,282.033,252.25,275.281,252.703"/>
		<path display="inline" fill="none" stroke="#000000" stroke-width="3" stroke-linecap="round" stroke-linejoin="round" d="
			M275.281,253.203v21.02c6.076-1.769,12.352-4.44,16.65-8.471l0.691-14.41C288.053,252.016,282.033,252.75,275.281,253.203
			L275.281,253.203z"/>
		<path display="inline" fill="#FFFFFF" d="M253.082,253.335v24.121c1.126,0.039,2.277,0.071,3.469,0.089
			c0,0,9.116-0.523,18.73-3.322v-21.02C268.396,253.665,260.752,253.829,253.082,253.335"/>
		<path display="inline" fill="none" stroke="#000000" stroke-width="3" stroke-linecap="round" stroke-linejoin="round" d="
			M253.082,253.335v24.121c1.126,0.039,2.277,0.071,3.469,0.089c0,0,9.116-0.523,18.73-3.322v-21.02
			C268.396,253.665,260.752,253.829,253.082,253.335L253.082,253.335z M217.7,240.775c0,0-15.263,4.162-18.038,14.568
			c-2.775,10.407,9.713,15.957,9.713,15.957 M184.399,211.638c0,0,6.938,2.082,5.55,6.938c0,0-13.182-6.244-4.856,3.469
			 M253.773,222.045c0,0-6.938,11.794,6.938,12.488c0,0,27.921,3.482,29.138-11.102c0.692-8.324-10.406-15.262-10.406-15.262
			s-25.67-20.119,0.692-29.832"/>
		<path display="inline" fill="#FFFFFF" d="M259.669,190.047c1.196,6.597-7.461,13.692-19.336,15.846
			c-11.876,2.153-22.472-1.449-23.669-8.045c-1.196-6.598,7.459-13.693,19.336-15.847
			C247.875,179.847,258.473,183.449,259.669,190.047"/>
		<path display="inline" fill="none" stroke="#000000" stroke-width="3" stroke-linecap="round" stroke-linejoin="round" d="
			M259.669,190.047c1.196,6.597-7.461,13.692-19.336,15.846c-11.876,2.153-22.472-1.449-23.669-8.045
			c-1.196-6.598,7.459-13.693,19.336-15.847C247.875,179.847,258.473,183.449,259.669,190.047L259.669,190.047z"/>
		<path display="inline" fill="#FFFFFF" d="M268.239,189.117c0.048,6.496,8.505,12.11,18.891,12.539
			c10.39,0.428,18.771-4.49,18.726-10.986c-0.047-6.496-8.506-12.11-18.895-12.539C276.576,177.702,268.191,182.62,268.239,189.117"
			/>
		<path display="inline" fill="none" stroke="#000000" stroke-width="3" stroke-linecap="round" stroke-linejoin="round" d="
			M268.239,189.117c0.048,6.496,8.505,12.11,18.891,12.539c10.39,0.428,18.771-4.49,18.726-10.986
			c-0.047-6.496-8.506-12.11-18.895-12.539C276.576,177.702,268.191,182.62,268.239,189.117L268.239,189.117z"/>
		<path display="inline" d="M238.166,192.04c0,1.821-1.475,3.296-3.297,3.296c-1.819,0-3.295-1.476-3.295-3.296
			c0-1.82,1.476-3.295,3.295-3.295C236.691,188.744,238.166,190.22,238.166,192.04"/>
		<path display="inline" d="M290.344,189.894c0,1.821-1.476,3.296-3.296,3.296c-1.821,0-3.296-1.475-3.296-3.296
			c0-1.82,1.475-3.295,3.296-3.295C288.868,186.599,290.344,188.074,290.344,189.894"/>
		<path display="inline" fill="#333333" d="M252.105,174.338c0.477,1.657-0.48,3.386-2.137,3.863l-28.146,6.273
			c-1.658,0.478-3.387-0.479-3.864-2.136c-0.476-1.657,0.479-3.387,2.137-3.864l28.146-6.273
			C249.898,171.725,251.63,172.681,252.105,174.338"/>
		<path display="inline" fill="none" stroke="#000000" stroke-width="3" stroke-linecap="round" stroke-linejoin="round" d="
			M252.105,174.338c0.477,1.657-0.48,3.386-2.137,3.863l-28.146,6.273c-1.658,0.478-3.387-0.479-3.864-2.136
			c-0.476-1.657,0.479-3.387,2.137-3.864l28.146-6.273C249.898,171.725,251.63,172.681,252.105,174.338L252.105,174.338z"/>
		<path display="inline" fill="#333333" d="M307.227,178.456c-0.235,1.708-1.812,2.901-3.521,2.666l-28.272-5.671
			c-1.709-0.235-2.902-1.81-2.666-3.518c0.235-1.708,1.81-2.903,3.52-2.667l28.271,5.671
			C306.268,175.172,307.461,176.748,307.227,178.456"/>
		<path display="inline" fill="none" stroke="#000000" stroke-width="3" stroke-linecap="round" stroke-linejoin="round" d="
			M307.227,178.456c-0.235,1.708-1.812,2.901-3.521,2.666l-28.272-5.671c-1.709-0.235-2.902-1.81-2.666-3.518
			c0.235-1.708,1.81-2.903,3.52-2.667l28.271,5.671C306.268,175.172,307.461,176.748,307.227,178.456L307.227,178.456z"/>
		<path display="inline" fill="#333333" d="M179.576,230.297c0.111,3.352,0.596,7.324,2.742,8.398
			c1.799,0.897,3.016-4.033,3.647-7.615C184.895,231.1,182.292,231.045,179.576,230.297"/>
		<path display="inline" fill="none" stroke="#000000" stroke-width="3" stroke-linecap="round" stroke-linejoin="round" d="
			M179.576,230.297c0.111,3.352,0.596,7.324,2.742,8.398c1.799,0.897,3.529-3.956,4.162-7.538
			C185.408,231.177,182.292,231.045,179.576,230.297L179.576,230.297z"/>
		<g display="inline">
			<path fill="#F0F1F2" d="M223.25,437.398c-32.219,0-62.432-6.399-89.8-19.021c-25.146-11.596-47.418-28.174-66.196-49.271
				C32.298,329.827,12.25,277.812,12.25,226.398c0-56.363,21.947-109.351,61.798-149.202s92.839-61.798,149.202-61.798
				c56.363,0,109.352,21.947,149.202,61.798s61.798,92.839,61.798,149.202c0,78.176-42.898,149.583-111.958,186.354
				c-4.11,2.202-8.353,4.281-12.606,6.184c-0.494,0.232-0.973,0.441-1.449,0.65l-0.846,0.371
				C281.016,431.442,266.002,437.398,223.25,437.398z M222.758,28.011c-109.195,0-198.033,88.837-198.033,198.033
				c0,109.196,88.838,198.033,198.033,198.033c109.196,0,198.033-88.837,198.033-198.033
				C420.791,116.848,331.954,28.011,222.758,28.011z"/>
		</g>
		<path display="inline" fill="none" d="M227.25,17.898c28.285,0,55.723,5.539,81.549,16.461
			c24.947,10.551,47.354,25.657,66.594,44.897c19.239,19.24,34.347,41.646,44.896,66.592c10.923,25.827,16.461,53.264,16.461,81.548
			c0,38.718-10.643,76.535-30.777,109.367c-19.574,31.921-47.371,58.085-80.393,75.667c-4.076,2.185-8.283,4.247-12.507,6.134
			l-0.03,0.014l-0.031,0.016c-0.451,0.214-0.914,0.415-1.378,0.618c-0.284,0.125-0.571,0.25-0.825,0.363
			c-26.399,11.495-54.513,17.323-83.559,17.323c-32,0-62.002-6.354-89.172-18.884c-24.958-11.509-47.064-27.965-65.704-48.907
			c-17.49-19.652-31.181-42.342-40.69-67.436c-9.115-24.051-13.934-49.734-13.934-74.273c0-28.285,5.539-55.723,16.461-81.549
			c10.551-24.947,25.657-47.352,44.896-66.592c19.24-19.24,41.646-34.346,66.593-44.897
			C171.528,23.438,198.965,17.898,227.25,17.898 M226.758,426.577c26.938,0,53.067-5.275,77.669-15.683
			c23.761-10.05,45.101-24.438,63.423-42.761c18.323-18.323,32.71-39.662,42.762-63.424c10.403-24.603,15.682-50.731,15.682-77.668
			c0-26.936-5.276-53.066-15.682-77.667c-10.052-23.761-24.438-45.099-42.762-63.423c-18.322-18.324-39.662-32.71-63.422-42.76
			c-24.603-10.406-50.732-15.682-77.67-15.682c-26.936,0-53.066,5.276-77.668,15.682c-23.761,10.05-45.099,24.437-63.423,42.76
			c-18.324,18.323-32.71,39.662-42.76,63.423c-10.406,24.601-15.683,50.732-15.683,77.667c0,26.937,5.276,53.065,15.683,77.668
			c10.05,23.762,24.437,45.101,42.76,63.424c18.324,18.323,39.662,32.711,63.423,42.761
			C173.691,421.301,199.822,426.577,226.758,426.577 M227.25,14.898c-117.367,0-212.5,95.133-212.5,212.5
			c0,99.875,76.854,212.5,212.5,212.5c30.124,0,58.791-6.268,84.755-17.571c0.769-0.344,1.544-0.668,2.292-1.021
			c4.318-1.929,8.549-4.004,12.7-6.229c67.085-35.722,112.753-106.366,112.753-187.679C439.75,110.031,344.617,14.898,227.25,14.898
			L227.25,14.898z M226.758,423.577L226.758,423.577"/>
	</g>
	<g id="Layer_4_1_">
		<circle display="inline" fill="#F23838" cx="223.75" cy="223.516" r="202.113"/>
		<g id="Layer_4_2_" display="inline">
			
				<circle fill="none" stroke="#000000" stroke-width="3" stroke-linecap="round" stroke-linejoin="round" stroke-miterlimit="10" cx="221.75" cy="223.37" r="203.08"/>
		</g>
		<path display="inline" fill="#FFD90F" stroke="#000000" stroke-width="3" d="M226.632,425.794
			c-2.14-8.59-5.05-18.952-6.786-19.675l-4.817,22.856l-62.802-14.739l20.423-28.847c0,0-24.473-11.235-43.202-5.242l0.293,24.311
			l-27.118-16.606c-0.678-28.634,11.649-33.922,11.649-33.922c37.523-6.254,72.963,15.288,72.963,15.288l0.694-3.476
			c-12.508-9.729-7.644-27.1-7.644-27.1c-12.508-4.864-6.254-10.424-6.254-10.424c-25.711-3.476-24.321-9.729-24.321-9.729
			c-0.694-3.475,7.644-4.863,7.644-4.863c9.314,0,11.967-7.761,12.428-9.415c-7.165,0.806-15.207,0.381-15.207,0.381
			c5.559-16.678,19.457-31.27,19.457-31.27c-8.338-1.39-2.779-9.033-2.779-9.033l-2.085-10.423
			c-2.085-6.254,6.254-9.729,6.254-9.729c-2.392-3.416-1.422-8.006,0.181-11.793c4.064-0.6,6.769-2.396,6.769-2.396l2.942-2.658
			c-2.678,5.712,5.257,13.316,5.257,13.316c5.739-0.819,4.101-9.02,4.101-9.02c9.839-2.46,10.658-11.479,10.658-11.479
			c10.637,2.239,12.098-6.221,11.957-11.816c1.575,5.099,6.083,8.537,6.083,8.537c-4.101,4.919,4.92,12.299,4.92,12.299
			c-5.739,4.1,3.28,11.479,3.28,11.479c-6.562,3.281,4.1,9.841,4.1,9.841c5.739,0,5.739-10.66,5.739-10.66
			c5.739-2.459,6.741-5.356,6.741-5.356c0,4.92,8.838,7.816,8.838,7.816c-1.91,1.592-1.84,4.79-1.043,8.107l-19.364,51.435
			c4.552,0.603,10.276,3.354,7.634,13.922c0,0-3.216,9.64-12.469,5.403l-0.038,0.154l-9.032,38.914
			c-8.34,18.763,3.473,18.763,3.473,18.763c11.115,1.961,16.08,21.764,24.152,45.514c0.508,1.491,1.026,2.998,1.561,4.517"/>
		<g display="inline">
			<path fill="#CC0000" d="M159.411,147.133c-6.56-3.28-6.56-13.119-6.56-13.119c-11.479,2.46-12.3-6.56-12.3-6.56
				c-9.02,1.64-13.119-7.38-13.119-7.38c-1.64,2.46-14.759,0-13.12-5.74c1.641-5.74,13.939-7.379,13.939-7.379
				c5.74-6.56,15.58-1.64,15.58-1.64c6.56-6.56,19.679,0.82,19.679,0.82c5.739-8.199,17.22-0.82,17.22-0.82
				c9.839-2.46,15.578,4.92,15.578,4.92c7.381-1.64,9.02,9.02,9.02,9.02c4.101-1.64,7.381,5.74,7.381,5.74
				s-9.02-14.759,7.379-16.399c0,0,1.641-14.759,13.939-12.299c0,0,9.02-12.299,18.858-9.839c0,0,11.479-11.479,18.039-5.74
				c0,0,10.66-10.66,17.22-4.1c6.561,6.56-7.379,9.84-7.379,9.84s3.278,12.299-9.021,13.939c0,0,1.64,9.839-6.56,15.579
				c0,0,4.1,7.379-4.101,11.479c0,0,6.164,2.547,1.64,9.839c0,0,5.739-13.119,11.479-8.2c0,0,11.479-9.839,17.219-1.64
				c0,0,12.3-11.479,19.681-1.64c0,0,13.119-6.56,19.679,4.1c0,0,9.02-4.92,12.299,4.1c0,0,11.479,1.64,10.66,8.2
				c0,0,9.02,5.74,4.92,9.839c-4.101,4.099-10.66-2.46-10.66-2.46s-9.839,6.56-15.579,0c0,0-4.92,8.2-16.398,4.92
				c0,0-2.459,6.56-8.199,9.02c0,0,17.219-8.2,19.679,8.2c0,0,13.12,1.64,13.12,10.66c0,0,11.479,2.46,9.839,9.839
				c0,0,8.2,8.2,5.74,14.76c0,0,9.839,7.38,1.64,14.759c0,0-8.199,0-8.199-6.56c0,0-12.3-0.819-13.938-9.02
				c0,0-13.119,4.92-15.579-4.1c0,0,1.641,2.46,0,5.74c0,0,10.659,9.839,5.738,18.858c0,0,9.021,9.021,0,17.22
				c0,0,9.841,6.561,1.641,14.76c0,0,5.74,14.76-4.1,18.039c0,0-6.561-4.101-4.1-9.021c0,0-10.66-4.101-5.74-9.839
				c0,0-13.938-5.74-8.199-12.3c0,0-11.479-1.64-10.659-7.38c0,0,1.64,4.92-0.82,5.74c0,0-1.64,13.118-7.38,17.219
				c0,0,3.28,10.658-3.279,14.76c0,0,2.461,10.658-10.658,14.759c0,0,1.64,11.479-5.74,12.3c-7.381,0.819-3.279-13.119-3.279-13.119
				s-6.561-6.561-0.82-12.3c0,0-9.84-12.3-2.459-16.399c0,0-8.199-14.758-3.281-18.858c0,0-8.838-2.896-8.838-7.815
				c0,0-1,2.896-6.74,5.355c0,0,0,10.66-5.739,10.66c0,0-10.66-6.561-4.101-9.84c0,0-9.02-7.381-3.279-11.479
				c0,0-9.021-7.38-4.92-12.299c0,0-7.351-5.605-6.56-13.12c0,0,4.1,19.68-11.48,16.399c0,0-0.819,9.02-10.658,11.479
				c0,0,1.639,8.199-4.101,9.021c0,0-7.935-7.605-5.257-13.317l-2.942,2.658c0,0-4.92,3.278-11.479,2.46c0,0-0.82,6.561-14.76,5.738
				c0,0-2.459,10.66-9.84,10.66c0,0-3.279,6.561-9.839,7.379c0,0-4.92,13.939-10.659,10.66c-5.74-3.279,0.82-13.119,0.82-13.119
				s-4.101-12.299,3.279-15.58c0,0-1.641-14.758,7.379-15.578c0,0-1.639-10.659,6.561-13.119c0,0-1.641-6.56,1.64-9.02
				c0,0-6.56,0.819-12.3-3.28c0,0-12.299,13.119-21.318,5.74c0,0-7.38,14.759-17.219,12.299c0,0-6.561,9.02-13.939,4.92
				c-7.38-4.1,6.559-16.399,6.559-16.399s-4.919-12.299,7.381-13.939c0,0,1.639-15.579,11.479-14.759c0,0,4.92-14.759,21.319-14.759
				c0,0,3.28-12.299,19.679-9.02C147.111,151.233,149.571,144.673,159.411,147.133"/>
			<path fill="none" stroke="#000000" stroke-width="3" stroke-linecap="round" stroke-linejoin="round" d="M159.411,147.133
				c-6.56-3.28-6.56-13.119-6.56-13.119c-11.479,2.46-12.3-6.56-12.3-6.56c-9.02,1.64-13.119-7.38-13.119-7.38
				c-1.64,2.46-14.759,0-13.12-5.74c1.641-5.74,13.939-7.379,13.939-7.379c5.74-6.56,15.58-1.64,15.58-1.64
				c6.56-6.56,19.679,0.82,19.679,0.82c5.739-8.199,17.22-0.82,17.22-0.82c9.839-2.46,15.578,4.92,15.578,4.92
				c7.381-1.64,9.02,9.02,9.02,9.02c4.101-1.64,7.381,5.74,7.381,5.74s-9.02-14.759,7.379-16.399c0,0,1.641-14.759,13.939-12.299
				c0,0,9.02-12.299,18.858-9.839c0,0,11.479-11.479,18.039-5.74c0,0,10.66-10.66,17.22-4.1c6.561,6.56-7.379,9.84-7.379,9.84
				s3.278,12.299-9.021,13.939c0,0,1.64,9.839-6.56,15.579c0,0,4.1,7.379-4.101,11.479c0,0,6.164,2.547,1.64,9.839
				c0,0,5.739-13.119,11.479-8.2c0,0,11.479-9.839,17.219-1.64c0,0,12.3-11.479,19.681-1.64c0,0,13.119-6.56,19.679,4.1
				c0,0,9.02-4.92,12.299,4.1c0,0,11.479,1.64,10.66,8.2c0,0,9.02,5.74,4.92,9.839c-4.101,4.099-10.66-2.46-10.66-2.46
				s-9.839,6.56-15.579,0c0,0-4.92,8.2-16.398,4.92c0,0-2.459,6.56-8.199,9.02c0,0,17.219-8.2,19.679,8.2
				c0,0,13.12,1.64,13.12,10.66c0,0,11.479,2.46,9.839,9.839c0,0,8.2,8.2,5.74,14.76c0,0,9.839,7.38,1.64,14.759
				c0,0-8.199,0-8.199-6.56c0,0-12.3-0.819-13.938-9.02c0,0-13.119,4.92-15.579-4.1c0,0,1.641,2.46,0,5.74
				c0,0,10.659,9.839,5.738,18.858c0,0,9.021,9.021,0,17.22c0,0,9.841,6.561,1.641,14.76c0,0,5.74,14.76-4.1,18.039
				c0,0-6.561-4.101-4.1-9.021c0,0-10.66-4.101-5.74-9.839c0,0-13.938-5.74-8.199-12.3c0,0-11.479-1.64-10.659-7.38
				c0,0,1.64,4.92-0.82,5.74c0,0-1.64,13.118-7.38,17.219c0,0,3.28,10.658-3.279,14.76c0,0,2.461,10.658-10.658,14.759
				c0,0,1.64,11.479-5.74,12.3c-7.381,0.819-3.279-13.119-3.279-13.119s-6.561-6.561-0.82-12.3c0,0-9.84-12.3-2.459-16.399
				c0,0-8.199-14.758-3.281-18.858c0,0-8.838-2.896-8.838-7.815c0,0-1,2.896-6.74,5.355c0,0,0,10.66-5.739,10.66
				c0,0-10.66-6.561-4.101-9.84c0,0-9.02-7.381-3.279-11.479c0,0-9.021-7.38-4.92-12.299c0,0-7.351-5.605-6.56-13.12
				c0,0,4.1,19.68-11.48,16.399c0,0-0.819,9.02-10.658,11.479c0,0,1.639,8.199-4.101,9.021c0,0-7.935-7.605-5.257-13.317
				l-2.942,2.658c0,0-4.92,3.278-11.479,2.46c0,0-0.82,6.561-14.76,5.738c0,0-2.459,10.66-9.84,10.66c0,0-3.279,6.561-9.839,7.379
				c0,0-4.92,13.939-10.659,10.66c-5.74-3.279,0.82-13.119,0.82-13.119s-4.101-12.299,3.279-15.58c0,0-1.641-14.758,7.379-15.578
				c0,0-1.639-10.659,6.561-13.119c0,0-1.641-6.56,1.64-9.02c0,0-6.56,0.819-12.3-3.28c0,0-12.299,13.119-21.318,5.74
				c0,0-7.38,14.759-17.219,12.299c0,0-6.561,9.02-13.939,4.92c-7.38-4.1,6.559-16.399,6.559-16.399s-4.919-12.299,7.381-13.939
				c0,0,1.639-15.579,11.479-14.759c0,0,4.92-14.759,21.319-14.759c0,0,3.28-12.299,19.679-9.02
				C147.111,151.233,149.571,144.673,159.411,147.133L159.411,147.133z M173.351,143.033c0,0-9.84-1.64-10.659,5.74l-3.28-1.64
				 M161.051,184.031c0,0-9.02,1.64-6.56,9.84c0,0-10.659,2.46-9.02,6.56 M183.189,193.871c0,0-4.92,6.56-0.819,10.659
				c0,0-2.46,9.84,3.28,12.3c0,0-1.978,6.36-0.338,10.461 M256.986,202.891c0,0,0.82,8.199-5.739,13.939
				c0,0,1.64,8.199-4.101,10.659c0,0,2.642,3.661,1.002,6.942 M285.686,203.71c0,0,4.92,4.101,1.641,9.84
				c0,0,11.479,4.1,6.561,15.579c0,0,4.92,3.28,0.819,9.02 M297.165,184.031c0,0,12.299-1.64,11.479,7.38
				c0,0,11.479,4.92,11.479,10.659 M196.268,275.409c0,0,7.643,11.116,18.762,9.727 M230.316,308.067c0,0,6.949-1.391,8.34,2.778
				c0,0-7.646-1.389-4.17,4.17 M190.708,251.087l-16.677,22.236 M174.031,328.22c0,0,26.901,4.71,37.324,1.234 M208.775,325.44
				c0,0,3.474,2.086,2.778,6.254 M231.706,301.814c0,0,16.678-2.78,12.507,13.896c0,0-4.168,12.508-16.676,2.778"/>
		</g>
		<path display="inline" fill="none" stroke="#000000" stroke-width="3" stroke-linecap="round" stroke-linejoin="round" d="
			M184.387,367.163c0,0-6.244,7.491,7.74,20.976c13.984,13.485,30.966-10.986,30.966-10.986"/>
		<path display="inline" fill="#F6E35F" d="M185.648,368.175c0,0-2.525-7.093-12.881,6.257
			C172.768,374.432,188.379,376.536,185.648,368.175"/>
		<path display="inline" fill="none" stroke="#000000" stroke-width="3" stroke-linecap="round" stroke-linejoin="round" d="
			M185.648,368.175c0,0-2.525-7.093-12.881,6.257C172.768,374.432,188.379,376.536,185.648,368.175L185.648,368.175z"/>
		<path display="inline" fill="#F6E35F" d="M189.319,375.472c0,2.688-2.179,4.865-4.865,4.865s-4.864-2.179-4.864-4.865
			c0-2.686,2.178-4.863,4.864-4.863S189.319,372.785,189.319,375.472"/>
		<path display="inline" fill="none" stroke="#000000" stroke-width="3" stroke-linecap="round" stroke-linejoin="round" d="
			M189.319,375.472c0,2.688-2.179,4.865-4.865,4.865s-4.864-2.179-4.864-4.865c0-2.686,2.178-4.863,4.864-4.863
			S189.319,372.785,189.319,375.472L189.319,375.472z"/>
		<path display="inline" fill="#F6E35F" d="M188.542,377.312c0,0-7.951-6.218-10.09,16.327
			C178.452,393.64,197.637,384.814,188.542,377.312"/>
		<path display="inline" fill="none" stroke="#000000" stroke-width="3" stroke-linecap="round" stroke-linejoin="round" d="
			M188.542,377.312c0,0-7.951-6.218-10.09,16.327C178.452,393.64,197.637,384.814,188.542,377.312L188.542,377.312z"/>
		<path display="inline" fill="#F6E35F" d="M194.244,384.572c0,0-3.544-4.431-6.203,0.295c-2.658,4.726-0.295,10.338,5.021,9.746
			C198.378,394.022,194.244,384.572,194.244,384.572"/>
		<path display="inline" fill="none" stroke="#000000" stroke-width="3" stroke-linecap="round" stroke-linejoin="round" d="
			M194.244,384.572c0,0-3.544-4.431-6.203,0.295c-2.658,4.726-0.295,10.338,5.021,9.746
			C198.378,394.022,194.244,384.572,194.244,384.572L194.244,384.572z"/>
		<path display="inline" fill="#F6E35F" d="M212.848,384.277c0,0-10.63,1.477,4.432,18.014
			C217.279,402.291,222.299,379.259,212.848,384.277"/>
		<path display="inline" fill="none" stroke="#000000" stroke-width="3" stroke-linecap="round" stroke-linejoin="round" d="
			M212.848,384.277c0,0-10.63,1.477,4.432,18.014C217.279,402.291,222.299,379.259,212.848,384.277L212.848,384.277z"/>
		<path display="inline" fill="#F6E35F" d="M210.164,390.062c0,2.303-1.866,4.17-4.168,4.17c-2.303,0-4.169-1.867-4.169-4.17
			s1.866-4.168,4.169-4.168C208.298,385.896,210.164,387.761,210.164,390.062"/>
		<path display="inline" fill="none" stroke="#000000" stroke-width="3" stroke-linecap="round" stroke-linejoin="round" d="
			M210.164,390.062c0,2.303-1.866,4.17-4.168,4.17c-2.303,0-4.169-1.867-4.169-4.17s1.866-4.168,4.169-4.168
			C208.298,385.896,210.164,387.761,210.164,390.062L210.164,390.062z"/>
		<path display="inline" fill="#F6E35F" d="M199.855,385.458c0,0-9.451-3.544-4.727,18.606
			C195.129,404.064,210.781,389.888,199.855,385.458"/>
		<path display="inline" fill="none" stroke="#000000" stroke-width="3" stroke-linecap="round" stroke-linejoin="round" d="
			M199.855,385.458c0,0-9.451-3.544-4.727,18.606C195.129,404.064,210.781,389.888,199.855,385.458L199.855,385.458z"/>
		<path display="inline" fill="#F6E35F" d="M221.283,374.776c0,0-6.949,5.559,1.391,6.947c8.338,1.392,3.473-5.559,3.473-5.559
			L221.283,374.776"/>
		<path display="inline" fill="none" stroke="#000000" stroke-width="3" stroke-linecap="round" stroke-linejoin="round" d="
			M221.283,374.776c0,0-6.949,5.559,1.391,6.947c8.338,1.392,3.473-5.559,3.473-5.559L221.283,374.776L221.283,374.776z
			 M199.047,251.782c0,0-9.033,20.151,10.422,25.71c0,0,11.814,4.169,19.458-15.286"/>
		<path display="inline" fill="#FFFFFF" d="M209.469,277.492c0,0,9.771,3.443,17.288-10.566
			c-7.644-7.468-22.427-9.923-29.126-10.669C196.193,262.523,195.824,273.596,209.469,277.492"/>
		<path display="inline" fill="none" stroke="#000000" stroke-width="3" stroke-linecap="round" stroke-linejoin="round" d="
			M209.469,277.492c0,0,9.771,3.443,17.288-10.566c-7.644-7.468-22.427-9.923-29.126-10.669
			C196.193,262.523,195.824,273.596,209.469,277.492L209.469,277.492z"/>
		<path display="inline" fill="#FFFFFF" d="M169.074,253.436c-0.673,3.565-1.936,12.768,9.72,13.537l10.101-13.466
			C181.567,251.337,173.062,252.668,169.074,253.436"/>
		<path display="inline" fill="none" stroke="#000000" stroke-width="3" stroke-linecap="round" stroke-linejoin="round" d="
			M169.074,253.436c-0.673,3.565-1.936,12.768,9.72,13.537l10.101-13.466C181.567,251.337,173.062,252.668,169.074,253.436
			L169.074,253.436z"/>
		<path display="inline" d="M181.518,252.366c-1.305-0.056-2.595-0.054-3.844-0.005c-0.938,0.621-1.558,1.686-1.558,2.895
			c0,1.92,1.556,3.475,3.474,3.475c1.92,0,3.475-1.555,3.475-3.475C183.064,254.052,182.449,252.989,181.518,252.366"/>
		<path display="inline" d="M215.029,260.121c-1.919,0-3.476,1.555-3.476,3.475s1.557,3.475,3.476,3.475
			c1.918,0,3.475-1.555,3.475-3.475c0-1.018-0.445-1.925-1.145-2.562c-0.764-0.32-1.537-0.63-2.318-0.911
			C215.036,260.123,215.033,260.121,215.029,260.121"/>
		<path display="inline" fill="none" d="M227.75,14.37c28.285,0,55.723,5.539,81.549,16.461
			c24.947,10.551,47.354,25.657,66.594,44.897c19.239,19.24,34.347,41.646,44.896,66.592c10.923,25.827,16.461,53.264,16.461,81.549
			c0,38.717-10.643,76.535-30.777,109.367c-19.574,31.921-47.371,58.085-80.393,75.667c-4.076,2.184-8.283,4.247-12.507,6.133
			l-0.03,0.014l-0.031,0.017c-0.451,0.214-0.914,0.415-1.378,0.617c-0.284,0.125-0.571,0.25-0.825,0.363
			c-26.399,11.495-54.513,17.323-83.559,17.323c-32,0-62.002-6.354-89.172-18.883c-24.958-11.509-47.064-27.965-65.704-48.908
			c-17.49-19.652-31.181-42.341-40.69-67.435C23.068,274.094,18.25,248.41,18.25,223.87c0-28.285,5.539-55.722,16.461-81.549
			c10.551-24.947,25.657-47.352,44.896-66.592c19.24-19.24,41.646-34.346,66.593-44.897C172.028,19.909,199.465,14.37,227.75,14.37
			 M227.258,423.049c26.938,0,53.067-5.274,77.669-15.682c23.761-10.05,45.101-24.438,63.423-42.761
			c18.323-18.323,32.71-39.662,42.762-63.425c10.403-24.602,15.682-50.73,15.682-77.667s-5.276-53.067-15.682-77.668
			c-10.052-23.761-24.438-45.099-42.762-63.423c-18.322-18.324-39.662-32.71-63.422-42.76
			c-24.603-10.406-50.732-15.682-77.67-15.682c-26.936,0-53.066,5.276-77.668,15.682c-23.761,10.05-45.099,24.437-63.423,42.76
			c-18.324,18.323-32.71,39.662-42.76,63.423c-10.406,24.601-15.683,50.732-15.683,77.668S33,276.581,43.407,301.182
			c10.05,23.763,24.437,45.102,42.76,63.425c18.324,18.322,39.662,32.711,63.423,42.761
			C174.191,417.772,200.322,423.049,227.258,423.049 M227.75,11.37c-117.367,0-212.5,95.133-212.5,212.5
			c0,99.875,76.854,212.5,212.5,212.5c30.124,0,58.791-6.268,84.755-17.571c0.769-0.344,1.544-0.668,2.292-1.021
			c4.318-1.93,8.549-4.004,12.7-6.229C394.582,375.827,440.25,305.184,440.25,223.87C440.25,106.503,345.117,11.37,227.75,11.37
			L227.75,11.37z M227.258,420.049L227.258,420.049"/>
		<g display="inline">
			<path fill="#F0F1F2" d="M223.75,433.87c-32.219,0-62.432-6.399-89.8-19.021c-25.146-11.596-47.418-28.174-66.196-49.271
				C32.798,326.299,12.75,274.285,12.75,222.87c0-56.363,21.947-109.351,61.798-149.202S167.387,11.87,223.75,11.87
				c56.363,0,109.352,21.947,149.202,61.798s61.798,92.839,61.798,149.202c0,78.176-42.898,149.582-111.958,186.354
				c-4.11,2.202-8.353,4.281-12.606,6.185c-0.494,0.231-0.973,0.44-1.449,0.649l-0.846,0.371
				C281.516,427.914,266.502,433.87,223.75,433.87z M223.258,24.483c-109.195,0-198.033,88.837-198.033,198.033
				c0,109.196,88.838,198.033,198.033,198.033c109.196,0,198.033-88.837,198.033-198.033
				C421.291,113.32,332.454,24.483,223.258,24.483z"/>
		</g>
	</g>
	<g id="Layer_5">
		<g id="Layer_3_1_" display="inline">
			<path fill="none" stroke="#000000" stroke-width="3" stroke-miterlimit="10" d="M422.54,226.186
				c0,58.439-25.51,110.92-65.99,146.909c-0.63,0.57-1.26,1.12-1.89,1.674c-3.439,2.979-6.98,5.826-10.61,8.566
				c-4.409,3.32-8.97,6.46-13.659,9.395c-0.141,0.1-0.276,0.18-0.406,0.26c-7.36,4.6-15.03,8.72-22.99,12.315
				c-0.01,0.015-0.01,0.015-0.021,0.015c-16.947,7.67-35.18,13.01-54.275,15.6c-0.975,0.144-1.94,0.26-2.922,0.38
				c-7.789,0.94-15.723,1.42-23.762,1.42c-13.6,0-26.88-1.38-39.697-4.01C96.803,400.35,29.482,321.128,29.482,226.188
				c0-108.549,87.99-196.539,196.529-196.539C334.55,29.645,422.54,117.635,422.54,226.186z"/>
		</g>
		<path display="inline" fill="#BDE18A" d="M226.01,29.645c-108.539,0-196.529,87.99-196.529,196.541
			c0,94.939,67.319,174.159,156.829,192.52c12.82,2.63,26.103,4.01,39.7,4.01c8.04,0,15.975-0.479,23.76-1.42
			c0.98-0.12,1.95-0.24,2.924-0.38c19.101-2.59,37.326-7.93,54.276-15.6c0.015,0,0.015,0,0.021-0.015
			c7.96-3.6,15.63-7.72,22.989-12.315c0.131-0.08,0.271-0.16,0.406-0.261c4.69-2.934,9.25-6.069,13.66-9.394
			c3.63-2.74,7.17-5.59,10.609-8.566c0.631-0.554,1.261-1.104,1.891-1.674c40.48-35.986,65.99-88.47,65.99-146.91
			C422.54,117.635,334.55,29.645,226.01,29.645z"/>
		<g display="inline">
			<path fill="#FFCC00" d="M283.752,219.557c0,0,0.316-0.423,0.887-0.96l-8.029-7.413c0,0,20.765-7.787,11.027-22.063
				c-9.729-14.276-20.764-3.894-20.764-3.894s14.924,35.042-8.436,34.391c0,0-5.846,1.948-6.489-9.083c0,0,0-31.148-10.382-33.094
				c0,0-8.438-9.733-1.947-15.573c0,0-18.818-6.489-1.945-24.009c0,0-30.5,7.787-27.902-13.627c0,0-17.521,18.817-30.497,3.245
				c0,0-26.283,17.387-44.843,10.109c-0.125,4.184,0.312,8.685,2.664,9.357c0,0-15.572,23.359-25.307,29.2
				c0,0-24.285,7.944-16.871,24.658c3.857,8.697,9.734,4.542,11.68,4.542c0,0,29.104-16.39,43.376-14.443l-9.995,0.803
				l-4.107,14.912c-0.038,0.013-0.076,0.027-0.076,0.027c-23.847,13.339-18.488,22.899-11.057,28.213
				c-4.516,6.514-28.383,46.847-17.494,60.037c6.125,7.189,33.742,10.383,68.134-14.929c0,0,1.298,10.386,14.276,5.19
				c12.977-5.19,30.498,0,38.282,14.926c0,0,3.242,4.542,11.683,1.298c0,0,3.229-1.692,8.12-4.745
				C261.084,284.604,308.707,238.842,283.752,219.557"/>
			<path fill="#FFD90F" stroke="#000000" stroke-width="3" stroke-linecap="round" stroke-linejoin="round" d="M276.838,211.215
				c0,0,20.764-7.787,11.03-22.063c-9.734-14.276-20.765-3.893-20.765-3.893s14.924,35.042-8.438,34.391
				c0,0-5.841,1.947-6.489-9.083c0,0,0-31.147-10.382-33.094c0,0-8.437-9.733-1.946-15.573c0,0-18.814-6.489-1.943-24.009
				c0,0-30.498,7.787-27.902-13.627c0,0-17.521,18.818-30.498,3.245c0,0-26.283,17.387-44.843,10.11
				c-0.125,4.184,0.312,8.685,2.665,9.357c0,0-15.574,23.36-25.308,29.2c0,0-24.285,7.944-16.871,24.658
				c3.857,8.698,9.733,4.542,11.681,4.542c0,0,29.103-16.39,43.378-14.443l-9.995,0.802l-4.108,14.912
				c-0.037,0.013-0.074,0.027-0.074,0.027c-23.848,13.339-5.084,21.299-11.057,28.212c-13.929,16.117-26.895,49.41-17.496,60.035
				c9.39,8.075,29.5,9.134,68.136-14.925c0,0,1.297,10.382,14.272,5.191c12.979-5.191,30.498,0,38.284,14.924
				c0,0,3.244,4.541,11.682,1.299c0,0,3.229-1.696,8.119-4.745c13.35-12.031,61.854-58.754,36.896-78.038L276.838,211.215z"/>
			
				<path fill="#40535D" stroke="#000000" stroke-width="3" stroke-linecap="round" stroke-linejoin="round" stroke-miterlimit="10" d="
				M276.838,211.215l8.438,7.786c18.815-2.596,11.027-20.765,11.027-20.765c12.979-21.413-0.646-25.956-0.646-25.956
				c7.786-33.742-15.573-35.04-15.573-35.04c-4.541-31.147-38.284-22.711-38.284-22.711c-22.062-31.147-46.72-5.191-46.72-5.191
				c-5.84-9.084-19.466-0.649-19.466-0.649c-6.489-9.085-21.414-7.787-21.414-7.787c-22.249,0.984-37.728,9.682-33.095,22.711
				c7.141,20.083,33.251,20.436,58.4,3.894c13.483,15.131,30.498-3.245,30.498-3.245c-2.596,21.414,27.901,13.627,27.901,13.627
				c-16.87,17.521,1.945,24.009,1.945,24.009c-6.486,5.84,1.945,15.573,1.945,15.573c10.382,1.946,10.382,33.094,10.382,33.094
				c0.648,11.031,6.489,9.083,6.489,9.083c23.359,0.651,8.436-34.391,8.436-34.391s11.03-10.383,20.769,3.893
				C297.602,203.428,276.838,211.215,276.838,211.215"/>
			<path fill="#FFD90F" stroke="#000000" stroke-width="3" stroke-linecap="round" stroke-linejoin="round" d="M281.148,194.312
				c0,0-7.787-3.244-10.388,2.596 M251.3,239.732c0,0,7.785,6.49,6.489,11.682 M255.702,244.529c0,0-28.444,4.681-55.666,21.16
				c-19.592,11.857-24.658,14.272-24.658,14.272 M175.75,211.285c12.75,7.865,33.5,6.75,42.75-4.973 M153.316,166.409
				c0,0-11.682,8.436-4.542,22.063c7.138,13.626,14.272,7.138,25.956,2.595c11.681-4.543,28.551-12.329,46.068-8.436
				 M134.499,239.732c0,0-36.444-13.667,1.374-33.12c18.258-8.6,34.215-8.438,30.422,14.952"/>
		</g>
		<path display="inline" fill="#FFFFFF" d="M135.63,206.672c0,0,2.271-0.825,5.58-1.612c0.779-3.175,1.917-9.075,1.057-13.841
			c-13.034,2.123-30.342,11.17-34.76,13.564c-0.017,5.077,1.562,13.875,12.509,14.731C122.312,215.729,127.1,211.443,135.63,206.672
			"/>
		<path display="inline" fill="none" stroke="#000000" stroke-width="3" stroke-linecap="round" stroke-linejoin="round" d="
			M135.63,206.672c0,0,3.726-2.65,7.034-3.437c0.78-3.175,0.462-7.25-0.397-12.016c-13.034,2.123-30.342,11.17-34.76,13.564
			c-0.017,5.077,1.562,13.875,12.509,14.731C122.312,215.729,127.1,211.443,135.63,206.672L135.63,206.672z"/>
		<path display="inline" fill="#FFFFFF" d="M174.564,191.098c-3.663,1.424-6.881,3.04-9.788,4.167
			c1.653,5.693,8.017,14.729,32.224,9.454c0,0,21.688-4.274,19.53-22.756C200.503,179.978,185.329,186.912,174.564,191.098"/>
		<path display="inline" fill="none" stroke="#000000" stroke-width="3" stroke-linecap="round" stroke-linejoin="round" d="
			M174.564,191.098c-3.663,1.424-6.881,3.04-9.788,4.167c1.653,5.693,8.017,14.729,32.224,9.454c0,0,21.688-4.274,19.53-22.756
			C200.503,179.978,185.329,186.912,174.564,191.098L174.564,191.098z"/>
		<path display="inline" d="M192.19,187.227c0,2.898,2.35,5.247,5.247,5.247c2.896,0,5.246-2.349,5.246-5.247
			c0-1.958-1.085-3.645-2.672-4.546c-2.381,0.456-4.706,1.033-6.965,1.684C192.509,185.189,192.19,186.17,192.19,187.227"/>
		<path display="inline" d="M130.128,194.534c-2.62,0.935-5.212,1.969-7.668,3.02c-0.14,0.473-0.237,0.963-0.237,1.481
			c0,2.897,2.35,5.247,5.246,5.247c2.898,0,5.248-2.349,5.248-5.247C132.718,197.111,131.671,195.447,130.128,194.534"/>
		<path display="inline" d="M158.518,223.961c0,2.654-1.174,4.811-2.623,4.811c-1.446,0-2.621-2.152-2.621-4.811
			c0-2.657,1.175-4.811,2.621-4.811C157.344,219.15,158.518,221.304,158.518,223.961"/>
		<path display="inline" d="M136.796,226.516c1.841,1.916,2.485,4.283,1.438,5.285c-1.043,1.006-3.383,0.268-5.224-1.646
			c-1.84-1.916-2.483-4.283-1.44-5.288C132.617,223.861,134.956,224.602,136.796,226.516"/>
		
			<path display="inline" fill="#B3D3F0" stroke="#000000" stroke-width="3" stroke-linecap="round" stroke-linejoin="round" stroke-miterlimit="10" d="
			M295.712,298.537c-5.593,10.963-13.302,21.94-23.935,31.688l-20.76-23.064l-8.735,2.498c3.458,13.334,5.008,55.112,5.008,55.112
			c12.683,8.746,44.167-1.312,44.167-1.312C287.605,346.946,290.756,321.971,295.712,298.537L295.712,298.537z"/>
		<path display="inline" fill="none" stroke="#000000" stroke-width="3" stroke-linecap="round" stroke-linejoin="round" d="
			M295.712,298.537c-5.593,10.963-13.302,21.94-23.935,31.688l-20.76-23.064l-8.735,2.498c3.458,13.334,5.008,55.112,5.008,55.112
			c12.683,8.746,44.167-1.312,44.167-1.312C287.605,346.946,290.756,321.971,295.712,298.537L295.712,298.537z"/>
		<g display="inline">
			<path fill="#FFFFFF" stroke="#000000" stroke-width="3" stroke-linecap="round" stroke-linejoin="round" d="M362.656,373.978
				c-18.12-2.921-42.277-3.496-51.121-3.609c0.371,2.688-4.344-87.396,18.445-116.832c0,0-10.98-16-19.725-19.519
				c0,0-27.982,90.085-18.803,129.438c0,0-31.485,10.061-44.167,1.312c0,0-1.75-47.229-5.688-57.284l-16.614,4.373
				c0,0,12.961,33.612,10.569,55.926c-2.391,22.308-1.062,45.679-1.062,45.679"/>
			<path fill="#FFFFFF" stroke="#000000" stroke-width="3" stroke-linecap="round" stroke-linejoin="round" d="M363.884,378.921"/>
			<path fill="#FFFFFF" stroke="#000000" stroke-width="3" stroke-linecap="round" stroke-linejoin="round" d="M376.758,559.146"/>
		</g>
		
			<path display="inline" fill="#B3D3F0" stroke="#000000" stroke-width="3" stroke-linecap="round" stroke-linejoin="round" stroke-miterlimit="10" d="
			M284.639,218.597c0,0,4.129-5.608,10.25,0.951l15.309,14.866c0,0,3.498,57.725-38.48,96.206l-27.55-30.611
			C244.163,300.009,313.498,240.898,284.639,218.597L284.639,218.597z"/>
		<path display="inline" fill="none" stroke="#000000" stroke-width="3" stroke-linecap="round" stroke-linejoin="round" d="
			M284.867,218.628c0,0,3.966-6.037,10.089,0.523l15.304,14.867c0,0,3.498,57.726-38.479,96.206l-27.553-30.61
			C244.229,299.611,313.729,240.93,284.867,218.628L284.867,218.628z"/>
		
			<path display="inline" fill="#B3D3F0" stroke="#000000" stroke-width="3" stroke-linecap="round" stroke-linejoin="round" stroke-miterlimit="10" d="
			M234.279,386.311c0.012-0.004,0.021-0.01,0.035-0.014c0.192-5.894,0.569-12.246,1.242-18.517
			c1.728-16.08-4.525-38.031-8.154-49.038l-8.405-5.799c0,0-32.128,32.953-38.719,69.814c0,0,0.015,0.026,0.036,0.062
			C189.925,379.775,215.18,373.699,234.279,386.311L234.279,386.311z"/>
		<path display="inline" fill="none" stroke="#000000" stroke-width="3" stroke-linecap="round" stroke-linejoin="round" d="
			M234.279,386.311c0.012-0.004,0.021-0.01,0.035-0.014c0.178-5.347,0.514-11.689,1.242-18.517
			c1.728-16.08-4.525-38.031-8.154-49.038l-8.405-5.799c0,0-32.128,32.953-38.719,69.814c0,0,0.015,0.026,0.036,0.062
			C189.925,379.775,215.18,373.699,234.279,386.311L234.279,386.311z"/>
		
			<path display="inline" fill="#9AB6CC" stroke="#000000" stroke-width="3" stroke-linecap="round" stroke-linejoin="round" stroke-miterlimit="10" d="
			M180.278,382.764c0.286,0.473,6.672,6.275,12.138,7.981c1.096-2.812,5.954-10.861,5.954-10.861
			C191.5,379.118,180.278,382.764,180.278,382.764z"/>
		<g display="inline">
			
				<path fill="#B3D3F0" stroke="#000000" stroke-width="3" stroke-linecap="round" stroke-linejoin="round" stroke-miterlimit="10" d="
				M343.5,269.91c0,0-42.208,13.113-39.35,106.089c0,0,36.213,16.989,52.396,1.869c10.551-9.854,15.617-16,24.104-26.694
				C379.596,323.503,372.432,286.077,343.5,269.91"/>
		</g>
		<path display="inline" fill="#CCECF4" d="M374.04,384.025c-0.12-1.521-0.28-2.95-0.47-4.312"/>
		
			<path display="inline" fill="#B3D3F0" stroke="#000000" stroke-width="3" stroke-linecap="round" stroke-linejoin="round" stroke-miterlimit="10" d="
			M342.787,269.625c-4.316-5.505-6.333-10.055-12.807-16.09c-17.387,20.859-26.271,58.861-24.646,88.141
			C309.605,291.85,333.044,274.955,342.787,269.625L342.787,269.625z"/>
		<path display="inline" fill="#FFD90F" stroke="#000000" stroke-width="3" stroke-linecap="round" stroke-linejoin="round" d="
			M210.87,411.775c0,0,0-10.073,16.2-16.2c0.188-0.073,0.38-0.15,0.58-0.22c9.75-3.711,29.475-5.514,46.6-0.04
			c17.125,5.47,27.721,8.646,31.67,9.72c9.132,2.475-23.497,16.344-49.14,17.558C256.779,422.593,229.82,408.615,210.87,411.775z"/>
		<path display="inline" fill="#FFD90F" stroke="#000000" stroke-width="3" stroke-linecap="round" stroke-linejoin="round" d="
			M250.5,422.992c-7.789,0.939-16.811,2.793-24.851,2.793c-13.603,0-26.689-1.86-39.512-4.49c-1.527-15.316,7.791-34.43,12.23-41.41
			c9.45-1.235,21.16-1.065,31.59,3.94c0.13,0.06,0.26,0.12,0.391,0.2c0.069,0.025,0.149,0.065,0.223,0.105
			c0.277,0.12,0.541,0.264,0.811,0.4c0.18,0.1,0.62,0.2,0.62,0.3l2.351,0.428l-1.681,8.437c-21.003,5.173-21.8,18.08-21.8,18.08
			c17.96-2.99,41.82,9.14,41.82,9.14"/>
		<path display="inline" fill="#FFD90F" stroke="#000000" stroke-width="3" stroke-linecap="round" stroke-linejoin="round" d="
			M350.75,372.445c-3.7-1.83-8.279-3.15-13.939-3.681c-27.438-2.594-51.906,19.42-59.851,27.46
			c0.89,0.301,29.669,8.988,30.028,9.081c8.679,2.271,17.484,4.6,24.846,0c3.355,7.717,3.693-6.673,3.833-6.771
			c4.69-2.933,11.59-6.346,16-9.667c3.63-2.74,8.833-10.666,2.991-14.103C353.48,373.925,352.18,373.146,350.75,372.445z
			 M339.34,380.146c0,0,2.08,0.93,4.71,3.188 M327.96,390.255c0,0,0.899,0.8,2.2,2.224c0.08,0.076,0.16,0.156,0.229,0.25"/>
		<path display="inline" fill="#00646A" d="M226.737,301.363c0,0-9.187-19.68-17.058-9.188c0,0-10.492,26.239,2.624,38.921
			c0,0,12.243,6.123,17.491-14.431l9.187-2.188c0,0,6.561,13.115,15.307,12.242c8.745-0.875,10.059-20.112,10.059-20.112
			s0.875-20.558-11.371-21.433c0,0-5.246,1.75-17.929,18.367L226.737,301.363L226.737,301.363z"/>
		<path display="inline" fill="none" stroke="#000000" stroke-width="3" stroke-linecap="round" stroke-linejoin="round" d="
			M227.559,300.604c0,0-9.183-19.683-17.054-9.188c0,0-10.495,26.239,2.625,38.92c0,0,12.243,6.124,17.491-14.431l9.184-2.188
			c0,0,6.562,13.118,15.309,12.244c8.744-0.875,10.058-20.113,10.058-20.113s0.875-20.555-11.371-21.431
			c0,0-5.245,1.75-17.927,18.367L227.559,300.604L227.559,300.604z"/>
		<path display="inline" fill="#006077" d="M229.798,299.611c0,0-9.62,12.246,0.438,18.806c0,0,9.621,2.188,10.059-6.996
			s1.312-10.935-3.499-12.245C231.984,297.863,231.109,298.739,229.798,299.611L229.798,299.611z"/>
		<path display="inline" fill="none" stroke="#000000" stroke-width="3" stroke-linecap="round" stroke-linejoin="round" d="
			M229.798,299.611c0,0-9.62,12.246,0.438,18.806c0,0,9.621,2.188,10.059-6.996s1.312-10.935-3.499-12.245
			C231.984,297.863,231.109,298.739,229.798,299.611L229.798,299.611z"/>
		
			<line display="inline" fill="none" stroke="#000000" stroke-width="2" stroke-linecap="round" stroke-linejoin="round" x1="240.65" y1="306.105" x2="245.998" y2="304.584"/>
		
			<line display="inline" fill="none" stroke="#000000" stroke-width="2" stroke-linecap="round" stroke-linejoin="round" x1="240.65" y1="308.951" x2="245.271" y2="308.752"/>
		
			<line display="inline" fill="none" stroke="#000000" stroke-width="2" stroke-linecap="round" stroke-linejoin="round" stroke-miterlimit="10" x1="225.132" y1="307.808" x2="220.794" y2="306.105"/>
		
			<path display="inline" stroke="#000000" stroke-width="2" stroke-linecap="round" stroke-linejoin="round" stroke-miterlimit="10" d="
			M225.648,311.684c-0.66,0.175-5.45,0-5.45,0"/>
		<path display="inline" fill="#FFD90F" stroke="#000000" stroke-width="3" stroke-linecap="round" stroke-linejoin="round" d="
			M210.87,411.775c0,0-1.87,0.26-4.37,2.635"/>
		<path display="inline" fill="#F0F1F2" d="M226.5,14.035c-117.37,0-212.5,95.13-212.5,212.5c0,99.88,76.85,212.5,212.5,212.5
			c30.12,0,58.79-6.271,84.75-17.57c0.77-0.35,1.55-0.67,2.29-1.02c4.319-1.931,8.55-4.011,12.71-6.23
			C393.33,378.495,439,307.845,439,226.535C439,109.165,343.87,14.035,226.5,14.035z M356.55,373.095
			c-0.63,0.57-1.26,1.12-1.89,1.674c-3.44,2.979-6.98,5.826-10.61,8.566c-4.409,3.32-8.97,6.46-13.659,9.395
			c-0.141,0.1-0.277,0.18-0.406,0.26c-13.217,8.258-14.293,8.386-22.99,12.315c-0.01,0.015-0.01,0.015-0.021,0.015
			c-16.947,7.67-35.18,13.01-54.275,15.6c-0.975,0.144-1.94,0.26-2.922,0.38c-7.789,0.94-15.723,1.42-23.762,1.42
			c-13.6,0-26.88-1.38-39.697-4.01C96.803,400.35,29.482,321.128,29.482,226.188c0-108.549,87.99-196.539,196.529-196.539
			c108.54,0,196.53,87.99,196.53,196.539C422.54,284.625,397.03,337.105,356.55,373.095z"/>
		<g id="Layer_3_4_" display="inline">
		</g>
	</g>
	<g id="Layer_6">
		<circle display="inline" fill="#D1B270" cx="227" cy="227.834" r="198.543"/>
		
			<path display="inline" fill="#FAB17A" stroke="#000000" stroke-width="3" stroke-linecap="round" stroke-linejoin="round" stroke-miterlimit="10" d="
			M150,270.333c2.667,0,127.295,11.334,127.295,11.334L306,417.666l-55.333,13.667l-64.667-3L150,270.333z"/>
		
			<path display="inline" fill="#FFD90F" stroke="#000000" stroke-width="3" stroke-linecap="round" stroke-linejoin="round" stroke-miterlimit="10" d="
			M302.427,408.478l-5.942-49.056l15.481-25.181c0,0,11.034,9.936,18.534,25.181s7.75,33.078,7.75,33.078
			S331.604,403.955,302.427,408.478z"/>
		
			<path display="inline" fill="#FAB17A" stroke="#000000" stroke-width="3" stroke-linecap="round" stroke-linejoin="round" stroke-miterlimit="10" d="
			M296.484,359.422c0,0,7.683-7.589,14.016-19.922s3.5-22.75,3.5-22.75s-13.5-9.5-31.25-14.25s13.5,55.75,13.5,55.75"/>
		
			<path display="inline" fill="#A4D7E7" stroke="#000000" stroke-width="3" stroke-linecap="round" stroke-linejoin="round" stroke-miterlimit="10" d="
			M278,295.5c0,0,13.25,33.25,17.75,59.5s6.677,53.478,6.677,53.478l-12.214,4.646c0,0-6.213-36.123-18.213-49.123
			c0,0,10-35.25,0-65L278,295.5z"/>
		<g id="Tte" display="inline">
			
				<path fill="#FFD90F" stroke="#000000" stroke-width="3" stroke-linecap="round" stroke-linejoin="round" stroke-miterlimit="10" d="
				M318.637,157.833l19.198,81.687l-36.56,24.815c0,0-2.274,20.997-20.608,31.664c0,0-27,9.333-64.333,0
				c-37.334-9.333-64-31.333-64-31.333l12-98.578l50.333-33.422L298,121L318.637,157.833z"/>
			
				<path fill="#FFD90F" stroke="#000000" stroke-width="3" stroke-linecap="round" stroke-linejoin="round" stroke-miterlimit="10" d="
				M334.896,219.498C354.167,227,374.668,245.666,366.334,255c-8.909,9.979-44.52,0.782-54.748-1.833c-25.419-6.5-49.42-11-70.753-9
				"/>
			<path fill="none" stroke="#000000" stroke-width="3" stroke-linecap="round" stroke-linejoin="round" stroke-miterlimit="10" d="
				M238.667,250.5c0,0,0.166-9.166,8.333-14.666"/>
			<g id="Dents">
				
					<path fill="#FFFFFF" stroke="#000000" stroke-width="3" stroke-linecap="round" stroke-linejoin="round" stroke-miterlimit="10" d="
					M260.159,243.966c0,0-1.826,9.202,8.341,11.868S287,253,287,253l-4.025,1.934c0,0,2.192,9.566,11.692,9.733
					s16.919-5.126,16.919-5.126l-0.961,0.618c0,0,2.542,7.009,9.042,7.175s13.503-2.376,16.168-9.021
					C335.835,258.312,276.348,244.01,260.159,243.966z"/>
			</g>
			<path fill="#FFFFFF" stroke="#000000" stroke-width="3" stroke-miterlimit="10" d="M317.833,171.167c0,0,17.333,4.645,17,16.739
				c-0.333,12.094-17,15.189-17,15.189s-23.167,4.716-23.167-15.189C294.666,168.001,316.277,170.673,317.833,171.167z"/>
			<path fill="#FFFFFF" stroke="#000000" stroke-width="3" stroke-miterlimit="10" d="M280.167,173.167
				c0,0-29.167-4.166-32.167,12.833s29.5,17,29.5,17s24.667,2.167,24.667-14.167S280.167,173.167,280.167,173.167z"/>
			<circle cx="265.667" cy="180.833" r="4.167"/>
			<circle cx="314.667" cy="181.833" r="4.167"/>
			
				<path id="Nez" fill="#FFD90F" stroke="#000000" stroke-width="3" stroke-linecap="round" stroke-linejoin="round" stroke-miterlimit="10" d="
				M299.167,221.667c0,0-20.5-0.333-20.5-11.667s28.167-11.667,35.167-11.333s30.332,2.427,30.666,11.463
				s-15.833,10.704-15.833,10.704"/>
			
				<path fill="#FFD90F" stroke="#000000" stroke-width="3" stroke-linecap="round" stroke-linejoin="round" stroke-miterlimit="10" d="
				M318.334,154.333c0,0,17.667,3,17.5,13.917s-12.195,10.917-35.833,6.917"/>
			
				<path fill="#FFD90F" stroke="#000000" stroke-width="3" stroke-linecap="round" stroke-linejoin="round" stroke-miterlimit="10" d="
				M290.5,157.833c4.5,2.333,15.614,8.747,10.167,17.5c-4.667,7.5-44.417-2.083-44.417-2.083"/>
			
				<path fill="#8F7038" stroke="#000000" stroke-width="3" stroke-linecap="round" stroke-linejoin="round" stroke-miterlimit="10" d="
				M278.667,130c0,0-18.417-5.5-31.667,19.75s-5,51.25-29,65c0,0,3-23.75-3.5-29.25c0,0-9.5,14-10.25,31.75
				c0,0-6.497-1.401-10.67-7.114c-1.673-2.291-2.973-5.273-3.33-9.136l-19.052,32.016c0,0-8.698,21.984-24.698,29.984
				c0,0,3-9.568,2.75-19.034c0,0-7.75,19.034-30.5,19.034c0,0,15.75-13.5,15-35.5s-6-70.5,18.75-91.5s60-29.5,98.25-20.5
				c0,0,4.75-18.75,35.25-20.25s44,32.75,44.5,47.5l-13.5-10c0,0,7.801,21.43-6.75,33.339c0,0-21.92-32.233-45.17-34.733"/>
			
				<path fill="#FFD90F" stroke="#000000" stroke-width="3" stroke-linecap="round" stroke-linejoin="round" stroke-miterlimit="10" d="
				M192,208.333c-2-3.167-26.057-7.082-28.142,10.464c-2.024,17.037,16.642,16.703,22.309,15.536"/>
			<path fill="none" stroke="#000000" stroke-width="3" stroke-linecap="round" stroke-linejoin="round" stroke-miterlimit="10" d="
				M182.167,216.083c0,0-4.083,1.667-3.75,7.5"/>
			<path fill="none" stroke="#000000" stroke-width="3" stroke-linecap="round" stroke-linejoin="round" stroke-miterlimit="10" d="
				M188.084,221.5c0,0-2.75-4.583-5.917-5.417S174.5,217,174.5,217"/>
		</g>
		<g display="inline">
			
				<path fill="#A4D7E7" stroke="#000000" stroke-width="3" stroke-linecap="round" stroke-linejoin="round" stroke-miterlimit="10" d="
				M80.25,365L96,332.667c0,0,24-78.334,52-78.667s49.326,102.334,44.66,171C192.66,425,90.997,413.086,80.25,365z"/>
			
				<path fill="#CC8F66" stroke="#000000" stroke-width="3" stroke-linecap="round" stroke-linejoin="round" stroke-miterlimit="10" d="
				M107,353.25c0,0-20.84-2.25-26.75-37.87c-5.5-33.13,6.25-37.88,6.25-37.88S100.25,282,107,308S107,353.25,107,353.25z"/>
			
				<path fill="#FFD90F" stroke="#000000" stroke-width="3" stroke-linecap="round" stroke-linejoin="round" stroke-miterlimit="10" d="
				M43.667,311c5.333-5.999,28.167-23.666,53.667-25C120,285.334,129.333,322.166,118,325s-27.707,9.737-35.521,18.334
				C74.666,351.931,74.334,359,74.334,359S38.334,316.999,43.667,311z"/>
			
				<path fill="#FAB17A" stroke="#000000" stroke-width="3" stroke-linecap="round" stroke-linejoin="round" stroke-miterlimit="10" d="
				M107,353.25c0,0,6.75-19.25,0-45.25s-20.5-30.5-20.5-30.5c23.5-6.25,55-4,67.75,23S123.75,354.25,107,353.25z"/>
		</g>
		<g display="inline">
			<path fill="#F0F1F2" d="M227,15C109.633,15,14.5,110.133,14.5,227.5C14.5,327.375,91.354,440,227,440
				c30.124,0,58.791-6.267,84.755-17.571c0.767-0.344,1.544-0.668,2.292-1.021c4.318-1.929,8.549-4.004,12.7-6.229
				C393.832,379.457,439.5,308.812,439.5,227.5C439.5,110.133,344.367,15,227,15z M226.508,423.679
				c-108.542,0-196.533-87.991-196.533-196.532c0-108.542,87.991-196.534,196.533-196.534c108.543,0,196.533,87.991,196.533,196.534
				C423.041,335.688,335.051,423.679,226.508,423.679z"/>
		</g>
	</g>
	<g id="Layer_1_1_">
		<path display="inline" fill="#D1B270" d="M226.124,21.012c111.625,0,202.113,90.49,202.113,202.113
			c0,111.624-90.488,202.113-202.113,202.113c-108.424,0-202.111-86.663-202.111-202.113
			C24.013,111.502,114.501,21.012,226.124,21.012z"/>
		<path display="inline" fill="#FFD90F" d="M298.283,240.232c-5.405-4.056-4.055-17.568-4.055-17.568l6.756-33.783
			c8.486-12.259,9.016-23.547,3.011-33.763c0.599,1.018,0,0,0,0c-35.214-17.088-125.835-9.321-125.835-9.321
			c9.178,23.359-4.828,55.784-10.623,67.515c-1.861-2.001-5.616-3.646-13.197-1.749c-14.5,3.625-13.464,15.016-13.464,15.016
			c4.474,18.237,15.348,16.354,22.142,13.037l0.13,0.616c12.69,12.238,20.598,22.185,24.183,30.822c0,0,4.925,15.398,7.13,22.885
			c-0.036-0.123-0.069-0.241-0.106-0.364c11.308,7.858,26.077,9.851,39.26,9.562c1.996-0.06,0,0,1.996-0.06
			c4.565-0.181,8.896-0.619,12.787-1.16c-1.306-11.562,2.588-25.196,2.588-25.196c15.727-9.23,6.924-11.302,6.924-11.302
			c22.426,0,37.672-4.916,37.672-4.916C307.742,259.15,303.688,244.287,298.283,240.232"/>
		<path display="inline" fill="none" stroke="#000000" stroke-width="3" stroke-linecap="round" stroke-linejoin="round" d="
			M298.283,240.232c-5.405-4.056-4.055-17.568-4.055-17.568l6.756-33.783c8.683-11.881,8.099-27.214,3.011-33.763l0,0
			c-35.214-17.088-125.835-9.321-125.835-9.321c9.178,23.359-4.828,55.784-10.623,67.515c-1.861-2.001-5.616-3.646-13.197-1.749
			c-14.5,3.625-13.464,15.016-13.464,15.016c4.474,18.237,15.348,16.354,22.142,13.037l0.13,0.616
			c12.69,12.238,20.728,19.769,24.183,30.822c2.895,9.295,4.925,15.398,7.13,22.885c-0.036-0.123-0.069-0.241-0.106-0.364
			c11.308,7.858,26.077,9.851,39.26,9.562c1.996-0.06,0,0,1.996-0.06c4.565-0.181,8.896-0.619,12.787-1.16
			c-1.306-11.562,2.588-25.196,2.588-25.196c15.727-9.23,6.924-11.302,6.924-11.302c19.926,0,37.672-4.916,37.672-4.916
			C307.742,259.15,303.688,244.287,298.283,240.232L298.283,240.232z"/>
		<g display="inline">
			<path fill="#B45B22" d="M312.799,134.922c0,0-5.178-5.696-10.355,0c0,0-7.25-9.839-13.465-3.625c0,0-7.768-7.768-15.018-2.071
				c0,0-6.732-8.804-15.018-2.589c0,0-6.215-8.285-15.535-1.553c0,0-10.875-6.732-18.124,0c0,0-10.357-7.768-15.535-1.554
				c0,0-10.874-5.696-17.089,4.143c0,0-7.768-10.357-17.607,0c0,0-9.32-9.839-16.57,1.553c-7.7-2.009-7.128-8.258-18.643,4.143
				c0,0-13.463-8.803-15.018,4.661c0,0-6.375,51.038,19.566,79.063c1.994-2.234,5.1-4.316,9.951-5.529
				c7.581-1.896,11.336-0.252,13.197,1.749c5.795-11.731,19.801-44.156,10.623-67.515c0,0,90.621-7.767,125.835,9.321
				C303.995,155.118,315.906,145.797,312.799,134.922"/>
			<path fill="none" stroke="#000000" stroke-width="3" stroke-linecap="round" stroke-linejoin="round" d="M312.799,134.922
				c0,0-5.178-5.696-10.355,0c0,0-7.25-9.839-13.465-3.625c0,0-7.768-7.768-15.018-2.071c0,0-6.732-8.804-15.018-2.589
				c0,0-6.215-8.285-15.535-1.553c0,0-10.875-6.732-18.124,0c0,0-10.357-7.768-15.535-1.554c0,0-10.874-5.696-17.089,4.143
				c0,0-7.768-10.357-17.607,0c0,0-9.32-9.839-16.57,1.553c-7.7-2.009-7.128-8.258-18.643,4.143c0,0-13.463-8.803-15.018,4.661
				c0,0-6.375,51.038,19.566,79.063c1.994-2.234,5.1-4.316,9.951-5.529c7.581-1.896,11.336-0.252,13.197,1.749
				c5.795-11.731,19.801-44.156,10.623-67.515c0,0,90.621-7.767,125.835,9.321C303.995,155.118,315.906,145.797,312.799,134.922
				L312.799,134.922z M149.68,223.99c0,0,8.285-6.214,13.981,1.035c0,0-12.95-4.849-6.731,5.178"/>
		</g>
		<path display="inline" fill="#B45B22" d="M218.034,155.635c0,0-8.285,3.107-8.804,7.768c0,0,2.071,4.143,8.804,3.625
			c0,0,17.606-2.072,21.749-0.518c0,0,3.107-0.518,3.625-5.178s-5.696-6.214-5.696-6.214S223.73,153.564,218.034,155.635"/>
		<path display="inline" fill="none" stroke="#000000" stroke-width="3" stroke-linecap="round" stroke-linejoin="round" d="
			M218.034,155.635c0,0-8.285,3.107-8.804,7.768c0,0,2.071,4.143,8.804,3.625c0,0,17.606-2.072,21.749-0.518
			c0,0,3.107-0.518,3.625-5.178s-5.696-6.214-5.696-6.214S223.73,153.564,218.034,155.635L218.034,155.635z"/>
		<path display="inline" fill="#B45B22" d="M284.835,160.813c0,0-6.724-1.581-8.285,6.214c-1.202,6.004,6.214,5.696,6.214,5.696
			s10.356-0.518,13.465,1.553c3.107,2.071,5.23-2.054,5.695-3.625c1.564-5.288-2.589-6.732-2.589-6.732
			S290.529,160.813,284.835,160.813"/>
		<path display="inline" fill="none" stroke="#000000" stroke-width="3" stroke-linecap="round" stroke-linejoin="round" d="
			M284.835,160.813c0,0-6.724-1.581-8.285,6.214c-1.202,6.004,6.214,5.696,6.214,5.696s10.356-0.518,13.465,1.553
			c3.107,2.071,5.23-2.054,5.695-3.625c1.564-5.288-2.589-6.732-2.589-6.732S290.529,160.813,284.835,160.813L284.835,160.813z
			 M257.391,208.455c0,0,23.303-2.589,22.268,13.463c-1.036,16.055-26.41,7.25-26.41,7.25 M207.16,248.328
			c0,0-5.697,4.145-3.625,8.804 M203.59,252.707c18.827,8.377,30.327,12.127,54.318,12.711 M168.84,235.9
			c0,0-21.232,18.125-27.964-9.322c0,0-1.036-11.391,13.464-15.016s15.018,5.695,15.018,5.695 M149.68,223.99
			c0,0,8.285-6.214,13.981,1.035c0,0-12.95-4.849-6.731,5.178 M155.51,211.292l41.811-14.229 M250.658,202.241
			c0,0,12.429-3.626,17.089,1.554"/>
		<path display="inline" fill="#FFFFFF" d="M250.658,198.098c0,13.442-11.94,24.339-26.669,24.339
			c-14.729,0-26.669-10.896-26.669-24.339c0-13.441,11.939-24.338,26.669-24.338C238.718,173.76,250.658,184.656,250.658,198.098"/>
		<path display="inline" fill="none" stroke="#000000" stroke-width="3.1403" stroke-linecap="round" stroke-linejoin="round" d="
			M250.658,198.098c0,13.442-11.94,24.339-26.669,24.339c-14.729,0-26.669-10.896-26.669-24.339
			c0-13.441,11.939-24.338,26.669-24.338C238.718,173.76,250.658,184.656,250.658,198.098L250.658,198.098z"/>
		<path display="inline" fill="#FFFFFF" d="M290,183.6c-13.005,0-23.548,9.621-23.548,21.49c0,1.248,0.123,2.47,0.347,3.66
			c6.336,1.014,13.439,4.148,12.858,13.168c-0.056,0.842-0.189,1.599-0.37,2.307c3.215,1.502,6.854,2.355,10.713,2.355
			c13.005,0,23.548-9.621,23.548-21.49C313.548,193.221,303.005,183.6,290,183.6"/>
		<path display="inline" fill="none" stroke="#000000" stroke-width="2.7729" stroke-linecap="round" stroke-linejoin="round" d="
			M290,183.6c-13.005,0-23.548,9.621-23.548,21.49c0,1.248,0.123,2.47,0.347,3.66c6.336,1.014,13.439,4.148,12.858,13.168
			c-0.056,0.842-0.189,1.599-0.37,2.307c3.215,1.502,6.854,2.355,10.713,2.355c13.005,0,23.548-9.621,23.548-21.49
			C313.548,193.221,303.005,183.6,290,183.6L290,183.6z"/>
		<path display="inline" d="M222.177,200.17c0,2.574-2.087,4.66-4.661,4.66c-2.574,0-4.66-2.086-4.66-4.66
			c0-2.574,2.086-4.66,4.66-4.66C220.09,195.51,222.177,197.596,222.177,200.17"/>
		<path display="inline" d="M295.191,204.973c0,2.574-2.086,4.661-4.66,4.661s-4.66-2.087-4.66-4.661c0-2.573,2.086-4.66,4.66-4.66
			S295.191,202.399,295.191,204.973"/>
		<path display="inline" fill="#556730" stroke="#000000" stroke-width="3" stroke-linecap="round" stroke-linejoin="round" d="
			M141.741,410.309l-42.729-31.264c13.585-37.648,41.573-59.475,41.573-59.475s16.173,3.883,15.508,21.162
			c-0.664,17.278-8.311,56.916-8.311,56.916S143.584,401.199,141.741,410.309z"/>
		<path display="inline" fill="#556730" stroke="#000000" stroke-width="3" stroke-linecap="round" stroke-linejoin="round" d="
			M187.604,272.457c0,0-8.949,8.492-11.021,15.089s-4.415,12.954,0.818,51.157l1.062,0.804l22.375,14.843l-18.279,14.94
			c5.441,23.96,16.646,55.54,16.646,55.54l25.129,0.721c0,0-5-19.551-14.287-69.363C203,318.334,187.604,272.457,187.604,272.457z"
			/>
		<g display="inline">
			<path fill="#556730" stroke="#000000" stroke-width="3" stroke-linecap="round" stroke-linejoin="round" d="M147.783,397.648
				c5.498-32.037,8.331-44.861,8.331-58.273c0-15.251-15.528-19.805-15.528-19.805c12.628-20.604,35.996-32.024,35.996-32.024
				s-5.095,8.418,0.881,51.615l23.375,15.176l-18.279,14.953c0,0,8.191,32.585,16.646,55.54L150,414.654
				C150,405.766,150.58,405.438,147.783,397.648"/>
		</g>
		<path display="inline" fill="#FFFFFF" d="M250.455,301.615c-4.395,0.676-9.458,1.248-14.846,1.461
			c0.906,2.725,1.785,5.478,2.637,8.258c4.66,8.059,12.982,16.146,26.201,8.99C261.549,316.3,255.111,307.445,250.455,301.615"/>
		<path display="inline" fill="#556730" stroke="#000000" stroke-width="3" stroke-linecap="round" stroke-linejoin="round" d="
			M296.542,314.984c-6.424-13.736-28.704-22.368-28.704-22.368l3.662,20.245l31.244,106.02l19.486-11.734
			C310.459,357.553,313.225,366.978,296.542,314.984"/>
		<path display="inline" fill="none" stroke="#000000" stroke-width="3" stroke-linecap="round" stroke-linejoin="round" d="
			M250.455,301.615c-4.395,0.676-9.458,1.248-14.846,1.461c0.906,2.725,1.785,5.478,2.637,8.258
			c4.66,8.059,12.982,16.146,26.201,8.99C261.549,316.3,255.111,307.445,250.455,301.615L250.455,301.615z"/>
		<path display="inline" fill="#FFFFFF" d="M233.613,303.136c-13.183,0.289-27.952-1.702-39.26-9.562
			c3.01,10.191,5.715,20.11,8.135,29.69C216.736,327.396,234.285,327.596,233.613,303.136"/>
		<path display="inline" fill="none" stroke="#000000" stroke-width="3" stroke-linecap="round" stroke-linejoin="round" d="
			M233.613,303.136c-13.183,0.289-27.952-1.702-39.26-9.562c3.01,10.191,5.715,20.11,8.135,29.69
			C216.736,327.396,234.285,327.596,233.613,303.136L233.613,303.136z"/>
		<path display="inline" fill="#FFFFFF" stroke="#000000" stroke-width="3" stroke-linecap="round" stroke-linejoin="round" d="
			M224.277,429.667c-4.215-25.784-21.789-106.401-21.789-106.401S237,334,233.613,303.136c0.031,0.291,2.891,5.188,4.633,8.198l0,0
			c17.749,70.853,17.749,70.853,22.504,110.416L224.277,429.667z"/>
		<path display="inline" fill="#FFFFFF" stroke="#000000" stroke-width="3" stroke-linecap="round" stroke-linejoin="round" d="
			M287.432,414.875c-5.3-37.896-3.682-48.333-21.459-92.426c0,0-0.576-0.807-1.524-2.125c-13.22,7.154-21.541-0.933-26.201-8.99
			c0,0,18.542,64.916,22.504,110.416C260.75,421.75,288.059,419.369,287.432,414.875z"/>
		<path display="inline" fill="#556730" stroke="#000000" stroke-width="3" stroke-linecap="round" stroke-linejoin="round" d="
			M291.225,332.197l-10.19,13.512l16.172,8.197c0,0,7.754,28.799,5.539,64.465l-14.001,4.381
			c-2.979-24.654-6.76-68.283-22.771-100.303c0,0-12.007-16.844-17.807-23.615c-0.421-10.768,2.818-22.115,2.818-22.115
			c0.062-0.035,0.115-0.07,0.176-0.105l1.518,0.646c0,0,4.322,1.976,17.322,15.358S291.225,332.197,291.225,332.197l-10.19,13.512
			l0,0l16.172,8.197c0,0,7.754,28.799,5.539,64.465"/>
		<path display="inline" fill="#7E00B2" d="M236.062,307.605c0,0-13.07-20.158-17.943-17.943c-4.874,2.215-8.64,6.424-9.306,19.494
			c-0.664,13.069,3.103,27.469,8.418,27.914c5.317,0.441,19.718-19.275,19.718-19.275l7.753,0.223c0,0,8.42,13.734,13.069,13.515
			c4.652-0.223,10.191-12.185,10.191-20.604c0-8.417-2.658-19.938-8.64-20.159c0,0-8.196,2.881-14.843,16.615L236.062,307.605"/>
		<path display="inline" fill="none" stroke="#000000" stroke-width="3" stroke-linecap="round" stroke-linejoin="round" d="
			M236.062,307.605c0,0-13.07-20.158-17.943-17.943c-4.874,2.215-8.64,6.424-9.306,19.494c-0.664,13.069,3.103,27.469,8.418,27.914
			c5.317,0.441,19.718-19.275,19.718-19.275l7.753,0.223c0,0,8.42,13.734,13.069,13.515c4.652-0.223,10.191-12.185,10.191-20.604
			c0-8.417-2.658-19.938-8.64-20.159c0,0-8.196,2.881-14.843,16.615L236.062,307.605L236.062,307.605z"/>
		<path display="inline" fill="#7E00B2" d="M241.157,301.623c0,0-7.31,0-6.867,6.869c0.442,6.867-1.771,13.069,4.431,13.514
			c6.202,0.444,9.303-4.209,9.082-11.741S243.594,301.623,241.157,301.623"/>
		<path display="inline" fill="none" stroke="#000000" stroke-width="3" stroke-linecap="round" stroke-linejoin="round" d="
			M241.157,301.623c0,0-7.31,0-6.867,6.869c0.442,6.867-1.771,13.069,4.431,13.514c6.202,0.444,9.303-4.209,9.082-11.741
			S243.594,301.623,241.157,301.623L241.157,301.623z"/>
		<path display="inline" fill="#556730" stroke="#000000" stroke-width="3" stroke-linecap="round" stroke-linejoin="round" d="
			M291.542,307.984c0,0,31.75,29.35,50.416,84.017l-19.728,14.635L291.542,307.984z"/>
		<path display="inline" fill="#556730" stroke="#000000" stroke-width="3" stroke-linecap="round" stroke-linejoin="round" d="
			M321.5,416.01"/>
		<path display="inline" fill="#556730" stroke="#000000" stroke-width="3" stroke-linecap="round" stroke-linejoin="round" d="
			M341.958,408.25"/>
		<path display="inline" fill="#556730" stroke="#000000" stroke-width="3" stroke-linecap="round" stroke-linejoin="round" d="
			M296.542,314.984"/>
		<g display="inline">
			<path fill="#F0F1F2" d="M226,436.5c-31.77,0-62.048-6.223-89.8-19.021c-25.146-11.596-47.418-28.174-66.196-49.271
				C35.048,328.929,15,276.915,15,225.5c0-56.363,21.947-109.351,61.798-149.202C116.649,36.447,169.637,14.5,226,14.5
				c56.363,0,109.352,21.947,149.202,61.798C415.053,116.149,437,169.137,437,225.5c0,78.176-42.898,149.582-111.958,186.354
				c-4.11,2.202-8.353,4.281-12.606,6.185c-0.494,0.231-0.973,0.44-1.449,0.649l-0.846,0.371
				C283.766,430.544,268.752,436.5,226,436.5z M225.508,27.113c-109.195,0-198.033,88.837-198.033,198.034
				c0,109.195,88.838,198.032,198.033,198.032c109.196,0,198.033-88.837,198.033-198.032
				C423.541,115.95,334.704,27.113,225.508,27.113z"/>
		</g>
		<g id="Layer_3_5_" display="inline">
		</g>
	</g>
	<circle display="inline" fill="#6AADE4" stroke="#6AADE4" stroke-miterlimit="10" cx="226" cy="225.64" r="199.77"/>
	<g display="inline">
		
			<path fill="#FFFFFF" stroke="#000000" stroke-width="3" stroke-linecap="round" stroke-linejoin="round" stroke-miterlimit="10" d="
			M287.834,325.333c3.663,11.292,6.541,22.792,10.166,42.333c-8.588-3.308-8.588-3.308-20.394-8.519"/>
		
			<path fill="#FFFFFF" stroke="#000000" stroke-width="3" stroke-linecap="round" stroke-linejoin="round" stroke-miterlimit="10" d="
			M276.77,361.916l11.064-36.583c0,0-15.559-5.305-24.167-6.833C263.667,318.5,255.841,354.332,276.77,361.916z"/>
	</g>
	
		<path id="Tte_4_" display="inline" fill="#FFD90F" stroke="#000000" stroke-width="3" stroke-linecap="round" stroke-linejoin="round" stroke-miterlimit="10" d="
		M261.458,228.792c0,0,1.913,58.821,2.496,78.654c0,29.74,2.232,42.804,12.966,53.784c0,0,4.363,6.34,6.01,9.77H165.5l1.468-51.182
		c0,0,7.532-41.069,4.199-68.402l-7.334-26.916l-20.501-59.875c-14.166-39.333-5.869-75.062,42.25-89.729
		c47.002-14.334,78.585,5.604,89.918,39.854l10.354,29.765c0,0,8.515,3.072,4.627,14.407c0,0-16.253,32.578-16.253,43.1"/>
	<path display="inline" fill="#FFFFFF" stroke="#000000" stroke-width="3" stroke-miterlimit="10" d="M276,154.833
		c-10.404,0-19.462,5.746-24.188,14.234c5.68,5.775,9.188,13.693,9.188,22.433c0,4.406-0.892,8.604-2.502,12.425
		c4.425,4.425,10.861,6.242,17.502,6.242c15.28,0,27.667-12.387,27.667-27.667C303.667,167.22,291.28,154.833,276,154.833z"/>
	<circle display="inline" cx="273.375" cy="189.625" r="4.5"/>
	<g id="BOuche" display="inline">
		<path fill="#D1B270" stroke="#000000" stroke-width="3" stroke-miterlimit="10" d="M222.562,274.219
			c24.5,17.333,69.104,10.983,82.277,4.281c5.576-2.416,8.993-5.833,9.521-10.583c0.472-6.5-5.862-10.084-5.862-10.084
			c-1-20-12.666-33.333-12.666-33.333s-22.222,1.797-33.667,3.667c-24.334,3.977-37.083,12.75-45.583,21.25
			c-11.021,11.761-12.167,25.286-11.089,34.249C208,299.5,219.75,315.5,241.834,315.5c21.791,0,30.354-18.312,30.354-18.312
			s9.438-3.312,9.634-12.802"/>
	</g>
	
		<path display="inline" fill="none" stroke="#000000" stroke-width="3" stroke-linecap="round" stroke-linejoin="round" stroke-miterlimit="10" d="
		M219.219,278.375c0,0,0.156-2.031,2.562-4.656c2.594-2.393,4.969-2.688,4.969-2.688"/>
	<g display="inline">
		<path id="Tte_1_" fill="#FFD90F" stroke="#000000" stroke-width="3" stroke-miterlimit="10" d="M254.229,202.021
			c10.159,1.274,19.762,0.807,29.605-0.489C295,199.333,302.25,204.5,302.25,214c0,7.333-6.916,12.5-16.75,13.5
			c-11.167,1.561-23.333-0.166-28.225,1.561"/>
	</g>
	<circle display="inline" fill="#FFFFFF" stroke="#000000" stroke-width="3" stroke-miterlimit="10" cx="229" cy="191.5" r="32"/>
	<circle display="inline" cx="214.375" cy="197.625" r="4.5"/>
	<path display="inline" fill="none" stroke="#000000" stroke-width="3" stroke-miterlimit="10" d="M261.486,229.842"/>
	<path display="inline" fill="none" stroke="#000000" stroke-width="3" stroke-miterlimit="10" d="M259.417,202.167"/>
	
		<path display="inline" fill="#FECB00" stroke="#000000" stroke-width="3" stroke-linecap="round" stroke-linejoin="round" stroke-miterlimit="10" d="
		M177.667,224.5c-12.667-4.667-20.333,5-19.167,14.333c1.667,10,11.426,14,23,8.5"/>
	<g display="inline">
		<path fill="none" stroke="#000000" stroke-width="2" stroke-linecap="round" stroke-linejoin="round" stroke-miterlimit="10" d="
			M164.333,235.167c0,0,3-3.167,6.917-3.167c4.25,0,6.917,2.75,6.917,2.75"/>
		<path fill="none" stroke="#000000" stroke-width="2" stroke-linecap="round" stroke-linejoin="round" stroke-miterlimit="10" d="
			M172.911,232.144c0,0-5.661,3.023-3.828,9.976"/>
	</g>
	
		<path display="inline" fill="none" stroke="#000000" stroke-width="3" stroke-linecap="round" stroke-linejoin="round" stroke-miterlimit="10" d="
		M147.167,225.5c-1.103-3.309-4.5-25.667-2.667-26.5c1.688-0.688,18.468,18.084,20.5,20.833c0.213-6.33,0.333-29.083,0.333-29.083
		c2.5-0.917,13,18.25,15.167,25.5"/>
	
		<path display="inline" fill="none" stroke="#000000" stroke-width="3" stroke-linecap="round" stroke-linejoin="round" stroke-miterlimit="10" d="
		M173.342,93.941c-6.092-19.816,3.127-37.004,18.864-40.13c14.366-2.854,27.213,3.251,33.745,17.22"/>
	
		<path display="inline" fill="none" stroke="#000000" stroke-width="3" stroke-linecap="round" stroke-linejoin="round" stroke-miterlimit="10" d="
		M152.688,101.562c-7.938-20.812,3.248-37.789,18.762-42.062c17.68-4.871,31.052,5.125,36.139,23.853"/>
	
		<path display="inline" fill="#FFFFFF" stroke="#000000" stroke-width="3" stroke-linecap="round" stroke-linejoin="round" stroke-miterlimit="10" d="
		M317.75,402.583c0,0-15.5-26.083-36.672-34.917l23.054,41.18L317.75,402.583z"/>
	
		<path display="inline" fill="#FFFFFF" stroke="#000000" stroke-width="3" stroke-linecap="round" stroke-linejoin="round" stroke-miterlimit="10" d="
		M305.592,408.247c-27.426,11.671-51.617,16.754-79.967,16.754c-8.99,0-17.955-0.757-26.625-1.917c0,0-7.31-50.614-44-53.584
		c-1.77,0-3.49,0.13-5.14,0.38c2.14-7.505,3.654-15.963,9.779-23.005c3.86-2.72,80.36-8.541,80.36-8.541l35.96,31.586
		c0,0,1.79-6.72,2.96-8.688C284.32,367.98,303.625,403.125,305.592,408.247z"/>
	<g display="inline">
		
			<path fill="#FFFFFF" stroke="#000000" stroke-width="3" stroke-linecap="round" stroke-linejoin="round" stroke-miterlimit="10" d="
			M158.674,312.189c-2.892,9.046-7.994,22.727-8.994,34.144c-0.136,1.552,0.73,2.25,1.875,3.395
			c25.945,18.605,75.195,30.022,75.195,30.022L238,338.334c-31.75,0-106.375-27.834-69.416-28.674l-1.384,8.84"/>
	</g>
	<path display="inline" fill="#FFFFFF" stroke="#000000" stroke-width="3" stroke-miterlimit="10" d="M199,423.084
		c-20.75-1.625-51.375-8.584-82.625-29.584c0,0,12.995-24,36.625-24C191.167,370.417,199,423.084,199,423.084z"/>
	<g display="inline">
		<path fill="#F0F1F2" d="M226.5,437c-32.219,0-62.432-6.399-89.8-19.021c-25.146-11.596-47.418-28.174-66.196-49.272
			C35.548,329.429,15.5,277.415,15.5,226c0-56.363,21.947-109.351,61.798-149.202C117.149,36.947,170.137,15,226.5,15
			s109.351,21.947,149.202,61.798C415.553,116.649,437.5,169.637,437.5,226c0,78.176-42.899,149.582-111.958,186.354
			c-4.111,2.202-8.352,4.281-12.606,6.184c-0.495,0.232-0.973,0.44-1.449,0.65l-0.846,0.371C284.067,431.13,255.753,437,226.5,437z
			 M226.008,27.613c-109.195,0-198.033,88.837-198.033,198.034c0,109.195,88.837,198.032,198.033,198.032
			s198.033-88.837,198.033-198.032C424.041,116.45,335.204,27.613,226.008,27.613z"/>
		<path fill="none" d="M226.5,16.5c28.285,0,55.723,5.539,81.549,16.461c24.947,10.551,47.353,25.657,66.593,44.897
			c19.24,19.24,34.347,41.646,44.897,66.592C430.462,170.277,436,197.714,436,225.999c0,38.717-10.643,76.535-30.777,109.367
			c-19.574,31.921-47.372,58.085-80.393,75.667c-4.076,2.184-8.283,4.247-12.507,6.133l-0.03,0.014l-0.031,0.016
			c-0.451,0.214-0.914,0.416-1.378,0.617c-0.285,0.125-0.571,0.25-0.826,0.364C283.658,429.672,255.546,435.5,226.5,435.5
			c-32,0-62.002-6.354-89.172-18.883c-24.958-11.509-47.064-27.965-65.704-48.908c-17.49-19.652-31.18-42.341-40.691-67.435
			C21.818,276.224,17,250.54,17,226c0-28.285,5.539-55.722,16.461-81.549c10.551-24.947,25.657-47.352,44.897-66.592
			c19.239-19.24,41.646-34.346,66.592-44.897C170.778,22.039,198.215,16.5,226.5,16.5 M226.008,425.179
			c26.937,0,53.067-5.275,77.669-15.682c23.761-10.05,45.1-24.438,63.423-42.761s32.71-39.662,42.761-63.423
			c10.404-24.603,15.682-50.732,15.682-77.669c0-26.936-5.276-53.066-15.682-77.667c-10.051-23.761-24.438-45.099-42.761-63.423
			c-18.323-18.324-39.662-32.71-63.423-42.76c-24.602-10.406-50.732-15.682-77.669-15.682c-26.936,0-53.066,5.276-77.668,15.682
			c-23.761,10.05-45.099,24.437-63.423,42.76c-18.324,18.323-32.71,39.662-42.76,63.423c-10.406,24.601-15.683,50.732-15.683,77.667
			c0,26.937,5.276,53.066,15.683,77.669c10.05,23.761,24.437,45.1,42.76,63.423c18.324,18.323,39.662,32.711,63.423,42.761
			C172.941,419.902,199.072,425.179,226.008,425.179 M226.5,13.5C109.133,13.5,14,108.633,14,226c0,99.875,76.854,212.5,212.5,212.5
			c30.124,0,58.791-6.267,84.755-17.571c0.768-0.344,1.544-0.668,2.292-1.021c4.318-1.929,8.549-4.004,12.7-6.229
			C393.332,377.957,439,307.312,439,226C439,108.633,343.867,13.5,226.5,13.5L226.5,13.5z M226.008,422.179
			c-108.542,0-196.533-87.99-196.533-196.532c0-108.542,87.991-196.534,196.533-196.534c108.543,0,196.533,87.991,196.533,196.534
			C422.541,334.188,334.551,422.179,226.008,422.179L226.008,422.179z"/>
	</g>
</g>
<g id="Layer_3_2_">
	<circle fill="#6AADE4" stroke="#6AADE4" stroke-miterlimit="10" cx="229.969" cy="225.855" r="199.77"/>
	<path fill="#FFFFFF" stroke="#000000" d="M168.818,346.321c5.946-10.846,16.961-26.352,37.135-44.536
		c0.103-0.094,0.205-0.191,0.308-0.283c-1.415-15.078-3.857-33.262-5.059-41.877c-2.023-0.488-4.008-1.072-5.943-1.762
		c-1.908-0.68-3.688-1.396-5.37-2.137c-5.133,4.293-17.539,16.512-25.173,39.342c-0.189,14.314,0.526,29.937,2.97,45.343
		L168.818,346.321"/>
	<path fill="none" stroke="#000000" stroke-width="3" stroke-linecap="round" stroke-linejoin="round" d="M168.818,346.321
		c5.946-10.846,16.961-26.352,37.135-44.536c0.103-0.094,0.205-0.191,0.308-0.283c-1.415-15.078-3.857-33.262-5.059-41.877
		c-2.023-0.488-4.008-1.072-5.943-1.762c-1.908-0.68-3.688-1.396-5.37-2.137c-5.133,4.293-17.539,16.512-25.173,39.342
		c-0.189,14.314,0.526,29.937,2.97,45.343L168.818,346.321L168.818,346.321z"/>
	<path fill="#FB0F0C" stroke="#000000" d="M168.818,346.321c4.758-8.68,12.756-20.338,26.098-33.967l-0.89-27.54l-12.575-5.031
		l-16.743,22.299c0.104,12.331,0.927,25.399,2.978,38.329L168.818,346.321"/>
	<path fill="none" stroke="#000000" stroke-width="3" stroke-linecap="round" stroke-linejoin="round" d="M168.818,346.321
		c4.758-8.68,12.756-20.338,26.098-33.967l-0.89-27.54l-12.575-5.031l-16.743,22.299c0.104,12.331,0.927,25.399,2.978,38.329
		L168.818,346.321L168.818,346.321z"/>
	<path fill="#FB0F0C" stroke="#000000" d="M183.605,252.836l-3.592,7.186l1.438,19.762l12.575,5.031l14.731-18.326l0.739-7.488
		c-11.568-1.326-18.902-4.734-24.023-7.625C185.371,251.41,183.605,252.836,183.605,252.836"/>
	<path fill="none" stroke="#000000" stroke-width="3" stroke-linecap="round" stroke-linejoin="round" d="M183.605,252.836
		l-3.592,7.186l1.438,19.762l12.575,5.031l14.731-18.326l0.739-5.363c-11.568-1.326-20.607-5.455-25.729-8.346
		C183.666,252.814,183.605,252.836,183.605,252.836L183.605,252.836z"/>
	<path fill="#FFFFFF" stroke="#000000" d="M193.333,252c-10.365-4.558-20.6-10.181-24.333-15c-1.533,9.114-3.961,33.57-4.284,58.068
		C172.35,272.238,188.201,256.293,193.333,252"/>
	<path fill="none" stroke="#000000" stroke-width="3" stroke-linecap="round" stroke-linejoin="round" d="M189.889,255.727
		c-10.365-4.558-16.606-10.107-20.34-14.927c-1.533,9.114-4.51,29.771-4.833,54.269C172.35,272.238,184.756,260.02,189.889,255.727
		L189.889,255.727z"/>
	<path fill="#FFFFFF" stroke="#000000" stroke-width="3" stroke-linecap="round" stroke-linejoin="round" d="M200.333,255.727
		c1.201,8.615,4.512,30.697,5.927,45.775c8.686-7.805,17.245-14.328,31.439-24.73c11.596-12.253,23.729-28.597,23.729-28.597
		s-37.805,9.2-58.43,8.075L200.333,255.727z"/>
	<path fill="#294294" stroke="#000000" stroke-width="3" d="M171.506,358.728l-5.459,40.73
		c-30.406-23.516-32.369-90.44-32.369-99.571c0-9.455,18.912-14.709,18.912-14.709h-16.811c-5.529-5.53,11.508-31.844,20.306-44.566
		c0.93-0.572,1.864-1.133,2.811-1.666l10.053-2.742l1.505-0.411C170.453,235.792,156.794,303.039,171.506,358.728"/>
	<path fill="none" stroke="#000000" stroke-width="3" stroke-linecap="round" stroke-linejoin="round" d="M171.506,358.728
		l-5.459,40.73c-30.406-23.516-32.369-90.44-32.369-99.571c0-9.455,18.912-14.709,18.912-14.709h-16.811
		c-5.529-5.53,11.508-31.844,20.306-44.566c0.93-0.572,1.864-1.133,2.811-1.666l10.053-2.742l1.505-0.411
		C170.453,235.792,156.794,303.039,171.506,358.728L171.506,358.728z"/>
	<path fill="#294294" stroke="#000000" stroke-width="3" d="M79.784,365.967c15.623-50.4,39.894-102.91,76.301-125.355
		c-8.798,12.723-25.835,39.036-20.306,44.566h16.811c0,0-18.912,5.254-18.912,14.709l0,0c0,9.131,1.963,76.056,32.369,99.571
		l-2.324,17.338C163.723,416.796,86.734,395.767,79.784,365.967"/>
	<path fill="none" stroke="#000000" stroke-width="3" stroke-linecap="round" stroke-linejoin="round" d="M157.779,461.145"/>
	<path fill="none" stroke="#000000" stroke-width="3" stroke-linecap="round" stroke-linejoin="round" d="M38.124,327.704"/>
	<g>
		<path fill="#294294" stroke="#000000" stroke-width="3" d="M78.377,370.581c15.559-51.776,40.188-106.837,77.708-129.97
			c0,0-27.067,10.887-41.356,25.97l0,0c0,0-22.623,28.577-34.531,35.722c-11.906,7.145-25.531,10.75-38.822,12.178L78.377,370.581z
			 M78.439,303.324c0,0,10.561,2.843,14.459,7.71 M83.617,299.913c0,0,5.217,0.42,7.296,3.183"/>
		<path fill="#294294" stroke="#000000" stroke-width="3" d="M9.944,364.618"/>
	</g>
	<path fill="none" stroke="#000000" stroke-width="3" stroke-linecap="round" stroke-linejoin="round" d="M256.613,303.039
		l-9.456-24.166c0,0,3.154,6.305,14.711,9.457c11.56,3.15,15.761-4.203,15.761-4.203c11.558-17.863,13.661-54.639,13.661-54.639
		c0-9.457-15.763-14.711-15.763-14.711c-6.305,33.623-37.827,61.994-37.827,61.994c-69.347,48.333-75.652,86.159-75.652,86.159
		l-4.765,24.662c23.654-19.006,93.028-68.791,93.028-68.791C262.92,311.446,256.613,303.039,256.613,303.039L256.613,303.039z"/>
	<path fill="#294294" stroke="#000000" stroke-width="3" d="M151.896,415.479l5.387-27.887
		c23.654-19.006,93.028-68.791,93.028-68.791c12.608-7.355,6.302-15.763,6.302-15.763l-9.456-24.166c0,0,3.154,6.305,14.711,9.457
		c11.56,3.15,15.761-4.203,15.761-4.203c11.558-17.863,13.661-54.639,13.661-54.639s25.216,22.066,34.673,37.826l0,0
		c0,0,16.272,54.88,29.828,115.232L273.5,423.874L151.896,415.479z"/>
	<path fill="none" stroke="#000000" stroke-width="3" stroke-linecap="round" stroke-linejoin="round" d="M373.247,513.237"/>
	<path fill="none" stroke="#000000" stroke-width="3" stroke-linecap="round" stroke-linejoin="round" d="M234.549,520.593"/>
	<path fill="#9A9999" stroke="#000000" d="M171.58,402.405c0,3.031-2.457,5.488-5.488,5.488s-5.49-2.457-5.49-5.488
		s2.459-5.488,5.49-5.488S171.58,399.374,171.58,402.405"/>
	<path fill="none" stroke="#000000" stroke-width="3" stroke-linecap="round" stroke-linejoin="round" d="M171.58,402.405
		c0,3.031-2.457,5.488-5.488,5.488s-5.49-2.457-5.49-5.488s2.459-5.488,5.49-5.488S171.58,399.374,171.58,402.405L171.58,402.405z"
		/>
	<path fill="#FB0F0C" stroke="#000000" d="M281.348,339.556c3.373-7.104-8.169-2.664-8.169-2.664l-0.709-0.889
		c-3.019,1.066-6.214,0.355-6.214,0.355c0.709-3.373-2.486-5.682-6.394-2.662c-3.134,2.42-8.315,4.268-10.246,4.904
		c5.175,1.371,18.092,4.561,30.829,5.883C280.508,342.411,281.348,339.556,281.348,339.556"/>
	<path fill="none" stroke="#000000" stroke-width="3" stroke-linecap="round" stroke-linejoin="round" d="M281.348,339.556
		c3.373-7.104-8.169-2.664-8.169-2.664l-0.709-0.889c-3.019,1.066-6.214,0.355-6.214,0.355c0.709-3.373-2.486-5.682-6.394-2.662
		c-3.134,2.42-8.315,4.268-10.246,4.904c5.175,1.371,18.092,4.561,30.829,5.883C280.508,342.411,281.348,339.556,281.348,339.556
		L281.348,339.556z M247.255,337.956c0,0,23.44,6.748,42.082,7.104"/>
	<path fill="#294294" stroke="#000000" stroke-width="3" d="M256.613,303.039l-9.456-24.166c0,0,3.154,6.305,14.711,9.457
		c11.56,3.15,15.761-4.203,15.761-4.203c11.558-17.863,13.661-54.639,13.661-54.639c0-9.457-15.763-14.711-15.763-14.711
		c-6.305,33.623-37.827,61.994-37.827,61.994c-69.347,48.333-75.652,86.159-75.652,86.159l-4.765,24.662
		c23.654-19.006,93.028-68.791,93.028-68.791C262.92,311.446,256.613,303.039,256.613,303.039"/>
	<path fill="#FFFFFF" stroke="#000000" stroke-width="3" stroke-linecap="round" stroke-linejoin="round" d="M296.245,415.562
		c-24.636-11.24-57.625-31.657-84.812-67.341c-50.435-66.196-40.978-126.089-40.978-126.089l0,0l-35.726,13.659
		c-43.081,48.335,39.928,151.307,39.928,151.307c13.765,17.339,27.346,31.15,40.408,42.133L296.245,415.562z"/>
	<g>
		<path fill="#294294" stroke="#000000" stroke-width="3" d="M384.03,355.216c-13.286-47.503-33.869-95.231-62.802-94.132
			c0,0-21.533,9.383-14.18,48.26c0,0,6.219,51.214,10.451,95.608L384.03,355.216z"/>
	</g>
	<path fill="none" stroke="#000000" stroke-width="4" stroke-linecap="round" stroke-linejoin="round" d="M133.678,273.619
		l23.116-4.203l-8.405,9.457l14.711,5.254l-22.066,12.607 M142.085,306.191l30.471-3.152l-22.065,22.065 M156.84,304.961
		l4.159,9.243 M176.76,313.548l-4.667,15.451l-14.247,9.766 M188.273,330.847l-16.181-1.848 M194.515,345.177
		c0,0-6.198-9.564-20.909-0.107c-14.71,9.457-4.201,18.912-4.201,18.912s6.748,7.91,19.964-3.15
		C200.062,351.88,194.515,345.177,194.515,345.177L194.515,345.177z M185.164,380.794l23.116-21.014c0,0,13.769,8.516,6.304,15.762
		c-9.438,9.16-17.989-4.939-17.989-4.939 M199.876,395.503l4.347-17.273"/>
	<path fill="#FFD90F" stroke="#000000" stroke-width="3" stroke-linecap="round" stroke-linejoin="round" d="M266.722,169.564
		c0,0,15.567-6.486,15.567,11.674c0,0-5.189,22.485-18.593,7.784c0,0,10.378,6.053,12.54,34.159l-14.807,24.993
		c0,0-27.569,20.842-65.62,9.167c-38.052-11.675-32.864-40.213-32.864-40.213s-35.456-11.676-7.781-28.54
		c0,0,2.16-18.16,12.538-22.484c0,0,0-5.621,3.028-6.053l25.079-8.648c0,0-13.405-6.919-25.079-2.595c0,0,2.594-6.486,7.781-7.783
		c0,0-2.16-5.189,5.189-6.054l5.622-9.513c0,0,9.512-5.621,21.619-9.512c0,0-3.891,8.215-2.162,11.674
		c0,0,33.728-33.295,62.699-11.674c0,0-14.701,28.105-13.405,38.483c0,0,0.865-2.594,6.486-3.891
		C264.561,150.539,261.966,162.213,266.722,169.564L266.722,169.564z M276.667,176.05c0,0-6.486-1.298-8.647,3.026
		c0,0,9.08-4.756,5.188,5.189 M213.538,169.997c0,0,28.105,0.431,38.051,10.81 M246.833,198.535c0,0,15.133,6.918,13.402,15.999
		 M242.508,207.183c0,0,7.18,2.192,9.081,7.784 M198.404,231.83 M179.378,220.588 M216.132,191.184 M196.241,199.399
		 M205.321,143.188 M248.329,210.417c0,0-44.736,17.954-85.384,6.711 M194.511,141.026c0,0,6.055,3.459,2.596,10.378
		 M252.022,153.133 M255.048,164.375 M214.836,152.701 M225.644,144.485"/>
	<path fill="#FFD90F" d="M188.85,126.261l0.474-0.802c0,0,9.512-5.621,21.619-9.512c0,0-3.891,8.215-2.162,11.674
		c0,0,33.728-33.295,62.699-11.674c0,0-14.701,28.105-13.405,38.483c0,0,0.865-2.594,6.486-3.891c0,0-2.595,11.675,2.161,19.026
		c0,0,12.579-5.232,15.117,6.909c25.763-27.153,1.314-55.338,1.314-55.338c1.298-19.458-27.672-25.944-27.672-25.944
		c-69.185-8.215-94.265,51.456-94.265,51.456C171.873,134.808,182.93,128.845,188.85,126.261"/>
	
		<path fill="#A24E00" stroke="#000000" stroke-width="3" stroke-linecap="round" stroke-linejoin="round" stroke-miterlimit="10" d="
		M188.85,126.261l0.474-0.802c0,0,9.512-5.621,21.619-9.512c0,0-3.891,8.215-2.162,11.674c0,0,33.728-33.295,62.699-11.674
		c0,0-14.701,28.105-13.405,38.483c0,0,0.865-2.594,6.486-3.891c0,0-2.595,11.675,2.161,19.026c0,0,12.579-5.232,15.117,6.909
		c25.763-27.153,1.314-55.338,1.314-55.338c1.298-19.458-27.672-25.944-27.672-25.944c-69.185-8.215-94.265,51.456-94.265,51.456
		C171.873,134.808,182.93,128.845,188.85,126.261L188.85,126.261z"/>
	<path fill="#FFFFFF" stroke="#000000" d="M219.179,151.812c-2.321,3.205-3.694,7.142-3.694,11.402c0,2.139,0.351,4.195,0.987,6.121
		c5.57,0.266,22.393,1.562,32.238,7.629c3.516-3.521,5.69-8.381,5.69-13.75c0-0.5-0.025-0.994-0.062-1.484
		C244.509,152.252,226.524,151.63,219.179,151.812"/>
	<path fill="none" stroke="#000000" stroke-width="3" stroke-linecap="round" stroke-linejoin="round" d="M218.097,152.541
		c-2.321,3.205-3.694,7.142-3.694,11.402c0,2.139,0.351,4.195,0.987,6.121c5.57,0.266,22.393,1.562,32.238,7.629
		c3.516-3.521,5.69-8.381,5.69-13.75c0-0.5-0.025-0.994-0.062-1.484C243.427,152.982,225.442,152.36,218.097,152.541
		L218.097,152.541z"/>
	<path fill="#FFFFFF" stroke="#000000" d="M170.754,148.8c-1.115,1.798-1.754,3.863-1.754,6.063c0,6.926,6.291,12.54,14.053,12.54
		c0.345,0,0.683-0.024,1.021-0.046c3.697-5.773,8.429-11.295,12.489-15.602C193.663,150.401,181.019,145.014,170.754,148.8"/>
	<path fill="none" stroke="#000000" stroke-width="3" stroke-linecap="round" stroke-linejoin="round" d="M170.754,148.8
		c-1.115,1.798-1.754,3.863-1.754,6.063c0,6.926,6.291,12.54,14.053,12.54c0.345,0,0.683-0.024,1.021-0.046
		c3.697-5.773,8.429-11.295,12.489-15.602C193.663,150.401,181.019,145.014,170.754,148.8L170.754,148.8z"/>
	<path stroke="#000000" d="M236.888,163.511c0,1.911-1.55,3.459-3.46,3.459c-1.911,0-3.459-1.548-3.459-3.459
		s1.548-3.459,3.459-3.459C235.338,160.052,236.888,161.6,236.888,163.511"/>
	<path stroke="#000000" d="M184.998,154.863c0,1.911-1.548,3.459-3.457,3.459c-1.912,0-3.461-1.548-3.461-3.459
		s1.549-3.459,3.461-3.459C183.45,151.404,184.998,152.952,184.998,154.863"/>
	<path fill="none" stroke="#000000" stroke-width="3" stroke-linecap="round" stroke-linejoin="round" d="M79.784,365.967"/>
	<path fill="#FFD90F" stroke="#000000" stroke-width="3" stroke-linecap="round" stroke-linejoin="round" d="M196.241,199.399
		c0,0,13.404,2.163,19.891-8.215"/>
	<path fill="#FFD90F" stroke="#000000" stroke-width="3" stroke-linecap="round" stroke-linejoin="round" d="M205.321,143.188
		c0,0-55.347,48.429-9.08,56.211"/>
	<path fill="#FFD90F" stroke="#000000" stroke-width="3" stroke-linecap="round" stroke-linejoin="round" d="M179.378,220.588
		c0,0,0.433,10.377,19.026,11.242"/>
	<path fill="#FFD90F" stroke="#000000" stroke-width="3" stroke-linecap="round" stroke-linejoin="round" d="M225.644,144.485
		c0,0-6.484-0.433-10.808,8.216c0,0,28.536-2.595,40.212,11.675c0,0,0.866-6.486-3.025-11.242"/>
	<g>
		<path fill="#F0F1F2" d="M226.326,435.464c-32.219,0-62.432-6.399-89.8-19.021c-25.146-11.596-47.418-28.174-66.196-49.272
			c-34.956-39.277-55.004-91.291-55.004-142.706c0-56.363,21.947-109.351,61.798-149.202
			c39.852-39.851,92.839-61.798,149.202-61.798s109.351,21.947,149.202,61.798c39.851,39.851,61.798,92.839,61.798,149.202
			c0,78.176-42.899,149.582-111.958,186.354c-4.111,2.202-8.352,4.281-12.606,6.184c-0.495,0.232-0.973,0.44-1.449,0.65
			l-0.846,0.371C283.894,429.594,255.579,435.464,226.326,435.464z M225.834,26.077c-109.195,0-198.033,88.837-198.033,198.034
			c0,109.195,88.837,198.032,198.033,198.032s198.033-88.837,198.033-198.032C423.867,114.914,335.03,26.077,225.834,26.077z"/>
		<path fill="none" d="M226.326,14.964c28.285,0,55.723,5.539,81.549,16.461c24.947,10.551,47.353,25.657,66.593,44.897
			c19.24,19.24,34.347,41.646,44.897,66.592c10.923,25.827,16.461,53.264,16.461,81.549c0,38.717-10.643,76.535-30.777,109.367
			c-19.574,31.921-47.372,58.085-80.393,75.667c-4.076,2.184-8.283,4.247-12.507,6.133l-0.03,0.014l-0.031,0.016
			c-0.451,0.214-0.914,0.416-1.378,0.617c-0.285,0.125-0.571,0.25-0.826,0.364c-26.399,11.495-54.512,17.323-83.558,17.323
			c-32,0-62.002-6.354-89.172-18.883c-24.958-11.509-47.064-27.965-65.704-48.908c-17.49-19.652-31.18-42.341-40.691-67.435
			c-9.114-24.051-13.933-49.734-13.933-74.274c0-28.285,5.539-55.722,16.461-81.549c10.551-24.947,25.657-47.352,44.897-66.592
			c19.239-19.24,41.646-34.346,66.592-44.897C170.604,20.503,198.041,14.964,226.326,14.964 M225.834,423.643
			c26.937,0,53.067-5.275,77.669-15.682c23.761-10.05,45.1-24.438,63.423-42.761s32.71-39.662,42.761-63.423
			c10.404-24.603,15.682-50.732,15.682-77.669c0-26.936-5.276-53.066-15.682-77.667c-10.051-23.761-24.438-45.099-42.761-63.423
			c-18.323-18.324-39.662-32.71-63.423-42.76c-24.602-10.406-50.732-15.682-77.669-15.682c-26.936,0-53.066,5.276-77.668,15.682
			c-23.761,10.05-45.099,24.437-63.423,42.76c-18.324,18.323-32.71,39.662-42.76,63.423c-10.406,24.601-15.683,50.732-15.683,77.667
			c0,26.937,5.276,53.066,15.683,77.669c10.05,23.761,24.437,45.1,42.76,63.423c18.324,18.323,39.662,32.711,63.423,42.761
			C172.768,418.366,198.898,423.643,225.834,423.643 M226.326,11.964c-117.367,0-212.5,95.133-212.5,212.5
			c0,99.875,76.854,212.5,212.5,212.5c30.124,0,58.791-6.267,84.755-17.571c0.768-0.344,1.544-0.668,2.292-1.021
			c4.318-1.929,8.549-4.004,12.7-6.229c67.085-35.722,112.753-106.366,112.753-187.679
			C438.826,107.097,343.693,11.964,226.326,11.964L226.326,11.964z M225.834,420.643c-108.542,0-196.533-87.99-196.533-196.532
			c0-108.542,87.991-196.534,196.533-196.534c108.543,0,196.533,87.991,196.533,196.534
			C422.367,332.651,334.377,420.643,225.834,420.643L225.834,420.643z"/>
	</g>
</g>
<g id="Layer_2_1_">
</g>
</svg>
