<?xml version="1.0" encoding="utf-8"?>
<!-- Generator: Adobe Illustrator 17.1.0, SVG Export Plug-In . SVG Version: 6.00 Build 0)  -->
<!DOCTYPE svg PUBLIC "-//W3C//DTD SVG 1.0//EN" "http://www.w3.org/TR/2001/REC-SVG-20010904/DTD/svg10.dtd" [
	<!ENTITY ns_extend "http://ns.adobe.com/Extensibility/1.0/">
	<!ENTITY ns_ai "http://ns.adobe.com/AdobeIllustrator/10.0/">
	<!ENTITY ns_graphs "http://ns.adobe.com/Graphs/1.0/">
	<!ENTITY ns_vars "http://ns.adobe.com/Variables/1.0/">
	<!ENTITY ns_imrep "http://ns.adobe.com/ImageReplacement/1.0/">
	<!ENTITY ns_sfw "http://ns.adobe.com/SaveForWeb/1.0/">
	<!ENTITY ns_custom "http://ns.adobe.com/GenericCustomNamespace/1.0/">
	<!ENTITY ns_adobe_xpath "http://ns.adobe.com/XPath/1.0/">
]>
<svg version="1.0" xmlns:x="&ns_extend;" xmlns:i="&ns_ai;" xmlns:graph="&ns_graphs;"
	 xmlns="http://www.w3.org/2000/svg" xmlns:xlink="http://www.w3.org/1999/xlink" x="0px" y="0px" viewBox="0 0 283.5 283.5"
	 enable-background="new 0 0 283.5 283.5" xml:space="preserve">
<metadata>
	<sfw  xmlns="&ns_sfw;">
		<slices></slices>
		<sliceSourceBounds  width="262.6" height="262.6" x="15" y="10.4" bottomLeftOrigin="true"></sliceSourceBounds>
	</sfw>
</metadata>
<g id="Calque_2">
	<path fill="#EF8067" d="M146.3,20.8c-66.8,0-121,54.2-121,121c0,63.7,49.2,115.9,111.8,120.7c4,0.1,8.1,0.2,12.1,0.3
		c65.5-1.5,118.2-55.1,118.2-121C267.3,74.9,213.1,20.8,146.3,20.8z"/>
</g>
<g id="Calque_4">
	<g id="CHg5LJ.tif">
	</g>
	<g id="qPBgbt_1_">
		<g>
			<path fill="#040403" d="M25.7,187.3c10.3,23.6,27.4,42.5,47.8,57.4c0.5,0.1,1.1,0.2,1.7,0.4c0.6,0.2,1.2,0.1,1.8,0.2
				c1.1,0.2,2,0.7,2.5,1.7c0.4,0.9,0.9,1.9,1.3,2.8c1.5,1,3.1,2,4.6,3c-2.5-4.1-4.4-8.5-5.7-13.1c-0.6-1.9-0.4-3.6,0.8-5.3
				c5.3-7.6,10.4-15.3,16.5-22.2c6.2-7,13-13.4,21.7-17.3c0.8-0.4,1.6-1,3.1-0.6c-3.3,3.7-5.2,7.9-7.3,12c-0.4,0.8-1,1.5-1.9,1.8
				c-2.7,0.9-4,3-4.9,5.6c-1,2.7-1.4,5.5-1.2,8.4c0.1,1.7-0.4,3.1-1.6,4.4c-1.7,1.9-3.4,3.9-4.5,6.2c-1.4,2.8-2,5.7-0.3,8.7
				c0.7,1.3,0.3,2.3-0.4,3.5c-2.3,4.2-4.3,8.5-5.5,13.2c0.6,0.3,1.1,0.6,1.7,0.9c0.3,0.1,0.5,0.3,0.7,0.5c0-0.1,0-0.1,0-0.2
				c1.3-4.5,2.9-8.9,5.4-13c0.9-1.4,1.9-1.9,3.5-1.5c4.2,1.1,8.4,0.8,12.4-0.5c3.6-1.2,6.5-1.7,9.7,0.9c2.1,1.7,2.9,2.2,1.5,4.6
				c-1.6,3-2.9,6.1-3.8,9.4c-0.3,1-0.8,2-0.1,3.1h1.6c1.9-3.1,1.9-7,4.2-10.2c1.8,4.4,2.3,4.1,0.3,7.7c-0.4,0.7-0.9,1.6-0.2,2.5h1.6
				c0.3-0.3,0.6-0.6,0.8-1.1c0.6-2.1,1.8-2.8,3.9-1.7c0.8,0.4,2,0.5,2.8,0.2c2.8-1.1,4.4-0.5,4.7,2.6h1.1c0.4-0.4,0.7-0.9,0.6-1.4
				c-0.3-4.2,1.3-8.2,1.2-12.4c-0.1-4,3.6-6.2,7.1-4.4c7,3.6,14.2,6.9,21.3,10.4c3.7,1.8,7.5,3.6,11.4,4.3c-1.4,0.9-3.2,1.3-3.2,3.6
				h1.6c1.9-0.7,3.7-2,6-2c0.2,0.7-0.6,1.4-0.1,2h1.6c7.7-7.5,15.2-15.1,22.8-22.7c1.1-1.1,2.2-2.1,3.4-2.9c1.5-1,2.5-0.8,3.4,0.9
				c0.9,1.9,2.1,3.5,3.4,5c10.4-8.7,19.7-18.8,28.7-29.2c-0.4-3.8-2.7-5.6-6.7-5.1c-0.8,0.1-1.2,0-1.8-0.6c-2.7-3.1-5.1-3.4-8.6-1.2
				c-3.3,2-5.2,5.1-6.3,8.6c-0.6,1.9-1.1,2.8-3.4,2c-2.5-0.9-4.7,0.2-6.2,2.5c-1.4,2.1-1.1,4.3,0.3,6.2c1,1.4,2.2,2.5,3.3,3.8
				c1.2,1.5,2.7,2.9,2.2,5.1c-6.6-1.7-8.1-1.3-12.6,3.3c-6.3,6.3-12.6,12.5-18.9,18.8c-1.6,1.7-3.2,1.8-5.3,1.2
				c-13-3.6-24.5-10.7-36.7-16.2c-1.2-0.5-1.2-1-0.3-1.9c1.2-1.2,2.1-2.6,2.8-4.2c1-2.2,2.4-4.5,0.8-6.8c-1.7-2.3-4.4-1.9-6.9-1.7
				c-2.4,0.2-4.8,0.9-7.3,1.4c2.9-6.8,6.1-13.1,14-15c0.3-0.1,0.5-0.2,0.7-0.3c2.7-1.4,3.5-3.1,2.9-6.1c-0.2-0.8-0.4-1.5-0.6-2.3
				c-0.5-1.6,0.6-2.6,1.4-3.5c0.8-1,1.6,0.2,2.3,0.5c3.8,1.8,7.5,3.7,11.2,5.6c1,0.5,1.7,1,2,2.3c1.3,6.8,2.8,8,9.6,7.9
				c1.7,0,2.7,0.5,3.8,1.7c3.2,3.9,7.2,3.8,10.7,0.1c0.5-0.5,1-1.2,1.6-1.4c4.9-1.4,5.8-5.3,6-9.6c0.2-5.8-1.4-11.2-3.2-16.7
				c-0.3-1-1.2-2,0.5-2.9c5.5-3,7.7-8.2,6.2-13.7c-1.3-4.8-0.9-8.6,1.3-12.8c0.9-1.7,1.1-2.4,3.2-1.6c5.9,2.3,12.6,0.1,16.3-5.1
				c3.6-5.1,3.3-12.4-0.7-17.1c-1-1.2-3.8-7.9-4.2-9.3c-1-3.6-0.9-7.2-0.9-10.8c0-3.5-0.4-6.9-0.7-10.4c-0.5-5.3-1.8-10.4-3.5-15.7
				c3.3,0.5,5.7,2.2,8,4c2.6,2.1,4.7,4.6,6.9,7.1c0.3,0.4,0.6,1,1.2,0.8c0.6-0.2,0.7-0.7,0.7-1.3c0.3-7.9-1.4-17.4-10.5-22.3
				c-0.5-0.3-1.2-0.6-1.4-1.1c-3.4-6.4-10-9.1-15.3-13.2c-4.7-3.6-9.7-4.8-14.9-0.8c-1.5,1.2-5.4-0.3-6.1-2.1
				c-1.4-3.7-3.9-6.5-7.3-8.5c-3.9-2.2-8.2-3.2-12.7-3.7c-6-0.6-11.9-0.3-17.8,0.8c-0.6,0.1-1.5-0.1-1.5,0.7c0,1.1,1.1,0.6,1.6,0.8
				c0.6,0.1,1.2,0.1,1.9,0.1c4.7,0.5,8.5,2.7,12.1,6c-0.7,0.3-1.1,0.4-1.5,0.6c-12,4.6-18.9,13.3-21.5,25.8
				c-0.1,0.7-0.8,1.7,0.1,2.1c0.9,0.4,1.2-0.8,1.7-1.3c2.8-2.9,5.6-5.8,9.6-8.3c-3.1,5.6-4.8,10.9-6.1,16.5
				c-3.2,13.3-4.7,26.7-5.4,40.3c-0.1,1.6-0.2,2.5-2.2,1.8c-1.8-0.6-3.5,0.1-4.9,1.4c-3.4,3.1-4.8,9-3,13.2c0.6,1.3,1.3,2.7,2.6,3.3
				c1.7,0.8,1.7,1.8,1.3,3.3c-2.4,7.9-5.8,15.3-9.6,22.5c-0.4,0.7-0.9,1.2-1.6,1.7c-2.6,1.7-4.4,4.2-5,7.3c-0.3,1.4-0.9,1.9-2,2.4
				c-5.2,2.1-10,4.9-14.4,8.5c-0.5,0.4-1.1,1-1.7,1.2c-6.5,2-12.4,6.3-19.7,5.1c-1.5-0.2-3,0.2-4.5,0.2c-6.1,0.3-12.3,0.4-18.4,0.1
				c-2.1-0.1-2.8-0.8-1.9-3c1.3-3.5,2.3-7.1,3.5-10.6c2.2-6.5,4.8-12.8,7.7-19c1.2-2.5,2.3-5.3,0.3-7.8c-1.6-2-0.6-3.2,0.9-4.3
				c1.8-1.3,4-1.4,6.1-1.5c2.5-0.1,5-0.4,7.2-1.7c1.7-1,3.3-2.1,3.1-4.5c-0.2-2.3-1.4-4-3.4-5c-1.9-0.9-3.9-1.2-5.9-1.5
				c-1.4-0.3-2.8-0.6-4-1.5c-1.3-1-2-2-0.5-3.7c2.1-2.2,3-5,3-8c-0.1-3.2-2-6.1-4.5-6.5c-1.6-0.2-1.9-0.9-2.2-2.3
				c-0.9-4.1-3.5-5.5-7.5-4.3c-1.2,0.4-2.4,0.9-3.7,1.4c0-2.3,0.1-4.3-0.5-6.3c-0.9-3-4-4.1-6.6-2.5c-1.6,1-2.7,2.5-3.5,4.3
				c-1.2,2.7-1.6,5.6-1.9,8.5c-0.2,2.3,0.6,5-0.8,6.8c-4.2,5.6-4.3,11.9-3.8,18.3c0.1,2.1-0.4,2.4-2.3,2.2c-4.2-0.5-4.8,0-6.3,3.9
				c-3.7,9.2-6.3,18.7-9.4,28.1C25.4,186.7,25.5,187,25.7,187.3z"/>
			<path fill="#5A9B39" d="M84.2,251.9c3.5,2.2,7,4.3,10.6,6.3c1.2-4.5,2.9-8.8,5.3-12.7c1.1-1.8,2-3.4,0.1-5.3
				c-0.6-0.6-0.6-1.6-0.6-2.5c-0.1-3.1,1.4-5.8,3.4-7.9c3-3.1,4.5-6.3,4.3-10.8c-0.1-3.5,0.6-7.8,4.1-9.5c2.8-1.3,3.9-3.3,5-5.6
				c1.4-3.1,3.1-6,5.4-8.5c0.6-0.7,1-1.4,0.6-2.1c-0.6-1-1.5-0.1-2.1,0.2c-6.5,2.8-12.2,6.8-17.4,11.6c-9.5,9-16.7,19.8-24,30.4
				c-0.7,1-0.5,1.9-0.3,3C79.9,243.2,81.7,247.7,84.2,251.9z"/>
			<path fill="#5A9B39" d="M227.1,241.9c-1.2-1.4-2.3-2.8-3.2-4.5c-1.8-3.2-2-3.3-5-1.1c-0.6,0.4-1.1,0.9-1.6,1.4
				c-7.2,7.1-14.4,14.3-21.5,21.5c-0.8,0.8-2,1.5-2.1,2.9h1.7C207.1,257,217.5,250,227.1,241.9z"/>
			<path fill="#FEFEFE" d="M98.3,262h27c1-4.5,2.4-8.8,4.9-12.8c1.3-2,0.6-3.7-1.8-4.5c-1.5-0.5-2.8-1.3-3.7-2.5
				c-0.7-1-1.4-0.9-2.4-0.5c-5.8,2.5-11.8,3.5-18.1,1.7c-0.9-0.3-1.5-0.2-2,0.6c-2.7,4.7-5.1,9.5-6.3,14.7
				C97.4,259.7,98.1,260.8,98.3,262z"/>
			<path fill="#5A9B39" d="M146.1,262c-0.5-5.1,1.4-10.1,1-15.3c-0.2-2.4,4.8-5.2,7-4.1c7.9,3.8,15.8,7.6,23.6,11.5
				c3.6,1.8,7.4,2.9,11.5,4.3c-2.1,1-3.8,1.9-4.7,3.6C171.7,262,158.9,262,146.1,262z"/>
			<path fill="#5A9B39" d="M82,250.6c-0.8-1.5-1.5-3-2.2-4.5c-0.5-1.1-4.1-2-7.4-2.2C75.6,246.2,78.8,248.4,82,250.6z"/>
			<path fill="#FBFBFB" d="M126.9,262c0.4-4.2,2.1-7.9,4.2-11.9c0.9,2,1.6,3.6,2.4,5.2c0.5,0.9,0,1.3-0.3,1.9
				c-0.9,1.5-1.7,3.1-2.1,4.8C129.8,262,128.3,262,126.9,262z"/>
			<path fill="#5A9A39" d="M132.8,262c-0.2-1.1,0.5-2,0.9-3c0.6-1.5,1.2-1.9,2.9-0.9c2.8,1.7,5.6,0.5,8.5-1.1c0,1.9,0,3.5,0,5
				C141,262,136.9,262,132.8,262z"/>
			<path fill="#579339" d="M186.1,262c1.8-2.2,4.3-2.7,7.2-2.6c-0.5,1-0.9,1.8-1.3,2.6C190,262,188.1,262,186.1,262z"/>
			<path fill="#EEBC00" d="M122.7,196.5c1,1.4,0.3,4,2,3.7c1.2-0.2-0.3-2.4-0.5-3.7c-0.6-3.4-0.7-6.7,1.1-9.8c1.5-2.7,3.9-4,6.8-4.6
				c0.7-0.1,2,0,1.8-1c-0.2-1.3-1.3-0.3-2-0.3c-0.3,0-0.5,0-0.9,0c-0.3-0.9,0.3-1.5,0.7-2.1c3.6-6.9,6.8-13.9,8.7-21.4
				c0.5-2.1,1.9-1.4,3.1-1.5c0.6-0.1,1.4,0,1.4-0.8c0-0.9-0.9-0.7-1.5-0.6c-5.9,0.9-7.9-3.3-7.6-8.2c0.1-2,0.7-3.8,1.8-5.5
				c2.1-3.1,4.1-3.6,7.5-1.8c0.8,0.4,1.6,1.5,2.3,1c1.1-1-0.8-1.2-0.8-2c0-2.4,0.1-4.8,0.2-7.2c0.1-1.2,0.3-2.5,0.3-3.7
				c0.2-3.8,0.2-3.8,4-3c3.2,0.7,6.3,1.9,9.3,3.2c1.3,0.6,1.5,1.1,1.3,2.6c-1.3,6.6,0.5,12.2,5.5,14.6c4.4,2.1,9.2,3.9,13.9,4.5
				c8.7,1.2,15.5-4.6,16.6-13.4c0.2-2,0.9-2.5,2.6-2c0.9,0.2,2,0.2,2.9,0.4c3.1,0.9,3.4,1.4,1.8,4.3c-0.5,1-0.7,2-0.8,3.1
				c-0.4,9.8,0.4,19.3,5.3,28.1c2.1,3.8,2.9,7.8,1.5,12.1c-1.9,5.6-7.3,8.5-13.7,7.4c-4.5-0.8-8.2-3.1-11.3-6.5
				c-0.4-0.5-0.9-1.8-1.8-0.8c-0.7,0.7,0.4,1.2,0.8,1.6c4.6,5.2,10.3,7.7,17.3,7c0.8-0.1,1.6-0.4,1.9,0.8c2,6.3,4.2,12.7,3.3,19.5
				c-0.6,4.8-2.8,6.5-7.6,6c-6-0.7-11.5-3.2-16.6-6.1c-4.4-2.5-8.7-5.1-13.3-7.2c-8.7-4.1-16.7-9.8-25.7-13.3
				c-3.3-1.3-6.7-2.5-10.3-2c-1.9,0.2-3.7,0.7-3.8,3c-0.2,2.5,1,4.5,3.3,5.6c2.2,1,4.6,1.8,6.9,2.7c3.9,1.6,7.8,3.4,11.4,5.7
				c0.5,0.3,1,1,1.6,0.5c0.8-0.7-0.3-0.9-0.5-1.4c-0.5-1,1.5-4.9,2.8-5.6c2.1-1.2,3.3,0.7,4.6,1.6c0.9,0.6-0.3,2-0.8,1.9
				c-2.1-0.4-1.2,0.8-1,1.6c0.2,0.8,0.6,1.5,0.8,2.2c1.4,4.2,0.8,5.6-3.4,7c-5.5,1.9-9,5.7-11.5,10.7c-1.4,2.7-1.8,6-5.2,7.4
				c-0.9,0.4-1.5,0.8-2.1-0.4c-1-2.3-3.1-2.9-5.3-2.7c-1.4,0.1-1.8-0.3-2-1.6c-0.9-8-6.1-12.8-12.5-16.5c-1.3-0.7-1.6-1.2-0.9-2.5
				C118.2,203.3,119.8,199.6,122.7,196.5z"/>
			<path fill="#5A9B39" d="M71,242.8c1.4,0.2,2.9,0.3,4.3,0.4c3.6,0.3,3.9,0.3,2.5-3c-1.4-3.2-0.1-5.5,1.7-7.9
				c6.9-9.8,13.6-19.7,22.8-28.6c-4.4,1.3-7.3,3.6-10.2,5.8c-0.5,0.4-1,1.5-1.7,0.6c-0.8-0.9,0.6-1,0.9-1.5c0.2-0.3,0.6-0.4,0.4-1
				c-0.3,0-0.6-0.1-0.9-0.1c-9.5,0.3-19,1.3-28.5,0.5c-1.7-0.1-1.6,0.8-1.5,2c0.4,2.4-0.2,4.8-1.3,7.8c-1.1-3.6,1.3-6.6-0.6-9.4
				c-0.9,1.4-0.7,3.2-2.1,4.6c-0.2-0.6-0.4-0.9-0.3-1.1c0.1-0.6,0.3-1.2,0.5-1.8c3.6-12.4,7.6-24.7,13.2-36.4
				c1.8-3.8,1.4-4.1-2.6-4.6c-11.2-1.5-22-4.2-31.3-11.5c-0.5,1.3-1.2,2.6-1.6,3.9c-2.9,8.7-5.8,17.4-8.8,26.1
				C35.8,210.2,51.9,228.3,71,242.8z"/>
			<path fill="#EEBC00" d="M166.8,72.7c-4.3,5.2-6.3,10.9-8.3,16.5c-0.2,0.6-1,1.3-0.1,1.9c0.9,0.6,1.2-0.4,1.5-0.9
				c6.9-10.2,17.1-11,27.9-9.8c3.3,0.4,6.4,1.4,9.4,2.9c4.2,2.1,7.7,4.8,9.2,9.5c0.6,1.7,1.4,1.9,3,1.3c3.3-1.3,6.8-2.1,10.3-2.2
				c1.6-0.1,2.3,0.5,2.8,2c1.7,5.2,2.7,10.6,3.3,16.1c0.7,7-0.1,14,1.4,20.9c0.4,1.8-0.2,2.1-2.1,1.4c-5.9-2.1-11.8-2.7-17.1,1.6
				c-0.5,0.4-0.8,0.5-1.4,0.1c-2.2-1.7-4.9-2-7.6-2c-1.2,0-1.4-0.7-1.6-1.6c-2.1-7.2-7-11.1-14.4-11.6c-0.8-0.1-1.6-0.1-2.3-0.4
				c-7.3-3.4-13.5,0.5-16.7,6.1c-1.2,2.1-2,2.3-4,1.2c-3.3-1.7-6.9-2.8-10.6-3.3c-1.3-0.2-1.7-0.6-1.5-1.8c1.6-12.6,3.2-25.2,8-37
				c1.2-2.9,2.8-5.5,5.1-7.7C162.4,74.4,164.1,73.4,166.8,72.7z"/>
			<path fill="#EEBC00" d="M58.8,121.7c0.1,4.2-1.3,8.2-2.1,12.3c-0.1,0.7-0.7,1.6,0.3,1.8c1,0.2,0.9-0.9,1-1.5
				c0.5-2.2,1.1-4.5,1.5-6.7c0.6-3.1,4.3-5.5,7.4-5c1.6,0.3,2.6,1.3,3,2.7c1.2,4.7,0.7,9.2-2.1,13.2c-0.9,1.3-2.2,2.7-4,2.1
				c-1.7-0.6-2-2.3-2-4c0-1.7,0.1-3.4,0.1-5.1c0-0.5,0.4-1.1-0.5-1.3c-0.8-0.1-0.8,0.5-0.8,1c0,2.3-0.3,4.6,0,6.9
				c0.2,2,1.3,3.8,3.7,3.8c1.1,0,1.6,0.4,2,1.3c0.6,1.2,1.6,2.5,2.7,2.3c3.1-0.7,4.7,1.5,7,2.6c2.4,1.1,5.3,1.4,7.9,2.1
				c2.1,0.6,3.3,2,3.5,4.2c0.2,2.3-1.6,3-3.2,3.7c-2.2,1-4.6,1.1-7,1.3c-5.2,0.3-7.1,1.7-8.7,6.6c-0.5,1.6-1.1,1.9-2.8,1.6
				c-6.3-1-12.3-2.6-18.2-4.8c-1.2-0.4-2-1-2.2-2.3c-0.7-5.9-1.8-11.8-0.8-17.7c0.4-2.1,0.8-4.3,2.1-6c2.1-2.5,2.1-5.3,2.2-8.2
				c0.1-3.4,0.6-6.7,2-9.8c0.5-1.2,1.3-2.1,2.2-3c2.4-2,4.9-1,5.4,2.1C58.8,119.3,58.8,120.5,58.8,121.7z"/>
			<path fill="#828312" d="M161.2,85.8c2.8-7.5,5.9-13.8,13.2-16.9c7.5-3.1,15.2-3.7,23.1-1.5c4.4,1.2,6.9,4.8,10.2,7.5
				c0.8,0.6,1.4,2.5,2.5,1.5c0.8-0.7-0.9-1.6-1.6-2.3c-2.6-2.5-4.9-5.4-8.3-7c-1.4-0.7-0.8-1.3,0.1-1.8c1.6-0.8,3.3-1.4,5.1-1.1
				c3.6,0.5,6.4,2.5,9.3,5c-1.9,0.6-3.6-0.2-5.3,1c6.9,0.1,13,1.7,16.4,8.6c-3.8-0.7-7.6-1.7-12.2-0.9c2.3,1.2,4.2,1.1,5.9,1.2
				c12.4,0.8,20,9.7,19.1,22.4c-1.6-1.5-3-2.9-4.4-4.3c-4.2-4.3-9.2-7-15.3-6.7c-3.2,0.2-6.3,0.9-9.3,2c-0.8,0.3-1.6,0.8-2.2-0.5
				c-3.4-8.2-10.6-11-18.4-12.7c-7-1.5-13.9-0.9-20.6,1.9C166,82.1,163.9,83.8,161.2,85.8z"/>
			<path fill="#EEBC00" d="M225,226.4c4.5,3.5,5.3,8,3.9,13.1c-0.1,0.3-0.1,0.6-0.1,0.9c5.6-4.8,10.8-10.1,15.9-15.5
				c-0.6-1-0.6-2.5-0.7-3.7c-0.1-0.9-0.2-1.3-1.3-1.5c-3.8-0.6-5.2-2.5-4.9-6.2c0.1-1.1-0.5-3.1,1.1-2.9c1.2,0.1,0,1.8,0.1,2.7
				c0.1,0.6-0.1,1.3,0,1.9c0.4,2.4,2.9,3.9,5,2.8c1.9-1,2.9-2.6,2.8-4.8c-0.1-2.6,0-5.3-2.8-6.7c-2.1-1.2-4,0-5.6,1.2
				c-2.9,2-4.3,5.1-5.5,8.3c-0.6,1.6-0.6,2.6,0.8,3.8c2.8,2.3,3.2,5.6,2.9,9c-1.1-0.9-1.1-2.1-1.3-3.2c-0.6-4.1-3.4-6.3-7-7.5
				c-1.8-0.6-3.3,0-4.5,1.5c-1.2,1.5-1.4,3-0.5,4.7C223.7,225,224.3,225.9,225,226.4z"/>
			<path fill="#5A83E6" d="M110.9,243c-2.2,0.1-4.4,0-6.6-0.8c-3-1.1-4-3.2-3.2-6.3c0.9-3.3,2.9-5.9,5.3-8.1
				c1.4-1.3,1.9-2.8,1.9-4.7c-0.1-3,0.2-6,1.2-8.9c1.6-4.6,4.5-5.5,8.6-2.8c5.8,3.8,10,8.5,10.6,15.9c0.4,5.4-3.4,12.1-8.5,14.1
				C117.2,242.4,114.1,242.9,110.9,243z"/>
			<path fill="#D5DADB" d="M196.4,134.1c0,7.7-6.1,13.8-13.6,13.8c-7.5-0.1-13.4-6.2-13.4-14c0-7.7,6-13.8,13.6-13.8
				C190.5,120.2,196.4,126.4,196.4,134.1z"/>
			<path fill="#D5DADB" d="M221.8,134.5c7.1,0,12.8,5.7,12.8,12.8c0,7-5.7,12.8-12.5,12.8c-7.1,0-12.8-5.7-12.7-12.9
				C209.3,140.2,214.9,134.5,221.8,134.5z"/>
			<path fill="#828313" d="M147.5,84.3c3.5-14.9,13.3-22.7,28.2-25.1c-1.1-1.3-2.1-0.8-3.1-0.6c-1.2,0.3-2.4,0.6-3.5-0.3
				c-2.8-2.2-5.8-4.3-10-5.6c8.5-1.1,16-0.5,23.2,2.5c3.7,1.5,6.6,4,8.2,7.9c0.6,1.5,0.3,1.8-1.2,1.8c-7.3,0.2-14.1,1.5-20.4,5.9
				c-2.5,1.7-5.8,2-8.6,3.8c-4.2,2.6-8.2,5.5-11.8,9C148.2,83.7,147.8,84,147.5,84.3z"/>
			<path fill="#5A83E6" d="M151.8,228.1c5.3,0,6.2,1.4,4.5,5.8c-1.5,3.8-4.2,6.6-7.5,8.7c-2.6,1.6-3.6,3.6-3,6.5
				c0.2,0.9,0.1,1.9,0,2.9c-0.2,2.9-2,4.8-4.9,5.5c-2.7,0.6-4.6-0.6-6-2.8c-1.7-2.6-2.2-5.6-2.9-8.5c-0.2-1,0.3-1.5,1-1.9
				c3.4-2.3,4.7-5.8,5.2-9.7c0.1-1.2,0.4-1.9,1.5-2.6C143.5,229.6,147.8,228.6,151.8,228.1z"/>
			<path fill="#BCC6C9" d="M172,144.6c-6.9-0.7-11.6-8.8-9-14.8c0.6-1.5,1.9,0.3,2.3-0.8c0.4-1.1-1.5-0.9-1.2-2.3
				c1.1-5.4,9.3-9.8,14.3-7.5C166,125,165.8,137,172,144.6z"/>
			<path fill="#5A83E5" d="M136.6,233.9c-0.2,3.4-1,6.5-3.8,8.8c-2.2,1.8-6.6,0.6-7.7-1.9c-0.3-0.7,0.1-1,0.5-1.3
				c2-2.2,3.1-4.8,3.8-7.5c0.5-2.1,1.3-3.4,3.7-3c2.4,0.4,3.3,1.8,3.5,4C136.6,233.2,136.6,233.6,136.6,233.9z"/>
			<path fill="#BBC5C7" d="M211.6,157.3c-3.3-1.7-6.4-3.4-6-7.9c0.2-2.1-0.1-4.3-0.1-6.4c0.2-8.2,6-11.5,12.6-11
				c1.3,0.1,2.6,0.3,4,0.7c-6,0.7-10.7,3.4-13.1,9.1C206.7,147.4,207.9,152.6,211.6,157.3z"/>
			<path fill="#EDBB01" d="M245.7,223.9c2.8-3,5.6-6.1,8.3-9.2c0-1.3-0.1-2.7-0.8-3.8c-1-1.5-2.4-2-4.2-1.6c-1.8,0.4-1,1.8-1,2.8
				c0,2,0.1,4-1.5,5.4c-1.8,1.6-1.4,3.5-1.1,5.4C245.5,223.3,245.6,223.6,245.7,223.9z"/>
			<path fill="#ECBB01" d="M76.9,135.1c-0.2,3.6-1.5,6.5-4.4,8.7c-1.4,1.1-2.9,1.2-4.3-0.3c-1.4-1.5-0.9-2.5,0.4-3.8
				c2.4-2.4,2.9-5.6,3.3-8.8c0.2-1.9,1.1-1.8,2.2-1.2C76.1,130.9,77,132.8,76.9,135.1z"/>
			<path fill="#FAFAFA" d="M178.7,208.8c3.5,2.5,7.1,4.1,10.7,5.6c3.6,1.5,7.3,2.7,11.2,3.4c-1.8,3.6-6.6,3.7-9.1,0
				c-1.1-1.6-1.9-2-4-1.8C181.8,216.8,179.6,214.9,178.7,208.8z"/>
			<path fill="#E8B802" d="M206.4,155.7c2.2,1.4,3.9,3,6.1,3.8c0.8,0.3,0.8,0.7,0.6,1.4c-0.6,2-1.4,4-3,5.8
				C208,163.3,206.9,159.8,206.4,155.7z"/>
			<path fill="#589639" d="M44,161.1c-2.3-0.8-4.2-2.2-6-3.8c-1.3-1.2-0.3-1.6,0.7-1.8C42.6,154.7,44.4,156.6,44,161.1z"/>
			<path fill="#F70A08" d="M135.6,194.5c0.1,0.8-0.3,1-1.5,0.5c-1.8-0.8-2.3-2.3-2.6-4c-0.1-0.7,0.4-1.3,1.1-1.6
				c0.9-0.4,1,0.5,1.3,0.9C134.6,191.4,135.4,192.5,135.6,194.5z"/>
			<path fill="#569138" d="M227.4,240c-1.6-1.5-2.6-3.1-3.2-5.1C228.1,235.4,228.2,235.6,227.4,240z"/>
			<path fill="#577C41" d="M70.1,166.7c0.5,0.3,0.8,0.6,0.8,1.1c0,0.5-0.3,0.6-0.7,0.4c-0.3-0.1-0.7-0.2-0.5-0.7
				C69.8,167.3,70,167,70.1,166.7z"/>
			<path fill="#121212" d="M120.9,259.4c-1.6-0.1-2.7-1.4-2.8-3.2c-0.1-1.9,1.3-3.1,3.2-3.3c1.6-0.2,3.5,1.8,3.4,3.4
				C124.6,258,123.1,259.5,120.9,259.4z"/>
			<path fill="#0D0C04" d="M141.6,142.4c2,0,3.8,0.5,4.8,2.4c0.8,1.6-0.4,2.7-1.2,3.8c-0.3,0.4-0.7,0.6-1.1,0.4
				c-0.5-0.3-0.2-0.8,0-1.2c1.3-2.9,0.6-4-2.5-4.1c-0.7,0-1.9,0.7-1.9-0.6C139.7,142,141,142.7,141.6,142.4z"/>
			<path fill="#141205" d="M62.4,151.6c-0.3,3.5-1.8,6.5-4,9.1c-0.3,0.4-0.6,0.8-1.1,0.5c-0.6-0.4-0.4-0.9,0-1.4
				c2.3-2.6,3.7-5.6,3.7-9.1c0-0.5,0.2-1.2,0.9-1C62.8,150.1,62.3,150.9,62.4,151.6z"/>
			<path fill="#111212" d="M182.3,127.3c0-0.2-0.1-0.7,0.5-0.8c0.6-0.2,0.8,0.3,0.9,0.7c1.1,4.1,2.2,8.1,3.3,12.2
				c0.1,0.4,0.1,0.9-0.4,1.1c-0.6,0.2-0.8-0.2-0.9-0.7C184.6,135.7,183.5,131.6,182.3,127.3z"/>
			<path fill="#121313" d="M179.2,133.5c0-0.1-0.1-0.6,0.4-0.8c0.8-0.2,0.9,0.5,1,0.9c0.4,1.5,0.7,3.1,1.1,4.6
				c0.1,0.4,0.2,0.9-0.4,1.1c-0.7,0.2-0.9-0.3-1.1-0.9C179.9,136.9,179.6,135.4,179.2,133.5z"/>
			<path fill="#101111" d="M224,143.4c0.1-0.5-0.5-1.6,0.5-1.7c1-0.1,0.7,1,0.8,1.6c0.4,3.2,0.7,6.5,1.1,9.7
				c0.1,0.5,0.2,1.1-0.5,1.2c-0.8,0.1-0.7-0.6-0.8-1.1C224.7,150,224.4,146.7,224,143.4z"/>
			<path fill="#0E0F0E" d="M218.2,151.4c-0.9-1.9-1-3.9-1.1-5.9c0-0.4,0-0.7,0.4-0.8c0.4-0.1,0.7,0.1,0.8,0.5
				C218.4,147.2,219,149.3,218.2,151.4z"/>
			<path fill="#F5F5F5" d="M123.3,256.2c-0.1,1.1-0.7,1.9-1.8,2c-1.2,0.1-2-0.7-2.1-1.9c-0.1-1.2,0.6-1.9,1.7-1.9
				C122.4,254.3,123.2,254.9,123.3,256.2z"/>
		</g>
	</g>
</g>
<g id="Calque_3">
	<path fill="#F0F1F2" d="M146.3,10.4C73.8,10.4,15,69.2,15,141.7S73.8,273,146.3,273s131.3-58.8,131.3-131.3S218.8,10.4,146.3,10.4z
		 M146.3,262.7c-66.8,0-121-54.2-121-121s54.2-121,121-121s121,54.2,121,121S213.2,262.7,146.3,262.7z"/>
</g>
</svg>
