<?xml version="1.0" encoding="utf-8"?>
<!-- Generator: Adobe Illustrator 16.0.3, SVG Export Plug-In . SVG Version: 6.00 Build 0)  -->
<!DOCTYPE svg PUBLIC "-//W3C//DTD SVG 1.1//EN" "http://www.w3.org/Graphics/SVG/1.1/DTD/svg11.dtd">
<svg version="1.1" xmlns="http://www.w3.org/2000/svg" xmlns:xlink="http://www.w3.org/1999/xlink" x="0px" y="0px" width="453px"
	 height="453px" viewBox="0 0 453 453" enable-background="new 0 0 453 453" xml:space="preserve">
<g id="Layer_1" display="none">
	<path display="inline" fill="#D1B270" d="M226.124,21.012c111.625,0,202.113,90.49,202.113,202.113
		c0,111.624-90.488,202.113-202.113,202.113c-108.424,0-202.111-86.663-202.111-202.113
		C24.013,111.502,114.501,21.012,226.124,21.012z"/>
	<path display="inline" fill="#FFD90F" d="M298.283,240.232c-5.405-4.055-4.055-17.568-4.055-17.568l6.757-33.783
		c8.486-12.259,9.015-23.547,3.01-33.763c0.599,1.018,0,0,0,0c-35.214-17.088-125.835-9.321-125.835-9.321
		c9.178,23.359-4.828,55.784-10.623,67.515c-1.861-2.001-5.616-3.646-13.197-1.749c-14.5,3.625-13.464,15.016-13.464,15.016
		c4.474,18.238,15.348,16.354,22.142,13.037l0.13,0.617c12.69,12.237,20.598,22.184,24.183,30.822c0,0,4.925,15.398,7.13,22.885
		c-0.036-0.123-0.069-0.242-0.106-0.365c11.308,7.858,26.077,9.851,39.26,9.562c1.997-0.06,0,0,1.997-0.06
		c4.565-0.181,8.896-0.619,12.786-1.16c-1.305-11.562,2.589-25.197,2.589-25.197c15.726-9.23,6.923-11.301,6.923-11.301
		c22.426,0,37.672-4.916,37.672-4.916C307.742,259.15,303.688,244.287,298.283,240.232"/>
	<path display="inline" fill="none" stroke="#000000" stroke-width="3" stroke-linecap="round" stroke-linejoin="round" d="
		M298.283,240.232c-5.405-4.055-4.055-17.568-4.055-17.568l6.757-33.783c8.682-11.881,8.098-27.214,3.01-33.763l0,0
		c-35.214-17.088-125.835-9.321-125.835-9.321c9.178,23.359-4.828,55.784-10.623,67.515c-1.861-2.001-5.616-3.646-13.197-1.749
		c-14.5,3.625-13.464,15.016-13.464,15.016c4.474,18.238,15.348,16.354,22.142,13.037l0.13,0.617
		c12.69,12.237,20.728,19.768,24.183,30.822c2.895,9.294,4.925,15.398,7.13,22.885c-0.036-0.123-0.069-0.242-0.106-0.365
		c11.308,7.858,26.077,9.851,39.26,9.562c1.997-0.06,0,0,1.997-0.06c4.565-0.181,8.896-0.619,12.786-1.16
		c-1.305-11.562,2.589-25.197,2.589-25.197c15.726-9.23,6.923-11.301,6.923-11.301c19.926,0,37.672-4.916,37.672-4.916
		C307.742,259.15,303.688,244.287,298.283,240.232L298.283,240.232z"/>
	<g display="inline">
		<path fill="#B45B22" d="M312.799,134.922c0,0-5.178-5.696-10.356,0c0,0-7.249-9.839-13.464-3.625c0,0-7.768-7.768-15.018-2.071
			c0,0-6.732-8.804-15.018-2.589c0,0-6.215-8.285-15.535-1.553c0,0-10.875-6.732-18.124,0c0,0-10.357-7.768-15.535-1.554
			c0,0-10.874-5.696-17.089,4.143c0,0-7.768-10.357-17.607,0c0,0-9.32-9.839-16.57,1.553c-7.7-2.009-7.128-8.258-18.643,4.143
			c0,0-13.463-8.803-15.018,4.661c0,0-6.375,51.038,19.566,79.063c1.994-2.234,5.1-4.316,9.951-5.529
			c7.581-1.896,11.336-0.252,13.197,1.749c5.795-11.731,19.801-44.156,10.623-67.515c0,0,90.621-7.767,125.835,9.321
			C303.995,155.118,315.906,145.797,312.799,134.922"/>
		<path fill="none" stroke="#000000" stroke-width="3" stroke-linecap="round" stroke-linejoin="round" d="M312.799,134.922
			c0,0-5.178-5.696-10.356,0c0,0-7.249-9.839-13.464-3.625c0,0-7.768-7.768-15.018-2.071c0,0-6.732-8.804-15.018-2.589
			c0,0-6.215-8.285-15.535-1.553c0,0-10.875-6.732-18.124,0c0,0-10.357-7.768-15.535-1.554c0,0-10.874-5.696-17.089,4.143
			c0,0-7.768-10.357-17.607,0c0,0-9.32-9.839-16.57,1.553c-7.7-2.009-7.128-8.258-18.643,4.143c0,0-13.463-8.803-15.018,4.661
			c0,0-6.375,51.038,19.566,79.063c1.994-2.234,5.1-4.316,9.951-5.529c7.581-1.896,11.336-0.252,13.197,1.749
			c5.795-11.731,19.801-44.156,10.623-67.515c0,0,90.621-7.767,125.835,9.321C303.995,155.118,315.906,145.797,312.799,134.922
			L312.799,134.922z M149.68,223.99c0,0,8.285-6.214,13.981,1.035c0,0-12.95-4.849-6.731,5.178"/>
	</g>
	<path display="inline" fill="#B45B22" d="M218.034,155.635c0,0-8.285,3.107-8.804,7.768c0,0,2.071,4.143,8.804,3.625
		c0,0,17.606-2.072,21.749-0.518c0,0,3.107-0.518,3.625-5.178s-5.696-6.214-5.696-6.214S223.73,153.564,218.034,155.635"/>
	<path display="inline" fill="none" stroke="#000000" stroke-width="3" stroke-linecap="round" stroke-linejoin="round" d="
		M218.034,155.635c0,0-8.285,3.107-8.804,7.768c0,0,2.071,4.143,8.804,3.625c0,0,17.606-2.072,21.749-0.518
		c0,0,3.107-0.518,3.625-5.178s-5.696-6.214-5.696-6.214S223.73,153.564,218.034,155.635L218.034,155.635z"/>
	<path display="inline" fill="#B45B22" d="M284.835,160.813c0,0-6.724-1.581-8.285,6.214c-1.203,6.004,6.214,5.696,6.214,5.696
		s10.356-0.518,13.464,1.553s5.231-2.054,5.696-3.625c1.564-5.288-2.589-6.732-2.589-6.732S290.53,160.813,284.835,160.813"/>
	<path display="inline" fill="none" stroke="#000000" stroke-width="3" stroke-linecap="round" stroke-linejoin="round" d="
		M284.835,160.813c0,0-6.724-1.581-8.285,6.214c-1.203,6.004,6.214,5.696,6.214,5.696s10.356-0.518,13.464,1.553
		s5.231-2.054,5.696-3.625c1.564-5.288-2.589-6.732-2.589-6.732S290.53,160.813,284.835,160.813L284.835,160.813z M257.39,208.455
		c0,0,23.304-2.589,22.268,13.463c-1.036,16.054-26.41,7.25-26.41,7.25 M207.16,248.328c0,0-5.697,4.144-3.625,8.804
		 M203.59,252.707c18.827,8.377,30.327,12.127,54.318,12.711 M168.84,235.9c0,0-21.232,18.125-27.964-9.322
		c0,0-1.036-11.391,13.464-15.016s15.018,5.695,15.018,5.695 M149.68,223.99c0,0,8.285-6.214,13.981,1.035
		c0,0-12.95-4.849-6.731,5.178 M155.51,211.292l41.811-14.229 M250.658,202.241c0,0,12.429-3.626,17.089,1.554"/>
	<path display="inline" fill="#FFFFFF" d="M250.658,198.098c0,13.442-11.94,24.339-26.669,24.339
		c-14.729,0-26.669-10.896-26.669-24.339c0-13.441,11.939-24.338,26.669-24.338C238.718,173.76,250.658,184.656,250.658,198.098"/>
	<path display="inline" fill="none" stroke="#000000" stroke-width="3.1403" stroke-linecap="round" stroke-linejoin="round" d="
		M250.658,198.098c0,13.442-11.94,24.339-26.669,24.339c-14.729,0-26.669-10.896-26.669-24.339
		c0-13.441,11.939-24.338,26.669-24.338C238.718,173.76,250.658,184.656,250.658,198.098L250.658,198.098z"/>
	<path display="inline" fill="#FFFFFF" d="M290,183.6c-13.005,0-23.548,9.621-23.548,21.49c0,1.248,0.123,2.47,0.347,3.66
		c6.336,1.014,13.44,4.148,12.858,13.168c-0.055,0.842-0.189,1.599-0.37,2.307c3.215,1.502,6.854,2.355,10.713,2.355
		c13.005,0,23.548-9.621,23.548-21.49S303.005,183.6,290,183.6"/>
	<path display="inline" fill="none" stroke="#000000" stroke-width="2.7729" stroke-linecap="round" stroke-linejoin="round" d="
		M290,183.6c-13.005,0-23.548,9.621-23.548,21.49c0,1.248,0.123,2.47,0.347,3.66c6.336,1.014,13.44,4.148,12.858,13.168
		c-0.055,0.842-0.189,1.599-0.37,2.307c3.215,1.502,6.854,2.355,10.713,2.355c13.005,0,23.548-9.621,23.548-21.49
		S303.005,183.6,290,183.6L290,183.6z"/>
	<path display="inline" d="M222.177,200.17c0,2.574-2.087,4.66-4.661,4.66s-4.66-2.086-4.66-4.66s2.086-4.66,4.66-4.66
		S222.177,197.596,222.177,200.17"/>
	<path display="inline" d="M295.191,204.973c0,2.574-2.086,4.661-4.66,4.661s-4.66-2.087-4.66-4.661c0-2.573,2.086-4.66,4.66-4.66
		S295.191,202.399,295.191,204.973"/>
	<path display="inline" fill="#556730" stroke="#000000" stroke-width="3" stroke-linecap="round" stroke-linejoin="round" d="
		M141.741,410.309l-42.729-31.264c13.585-37.648,41.573-59.475,41.573-59.475s16.173,3.883,15.508,21.162
		c-0.664,17.279-8.311,56.916-8.311,56.916S143.584,401.199,141.741,410.309z"/>
	<path display="inline" fill="#556730" stroke="#000000" stroke-width="3" stroke-linecap="round" stroke-linejoin="round" d="
		M187.604,272.457c0,0-8.949,8.492-11.021,15.089s-4.415,12.954,0.818,51.157l1.062,0.804l22.375,14.843l-18.279,14.94
		c5.441,23.96,16.646,55.54,16.646,55.54l25.129,0.721c0,0-5-19.551-14.287-69.363C203,318.334,187.604,272.457,187.604,272.457z"/>
	<g display="inline">
		<path fill="#556730" stroke="#000000" stroke-width="3" stroke-linecap="round" stroke-linejoin="round" d="M147.783,397.648
			c5.498-32.037,8.331-44.861,8.331-58.273c0-15.251-15.528-19.805-15.528-19.805c12.628-20.603,35.996-32.024,35.996-32.024
			s-5.095,8.418,0.881,51.615l23.375,15.176l-18.279,14.953c0,0,8.191,32.585,16.646,55.54L150,414.654
			C150,405.766,150.58,405.438,147.783,397.648"/>
	</g>
	<path display="inline" fill="#FFFFFF" d="M250.455,301.615c-4.394,0.676-9.458,1.248-14.845,1.461
		c0.905,2.725,1.784,5.478,2.636,8.258c4.66,8.059,12.982,16.146,26.201,8.99C261.549,316.3,255.112,307.445,250.455,301.615"/>
	<path display="inline" fill="#556730" stroke="#000000" stroke-width="3" stroke-linecap="round" stroke-linejoin="round" d="
		M296.542,314.984c-6.424-13.736-28.704-22.368-28.704-22.368l3.662,20.245l31.244,106.02l19.486-11.735
		C310.459,357.553,313.225,366.978,296.542,314.984"/>
	<path display="inline" fill="none" stroke="#000000" stroke-width="3" stroke-linecap="round" stroke-linejoin="round" d="
		M250.455,301.615c-4.394,0.676-9.458,1.248-14.845,1.461c0.905,2.725,1.784,5.478,2.636,8.258
		c4.66,8.059,12.982,16.146,26.201,8.99C261.549,316.3,255.112,307.445,250.455,301.615L250.455,301.615z"/>
	<path display="inline" fill="#FFFFFF" d="M233.613,303.136c-13.183,0.289-27.952-1.703-39.26-9.562
		c3.01,10.192,5.715,20.111,8.135,29.691C216.736,327.396,234.285,327.596,233.613,303.136"/>
	<path display="inline" fill="none" stroke="#000000" stroke-width="3" stroke-linecap="round" stroke-linejoin="round" d="
		M233.613,303.136c-13.183,0.289-27.952-1.703-39.26-9.562c3.01,10.192,5.715,20.111,8.135,29.691
		C216.736,327.396,234.285,327.596,233.613,303.136L233.613,303.136z"/>
	<path display="inline" fill="#FFFFFF" stroke="#000000" stroke-width="3" stroke-linecap="round" stroke-linejoin="round" d="
		M224.277,429.667c-4.215-25.784-21.789-106.401-21.789-106.401S237,334,233.613,303.136c0.032,0.291,2.891,5.187,4.633,8.198l0,0
		c17.749,70.853,17.749,70.853,22.504,110.416L224.277,429.667z"/>
	<path display="inline" fill="#FFFFFF" stroke="#000000" stroke-width="3" stroke-linecap="round" stroke-linejoin="round" d="
		M287.431,414.875c-5.299-37.896-3.681-48.333-21.458-92.426c0,0-0.576-0.806-1.525-2.125c-13.219,7.155-21.541-0.932-26.201-8.99
		c0,0,18.542,64.916,22.504,110.416C260.75,421.75,288.059,419.369,287.431,414.875z"/>
	<path display="inline" fill="#556730" stroke="#000000" stroke-width="3" stroke-linecap="round" stroke-linejoin="round" d="
		M291.224,332.197l-10.19,13.512l16.172,8.197c0,0,7.754,28.799,5.539,64.465l-14.001,4.381
		c-2.979-24.654-6.759-68.283-22.771-100.303c0,0-12.007-16.844-17.807-23.615c-0.421-10.768,2.819-22.115,2.819-22.115
		c0.062-0.036,0.114-0.07,0.175-0.105l1.518,0.645c0,0,4.322,1.975,17.322,15.358S291.224,332.197,291.224,332.197l-10.19,13.512
		l0,0l16.172,8.197c0,0,7.754,28.799,5.539,64.465 M322.23,406.636"/>
	<path display="inline" fill="#7E00B2" d="M236.062,307.605c0,0-13.07-20.158-17.943-17.943c-4.874,2.215-8.64,6.424-9.306,19.494
		c-0.664,13.07,3.103,27.469,8.418,27.914c5.317,0.442,19.718-19.275,19.718-19.275l7.753,0.223c0,0,8.42,13.734,13.07,13.514
		c4.652-0.222,10.191-12.184,10.191-20.603c0-8.418-2.658-19.938-8.64-20.16c0,0-8.196,2.882-14.843,16.616L236.062,307.605"/>
	<path display="inline" fill="none" stroke="#000000" stroke-width="3" stroke-linecap="round" stroke-linejoin="round" d="
		M236.062,307.605c0,0-13.07-20.158-17.943-17.943c-4.874,2.215-8.64,6.424-9.306,19.494c-0.664,13.07,3.103,27.469,8.418,27.914
		c5.317,0.442,19.718-19.275,19.718-19.275l7.753,0.223c0,0,8.42,13.734,13.07,13.514c4.652-0.222,10.191-12.184,10.191-20.603
		c0-8.418-2.658-19.938-8.64-20.16c0,0-8.196,2.882-14.843,16.616L236.062,307.605L236.062,307.605z"/>
	<path display="inline" fill="#7E00B2" d="M241.157,301.623c0,0-7.31,0-6.867,6.869c0.442,6.867-1.771,13.07,4.431,13.514
		s9.303-4.209,9.082-11.741S243.594,301.623,241.157,301.623"/>
	<path display="inline" fill="none" stroke="#000000" stroke-width="3" stroke-linecap="round" stroke-linejoin="round" d="
		M241.157,301.623c0,0-7.31,0-6.867,6.869c0.442,6.867-1.771,13.07,4.431,13.514s9.303-4.209,9.082-11.741
		S243.594,301.623,241.157,301.623L241.157,301.623z"/>
	<path display="inline" fill="#556730" stroke="#000000" stroke-width="3" stroke-linecap="round" stroke-linejoin="round" d="
		M291.542,307.984c0,0,31.75,29.35,50.416,84.017l-19.728,14.635L291.542,307.984z"/>
	<path display="inline" fill="#556730" stroke="#000000" stroke-width="3" stroke-linecap="round" stroke-linejoin="round" d="
		M321.5,416.01"/>
	<path display="inline" fill="#556730" stroke="#000000" stroke-width="3" stroke-linecap="round" stroke-linejoin="round" d="
		M341.958,408.25"/>
	<path display="inline" fill="#556730" stroke="#000000" stroke-width="3" stroke-linecap="round" stroke-linejoin="round" d="
		M296.542,314.984"/>
	<g display="inline">
		<path fill="#F0F1F2" d="M226,436.5c-31.77,0-62.048-6.223-89.8-19.021c-25.146-11.596-47.418-28.174-66.196-49.272
			C35.048,328.929,15,276.915,15,225.5c0-56.363,21.947-109.351,61.798-149.202S169.637,14.5,226,14.5
			s109.351,21.947,149.202,61.798C415.053,116.149,437,169.137,437,225.5c0,78.176-42.899,149.582-111.958,186.354
			c-4.111,2.202-8.352,4.281-12.606,6.184c-0.495,0.232-0.973,0.441-1.449,0.65l-0.846,0.371
			C283.766,430.544,268.752,436.5,226,436.5z M225.508,27.113c-109.195,0-198.033,88.837-198.033,198.034
			c0,109.195,88.838,198.032,198.033,198.032c109.196,0,198.033-88.837,198.033-198.032
			C423.541,115.95,334.704,27.113,225.508,27.113z"/>
	</g>
</g>
<g id="Layer_2">
	<circle fill="#BDE18A" cx="226.758" cy="227.044" r="202.113"/>
	<path fill="#FFFFFF" stroke="#000000" stroke-width="3" stroke-linecap="round" stroke-linejoin="round" d="M272.27,403.576
		l1.343,19.349c0,0,124.525-43.354,141.036-124.899l-61.457-4.962c0,0-39.178-19.274-58.22-20.502
		c9.029,16.497,19.729,41.422,19.729,41.422c-4.184,6.693-26.777,18.409-26.777,18.409l20.083,16.736
		C290.433,389.294,272.27,403.576,272.27,403.576z"/>
	<g id="Layer_4">
		
			<circle fill="none" stroke="#000000" stroke-width="3" stroke-linecap="round" stroke-linejoin="round" stroke-miterlimit="10" cx="221.25" cy="226.898" r="203.08"/>
	</g>
	<g>
		<path fill="#FFFFFF" stroke="#000000" stroke-width="3" stroke-linecap="round" stroke-linejoin="round" d="M268.743,407.277
			c0.507,2.121,0,12.983,0,12.983s-55.493,25.138-123.493-2.862s-86.708-68.957-86.708-68.957
			c35.364-50.57,92.24-74.997,99.745-78.061v51.545l30.125,7.531l-11.715,15.062C176.697,344.52,210.168,394.726,268.743,407.277"/>
	</g>
	<path fill="#FFFFFF" d="M173.805,264.539c-4.975,1.519-9.885,3.339-14.681,5.507c0,0-0.294,0.113-0.837,0.335v51.545l30.125,7.531
		l-11.715,15.062c0,0,33.471,50.206,92.046,62.758C224.169,371.77,181.646,281.705,173.805,264.539"/>
	<path fill="none" stroke="#000000" stroke-width="3" stroke-linecap="round" stroke-linejoin="round" d="M173.805,264.539
		c-4.975,1.519-9.885,3.339-14.681,5.507c0,0-0.294,0.113-0.837,0.335v51.545l30.125,7.531l-11.715,15.062
		c0,0,33.471,50.206,92.046,62.758C224.169,371.77,181.646,281.705,173.805,264.539L173.805,264.539z"/>
	<path fill="#FFFFFF" d="M318.949,312.722c0,0-20.659-42.344-23.232-43.148c-4.354,51.599-26.974,137.704-26.974,137.704
		s25.938-19.245,43.512-59.41l-20.083-16.736C292.172,331.131,314.766,319.415,318.949,312.722"/>
	<path fill="none" stroke="#000000" stroke-width="3" stroke-linecap="round" stroke-linejoin="round" d="M318.949,312.722
		c0,0-11.494-24.064-20.523-40.562c-0.616-0.04-1.165-1.782-3.738-2.587c-4.354,51.599-25.944,137.704-25.944,137.704
		s25.938-19.245,43.512-59.41l-20.083-16.736C292.172,331.131,314.766,319.415,318.949,312.722L318.949,312.722z M344.89,322.763
		c0,0,17.738,35.801,17.738,55.886"/>
	<path fill="#D0BEDD" d="M289.47,313.935c-6.168,13.77-11.766,13.78-11.766,13.78l-13.556-26.107l-13.277,3.542
		c0.142-0.016,0.226-0.027,0.226-0.027l-16.568,30.124c-13.926-5.253-25.253-11.966-34.441-19.11
		c14.915,26.627,34.516,57.464,55.316,78.909l13.34,12.232l3.735-14.808C276.82,374.824,284.078,343.948,289.47,313.935"/>
	<path fill="none" stroke="#000000" stroke-width="3" stroke-linecap="round" stroke-linejoin="round" d="M289.47,313.935
		c-6.168,13.77-11.766,13.78-11.766,13.78l-13.556-26.107l-13.277,3.542c0.142-0.016,0.226-0.027,0.226-0.027l-16.568,30.124
		c-13.926-5.253-25.253-11.966-34.441-19.11c14.915,26.627,34.516,57.464,55.316,78.909l13.34,12.232l3.735-14.808
		C276.82,374.824,284.078,343.948,289.47,313.935L289.47,313.935z"/>
	<polyline fill="#18965F" points="237.039,307.634 253.606,334.242 266.158,334.744 278.205,299.098 237.039,307.634 	"/>
	<polygon fill="none" stroke="#000000" stroke-width="3" stroke-linecap="round" stroke-linejoin="round" points="237.039,307.634 
		253.606,334.242 266.158,334.744 278.205,299.098 237.039,307.634 	"/>
	<path fill="#D0BEDD" stroke="#000000" stroke-width="3" stroke-linecap="round" stroke-linejoin="round" d="M174.418,252.615
		c9.559,37.122,51.558,48.651,77.227,51.99l-17.116,30.641c-57.233-21.589-70.788-67.776-70.788-67.776l3.176-5.433L174.418,252.615
		"/>
	<path fill="none" stroke="#000000" stroke-width="3" stroke-linecap="round" stroke-linejoin="round" d="M264.148,301.607
		l13.556,26.107c13.32,0,18.622-26.346,20.879-42.566c0,0-4.146-8.332-5.146-7.062C287.038,286.21,276.884,298.07,264.148,301.607
		L264.148,301.607z"/>
	<path fill="#18965F" d="M266.201,334.615l-0.043,0.129l-11.126-0.445l-10.409,48.714c7.836,9.397,15.942,17.752,24.12,24.265
		c0,0,3.304-12.583,7.629-31.006L266.201,334.615"/>
	<path fill="none" stroke="#000000" stroke-width="3" stroke-linecap="round" stroke-linejoin="round" d="M266.201,334.615
		l-0.043,0.129l-11.126-0.445l-10.409,48.714c7.836,9.397,15.942,17.752,24.12,24.265c0,0,3.304-12.583,7.629-31.006
		L266.201,334.615L266.201,334.615z"/>
	<path fill="#E6E6E6" d="M179.373,245.379c0,0-30.623-8.032-21.086,18.577c0,0,22.594,55.727,47.695,83.841
		c21.34,23.9,54.723,51.711,54.723,51.711l2.766,28.731l10.544-0.501l-1.261-32.247c0,0,44.032-91.585,22.443-120.704l-10.395,8.246
		c0,0,28.616,5.02-20.082,108.441l-51.709-48.697c0,0-31.629-44.18-41.67-70.789c-10.043-26.609,10.041-18.074,10.041-18.074
		L179.373,245.379"/>
	<path fill="none" stroke="#000000" stroke-width="3" stroke-linecap="round" stroke-linejoin="round" d="M178.299,245.379
		c0,0-30.623-8.032-21.086,18.577c0,0,22.594,55.727,47.695,83.841c21.34,23.9,54.723,51.711,54.723,51.711l4.049,26.029
		l-0.209,2.452l10.544-0.501l-2.335-31.997c0,0,44.065-91.255,22.477-120.374l-11.312,6.344c0,0,29.501,6.592-19.197,110.014
		l-51.709-48.697c0,0-31.629-44.18-41.67-70.789c-10.043-26.609,10.041-18.074,10.041-18.074L178.299,245.379L178.299,245.379z"/>
	<path fill="#CB904B" stroke="#000000" stroke-width="3" stroke-linecap="round" stroke-linejoin="round" d="M259.326,113.912
		c0,0,45.414,11.571,44.025,55.972c0,0,3.904,4.026-1.518,7.193l-7.822,11.068c0,0,15.264,10.406,4.857,22.201
		c0,0-2.082,15.956,4.163,27.055c0,0,11.101,8.325-1.389,12.488c0,0-36.073,7.631-64.518,1.388c0,0-21.507-6.244-23.588,9.714
		c0,0-2.082,15.955,43.013,16.648c0,0,31.312-8.731,35.381-11.793s8.86,4.104,5.549,6.937l-9.712,6.244
		c3.013,0.747,2.856,8.06-2.081,8.325c0,0-13.604,18.547-42.319,15.957c0,0-76.313-6.245-65.214-61.051
		c0,0,5.552-9.713,8.326-11.101c0,0-21.507,1.388-13.181-18.731c7.651-18.491,18.037-5.55,22.2-0.694l-2.081-6.245l-1.388-9.711
		l-9.02-24.976l11.1-32.607l21.508-20.119L259.326,113.912"/>
	<g>
		<path fill="none" stroke="#000000" stroke-width="3" stroke-linecap="round" stroke-linejoin="round" d="M297.46,272.702
			l-9.712,6.244c3.346,0.827,2.134,9.077-2.061,8.312c0,0-13.938,19.141-42.319,15.957c0,0-76.313-6.245-65.214-61.051
			c0,0,5.552-9.713,8.326-11.101c0,0-21.507,1.388-13.181-18.731c7.651-18.491,18.037-5.55,22.2-0.694l-2.081-6.245l-1.388-9.711
			l-9.02-24.976l11.1-32.607l21.508-20.119l43.707-4.163l0,0c0,0,44.813,11.017,43.425,55.417c0,0,4.828,3.664-0.417,7.247
			l-8.322,11.568c0,0,15.264,10.406,4.857,22.201c0,0-2.082,15.956,4.163,27.055c0,0,11.101,8.325-1.389,12.488
			c0,0-36.073,7.631-64.518,1.388c0,0-21.507-6.244-23.588,9.714c0,0,25.32,9.354,70.415,10.047l7.979-5.191 M229.494,158.219
			c0,0,30.524-9.713,54.111,0.694 M232.963,146.425c0,0,32.607-2.082,41.624-0.694 M239.899,134.631c0,0,14.569-1.388,25.669,0
			 M179.576,230.297c0.111,3.352,0.596,7.324,2.742,8.398c1.799,0.898,3.016-4.033,3.647-7.615
			C184.895,231.1,182.292,231.045,179.576,230.297L179.576,230.297z"/>
		<path fill="#333333" d="M257.245,104.89c-2.082-8.928-18.732,0-18.732,0c-16.649-8.928-27.057,4.072-27.057,4.072
			c-13.183-4.856-22.2,14.569-22.2,14.569c-8.325-2.775-11.794,9.713-11.794,9.713c-9.712,0.694-4.856,17.344-4.856,17.344
			c-11.101,2.082-2.081,15.262-2.081,15.262c-10.405,5.55,1.388,23.588,1.388,23.588c-4.295,5.904,0.547,15.541,2.957,19.603
			c5.744-10.412,12.592-5.911,17.207-1.227c2.031-0.366,3.977-0.755,4.811-1.033c5.551-4.162-6.243-16.649-6.243-16.649
			c5.55-3.469,0.693-29.138,0.693-29.138c6.244-2.775,2.774-18.732,2.774-18.732s-8.324,1.388-0.692-2.081
			c7.631-3.468,18.731-14.569,18.731-14.569c9.713,0.693,15.956-6.937,18.037-6.937c13.181,4.163,20.118-2.775,20.118-2.775
			c13.875,4.857,15.263-6.244,15.263-6.244C266.261,106.188,257.245,104.89,257.245,104.89"/>
		<path fill="none" stroke="#000000" stroke-width="3" stroke-linecap="round" stroke-linejoin="round" d="M257.245,104.89
			c-2.082-8.928-18.732,0-18.732,0c-16.649-8.928-27.057,4.072-27.057,4.072c-13.183-4.856-22.2,14.569-22.2,14.569
			c-8.325-2.775-11.794,9.713-11.794,9.713c-9.712,0.694-4.856,17.344-4.856,17.344c-11.101,2.082-2.081,15.262-2.081,15.262
			c-10.405,5.55,1.388,23.588,1.388,23.588c-4.295,5.904,0.547,15.541,2.957,19.603c5.744-10.412,12.592-5.911,17.207-1.227
			c2.031-0.366,3.977-0.755,4.811-1.033c5.551-4.162-6.243-16.649-6.243-16.649c5.55-3.469,0.693-29.138,0.693-29.138
			c6.244-2.775,2.774-18.732,2.774-18.732s-8.324,1.388-0.692-2.081c7.631-3.468,18.731-14.569,18.731-14.569
			c9.713,0.693,15.956-6.937,18.037-6.937c13.181,4.163,20.118-2.775,20.118-2.775c13.875,4.857,15.263-6.244,15.263-6.244
			C266.261,106.188,257.245,104.89,257.245,104.89L257.245,104.89z"/>
	</g>
	<path fill="#FFFFFF" d="M237.126,251.183c0,0-3.783-1.093-8.326-1.192v24.1c5.705,1.706,13.539,2.994,24.282,3.366v-24.121
		C247.686,252.986,242.279,252.314,237.126,251.183"/>
	<path fill="none" stroke="#000000" stroke-width="3" stroke-linecap="round" stroke-linejoin="round" d="M237.126,251.183
		c0,0-3.783-1.093-8.326-1.192v24.1c5.705,1.706,13.539,2.994,24.282,3.366v-24.121
		C247.686,252.986,242.279,252.314,237.126,251.183L237.126,251.183z"/>
	<path fill="#FFFFFF" d="M213.538,260.896c0,0-1.081,8.308,15.262,13.193v-24.1C222.505,249.853,214.747,251.628,213.538,260.896"/>
	<path fill="none" stroke="#000000" stroke-width="3" stroke-linecap="round" stroke-linejoin="round" d="M213.538,260.896
		c0,0-1.081,8.308,15.262,13.193v-24.1C222.505,249.853,214.747,251.628,213.538,260.896L213.538,260.896z"/>
	<path fill="#FFFFFF" d="M275.281,252.703v21.019c6.076-1.768,16.92-8.544,17.343-8.604v-14.276
		C288.053,251.515,282.033,252.25,275.281,252.703"/>
	<path fill="none" stroke="#000000" stroke-width="3" stroke-linecap="round" stroke-linejoin="round" d="M275.281,253.203v21.019
		c6.076-1.768,12.352-4.44,16.65-8.47l0.692-14.41C288.053,252.015,282.033,252.75,275.281,253.203L275.281,253.203z"/>
	<path fill="#FFFFFF" d="M253.082,253.335v24.121c1.126,0.039,2.277,0.071,3.469,0.089c0,0,9.116-0.524,18.73-3.323v-21.019
		C268.397,253.665,260.752,253.829,253.082,253.335"/>
	<path fill="none" stroke="#000000" stroke-width="3" stroke-linecap="round" stroke-linejoin="round" d="M253.082,253.335v24.121
		c1.126,0.039,2.277,0.071,3.469,0.089c0,0,9.116-0.524,18.73-3.323v-21.019C268.397,253.665,260.752,253.829,253.082,253.335
		L253.082,253.335z M217.7,240.776c0,0-15.263,4.162-18.038,14.568c-2.775,10.407,9.713,15.957,9.713,15.957 M184.399,211.638
		c0,0,6.938,2.082,5.55,6.938c0,0-13.182-6.244-4.856,3.469 M253.774,222.045c0,0-6.938,11.794,6.938,12.488
		c0,0,27.921,3.483,29.138-11.102c0.692-8.324-10.406-15.262-10.406-15.262s-25.67-20.119,0.692-29.832"/>
	<path fill="#FFFFFF" d="M259.669,190.047c1.196,6.597-7.461,13.692-19.336,15.846c-11.876,2.153-22.472-1.449-23.669-8.045
		c-1.196-6.598,7.459-13.693,19.336-15.847C247.875,179.847,258.473,183.449,259.669,190.047"/>
	<path fill="none" stroke="#000000" stroke-width="3" stroke-linecap="round" stroke-linejoin="round" d="M259.669,190.047
		c1.196,6.597-7.461,13.692-19.336,15.846c-11.876,2.153-22.472-1.449-23.669-8.045c-1.196-6.598,7.459-13.693,19.336-15.847
		C247.875,179.847,258.473,183.449,259.669,190.047L259.669,190.047z"/>
	<path fill="#FFFFFF" d="M268.239,189.117c0.048,6.496,8.505,12.11,18.891,12.539c10.39,0.428,18.771-4.49,18.726-10.986
		c-0.047-6.496-8.507-12.11-18.895-12.539C276.576,177.702,268.192,182.62,268.239,189.117"/>
	<path fill="none" stroke="#000000" stroke-width="3" stroke-linecap="round" stroke-linejoin="round" d="M268.239,189.117
		c0.048,6.496,8.505,12.11,18.891,12.539c10.39,0.428,18.771-4.49,18.726-10.986c-0.047-6.496-8.507-12.11-18.895-12.539
		C276.576,177.702,268.192,182.62,268.239,189.117L268.239,189.117z"/>
	<path d="M238.166,192.04c0,1.821-1.475,3.296-3.297,3.296c-1.819,0-3.295-1.476-3.295-3.296c0-1.82,1.476-3.295,3.295-3.295
		C236.691,188.744,238.166,190.22,238.166,192.04"/>
	<path d="M290.344,189.894c0,1.821-1.476,3.296-3.296,3.296c-1.821,0-3.296-1.475-3.296-3.296c0-1.82,1.475-3.295,3.296-3.295
		C288.868,186.599,290.344,188.074,290.344,189.894"/>
	<path fill="#333333" d="M252.105,174.338c0.477,1.657-0.48,3.386-2.136,3.863l-28.146,6.273c-1.658,0.478-3.387-0.479-3.864-2.136
		c-0.476-1.657,0.479-3.387,2.137-3.864l28.146-6.273C249.898,171.725,251.63,172.681,252.105,174.338"/>
	<path fill="none" stroke="#000000" stroke-width="3" stroke-linecap="round" stroke-linejoin="round" d="M252.105,174.338
		c0.477,1.657-0.48,3.386-2.136,3.863l-28.146,6.273c-1.658,0.478-3.387-0.479-3.864-2.136c-0.476-1.657,0.479-3.387,2.137-3.864
		l28.146-6.273C249.898,171.725,251.63,172.681,252.105,174.338L252.105,174.338z"/>
	<path fill="#333333" d="M307.227,178.456c-0.236,1.708-1.812,2.901-3.521,2.666l-28.272-5.671c-1.71-0.235-2.903-1.81-2.667-3.518
		s1.81-2.903,3.52-2.667l28.272,5.671C306.267,175.172,307.461,176.748,307.227,178.456"/>
	<path fill="none" stroke="#000000" stroke-width="3" stroke-linecap="round" stroke-linejoin="round" d="M307.227,178.456
		c-0.236,1.708-1.812,2.901-3.521,2.666l-28.272-5.671c-1.71-0.235-2.903-1.81-2.667-3.518s1.81-2.903,3.52-2.667l28.272,5.671
		C306.267,175.172,307.461,176.748,307.227,178.456L307.227,178.456z"/>
	<path fill="#333333" d="M179.576,230.297c0.111,3.352,0.596,7.324,2.742,8.398c1.799,0.898,3.016-4.033,3.647-7.615
		C184.895,231.1,182.292,231.045,179.576,230.297"/>
	<path fill="none" stroke="#000000" stroke-width="3" stroke-linecap="round" stroke-linejoin="round" d="M179.576,230.297
		c0.111,3.352,0.596,7.324,2.742,8.398c1.799,0.898,3.529-3.956,4.162-7.538C185.408,231.177,182.292,231.045,179.576,230.297
		L179.576,230.297z"/>
	<g>
		<path fill="#F0F1F2" d="M223.25,437.398c-32.219,0-62.432-6.399-89.8-19.021c-25.146-11.596-47.418-28.174-66.196-49.272
			C32.298,329.827,12.25,277.813,12.25,226.398c0-56.363,21.947-109.351,61.798-149.202s92.839-61.798,149.202-61.798
			s109.351,21.947,149.202,61.798c39.851,39.851,61.798,92.839,61.798,149.202c0,78.176-42.899,149.582-111.958,186.354
			c-4.111,2.202-8.352,4.281-12.606,6.184c-0.495,0.232-0.973,0.441-1.449,0.65l-0.846,0.371
			C281.016,431.442,266.002,437.398,223.25,437.398z M222.758,28.011c-109.195,0-198.033,88.837-198.033,198.033
			s88.838,198.033,198.033,198.033c109.196,0,198.033-88.837,198.033-198.033S331.954,28.011,222.758,28.011z"/>
	</g>
	<path fill="none" d="M227.25,17.898c28.285,0,55.723,5.539,81.549,16.461c24.947,10.551,47.353,25.657,66.593,44.897
		c19.24,19.24,34.347,41.646,44.897,66.592c10.923,25.827,16.461,53.264,16.461,81.549c0,38.717-10.643,76.535-30.777,109.367
		c-19.574,31.921-47.372,58.085-80.393,75.667c-4.076,2.184-8.283,4.247-12.507,6.133l-0.03,0.014l-0.031,0.016
		c-0.451,0.214-0.914,0.415-1.378,0.618c-0.285,0.125-0.571,0.25-0.826,0.363c-26.399,11.495-54.512,17.323-83.558,17.323
		c-32,0-62.002-6.353-89.172-18.883c-24.958-11.509-47.064-27.965-65.704-48.908c-17.49-19.652-31.181-42.341-40.69-67.435
		c-9.115-24.051-13.934-49.734-13.934-74.274c0-28.285,5.539-55.722,16.461-81.549c10.551-24.947,25.657-47.352,44.896-66.592
		c19.24-19.24,41.646-34.346,66.593-44.897C171.528,23.438,198.965,17.898,227.25,17.898 M226.758,426.577
		c26.937,0,53.067-5.275,77.669-15.682c23.761-10.05,45.1-24.438,63.423-42.761s32.71-39.662,42.761-63.424
		c10.404-24.602,15.682-50.731,15.682-77.668c0-26.936-5.276-53.066-15.682-77.667c-10.051-23.761-24.438-45.099-42.761-63.423
		c-18.323-18.324-39.662-32.71-63.423-42.76c-24.602-10.406-50.732-15.682-77.669-15.682c-26.936,0-53.066,5.276-77.668,15.682
		c-23.761,10.05-45.099,24.437-63.423,42.76c-18.324,18.323-32.71,39.662-42.76,63.423c-10.406,24.601-15.683,50.732-15.683,77.667
		c0,26.937,5.276,53.066,15.683,77.668c10.05,23.762,24.437,45.101,42.76,63.424c18.324,18.323,39.662,32.711,63.423,42.761
		C173.691,421.301,199.822,426.577,226.758,426.577 M227.25,14.898c-117.367,0-212.5,95.133-212.5,212.5
		c0,99.875,76.854,212.5,212.5,212.5c30.124,0,58.791-6.267,84.755-17.571c0.768-0.344,1.544-0.668,2.292-1.021
		c4.318-1.929,8.549-4.004,12.7-6.229c67.085-35.722,112.753-106.366,112.753-187.679C439.75,110.031,344.617,14.898,227.25,14.898
		L227.25,14.898z M226.758,423.577L226.758,423.577 M423.291,227.045 M226.758,30.511 M30.225,227.045"/>
</g>
</svg>
