<?xml version="1.0" encoding="utf-8"?>
<!-- Generator: Adobe Illustrator 17.1.0, SVG Export Plug-In . SVG Version: 6.00 Build 0)  -->
<!DOCTYPE svg PUBLIC "-//W3C//DTD SVG 1.0//EN" "http://www.w3.org/TR/2001/REC-SVG-20010904/DTD/svg10.dtd" [
	<!ENTITY ns_extend "http://ns.adobe.com/Extensibility/1.0/">
	<!ENTITY ns_ai "http://ns.adobe.com/AdobeIllustrator/10.0/">
	<!ENTITY ns_graphs "http://ns.adobe.com/Graphs/1.0/">
	<!ENTITY ns_vars "http://ns.adobe.com/Variables/1.0/">
	<!ENTITY ns_imrep "http://ns.adobe.com/ImageReplacement/1.0/">
	<!ENTITY ns_sfw "http://ns.adobe.com/SaveForWeb/1.0/">
	<!ENTITY ns_custom "http://ns.adobe.com/GenericCustomNamespace/1.0/">
	<!ENTITY ns_adobe_xpath "http://ns.adobe.com/XPath/1.0/">
]>
<svg version="1.0" xmlns:x="&ns_extend;" xmlns:i="&ns_ai;" xmlns:graph="&ns_graphs;"
	 xmlns="http://www.w3.org/2000/svg" xmlns:xlink="http://www.w3.org/1999/xlink" x="0px" y="0px" viewBox="0 0 283.5 283.5"
	 enable-background="new 0 0 283.5 283.5" xml:space="preserve">
<metadata>
	<sfw  xmlns="&ns_sfw;">
		<slices></slices>
		<sliceSourceBounds  width="262.6" height="262.6" x="15" y="10.4" bottomLeftOrigin="true"></sliceSourceBounds>
	</sfw>
</metadata>
<g id="Calque_2">
	<path fill="#C03FFC" d="M146.3,20.8c-66.8,0-121,54.2-121,121c0,63.7,49.2,115.9,111.8,120.7c4,0.1,8.1,0.2,12.1,0.3
		c65.5-1.5,118.2-55.1,118.2-121C267.3,74.9,213.1,20.8,146.3,20.8z"/>
</g>
<g id="Calque_4">
	<g id="CHg5LJ.tif">
	</g>
	<g id="UDKyZI.tif">
		<g>
			<path fill="#1F1F1D" d="M151.7,258.8c2.7-1.3,5.7-1.6,9-0.6c-3.1,3.8-6.8,6.4-11.6,6.8c-3.4,0.3-6.9,0.5-10.4,0.9
				c-2.5,0.3-4.8,1.1-6.7,2.9c-0.6,0.6-1,1.1-1.2,1.7c5.8-2.6,12.2-2.6,18.5-2.6c8.2,0,17.1,0.3,25.2-1.3c0.2,0,0.4-0.1,0.6-0.1
				c3-1.3,6.1-2.1,9.4-2.1c6.7-1.6,13.5-3.5,20.1-5.8c0.1-0.1,0.1-0.2,0.2-0.3c6.6-9.4,18.4-12.6,25.8-21.3
				c6.5-7.6,12.7-15.5,19.5-22.9c0,0-0.1,0-0.1,0c-2.5-0.5-5.1-0.3-7.6,0.1c-3.9,0.7-7.2,2.8-10.4,5.5c0.1-0.7,0.1-1,0.2-1.2
				c2.2-11.7,4.4-23.3,6.3-35c1.8-11,2.9-22.1,4.4-33.1c1.2-8.4,1.6-16.7,0-25.1c-1-5.3-2.3-10.5-4.7-15.3
				c-5.4-10.9-14.7-16-26.5-16.6c-2.8-0.1-3.9-1.3-4.4-3.7c0-0.2-0.1-0.5-0.2-0.7c-2.7-9.2-3.2-18.7-4.5-28.1
				c-0.1-1,0.1-2.9-1.1-2.9c-1.4,0-0.9,1.9-1,2.9c-0.8,10.1-2,20.2-5.8,29.7c-0.6,1.6-1.5,2.2-3.2,2.4c-7,0.8-13.9,1.9-20.5,4.4
				c-6.7,2.6-11.4,7.2-13.5,14.1c-2.9,9.7-4.5,19.6-3.7,29.8c0.8,9.7,1.6,19.4,2.7,29.1c1.7,15,3,30,6.7,44.7
				c1.4,5.3,2.4,10.7,3.7,16.1c-1.8,0.2-3.4-0.1-4.9-0.3c-3.7-0.3-7.5-1-10.9,0.9c-1.3,0.7-2.1,0.5-3.1-0.2c-0.8-0.6-1.5-1.3-2.2-2
				c-2.8-3.1-6.2-4.2-10.3-3.6c-0.8,0.1-1.6,0.1-2.6,0.2c4.4-7.7,10.3-14.6,9.1-24.2c4.1,1.6,6.1,1.2,9.4-1.7c1.5-1.3,2.9-2.8,4-4.4
				c0.6-0.9,2.2-2,1.4-2.8c-0.9-1-1.9,0.6-2.8,1.1c-2.6,1.4-4.1,0.9-4.9-2c-0.3-1.1-0.4-2.3-0.5-3.4c-0.2-1.7-0.2-3.5-0.5-5.2
				c-1-5.1-5.1-6.6-9.2-3.6c-2.2,1.7-3.7,4-4.6,6.6c-1.6,4.4-2,9-2.5,13.6c-0.4,4.5-0.5,9.2-5.3,11.9c-0.2-1.4-0.7-2.8-1.8-3.7
				c-0.9-0.8-0.9-1.6-0.7-2.6c1.2-6,2.4-11.9,3.6-17.9c2.9-14.8,5.3-29.6,4.6-44.7c-0.4-9.6-2-18.9-6.9-27.3
				c-5.6-9.7-13.3-16.8-25-17.5c-4.3-0.3-5.8-2.4-7.1-5.7c-0.3-0.8-0.5-1.6-0.6-2.4c-1.5-6.9-2.3-13.8-2.7-20.8
				c0-0.7,0.4-1.7-0.6-2.1c-0.7,0.2-0.6,0.8-0.6,1.2c-0.2,3.2-0.3,6.4-0.5,9.6c-0.4,5.9-1,11.8-2.9,17.5c-0.5,1.5-1.2,2-2.7,2.1
				c-19.1,0.9-35.6,17.1-33.9,38.2c1.8,21.4,4.4,42.7,7.9,63.8c0.4,2.6,1.6,5.4,1,7.8c-0.6,2.4-1.7,4.8-1.3,7.7c-5-3-7.8-6.7-8.6-12
				c-0.4-2.7-0.4-5.4-0.3-8.2c0.1-7.1-1.4-13.3-7.5-17.9c-2.8-2.1-2.5-3.9,0.4-5.8c1.2-0.8,2.1-1.8,1.5-3.3c-0.7-1.5-2.1-2-3.8-1.4
				c-3,1-5.1,3-6,6.1c-1.4,4.9-0.2,9.2,3.1,12.9c3.5,4,5,8.5,4.9,13.8c-0.1,3.9,0.3,7.8,0.4,11.6c0.1,2.2,0.3,4.3,0.8,6.2
				c2-0.4,4.2,0.6,5.2,2.4c2.6,4.3,4.9,9,8.7,12.4c4.7,4.2,10.5,7.2,15.8,10.5c0,0,0,0,0,0c2.1-0.5,4.2-0.6,6.5-0.2
				c6,0.9,12,0.4,18-0.1c8.8-0.7,16.7,2.2,24,7.2c-0.3,0.3-0.4,0.5-0.6,0.7c-0.7,0.8-2.2,1.6-1.6,2.8c0.5,1.1,2,0.5,3,0.4
				c5.2-0.3,10.1,0.3,14.4,3.5C139.8,260.9,145.5,261.7,151.7,258.8z"/>
			<path fill="#B4E6FE" d="M167.7,230.6c-2.2-10.7-5.3-21.3-6.9-32.2c-2.8-19.3-4.7-38.7-6.2-58.1c-0.8-9.9,0.9-19.6,3.9-29
				c2.8-8.7,9.9-12.6,18.1-14.8c6.9-1.8,13.9-3.2,21-3.4c7.8-0.2,15.9,0.4,23.5,2.9c10.2,3.4,15.5,11.2,18.6,20.9
				c3.5,11.2,3.6,22.5,2,34c-1.9,12.8-3.1,25.7-5.4,38.4c-1.8,10.2-3.7,20.4-5.6,30.6c-0.5,2.5-2.4,4.1-4.1,5.7
				c-1.8,1.6-3.8,2.8-6.2,3.9c-0.7-3.2-2.2-5.9-3.7-8.6c-0.6-1.1-0.7-2.3-0.1-3.5c1.2-2.6,1.9-5.3,0.5-8.1c-0.3-0.7,0-1,0.4-1.5
				c3.4-4.5,6-9.4,7.1-15c0.5-2.4,0.1-4.6-1.2-6.6c-0.8-1.2-1.8-2.5-3.2-2.5c-3.4,0.2-3.7-2.2-4.2-4.5c-1.7-6.9-0.6-13.2,4.1-18.8
				c3.3-3.9,6.6-7.9,9.7-11.9c2.7-3.6,4.8-7.5,4.6-12.3c0-0.6,0.2-1.3-0.4-1.6c-0.7-0.3-1,0.5-1.3,0.8c-1.2,1.4-2.4,2.9-3.6,4.4
				c-2.2,2.8-4.8,5.2-8.4,6.5c-0.1-2.6,0.8-4.8,1.8-6.9c1.7-3.8,3.6-7.6,5.3-11.4c1.8-4,2.8-8.1,2.1-12.5c-1.3-7-6-10.9-12.4-13.2
				c-5.9-2.1-12-2.4-18-1.1c-4.3,0.9-8,2.9-10.8,6.5c-1.2,1.6-2.5,3.2-4.4,4.2c-1.4,0.7-2.1,2.2-2,3.7c0.1,1.4-0.4,2.2-1.2,3.3
				c-3.9,5.5-5.3,11.3-2.1,17.6c0.2,0.3,0.5,0.7,0,1.3c-1.3-2-2.5-3.9-3.7-5.7c-0.9-1.3-2.1-3-3.6-2.5c-1.8,0.7-0.9,2.7-0.7,4.2
				c0.3,2.8,0.8,5.7,2.3,8c2.9,4.5,2.2,9.7,3.2,14.5c0.1,0.6-0.2,1.3-0.4,1.9c-2.3,6.3-3,12.8-3.2,19.4c0,1.6-0.5,2.4-1.9,3
				c-3.3,1.6-6.2,3.8-7,7.8c-0.4,1.8-0.4,3.5,1.2,4.8c1.5,1.2,2.9,0.5,4.4-0.3c0.5-0.3,1-0.6,1.6-0.8c0.9-0.3,2.2-1.5,2.6-0.7
				c0.5,1.2,1.1,3-0.1,4.2c-4,3.6-3.8,8.4-3.7,13.1c0,2.5,0.5,4.9,0.8,7.4c0.2,1.5,1.1,2.2,2.5,2.1c1.5-0.1,2-1.1,2.2-2.5
				c0.3-3.5-0.9-6.8-1.5-10.3c-0.5-2.8-0.3-3.6,1.6-5.3c0.1,1.8,0.2,3.4,0.4,5c0.2,1.6,0.6,3.2,2.6,3.4c2.1,0.2,1.8-1.7,2.8-2.8
				c0.6,5,1.4,9.9-1.1,15C177.1,226.3,172.8,228.7,167.7,230.6z"/>
			<path fill="#B4E6FE" d="M102.5,192.4c-1.8-1.5-3.5-2.8-3.1-5.3c0.6,0.4,0.1,1.5,1,1.5c1,0.1,0.9-0.9,1.1-1.4
				c0.7-1.5,1.2-3.1,1.9-4.6c0.3-0.7,0.5-1.6,1.7-1.5c1.1,0.1,1,0.9,1.2,1.6c0.4,1.4,0.7,2.9,1.2,4.3c0.1,0.4,0.1,1.1,0.8,1.1
				c0.6,0,0.8-0.5,1-1c0.5-1.2,1.2-2.4,1.5-3.7c0.6-2.5,2.2-2.7,4.3-2.2c1.9,0.5,3.8,1,5.8,0.9c1.8,0,3.3-0.6,3.7-2.6
				c0.4-2.1-0.7-3.2-2.5-3.9c-2.9-1.1-6-0.9-9-1.5c-3.4-0.6-6.7-1.6-9.7-3.5c-2-1.3-3.5-3-4.3-5.3c-0.6-1.7-0.7-3.1,0.6-4.9
				c1.5-1.9,3.6-3.2,4.8-4.9c3.4-5.1,8.4-9.7,8.3-16.6c0-2.8-0.6-5.4-2.1-7.8c-2-3.3-5-5.8-7.6-8.6c-1.5-1.6-4-2.1-6.2-1.9
				c-4.5,0.4-9.1,0.5-13.5,1.2c-11.1,1.6-18.7,10.7-19.1,22c-0.1,2.8,0,5.6,0,9.1c-1.6-2.2-2.7-3.9-4-5.6c-0.3-0.4-0.5-1.2-1.3-0.9
				c-0.6,0.2-0.4,0.9-0.4,1.3c0.7,7,1.5,14.1,3.6,20.9c0.9,2.9,2.8,5.1,5.8,6.3c-3.9,5.6-3.3,11.4,0.2,16.5c2,3,2.4,5.9,2.3,9.3
				c-0.1,2-0.8,3.5-1.8,5c-0.4,0.6-0.9,0.9-1.6,0.9c-2.5,0-5,0-7.4,0.6c-1.3,0.3-1.1-0.7-1.2-1.3c-1-5.7-1.9-11.4-2.9-17.1
				c-2.3-13.6-3.9-27.3-5.3-41c-0.6-5.8-1.2-11.7-0.8-17.5c1-14.9,11.9-27.6,26.5-30.6c9.1-1.9,18.3-1.8,27.3,0.1
				c11.8,2.5,18.7,10.9,23.1,21.5c4.3,10.2,4.9,21,4.4,31.8c-0.5,12.5-2.7,24.7-5.1,36.9c-1,5.2-2.1,10.3-3.1,15.5
				c-0.2,1.1-0.5,1.4-1.7,1.3c-2.7-0.2-5.4-0.1-8.2-0.1c-2.5,0-4.6-3.1-3.7-5.4c0.3-0.8,1-0.7,1.6-1c1.6-0.7,3.3-1.5,3.3-3.6
				c0-2.1-1.3-3.7-3.2-4.2c-2.7-0.7-4.2-2.3-5-4.8c-0.2-0.7-0.5-1.6-1.4-1.6c-1.1,0.1-0.9,1.3-1.1,1.9
				C103,189.6,102.8,190.9,102.5,192.4z"/>
			<path fill="#8BAC18" d="M201.4,203c4,0.8,6,3.6,8.9,5.2c0.9,0.5,1.8,0.8,2.8,0.9c2.9,0.2,4.3,2.1,3.6,5c-0.4,1.4-0.9,2.8-1.5,4.2
				c-0.9,2.2-1.5,4.4-1.6,7.3c1.2-1.4,1-2.9,1.7-4.4c1.9,3.1,3.8,5.9,4,9.3c0.1,2.2,0.5,3.7,3.2,3.4c0.7-0.1,1.4,0.3,2.5,0.7
				c-5.4,1.6-10.4,2.1-15.5,2.6c-8.1,0.8-16.1,0.9-24.2,0c-1.1-0.1-2.6,0.3-3-1.1c-0.4-1.2,0.4-2.5,1.5-3.1c3-1.8,4.2-4.5,4.3-7.8
				c0.1-2.7,1.9-4.5,3.1-6.7c-2.6,1.6-4,4-4,7c-0.1,2.8-1.1,5-3.4,6.5c-1.3,0.8-2,1.9-2.3,3.3c-0.2,1.2-0.7,1.5-2,1.2
				c-3.1-0.7-6.2-1.4-9.2-2.6c-0.7-0.3-1.5-0.4-1.5-1.4c0-0.9,0.7-1.2,1.3-1.6c0.6-0.4,1.3-0.7,2-1c3.9-1.3,6.3-4,8-7.6
				c0.5-1.2,1.1-2.3,1.8-3.6c1,1.8-0.2,3.4,0.1,5.4c1.5-2.1,1.5-4,1-5.9c-0.6-2.4-0.8-4.7-0.7-7.1c0.1-2.4,0.5-5-1.9-6.8
				c-0.5-0.4-0.7-1.4,0.6-1.9c2.7-0.9,5.3-2.9,8.1,0.1c-0.4-1.6-1.3-2.4-2.8-2.5c-1.1-0.1-2.1,0.1-3.1,0.5c-1,0.3-2.4,1.6-3.1,0.6
				c-0.7-1,0.1-2.6,0.9-3.7c2.5-3.8,6.4-3.6,10.2-3.1c4.5,0.6,8.8,2,12.8,4.3c3,1.6,6.1,2.3,9.5,2c3.9-0.3,6.4-2.9,6.4-6.8
				c0-4-2.3-6.4-6.4-6.6c-2.4-0.1-4.8,0.2-7,1.1c-4,1.7-8.3,2.2-12.3,0.8c-8.6-2.8-16.5-1.5-24.3,2.7c-1.4,0.8-3.1,2.3-4.7,0.7
				c-1.6-1.6-0.8-3.6,0-5.3c0.8-1.8,2.2-3,3.9-4.1c2.4-1.5,5-2.8,7.7-4c0.7-0.3,1.7-0.3,2-1.6c-1.4,0.1-2.5,0.8-3.7,1.3
				c-1.2,0.5-1.7,0.4-1.7-1c0.3-9.6,2.2-18.7,6.9-27.2c1.3,0.2,1.3,2,2.8,2.1c-0.3-1.9-2.5-2.9-2.2-5.2c0.9,0.6,1.8,1.1,2.8,1.7
				c0-1.5-1.2-1.7-1.8-2.4c-1.4-1.8-2.6-3.6-2.6-6c0-0.6,0.1-1.4,0.8-1.7c0.6-0.3,1,0.4,1.4,0.8c7.9,7.1,16.9,7.8,26.5,4.5
				c7-2.4,10.6-7.8,10.5-14.8c0-4.2-1.9-7.4-5.2-9.6c-8.9-5.8-18.4-7.1-28.6-3.6c-0.6,0.2-1.2,0.9-1.7,0.2c-0.4-0.5-0.2-1.3,0.1-1.9
				c1.3-2.9,3.9-3.3,6.6-3.5c8.1-0.6,16,0.4,23.3,4.1c0.3,0.1,0.6,0.2,0.9,0.3c0.1,0,0.3-0.1,0.7-0.4c-8.4-4.8-17.4-5.5-26.8-4.8
				c2.9-4.2,6.4-7.1,11.5-8c-0.6,1.5-1.5,3.3,0.7,4.2c1.1,0.5,2.4,0.3,3-1c0.7-1.7-0.2-2.8-2.5-3.6c8.9-1.2,16.5-0.1,23.2,5.1
				c1.2,0.9,1.7,1.8,0.8,3.4c-1.4,2.5-0.2,4.5,2.7,4.7c1.5,0.1,1.7,0.9,1.8,2.1c0.3,4.5-1.3,8.6-3.1,12.6c-1.9,4.1-4.4,8-5.5,12.4
				c-0.7,3.1-1.7,5.7-4.6,7.6c-2,1.3-2.7,3.7-3.5,6.1c0.6-0.2,0.8-0.2,0.8-0.3c1.8-5.3,6.2-7.6,10.8-9.8c3.1-1.5,5.1-4.4,7.2-7.1
				c0.6-0.8,1.2-1.5,2.1-2.6c0.3,2.8-0.5,4.8-1.4,6.8c-2.3,5-6.1,8.8-9.5,12.9c-1.6,2-3.2,4-4.6,6.1c-1.5,2.3-3.5,4.1-6.3,5.1
				c1.6,0.8,2.4-0.6,3.7-0.3c-1.1,5.4-0.8,10.7,1,16c-1.9,0.3-2.5-1.8-4.5-1.7c1.6,2.1,3.5,3,5.8,3.2c5,0.4,7.5,3.8,6.4,8.8
				c-1.1,4.7-3.4,8.9-5.9,13c-1.5,2.4-4.8,2.5-7.5,0.7c-1.7-1.2-3.3-2.5-5-3.6C204.3,202.8,203.3,202.1,201.4,203z"/>
			<path fill="#8BA418" d="M148,193.2c-0.4-1.2-0.6-2.4-0.6-3.6c0-2.2-0.1-4.5-1-6.6c-1.5-3.7-4-4.3-7.2-1.8
				c-2.4,1.9-3.8,4.5-4.7,7.4c-1.2,4-1.7,8.2-2,12.4c-0.3,4.4-0.7,8.8-4.7,11.7c-1.3,1-1.7,2.2-1.8,3.8c-0.4,4.7-2.1,6.6-6.7,7.8
				c-1.6,0.4-3.2,0.8-4.8,1.3c-19,5.4-37.4,4.1-55.4-4.2c-1.2-0.6-2.2-1.2-2.4-2.5c-0.2-1.5-1-2.3-2.2-3c-4.4-2.9-7.3-6.7-8-12.1
				c-0.4-2.9-0.3-5.8-0.3-8.6c-0.1-2.6-0.3-5.1-0.8-7.6c-0.8-4.1-3.6-6.7-6.5-9.4c-3.1-2.9-2.8-5,0.5-7.4c0.6-0.5,1.7-0.8,1.1-1.9
				c-0.5-1-1.5-1.2-2.6-0.8c-2.5,0.9-4.2,2.6-5,5.1c-1.6,4.8,0.1,8.9,3.2,12.5c2.7,3.1,4.4,6.6,4.6,10.7c0.2,4.7,0.3,9.4,0.5,14.1
				c0.1,2.3,0.1,4.8,0.7,7.1c1.7,0,3.4,0.9,4.3,2.5c1.9,3.2,3.7,6.7,6.1,9.6c1.4,0.5,3.1,0.7,4.9,0.6c0.4,0,0.8,0.1,1.1,0.2
				c-0.8,0.9-1.7,0.8-2.6,0.7c-0.8-0.2-1.6-0.3-2.4-0.3c0.5,0.5,1,1.1,1.6,1.6c4.3,3.9,9.6,6.7,14.6,9.7c2.4-0.7,5-0.8,7.6-0.5
				c4.3,0.4,8.5,1.2,12.8,0.5c9.4-1.7,18.2-0.1,26.4,4.7c2.7,1.6,5,2.6,8.1,1.3c1.7-0.7,3.7-0.4,5.6-0.1c0.8,0.1,1.7,0.3,2.5,0
				c-0.4-0.8-0.9-1.4-1.5-1.5c-4.2-1.3-5.9-4.7-7.2-8.4c-1.3-3.7-3.7-5.9-7.9-5.7c-2.2,0.1-4.4-0.7-5.4-3.1c1.9,0.9,3.6,2.3,5.8,2.2
				c4.1-0.2,6.7,1.9,8.2,5.5c0.5,1.2,1.2,1.5,2.4,1.6c3.2,0.2,6.4,0.5,9.6,0.8c2.9,0.2,5.8,0,8.2-2c1.2-1.1,3.1-1.9,3.3-3.5
				c0.1-0.8-1.9-1.8-2.8-2.8c-2.3-2.5-4.9-4.1-8.4-3.8c-3.5,0.3-6.9,0.4-10.4,0.2c-1.9-0.1-3.9-0.5-5.5-1.8c1.5,0,2.9,0.3,4.3,0.6
				c4.7,1,5.8,0.6,8.4-3.4c2.3-3.5,4.4-7.2,5.9-11.1c2-5.5,2.5-10.9-1.3-15.9c-0.2-0.3-0.4-0.6,0.2-1.1c1.5,1.3,2.3,3,3.2,4.7
				c1.5,3,3.5,3.7,6.5,2.1c2.4-1.3,4.1-3.3,5.9-5.7C150.9,196.9,149.1,196.1,148,193.2z"/>
			<path fill="#8BA418" d="M150,258.3c3.1-1.3,6.3-2,9.6-1.3c1.3,0.3,2-0.2,2.8-1.3c1.7-2.7,4.5-3.6,7.9-4.7
				c-0.8,1.6-1.9,1.6-2.7,2.1c-1.6,0.8-3.4,1.5-4.3,3.1c-4.2,7.6-10.9,10.6-19.4,10.3c-2.6-0.1-5.3,0.2-7.8,1.2
				c-1.3,0.5-3.2,1-3.8,2.2c5.4-1.9,11.2-2,17-2c6.9,0,14.3,0.2,21.2-0.7c1.5-0.6,3.1-1.3,4.6-2c2.8-1.2,5.6-1.9,8.6-1.9
				c3,0.1,3,0,2.4-2.9c0-0.1,0.2-0.2,0.5-0.4c0.9,1,1.3,2.1,1.4,3.4c5.2-1.3,10.3-2.8,15.4-4.5c-0.3-0.6-0.8-1.2-1.4-1.7
				c-0.7-0.7-1.8-1.2-2-2.4c2.1,0.7,3.5,2,4.3,3.8c0,0,0.1,0,0.1,0c0.1-0.1,0.1-0.2,0.2-0.3c1.6-2.3,3.6-4.3,5.7-6
				c-1.1,0.1-2.1,0.2-3.2,0.2c-9.5,0.4-19-0.3-28.3-2c-5.1-0.9-10.3-2.3-14.4-5.4c-2.5-1.9-4.8-1.9-7.4-2c-3-0.1-5.4,1.4-7.8,2.9
				c-3.6,2.3-7.4,3.6-11.7,3.2c-3.6-0.3-7.2-0.5-10.9-0.5c-3.1,0-6,1-8.7,4.1c7.2-0.9,13.3,0.2,18.7,4.2
				C140.8,260,145.2,260.3,150,258.3z"/>
			<path fill="#8BAC18" d="M98.5,198.3c0.8,0.7,0.7,1.7,1,2.5c0.3,0.9,0.3,2.1,1.7,2c1.2-0.1,1.9-1,1.9-2c-0.1-2.7,1.2-3.8,3.6-4.4
				c1.7-0.5,0.9-2.3,1.3-3.5c0.4,0.1,0.8,0.1,1.2,0.2c1.9,0.7,4,1.6,3.9,3.9c-0.1,2-2.2,2.4-3.7,3.1c-0.9,0.4-2,0.1-3,1.2
				c1.7,0,2.1,0.9,1.9,2.2c-0.1,0.8,0.2,1.5,0.6,2.1c0.8,1.2,1.6,2.3,2.4,3.4c0.8,1.2-0.3,2.5,0.4,3.8c1.1-0.5,0.1-2.2,1.2-2.2
				c1.2,0.1,2.3,0.9,3.1,1.9c-5.5,4.6-42.6,3.6-52.1-0.5c2.1-1.8,4.2-3.4,5.8-5.7c1.4-2,1.7-4.2,1.8-6.5c0-3.2,0.1-3.2,2.9-1.9
				c-0.1-1.1-1-1.4-1.6-2c-3.7-3.5-6.1-7.6-6.2-12.8c-0.1-5.6,2.8-9.3,8.3-10.7c0.7-0.2,1.7,0.1,2.2-1.1c-2.3,0.2-4.6,0.4-6.3,1.8
				c-2.2,1.9-3.6,0.7-5.1-0.7c-2.1-2.1-3.1-4.8-3.6-7.7c-0.9-5.1-1.7-10.2-2.2-15.5c3.5,5.4,7.8,10.2,11.6,16.1
				c-0.1-2.8-1.4-4.6-2.9-5.9c-3-2.8-3.7-6.1-3.5-10c0.3-5.4,0-10.8,3-15.6c0.8-1.3,1.7-2.6,2.7-3.8c0.9-1.2,1.9-2.1,3.7-1.4
				c1.7,0.6,3.3-0.5,3.6-2.2c0.4-2.3,2-2.7,3.8-3.1c1.7-0.4,3.4-0.6,5.2-0.5c0.6,0.8-1.4,0.9-0.5,1.6c0.6,0.5,1.2-0.3,1.8-0.5
				c3.8-1.6,7.6-2.8,11.7-1.5c1.6,0.5,3,1.2,4.4,3.1c-3.7-0.8-7-1.3-10.3-1.2c-10.7,0.4-19.3,13.5-15,23c2,4.4,5.5,7,10.4,7.3
				c5.5,0.4,11,0.2,16.2-2.2c-2.2,5.1-7.2,5.1-11.7,6.5c1,1.1,1.9,0.2,2.7,0.2c1,0,1.9-0.8,3-0.3c-0.8,3.2-4,3.1-6.2,4.4
				c1.4,1.2,2.9-1.1,3.9,0.3c0.7,1,0.6,2.5,1.2,3.7c2.2,4.1,5.9,6,10.1,7.3c3.7,1.2,7.7,1.1,11.4,1.9c0.8,0.2,1.6,0.5,2.3,0.8
				c0.9,0.4,1.2,1.3,1.1,2.3c-0.2,1-0.8,1.7-1.8,1.8c-1.1,0.1-2.4,0.3-3.4,0c-4.2-1.4-8.5-1-12.8-0.8c-4.3,0.2-8.3-0.8-12.2-2.7
				c-5.3-2.6-10.7-4.1-16.6-1.4c-7.2,3.2-8.5,9.2-3,14.9c2.8,3,5.2,6.1,5.3,10.5c0,1.3,0.9,2.4,2.4,2.4c1.4,0.1,1.3-1.2,1.5-2.1
				c0.1-0.4,0.2-0.8,0.4-1.2c0.3-1,0.7-2.2,1.8-2c0.9,0.1,1.1,1.4,1.2,2.3c0.2,1.3-0.2,3.2,1.7,3.3c1.8,0.1,2-1.8,2.5-3.2
				c0.3-0.6,0.1-1.5,1.1-1.8c0.7-0.2,1.5-0.7,2-0.5c0.7,0.3,0.5,1.3,0.4,2c-0.3,2.6-0.9,5.2-0.7,7.9c0.1,1.3,0.1,2.9,1.9,3
				c1.8,0.1,1.8-1.5,2.1-2.7c0.7-2.9-0.3-5.8,0.2-8.6C97.7,199.8,97.6,199,98.5,198.3z"/>
			<path fill="#FEFE7F" d="M194.6,115.8c5.7,0,11.2,1,16.1,3.9c8.8,5.1,9.3,16,0.9,21.8c-7.8,5.4-22,6.5-31.1-3.6
				c-2.9-3.2-3.4-7.5-2.1-11.7c2.2-7.2,4.6-9,12.8-10.3C192.3,115.6,193.4,115.8,194.6,115.8z"/>
			<path fill="#FEFE7F" d="M111.8,139.9c0.3,3.8-3.5,10.8-10.2,12.6c-3.9,1.1-7.9,1.7-12,1.1c-8.4-1.2-13.1-8.5-10.1-16.5
				c4.4-11.6,14.7-14.5,25-10.3C109.6,128.9,111.6,133.7,111.8,139.9z"/>
			<path fill="#8BA418" d="M230.4,237C230.5,237,230.5,237,230.4,237c6.3-7.3,12.3-14.9,18.7-22c-5.2-0.6-10.2,0.4-14.4,3.7
				c-2.3,1.8-4.1,3.7-4.2,6.9c-0.1,2.2-0.8,4.3-1.2,6.5c-0.1,0.6-0.3,1.5-0.1,1.9C229.9,235,230.2,236,230.4,237z"/>
			<path fill="#6AA4D4" d="M125,212c0.8,3.4-0.3,6.4-1.7,9.3c-0.4,0.9-1.5,1.1-2.3,1.3c-10.7,3.3-21.5,5.9-32.8,5.1
				c-10-0.7-19.7-3-28.7-7.4c-1.5-0.7-3.2-6-2.5-7.5c0.3-0.6,0.8-0.5,1.2-0.2c11.5,6,24.1,5.6,36.5,5.9c8.4,0.2,16.8-0.3,24.8-3.6
				C121.4,214.2,123.1,213.2,125,212z"/>
			<path fill="#6AA4D4" d="M164.2,242.6c0,1.2,0.5,1.7,1.5,2.2c3.1,1.6,6.3,2.8,9.6,3.8c6.9,2,14,2.2,21,2.8
				c5.3,0.5,10.5,0.3,15.7-0.4c5.8-4.4,12.5-7.6,17.6-13.1c0-0.2-0.1-0.4-0.1-0.7c-1.4,1.1-2.7,1.9-4.2,2.3
				c-8.7,2.3-17.5,3.1-26.4,2.9c-6.1-0.2-12.2-1-18.2-1.8c-5.6-0.8-11.2-1.9-16-5.9C163.9,237.5,164.3,240.1,164.2,242.6z"/>
			<path fill="#010101" d="M81.6,185c0.7-3.1,1.3-5.7,1.8-8.3c0.1-0.5,0-1.3,0.8-1.3c0.8,0,1.1,0.6,1.2,1.3c0.5,2.4,1,4.8,1.5,7.5
				c1.4-1.5,1.4-3.1,2-4.4c0.4-0.8,0.5-2.3,1.6-2.2c1.3,0.2,0.8,1.6,0.8,2.5c-0.1,1.6,0.4,3.2,0.8,5.2c1.3-1.8,2.3-3.2,3.3-4.7
				c0.2-0.3,0.5-0.7,1-0.6c0.5,0.2,0.4,0.7,0.4,1.1c0,0.5-0.2,1-0.3,1.4c-1.1,3.2-2.2,6.4-3.3,9.5c-0.3,0.8-0.4,2.1-1.5,2
				c-1.1-0.1-1-1.3-1.2-2.1c-0.3-1.5-0.8-2.9-1.3-4.8c-1.2,1.6-1.7,3.1-2.4,4.5c-0.3,0.8-0.7,1.7-1.6,1.8c-1.1,0.1-1-1.1-1.3-1.8
				c-0.4-1.1-0.8-2.1-1.1-3.1c-0.8-0.1-0.9,0.6-1.2,0.9c-2.6,3.6-5.9,3.6-8.5-0.1c-3.4-4.8-2.5-8.7,2.6-11.8c1.6-0.9,2.5-0.7,3.2,1
				C79.6,180.5,80.1,182.6,81.6,185z"/>
			<path fill="#8BA418" d="M134,239.7c0.8,0.1,1.6,0.3,2.4,0.4c4.4,0.6,8.3-0.5,11.1-4c4.2-5.2,9.7-4.8,15.4-4
				c0.7,0.1,1.6,0.1,1.1,1.3c-0.9,2.4-0.8,4.9-0.7,7.3c0,1.2-0.1,1.8-1.6,1.5c-4.9-0.8-9.5,0.1-13.6,3.2c-1.5,1.2-3,1.2-4.7,0.1
				c-1.9-1.3-4.1-2.1-6.5-2.1c-1.4,0-2.8-0.3-3.9-1.3c-0.6-0.5-1.1-1.1-0.9-1.9C132.3,239.3,133.3,239.9,134,239.7z"/>
			<path fill="#6AA3D4" d="M201.5,241.7c-8.9-0.5-18.4-1.1-27.6-3.5c-1.9-0.5-3.7-1.3-5.5-2.1c-1-0.4-1.8-1.1-2.4-2.1
				c-0.3-0.5-0.4-1.2,0.1-1.6c0.6-0.4,1,0.1,1.3,0.6c1.3,1.9,3.5,2.1,5.4,2.7c10.4,3.2,21.1,3.3,31.9,2.7c7.6-0.4,15.1-1.3,22.4-3.4
				c0.5-0.2,0.9-0.3,1.2,0.3c0.4,0.6,0.1,1.1-0.3,1.5c-1,1-2.2,1.4-3.5,1.8C217.1,240.8,209.6,241.4,201.5,241.7z"/>
			<path fill="#D6F0FC" d="M88,203.4c-1.1-1.1-0.5-2.7-1.1-4c-0.4-0.7-0.4-1.7-1.4-1.8c-1.1-0.1-1.9,0.4-2.5,1.3
				c-0.4,0.8-0.7,1.7-1,2.5c-0.2,0.5,0.4,1.5-0.7,1.5c-0.7,0-1.2-0.8-1.2-1.4c0.1-3.5-1.7-6.3-3.7-9.1c1.1-0.4,1.8,0.2,2.5,0.5
				c1,0.5,1.9,1.3,2.9,1.2c6.1-0.8,12.2,2.3,18.3-0.3c1.9-0.8,3.9,0.1,5.9,0.2c0.3,0,0.7,0.1,0.7,0.5c0,0.5-0.2,1-0.8,1.1
				c-2.6,0.5-4,2-3.9,4.8c0,0.6-0.3,1.5-1.1,1.4c-0.7,0-0.6-0.8-0.8-1.4c0-0.1,0-0.2,0-0.2c-0.4-1.3-0.4-3.4-1.9-3.3
				c-1.5,0.1-1.7,2.2-1.8,3.7c-0.1,2.5,0,5-0.2,7.4c-0.1,1,0.3,2.8-1.3,2.7c-1.2-0.1-0.9-1.7-0.9-2.8c0-1.2,0.2-2.5,0.3-3.7
				c0.1-1.1,0.3-2.3,0.3-3.4c0-1.3,0.3-2.7-0.7-3.7c-0.5-0.4-4.1,2.3-4.5,3.1C89.3,201.4,89.5,202.8,88,203.4z"/>
			<path fill="#B4E5FD" d="M194.9,92.4c4-9.8,5.6-19.9,6.3-30.1c1.1,3.5,1.2,7.1,1.6,10.6c0.8,6.1,1.7,12.2,3.6,18.1
				c0.5,1.4,0.5,1.8-1.3,1.6C201.9,92.2,198.6,91.6,194.9,92.4z"/>
			<path fill="#D5EFFC" d="M182.9,193.9c-3.9,2.7-4.6,6.2-3.9,10.2c0.2,1.3,0.7,3.4-1,3.5c-1.9,0.2-1.7-2-1.9-3.4
				c-0.1-1.1-0.1-2.3-0.2-3.5c-0.1-1.9-0.9-1.8-2.2-0.9c-1.5,1-1.6,2.4-1.6,3.9c0.1,3.2,1.2,6.3,1.6,9.5c0.2,1.6,0.9,3.9-1.1,4.2
				c-2.2,0.3-1.8-2.3-1.9-3.8c-0.4-3.8-0.7-7.5,0-11.3C171.5,197.2,177.2,193,182.9,193.9z"/>
			<path fill="#8AAB18" d="M176.8,154.8c-0.2-0.7-0.4-1.1-0.3-1.5c0.5-5.1-1.8-9.4-3.7-13.9c-0.9-2.2-1.3-4.6-1.5-7
				c-0.1-0.5-0.3-1.3,0.4-1.5c0.6-0.2,1.1,0.3,1.4,0.8c2.2,3.1,5.1,5.9,5.3,10.1c0.1,1.1,0.6,2.2,0.9,3.3
				C180.3,148.7,178.7,151.7,176.8,154.8z"/>
			<path fill="#669CCA" d="M123.3,209.2c1.9,1.2,1.1,2-0.3,2.9c-5.6,3.3-11.8,4.8-18.1,5.3c-12.1,0.8-24.2,0.4-36.2-1.9
				c-3.7-0.7-7.1-2.1-10.4-3.9c-0.6-0.3-1.1-0.5-0.7-1.2c0.3-0.6,0.7-0.5,1.1-0.1c3.4,3.5,7.9,3.9,12.3,4.6
				c12.2,1.9,24.5,2.2,36.8,1c4.3-0.4,8.4-1.7,12.3-3.4C121.6,211.8,122.4,210.4,123.3,209.2z"/>
			<path fill="#B3E4FC" d="M89,77c1.4,7.4,1.3,14.5,5.2,20.8c-0.4,0.1-0.6,0.2-0.8,0.2c-2.5,0-5.8,0.9-7.2-0.3
				c-1.4-1.3,0.8-4.4,1.2-6.7C88.2,86.5,88.7,82,89,77z"/>
			<path fill="#FCFCFC" d="M144.1,247.4c-3.1,1.1-6,0.8-8.8,0.7c-0.7,0-1-0.4-1.4-0.9c-1-1.3-2.3-2-3.8-2.7c-1-0.4-2-0.9-2.6-1.9
				c-0.6-0.9-1.6-1.8-1.4-3c0.1-0.7,1-0.3,1.5-0.2c1.3,0.2,2.9-0.6,3.4,1.8c0.5,2.3,2.7,3,4.8,3.2
				C138.8,244.6,141.5,245.4,144.1,247.4z"/>
			<path fill="#8AAB18" d="M229.7,224.7c-0.5,2.8-1,5.6-1.5,8.4c-0.2,0.9-1,1.3-1.7,1c-1.6-0.7-3.3-0.8-5-1.2
				c-0.6-0.1-1.1-0.2-1.2-1c-0.1-0.7,0.3-1.1,0.8-1.4C224.2,228.9,227,227.1,229.7,224.7z"/>
			<path fill="#FCFCFC" d="M210.1,198.5c-0.9-2.9-0.7-5.5-1-8c-0.2-1.8,0.5-2.5,2.3-2.4c3.8,0,4,0.2,2.3,3.5
				C212.7,193.8,211.5,195.9,210.1,198.5z"/>
			<path fill="#FBFBFB" d="M207.4,189.2c-0.8,2.6-2.1,4.7-3.3,6.8c-0.9,1.6-1.6,0.9-2.2-0.2c-0.2-0.4-0.4-0.9-0.5-1.4
				c-1.2-3.4-1.2-3.4,2.3-4.2C204.7,189.9,205.9,189.6,207.4,189.2z"/>
			<path fill="#6AA3D3" d="M122,209c-0.5,1.2-1.3,2.1-2.5,2.6c-1,0.4-1.7,1.1-2.9,0.1c-1.1-0.9-2.5-1.5-3.7-2.3
				c-0.3-0.2-0.7-0.5-0.6-1c0.1-0.4,0.4-0.4,0.7-0.4c2.6,0,5.2,0,7.9,0C121.5,208,122,208.3,122,209z"/>
			<path fill="#FAFAFA" d="M216.2,190.2c0.3,1.6,0.5,2.7,0.6,3.7c0.7,4.8-0.3,5.8-5.6,5.5C212.9,196.5,214.4,193.7,216.2,190.2z"/>
			<path fill="#87A618" d="M97.9,180.6c0.9,1.5,1.3,2.9,0.9,4.4c-0.9,2.9-0.3,5.3,2,7.5c-1.7,1-2.4,0.9-3.1-1.1
				C96.5,187.8,95.6,184.3,97.9,180.6z"/>
			<path fill="#F8F8F8" d="M187.7,188.7c0,0.3,0.1,0.4,0.1,0.5c-0.9,1.4-1.5,3.7-3.2,3.7c-2,0.1-2-2.6-3.5-4.2
				C183.6,188.4,185.6,188.6,187.7,188.7z"/>
			<path fill="#669DCB" d="M67.1,207.5c-1.2,1.9-2.5,2.7-3.9,3.5c-1.2,0.7-3.4-0.3-3.8-1.6c-0.3-1,0.5-0.9,1-1
				C62.4,208,64.5,207.8,67.1,207.5z"/>
			<path fill="#F4F4F4" d="M196.7,190.7c-1.1,1.1-0.9,3-2.8,3c-2.7,0.1-2.2-2.6-3.7-4C192.6,189.6,194.4,190.7,196.7,190.7z"/>
			<path fill="#ECEDED" d="M81.3,182.8c-0.8-2.1-1.4-3.6-2.1-5.1c-0.5-1.1-0.1-1.4,0.9-1.6c2.6-0.7,2.8-0.6,2.2,2
				C82,179.5,81.7,180.9,81.3,182.8z"/>
			<path fill="#F3F3F3" d="M207.8,192.4c0.3,2.5,0.5,4.5,0.7,6.5c-1.2,0.2-1.9-0.4-2.7-0.7c-1-0.3-1-0.8-0.5-1.6
				C206.1,195.4,206.8,194.1,207.8,192.4z"/>
			<path fill="#EFEFF0" d="M95.6,187.8c0.3,1,0.5,1.7,0.8,2.5c1.1,3.6,1.1,3.6-3,3.5C93.9,191.8,94.5,189.9,95.6,187.8z"/>
			<path fill="#82A018" d="M177.5,191.4c0.4,2.1-1.1,2.7-2.4,3c-1.2,0.2-0.8-1.1-0.9-1.9c-0.3-2,1.3-2.4,2.6-2.6
				C178.1,189.7,177.3,191,177.5,191.4z"/>
			<path fill="#506009" d="M224.7,112.4c-0.1-1,0.4-2.4,1.1-2.1c1.4,0.5,1.8,2.2,2.2,3.6c0.3,0.9-0.4,1-1,0.9
				C225.7,114.5,224.6,114,224.7,112.4z"/>
			<path fill="#F5F5F5" d="M100.4,185.9c-0.3-1.6-0.7-3.1-1.1-4.9c1.2,0.1,2.2,0.2,3.5,0.3c-0.7,1.7-1.3,3.2-1.9,4.7
				C100.8,186,100.6,185.9,100.4,185.9z"/>
			<path fill="#EFEFEF" d="M200,195.5c-4.4-1.3-4.5-1.6-1.4-4.6c0.1,0.1,0.3,0.2,0.3,0.3C199.3,192.5,199.6,193.8,200,195.5z"/>
			<path fill="#F1F1F1" d="M108.5,185.9c-0.7-0.9-0.7-1.9-1-2.8c-0.2-0.6-0.6-1.5-0.1-1.8c0.6-0.4,1.6-0.3,2.4-0.3
				c1,0.1,0.5,0.8,0.4,1.3C109.6,183.5,109.1,184.7,108.5,185.9z"/>
			<path fill="#EEEEEE" d="M104.6,188.1c1.2,1.7,1.7,3.2,2.1,4.8C103.4,193.1,103.4,193.1,104.6,188.1z"/>
			<path fill="#F6F6F6" d="M86.3,176.2c3.4,0.7,3.4,1.1,0.9,5.2C86.9,179.5,86.6,177.9,86.3,176.2z"/>
			<path fill="#F1F1F1" d="M92.1,178.3c3.1,1.2,3.1,1.2,0.3,5C92.3,181.4,92.2,179.9,92.1,178.3z"/>
			<path fill="#DEDEDE" d="M82.4,189.2c0.4,1.8,1.4,3,0.7,4.1c-0.3,0.5-1.8,0-2.1-0.6C80.4,191.4,81.7,190.6,82.4,189.2z"/>
			<path fill="#E6E6E6" d="M88.7,188.9c0.7,1.6,0.8,2.8,1,4.3c-0.9-0.3-1.7-0.6-2.5-0.8C87.6,191.3,88.1,190.3,88.7,188.9z"/>
			<path fill="#516109" d="M201.9,104.6c-0.1,0.8-0.6,1.2-1.3,1.2c-0.7,0-1.1-0.3-1.1-1c0-0.8,0.4-1.3,1.1-1.3
				C201.4,103.4,201.8,103.9,201.9,104.6z"/>
			<path fill="#ECECEC" d="M190.4,193c-1.1,0-2,0-3,0c0.3-1.1,0.9-1.8,1.6-2.6C189.8,191.1,190,192,190.4,193z"/>
			<path fill="#D2D2D2" d="M181.6,191.9c0,1-0.6,0.7-1,0.7c-0.3,0-1,0.1-0.8-0.4c0.1-0.5,0.2-1.2,0.8-1.3
				C181.3,190.8,181.1,191.8,181.6,191.9z"/>
			<path fill="#B1B1B1" d="M217.7,190.8c1.2,1.3,1.3,2.6,0.8,4.6C218.2,193.5,217.9,192.1,217.7,190.8z"/>
			<path fill="#8E9193" d="M178.6,191.1c-0.5-0.8-0.4-1.4,0.2-1.8c0.1-0.1,0.6,0,0.6,0.1C179.5,189.9,179.3,190.5,178.6,191.1z"/>
			<path fill="#373F13" d="M224.7,125c-0.2,1.6-1.2,2.5-2.7,2.6c-1.5,0-2.4-1.1-2.5-2.5c-0.1-1.7,0.9-2.7,2.5-2.7
				C223.6,122.3,224.4,123.4,224.7,125z"/>
			<path fill="#2C301C" d="M194.6,151.2c6.8,1,12.1-1.8,16.4-6.8C208.5,149.8,201.9,153.3,194.6,151.2z"/>
			<path fill="#2B2F1C" d="M205.1,235.8c-1-0.8-0.7-1.6-0.7-2.3c0.2-1.7-0.3-3.3-1.3-4.6c-2.6-3.2-1.8-6.5-0.5-10.1
				c1,1,0.3,1.9,0.1,2.6c-0.9,2.7-0.4,5,1.3,7.2C205.7,230.7,205.7,233.1,205.1,235.8z"/>
			<path fill="#2A2D1C" d="M214.4,159c2.4-0.9,3.1-2.9,3.7-5c1.2-4.1,4.4-6,7.7-8.2c0.3,0.8-0.1,1.1-0.4,1.3
				c-3.6,2.4-6.3,5.4-7.4,9.8C217.7,158.4,216.4,159.5,214.4,159z"/>
			<path fill="#262817" d="M214.9,106.6c-0.2,1.9-1.1,3-3,3.1c-1.7,0.2-3.1-1.3-3.1-3.1c0-1.9,0.9-2.9,2.8-3
				C213.6,103.7,214.6,104.8,214.9,106.6z"/>
			<path fill="#2D311B" d="M204.3,152.1c0.1,4-7.6,6.8-12.5,4.4C196.5,156.7,201.3,156.8,204.3,152.1z"/>
			<path fill="#25261A" d="M122.2,240.1c-1.9,1-3.8,2-5.7,3.1c-0.1-0.2-0.2-0.4-0.4-0.6c1.7-1.5,3.5-2.6,5.7-3.1
				C122,239.7,122.1,239.9,122.2,240.1z"/>
			<path fill="#292B19" d="M119.7,237.9c-1.5,1.1-3.1,2.1-4.6,3.2c-0.1,0.1-0.5,0-0.6-0.2c-0.2-0.3-0.1-0.6,0.2-0.8
				C116.2,238.9,117.5,237.6,119.7,237.9z"/>
			<path fill="#25261A" d="M166.2,258c2.6,0.2,4.9,2.8,5.2,6C169.9,261.9,168.5,259.6,166.2,258z"/>
			<path fill="#25271A" d="M192.4,262.3c1.4-1.6,3-2.9,5.3-3.3c-2.8-0.8-5,0.6-5.7,3.4C192.2,262.4,192.3,262.3,192.4,262.3z"/>
			<path fill="#282A1A" d="M170.3,257.2c0.8,0,4.3,3.3,4.3,4c0,0.2-0.2,0.5-0.3,0.6c-0.2,0.1-0.5,0-0.6-0.2c-1-1.3-2.1-2.5-3.5-3.4
				c-0.2-0.1-0.3-0.4-0.2-0.6C169.9,257.4,170.2,257.2,170.3,257.2z"/>
			<path fill="#384112" d="M76.5,136.6c-0.2,1.5-0.9,2.7-2.9,2.6c-2-0.1-2.7-1.3-2.6-3.1c0.1-1.8,1-2.9,2.8-2.8
				C75.5,133.3,76.6,134.4,76.5,136.6z"/>
			<path fill="#292C1C" d="M67.3,170.1c-0.7-2.1-2.3-3.9-1.5-6.4c0.3-0.9-0.3-1.6-0.6-2.3c-1-2.2-2.5-4.2-2.8-6.7
				c1.5,3.2,4.9,5.5,4.2,9.6c-0.2,1.2,0.3,2.1,0.6,3.1c0.2,0.8,0.5,1.6,0.8,2.4C67.8,170,67.5,170.1,67.3,170.1z"/>
			<path fill="#323914" d="M71,142.5c-0.2,1.3-0.9,2.3-2.2,2.3c-1.2,0-2-0.9-2.1-2c0-1.2,0.5-2.2,2-2.3
				C70.2,140.4,70.6,141.4,71,142.5z"/>
			<path fill="#2B2520" d="M198.4,128.9c0,3-0.3,5.6-1.1,8c-0.3,0.9-0.8,2-1.9,2c-1.2,0.1-1.7-0.9-2-1.8c-1.7-5.2-1.7-10.5,0-15.7
				c0.3-0.9,0.8-1.7,1.9-1.7c1.1,0,1.5,0.9,1.9,1.7C198.2,123.9,198.4,126.6,198.4,128.9z"/>
			<path fill="#291D1C" d="M96.9,142.6c0.1,1.8-0.2,3.5-1,5c-1,1.9-2.8,2.1-3.7,0.1c-1.6-3.4-1.6-7,0.1-10.4c0.9-1.9,2.5-1.8,3.6,0
				C96.8,139,96.9,140.8,96.9,142.6z"/>
			<path fill="#25231B" d="M91.7,226.5c-3.3-0.1-6.2-0.1-9.1-0.5c-1.3-0.2-1.7-0.7-1.7-2.1c0.2-6.6-0.5-5.1,5.1-4.9
				c4.1,0.1,8.2,0.5,12.4,0.3c1.5-0.1,2,0.3,2,1.9c0,4.9,0.1,4.9-4.9,5.1C94,226.4,92.6,226.5,91.7,226.5z"/>
			<path fill="#09090A" d="M115.9,217.3c1.7,0,2.7,0.9,2.8,2.5c0.1,1.9-1.1,2.8-2.8,2.8c-1.6,0-2.6-1.1-2.6-2.7
				C113.4,218.3,114.3,217.3,115.9,217.3z"/>
			<path fill="#0A0A0A" d="M64.6,221.4c-1.6-0.1-2.5-0.9-2.4-2.5c0-1.6,1-2.4,2.5-2.4c1.5,0,2.5,0.9,2.4,2.5
				C67.1,220.6,66.2,221.3,64.6,221.4z"/>
			<path fill="#282C31" d="M106.6,222.2c-0.2,0.9,0.8,2.4-1,3c-2.3,0.8-3.3,0.1-3.1-2.4c0-0.7,0.1-1.3,0.1-2c-0.1-1.8,1-2,2.5-2.1
				c1.9-0.1,1.6,1.2,1.6,2.3C106.6,221.4,106.6,221.7,106.6,222.2z"/>
			<path fill="#25272A" d="M79,221.4c-0.5,1.2,0.9,3.3-1.9,3.1c-3.6-0.3-1.6-2.9-2-4.4c-0.5-2.1,1.1-1.7,2.3-1.7
				C80.2,218.2,78.4,220.4,79,221.4z"/>
			<path fill="#24221C" d="M197.8,250.6c-2.9,0.1-5.7-0.2-8.6-0.6c-1.6-0.2-2.3-0.8-1.9-2.6c0.3-1.5-0.2-3.5,0.6-4.5
				c1-1.2,2.9,0.3,4.4,0.3c3.7,0,7.4,0.3,11.1,0.4c0.3,0,0.8-0.2,1,0c1.3,1.8,0.3,3.9,0.6,5.9c0.2,1.1-0.6,1.1-1.4,1.1
				C201.6,250.6,199.7,250.6,197.8,250.6z"/>
			<path fill="#070707" d="M225.2,241.9c-0.5-0.5-1.2-0.8-2.2-0.8c-1.8,0-3.1,1.2-3.1,2.8c0,0.6,0.1,1.1,0.4,1.5
				C221.9,244.3,223.6,243.2,225.2,241.9z"/>
			<path fill="#070808" d="M166.6,241.7c0.1-1.9,1.2-2.9,2.9-2.8c1.7,0.1,2.8,1.2,2.7,2.9c-0.1,1.7-1.2,2.8-2.9,2.7
				C167.4,244.5,166.6,243.4,166.6,241.7z"/>
			<path fill="#232526" d="M207.4,246.5c0.1-2.1-0.7-4.3,2.6-3.9c1.4,0.2,2.1,0.4,2,1.9c0,0.9,0.1,1.8,0.3,2.7
				c0.5,2.2-0.4,2.8-2.5,3C205.9,250.5,208.1,247.5,207.4,246.5z"/>
			<path fill="#242526" d="M185,244.8c0,0.3,0,0.7,0,1c-0.1,2.5-2.6,3.9-4.8,2.7c-0.6-0.3-0.5-0.8-0.5-1.3c0.1-1.1,0.4-2.3,0.3-3.4
				c-0.1-1.8,0.6-2.4,2.4-2.3C185.1,241.7,185.1,241.6,185,244.8z"/>
			<path fill="#526309" d="M211.7,104.8c1.2,0,2.1,0.4,2.1,1.8c0,1.2-0.6,2.1-1.9,2.1c-1.4,0-2-0.9-2.1-2.2
				C209.8,105.3,210.5,104.8,211.7,104.8z"/>
			<path fill="#FB0000" d="M195.2,137.9c-1.8-1.8-1.7-4.2-2-6.4c-0.4-3.2,0-6.4,1-9.5c0.2-0.5,0.3-1.2,1-1.2c0.5,0,0.7,0.4,0.8,0.8
				c1.8,5.4,2,10.7-0.4,16C195.6,137.7,195.4,137.7,195.2,137.9z"/>
			<path fill="#FB0000" d="M95.9,142.4c0.1,1.6-0.1,3.1-0.7,4.4c-0.2,0.5-0.5,1.1-1.1,1.2c-0.7,0-1-0.5-1.2-1.1
				c-1.1-2.9-1.1-5.8,0-8.6c0.2-0.6,0.5-1.1,1.2-1.1c0.6,0,0.9,0.7,1.1,1.2C95.8,139.7,95.9,141.1,95.9,142.4z"/>
			<path fill="#DDAF00" d="M90,225.8c-1.9-0.2-4.5-0.5-7.1-0.7c-0.4,0-0.9-0.1-0.9-0.6c0-0.6,0.5-0.6,0.9-0.6
				c5.3,0.4,10.5,0.7,15.8,0.3c0.4,0,0.6,0.2,0.6,0.5c0,0.6-0.5,0.6-0.9,0.6C95.8,225.5,93.3,225.6,90,225.8z"/>
			<path fill="#E2B300" d="M99.2,220.8c-5.7,0.7-11.3,0.9-17-0.5C87.8,220,93.5,220.6,99.2,220.8z"/>
			<path fill="#DCAE00" d="M82.1,222.2c5.7,0.4,11.4,0.1,17.2,0.2C97.6,223.8,87.1,223.8,82.1,222.2z"/>
			<path fill="#6092BC" d="M105.7,221.9c-0.1,1.1,0.5,2.3-1.1,2.4c-1.3,0.1-1.3-0.7-1.1-1.6c0.2-1-0.5-2.6,1.1-2.8
				C106.3,219.7,105.3,221.3,105.7,221.9z"/>
			<path fill="#669DCC" d="M77.9,221.3c-0.3,0.7,0.5,2.1-0.9,2.1c-1.6,0-0.9-1.5-1-2.3c-0.1-0.7-0.4-1.8,1-1.7
				C78.5,219.5,77.8,220.6,77.9,221.3z"/>
			<path fill="#D9AD00" d="M188.3,248.5c2.4-0.6,4.8-0.2,7.3-0.1c2.4,0.1,4.8-0.1,7.1-0.1c0.5,0,1-0.1,1.2,0.6
				c0.2,0.7-0.3,0.8-0.8,0.9C198.1,250.3,193.2,249.7,188.3,248.5z"/>
			<path fill="#C59D00" d="M199.1,247.5c-3.6,0.4-6.6-0.5-9.8-0.5c-0.5,0-1.1,0-1.1-0.7c0-0.7,0.6-0.7,1.1-0.6
				c4.3,0.7,8.7,0.4,13.1,0.4c0.6,0,1.5-0.3,1.5,0.7c-0.1,0.8-0.9,0.6-1.4,0.6C201.2,247.5,199.9,247.5,199.1,247.5z"/>
			<path fill="#C9A000" d="M204.4,244.7c-3.5,1.5-14,0.9-16.3-0.9C193.6,244.1,198.7,244.4,204.4,244.7z"/>
			<path fill="#68A0CF" d="M208.4,245.6c0,0,0-0.8,0.1-1.5c0.2-0.6,0.8-0.4,1.3-0.4c0.5,0,1,0.1,1,0.7c0.1,0.9,0.3,1.8,0.4,2.7
				c0.2,1.1,0.1,1.9-1.4,2c-1.5,0.1-1.6-0.7-1.5-1.8C208.4,247,208.4,246.7,208.4,245.6z"/>
			<path fill="#68A0CF" d="M184,245.1c-0.2,1,0.6,2.7-1.7,2.6c-1.1-0.1-2-0.4-1.5-1.5c0.6-1.2-1.1-3.4,1.7-3.5
				C184.5,242.5,183.9,243.9,184,245.1z"/>
		</g>
	</g>
</g>
<g id="Calque_3">
	<path fill="#F0F1F2" d="M146.3,10.4C73.8,10.4,15,69.2,15,141.7S73.8,273,146.3,273s131.3-58.8,131.3-131.3S218.8,10.4,146.3,10.4z
		 M146.3,262.7c-66.8,0-121-54.2-121-121s54.2-121,121-121s121,54.2,121,121S213.2,262.7,146.3,262.7z"/>
</g>
</svg>
