<?xml version="1.0" encoding="utf-8"?>
<!-- Generator: Adobe Illustrator 17.1.0, SVG Export Plug-In . SVG Version: 6.00 Build 0)  -->
<!DOCTYPE svg PUBLIC "-//W3C//DTD SVG 1.0//EN" "http://www.w3.org/TR/2001/REC-SVG-20010904/DTD/svg10.dtd" [
	<!ENTITY ns_extend "http://ns.adobe.com/Extensibility/1.0/">
	<!ENTITY ns_ai "http://ns.adobe.com/AdobeIllustrator/10.0/">
	<!ENTITY ns_graphs "http://ns.adobe.com/Graphs/1.0/">
	<!ENTITY ns_vars "http://ns.adobe.com/Variables/1.0/">
	<!ENTITY ns_imrep "http://ns.adobe.com/ImageReplacement/1.0/">
	<!ENTITY ns_sfw "http://ns.adobe.com/SaveForWeb/1.0/">
	<!ENTITY ns_custom "http://ns.adobe.com/GenericCustomNamespace/1.0/">
	<!ENTITY ns_adobe_xpath "http://ns.adobe.com/XPath/1.0/">
]>
<svg version="1.0" xmlns:x="&ns_extend;" xmlns:i="&ns_ai;" xmlns:graph="&ns_graphs;"
	 xmlns="http://www.w3.org/2000/svg" xmlns:xlink="http://www.w3.org/1999/xlink" x="0px" y="0px" viewBox="0 0 283.5 283.5"
	 enable-background="new 0 0 283.5 283.5" xml:space="preserve">
<metadata>
	<sfw  xmlns="&ns_sfw;">
		<slices></slices>
		<sliceSourceBounds  width="262.6" height="262.6" x="15" y="10.4" bottomLeftOrigin="true"></sliceSourceBounds>
	</sfw>
</metadata>
<g id="Calque_2">
	<path fill="#C743F7" d="M146.3,20.8c-66.8,0-121,54.2-121,121c0,63.7,49.2,115.9,111.8,120.7c4,0.1,8.1,0.2,12.1,0.3
		c65.5-1.5,118.2-55.1,118.2-121C267.3,74.9,213.1,20.8,146.3,20.8z"/>
</g>
<g id="Calque_4">
	<g id="CHg5LJ.tif">
	</g>
	<g>
		<path fill="#03487C" d="M201.1,231.4c7.6-6,22.2-9.6,11.4,4.1h-22.3C184.9,226.6,187,221.7,201.1,231.4z"/>
		<path fill="#930000" d="M221.6,187.3c-3.4-2.6-3.8-2.3-10.5,0c4.4,4.4,6.8,18.6,11.2,53c2.6-1.7,5.2-3.4,7.7-5.1
			c2.3-1.5,4.5-0.8,5.9,0.7c1.6-2.3,3.3-4.4,5.2-5.8v-2.6h4.5v-8h2.1C240.7,207.2,231.8,195.7,221.6,187.3z"/>
		<path fill="#930000" d="M178.9,168.9c0-0.6,0-1.2,0-1.9c0.3-1,0.6-2.1,0.8-3.4c2.9,1.7,5.5,5,7.7,8.8c4.7,8.1,7.7,18.5,7.7,20.1
			c0.1,1.4-5.7,6.1-9.3,9.1c-4.3-2.3-8.3-4.2-8.3-4.2c0.2-1.4,0.4-2.9,0.6-4.3C178.9,186,179.2,178,178.9,168.9z"/>
		<path fill="#930000" d="M207.5,249.6c5-3,9.9-6.2,14.8-9.4c-4.4-34.3-6.8-48.5-11.2-53c-0.2-0.2-0.4-0.4-0.6-0.6
			c-5-3.8-10.8-7.3-23.1-14.4l0,0c4.7,8.1,7.6,18.5,7.7,20.1c0.1,1.4-5.7,6.1-9.3,9.1c5.1,2.7,10.6,5.9,10.4,6.9
			c-8.9,22.9-18,27.4-40.4,56.4H191v-9.5h14.4C204.7,253.4,205.1,251.1,207.5,249.6z M190.1,235.4c-5.2-8.8-3.1-13.7,10.9-4.1
			c7.6-6,22.2-9.6,11.4,4.1H190.1z"/>
		<path fill="#FFFFFF" d="M182.3,108.4c1.1,3.1,0.8,6.5-0.9,9.2c-1.7,2.9-5,5.1-9.4,5.4c-11,0.7-13.6-14.2-7.6-18.2l0,0
			c4.2,0.2,11.3-0.5,14.4-1.1C180.5,105,181.6,106.6,182.3,108.4z M174.1,112.4c0-1-0.9-1.9-1.9-1.9c-1,0-1.9,0.9-1.9,1.9
			s0.9,1.9,1.9,1.9C173.2,114.3,174.1,113.5,174.1,112.4z"/>
		<path fill="#FFFFFF" d="M178.9,168.9c0.3,9.1-0.1,17.1-0.9,24.2c0,0-14.8,10.3-15.9,7.5c-0.4-1.1-2.1-6.3-4-10.8
			c-1.1-2.7-2.4-5.1-3.5-6.1C171.2,181.1,178.1,170.3,178.9,168.9z"/>
		<path fill="#FFFFFF" d="M170.9,90.5c2.7,0,5.7,1.5,5.5,3.2c-0.2,2.2-4.5,1.6-6.4,1.4c-1.8-0.1-4.6,0.9-5.1-1.4
			C164.4,91.5,168.1,90.5,170.9,90.5z"/>
		<circle fill="#1C0000" cx="172.2" cy="112.4" r="1.9"/>
		<path fill="#FFFFFF" d="M164.6,236.7c-0.2-2.1-4.9-21.2-9.4-34.7c1.3-1.1,2-4.2,3-12.2c1.9,4.4,3.5,9.7,4,10.8
			c1.1,2.8,15.9-7.5,15.9-7.5c-0.2,1.5-0.4,2.9-0.6,4.3C175,214.4,169.9,226.3,164.6,236.7z"/>
		<path fill="#1E0000" d="M160.9,157.7L160.9,157.7c-4.5,3.4,0.9,5.8,1.1,5.9c-18.9-4.5-24.3,3.1-29.9-3.6c0.7-1.4,1.2-2.7,1.6-3.9
			C143.5,150.7,153.5,157.6,160.9,157.7z"/>
		<path fill="#03487C" d="M154.7,257.1c0,0-7.8-6.4-16.2-19.5c0,0,1.7-15.6,8.2-35.3c1.1,0.9,2.2,0.5,4.1,0.5c2,0,3.4,0.2,4.4-0.7
			c4.5,13.5,9.2,32.6,9.4,34.7C161.1,243.8,157.5,250.2,154.7,257.1z"/>
		<path fill="#03487C" d="M146.7,202.3c-1.3-1.1-2.8-4-5.9-11.3l0,0c1.2-2.6,2.6-5,4.1-6.6v0c0.9,0,1.9,0.1,3,0
			c2.5,0,4.7-0.2,6.8-0.6c1.1,1,2.4,3.4,3.5,6.1c-0.9,8-1.7,11.1-3,12.2c-1,0.9-2.4,0.6-4.4,0.7
			C148.9,202.8,147.9,203.2,146.7,202.3z"/>
		<path fill="#930000" d="M155.8,265c22.4-29,31.6-33.5,40.4-56.4c0.2-1-5.3-4.3-10.3-7c-4.3-2.3-8.3-4.2-8.3-4.2
			c-2.5,17-7.7,28.9-12.9,39.4c-3.5,7-7.1,13.5-9.9,20.4c-0.7,1.6-1.3,3.3-1.9,5c-0.3,0.9-0.6,1.9-0.9,2.9H155.8z"/>
		<path fill="#FFFFFF" d="M141.6,103.5c5.6,3.7,4.5,18.6-9.5,18.5c-6.9,0-9.8-4.2-10.3-8.6c-0.2-2.3,0.2-4.6,1-6.6
			c0.9-2,2.1-3.7,3.6-4.4l0,0C128.9,102.6,136.8,103.7,141.6,103.5L141.6,103.5z M135.8,111c0-1-0.9-1.9-1.9-1.9S132,110,132,111
			s0.9,1.9,1.9,1.9S135.8,112.1,135.8,111z"/>
		<path fill="#FFFFFF" d="M134.8,89.8c3.2,0.1,6.2,0.7,5.8,3.4c-0.5,2.7-5.1,0.9-6.6,0.9c-1.5-0.1-5.3,0.9-5.4-1.9
			C128.4,89.5,131.6,89.7,134.8,89.8z"/>
		<path fill="#FFFFFF" d="M121.9,196.7c-0.3-1.5-0.6-3-0.9-4.5c0,0,15,11,15.6,9.4c0.4-1,1.9-6,4.2-10.7l0,0
			c3.1,7.3,4.6,10.2,5.9,11.3c-6.4,19.7-8.2,35.3-8.2,35.3C132.3,227.8,125.8,214.2,121.9,196.7z"/>
		<circle fill="#1C0000" cx="133.9" cy="111" r="1.9"/>
		<path fill="#FFFFFF" d="M119.1,167.8c0.2,0.5,5.8,15.4,25.8,16.5v0c-1.5,1.7-2.9,4.1-4.1,6.6c-2.2,4.7-3.8,9.6-4.2,10.7
			c-0.6,1.6-15.6-9.4-15.6-9.4c-1.4-7.7-2.3-16.1-2.5-25.2C118.7,167.3,118.9,167.5,119.1,167.8L119.1,167.8z"/>
		<path fill="#930000" d="M152.8,262.1c-35.4-19-50.5-54.4-48.6-55.7c1.6-1,6.5-3.9,12.9-7.3l0,0c1.4-0.8,2.9-1.5,4.4-2.3l0.4-0.1
			c3.8,17.5,10.4,31.1,16.6,40.9c8.4,13.2,16.2,19.5,16.2,19.5C154.1,258.7,153.4,260.4,152.8,262.1z"/>
		<path fill="#FFFFFF" d="M117.7,123c-1,0.3-1.3,0.4-2.6-1.6c-9.2-56.6,2.4-55.2,6.6-55.2c10.9,0,5.8-4,14.4-3.7
			c11.2,1,11.4-4.8,19.6-4.7c8.2,0.1,11.9,5.6,17.5,5.4c8.4,0,6.2,5.8,15.2,5.9c10.5,0.1,3,31.6-0.9,52.3c-1.1,0.6-2.2,1.4-3,2.2
			l0,0c-1.8,0.7-3.2-2.5-3.1-6l0,0c1.7-2.7,2-6.1,0.9-9.2l0,0c3.6-2.8,2.3-8.6,0.7-9.3c1.3-0.8,2.7-15.4-1.3-19
			c-4.1-3.5-16.8,4.1-26.4,4.6c-9.6,0.6-21.3-14.6-32.7-3.3c-2.7,2.6-1.3,14.8,0.3,15.7c-2.3,1.7-2,5.5,0,9.5c-0.9,2-1.2,4.3-1,6.6
			c-2.1,2-2.6,5.2-2.6,7.3C119.2,122.7,118.8,122.7,117.7,123z"/>
		<path fill="#FFD400" d="M160.9,157.7c-7.3-0.1-17.3-7-27.1-1.6c-0.4,1.2-0.9,2.5-1.6,3.9c5.6,6.7,11-0.8,29.9,3.6
			C161.8,163.5,156.3,161.2,160.9,157.7L160.9,157.7z M116.3,132.9c-8.3,3.6-10.1-3.4-10-8.4c0.1-5,7.6-5.1,8.9-3.1s1.5,1.9,2.6,1.6
			c1.1-0.3,1.4-0.3,1.4-2.4c0-2.1,0.5-5.3,2.6-7.3c0.4,4.4,3.3,8.6,10.3,8.6c14.1,0.1,15.1-14.7,9.5-18.5v0
			c-4.8,0.2-12.7-0.8-15.2-1.2l0,0c-1.5,0.8-2.7,2.4-3.6,4.4c-2-4-2.3-7.8,0-9.5c-1.7-0.9-3-13.1-0.3-15.7
			c11.5-11.2,23.1,3.9,32.7,3.3c9.6-0.6,22.3-8.2,26.4-4.6c4.1,3.5,2.6,18.2,1.3,19c1.6,0.8,2.9,6.5-0.7,9.3l0,0
			c-0.7-1.7-1.8-3.4-3.4-4.7c-3,0.7-10.2,1.3-14.4,1.1v0c-6,4-3.4,18.9,7.6,18.2c4.4-0.3,7.7-2.5,9.4-5.4l0,0c0,3.5,1.3,6.7,3.1,6
			l0,0c0.9-0.8,1.9-1.7,3-2.2c1.5-0.8,3-0.9,4.3,0.5c2.6,2.8,1.7,15.5-7.8,12.1l-0.3,0c0.1,2.2,0.1,5,0,7.1
			c-0.1,3.8-3.7,9.9-3.8,16.8c0,2.2,0,4.1-0.3,5.7c-0.2,1.3-0.4,2.4-0.8,3.4c0,0.6,0,1.2,0,1.9c-0.9,1.4-7.7,12.2-24.3,14.9
			c-2.1,0.3-4.4,0.6-6.8,0.6c-1,0-2,0-3,0c-20-1.1-25.6-16-25.8-16.5l0,0c-0.2-0.2-0.4-0.5-0.5-0.8c-0.6-1-1-2.1-1.3-3.4
			c-0.8-3.4-0.5-8,0.1-14.6C118.1,140.6,116.2,137.2,116.3,132.9L116.3,132.9z M176.4,93.8c0.2-1.7-2.7-3.2-5.5-3.2s-6.5,0.9-6,3.2
			c0.5,2.3,3.3,1.3,5.1,1.4C171.9,95.3,176.2,96,176.4,93.8z M140.5,93.2c0.5-2.7-2.5-3.2-5.8-3.4c-3.2-0.1-6.4-0.3-6.3,2.4
			c0.1,2.7,3.9,1.8,5.4,1.9C135.5,94.2,140.1,95.9,140.5,93.2z"/>
		<path fill="#930000" d="M117.2,199.1c-1.2-0.5-14.8-5.9-14.5-7.2c1.5-6.4,5.6-16.3,9.3-22.5c2.1-3.6,4.1-6,5.3-5.8
			c0.3,1.3,0.7,2.4,1.3,3.4c0.1,9.1,1,17.5,2.5,25.2c0.3,1.5,0.6,3,0.9,4.5l-0.4,0.1C120,197.6,118.6,198.3,117.2,199.1z"/>
		<path fill="#930000" d="M104.3,206.5c1.6-1,6.5-3.9,12.9-7.3c-1.2-0.5-14.8-5.9-14.5-7.2c1.5-6.4,5.6-16.3,9.3-22.5
			c-3.6,1-16.7,4.5-32.3,13.9c0.9,0.1,1.7,0.5,2.4,1.1c9.1,7.4-2.7,46.3-5.3,60c9.8,7.7,20.4,14.3,31.3,20.3
			c0.2,0.1,0.3,0.2,0.5,0.3H152c0.3-1,0.6-1.9,0.9-2.8C117.5,243.1,102.4,207.7,104.3,206.5z"/>
		<path fill="#930000" d="M69,237.9c2.5,2.2,5.1,4.4,7.7,6.5c2.6-13.7,14.4-52.6,5.3-60.1c-0.7-0.6-1.5-0.9-2.4-1.1
			c-7.6-1.3-21.5,12.4-32.5,33.9C55.2,223.1,61.6,231.2,69,237.9z"/>
		<path fill="none" stroke="#000000" stroke-width="2" stroke-linecap="round" stroke-linejoin="round" stroke-miterlimit="10" d="
			M125.5,102.1c0,0,0.3,0,0.9,0.1c2.6,0.4,10.4,1.4,15.2,1.2c0.3,0,0.5,0,0.8,0"/>
		<path fill="none" stroke="#000000" stroke-width="2" stroke-linecap="round" stroke-linejoin="round" stroke-miterlimit="10" d="
			M126.4,102.2c-1.5,0.8-2.7,2.4-3.6,4.4c-0.9,2-1.2,4.3-1,6.6c0.4,4.4,3.3,8.6,10.3,8.6c14.1,0.1,15.1-14.7,9.5-18.5"/>
		<path fill="none" stroke="#000000" stroke-width="2" stroke-linecap="round" stroke-linejoin="round" stroke-miterlimit="10" d="
			M179.5,103.5c-0.2,0-0.4,0.1-0.7,0.2c-3,0.7-10.2,1.3-14.4,1.1c-0.5,0-0.9,0-1.3-0.1"/>
		<path fill="none" stroke="#000000" stroke-width="2" stroke-linecap="round" stroke-linejoin="round" stroke-miterlimit="10" d="
			M178.8,103.6c1.7,1.3,2.8,3,3.4,4.7c1.1,3.1,0.8,6.5-0.9,9.2c-1.7,2.9-5,5.1-9.4,5.4c-11,0.7-13.6-14.2-7.6-18.2"/>
		<path fill="none" stroke="#000000" stroke-width="2" stroke-linecap="round" stroke-linejoin="round" stroke-miterlimit="10" d="
			M133.9,94.1c1.6,0.1,6.1,1.8,6.6-0.9s-2.5-3.2-5.8-3.4c-3.2-0.1-6.4-0.3-6.3,2.4C128.6,95,132.4,94,133.9,94.1z"/>
		<path fill="none" stroke="#000000" stroke-width="2" stroke-linecap="round" stroke-linejoin="round" stroke-miterlimit="10" d="
			M176.4,93.8c0.2-1.7-2.7-3.2-5.5-3.2s-6.5,0.9-6,3.2c0.5,2.3,3.3,1.3,5.1,1.4C171.9,95.3,176.2,96,176.4,93.8z"/>
		<path fill="none" stroke="#000000" stroke-width="2" stroke-linecap="round" stroke-linejoin="round" stroke-miterlimit="10" d="
			M122.8,106.7c-2-4-2.3-7.8,0-9.5c-1.7-0.9-3-13.1-0.3-15.7c11.5-11.2,23.1,3.9,32.7,3.3c9.6-0.6,22.3-8.2,26.4-4.6
			c4.1,3.5,2.6,18.2,1.3,19c1.6,0.8,2.9,6.5-0.7,9.3"/>
		<path fill="none" stroke="#000000" stroke-width="2" stroke-linecap="round" stroke-linejoin="round" stroke-miterlimit="10" d="
			M181.4,117.6c0,3.5,1.3,6.7,3.1,6"/>
		<path fill="none" stroke="#000000" stroke-width="2" stroke-linecap="round" stroke-linejoin="round" stroke-miterlimit="10" d="
			M183.8,124.5c0.2-0.2,0.5-0.5,0.8-0.8c0.9-0.8,1.9-1.7,3-2.2c1.5-0.8,3-0.9,4.3,0.5c2.6,2.8,1.7,15.5-7.8,12.1"/>
		<path fill="none" stroke="#000000" stroke-width="2" stroke-linecap="round" stroke-linejoin="round" stroke-miterlimit="10" d="
			M190.1,125.1c-0.7-0.3-1.7,0.1-2.6,0.9c-0.8,0.7-1.5,1.6-1.5,2.2"/>
		<path fill="none" stroke="#000000" stroke-width="2" stroke-linecap="round" stroke-linejoin="round" stroke-miterlimit="10" d="
			M188.4,128.9c0-1.6-1-2.9-1-2.9"/>
		<path fill="none" stroke="#000000" stroke-width="2" stroke-linecap="round" stroke-linejoin="round" stroke-miterlimit="10" d="
			M182.9,130.9c0.5,0.2,0.7,1.5,0.9,3.2c0.1,2.2,0.1,5,0,7.1c-0.1,3.8-3.7,9.9-3.8,16.8c0,2.2,0,4.1-0.3,5.7
			c-0.2,1.3-0.4,2.4-0.8,3.4c-1.2,3.5-3.3,5.3-5.7,6.7"/>
		<path fill="none" stroke="#000000" stroke-width="2" stroke-linecap="round" stroke-linejoin="round" stroke-miterlimit="10" d="
			M119.1,167.8c-0.2-0.2-0.4-0.5-0.5-0.8c-0.6-1-1-2.1-1.3-3.4c-0.8-3.4-0.5-8,0.1-14.6c0.8-8.4-1.1-11.8-1.1-16.1
			c0-0.9,0.1-1.9,0.4-3.1"/>
		<path fill="none" stroke="#000000" stroke-width="2" stroke-linecap="round" stroke-linejoin="round" stroke-miterlimit="10" d="
			M123.4,171c-1.9-0.9-3.3-2-4.3-3.3"/>
		<path fill="none" stroke="#000000" stroke-width="2" stroke-linecap="round" stroke-linejoin="round" stroke-miterlimit="10" d="
			M121.7,113.3c-2.1,2-2.6,5.2-2.6,7.3c0,2.1-0.4,2-1.4,2.4c-1,0.3-1.3,0.4-2.6-1.6c-1.3-2-8.7-1.9-8.9,3.1c-0.1,5,1.7,12,10,8.4"/>
		<path fill="none" stroke="#000000" stroke-width="2" stroke-linecap="round" stroke-linejoin="round" stroke-miterlimit="10" d="
			M115.1,127.4c-0.2-1.5-0.6-2.4-1.1-3c-1-1.2-2.6-0.9-4.4,0.1"/>
		<path fill="none" stroke="#000000" stroke-width="2" stroke-linecap="round" stroke-linejoin="round" stroke-miterlimit="10" d="
			M112.3,128.2c-1.1-2.6,0.6-3.4,1.7-3.7"/>
		<path fill="none" stroke="#000000" stroke-width="2" stroke-linecap="round" stroke-linejoin="round" stroke-miterlimit="10" d="
			M141.6,121.9c-3.1,4.2-8.3,4.9-12.2,4.7"/>
		<path fill="none" stroke="#000000" stroke-width="2" stroke-linecap="round" stroke-linejoin="round" stroke-miterlimit="10" d="
			M158.8,109.4c3.9,8.4,5.5,24.2,5.1,28.8c0,0-0.2,6.5-18.2,1.9"/>
		<path fill="none" stroke="#000000" stroke-width="2" stroke-linecap="round" stroke-linejoin="round" stroke-miterlimit="10" d="
			M164,124.3c4.2,2.4,9.4,2.5,11.7,2.3"/>
		<path fill="none" stroke="#000000" stroke-width="2" stroke-linecap="round" stroke-linejoin="round" stroke-miterlimit="10" d="
			M139,141.1c-5.7,5.5-3.1,8.4-5.2,15c-0.4,1.2-0.9,2.5-1.6,3.9c-0.5,0.9-1.1,2-1.7,3.1"/>
		<path fill="none" stroke="#000000" stroke-width="2" stroke-linecap="round" stroke-linejoin="round" stroke-miterlimit="10" d="
			M162,163.6L162,163.6c-0.2-0.1-5.7-2.5-1.1-5.9"/>
		<path fill="none" stroke="#000000" stroke-width="2" stroke-linecap="round" stroke-linejoin="round" stroke-miterlimit="10" d="
			M132.1,160c5.6,6.7,11-0.8,29.9,3.6"/>
		<path fill="none" stroke="#000000" stroke-width="2" stroke-linecap="round" stroke-linejoin="round" stroke-miterlimit="10" d="
			M166.9,156.7c3.9-1.7,5.5-5.9,1-15"/>
		<path fill="none" stroke="#000000" stroke-width="2" stroke-linecap="round" stroke-linejoin="round" stroke-miterlimit="10" d="
			M133.7,156.1c9.8-5.4,19.8,1.5,27.1,1.6c0.1,0,0.3,0,0.4,0c2.1,0,4.1-0.3,5.6-1"/>
		<path fill="none" stroke="#000000" stroke-width="2" stroke-linecap="round" stroke-linejoin="round" stroke-miterlimit="10" d="
			M162,171c4-2.1,8.5-4.9,4.3-8.7c-3.3-3.1-1.1-4.6,0.5-5.6l0,0"/>
		<path fill="none" stroke="#000000" stroke-width="2" stroke-linecap="round" stroke-linejoin="round" stroke-miterlimit="10" d="
			M115.1,121.4c-9.2-56.6,2.4-55.2,6.6-55.2c10.9,0,5.8-4,14.4-3.7c11.2,1,11.4-4.8,19.6-4.7c8.2,0.1,11.9,5.6,17.5,5.4
			c8.4,0,6.2,5.8,15.2,5.9c10.5,0.1,3,31.6-0.9,52.3"/>
		<path fill="none" stroke="#000000" stroke-width="2" stroke-linecap="round" stroke-linejoin="round" stroke-miterlimit="10" d="
			M117.2,199.1C117.2,199.1,117.2,199.1,117.2,199.1"/>
		<path fill="none" stroke="#000000" stroke-width="2" stroke-linecap="round" stroke-linejoin="round" stroke-miterlimit="10" d="
			M117.2,163.6c-1.2-0.2-3.2,2.2-5.3,5.8c-3.7,6.2-7.7,16.1-9.3,22.5c-0.3,1.4,13.3,6.7,14.5,7.2"/>
		<path fill="none" stroke="#000000" stroke-width="2" stroke-linecap="round" stroke-linejoin="round" stroke-miterlimit="10" d="
			M121.6,196.8c-5.6,2.7-11.6,5.7-17.6,9.7c0,1,0,2,0,3c10,21,25,38,43.6,49.6"/>
		<path fill="none" stroke="#000000" stroke-width="2" stroke-linecap="round" stroke-linejoin="round" stroke-miterlimit="10" d="
			M154.1,259c5.6-14.3,14.1-27.2,18.8-41.8c5.2-16.2,6.4-33.3,6-50.1"/>
		<path fill="none" stroke="#000000" stroke-width="2" stroke-linecap="round" stroke-linejoin="round" stroke-miterlimit="10" d="
			M179.7,163.6c2.9,1.7,5.5,5,7.7,8.8c4.7,8.1,7.7,18.5,7.7,20.1c0.1,1.4-5.7,6.1-9.3,9.1"/>
		<path fill="none" stroke="#000000" stroke-width="2" stroke-linecap="round" stroke-linejoin="round" stroke-miterlimit="10" d="
			M160.4,259.1c12.6-15.7,27.6-29.7,35.6-49.7c-2-7-12-8-18.5-12"/>
		<path fill="none" stroke="#000000" stroke-width="2" stroke-linecap="round" stroke-linejoin="round" stroke-miterlimit="10" d="
			M187.4,172.4c9.6,4.1,20.6,9.1,25.6,19.1c8,15,6,31,8.9,46.8"/>
		<path fill="none" stroke="#000000" stroke-width="2" stroke-linecap="round" stroke-linejoin="round" stroke-miterlimit="10" d="
			M211.1,187.2c6.8-4.2,13.3,1.6,18,6.3c5.8,5.8,10.9,12.4,15.4,19.4"/>
		
			<polyline fill="none" stroke="#000000" stroke-width="2" stroke-linecap="round" stroke-linejoin="round" stroke-miterlimit="10" points="
			186,235.4 190.1,235.4 212.4,235.4 213.9,235.4 		"/>
		<path fill="none" stroke="#000000" stroke-width="2" stroke-linecap="round" stroke-linejoin="round" stroke-miterlimit="10" d="
			M190.1,235.4c-5.1-8.8-3.1-13.7,10.9-4.1c0.4,0.3,0.8,0.6,1.2,0.9"/>
		<path fill="none" stroke="#000000" stroke-width="2" stroke-linecap="round" stroke-linejoin="round" stroke-miterlimit="10" d="
			M201.1,231.4c7.6-6,22.2-9.6,11.4,4.1"/>
		<path fill="none" stroke="#000000" stroke-width="2" stroke-linecap="round" stroke-linejoin="round" stroke-miterlimit="10" d="
			M154.7,257.1c0,0-7.8-6.4-16.2-19.5c-6.2-9.8-12.8-23.4-16.6-40.9c-0.3-1.5-0.6-3-0.9-4.5c-1.4-7.7-2.3-16.1-2.5-25.2"/>
		<path fill="none" stroke="#000000" stroke-width="2" stroke-linecap="round" stroke-linejoin="round" stroke-miterlimit="10" d="
			M119.1,167.8L119.1,167.8c0.2,0.5,5.8,15.4,25.8,16.5c0.9,0,1.9,0.1,3,0c2.5,0,4.7-0.2,6.8-0.6c16.5-2.6,23.4-13.5,24.3-14.9
			c0-0.1,0.1-0.1,0.1-0.1"/>
		<path fill="none" stroke="#000000" stroke-width="2" stroke-linecap="round" stroke-linejoin="round" stroke-miterlimit="10" d="
			M144.9,184.3c-1.5,1.7-2.9,4.1-4.1,6.6c-2.2,4.7-3.8,9.6-4.2,10.7c-0.6,1.6-15.6-9.4-15.6-9.4"/>
		<path fill="none" stroke="#000000" stroke-width="2" stroke-linecap="round" stroke-linejoin="round" stroke-miterlimit="10" d="
			M154.7,183.7c1.1,1,2.4,3.4,3.5,6.1c1.9,4.4,3.5,9.7,4,10.8c1.1,2.8,15.9-7.5,15.9-7.5"/>
		<path fill="none" stroke="#000000" stroke-width="2" stroke-linecap="round" stroke-linejoin="round" stroke-miterlimit="10" d="
			M140.8,191c3.1,7.3,4.6,10.2,5.9,11.3c1.1,0.9,2.2,0.5,4.1,0.5c2,0,3.4,0.2,4.4-0.7c1.3-1.1,2-4.2,3-12.2"/>
		<path fill="none" stroke="#000000" stroke-width="2" stroke-linecap="round" stroke-linejoin="round" stroke-miterlimit="10" d="
			M146.7,202.3L146.7,202.3c-6.4,19.7-8.2,35.3-8.2,35.3"/>
		<path fill="none" stroke="#000000" stroke-width="2" stroke-linecap="round" stroke-linejoin="round" stroke-miterlimit="10" d="
			M155.2,202.1c4.5,13.5,9.2,32.6,9.4,34.7"/>
		<path fill="none" stroke="#000000" stroke-width="2" stroke-linecap="round" stroke-linejoin="round" stroke-miterlimit="10" d="
			M47.3,215.5c8.7-12,14.7-31,31.7-32c2,0,4,1,5,3s2,3,2,5c1,18-5,34-8.8,51.2"/>
		
			<circle fill="none" stroke="#000000" stroke-width="2" stroke-linecap="round" stroke-linejoin="round" stroke-miterlimit="10" cx="133.9" cy="111" r="1.9"/>
		
			<circle fill="none" stroke="#000000" stroke-width="2" stroke-linecap="round" stroke-linejoin="round" stroke-miterlimit="10" cx="172.2" cy="112.4" r="1.9"/>
		<path fill="none" stroke="#000000" stroke-width="2" stroke-linecap="round" stroke-linejoin="round" stroke-miterlimit="10" d="
			M79.7,183.2c15.6-9.4,28.6-12.9,32.3-13.9"/>
		<path fill="none" stroke="#000000" stroke-width="2" stroke-linecap="round" stroke-linejoin="round" stroke-miterlimit="10" d="
			M118.3,73.4c-0.3,2.6,0.8,5.4,2.1,6"/>
		<path fill="none" stroke="#000000" stroke-width="2" stroke-linecap="round" stroke-linejoin="round" stroke-miterlimit="10" d="
			M122.3,69.3c0,1.9,0.5,4.3,1.7,5"/>
		<path fill="none" stroke="#000000" stroke-width="2" stroke-linecap="round" stroke-linejoin="round" stroke-miterlimit="10" d="
			M130.9,68.2c0,2.4,0.7,5.2,1.4,5.6"/>
		<path fill="none" stroke="#000000" stroke-width="2" stroke-linecap="round" stroke-linejoin="round" stroke-miterlimit="10" d="
			M139.2,66.4c-0.2,2.4,0.6,7.7,0.9,7.8"/>
		<path fill="none" stroke="#000000" stroke-width="2" stroke-linecap="round" stroke-linejoin="round" stroke-miterlimit="10" d="
			M149.6,64.7c-1.4,2.4-2.2,9.4,1.1,14.4"/>
		<path fill="none" stroke="#000000" stroke-width="2" stroke-linecap="round" stroke-linejoin="round" stroke-miterlimit="10" d="
			M165.4,65.8c0.7,3.1,0,9.1-2.8,12.7"/>
		<path fill="none" stroke="#000000" stroke-width="2" stroke-linecap="round" stroke-linejoin="round" stroke-miterlimit="10" d="
			M174.1,67.6c0.2,2.7-1.5,7.7-2.8,8.7"/>
		<path fill="none" stroke="#000000" stroke-width="2" stroke-linecap="round" stroke-linejoin="round" stroke-miterlimit="10" d="
			M180.9,71c-0.3,2.4-1.6,4.2-2,4.6"/>
		<path fill="none" stroke="#000000" stroke-width="2" stroke-linecap="round" stroke-linejoin="round" stroke-miterlimit="10" d="
			M187.3,73.8c-0.8,2.3-2.1,4-2.8,4.7"/>
		<path fill="none" stroke="#000000" stroke-width="2" stroke-linecap="round" stroke-linejoin="round" stroke-miterlimit="10" d="
			M190.2,77.7c-0.6,3.6-2.7,6-2.9,6.2"/>
	</g>
</g>
<g id="Calque_3">
	<path fill="#F0F1F2" d="M146.3,10.4C73.8,10.4,15,69.2,15,141.7S73.8,273,146.3,273s131.3-58.8,131.3-131.3S218.8,10.4,146.3,10.4z
		 M146.3,262.7c-66.8,0-121-54.2-121-121s54.2-121,121-121s121,54.2,121,121S213.2,262.7,146.3,262.7z"/>
</g>
</svg>
