<?xml version="1.0" encoding="utf-8"?>
<!-- Generator: Adobe Illustrator 16.0.3, SVG Export Plug-In . SVG Version: 6.00 Build 0)  -->
<!DOCTYPE svg PUBLIC "-//W3C//DTD SVG 1.1//EN" "http://www.w3.org/Graphics/SVG/1.1/DTD/svg11.dtd">
<svg version="1.1" id="Layer_1" xmlns="http://www.w3.org/2000/svg" xmlns:xlink="http://www.w3.org/1999/xlink" x="0px" y="0px"
	 width="453px" height="453px" viewBox="413.5 163.5 453 453" enable-background="new 413.5 163.5 453 453" xml:space="preserve">
<circle fill="#FECB00" cx="640" cy="390" r="201.868"/>
<g display="none">
	
		<path display="inline" fill="#FFD90F" stroke="#000000" stroke-width="3" stroke-linecap="round" stroke-linejoin="round" stroke-miterlimit="10" d="
		M663.752,453.279c0,0-5.25,9.75-76.875,9.75c-57.375-0.5-52.423-23.637-52.423-23.637c1.215-8.229,20.215-20.779,21.539-28.994
		s-14.99-32.287-14.99-32.287c-18.376-12.873-35.001-38.166-35.001-41.583c0-7.333,33.562-20.938,33.562-20.938
		c2.854-1.396,3.604-3.146,3.604-8.562c-0.083-3.406-1.662-39.309,0.146-41.688c4.604-6.062,43.354,1.771,43.354,1.771
		c5.146,0.979,6.396-0.708,9.646-4.333c1.532-1.863,24.938-30.333,29.021-30.333c6.354-0.004,28.333,29,28.333,29
		c4.583,4.833,8.271,5.833,14,4c0,0,29.896-12.542,41.333-10.729c7.875,4.5,7.062,42.375,7.062,42.375
		c0,4.25,2.021,6.438,6.254,7.92c0,0,35.936,9.705,37.311,13.58c2.08,5.863-15.167,35.313-15.167,35.313
		c-2.021,3.875-2.156,7.51,0.167,9.832c0,0,25.542,25.293,25.188,29.668c0.188,3.793-26.625,26.062-26.625,26.062
		c-2.5,2.188-2.312,6.061-1.562,8.938c0,0,9.625,25.188,5.312,28.438c-4.312,1.938-7.625,2.062-30.271,2.271
		c-3.146-0.01-4.834,1.248-4.917,3.791c0,0,0.167,16.959-3.164,18.639c-9.252,2.318-32.461-9.514-32.461-9.514
		s-0.959,12.416-0.792,21.082l8.657,16.414c0,0,52.118,22.285,59.396,61.602c0,0-24.229,13.957-53.142,21.307
		c0,0,4.254-9.486,5.254-12.152c0,0-15.703-18.834-37.25-34.168l12.729,9.932l-111.793,26.713"/>
	
		<path id="Tête_2_" display="inline" fill="#FFD90F" stroke="#000000" stroke-width="3" stroke-linecap="round" stroke-linejoin="round" stroke-miterlimit="10" d="
		M649.252,567.029l-82.605,19.293l-7.461-2.842c-15.143-5.453-36.042-18.709-36.042-18.709
		c7.607-16.076,24.646-24.699,37.357-32.117c14.333-8.707,24.453-18.125,24.453-18.125l13.173-15.75c0,0,0.75-16.188,0.062-18.094
		c-0.688-1.906-13.375-5.844-11.312-17.656c0,0,57.375,1,76.875-9.75"/>
	
		<path display="inline" fill="none" stroke="#000000" stroke-width="3" stroke-linecap="round" stroke-linejoin="round" stroke-miterlimit="10" d="
		M659.752,446.217c3.812,3.5,6.188,7.938,6,14.688"/>
	
		<ellipse display="inline" fill="#FFFFFF" stroke="#000000" stroke-width="3" stroke-miterlimit="10" cx="575.003" cy="384.278" rx="34" ry="31.499"/>
	
		<ellipse display="inline" fill="#FFFFFF" stroke="#000000" stroke-width="3" stroke-miterlimit="10" cx="636.169" cy="384.278" rx="36.833" ry="35.499"/>
	<circle display="inline" cx="640" cy="387.779" r="6.775"/>
	<circle display="inline" cx="564" cy="387.779" r="6.377"/>
	<g id="Paupière" display="inline">
		<path fill="none" stroke="#000000" stroke-width="3" stroke-linecap="round" stroke-linejoin="round" stroke-miterlimit="10" d="
			M673.001,386.779c0,0,7.188-2.125,12.313-1.125"/>
		<path fill="none" stroke="#000000" stroke-width="3" stroke-linecap="round" stroke-linejoin="round" stroke-miterlimit="10" d="
			M665.791,363.182c0,0,4.148-5.777,10.336-9.652"/>
		<path fill="none" stroke="#000000" stroke-width="3" stroke-linecap="round" stroke-linejoin="round" stroke-miterlimit="10" d="
			M644.666,349.732c0,0-0.003-8.537,3.336-13.204"/>
		<path fill="none" stroke="#000000" stroke-width="3" stroke-linecap="round" stroke-linejoin="round" stroke-miterlimit="10" d="
			M619.176,352.779c0,0-3.674-4-4.425-12.25"/>
		<path fill="none" stroke="#000000" stroke-width="3" stroke-linecap="round" stroke-linejoin="round" stroke-miterlimit="10" d="
			M591.711,356.848c0,0-0.032-9.068,3.625-13.717"/>
		<path fill="none" stroke="#000000" stroke-width="3" stroke-linecap="round" stroke-linejoin="round" stroke-miterlimit="10" d="
			M564.973,354.174c0,0-2.804-6.229-2.971-14.229"/>
		<path fill="none" stroke="#000000" stroke-width="3" stroke-linecap="round" stroke-linejoin="round" stroke-miterlimit="10" d="
			M547.919,365.238c0,0-5.917-3.459-10.417-9.793"/>
		<path fill="none" stroke="#000000" stroke-width="3" stroke-linecap="round" stroke-linejoin="round" stroke-miterlimit="10" d="
			M541.003,383.402c0,0-6.5,0.877-13.001-2.123"/>
	</g>
	
		<path id="Nez_1_" display="inline" fill="#FFD90F" stroke="#000000" stroke-width="3" stroke-linecap="round" stroke-linejoin="round" stroke-miterlimit="10" d="
		M603.502,402.611c-3.125,2.23-15.75,0.355-27,2c-5.75,0.855-11.526,4.668-11.526,13.168c0,9.336,7.901,13.387,19.262,13.387
		c9.016,0,15.327-1.262,17.433-4.055"/>
	<g id="Collier" display="inline">
		
			<circle fill="#FEFDFC" stroke="#000000" stroke-width="3" stroke-linecap="round" stroke-linejoin="round" stroke-miterlimit="10" cx="673.752" cy="505.529" r="11"/>
		
			<circle fill="#FEFDFC" stroke="#000000" stroke-width="3" stroke-linecap="round" stroke-linejoin="round" stroke-miterlimit="10" cx="594.752" cy="508.529" r="11"/>
		
			<circle fill="#FEFDFC" stroke="#000000" stroke-width="3" stroke-linecap="round" stroke-linejoin="round" stroke-miterlimit="10" cx="630.752" cy="513.529" r="11"/>
		
			<circle fill="#FEFDFC" stroke="#000000" stroke-width="3" stroke-linecap="round" stroke-linejoin="round" stroke-miterlimit="10" cx="607.752" cy="511.529" r="11"/>
		
			<circle fill="#FEFDFC" stroke="#000000" stroke-width="3" stroke-linecap="round" stroke-linejoin="round" stroke-miterlimit="10" cx="654.752" cy="512.529" r="11"/>
	</g>
	
		<path display="inline" fill="#FECB00" stroke="#000000" stroke-width="3" stroke-linecap="round" stroke-linejoin="round" stroke-miterlimit="10" d="
		M676.048,473.113c0,0,0.871-13.291,5.621-18.334"/>
	
		<path display="inline" fill="#FFD90F" stroke="#000000" stroke-width="3" stroke-linecap="round" stroke-linejoin="round" stroke-miterlimit="10" d="
		M678.086,449.947c4.208,4.207,5.604,5.457,11.166,5.457c4.125,0,17.75-3.312,17.75-18.75c0,0,0-15.375-13.875-15.375
		c0,0-5.75,0-10.5,3.375"/>
	
		<path display="inline" fill="none" stroke="#000000" stroke-width="3" stroke-linecap="round" stroke-linejoin="round" stroke-miterlimit="10" d="
		M685.002,443.404c0,0,3.375-9.562,12.312-11.375"/>
	
		<path display="inline" fill="none" stroke="#000000" stroke-width="3" stroke-linecap="round" stroke-linejoin="round" stroke-miterlimit="10" d="
		M694.314,443.717c0,0-0.604-6.875-1.771-8.562"/>
	
		<path display="inline" fill="#FF360E" stroke="#000000" stroke-width="3" stroke-linecap="round" stroke-linejoin="round" stroke-miterlimit="10" d="
		M559.186,582.756c0,0,7.982-26.477,19.566-38.977c31.875-2.625,69.269-2.736,92.229,12.264c0.598,5.072,4.771,31.361,8.818,38.725
		C679.799,594.766,619.645,607.365,559.186,582.756z"/>
</g>
<g display="none">
	<g display="inline">
		
			<path fill="#FFFFFF" stroke="#000000" stroke-width="3" stroke-linecap="round" stroke-linejoin="round" stroke-miterlimit="10" d="
			M708.014,491.351c3.663,11.292,6.541,22.792,10.166,42.333c-8.588-3.308-8.588-3.308-20.394-8.519"/>
		
			<path fill="#FFFFFF" stroke="#000000" stroke-width="3" stroke-linecap="round" stroke-linejoin="round" stroke-miterlimit="10" d="
			M696.949,527.934l11.064-36.583c0,0-15.559-5.305-24.167-6.833C683.847,484.518,676.021,520.35,696.949,527.934z"/>
	</g>
	
		<path id="Tête_4_" display="inline" fill="#FFD90F" stroke="#000000" stroke-width="3" stroke-linecap="round" stroke-linejoin="round" stroke-miterlimit="10" d="
		M681.638,394.81c0,0,1.913,58.821,2.496,78.654c0,29.739,2.231,42.804,12.966,53.784c0,0,4.363,6.34,6.01,9.77H585.68l1.468-51.182
		c0,0,7.532-41.069,4.199-68.402l-7.334-26.916l-20.501-59.875c-14.166-39.333-5.869-75.062,42.25-89.729
		c47.002-14.334,78.585,5.604,89.918,39.854l10.354,29.766c0,0,8.516,3.071,4.628,14.406c0,0-16.253,32.578-16.253,43.1"/>
	<path display="inline" fill="#FFFFFF" stroke="#000000" stroke-width="3" stroke-miterlimit="10" d="M696.18,320.851
		c-10.404,0-19.462,5.746-24.188,14.233c5.68,5.775,9.188,13.693,9.188,22.434c0,4.406-0.892,8.604-2.502,12.425
		c4.425,4.425,10.861,6.242,17.502,6.242c15.28,0,27.667-12.387,27.667-27.667C723.847,333.238,711.46,320.851,696.18,320.851z"/>
	<circle display="inline" cx="693.555" cy="355.643" r="4.5"/>
	<g id="BOuche" display="inline">
		<path fill="#D1B270" stroke="#000000" stroke-width="3" stroke-miterlimit="10" d="M642.742,440.236
			c24.5,17.333,69.104,10.983,82.276,4.281c5.576-2.416,8.993-5.833,9.521-10.583c0.472-6.5-5.862-10.084-5.862-10.084
			c-1-20-12.666-33.333-12.666-33.333s-22.222,1.797-33.667,3.667c-24.334,3.978-37.083,12.75-45.583,21.25
			c-11.021,11.761-12.167,25.286-11.089,34.249c2.507,15.834,14.257,31.834,36.341,31.834c21.791,0,30.354-18.312,30.354-18.312
			s9.438-3.312,9.635-12.802"/>
	</g>
	
		<path display="inline" fill="none" stroke="#000000" stroke-width="3" stroke-linecap="round" stroke-linejoin="round" stroke-miterlimit="10" d="
		M639.398,444.393c0,0,0.156-2.031,2.562-4.656c2.594-2.393,4.969-2.688,4.969-2.688"/>
	<g display="inline">
		<path id="Tête" fill="#FFD90F" stroke="#000000" stroke-width="3" stroke-miterlimit="10" d="M674.408,368.039
			c10.159,1.273,19.763,0.807,29.605-0.489c11.166-2.199,18.416,2.968,18.416,12.468c0,7.333-6.916,12.5-16.75,13.5
			c-11.167,1.561-23.333-0.166-28.225,1.561"/>
	</g>
	
		<circle display="inline" fill="#FFFFFF" stroke="#000000" stroke-width="3" stroke-miterlimit="10" cx="649.18" cy="357.518" r="32"/>
	<circle display="inline" cx="634.555" cy="363.643" r="4.5"/>
	<path display="inline" fill="none" stroke="#000000" stroke-width="3" stroke-miterlimit="10" d="M681.666,395.859"/>
	<path display="inline" fill="none" stroke="#000000" stroke-width="3" stroke-miterlimit="10" d="M679.597,368.185"/>
	
		<path display="inline" fill="#FFD90F" stroke="#000000" stroke-width="3" stroke-linecap="round" stroke-linejoin="round" stroke-miterlimit="10" d="
		M597.847,390.518c-12.667-4.667-20.333,5-19.167,14.333c1.667,10,11.426,14,23,8.5"/>
	<g display="inline">
		
			<path fill="#FFD90F" stroke="#000000" stroke-width="2" stroke-linecap="round" stroke-linejoin="round" stroke-miterlimit="10" d="
			M584.513,401.185c0,0,3-3.167,6.917-3.167c4.25,0,6.917,2.75,6.917,2.75"/>
		
			<path fill="#FFD90F" stroke="#000000" stroke-width="2" stroke-linecap="round" stroke-linejoin="round" stroke-miterlimit="10" d="
			M593.091,398.162c0,0-5.661,3.022-3.828,9.976"/>
	</g>
	
		<path display="inline" fill="none" stroke="#000000" stroke-width="3" stroke-linecap="round" stroke-linejoin="round" stroke-miterlimit="10" d="
		M567.347,391.518c-1.103-3.309-4.5-25.667-2.667-26.5c1.688-0.688,18.468,18.084,20.5,20.833c0.213-6.33,0.333-29.083,0.333-29.083
		c2.5-0.917,13,18.25,15.167,25.5"/>
	
		<path display="inline" fill="none" stroke="#000000" stroke-width="3" stroke-linecap="round" stroke-linejoin="round" stroke-miterlimit="10" d="
		M593.521,259.959c-6.092-19.816,3.127-37.004,18.864-40.13c14.366-2.854,27.213,3.251,33.745,17.22"/>
	
		<path display="inline" fill="none" stroke="#000000" stroke-width="3" stroke-linecap="round" stroke-linejoin="round" stroke-miterlimit="10" d="
		M572.867,267.58c-7.938-20.812,3.248-37.79,18.763-42.062c17.68-4.871,31.052,5.125,36.139,23.853"/>
	
		<path display="inline" fill="#FFFFFF" stroke="#000000" stroke-width="3" stroke-linecap="round" stroke-linejoin="round" stroke-miterlimit="10" d="
		M737.93,568.601c0,0-15.5-26.083-36.672-34.917l23.054,41.18L737.93,568.601z"/>
	
		<path display="inline" fill="#FFFFFF" stroke="#000000" stroke-width="3" stroke-linecap="round" stroke-linejoin="round" stroke-miterlimit="10" d="
		M725.771,574.265c-27.426,11.671-51.617,16.754-79.967,16.754c-8.99,0-17.955-0.757-26.625-1.917c0,0-7.31-50.614-44-53.584
		c-1.77,0-3.49,0.13-5.14,0.38c2.14-7.505,3.653-15.963,9.778-23.005c3.86-2.72,80.36-8.541,80.36-8.541l35.96,31.586
		c0,0,1.79-6.72,2.96-8.688C704.5,533.998,723.805,569.143,725.771,574.265z"/>
	<g display="inline">
		
			<path fill="#FFFFFF" stroke="#000000" stroke-width="3" stroke-linecap="round" stroke-linejoin="round" stroke-miterlimit="10" d="
			M578.854,478.207c-2.892,9.046-7.994,22.727-8.994,34.144c-0.136,1.552,0.73,2.25,1.875,3.395
			c25.945,18.605,75.195,30.022,75.195,30.022l11.25-41.416c-31.75,0-106.375-27.834-69.416-28.674l-1.384,8.84"/>
	</g>
	<path display="inline" fill="#FFFFFF" stroke="#000000" stroke-width="3" stroke-miterlimit="10" d="M619.18,589.102
		c-20.75-1.625-51.375-8.584-82.625-29.584c0,0,12.995-24,36.625-24C611.347,536.435,619.18,589.102,619.18,589.102z"/>
</g>
<g id="Vector" display="none">
	
		<path id="Habit" display="inline" fill="#66CFF6" stroke="#000000" stroke-width="3" stroke-linecap="round" stroke-linejoin="round" stroke-miterlimit="10" d="
		M567.078,587.58c-7.711-24.817-3.053-48.396,18.037-69.955c-0.2-2.433-0.251-4.729-0.148-6.909c0,0-23.987-4.335-35.235-9.785
		l-19.919-8.497c0,0-5.097,0.293-6.796-2.344c-1.699-3.28-2.461-9.373,3.749-23.199c0,0,5.683-11.248,11.6-13.299l39.728,12.128
		l16.633,4.022c0,0,1.333-2.95,4.035-4.277l63.687-7.284c0,0,7.893,0.313,8.828,8.593c0,0,1.25,6.327-6.718,10.076
		c0,0,32.025,1.172,48.431-4.921c0,0,12.614-5.097,18.238-1.23l7.226,33.728c0,0-0.938,2.968-4.062,4.219
		c0,0-39.993,12.967-65.927,6.562c0,0,25.619,9.999,29.994,42.806c2.045,15.331-1.602,23.874-8.291,29.487
		C690.166,587.497,628.781,607.533,567.078,587.58z"/>
	
		<path display="inline" fill="#FFD90F" stroke="#000000" stroke-width="3" stroke-linecap="round" stroke-linejoin="round" stroke-miterlimit="10" d="
		M564.18,419.703c0,0-10.307-15.715,0.285-29.096l-11.836-19.517c-17.81-9.36-33.069-33.967-33.31-41.261
		c0-5.575,26.816-11.473,26.816-11.473c-2.109-7.343-4.296-42.494-0.393-43.744c9.608-1.094,15.779,0.234,34.12,6.478l6.373-5.487
		c3.036-11.418,16.628-35.204,19.852-35.555c3.515-0.41,22.145,11.424,35.032,28.238c0,0,25.075-19.061,43.041-19.528
		c5.938-0.625,11.248,33.979,11.248,43.978c18.826,0.625,44.059,2.733,48.821,8.905c1.874,2.421-7.188,26.013-20.935,43.118
		c0,0,31.869,25.465,31.869,36.088c0,4.258-18.98,15.701-36.869,19.372c0,0,15.231,33.276,12.42,36.948
		c-3.438,3.672-21.715,6.482-36.636,5.819c0,0,1.406,18.396-0.857,20.427c-2.305,1.894-23.161-1.504-30.152-6.172l-0.741,3.789
		c-8.438,9.693-27.301,11.505-46.867,6.98l-17.356-3.925L564.18,419.703z"/>
	
		<ellipse display="inline" fill="#FFFFFF" stroke="#000000" stroke-width="3" stroke-miterlimit="10" cx="582.578" cy="367.491" rx="30.19" ry="28.355"/>
	<ellipse display="inline" cx="575.742" cy="368.554" rx="4.32" ry="4.64"/>
	
		<path display="inline" fill="none" stroke="#000000" stroke-width="2" stroke-linecap="round" stroke-linejoin="round" stroke-miterlimit="10" d="
		M666.233,357.83c0,0,6.877-8.695,11.329-10.219"/>
	
		<path display="inline" fill="none" stroke="#000000" stroke-width="2" stroke-linecap="round" stroke-linejoin="round" stroke-miterlimit="10" d="
		M647.209,343.142c0,0,3.835-12.44,8.599-15.644"/>
	
		<path display="inline" fill="none" stroke="#000000" stroke-width="2" stroke-linecap="round" stroke-linejoin="round" stroke-miterlimit="10" d="
		M629.587,342.398c0,0-2.683-11.15,0.756-16.854"/>
	
		<path display="inline" fill="none" stroke="#000000" stroke-width="2" stroke-linecap="round" stroke-linejoin="round" stroke-miterlimit="10" d="
		M581.244,339.165c0,0-4.035-9.304-2.338-15.163"/>
	
		<path display="inline" fill="none" stroke="#000000" stroke-width="2" stroke-linecap="round" stroke-linejoin="round" stroke-miterlimit="10" d="
		M561.656,347.05c0,0-6.887-8.401-7.529-12.619"/>
	
		<path display="inline" fill="none" stroke="#000000" stroke-width="2" stroke-linecap="round" stroke-linejoin="round" stroke-miterlimit="10" d="
		M553.581,359.57c0,0-9.476-2.818-12.933-10.023"/>
	
		<path id="Nose" display="inline" fill="#FFD90F" stroke="#000000" stroke-width="3" stroke-linecap="round" stroke-linejoin="round" stroke-miterlimit="10" d="
		M608.082,384.316c0,0-11.834,0-17.889,0.83c-2.812,0.581-11.581,1.659-11.481,10.153c0,7.616,7.752,15.408,23.805,11.601"/>
	
		<path display="inline" fill="#66CFF6" stroke="#000000" stroke-width="3" stroke-linecap="round" stroke-linejoin="round" stroke-miterlimit="10" d="
		M613.823,283.402c0,0,5.396-9.959,15.646-12.303c0,0,7.203-2.578,9.896,12.303c1.445,8.553,1.875,14.994-2.421,16.287
		c0,0-8.709,3.398-21.715-4.804C615.228,294.886,612.534,288.559,613.823,283.402z"/>
	
		<path display="inline" fill="#66CFF6" stroke="#000000" stroke-width="3" stroke-linecap="round" stroke-linejoin="round" stroke-miterlimit="10" d="
		M605.072,284.482c0,0-16.907-10.102-21.946-9.164c0,0-4.453,2.689-4.103,14.644c0,0-0.117,9.493,4.335,13.478
		c0,0,8.992,3.562,20.314-7.535"/>
	
		<path display="inline" fill="#FECB00" stroke="#000000" stroke-width="3" stroke-linecap="round" stroke-linejoin="round" stroke-miterlimit="10" d="
		M598.106,464.09c0,0,1.607,5.652,9.501,5.652c7.35,0,13.05-5,13.05-13.162"/>
	<g id="Sucette" display="inline">
		
			<ellipse transform="matrix(-0.7751 -0.6318 0.6318 -0.7751 754.6802 1151.6423)" fill="#F5704F" stroke="#000000" stroke-width="3" stroke-miterlimit="10" cx="582.293" cy="441.514" rx="29.291" ry="17.591"/>
		<path fill="#F5704F" stroke="#000000" stroke-width="3" stroke-miterlimit="10" d="M555.667,463.493
			c-6.935-8.788-5.585-20.856,10.153-33.12c0,0,6.562-2.031,9.844,6.403c0,0,0.48,1.051-0.306,1.836c0,0-11.511,7.188-7.507,12.226
			c5.897,3.984,11.769-4.366,13.279-6.326c0,0,1.054-1.406,2.5-1.172c1.894,0.059,9.158,2.577,8.277,7.323
			C585.174,469.059,563.322,471.929,555.667,463.493z"/>
	</g>
	
		<path display="inline" fill="#66CFF6" stroke="#000000" stroke-width="3" stroke-linecap="round" stroke-linejoin="round" stroke-miterlimit="10" d="
		M615.228,294.886c0,0-2.578-4.687-1.406-11.483c0,0-0.818-4.218-7.968,0c0,0-3.867,4.023-3.867,7.5
		c-0.025,2.694,0.234,5.39,4.335,7.265C606.324,298.167,613.471,299.689,615.228,294.886z"/>
	
		<ellipse display="inline" fill="#FFFFFF" stroke="#000000" stroke-width="3" stroke-miterlimit="10" cx="636.943" cy="372.648" rx="33.276" ry="30.932"/>
	<circle display="inline" cx="643.231" cy="370.109" r="5.272"/>
	
		<path display="inline" fill="none" stroke="#000000" stroke-width="3" stroke-linecap="round" stroke-linejoin="round" stroke-miterlimit="10" d="
		M676.586,415.375c10.7-1.484,18.435,7.421,13.825,17.729c-4.935,11.035-19.217,12.733-24.842,2.422"/>
	
		<path display="inline" fill="none" stroke="#000000" stroke-width="3" stroke-linecap="round" stroke-linejoin="round" stroke-miterlimit="10" d="
		M675.415,424.984c3.124-2.578,7.265-2.345,9.527,1.719"/>
	
		<path display="inline" fill="none" stroke="#000000" stroke-width="3" stroke-linecap="round" stroke-linejoin="round" stroke-miterlimit="10" d="
		M680.18,423.529c0.37,2.004,2.031,5.275-1.508,9.188"/>
	
		<path display="inline" fill="none" stroke="#000000" stroke-width="3" stroke-linecap="round" stroke-linejoin="round" stroke-miterlimit="10" d="
		M667.487,438.25c0,0-5.117,11.808-5.04,22.353"/>
	
		<path display="inline" fill="none" stroke="#000000" stroke-width="3" stroke-linecap="round" stroke-linejoin="round" stroke-miterlimit="10" d="
		M591.985,491.145"/>
	
		<path display="inline" fill="none" stroke="#000000" stroke-width="3" stroke-linecap="round" stroke-linejoin="round" stroke-miterlimit="10" d="
		M595.485,482.592"/>
	
		<path display="inline" fill="none" stroke="#000000" stroke-width="3" stroke-linecap="round" stroke-linejoin="round" stroke-miterlimit="10" d="
		M591.985,491.145c-4.283,5.328-6.646,11.663-7.019,19.571"/>
	
		<path display="inline" fill="none" stroke="#000000" stroke-width="3" stroke-linecap="round" stroke-linejoin="round" stroke-miterlimit="10" d="
		M595.485,482.592c-2.929-8.612-0.762-12.85-0.762-12.85"/>
	
		<path display="inline" fill="#00A1DE" stroke="#000000" stroke-width="3" stroke-linecap="round" stroke-linejoin="round" stroke-miterlimit="10" d="
		M731.226,470.698"/>
	
		<path display="inline" fill="none" stroke="#000000" stroke-width="3" stroke-linecap="round" stroke-linejoin="round" stroke-miterlimit="10" d="
		M768.252,498.468"/>
	
		<path display="inline" fill="#FFD90F" stroke="#000000" stroke-width="3" stroke-linecap="round" stroke-linejoin="round" stroke-miterlimit="10" d="
		M731.226,493.488c-3.371-11.091,1.838-22.731,0.354-29.527c0,0-2.812-16.521,5.624-18.044c7.146-1.113,11.656,4.805,10.66,14.764
		c0.061,1.758,1.816,2.578,3.983,2.461c0,0,9.667-0.469,23.493-6.737c0,0,7.088-3.047,9.139,3.104
		c3.387,11.38-10.808,14.418-10.531,14.351c0,0-2.006,9.317,13.109,13.89c4.276,1.289,7.265,4.511,6.444,8.846
		c-1.767,6.883-11.868,8.188-24.146,2.411c0,0-1.378,1.983-1.534,2.921c0,0,1.092,5.076,4.451,10.389c0,0,6.093,9.608-1.249,11.404
		c0,0-9.062,2.343-14.061-7.812l-2.971-5.702C753.995,510.204,735.952,509.033,731.226,493.488z"/>
	
		<path display="inline" fill="none" stroke="#000000" stroke-width="3" stroke-linecap="round" stroke-linejoin="round" stroke-miterlimit="10" d="
		M770.771,474.448c1.149-0.154,2.205-0.354,3.178-0.591"/>
	
		<path display="inline" fill="none" stroke="#000000" stroke-width="3" stroke-linecap="round" stroke-linejoin="round" stroke-miterlimit="10" d="
		M769.356,499.004c-0.366-0.173-0.732-0.354-1.104-0.536"/>
	
		<path display="inline" fill="none" stroke="#000000" stroke-width="2" stroke-linecap="round" stroke-linejoin="round" stroke-miterlimit="10" d="
		M741.107,491.927c6.405,2.655,11.091,0.156,11.873-5.468"/>
	
		<path display="inline" fill="#FFD90F" stroke="#000000" stroke-width="3" stroke-linecap="round" stroke-linejoin="round" stroke-miterlimit="10" d="
		M536.833,454.361c0,0-3.036-1.782-3.661-3.504c0.468-6.25,2.577-23.521-6.445-23.521c-6.396,0-9.885,3.591-10.401,13.591h-5.025
		c0,0-10.077-6.175-16.442-7.697c0,0-7.577-1.937-10.116,1.426c-1.562,2.497-1.874,6.55,1.057,9.322c0,0,5.175,3.959,6.913,5.09
		c2.361,1.604,4.021,6.354-0.039,6.824c-2.207,0.33-15.789,0.727-17.966,6.124c-0.753,2.567-1.018,9.829,7.497,10.386
		c3.146,0,9.004-0.177,11.287-0.001c2.638,0.146,4.774,1.786,2.228,3.71c-1.632,1.197-12.146,7.93-6.562,14.411
		c7.188,6.603,16.601-2.538,20.817-5.817c0,0,9.857,2.812,11.842,2.499L536.833,454.361z"/>
	
		<path display="inline" fill="none" stroke="#000000" stroke-width="3" stroke-linecap="round" stroke-linejoin="round" stroke-miterlimit="10" d="
		M516.326,440.295c-0.042,0.724-0.062,1.479-0.064,2.263"/>
	
		<path display="inline" fill="none" stroke="#000000" stroke-width="2" stroke-linecap="round" stroke-linejoin="round" stroke-miterlimit="10" d="
		M509.19,462.322c-0.703,4.45-0.818,6.911,3.164,10.191"/>
</g>
<g id="Vector_1_">
	
		<path fill="#D48CBD" stroke="#000000" stroke-width="3" stroke-linecap="round" stroke-linejoin="round" stroke-miterlimit="10" d="
		M544.846,493.552c0,0-30.608-15.07-73.232,7.569c0,0,21.088,37.402,49.437,52.75L544.846,493.552z"/>
	
		<path fill="#D48CBD" stroke="#000000" stroke-width="3" stroke-linecap="round" stroke-linejoin="round" stroke-miterlimit="10" d="
		M557.694,508.885c0,0-28.73,11.393-42.245,40.429c48.545,36.673,110.33,45.312,138.264,41.694l14.974-37.348L557.694,508.885z"/>
	
		<path fill="#D48CBD" stroke="#000000" stroke-width="3" stroke-linecap="round" stroke-linejoin="round" stroke-miterlimit="10" d="
		M544.263,494.378c0,0-17.461,22.433-18.671,31.835c-1.209,9.402,17.327,25.117,24.446,27.536
		c7.12,2.418,19.478-31.968,19.478-31.968L544.263,494.378z"/>
	
		<polygon fill="#FAEFD9" stroke="#000000" stroke-width="3" stroke-linecap="round" stroke-linejoin="round" stroke-miterlimit="10" points="
		650.714,493.841 650.714,473.508 559.017,473.508 557.998,508.659 650.714,512.377 	"/>
	
		<path fill="#D38BBC" stroke="#000000" stroke-width="3" stroke-linecap="round" stroke-linejoin="round" stroke-miterlimit="10" d="
		M623.96,505.303c0,0,18.088-2.772,25.387-9.938c1.562-2.334,2.373-4.835,6.717-4.435c5.414,0.763,14.24,34.074,14.24,34.074
		l3.715,11.914c0,0-32.686,23.187-78.354,23.187c-3.557-5.075-9.852-15.221-8.597-34.637l8.625-13.896L623.96,505.303z"/>
	
		<path fill="#00AF9E" stroke="#000000" stroke-width="3" stroke-linecap="round" stroke-linejoin="round" stroke-miterlimit="10" d="
		M697.017,380.582c0,0,5.238-6.359,16.059-5.65c10.819,0.708,14.583,8.498,14.583,8.498s5.192-6.676,15.312-5.71
		c10.118,0.965,13.342,8.31,13.342,8.31s2.07-6.494,9.453-7.635c7.383-1.142,10.068,4.231,10.068,4.231s1.255-6.812,9.493-8.241
		c8.235-1.432,12.534,4.122,12.534,4.122s5.94-5.013,14.434-0.537c7.236,4.118,5.627,12.896,5.627,12.896
		s14.507,7.343,10.209,21.312c0,0-7.03-12.224-20.776-7.881c0,0-0.441,5.27-4.922,7.418c-4.477,2.15-11.375-0.254-11.375-0.254
		s-0.042,7.835-5.552,13.074c-5.508,5.235-15.76,4.836-15.76,4.836s2.507,8.954-3.227,15.042c-5.729,6.091-17.55,6.204-17.55,6.204
		s-0.357,10.451-6.986,15.469c-6.626,5.015-19.697,3.76-19.697,3.76s2.178,10.622-8.568,14.92
		c-10.745,4.298-19.549-3.099-19.549-3.099s-4.656,8.146-13.612,8.146c-8.955,0-13.607-6.716-13.607-6.716s-8.601,3.58-16.839,0.358
		c-10.286-4.026-15.581-14.33-15.581-14.33l3.581-90.621L697.017,380.582z"/>
	
		<path fill="#00AF9E" stroke="#000000" stroke-width="3" stroke-linecap="round" stroke-linejoin="round" stroke-miterlimit="10" d="
		M584.918,316.896c0,0-0.737-4.027-5.482-6.803c-4.746-2.775-9.741-0.361-9.741-0.361s1.202-8.475-1.888-13.848
		c-3.089-5.373-10.38-5.941-10.38-5.941s5.104-7.612,1.881-14.06c-3.224-6.448-12.356-6.224-12.356-6.224s1.699-9.357-4.835-13.029
		c-6.537-3.671-11.82,0-11.82,0s-7.253-9.537-22.968,1.746c0,0,13.698-3.493,13.698,5.775c0,0-4.142,4.047-3.715,9.492
		c0.425,5.445,6.806,8.372,6.806,8.372s-5.208,3.652-5.3,9.876c-0.089,6.225,4.226,11.348,4.226,11.348s-4.656,2.192-5.104,7.656
		c-0.088,4.746,2.688,8.864,2.688,8.864s-7.28,4.302-7.177,14.24c0.102,9.938,8.923,15.848,8.923,15.848s-7.312,4.3-5.334,14.775
		c1.977,10.477,11.513,12.673,11.513,12.673s-3.896,9.716,0.134,16.968c4.03,7.253,10.453,6.785,10.453,6.785l47.306-10.636
		L584.918,316.896z"/>
	
		<path fill="#D1B270" stroke="#000000" stroke-width="3" stroke-linecap="round" stroke-linejoin="round" stroke-miterlimit="10" d="
		M535.487,407.877c0,0,9.479-31.404,55.736-14.762c46.793,17.447,55.197,20.518,57.539,34.906c0,0,14.104,3.359,14.104,19.612
		c0,12.223-10.479,18.401-17.46,20.82c0,0-16.256,21.354-49.565,21.354s-42.981-23.91-43.521-29.954c0,0-7.436-2.391-7.926-9.806
		c-0.402-6.09,3.357-7.992,3.357-7.992c-14.041-7.303-29.791-20.887-23.461-30.779C528.442,404.904,535.487,407.877,535.487,407.877
		z"/>
	
		<path fill="#FAEFD9" stroke="#000000" stroke-width="3" stroke-linecap="round" stroke-linejoin="round" stroke-miterlimit="10" d="
		M573.034,395.816c-6.07,1.316-10.695,0.191-14.945-3.434c-6.129-5.229-3.936-15.049,0.814-17.032l11.883-35.622
		c0,0-2.325-7.385,1.953-11.841c3.224-3.356,8.664-2.819,8.664-2.819s17.042-39.353,50.975-42.199
		c15.446-1.297,30.625,0.089,44.058,6.427c9.783,4.616,11.529,10.823,17.462,15.868c16.745,11.195,22.162,47.238,0.718,79.207
		c0,0-27.245-9-16.746,16.701c-25.433,10.746-11.238,21.681-11.238,21.681s14.955-2.921,15.896,11.016
		c-0.535,8.417-6.09,18.844-18.983,16.519c0,0,1.252-16.146-14.776-22.146c0,0,0.575-10.036-7.254-12.008
		c0,0-8.668,2.463-17.581-0.787c-8.011-3.125-11.798-7.458-14.521-11.901L573.034,395.816z"/>
	<g>
		<circle fill="#FFFFFF" stroke="#000000" stroke-width="3" stroke-miterlimit="10" cx="586.171" cy="364.625" r="29.282"/>
		<circle cx="580.081" cy="363.46" r="4.925"/>
		<circle fill="#FFFFFF" stroke="#000000" stroke-width="3" stroke-miterlimit="10" cx="632.377" cy="376.446" r="29.819"/>
		<circle cx="638.107" cy="378.505" r="4.925"/>
		
			<path id="Sourcil" fill="none" stroke="#000000" stroke-width="3" stroke-linecap="round" stroke-linejoin="round" stroke-miterlimit="10" d="
			M663.673,341.119c8.508,1.252,12.359,9.4,10.881,16.252"/>
	</g>
	
		<path id="Nez" fill="#DE3831" stroke="#000000" stroke-width="3" stroke-linecap="round" stroke-linejoin="round" stroke-miterlimit="10" d="
		M598.503,382.328c7.544,4.68,15.711,12.513,10.905,21.117c-5.054,7.562-16.395,6.396-26.494,1.656
		c-6.901-3.236-16.033-12.928-9.102-22.21C580.081,374.148,592.038,378.316,598.503,382.328z"/>
	
		<path fill="#00AF9E" stroke="#000000" stroke-width="3" stroke-linecap="round" stroke-linejoin="round" stroke-miterlimit="10" d="
		M696.81,307.467c0,0-7.772,4.045-15.31-0.861c-7.571-4.933-7.281-12.175-7.281-12.175s-7.601,5.302-15.157-0.19
		c-5.255-3.818-4.6-11.467-4.655-11.282L641,282.333c0,0-0.027-7.345,6.287-10.125c5.775-2.503,9.719,0.767,9.719,0.767
		s1.61-4.611,7.021-6.334c4.438-1.501,9.188,2.012,9.188,2.012s4.039-4.856,10.476-4.856c5.832,0,10.409,4.403,10.409,4.403
		s18.158-3.42,22.726,8.401c0,0-16.118-5.909-16.479,4.75c0,0,4.479,3.488,4.121,8.323c0.089,4.657-2.912,8.128-2.912,8.128
		s4.391,2.284,4.391,8.192c0.224,7.229-3.388,8.803-3.388,8.803L696.81,307.467z"/>
	
		<path fill="#FAEFD9" stroke="#000000" stroke-width="3" stroke-linecap="round" stroke-linejoin="round" stroke-miterlimit="10" d="
		M655.56,280.188c-0.816,0.941-1.153,2.771-1.153,2.771"/>
	<path fill="none" stroke="#000000" stroke-width="3" stroke-linecap="round" stroke-linejoin="round" stroke-miterlimit="10" d="
		M665.485,437.829c0.675-3.763,5.173-6.58,9.737-4.632"/>
	<path fill="none" stroke="#000000" stroke-width="3" stroke-linecap="round" stroke-linejoin="round" stroke-miterlimit="10" d="
		M668.688,433.49c0.829,0.441,5.665,3.868,1.669,8.568"/>
	
		<path fill="#D1B270" stroke="#000000" stroke-width="3" stroke-linecap="round" stroke-linejoin="round" stroke-miterlimit="10" d="
		M547.755,442.061c0,0,22.566,10.681,47.013,10.681c32.642,0,48.863-5.866,48.863-5.866"/>
	<path fill="none" stroke="#000000" stroke-width="3" stroke-linecap="round" stroke-linejoin="round" stroke-miterlimit="10" d="
		M641.51,441.747c1.836,1.479,5.227,5.597,2.12,10.834"/>
	
		<path fill="#00AF9E" stroke="#000000" stroke-width="3" stroke-linecap="round" stroke-linejoin="round" stroke-miterlimit="10" d="
		M694.612,384.369c0,0-11.851-3.877-18.306,0.812c-6.456,4.693-5.952,15.573-5.952,15.573s-6.903,2.147-8.203,9.671
		c-1.302,7.521,4.645,11.888,4.645,11.888"/>
	<g id="Noeud_Paps">
		
			<path fill="#00A1DE" stroke="#000000" stroke-width="3" stroke-linecap="round" stroke-linejoin="round" stroke-miterlimit="10" d="
			M569.447,505.596c0,0-2.8-1.995-3.959-4.874c-1.106-6.585-1.48-14.872-8.601-15.879c-7.329-1.038-12.425,8.932-15.044,14.371
			c-2.619,5.44-5.391,19.305,0,22.432c6.716,3.896,18.536,2.276,23.507,1.074L569.447,505.596z"/>
		
			<ellipse transform="matrix(-0.9839 -0.1787 0.1787 -0.9839 1048.4193 1125.8453)" fill="#00A1DE" stroke="#000000" stroke-width="3" stroke-linecap="round" stroke-linejoin="round" stroke-miterlimit="10" cx="574.918" cy="515.701" rx="9.929" ry="11.584"/>
		
			<path fill="#00A1DE" stroke="#000000" stroke-width="3" stroke-linecap="round" stroke-linejoin="round" stroke-miterlimit="10" d="
			M583.776,509.86c-1.637,1.443-2.391,3.493-2.44,6.413c-0.074,4.172,1.543,6.853,1.543,6.853s14.306,10.879,27.738,10.342
			c7.521,0,11.501-11.8,12.895-18.938c3.896-17.062-0.672-19.458-6.582-19.345C608.199,495.991,585.413,508.417,583.776,509.86z"/>
		<path fill="none" stroke="#000000" stroke-width="2" stroke-linecap="round" stroke-linejoin="round" stroke-miterlimit="10" d="
			M566.28,512.736c0,0-6.348,2.327-10.398-2.062"/>
		<path fill="none" stroke="#000000" stroke-width="2" stroke-linecap="round" stroke-linejoin="round" stroke-miterlimit="10" d="
			M581.387,515.736c0,0,10.425,5.148,20.902,1.274"/>
	</g>
	
		<path fill="#D48CBD" stroke="#000000" stroke-width="3" stroke-linecap="round" stroke-linejoin="round" stroke-miterlimit="10" d="
		M664.972,530.02c24.716-21.134,80.951-4.299,95.278,16.479c0,0-1.786,13.607-54.039,36.598l-51.269,11.399
		C646.884,578.464,640.973,548.107,664.972,530.02z"/>
	
		<path fill="#FAEFD9" stroke="#000000" stroke-width="3" stroke-linecap="round" stroke-linejoin="round" stroke-miterlimit="10" d="
		M641.51,416.133c0,0,3.379-1.168,5.317-3.006"/>
</g>
<g>
	<path fill="#F0F1F2" d="M640,601.234c-32.219,0-62.432-6.399-89.8-19.021c-25.146-11.596-47.418-28.174-66.196-49.271
		c-34.956-39.276-55.003-91.291-55.003-142.707c0-56.363,21.947-109.352,61.798-149.202c39.853-39.852,92.838-61.798,149.202-61.798
		s109.353,21.947,149.202,61.798c39.853,39.851,61.798,92.838,61.798,149.202c0,78.174-42.897,149.583-111.958,186.354
		c-4.125,2.209-8.365,4.288-12.604,6.182c-0.501,0.237-0.981,0.447-1.464,0.657l-0.83,0.366
		C697.569,595.365,669.255,601.234,640,601.234z M639.508,191.848c-109.194,0-198.031,88.837-198.031,198.033
		c0,109.196,88.837,198.034,198.031,198.034c109.196,0,198.033-88.838,198.033-198.034
		C837.541,280.685,748.704,191.848,639.508,191.848z"/>
	<path fill="none" d="M640,180.735c28.285,0,55.725,5.539,81.549,16.461c24.947,10.551,47.354,25.657,66.595,44.897
		c19.238,19.24,34.346,41.646,44.896,66.593c10.923,25.826,16.461,53.263,16.461,81.548c0,38.717-10.643,76.535-30.776,109.367
		c-19.574,31.921-47.371,58.084-80.393,75.667c-4.091,2.19-8.299,4.254-12.507,6.134l-0.033,0.015l-0.031,0.015
		c-0.455,0.218-0.921,0.419-1.388,0.624c-0.282,0.123-0.562,0.246-0.812,0.358c-26.397,11.494-54.512,17.321-83.56,17.321
		c-32,0-62.002-6.354-89.172-18.885c-24.958-11.509-47.064-27.964-65.704-48.906c-17.49-19.652-31.18-42.343-40.689-67.436
		c-9.115-24.052-13.935-49.733-13.935-74.274c0-28.285,5.539-55.723,16.461-81.548c10.551-24.947,25.657-47.352,44.897-66.593
		c19.238-19.241,41.646-34.346,66.592-44.897C584.278,186.273,611.715,180.735,640,180.735 M639.508,589.414
		c26.938,0,53.067-5.276,77.669-15.682c23.762-10.052,45.101-24.438,63.425-42.763c18.321-18.323,32.71-39.663,42.76-63.423
		c10.405-24.602,15.682-50.731,15.682-77.668c0-26.936-5.275-53.067-15.682-77.668c-10.05-23.761-24.438-45.099-42.76-63.423
		c-18.324-18.324-39.662-32.71-63.425-42.76c-24.602-10.406-50.731-15.682-77.669-15.682c-26.936,0-53.065,5.276-77.668,15.682
		c-23.761,10.05-45.099,24.437-63.423,42.76c-18.324,18.323-32.71,39.662-42.76,63.423c-10.406,24.602-15.682,50.732-15.682,77.668
		c0,26.937,5.274,53.067,15.682,77.668c10.05,23.76,24.437,45.1,42.76,63.423c18.323,18.324,39.662,32.711,63.423,42.763
		C586.441,584.138,612.572,589.414,639.508,589.414 M640,177.735c-117.367,0-212.5,95.133-212.5,212.5
		c0,99.875,76.854,212.5,212.5,212.5c30.124,0,58.791-6.268,84.755-17.57c0.769-0.344,1.544-0.668,2.292-1.023
		c4.318-1.928,8.549-4.004,12.7-6.227C806.832,542.192,852.5,471.548,852.5,390.236C852.5,272.868,757.367,177.735,640,177.735
		L640,177.735z M639.508,586.414c-108.542,0-196.531-87.992-196.531-196.534s87.989-196.533,196.531-196.533
		c108.543,0,196.533,87.991,196.533,196.533S748.051,586.414,639.508,586.414L639.508,586.414z"/>
</g>
</svg>
