<?xml version="1.0" encoding="utf-8"?>
<!-- Generator: Adobe Illustrator 16.0.3, SVG Export Plug-In . SVG Version: 6.00 Build 0)  -->
<!DOCTYPE svg PUBLIC "-//W3C//DTD SVG 1.1//EN" "http://www.w3.org/Graphics/SVG/1.1/DTD/svg11.dtd">
<svg version="1.1" id="Layer_1" xmlns="http://www.w3.org/2000/svg" xmlns:xlink="http://www.w3.org/1999/xlink" x="0px" y="0px"
	 width="453px" height="453px" viewBox="413.5 163.5 453 453" enable-background="new 413.5 163.5 453 453" xml:space="preserve">
<circle fill="#72BFE7" cx="640" cy="390" r="201.868"/>
<g>
	
		<path fill="#FFD90F" stroke="#000000" stroke-width="3" stroke-linecap="round" stroke-linejoin="round" stroke-miterlimit="10" d="
		M663.752,453.279c0,0-5.25,9.75-76.875,9.75c-57.375-0.5-52.423-23.637-52.423-23.637c1.215-8.229,20.215-20.779,21.539-28.994
		s-14.99-32.287-14.99-32.287c-18.376-12.873-35.001-38.166-35.001-41.583c0-7.333,33.562-20.938,33.562-20.938
		c2.854-1.396,3.604-3.146,3.604-8.562c-0.083-3.406-1.662-39.309,0.146-41.688c4.604-6.062,43.354,1.771,43.354,1.771
		c5.146,0.979,6.396-0.708,9.646-4.333c1.532-1.863,24.938-30.333,29.021-30.333c6.354-0.004,28.333,29,28.333,29
		c4.583,4.833,8.271,5.833,14,4c0,0,29.896-12.542,41.333-10.729c7.875,4.5,7.062,42.375,7.062,42.375
		c0,4.25,2.021,6.438,6.254,7.92c0,0,35.936,9.705,37.311,13.58c2.08,5.863-15.167,35.313-15.167,35.313
		c-2.021,3.875-2.156,7.51,0.167,9.832c0,0,25.542,25.293,25.188,29.668c0.188,3.793-26.625,26.062-26.625,26.062
		c-2.5,2.188-2.312,6.061-1.562,8.938c0,0,9.625,25.188,5.312,28.438c-4.312,1.938-7.625,2.062-30.271,2.271
		c-3.146-0.01-4.834,1.248-4.917,3.791c0,0,0.167,16.959-3.164,18.639c-9.252,2.318-32.461-9.514-32.461-9.514
		s-0.959,12.416-0.792,21.082l8.657,16.414c0,0,52.118,22.285,59.396,61.602c0,0-24.229,13.957-53.142,21.307
		c0,0,4.254-9.486,5.254-12.152c0,0-15.703-18.834-37.25-34.168l12.729,9.932l-111.793,26.713"/>
	
		<path id="Tête_2_" fill="#FFD90F" stroke="#000000" stroke-width="3" stroke-linecap="round" stroke-linejoin="round" stroke-miterlimit="10" d="
		M649.252,567.029l-82.605,19.293l-7.461-2.842c-15.143-5.453-36.042-18.709-36.042-18.709
		c7.607-16.076,24.646-24.699,37.357-32.117c14.333-8.707,24.453-18.125,24.453-18.125l13.173-15.75c0,0,0.75-16.188,0.062-18.094
		c-0.688-1.906-13.375-5.844-11.312-17.656c0,0,57.375,1,76.875-9.75"/>
	<path fill="none" stroke="#000000" stroke-width="3" stroke-linecap="round" stroke-linejoin="round" stroke-miterlimit="10" d="
		M659.752,446.217c3.812,3.5,6.188,7.938,6,14.688"/>
	
		<ellipse fill="#FFFFFF" stroke="#000000" stroke-width="3" stroke-miterlimit="10" cx="575.003" cy="384.278" rx="34" ry="31.499"/>
	
		<ellipse fill="#FFFFFF" stroke="#000000" stroke-width="3" stroke-miterlimit="10" cx="636.169" cy="384.278" rx="36.833" ry="35.499"/>
	<circle cx="640" cy="387.779" r="6.775"/>
	<circle cx="564" cy="387.779" r="6.377"/>
	<g id="Paupière">
		<path fill="none" stroke="#000000" stroke-width="3" stroke-linecap="round" stroke-linejoin="round" stroke-miterlimit="10" d="
			M673.001,386.779c0,0,7.188-2.125,12.313-1.125"/>
		<path fill="none" stroke="#000000" stroke-width="3" stroke-linecap="round" stroke-linejoin="round" stroke-miterlimit="10" d="
			M665.791,363.182c0,0,4.148-5.777,10.336-9.652"/>
		<path fill="none" stroke="#000000" stroke-width="3" stroke-linecap="round" stroke-linejoin="round" stroke-miterlimit="10" d="
			M644.666,349.732c0,0-0.003-8.537,3.336-13.204"/>
		<path fill="none" stroke="#000000" stroke-width="3" stroke-linecap="round" stroke-linejoin="round" stroke-miterlimit="10" d="
			M619.176,352.779c0,0-3.674-4-4.425-12.25"/>
		<path fill="none" stroke="#000000" stroke-width="3" stroke-linecap="round" stroke-linejoin="round" stroke-miterlimit="10" d="
			M591.711,356.848c0,0-0.032-9.068,3.625-13.717"/>
		<path fill="none" stroke="#000000" stroke-width="3" stroke-linecap="round" stroke-linejoin="round" stroke-miterlimit="10" d="
			M564.973,354.174c0,0-2.804-6.229-2.971-14.229"/>
		<path fill="none" stroke="#000000" stroke-width="3" stroke-linecap="round" stroke-linejoin="round" stroke-miterlimit="10" d="
			M547.919,365.238c0,0-5.917-3.459-10.417-9.793"/>
		<path fill="none" stroke="#000000" stroke-width="3" stroke-linecap="round" stroke-linejoin="round" stroke-miterlimit="10" d="
			M541.003,383.402c0,0-6.5,0.877-13.001-2.123"/>
	</g>
	
		<path id="Nez_1_" fill="#FFD90F" stroke="#000000" stroke-width="3" stroke-linecap="round" stroke-linejoin="round" stroke-miterlimit="10" d="
		M603.502,402.611c-3.125,2.23-15.75,0.355-27,2c-5.75,0.855-11.526,4.668-11.526,13.168c0,9.336,7.901,13.387,19.262,13.387
		c9.016,0,15.327-1.262,17.433-4.055"/>
	<g id="Collier">
		
			<circle fill="#FEFDFC" stroke="#000000" stroke-width="3" stroke-linecap="round" stroke-linejoin="round" stroke-miterlimit="10" cx="673.752" cy="505.529" r="11"/>
		
			<circle fill="#FEFDFC" stroke="#000000" stroke-width="3" stroke-linecap="round" stroke-linejoin="round" stroke-miterlimit="10" cx="594.752" cy="508.529" r="11"/>
		
			<circle fill="#FEFDFC" stroke="#000000" stroke-width="3" stroke-linecap="round" stroke-linejoin="round" stroke-miterlimit="10" cx="630.752" cy="513.529" r="11"/>
		
			<circle fill="#FEFDFC" stroke="#000000" stroke-width="3" stroke-linecap="round" stroke-linejoin="round" stroke-miterlimit="10" cx="607.752" cy="511.529" r="11"/>
		
			<circle fill="#FEFDFC" stroke="#000000" stroke-width="3" stroke-linecap="round" stroke-linejoin="round" stroke-miterlimit="10" cx="654.752" cy="512.529" r="11"/>
	</g>
	
		<path fill="#FECB00" stroke="#000000" stroke-width="3" stroke-linecap="round" stroke-linejoin="round" stroke-miterlimit="10" d="
		M676.048,473.113c0,0,0.871-13.291,5.621-18.334"/>
	
		<path fill="#FFD90F" stroke="#000000" stroke-width="3" stroke-linecap="round" stroke-linejoin="round" stroke-miterlimit="10" d="
		M678.086,449.947c4.208,4.207,5.604,5.457,11.166,5.457c4.125,0,17.75-3.312,17.75-18.75c0,0,0-15.375-13.875-15.375
		c0,0-5.75,0-10.5,3.375"/>
	<path fill="none" stroke="#000000" stroke-width="3" stroke-linecap="round" stroke-linejoin="round" stroke-miterlimit="10" d="
		M685.002,443.404c0,0,3.375-9.562,12.312-11.375"/>
	<path fill="none" stroke="#000000" stroke-width="3" stroke-linecap="round" stroke-linejoin="round" stroke-miterlimit="10" d="
		M694.314,443.717c0,0-0.604-6.875-1.771-8.562"/>
	
		<path fill="#FF360E" stroke="#000000" stroke-width="3" stroke-linecap="round" stroke-linejoin="round" stroke-miterlimit="10" d="
		M559.186,582.756c0,0,7.982-26.477,19.566-38.977c31.875-2.625,69.269-2.736,92.229,12.264c0.598,5.072,4.771,31.361,8.818,38.725
		C679.799,594.766,619.645,607.365,559.186,582.756z"/>
</g>
<g>
	<path fill="#F0F1F2" d="M640,601.234c-32.219,0-62.432-6.399-89.8-19.021c-25.146-11.596-47.418-28.174-66.196-49.271
		c-34.956-39.276-55.003-91.291-55.003-142.707c0-56.363,21.947-109.352,61.798-149.202c39.853-39.852,92.838-61.798,149.202-61.798
		s109.353,21.947,149.202,61.798c39.853,39.851,61.798,92.838,61.798,149.202c0,78.174-42.897,149.583-111.958,186.354
		c-4.125,2.209-8.365,4.288-12.604,6.182c-0.501,0.237-0.981,0.447-1.464,0.657l-0.83,0.366
		C697.569,595.365,669.255,601.234,640,601.234z M639.508,191.848c-109.194,0-198.031,88.837-198.031,198.033
		c0,109.196,88.837,198.034,198.031,198.034c109.196,0,198.033-88.838,198.033-198.034
		C837.541,280.685,748.704,191.848,639.508,191.848z"/>
	<path fill="none" d="M640,180.735c28.285,0,55.725,5.539,81.549,16.461c24.947,10.551,47.354,25.657,66.595,44.897
		c19.238,19.24,34.346,41.646,44.896,66.593c10.923,25.826,16.461,53.263,16.461,81.548c0,38.717-10.643,76.535-30.776,109.367
		c-19.574,31.921-47.371,58.084-80.393,75.667c-4.091,2.19-8.299,4.254-12.507,6.134l-0.033,0.015l-0.031,0.015
		c-0.455,0.218-0.921,0.419-1.388,0.624c-0.282,0.123-0.562,0.246-0.812,0.358c-26.397,11.494-54.512,17.321-83.56,17.321
		c-32,0-62.002-6.354-89.172-18.885c-24.958-11.509-47.064-27.964-65.704-48.906c-17.49-19.652-31.18-42.343-40.689-67.436
		c-9.115-24.052-13.935-49.733-13.935-74.274c0-28.285,5.539-55.723,16.461-81.548c10.551-24.947,25.657-47.352,44.897-66.593
		c19.238-19.241,41.646-34.346,66.592-44.897C584.278,186.273,611.715,180.735,640,180.735 M639.508,589.414
		c26.938,0,53.067-5.276,77.669-15.682c23.762-10.052,45.101-24.438,63.425-42.763c18.321-18.323,32.71-39.663,42.76-63.423
		c10.405-24.602,15.682-50.731,15.682-77.668c0-26.936-5.275-53.067-15.682-77.668c-10.05-23.761-24.438-45.099-42.76-63.423
		c-18.324-18.324-39.662-32.71-63.425-42.76c-24.602-10.406-50.731-15.682-77.669-15.682c-26.936,0-53.065,5.276-77.668,15.682
		c-23.761,10.05-45.099,24.437-63.423,42.76c-18.324,18.323-32.71,39.662-42.76,63.423c-10.406,24.602-15.682,50.732-15.682,77.668
		c0,26.937,5.274,53.067,15.682,77.668c10.05,23.76,24.437,45.1,42.76,63.423c18.323,18.324,39.662,32.711,63.423,42.763
		C586.441,584.138,612.572,589.414,639.508,589.414 M640,177.735c-117.367,0-212.5,95.133-212.5,212.5
		c0,99.875,76.854,212.5,212.5,212.5c30.124,0,58.791-6.268,84.755-17.57c0.769-0.344,1.544-0.668,2.292-1.023
		c4.318-1.928,8.549-4.004,12.7-6.227C806.832,542.192,852.5,471.548,852.5,390.236C852.5,272.868,757.367,177.735,640,177.735
		L640,177.735z M639.508,586.414c-108.542,0-196.531-87.992-196.531-196.534s87.989-196.533,196.531-196.533
		c108.543,0,196.533,87.991,196.533,196.533S748.051,586.414,639.508,586.414L639.508,586.414z"/>
</g>
</svg>
