<?xml version="1.0" encoding="utf-8"?>
<!-- Generator: Adobe Illustrator 16.0.3, SVG Export Plug-In . SVG Version: 6.00 Build 0)  -->
<!DOCTYPE svg PUBLIC "-//W3C//DTD SVG 1.1//EN" "http://www.w3.org/Graphics/SVG/1.1/DTD/svg11.dtd">
<svg version="1.1" id="Layer_1" xmlns="http://www.w3.org/2000/svg" xmlns:xlink="http://www.w3.org/1999/xlink" x="0px" y="0px"
	 width="453px" height="453px" viewBox="413.5 163.5 453 453" enable-background="new 413.5 163.5 453 453" xml:space="preserve">
<circle fill="#72C7E7" cx="640" cy="390" r="201.868"/>
<g display="none">
	
		<path display="inline" fill="#FFD90F" stroke="#000000" stroke-width="3" stroke-linecap="round" stroke-linejoin="round" stroke-miterlimit="10" d="
		M663.752,453.279c0,0-5.25,9.75-76.875,9.75c-57.375-0.5-52.423-23.637-52.423-23.637c1.215-8.229,20.215-20.779,21.539-28.994
		s-14.99-32.287-14.99-32.287c-18.376-12.873-35.001-38.166-35.001-41.583c0-7.333,33.562-20.938,33.562-20.938
		c2.854-1.396,3.604-3.146,3.604-8.562c-0.083-3.406-1.662-39.309,0.146-41.688c4.604-6.062,43.354,1.771,43.354,1.771
		c5.146,0.979,6.396-0.708,9.646-4.333c1.532-1.863,24.938-30.333,29.021-30.333c6.354-0.004,28.333,29,28.333,29
		c4.583,4.833,8.271,5.833,14,4c0,0,29.896-12.542,41.333-10.729c7.875,4.5,7.062,42.375,7.062,42.375
		c0,4.25,2.021,6.438,6.254,7.92c0,0,35.936,9.705,37.311,13.58c2.08,5.863-15.167,35.313-15.167,35.313
		c-2.021,3.875-2.156,7.51,0.167,9.832c0,0,25.542,25.293,25.188,29.668c0.188,3.793-26.625,26.062-26.625,26.062
		c-2.5,2.188-2.312,6.061-1.562,8.938c0,0,9.625,25.188,5.312,28.438c-4.312,1.938-7.625,2.062-30.271,2.271
		c-3.146-0.01-4.834,1.248-4.917,3.791c0,0,0.167,16.959-3.164,18.639c-9.252,2.318-32.461-9.514-32.461-9.514
		s-0.959,12.416-0.792,21.082l8.657,16.414c0,0,52.118,22.285,59.396,61.602c0,0-24.229,13.957-53.142,21.307
		c0,0,4.254-9.486,5.254-12.152c0,0-15.703-18.834-37.25-34.168l12.729,9.932l-111.793,26.713"/>
	
		<path id="Tête_2_" display="inline" fill="#FFD90F" stroke="#000000" stroke-width="3" stroke-linecap="round" stroke-linejoin="round" stroke-miterlimit="10" d="
		M649.252,567.029l-82.605,19.293l-7.461-2.842c-15.143-5.453-36.042-18.709-36.042-18.709
		c7.607-16.076,24.646-24.699,37.357-32.117c14.333-8.707,24.453-18.125,24.453-18.125l13.173-15.75c0,0,0.75-16.188,0.062-18.094
		c-0.688-1.906-13.375-5.844-11.312-17.656c0,0,57.375,1,76.875-9.75"/>
	
		<path display="inline" fill="none" stroke="#000000" stroke-width="3" stroke-linecap="round" stroke-linejoin="round" stroke-miterlimit="10" d="
		M659.752,446.217c3.812,3.5,6.188,7.938,6,14.688"/>
	
		<ellipse display="inline" fill="#FFFFFF" stroke="#000000" stroke-width="3" stroke-miterlimit="10" cx="575.003" cy="384.278" rx="34" ry="31.499"/>
	
		<ellipse display="inline" fill="#FFFFFF" stroke="#000000" stroke-width="3" stroke-miterlimit="10" cx="636.169" cy="384.278" rx="36.833" ry="35.499"/>
	<circle display="inline" cx="640" cy="387.779" r="6.775"/>
	<circle display="inline" cx="564" cy="387.779" r="6.377"/>
	<g id="Paupière" display="inline">
		<path fill="none" stroke="#000000" stroke-width="3" stroke-linecap="round" stroke-linejoin="round" stroke-miterlimit="10" d="
			M673.001,386.779c0,0,7.188-2.125,12.313-1.125"/>
		<path fill="none" stroke="#000000" stroke-width="3" stroke-linecap="round" stroke-linejoin="round" stroke-miterlimit="10" d="
			M665.791,363.182c0,0,4.148-5.777,10.336-9.652"/>
		<path fill="none" stroke="#000000" stroke-width="3" stroke-linecap="round" stroke-linejoin="round" stroke-miterlimit="10" d="
			M644.666,349.732c0,0-0.003-8.537,3.336-13.204"/>
		<path fill="none" stroke="#000000" stroke-width="3" stroke-linecap="round" stroke-linejoin="round" stroke-miterlimit="10" d="
			M619.176,352.779c0,0-3.674-4-4.425-12.25"/>
		<path fill="none" stroke="#000000" stroke-width="3" stroke-linecap="round" stroke-linejoin="round" stroke-miterlimit="10" d="
			M591.711,356.848c0,0-0.032-9.068,3.625-13.717"/>
		<path fill="none" stroke="#000000" stroke-width="3" stroke-linecap="round" stroke-linejoin="round" stroke-miterlimit="10" d="
			M564.973,354.174c0,0-2.804-6.229-2.971-14.229"/>
		<path fill="none" stroke="#000000" stroke-width="3" stroke-linecap="round" stroke-linejoin="round" stroke-miterlimit="10" d="
			M547.919,365.238c0,0-5.917-3.459-10.417-9.793"/>
		<path fill="none" stroke="#000000" stroke-width="3" stroke-linecap="round" stroke-linejoin="round" stroke-miterlimit="10" d="
			M541.003,383.402c0,0-6.5,0.877-13.001-2.123"/>
	</g>
	
		<path id="Nez_1_" display="inline" fill="#FFD90F" stroke="#000000" stroke-width="3" stroke-linecap="round" stroke-linejoin="round" stroke-miterlimit="10" d="
		M603.502,402.611c-3.125,2.23-15.75,0.355-27,2c-5.75,0.855-11.526,4.668-11.526,13.168c0,9.336,7.901,13.387,19.262,13.387
		c9.016,0,15.327-1.262,17.433-4.055"/>
	<g id="Collier" display="inline">
		
			<circle fill="#FEFDFC" stroke="#000000" stroke-width="3" stroke-linecap="round" stroke-linejoin="round" stroke-miterlimit="10" cx="673.752" cy="505.529" r="11"/>
		
			<circle fill="#FEFDFC" stroke="#000000" stroke-width="3" stroke-linecap="round" stroke-linejoin="round" stroke-miterlimit="10" cx="594.752" cy="508.529" r="11"/>
		
			<circle fill="#FEFDFC" stroke="#000000" stroke-width="3" stroke-linecap="round" stroke-linejoin="round" stroke-miterlimit="10" cx="630.752" cy="513.529" r="11"/>
		
			<circle fill="#FEFDFC" stroke="#000000" stroke-width="3" stroke-linecap="round" stroke-linejoin="round" stroke-miterlimit="10" cx="607.752" cy="511.529" r="11"/>
		
			<circle fill="#FEFDFC" stroke="#000000" stroke-width="3" stroke-linecap="round" stroke-linejoin="round" stroke-miterlimit="10" cx="654.752" cy="512.529" r="11"/>
	</g>
	
		<path display="inline" fill="#FECB00" stroke="#000000" stroke-width="3" stroke-linecap="round" stroke-linejoin="round" stroke-miterlimit="10" d="
		M676.048,473.113c0,0,0.871-13.291,5.621-18.334"/>
	
		<path display="inline" fill="#FFD90F" stroke="#000000" stroke-width="3" stroke-linecap="round" stroke-linejoin="round" stroke-miterlimit="10" d="
		M678.086,449.947c4.208,4.207,5.604,5.457,11.166,5.457c4.125,0,17.75-3.312,17.75-18.75c0,0,0-15.375-13.875-15.375
		c0,0-5.75,0-10.5,3.375"/>
	
		<path display="inline" fill="none" stroke="#000000" stroke-width="3" stroke-linecap="round" stroke-linejoin="round" stroke-miterlimit="10" d="
		M685.002,443.404c0,0,3.375-9.562,12.312-11.375"/>
	
		<path display="inline" fill="none" stroke="#000000" stroke-width="3" stroke-linecap="round" stroke-linejoin="round" stroke-miterlimit="10" d="
		M694.314,443.717c0,0-0.604-6.875-1.771-8.562"/>
	
		<path display="inline" fill="#FF360E" stroke="#000000" stroke-width="3" stroke-linecap="round" stroke-linejoin="round" stroke-miterlimit="10" d="
		M559.186,582.756c0,0,7.982-26.477,19.566-38.977c31.875-2.625,69.269-2.736,92.229,12.264c0.598,5.072,4.771,31.361,8.818,38.725
		C679.799,594.766,619.645,607.365,559.186,582.756z"/>
</g>
<g id="Vector">
	
		<path id="Habit" fill="#66CFF6" stroke="#000000" stroke-width="3" stroke-linecap="round" stroke-linejoin="round" stroke-miterlimit="10" d="
		M567.078,587.58c-7.711-24.817-3.053-48.396,18.037-69.955c-0.2-2.433-0.251-4.729-0.148-6.909c0,0-23.987-4.335-35.235-9.785
		l-19.919-8.497c0,0-5.097,0.293-6.796-2.344c-1.699-3.28-2.461-9.373,3.749-23.199c0,0,5.683-11.248,11.6-13.299l39.728,12.128
		l16.633,4.022c0,0,1.333-2.95,4.035-4.277l63.687-7.284c0,0,7.893,0.313,8.828,8.593c0,0,1.25,6.327-6.718,10.076
		c0,0,32.025,1.172,48.431-4.921c0,0,12.614-5.097,18.238-1.23l7.226,33.728c0,0-0.938,2.968-4.062,4.219
		c0,0-39.993,12.967-65.927,6.562c0,0,25.619,9.999,29.994,42.806c2.045,15.331-1.602,23.874-8.291,29.487
		C690.166,587.497,628.781,607.533,567.078,587.58z"/>
	
		<path fill="#FFD90F" stroke="#000000" stroke-width="3" stroke-linecap="round" stroke-linejoin="round" stroke-miterlimit="10" d="
		M564.18,419.703c0,0-10.307-15.715,0.285-29.096l-11.836-19.517c-17.81-9.36-33.069-33.967-33.31-41.261
		c0-5.575,26.816-11.473,26.816-11.473c-2.109-7.343-4.296-42.494-0.393-43.744c9.608-1.094,15.779,0.234,34.12,6.478l6.373-5.487
		c3.036-11.418,16.628-35.204,19.852-35.555c3.515-0.41,22.145,11.424,35.032,28.238c0,0,25.075-19.061,43.041-19.528
		c5.938-0.625,11.248,33.979,11.248,43.978c18.826,0.625,44.059,2.733,48.821,8.905c1.874,2.421-7.188,26.013-20.935,43.118
		c0,0,31.869,25.465,31.869,36.088c0,4.258-18.98,15.701-36.869,19.372c0,0,15.231,33.276,12.42,36.948
		c-3.438,3.672-21.715,6.482-36.636,5.819c0,0,1.406,18.396-0.857,20.427c-2.305,1.894-23.161-1.504-30.152-6.172l-0.741,3.789
		c-8.438,9.693-27.301,11.505-46.867,6.98l-17.356-3.925L564.18,419.703z"/>
	
		<ellipse fill="#FFFFFF" stroke="#000000" stroke-width="3" stroke-miterlimit="10" cx="582.578" cy="367.491" rx="30.19" ry="28.355"/>
	<ellipse cx="575.742" cy="368.554" rx="4.32" ry="4.64"/>
	<path fill="none" stroke="#000000" stroke-width="2" stroke-linecap="round" stroke-linejoin="round" stroke-miterlimit="10" d="
		M666.233,357.83c0,0,6.877-8.695,11.329-10.219"/>
	<path fill="none" stroke="#000000" stroke-width="2" stroke-linecap="round" stroke-linejoin="round" stroke-miterlimit="10" d="
		M647.209,343.142c0,0,3.835-12.44,8.599-15.644"/>
	<path fill="none" stroke="#000000" stroke-width="2" stroke-linecap="round" stroke-linejoin="round" stroke-miterlimit="10" d="
		M629.587,342.398c0,0-2.683-11.15,0.756-16.854"/>
	<path fill="none" stroke="#000000" stroke-width="2" stroke-linecap="round" stroke-linejoin="round" stroke-miterlimit="10" d="
		M581.244,339.165c0,0-4.035-9.304-2.338-15.163"/>
	<path fill="none" stroke="#000000" stroke-width="2" stroke-linecap="round" stroke-linejoin="round" stroke-miterlimit="10" d="
		M561.656,347.05c0,0-6.887-8.401-7.529-12.619"/>
	<path fill="none" stroke="#000000" stroke-width="2" stroke-linecap="round" stroke-linejoin="round" stroke-miterlimit="10" d="
		M553.581,359.57c0,0-9.476-2.818-12.933-10.023"/>
	
		<path id="Nose" fill="#FFD90F" stroke="#000000" stroke-width="3" stroke-linecap="round" stroke-linejoin="round" stroke-miterlimit="10" d="
		M608.082,384.316c0,0-11.834,0-17.889,0.83c-2.812,0.581-11.581,1.659-11.481,10.153c0,7.616,7.752,15.408,23.805,11.601"/>
	
		<path fill="#66CFF6" stroke="#000000" stroke-width="3" stroke-linecap="round" stroke-linejoin="round" stroke-miterlimit="10" d="
		M613.823,283.402c0,0,5.396-9.959,15.646-12.303c0,0,7.203-2.578,9.896,12.303c1.445,8.553,1.875,14.994-2.421,16.287
		c0,0-8.709,3.398-21.715-4.804C615.228,294.886,612.534,288.559,613.823,283.402z"/>
	
		<path fill="#66CFF6" stroke="#000000" stroke-width="3" stroke-linecap="round" stroke-linejoin="round" stroke-miterlimit="10" d="
		M605.072,284.482c0,0-16.907-10.102-21.946-9.164c0,0-4.453,2.689-4.103,14.644c0,0-0.117,9.493,4.335,13.478
		c0,0,8.992,3.562,20.314-7.535"/>
	
		<path fill="#FECB00" stroke="#000000" stroke-width="3" stroke-linecap="round" stroke-linejoin="round" stroke-miterlimit="10" d="
		M598.106,464.09c0,0,1.607,5.652,9.501,5.652c7.35,0,13.05-5,13.05-13.162"/>
	<g id="Sucette">
		
			<ellipse transform="matrix(-0.7751 -0.6318 0.6318 -0.7751 754.6802 1151.6423)" fill="#F5704F" stroke="#000000" stroke-width="3" stroke-miterlimit="10" cx="582.293" cy="441.514" rx="29.291" ry="17.591"/>
		<path fill="#F5704F" stroke="#000000" stroke-width="3" stroke-miterlimit="10" d="M555.667,463.493
			c-6.935-8.788-5.585-20.856,10.153-33.12c0,0,6.562-2.031,9.844,6.403c0,0,0.48,1.051-0.306,1.836c0,0-11.511,7.188-7.507,12.226
			c5.897,3.984,11.769-4.366,13.279-6.326c0,0,1.054-1.406,2.5-1.172c1.894,0.059,9.158,2.577,8.277,7.323
			C585.174,469.059,563.322,471.929,555.667,463.493z"/>
	</g>
	
		<path fill="#66CFF6" stroke="#000000" stroke-width="3" stroke-linecap="round" stroke-linejoin="round" stroke-miterlimit="10" d="
		M615.228,294.886c0,0-2.578-4.687-1.406-11.483c0,0-0.818-4.218-7.968,0c0,0-3.867,4.023-3.867,7.5
		c-0.025,2.694,0.234,5.39,4.335,7.265C606.324,298.167,613.471,299.689,615.228,294.886z"/>
	
		<ellipse fill="#FFFFFF" stroke="#000000" stroke-width="3" stroke-miterlimit="10" cx="636.943" cy="372.648" rx="33.276" ry="30.932"/>
	<circle cx="643.231" cy="370.109" r="5.272"/>
	<path fill="none" stroke="#000000" stroke-width="3" stroke-linecap="round" stroke-linejoin="round" stroke-miterlimit="10" d="
		M676.586,415.375c10.7-1.484,18.435,7.421,13.825,17.729c-4.935,11.035-19.217,12.733-24.842,2.422"/>
	<path fill="none" stroke="#000000" stroke-width="3" stroke-linecap="round" stroke-linejoin="round" stroke-miterlimit="10" d="
		M675.415,424.984c3.124-2.578,7.265-2.345,9.527,1.719"/>
	<path fill="none" stroke="#000000" stroke-width="3" stroke-linecap="round" stroke-linejoin="round" stroke-miterlimit="10" d="
		M680.18,423.529c0.37,2.004,2.031,5.275-1.508,9.188"/>
	<path fill="none" stroke="#000000" stroke-width="3" stroke-linecap="round" stroke-linejoin="round" stroke-miterlimit="10" d="
		M667.487,438.25c0,0-5.117,11.808-5.04,22.353"/>
	<path fill="none" stroke="#000000" stroke-width="3" stroke-linecap="round" stroke-linejoin="round" stroke-miterlimit="10" d="
		M591.985,491.145"/>
	<path fill="none" stroke="#000000" stroke-width="3" stroke-linecap="round" stroke-linejoin="round" stroke-miterlimit="10" d="
		M595.485,482.592"/>
	<path fill="none" stroke="#000000" stroke-width="3" stroke-linecap="round" stroke-linejoin="round" stroke-miterlimit="10" d="
		M591.985,491.145c-4.283,5.328-6.646,11.663-7.019,19.571"/>
	<path fill="none" stroke="#000000" stroke-width="3" stroke-linecap="round" stroke-linejoin="round" stroke-miterlimit="10" d="
		M595.485,482.592c-2.929-8.612-0.762-12.85-0.762-12.85"/>
	
		<path fill="#00A1DE" stroke="#000000" stroke-width="3" stroke-linecap="round" stroke-linejoin="round" stroke-miterlimit="10" d="
		M731.226,470.698"/>
	<path fill="none" stroke="#000000" stroke-width="3" stroke-linecap="round" stroke-linejoin="round" stroke-miterlimit="10" d="
		M768.252,498.468"/>
	
		<path fill="#FFD90F" stroke="#000000" stroke-width="3" stroke-linecap="round" stroke-linejoin="round" stroke-miterlimit="10" d="
		M731.226,493.488c-3.371-11.091,1.838-22.731,0.354-29.527c0,0-2.812-16.521,5.624-18.044c7.146-1.113,11.656,4.805,10.66,14.764
		c0.061,1.758,1.816,2.578,3.983,2.461c0,0,9.667-0.469,23.493-6.737c0,0,7.088-3.047,9.139,3.104
		c3.387,11.38-10.808,14.418-10.531,14.351c0,0-2.006,9.317,13.109,13.89c4.276,1.289,7.265,4.511,6.444,8.846
		c-1.767,6.883-11.868,8.188-24.146,2.411c0,0-1.378,1.983-1.534,2.921c0,0,1.092,5.076,4.451,10.389c0,0,6.093,9.608-1.249,11.404
		c0,0-9.062,2.343-14.061-7.812l-2.971-5.702C753.995,510.204,735.952,509.033,731.226,493.488z"/>
	<path fill="none" stroke="#000000" stroke-width="3" stroke-linecap="round" stroke-linejoin="round" stroke-miterlimit="10" d="
		M770.771,474.448c1.149-0.154,2.205-0.354,3.178-0.591"/>
	<path fill="none" stroke="#000000" stroke-width="3" stroke-linecap="round" stroke-linejoin="round" stroke-miterlimit="10" d="
		M769.356,499.004c-0.366-0.173-0.732-0.354-1.104-0.536"/>
	<path fill="none" stroke="#000000" stroke-width="2" stroke-linecap="round" stroke-linejoin="round" stroke-miterlimit="10" d="
		M741.107,491.927c6.405,2.655,11.091,0.156,11.873-5.468"/>
	
		<path fill="#FFD90F" stroke="#000000" stroke-width="3" stroke-linecap="round" stroke-linejoin="round" stroke-miterlimit="10" d="
		M536.833,454.361c0,0-3.036-1.782-3.661-3.504c0.468-6.25,2.577-23.521-6.445-23.521c-6.396,0-9.885,3.591-10.401,13.591h-5.025
		c0,0-10.077-6.175-16.442-7.697c0,0-7.577-1.937-10.116,1.426c-1.562,2.497-1.874,6.55,1.057,9.322c0,0,5.175,3.959,6.913,5.09
		c2.361,1.604,4.021,6.354-0.039,6.824c-2.207,0.33-15.789,0.727-17.966,6.124c-0.753,2.567-1.018,9.829,7.497,10.386
		c3.146,0,9.004-0.177,11.287-0.001c2.638,0.146,4.774,1.786,2.228,3.71c-1.632,1.197-12.146,7.93-6.562,14.411
		c7.188,6.603,16.601-2.538,20.817-5.817c0,0,9.857,2.812,11.842,2.499L536.833,454.361z"/>
	<path fill="none" stroke="#000000" stroke-width="3" stroke-linecap="round" stroke-linejoin="round" stroke-miterlimit="10" d="
		M516.326,440.295c-0.042,0.724-0.062,1.479-0.064,2.263"/>
	<path fill="none" stroke="#000000" stroke-width="2" stroke-linecap="round" stroke-linejoin="round" stroke-miterlimit="10" d="
		M509.19,462.322c-0.703,4.45-0.818,6.911,3.164,10.191"/>
</g>
<g>
	<path fill="#F0F1F2" d="M640,601.234c-32.219,0-62.432-6.399-89.8-19.021c-25.146-11.596-47.418-28.174-66.196-49.271
		c-34.956-39.276-55.003-91.291-55.003-142.707c0-56.363,21.947-109.352,61.798-149.202c39.853-39.852,92.838-61.798,149.202-61.798
		s109.353,21.947,149.202,61.798c39.853,39.851,61.798,92.838,61.798,149.202c0,78.174-42.897,149.583-111.958,186.354
		c-4.125,2.209-8.365,4.288-12.604,6.182c-0.501,0.237-0.981,0.447-1.464,0.657l-0.83,0.366
		C697.569,595.365,669.255,601.234,640,601.234z M639.508,191.848c-109.194,0-198.031,88.837-198.031,198.033
		c0,109.196,88.837,198.034,198.031,198.034c109.196,0,198.033-88.838,198.033-198.034
		C837.541,280.685,748.704,191.848,639.508,191.848z"/>
	<path fill="none" d="M640,180.735c28.285,0,55.725,5.539,81.549,16.461c24.947,10.551,47.354,25.657,66.595,44.897
		c19.238,19.24,34.346,41.646,44.896,66.593c10.923,25.826,16.461,53.263,16.461,81.548c0,38.717-10.643,76.535-30.776,109.367
		c-19.574,31.921-47.371,58.084-80.393,75.667c-4.091,2.19-8.299,4.254-12.507,6.134l-0.033,0.015l-0.031,0.015
		c-0.455,0.218-0.921,0.419-1.388,0.624c-0.282,0.123-0.562,0.246-0.812,0.358c-26.397,11.494-54.512,17.321-83.56,17.321
		c-32,0-62.002-6.354-89.172-18.885c-24.958-11.509-47.064-27.964-65.704-48.906c-17.49-19.652-31.18-42.343-40.689-67.436
		c-9.115-24.052-13.935-49.733-13.935-74.274c0-28.285,5.539-55.723,16.461-81.548c10.551-24.947,25.657-47.352,44.897-66.593
		c19.238-19.241,41.646-34.346,66.592-44.897C584.278,186.273,611.715,180.735,640,180.735 M639.508,589.414
		c26.938,0,53.067-5.276,77.669-15.682c23.762-10.052,45.101-24.438,63.425-42.763c18.321-18.323,32.71-39.663,42.76-63.423
		c10.405-24.602,15.682-50.731,15.682-77.668c0-26.936-5.275-53.067-15.682-77.668c-10.05-23.761-24.438-45.099-42.76-63.423
		c-18.324-18.324-39.662-32.71-63.425-42.76c-24.602-10.406-50.731-15.682-77.669-15.682c-26.936,0-53.065,5.276-77.668,15.682
		c-23.761,10.05-45.099,24.437-63.423,42.76c-18.324,18.323-32.71,39.662-42.76,63.423c-10.406,24.602-15.682,50.732-15.682,77.668
		c0,26.937,5.274,53.067,15.682,77.668c10.05,23.76,24.437,45.1,42.76,63.423c18.323,18.324,39.662,32.711,63.423,42.763
		C586.441,584.138,612.572,589.414,639.508,589.414 M640,177.735c-117.367,0-212.5,95.133-212.5,212.5
		c0,99.875,76.854,212.5,212.5,212.5c30.124,0,58.791-6.268,84.755-17.57c0.769-0.344,1.544-0.668,2.292-1.023
		c4.318-1.928,8.549-4.004,12.7-6.227C806.832,542.192,852.5,471.548,852.5,390.236C852.5,272.868,757.367,177.735,640,177.735
		L640,177.735z M639.508,586.414c-108.542,0-196.531-87.992-196.531-196.534s87.989-196.533,196.531-196.533
		c108.543,0,196.533,87.991,196.533,196.533S748.051,586.414,639.508,586.414L639.508,586.414z"/>
</g>
</svg>
