<?xml version="1.0" encoding="utf-8"?>
<!-- Generator: Adobe Illustrator 17.1.0, SVG Export Plug-In . SVG Version: 6.00 Build 0)  -->
<!DOCTYPE svg PUBLIC "-//W3C//DTD SVG 1.0//EN" "http://www.w3.org/TR/2001/REC-SVG-20010904/DTD/svg10.dtd" [
	<!ENTITY ns_extend "http://ns.adobe.com/Extensibility/1.0/">
	<!ENTITY ns_ai "http://ns.adobe.com/AdobeIllustrator/10.0/">
	<!ENTITY ns_graphs "http://ns.adobe.com/Graphs/1.0/">
	<!ENTITY ns_vars "http://ns.adobe.com/Variables/1.0/">
	<!ENTITY ns_imrep "http://ns.adobe.com/ImageReplacement/1.0/">
	<!ENTITY ns_sfw "http://ns.adobe.com/SaveForWeb/1.0/">
	<!ENTITY ns_custom "http://ns.adobe.com/GenericCustomNamespace/1.0/">
	<!ENTITY ns_adobe_xpath "http://ns.adobe.com/XPath/1.0/">
]>
<svg version="1.0" xmlns:x="&ns_extend;" xmlns:i="&ns_ai;" xmlns:graph="&ns_graphs;"
	 xmlns="http://www.w3.org/2000/svg" xmlns:xlink="http://www.w3.org/1999/xlink" x="0px" y="0px" viewBox="0 0 283.5 283.5"
	 enable-background="new 0 0 283.5 283.5" xml:space="preserve">
<metadata>
	<sfw  xmlns="&ns_sfw;">
		<slices></slices>
		<sliceSourceBounds  width="262.6" height="262.6" x="15" y="10.4" bottomLeftOrigin="true"></sliceSourceBounds>
	</sfw>
</metadata>
<g id="Calque_2">
	<path fill="#A5ED88" d="M146.3,20.8c-66.8,0-121,54.2-121,121c0,63.7,49.2,115.9,111.8,120.7c4,0.1,8.1,0.2,12.1,0.3
		c65.5-1.5,118.2-55.1,118.2-121C267.3,74.9,213.1,20.8,146.3,20.8z"/>
</g>
<g id="Calque_4">
	<g id="O8zq47.tif">
		<g>
			<path d="M235,161.3c-0.3-1.4-0.6-2.7-0.4-4.1c1.4-7.7,2.4-15.3,2.6-23.1c0-4.4,0-8.8,0-13.2c-0.2-4.6-0.7-9.2-1.8-13.7
				c-2.7-10.4-7.7-19.3-16.6-25.7c-6.5-4.7-13.9-7.2-21.8-8.3c-4.9-0.7-9.9-0.9-14.9-0.9c-1.4,0-2.8-0.1-4.1-0.7
				c-4.4-2-8.9-2.1-13.2-0.2c-2.5,1.1-4.5,0.8-6.9,0c-8.5-3-17.2-3.4-26-1.3c-5.7,1.3-10.6,4.2-15.2,7.8c-1.3,1-2.7,1.6-4.3,2
				c-2.6,0.6-4.9,1.6-6.4,3.9c-0.9,1.4-2.2,2.4-3.7,3c-1.9,0.7-3.6,1.7-5.3,2.7c-4.9,3-9.4,6.5-13,11.1c-4.1,5.3-6.1,11.5-6.5,18.2
				c-0.4,6.4,0.6,12.6,4.9,17.8c-0.1,1.7,0.2,2.9,2.3,2.6c0.9-0.2,1.8-0.6,2.6-1.1c1.6-0.9,3.2-1.6,5.1-1.1c0.7,0,1.2-0.4,1.8-0.8
				c0.2-0.1,0.4-0.2,0.6-0.3c1.5-0.1,2.9,0.1,4.4-0.1c0.5-0.1,1.2-0.1,1.2-0.8c0-0.6-0.7-0.7-1.2-0.7c-1.9-0.2-3.8,0-5.7-0.1
				c-1.2-0.1-1.8-0.9-2.3-1.8c-0.8-1.2-1.1-2.6-1.6-3.9c-0.3-0.8-0.7-1.7-1.7-1.3c-0.2,0.1-0.3,0.2-0.4,0.3c0.1-0.4,0.2-0.7,0.4-1
				c2.3-4,5-7.6,8-11c8.1-9.1,17.8-15.2,30-17c1.7-0.3,3.5-0.6,5.2-0.5c2,0.1,2.3,0.8,1.3,2.6c-0.7,1.3-1.6,1.6-3.1,1
				c-1.7-0.6-3.5-0.7-4.9,0.9c-1.2,1.5-0.7,3-0.1,4.6c0.7,1.7,1.9,3.1,3.1,4.6c5.2,6.7,14.3,7.8,20.9,2.5c1.3-1,3-2.1,2.5-4.1
				c-0.5-1.9-2.3-2-3.9-2.2c-1.3-0.1-1.7-0.9-1.9-2c-0.4-3.7,2.1-5.9,5.9-5.1c4.4,1,7.6,3.7,10.2,7.2c3.9,5.2,6.7,11,8.9,17.1
				c1.7,4.8,2.7,9.8,4.6,14.5c0.3,1.3-1.4,0.7-1.6,1.7c0.5,1,1.8,0.4,2.5,1.1c1.5,2.6,3.1,5.3,4.4,8c0.2,0.8,0.9,1.1,1.3,1.7
				c1.5,2.4,3.2,4.7,4.8,7c1.9,2.9,4.4,5.4,6,8.5c0.2,0.4,0.5,0.7,0.9,0.9c2.2,2.3,4.2,4.9,6.3,7.3c1.4,1.6,1.4,1.5-0.6,2.3
				c-1.3,0.5-2.6,1-3.6,2.1c-0.6,0.7-0.8,1.5-0.1,2.2c0.7,0.6,1.2-0.1,1.7-0.5c0.9-1,2.1-1.3,3.3-1.7c1.6-0.6,2.8-0.4,4,1.1
				c1.7,2.1,3.4,4.2,5.4,6c1.2,1.1,1.4,2.3,0.9,3.8c-2.1,6.1-5.9,10.7-11.5,13.9c-1.3,0.8-2.3,0.8-3.2-0.5c-3-4.2-10-4.4-14.3-1.9
				c-2.9,1.7-3.9,4.2-2.6,7.3c0.6,1.3,0.2,2.1-0.7,3.1c-3,3.4-5.6,7-8,10.8c-7.5,12.2-11.9,25.6-14.4,39.6c0.8,0,1.6,0,2.4,0.1
				c0.7-3.8,1.4-7.6,2.7-11.6c3.1,3.4,5.1,6.9,6.4,11c0.1,0.2,0.1,0.5,0.2,0.8c8.9,0.2,18.3,0.7,27.2-0.4c0.3-1.1,0.9-2.1,2-2.9
				c7.9-6,18.5-7.1,26-13.6c1-0.8,2-1.3,3-1.4c2.1-3,4-6.1,5.5-9.5c2.6-5.9,3.8-12.1,3.6-18.4c-0.1-5.8-1.4-11.5-3.5-16.9
				c-0.6-1.6-0.6-3.1-0.1-4.7c2.5-7.6,3.5-15.3,2.4-23.2c-0.1-1-0.1-1.9,0.4-2.8C235.9,166.8,235.6,164.1,235,161.3z M89.8,134.3
				c-1.7-1.5-2.5-3.9-2.4-5.9c0,0.2,0.1,0.3,0.1,0.5C87.9,130.6,88.6,132.2,89.8,134.3z"/>
			<path fill="#D57A31" d="M72.7,206.4c2.8,0.3,5.5,0.9,8,2.3c1.7,0.9,3.4,1.2,5.2,1.3c10.7,0.2,20.3,3.4,28,11.1
				c2.2,1.2,4.8,1,7.2,1.9c3.1,1.2,5.4,3.1,6.6,6.3c1.8,5.2-0.7,8.8-6.2,8.4c-2-0.1-3.2,0.4-4.5,1.9c-2.2,2.5-4.9,4.5-8.6,3.6
				c-3-0.8-3.3-0.5-3.6,2.7c-0.4,4.4-1.6,8.6-4.6,12.1c-0.6,0.7-1.1,1.4-1,2.4c0,0.1,0,0.2,0,0.2c0.9,0.7,1.6,1.6,2,2.7
				c6.6,0.9,14.1-1,20.8-1c11.5-0.1,23,0.4,34.5,0.6c3.2-18.8,9.9-36.1,22.7-50.7c0.7-0.9,1.1-1.4,0.3-2.6c-1.1-1.6-1.1-3.5,0.1-5.2
				c3.5-4.8,13.1-4.5,16.3,0.6c0.6,1,1,1.1,2,0.6c6.8-3.4,11.2-8.8,13.4-16c0.3-0.8,0.2-1.5-0.4-2.2c-2.4-2.7-4.8-5.3-7.2-8
				c-0.7-0.8-1.4-0.9-2.3-0.7c-2.3,0.5-4.5,1.2-6.1,3.1c0.5-3.7,4-3.3,6.4-4.6c-2.8-3.3-5.4-6.5-8.1-9.7c-1,0.2-1.4,1-1.9,1.7
				c-2.8,3.5-6.1,6.3-10.3,7.9c-7.9,2.9-16.1,4.2-24.5,3.5c-7.3-0.6-13.5-3.3-18.5-8.9c-4.6-5-4.8-12.2-1.5-17.5
				c4.4-7,10.9-10.8,18.6-12.5c5.2-1.1,10.5-1.9,15.9-1.1c1.2,0.2,2.4-0.4,3.7-0.4c0.5,0,0.6-0.5,0.4-1c-1.4-2.6-1.8-5.4-2.6-8.1
				c-2.4-8.2-5.3-16.2-10.5-23.1c-3.3-4.4-7.3-8.1-13.2-8.5c-2.4-0.2-4.4,1.8-4.6,4.3c-0.1,1.2-0.2,2.6,0.5,3.6
				c0.6,0.9,1.8,0.2,2.7,0.5c0.2,0.1,0.4,0.1,0.6,0.2c2.5,0.7,2.9,2.1,1.1,4c-2.7,2.7-6,4.1-9.8,4.4c-6.5,0.4-11.5-3.9-14.8-10.3
				c-0.7-1.3-1.2-2.9,0.2-4c1.5-1.3,3.4-1.4,4.9-0.2c1.2,1,1.8,0.6,2.4-0.4c0.5-0.7,0.9-1.5,1.3-2.3c0.9-1.5,0.3-2.1-1.3-2.1
				c-3.9-0.2-7.8,0.4-11.5,1.4c-14.5,4-24.5,13.5-32.5,25.7c-2.1,3.2-1.9,6.2-0.3,9.3c0.8,1.5,0.8,1.5,2.6,0.7
				c-1.3-1.7-2.1-3.5-2.6-5.5c-0.2-0.6-0.6-1.6,0-1.8c1.1-0.4,0.9,0.9,1.1,1.5c0.8,2.2,1.3,4.7,3.8,5.9c6.3-0.8,12.2,0.5,17.7,3.6
				c2.5,1.5,4.3,3.6,4.8,6.7c0.7,4-0.4,7.7-1.8,11.3c-2.9,7.3-6.5,14.2-11.1,20.5c0.8-1.4,0.3-2-2-2.3c-7.7-1.2-13.9-4.8-18.2-11.4
				c-0.5-0.7-1-1.7-2-1.5c-1,0.2-1.3,1.3-1.5,2.3c-0.1,0.6-0.1,1.2-0.1,1.8c-0.2,3.4,0.5,6.6,1.5,9.7c2,6.3,1.3,12.3-1.8,18.1
				c-1.6,3-3.6,5.7-5.8,8.2c-1.1,1.3-2.6,2.5-2.1,4.5C71.2,206.4,72,206.3,72.7,206.4z M101.6,178c-2.3,3-4.8,5.9-7.5,8.6
				c-0.4,0.4-0.8,0.9-1.2,1.3c0.4-0.5,0.9-1,1.3-1.5C96.6,183.5,99.3,180.9,101.6,178z M90.3,192.2c0.4-1.3,1.1-2.4,1.9-3.5
				c-0.9,1.2-1.6,2.5-2,3.9c-0.7,2.8,0.4,4.6,3.2,5.2c1.6,0.3,3.2,0.4,4.8,0.5c3.9,0.1,7.7-0.4,11.6-0.3c-1.7,0.2-3.5,0.1-5.2,0.2
				c-3.6,0.1-7.2,0.3-10.8-0.3C90.4,197.3,89.3,195.7,90.3,192.2z M92.8,188c-0.1,0.2-0.3,0.3-0.4,0.5
				C92.5,188.3,92.6,188.2,92.8,188z"/>
			<path fill="#030201" d="M93.8,258.9c0.2,0.1,0.4,0.3,0.6,0.4c0.2-0.7,0.4-1.4,0.7-2.1c0.6-1.4,1.7-2.4,3.4-2.4
				c0.7,0,1.6-0.4,2,0.3c0.3,0.6-0.4,1.2-0.8,1.7c-0.6,1-1.7,1.8-1.8,3.1c0.9,0.2,1.6,0.7,2.2,1.4c-0.1-1.8,0.6-3.7,2.4-5.8
				c2.4-2.8,2.8-6.9,3-10.6c0.1-1.2,0.1-2,1.7-1.4c3.5,1.3,6.7,0.3,9-2.4c1.9-2.2,3.9-3.1,6.9-2.9c3.8,0.2,5.7-2.2,5.6-6
				c-0.1-4.6-2.6-7.6-6.7-9.5c-2.5-1.1-5.2-1.4-7.9-2c-0.9-0.6-1.9-0.8-3-0.2c-0.6,0.6-0.3,1.1,0.1,1.6c0.4,0.3,0.8,0.4,1.2,0.4
				c2.2,0.4,3,1.3,3.2,3.5c0.1,1.6-0.5,3-1.5,4.2c-1,1.1-2.1,2.2-3.3,3.2c-1.7,1.6-1.5,2.3,0.7,3.2c1.6,0.6,3.2,0.8,4.7,1.5
				c0.1,0.5-0.1,0.7-0.3,0.9c-2.7,2.9-5.9,3.9-9.7,2.4c-1.4,0-1.4,1.1-1.7,2.1c-0.3,2.8-0.8,5.5-1.6,8.2c-0.3,1-0.7,1.3-1.8,1.2
				c-4.7-0.4-6.5,0.7-8.2,5.1c0,0.1-0.1,0.2-0.1,0.3C93.1,258.5,93.5,258.7,93.8,258.9z"/>
			<path fill="#8B0810" d="M164.8,263.1c1.1,0,2.3,0,3.4,0.1c-1.2-4.9-3.9-9-7.5-13c-1.4,4.4-2.2,8.6-2.9,12.8
				C160.1,263,162.4,263.1,164.8,263.1z"/>
			<path fill="#DC8B18" d="M95,259.8c0.6,0,1.2,0,1.7,0c0.7,0,1.3,0.2,1.9,0.4c0.1-1.2,0.6-2.4,1.9-3.5c0.4-0.4,0.6-1,1-1.5
				c0.4-0.7,0.2-1-0.6-1.2c-2.4-0.5-4.7,0.4-5.9,2.3c-0.5,0.8-0.8,1.6-1.1,2.5C94.2,259.2,94.6,259.5,95,259.8z"/>
			<path fill="#FEFEFE" d="M182,151.3c2.7,4.5,5.9,8.7,9.1,12.9c0.6,0.8,1.6,1.6,1.5,2.8c-0.5,2.9-2.7,4.6-4.8,6.3
				c-4.5,3.7-9.9,5.2-15.5,6.3c-7.1,1.3-14.2,1.9-21.3-0.1c-5.8-1.6-10.5-4.7-14-9.7c-1.4-2-2.1-4.2-2.5-6.5
				c-0.4-2.5,0.5-4.3,2.8-5.6c5.9-3.4,12.1-5.8,18.8-7.1c7.6-1.5,15.1-1.6,22.7-0.4C180,150.3,180.9,150.9,182,151.3z"/>
			<path fill="#FEFEFE" d="M84.7,138.4c1.2-0.6,2.5-1.2,3.7-1.8c1.3-0.7,2.7-1.1,4.2-0.4c4.4,1.2,8,3.8,11.7,6.4
				c3.3,2.3,6.4,4.9,8.8,8.2c1.1,1.4,1.5,2.7,0.8,4.4c-2.3,6.1-5.4,11.7-8.6,17.3c-0.8,1.3-2,1.7-3.4,1.6
				c-5.8-0.2-10.8-2.4-15.1-6.2c-5.8-5.1-8.2-11.6-8-19.2c0.1-3.5,1.4-6.5,3.8-9.1C83.2,139,84,138.9,84.7,138.4z"/>
			<path fill="#0B0705" d="M84.7,138.4c-5.8,5-7.5,11.2-3.2,21.3c3.7,8.7,11,13.4,20.8,14c1.1,0.1,1.9-0.2,2.5-1.2
				c3.2-5.7,6.3-11.4,8.7-17.5c0.5-1.4,0.3-2.4-0.6-3.6c-4.8-5.9-11-10.1-17.6-13.7c-0.9-0.5-1.8-1-2.7-1.5c0.7,0.1,0.9-0.6,1.4-0.9
				c7.7,3.3,14.4,8.1,19.9,14.5c1.6-3.5,0.3-8.1-2.9-10.3c-3.6-2.5-7.6-3.6-12-3.7c-1.7,0-3.4,0.3-5-0.5c1.9-1.1,4.1,0,6.1-0.9
				c-2.4,0-4.8,0-7.1,0c6.7-1,13-0.2,18.8,3.6c4.2,2.8,5.6,7.5,4,13.8c-2.1,8.3-6.4,15.5-10.8,22.8c-2.5,4.2-6,7.6-9.3,11.1
				c-1.7,1.8-3.4,3.7-4.4,6c-1.6,3.4-0.4,5.3,3.2,5.8c4.9,0.6,9.8,0.2,14.7,0c0.5,0,1-0.1,1.5,0c0.5,0,1.2-0.2,1.1,0.6
				c0,0.5-0.6,0.6-1,0.6c-5.7,0.2-11.4,0.8-17.1-0.2c-3.9-0.7-5.2-2.9-3.7-6.7c1-2.6,2.8-4.6,4.6-6.7c2.6-2.9,5.4-5.5,7.7-8.7
				c0.7-1,0.6-1.3-0.6-1.4c-8.8-0.8-15.4-5.1-20.2-12.5c-0.2-0.3-0.4-0.8-1-0.9c-1.6,2.5-1.2,5.2-0.7,7.8c0.4,2.7,1.3,5.4,1.9,8.1
				c1.6,7.8-0.9,14.4-5.4,20.6c-1.8,2.5-4.4,4.5-5.5,7.6c0.1,0.4,0.1,0.7,0,1.1c-0.7,3.8,0,5.3,3.4,7c1.9,1,4,1.5,6.1,1.9
				c9.1,1.9,18.3,3.5,27.6,4c1,0.1,1.9,0.2,2.6,1c0.1,0.5,0.2,1-0.6,1c-11.1-0.6-22.1-2.4-32.9-4.9c-1.9-0.5-3.8-1.2-5.4-2.4
				c-3-2.1-3.8-4.8-2.4-8.2c0.9-2.3,2.4-4.1,4-6c4.8-5.5,8.1-11.6,7.8-19.2c-0.2-3.3-1.4-6.4-2-9.6c-0.5-2.8-1.5-5.9-0.2-8.4
				c1.6-3,0.7-5.5,0.2-8.3c-0.8-3.7-1-7.4,0.6-11c0.5-1.1-0.1-1.2-0.8-1.6c-2-1.1-4-2.2-4.9-4.5c-0.2-0.6-0.8-1.4,0.1-1.7
				c0.8-0.3,0.7,0.7,0.9,1.2c1,2,2.7,3.2,4.7,4.1c0.7,0.3,1.1,0.2,1.5-0.3c0.6-0.8,1.2-1.5,1.9-2.3c-2.5-0.8-4.2-2-4.7-4.6
				c0.3-0.3,0.6-0.3,0.9,0c0.9,1.3,1.7,2.7,3.4,3.1c0.8,0.2,1.1,0,0.8-0.8c1.6,0.9-0.5,1.1-0.4,1.7
				C83.4,138.6,84.1,138.3,84.7,138.4z"/>
			<path fill="#5A87C9" d="M176.3,141.6c1.5,2.7,2.9,5.4,4.4,8.2c-0.8,1-1.8,0.4-2.7,0.3c-8.4-1.1-16.7-0.8-24.9,1.2
				c-5.1,1.2-10.1,3.1-14.6,5.9c-0.3,0.2,0.1,0-0.2,0.1c-0.8,0.3-1.7,1.5-2.5,0.5c-0.7-0.8,0.1-1.8,0.6-2.6
				c4.9-8.1,12.4-12.2,21.5-13.7c4.4-0.7,8.9-1.3,13.3-0.7C172.9,140.9,174.6,141.3,176.3,141.6z"/>
			<path fill="#DA8A18" d="M157.8,91.1c8.7,0.2,15.4,3.9,21.8,8.5c12.2,8.7,22.1,19.6,30.8,31.7c7.6,10.6,15.3,21.1,22.4,32
				c0.3,0.5,0.7,1,0.8,1.5c0.2,1.2,0.2,2.6-1,3.1c-0.9,0.4-1.2-1-1.6-1.7c-9.9-15.9-20.1-31.5-32.5-45.6
				c-8.2-9.3-16.9-18.2-28.2-23.8c-3.9-1.9-7.9-3.4-12.2-4.3c-0.6-0.1-1.3-0.2-1.2-1C157.1,90.5,157.9,91.1,157.8,91.1z"/>
			<path fill="#0A0908" d="M176.3,141.6c-8.8-0.9-17.6-0.8-26,2.5c-6.5,2.5-11.5,6.8-14.4,13.3c0.8,0.4,1.2-0.2,1.7-0.5
				c13.3-7.7,27.5-9.4,42.4-7.2c0.2,0,0.4,0,0.7,0c-0.1,1,1.2,0.9,1.3,1.6c-16.2-3-31.5-1.2-45.7,7.7c-1,0.6-1.3,1.5-1.3,2.6
				c-0.2,4.4,1.9,7.7,4.7,10.8c4,4.3,9.1,6.6,14.9,7.4c8.8,1.2,17.4,0,25.8-2.9c5.2-1.8,9.4-5.1,12.2-9.9c0.2,0.4,0.7,0.5,1.1,0.5
				c-3.6,6.1-9.1,9.6-15.8,11.4c-9.4,2.5-18.8,3.7-28.4,0.8c-4.9-1.5-8.8-4.3-12-8.2c-5-6.1-4.7-13.3,0.5-19.9
				c5.2-6.6,12.3-9.7,20.4-11.1c5.1-0.8,10.2-0.9,15.4-0.5c0.7,0,1.7,0.6,1.8-0.8c1,2.3-1.4,0.7-1.7,1.6
				C174.4,141.4,175.6,140.6,176.3,141.6z"/>
			<path fill="#5A8BCD" d="M146.5,96.7c-3.9,0-7.2-1.2-10-3.7c-2.3-2.2-2.2-4.4,0.2-6.6c4.6-4.1,14.4-3.5,18.6,4.3
				c0.6,1.2,0.3,2.1-0.6,2.9C152.4,95.9,149.6,96.9,146.5,96.7z"/>
			<path fill="#DD8B18" d="M187.9,229.9c-1.7-0.1-3.7,0.2-5.7-0.4c-2.2-0.7-3-2.1-2.2-4.2c1.5-3.7,3.2-7.4,4.8-11.1
				c0.3-0.7,0.8-0.9,1.6-0.9c1.5,0.1,2.9,0.2,4.4-0.3c0.9-0.3,1.1,0.3,1.3,1c1,3.7,2.1,7.3,3,11c0.7,3-0.8,4.8-3.9,4.8
				C190.2,229.9,189.2,229.9,187.9,229.9z"/>
			<path fill="#DC8B18" d="M139.9,115.4c-7.6-0.1-11.7-4.9-14.3-10.4c-0.7-1.4,0.3-2.6,2-2.6c1.1,0,1.9,0.5,2.6,1.4
				c3.5,4.7,8.3,6,13.8,5.3c1.4-0.2,2.8-0.3,4.1,0.1c1.2,0.4,1.7,0.8,0.6,1.9C146.1,113.9,142.9,115.1,139.9,115.4z"/>
			<path fill="#DD8B18" d="M187.9,202.3c2.1,0.1,4.4,0.5,6.2,2.3c1.6,1.6,1.7,3.6,0.1,5.2c-3,3.3-10.1,3.3-13.2,0
				c-1.5-1.6-1.5-3.7,0.2-5.3C183,202.8,185.3,202.3,187.9,202.3z"/>
			<path fill="#DB8A18" d="M176.4,72.8c-7.2,2.8-13.4,6.1-19.2,10.2c-1.1,0.8-2.2,1.5-3.2,2.4c-0.7,0.6-1.1,0.6-1.9,0.1
				c-2.1-1.4-2.1-1.4-0.2-3.1c5.2-4.6,11.3-7.8,17.9-10.2C171.9,71.4,173.8,71.9,176.4,72.8z"/>
			<path fill="#DC8B18" d="M140.3,108.1c-2.5-0.1-5.2-0.9-7.5-3c-0.8-0.7-1-1.3-0.1-2.1c1-0.9,1.8-2,2.1-3.3c0.5-2,1.6-2.1,3.2-1.6
				c1,0.3,2.1,0.6,3.2,0.9c3.1,1.1,3.1,1.1,2.4,4.1c-0.2,0.7-0.2,1.5-0.1,2.2C143.9,108.1,144.1,108.1,140.3,108.1z"/>
			<path fill="#DA8917" d="M107.4,85.2c0.8-2.2,2.6-3,4.3-3.4c8.4-2,16.4-0.7,24.3,2.4c0.4,0.1,1.1,0.4,0.6,0.8
				c-0.8,0.6-1.2,2.4-2.7,1.6c-5.8-3.1-12-3-18.3-2.7C112.9,84,110.2,84.5,107.4,85.2z"/>
			<path fill="#8B0810" d="M110.2,220.8c-7-0.8-14.1-1.4-21.1-2.7c-4.2-0.8-8.5-1.4-12.6-2.7c-1.4-0.4-2.8-1-4-1.8
				c-3.4-2.2-3.9-4.4-1.9-7.9c4.1,0,8,1,11.5,3.1c1,0.6,2,0.4,3,0.5c7.5,0.1,14.7,1.4,21.3,5.2c2.9,1.7,5.6,3.7,7.8,6.3
				c-1,0-2,0-3,0C110.8,221,110.5,221,110.2,220.8z"/>
			<path fill="#0D0402" d="M130.2,133.5c0,3.5-2.7,6.1-6.1,6.1c-3.3-0.1-5.9-2.7-5.9-6.1c0-3.4,2.6-6,6-5.9
				C127.7,127.6,130.2,130.1,130.2,133.5z"/>
			<path fill="#110A04" d="M205.6,188.9c0.7,0,1.1,0,1.4,0c0.4,0,0.8,0.1,0.7,0.6c0,0.2-0.4,0.4-0.6,0.5c-0.4,0.1-0.9,0-1.3,0.1
				c-3.8,0.3-3.9,0.5-4.3,4.2c-0.2,1.7-1,3-2.1,4.2c-0.3,0.3-0.6,0.8-1.1,0.4c-0.5-0.4-0.1-0.8,0.2-1.1c1-1.3,1.8-2.6,1.9-4.3
				c0-0.5,0.2-1.2-0.4-1.3c-0.3-0.1-0.8,0.2-1.1,0.5c-1.4,1-2.7,2.2-3.7,3.7c-0.3,0.4-0.7,1-1.2,0.6c-0.6-0.4,0-0.9,0.2-1.3
				C197.1,191.6,200.9,189.2,205.6,188.9z"/>
			<path fill="#50090E" d="M110.2,220.8c0.3,0,0.6,0,0.9,0c0.1,0.4,0.3,0.8,0.4,1.2c0.7,4.9-1.7,8.2-5.4,11
				c-0.9,0.7-1.9,1.2-2.7,1.9c-2.1,1.7-2,3.3,0.2,5c0.9,0.7,2.3,0.6,2.6,2c-1.2-0.1-1.1,1.1-1.7,1.7c0-1-0.6-1.5-1.4-2
				c-4.3-2.8-4.3-6,0.2-8.7c2.5-1.5,4.7-3.3,5.9-5.9c0.8-1.7,1.3-3.4,0.5-5.2C110.1,221.5,110.2,221.2,110.2,220.8z"/>
			<path d="M79,134c-0.3,0-0.6,0-0.9,0c-0.4-0.8-1-2.2-0.2-2.3C78.9,131.5,78.7,133.1,79,134z"/>
			<path fill="#8B0810" d="M106.3,241.9c-1.1-0.6-2.4-1.1-3.4-1.9c-2.3-1.8-2.2-3.8,0.2-5.5c1.6-1.1,3.3-2.1,4.7-3.5
				c2.2-2.1,3.5-4.4,3.3-7.5c0-0.5,0-1,0.4-1.4c1.7,0,3.4-0.2,4.2,1.9c0.9,2.3,0.8,4.5-0.8,6.4c-1.2,1.4-2.6,2.8-4.1,3.9
				c-1.2,0.9-0.8,1.4,0.3,1.7c2.1,0.7,4.2,1.2,6.3,1.9C115.5,242,110.9,243.7,106.3,241.9z"/>
			<path fill="#020602" d="M159.6,158c2.3,0,4.2,1.7,4.2,4.1c0,2.3-1.7,4.2-4.1,4.2c-2.4,0-4.2-1.7-4.3-4
				C155.4,159.9,157.1,158.1,159.6,158z"/>
			<path fill="#020802" d="M94.6,149.5c0.1,2.2-1.6,3.9-3.8,4c-2.3,0-3.9-1.5-4-3.8c-0.1-2.3,1.5-3.9,3.8-4
				C92.8,145.7,94.5,147.3,94.6,149.5z"/>
			<path fill="#5987C8" d="M93.9,135.4c4.3-0.2,8.5-0.2,12.6,1.3c7.3,2.6,9.6,6.7,7.9,14.6c-1.5-1.6-2.9-3.2-4.4-4.7
				c-4.1-4-8.9-7.1-14-9.8C95.3,136.4,94.4,136.2,93.9,135.4C94,135.3,93.9,135.4,93.9,135.4z"/>
			<path fill="#360505" d="M119.5,133.5c0-2.7,2.1-4.8,4.7-4.7c2.6,0,4.9,2.2,4.9,4.6c0,2.5-2.6,5.1-5.1,5
				C121.5,138.3,119.4,136.1,119.5,133.5z"/>
		</g>
	</g>
</g>
<g id="Calque_3">
	<path fill="#F0F1F2" d="M146.3,10.4C73.8,10.4,15,69.2,15,141.7S73.8,273,146.3,273s131.3-58.8,131.3-131.3S218.8,10.4,146.3,10.4z
		 M146.3,262.7c-66.8,0-121-54.2-121-121s54.2-121,121-121s121,54.2,121,121S213.2,262.7,146.3,262.7z"/>
</g>
</svg>
