<?xml version="1.0" encoding="utf-8"?>
<!-- Generator: Adobe Illustrator 17.1.0, SVG Export Plug-In . SVG Version: 6.00 Build 0)  -->
<!DOCTYPE svg PUBLIC "-//W3C//DTD SVG 1.0//EN" "http://www.w3.org/TR/2001/REC-SVG-20010904/DTD/svg10.dtd" [
	<!ENTITY ns_extend "http://ns.adobe.com/Extensibility/1.0/">
	<!ENTITY ns_ai "http://ns.adobe.com/AdobeIllustrator/10.0/">
	<!ENTITY ns_graphs "http://ns.adobe.com/Graphs/1.0/">
	<!ENTITY ns_vars "http://ns.adobe.com/Variables/1.0/">
	<!ENTITY ns_imrep "http://ns.adobe.com/ImageReplacement/1.0/">
	<!ENTITY ns_sfw "http://ns.adobe.com/SaveForWeb/1.0/">
	<!ENTITY ns_custom "http://ns.adobe.com/GenericCustomNamespace/1.0/">
	<!ENTITY ns_adobe_xpath "http://ns.adobe.com/XPath/1.0/">
]>
<svg version="1.0" xmlns:x="&ns_extend;" xmlns:i="&ns_ai;" xmlns:graph="&ns_graphs;"
	 xmlns="http://www.w3.org/2000/svg" xmlns:xlink="http://www.w3.org/1999/xlink" x="0px" y="0px" viewBox="0 0 283.5 283.5"
	 enable-background="new 0 0 283.5 283.5" xml:space="preserve">
<metadata>
	<sfw  xmlns="&ns_sfw;">
		<slices></slices>
		<sliceSourceBounds  width="262.6" height="262.6" x="15" y="10.4" bottomLeftOrigin="true"></sliceSourceBounds>
	</sfw>
</metadata>
<g id="Calque_2">
	<circle fill="#54A2F7" cx="146.3" cy="141.8" r="121"/>
</g>
<g id="Calque_4">
	<g id="rtDmDW.tif">
		<g>
			<path fill="#545555" d="M169.9,61c0,0.1,0,0.3,0,0.4c-0.3,0.1,0.1,0.1-0.2,0.1c-4.5,0.9-8.9,0.7-13.4,0.1c-0.1,0-0.2-0.2-0.3-0.3
				c0-0.1,0.1-0.2,0.1-0.4C160.8,61,165.3,61,169.9,61z"/>
			<path fill="#1C190F" d="M192.3,231c2.4,8.4,4.8,16.7,7.2,25c0.6,0.1,0.7-0.4,0.9-0.8c-0.3-3.2-1.4-6.1-2.4-9.1
				c0.5,0,1,0.4,1.5,0.7c1.1,0.6,2.2,1.2,3.2,2c2.6,2,4.8,4.2,6.8,6.5c0.6-0.2,1.1-0.5,1.6-0.7c-2.2-2.7-4.7-5.1-7.8-6.9
				c-5.5-3.2-8-7.3-9-13.1c0-0.1,0-0.1-0.1-0.2c-0.4-3.9-2.4-6.3-6.3-7.2c-1.3-0.3-1.6-0.8-0.5-2c3.9-4.1,7.1-8.8,9.6-13.9
				c1.9-3.8,1.7-7.5-1.2-10.4c-2.4-2.4-3.6-4.6-2.2-7.9c0.7-1.6-0.8-4,0.6-4.9c1.2-0.9,3.4-0.4,5.2-0.7c6.1-0.9,12.1-2.3,17.2-6.1
				c4.8-3.7,6.1-8.6,3.5-14c-1.4-2.9-3.5-5.3-5.7-7.6c-3.4-3.6-7.4-6.7-11.3-9.6c0.2-0.7,0.8-0.8,1.3-0.9c8.2-3.5,12-18.9,3.5-24.7
				c-0.8-0.6-0.8-1.1-0.5-2.1c0.9-2.3,1-4.8,0.1-7.1c-1.6-4.1-5-6.4-8.8-8.2c-0.4,0.1-0.6,0.3-0.5,0.8c0.7,1,1.9,1.3,2.9,2
				c3.3,2.5,6,5.2,5.4,9.9c-0.2,2-0.5,2.2-2.3,1.5c-1-0.4-1.9-0.8-2.9-1.1c-6.1-1.8-11.9-1.1-16.5,3.4c-4.7,4.6-6.6,10.2-4.4,16.7
				c0.4,1.3,0,1.8-1.2,1.9c-1.8,0.2-3.4,0.9-4.9,1.8c-0.6,0.4-1.2,0.8-0.9,1.6c0.4,0.9,1.2,0.4,1.7,0.1c3.2-1.8,6.6-1.9,10.1-1.9
				c3.8,0,7,1.5,9.5,4.4c2.3,2.8,2.3,6.4-0.1,9.1c-1.3,1.4-2.8,2.4-4.4,3.3c-2.9,1.5-6,2.6-9.1,3.5c-0.7,0.2-1.8,0.4-1.4,1.5
				c0.3,0.8,1.3,0.6,2,0.4c4.7-1.2,9.2-2.8,13-5.9c2.3-1.9,4.1-4.2,4-7.3c0-2,0.9-2,2.3-1.9c0.9,0.1,1.7,0.5,2.4,1.1
				c2,1.4,3.9,2.9,5.7,4.5c3.6,3.2,7.1,6.4,9.4,10.8c2.7,5.1,1.5,9.8-3.1,13.2c-3.4,2.5-7.3,3.7-11.4,4.6c-10.9,2.4-21.8,2-32.7,0.7
				c-11.7-1.3-23.2-3.9-34.8-6.4c-3.6-0.8-6.2-2-6.2-6.2c0-0.1-0.1-0.3-0.1-0.4c-0.4-1-0.8-2.4-1.8-2.1c-1.3,0.4-0.5,1.8-0.2,2.7
				c1,3.2,1.4,6.4,0.6,9.8c-1.2,4.9-4.1,8.6-7.7,11.9c-0.9,0.8-2.9,1.7-2,2.9c1.1,1.3,2.3-0.5,3.1-1.4c1.7-1.9,3.4-1.9,5.7-0.9
				c12.7,5.8,26.1,8.3,39.9,8.6c7,0.2,14-0.4,20.9-1.7c1.3-0.2,2.4-0.6,3.2-1.8c0.6-1,1.2-0.8,1.9-0.1c3.1,2.7,4,6.2,2,10.4
				c-3.5,7.6-8.7,14.2-15.5,18.9c-11.5,7.9-24.5,9.9-37.8,6.3c-14.8-3.9-29.1-9.3-42.6-16.5c-4.9-2.6-9.6-5.4-13.4-9.6
				c-0.5-0.6-1.1-1.2-2-1.3c-0.4,0-0.6,0.2-0.7,0.6c0,1,0.7,1.6,1.3,2.2c3.2,3.5,7.2,6.1,11.3,8.4c13.4,7.7,27.8,12.6,42.4,17.3
				c2.8,0.9,2.9,0.8,1.6,3.4c0,0.4,0.2,0.6,0.6,0.6c0.3-0.2,0.6-0.5,0.8-0.7c2-2.1,2-2.1,3.7,0.1c6.6,8.1,13.2,16.2,19.7,24.4
				c1.2,1.5,1.8,1.5,3-0.1c7.5-10.7,15.1-21.4,22.7-32.1C191,232.3,191.4,231.4,192.3,231z"/>
			<path fill="#180F06" d="M198.6,107.1c-0.2,0.1-0.3,0.3-0.5,0.4c-1.9,0.4-2-1-2.3-2.2c-0.8-3.4-2-6.6-3.5-9.7
				c-3-6.1-7.5-10.9-12.3-15.5c-0.7-0.7-1.4-0.9-2.3-0.2c-5.4,4.3-11.4,7.6-17.6,10.4c-13.9,6.3-24.2,16.5-33,28.6
				c-1.9,2.6-3.7,5.3-5.5,8c-0.4,0.6-0.8,1.6-1.8,1.3c-1-0.3-1.1-1.3-1.2-2.2c-0.2-1.6,0-3.2-0.1-5.1c-3.5,7-5.3,14.1-6.3,21.4
				c-0.1,0.8-0.2,1.6-0.4,2.4c-0.2,0.5-0.3,1.2-1.1,1.2c-0.7,0-1-0.6-1.2-1.1c-1.2-3.6-2.3-7.2-2.5-10.4c-0.2,3.5-1,7.7-1.6,11.9
				c-0.2,1.3-0.2,2.6,0.2,3.9c0.6,2.1,0.5,4.2,0.2,6.3c-0.1,0.6-0.4,1.3-1.1,1.2c-0.7-0.1-0.8-0.8-0.8-1.4c0-1.1,0-2.2,0-3.3
				c0-3.2-1.3-5.5-4.2-7c-8.6-4.5-18.7,0-21.2,8.7c-0.8,2.9,0.2,5.4,2,7.5c1.7,2,3.8,3.4,6.1,4.7c2.2,1.3,2.3,2.1,0.4,3.8
				c-9.6,8.3-11.8,19.2-6.4,30.7c0.7,1.4,1.7,2.6,1.7,4.3c-0.1,0.4-0.3,0.6-0.7,0.6c-4.6-7.7-7.1-15.8-4-24.7
				c1.8-5.1,5.1-9.1,9.3-12.7c-1.6-1.1-3.2-2-4.7-3.1c-5.8-4.3-6.9-9.5-3.3-15.3c1.7-2.7,1.7-2.7-0.8-4.8c0-0.5,0.3-0.6,0.7-0.6
				c0.8,0,1.4,0.7,2.4,0.8c0.1-0.9-0.6-1.4-1-2c-5-7.3-9.1-15-11.6-23.5c-0.3-1-1.2-2.5,0.1-2.9c1.3-0.4,1.5,1.3,1.8,2.3
				c2.6,8.3,6.6,15.9,11.6,23c0.4,0.6,0.7,1.3,1.5,1.5c0.4-0.3,0.3-0.7,0.1-1c-4.1-7.9-5.7-16.5-7.1-25.2c-0.3-1.9-0.8-3.8-0.8-5.7
				c0-0.7-0.2-1.9,0.8-2c1-0.1,1,1,1.2,1.8c1.1,7.4,2.3,14.7,4.4,21.9c0.7,2.4,1.7,4.7,2.7,7c0.3,0.7,0.6,1.4,1.3,1.7
				c1.1,0.5,2.1,0.1,2.9-0.5c1-0.7,0.2-1.5-0.1-2.1c-4.5-9.8-7.1-20.1-7.7-30.9c0-0.8-0.2-1.9,0.8-2c1.1-0.1,1,1.1,1.2,1.8
				c0.4,1.9,0.3,3.8,0.6,5.7c1.1,8.4,3.3,16.5,6.8,24.2c0.9,2.1,1,2.1,2.6,2.9c-0.2-1.9-0.8-3.7-1.1-5.4c-1.5-7.1-2.3-14.2-2.7-21.4
				c0-0.4,0-0.9,0-1.3c0.1-0.9-0.3-2.3,0.9-2.3c1,0,1.1,1.4,1.1,2.4c0.1,6.8,1.1,13.5,2.3,20.2c0.4,2,0.8,4,1.4,6
				c0.6,2.1,1.8,3.1,4.1,3.2c-0.1-2.8-0.4-5.5-0.7-8.1c-0.7-6.5-0.2-12.9,0.3-19.4c0.1-1,0-2.8,1.3-2.7c1.5,0.1,0.7,1.8,0.7,2.8
				c-0.7,8.7-0.8,17.3,0.4,26c0.2,1.3,0.1,3.5,1.6,3.5c1.3,0,0.9-2.2,1.1-3.4c1.3-8,2.5-16,2.4-24.2c-0.1-4.4,1.1-8.7,2.4-13
				c0.1-0.4,0.3-0.8,0.5-1.2c0.3-0.4,0.6-0.9,1.2-0.8c0.7,0.2,0.7,0.9,0.6,1.5c0,0.4-0.2,0.7-0.3,1.1c-3.4,11.2-3.4,22.5-0.8,33.8
				c0.1,0.6,0.3,1.3,0.4,1.7c1.4-7.9,3.1-16,7.8-23.1c0.7-1,1.1-2.1,1.4-3.2c1.4-5.2,3.6-10.1,6.2-14.9c0.5-0.8,0.9-2.3,2.1-1.6
				c0.9,0.5,0,1.7-0.4,2.5c-2.8,5.6-5.4,11.3-6.4,17.6c-0.3,2-0.2,4-0.2,6.5c3.5-5.3,6.9-10.1,10.7-14.6
				c7.2-8.4,15.2-15.7,25.5-20.5c5-2.3,9.8-5.1,14.6-7.9c3.6-2.1,6.6-4.9,9.5-7.8c0.4-0.4,0.8-0.9,1.1-1.4c2.3-3.4,1.8-5.5-1.8-7.5
				c-4.2-2.4-8.9-2.4-13.5-2.7c-3.3-0.2-6.6,0-9.9-0.1c-0.6-0.1-1.3-0.1-1.3-1c0.3-0.1,0.5-0.1,0.8-0.2c4.6,0,9.2,0,13.8,0.1
				c4.5,0.1,8.8,0.9,12.5,3.5c0.9,0.7,1.9,1.4,2,2.5c0.3,2,1.8,2.8,3.2,3.8c4.4,3,8.5,6.3,11.9,10.4c6.3,7.6,6.1,15.9-0.4,23.3
				C198.6,105.5,197.1,106,198.6,107.1z"/>
			<path fill="#222222" d="M71.1,241c0.4,0.5,0.7,1,1.2,1.6c0,0,0,0,0,0c3.2,0.5,6.2,2.2,9,4.9c0.8,0.8,1.6,1.6,2.2,2.4
				c0.9,0.5,1.8,0.9,2.8,1.4C83,245.8,77.7,241.6,71.1,241z"/>
			<path fill="#222222" d="M69.7,235.3c0.4,0.3,1.4,0.7,0.9,1.2c-0.7,0.8-1.1,1.7-1.7,2.6c0.2,0.1,0.4,0.3,0.6,0.4
				c0,0,0-0.1,0.1-0.1c1.9-2.8,1.9-2.8,4.7-0.9c10.7,7.4,21.9,14.2,34.1,18.9c6,2.3,12.1,4.1,18.6,4.5c0.9,0.1,2.1,0.6,2.6-0.9
				c2.2-7.4,6.2-13.8,11-19.7c-0.1-0.1-0.3-0.3-0.4-0.4c-1-0.2-1.4,0.7-1.9,1.3c-4.1,4.9-7.2,10.4-9.5,16.4c-0.5,1.4-1.1,2.3-2.9,2
				c-4.4-0.7-8.7-1.6-12.9-2.9c-7.3-2.4-14.2-5.7-20.9-9.5c-7.9-4.5-15.5-9.5-22.7-14.9c-1.1-0.9-1.4-1.7-0.7-3c1-2,2.2-4,3.3-6
				c3.1-5.4,6.8-10.5,11.6-14.7c0.2-0.2,0.3-0.4,0.5-0.6c0-1.5-0.7-2.6-2.1-3.2c-0.2,0.2-0.3,0.3-0.5,0.5c1.1,1.4,0.8,2.4-0.5,3.7
				c-5.4,5.4-9.5,11.7-12.8,18.6C66.3,232.6,66.3,232.6,69.7,235.3z"/>
			<path fill="#231A14" d="M155.3,61.5c0.4,0.5,1,0.3,1.5,0.5c-0.3,0.9-1.1,0.9-1.8,0.9c-12,0.9-23.5,3.8-34.9,7.3
				c-12.3,3.9-24.4,8.5-36.1,13.7C72.5,89,65.2,97.6,63.6,110.3c-1.4,11.4,1.5,21.5,9.9,29.6c1.3,1.3,2.6,2.6,4,3.9
				c0.5,0.4,1.1,0.8,1,1.6c-0.2,0.1-0.3,0.3-0.5,0.4c-7.4-5.4-13.3-12.4-15.1-21.3c-3.2-16,0.7-32.5,19-41
				c19.6-9.1,39.8-16.6,61.1-20.6C147,62.2,151.1,61.5,155.3,61.5z"/>
			<path fill="#292929" d="M191.7,261.6c0.4-0.2,0.9-0.3,1.3-0.5c0,0,0,0,0-0.1c-0.3-0.8-0.9-1.6-0.9-2.6c1.6,0.5,3.2,1.1,4.7,1.4
				c1.5-0.5,3.1-1,4.6-1.6c0-1.2-0.2-2.5-1.5-3.2c-0.1,0.4-0.1,0.8-0.5,1c0.6,2.9,0.4,3.1-2.6,2.4c-4.1-1-8-2.2-9.3-7
				c-0.3-1-0.9-1.9-1.4-2.7c-0.3-0.5-0.4-1.4-1.3-1.5c-0.2,1,0.4,1.5,0.7,2.1C187.8,253.4,189.9,257.4,191.7,261.6z"/>
			<path fill="#FECB00" d="M84.1,209.1c-0.7-1.1-1.4-2.1-2.1-3.2c-1.8-3.6-3.6-7.3-4.4-11.3c-1.8-9.2,1.2-16.8,7.8-23.2
				c2.8-2.7,2.8-2.7-0.5-4.7c-0.4-0.2-0.7-0.5-1.1-0.7c-8.1-5.5-8.3-13.5-0.4-19.3c5.1-3.7,10.7-3.9,16.3-1.3c3.7,1.6,5,4.8,4.8,8.7
				c-0.1,1.1-0.1,2.2,0,3.4c1.2-2.1,1.2-4.4,0.6-6.5c-0.6-2.1-0.6-4-0.2-6.1c0.7-4.1,1.2-8.3,2-12.4c0.9,4.5,1.7,9,3.8,13.3
				c1.6-9.1,3.1-18.2,8.1-26.1c0.1,2.3-0.1,4.5,0.3,6.7c0.1,0.6,0,1.5,0.7,1.6c0.7,0.1,0.8-0.7,1.1-1.2c4.8-7.5,10-14.6,16.2-20.9
				c6-6.1,12.5-11.3,20.3-15c6.5-3.1,12.9-6.5,18.8-10.7c2.7-1.9,2.7-2,5.1,0.3c7.4,7,13.3,15,15.1,25.3c0.2,1,0.9,1.3,1.7,1.5
				c2.3,1.5,4.7,2.7,6.6,4.8c2.5,2.8,3,5.9,2,9.5c-0.3,1.1-0.7,1.3-1.7,0.7c-2.6-1.5-5.4-2.2-8.4-2.5c-12-1-20.4,12-14.8,22.4
				c-3,0.7-6.2,0.7-8.5,3.2c0.5,0.6,0.7,0.3,1,0.1c4.6-2.7,9.6-2.7,14.6-1.8c3.3,0.6,5.6,2.9,7.2,5.7c1.6,2.8,1,6-1.2,8.3
				c-3.2,3.2-7.4,4.7-11.6,6.1c-1.2,0.4-2.3,0.7-3.7,1.5c0.2,0.1,0.4,0.2,0.6,0.2c5.5-1.3,10.8-3.1,15-7c2-1.9,3.1-4.1,2.6-6.9
				c-0.2-1.2,0.3-1.3,1.3-1.4c2-0.3,3.6,0.4,5.2,1.6c4.3,3.4,8.6,6.8,12,11.1c7.1,8.9,4.9,16.8-5.8,20.7c-9.4,3.5-19.1,3.9-29,3.4
				c-16.6-0.7-32.7-4.2-48.7-8.1c-1.8-0.4-2.5-1.3-2.7-3c-0.2-1.8-0.6-3.7-2.1-5.2c4.6,11.7-0.6,20-9.3,27.1
				c1.9-0.4,3.1-1.7,4.2-2.9c1-1.1,1.7-1.3,3.2-0.7c20.1,9.1,41,11.2,62.6,7.7c2.1-0.3,2.5-2,3.5-3.3c4.8,3,6.3,7.7,3.9,12.7
				c-3.5,7.1-8.2,13.4-14.5,18.2c-7.5,5.7-16.1,8.3-25.5,8.7c-7.8,0.3-15.2-1.5-22.5-4c-12.7-4.4-25.3-8.9-37-15.6
				C92,216.1,87.8,213,84.1,209.1z"/>
			<path fill="#FEFEFE" d="M140.3,241c-5,5.3-8.6,11.4-10.9,18.2c-0.6,1.9-1.6,2.1-3.2,1.9c-9.5-1-18.3-4.3-26.8-8.5
				c-10.9-5.4-21.1-12.1-30.9-19.3c-0.9-0.7-1.2-1.2-0.6-2.3c3.6-7.5,7.9-14.5,13.8-20.4c0.5-0.5,0.9-1.5,1.9-0.9
				c3.7,4.5,8.4,7.5,13.4,10.3c11.5,6.5,23.8,11,36.2,15.1c3,1,6.1,2,9.4,3C141.7,239.2,141,240.1,140.3,241z"/>
			<path fill="#FEFEFE" d="M200.5,256.5c0.2,0.9,0.4,1.5,0.4,2c3.1-1,6.1-2.1,9.1-3.3c-1.7-2.1-3.6-4-5.7-5.7
				c-2-1.6-4.2-3.1-6.9-4.2c0.9,3.5,1.8,6.7,2.6,9.9C200.2,255.5,200.4,256,200.5,256.5z"/>
			<path fill="#FEFEFE" d="M192.5,261.3c1.8-0.6,3.6-1.2,5.4-1.8c0,0-0.1,0-0.1,0c-0.9-0.1-1.7-0.4-2.6-0.6c-1.4-0.4-2.8-1-4.5-1.5
				c0.5,1,0.8,1.7,1.1,2.5C192.1,260.3,192.3,260.8,192.5,261.3z"/>
			<path fill="#FEFEFE" d="M180.9,135.1c0-10.5,10.6-17.2,21.1-13.2c6.1,2.3,9.7,6.9,9.8,12.3c0,7.1-3.4,12.5-9.6,14.9
				c-2.9,1.1-4.5,0.7-6.4-1.7c-2.5-3.2-5.8-4.9-9.9-5c-3.1-0.1-3.8-0.5-4.5-3.5C181.2,137.6,181.1,136.4,180.9,135.1z"/>
			<path fill="#FECB00" d="M144.6,238.6c11.1,1.2,21.2,0.7,31.2-4.4c-2.3,4.6-4.2,8.7-5.1,13.2c-0.7,3.3-1.1,6.7-0.4,10.1
				c0.6,3.4-2.2,5-3.6,7.4c-0.3,0.6-0.7,0-1-0.3C158.8,256.1,151.9,247.6,144.6,238.6z"/>
			<path fill="#FEFEFE" d="M155.8,202c-5.3-0.7-10.4-1.8-15.4-3.2c-1-0.3-1-0.8-0.9-1.6c0.9-4.5,1.8-8.9,2.6-13.4
				c0.2-1.1,0.6-1.4,1.8-1.1c4.7,1,9.5,2,14.3,2.9c1.1,0.2,1.4,0.5,1.2,1.7c-0.8,4.6-1.6,9.1-2.3,13.7
				C157,201.8,156.7,202.2,155.8,202z"/>
			<path fill="#FEFEFE" d="M166.9,202.9c-2.5-0.2-5-0.4-7.5-0.6c-1.2-0.1-1.7-0.4-1.4-1.7c0.8-4.5,1.5-9,2.2-13.5
				c0.2-1.1,0.7-1.2,1.6-1.1c4.7,0.7,9.3,1.4,14,1.7c1.3,0.1,1.6,0.5,1.4,1.8c-0.7,3.8-1.2,7.6-1.7,11.4c-0.2,1.3-0.5,2-2,1.9
				c-2.2-0.1-4.4,0-6.6,0C166.9,202.8,166.9,202.8,166.9,202.9z"/>
			<path fill="#FEFEFE" d="M171.3,258.5c-1.4-9.3,1.5-17,5.7-24.5c0.4-0.6,1-0.9,1.5-1.2c2-1.1,3.9-2.4,5.5-4.1
				c1.3-1.5,2.5-1.5,4.2-0.6c3.6,1.8,3.7,1.7,1.4,4.9c-5.6,7.9-11.2,15.7-16.7,23.5C172.4,257.1,172,257.6,171.3,258.5z"/>
			<path fill="#FEFEFE" d="M185.7,188.1c1.8,0,3.7,0.1,5.5,0c1.4-0.1,1.9,0.4,1.8,1.7c-0.1,1.1,0,2.2-0.1,3.3
				c-0.3,2.4-1,4.6-2.2,6.6c-1.4,2.4-4,1.6-6.2,2c-2.3,0.5-4.7,0.6-7,0.8c-0.9,0.1-1.3,0-1.2-1.1c0.7-4,1.3-8,1.8-12
				c0.2-1.2,0.7-1.6,1.8-1.4c1.9,0.2,3.8,0.2,5.7,0.4C185.7,188.2,185.7,188.2,185.7,188.1z"/>
			<path fill="#FEFEFE" d="M141.4,183.1c-0.9,4.6-1.8,9.2-2.7,13.9c-0.2,0.9-0.5,1.2-1.5,0.9c-3.8-1.2-7.5-2.7-11.1-4.2
				c-1.1-0.5-1.1-0.8-0.4-1.7c2.7-3.3,4.4-7.1,4.7-11.4c0.1-1,0.5-1,1.2-0.8c2.9,0.7,5.8,1.5,8.8,2.2
				C141.2,182,141.8,182.2,141.4,183.1z"/>
			<path fill="#E58448" d="M78.4,145.4c-5.5-4.6-10.2-9.7-13.1-16.4c-5.2-11.7-3.7-33.1,13.4-43c6.7-3.9,14-6.5,21.2-9.4
				c13.9-5.5,28.1-10.2,42.8-12.8c4.7-0.8,9.4-1.3,14.2-2c6-0.1,12.1-0.2,18.1,0.8c2.2,0.4,4.3,1.2,6.2,2.3c3.4,2,4.1,4.6,1.7,7.7
				c-2.5,3.2-5.4,6.1-8.8,8.3c-5.1,3.3-10.3,6.3-15.8,8.8c-10.6,4.8-19,12.3-26.4,21c-4.2,4.9-7.8,10.1-11.6,16
				c-1.2-10.9,3.4-19.7,7.8-28.6c-1.1,0-1.2,0.6-1.4,1c-0.9,1.7-2,3.3-2.6,5.1c-3.4,10.8-10.1,20.2-12.2,31.5
				c-0.4,2.2-0.8,4.5-1.4,6.7c-4.1-13.1-3.9-26.3,0.4-39.6c-1.3,0.4-1.3,1.3-1.5,1.9c-1.6,5.2-2.8,10.6-2.7,16.1
				c0.2,7.8-1.4,15.4-2.5,23c-0.2,1.1,0.1,2.2-0.6,3.1c-2.4-0.9-2.8-2.9-3.1-5.1c-1-9.1-1.1-18.2-0.1-27.3c0-0.4,0.2-0.9-0.6-1.4
				c-0.9,5.3-1,10.4-1,15.5c0,5.2,0.6,10.4,1.1,15.7c-1.1-0.3-2.1-0.7-3.1-0.9c-1.2-0.2-1.7-0.9-2-2c-2-6.6-2.9-13.4-3.6-20.2
				c-0.3-3.3-0.5-6.5-0.8-10.3c-1.3,3.3,0.1,14.9,3.7,31.6c-1.7,0.7-2.6,0-3.3-1.7c-4.5-9.6-7.2-19.7-8-30.4c-0.1-1-0.2-2.1-0.6-3.1
				c-0.7,1.9-0.3,3.7-0.1,5.5c1.1,9.8,3.6,19.2,7.9,28.1c0.7,1.4,0.5,1.7-1,2.1c-3.5,0.8-3.5,0.9-5-2.4c-3.6-8-5.1-16.6-6.5-25.1
				c-0.3-1.7-0.1-3.6-1.3-5.8c-0.3,3.4,0.4,6,0.9,8.7c1.2,7.1,2.6,14.2,5.3,20.9c0.5,1.3,1.2,2.5,1.8,3.8c0.3,0.6,1.2,1.2,0,1.9
				c-1.1,0.7-1.4-0.1-1.9-0.7c-5.5-7.7-10-16-12.7-25.1c-0.2-0.6-0.3-1.1-0.6-1.7c0-0.1-0.2-0.1-0.4-0.2c-0.5,0.7,0,1.4,0.2,2
				c2.6,9,6.9,17.2,12.3,24.8c0.5,0.7,1.9,1.3,0.9,2.3c-1.1,1.2-1.7-0.4-2.6-0.7C79,145.9,78.7,145.6,78.4,145.4z"/>
			<path fill="#E58448" d="M197.3,105.4c-0.9-4.3-2.4-8.4-4.6-12.2c-3.2-5.5-7.3-10.2-12-14.3c-1.2-1.1-1.2-1.7,0-2.7
				c1.6-1.3,3-2.9,3.7-4.9c0.4-1,0.8-0.8,1.5-0.4c5.6,3.8,11,7.8,14.6,13.6C205.1,91.7,203.9,99.7,197.3,105.4z"/>
			<path fill="#FEFEFE" d="M72.3,242.6c2.3,3.2,6.4,5,9.8,6.6c0.9,0.4,1.8,0.9,2.7,1.3c-3.3-4.9-7.8-8-12.9-8.6
				C72,242.2,72.1,242.4,72.3,242.6z"/>
			<path fill="#1C190C" d="M144.8,156.1c-4.6,0-9.7-2.6-13.8-7.1c-4.3-4.7-4.4-12.7-0.4-18.7c6.8-10.2,21.2-11.7,30-3
				c5.8,5.8,6.2,15.7,0.7,21.9C157.4,153.7,152.5,156.1,144.8,156.1z"/>
			<path fill="#261E00" d="M98.6,154.7c-1.2-1.1-1.9-2.6-3.2-3.4c-1.6-0.9-2.6-0.8-3.5,1c-1.2,2.5-0.6,5,0.1,7.6
				c-2.2-1.6-2.3-4.9-0.5-9c-2.3-0.2-3.8,1.6-5.9,2.1c1.6-2.3,5.8-3.8,8.4-3.2C96.3,150.4,98.3,152.4,98.6,154.7z"/>
			<path fill="#040404" d="M205,133.8c-0.1,2.1-1.3,3.2-3.4,3.1c-1.6-0.1-2.8-1.6-2.8-3.6c0-1.8,1.4-3,3.1-2.9
				C204,130.5,205.1,131.7,205,133.8z"/>
			<path fill="#FEFEFE" d="M146.5,155.2c-6.1-0.1-11.1-2.6-15.1-7.1c-3.6-4-3.7-10.6-0.8-16c6.2-11.4,22.2-12.9,30.5-2.8
				c4.2,5.1,4.3,13.2,0.3,18.5C157.9,152.4,152.3,155.2,146.5,155.2z"/>
			<path fill="#030303" d="M151.6,137.3c0,2.1-1.1,3.3-3.2,3.3c-1.8,0.1-3.1-1.4-3.1-3.5c0-1.7,1.2-3,2.8-3
				C150.2,134.1,151.6,135.4,151.6,137.3z"/>
		</g>
	</g>
</g>
<g id="Calque_3">
	<path fill="#F0F1F2" d="M146.3,10.4C73.8,10.4,15,69.2,15,141.7S73.8,273,146.3,273s131.3-58.8,131.3-131.3S218.8,10.4,146.3,10.4z
		 M146.3,262.7c-66.8,0-121-54.2-121-121s54.2-121,121-121s121,54.2,121,121S213.2,262.7,146.3,262.7z"/>
</g>
</svg>
