<?xml version="1.0" encoding="utf-8"?>
<!-- Generator: Adobe Illustrator 17.1.0, SVG Export Plug-In . SVG Version: 6.00 Build 0)  -->
<!DOCTYPE svg PUBLIC "-//W3C//DTD SVG 1.0//EN" "http://www.w3.org/TR/2001/REC-SVG-20010904/DTD/svg10.dtd" [
	<!ENTITY ns_extend "http://ns.adobe.com/Extensibility/1.0/">
	<!ENTITY ns_ai "http://ns.adobe.com/AdobeIllustrator/10.0/">
	<!ENTITY ns_graphs "http://ns.adobe.com/Graphs/1.0/">
	<!ENTITY ns_vars "http://ns.adobe.com/Variables/1.0/">
	<!ENTITY ns_imrep "http://ns.adobe.com/ImageReplacement/1.0/">
	<!ENTITY ns_sfw "http://ns.adobe.com/SaveForWeb/1.0/">
	<!ENTITY ns_custom "http://ns.adobe.com/GenericCustomNamespace/1.0/">
	<!ENTITY ns_adobe_xpath "http://ns.adobe.com/XPath/1.0/">
]>
<svg version="1.0" xmlns:x="&ns_extend;" xmlns:i="&ns_ai;" xmlns:graph="&ns_graphs;"
	 xmlns="http://www.w3.org/2000/svg" xmlns:xlink="http://www.w3.org/1999/xlink" x="0px" y="0px" viewBox="0 0 402 400.5"
	 enable-background="new 0 0 402 400.5" xml:space="preserve">
<metadata>
	<sfw  xmlns="&ns_sfw;">
		<slices></slices>
		<sliceSourceBounds  width="382.3" height="834.3" x="95.8" y="99.1" bottomLeftOrigin="true"></sliceSourceBounds>
	</sfw>
</metadata>
<g id="Calque_3_-_copie">
	<circle fill="#FF9B48" cx="200.3" cy="198.4" r="165.6"/>
</g>
<g id="Calque_4" display="none">
	<path display="inline" fill="none" stroke="#000000" stroke-width="3" stroke-linecap="round" stroke-linejoin="round" d="
		M333.6,68.7c0,0-7,12.6,3.8,27c9.6,12.8,8.3,16.2,7.6,21.6c-13.9,26.2-31.7,15.9-31.7,37.6c0,21.6,35.5,3.4,32.9,27.3
		c-2.5,23.9-46.5,58.4-46.9,69.5c-0.9,27.3,34.7,33.3,34.2,54.8c-1,35.5-20.5,14.2-20.5,14.2s24.6,30,26-14.8
		c0.3-10.6-29.5-26.9-32-36c0,0-7.6-17.1,12.7-31.9c20.3-14.8,34.2-25.1,32.9-37.6c-1.3-12.5-20.3-13.7-20.3-13.7
		s-21.5-6.8-20.3-15.9s12.7-15.9,12.7-15.9s10.1-8,13.9-19.4c3.8-11.4-11.4-27.3-11.4-27.3c-4.9-7.8-3.6-12.6,1.3-26.2"/>
	<g display="inline">
		<path fill="#FFFF00" d="M254.9-175.1c-53.5,0-96.9,13.7-96.9,30.7s43.4,30.7,96.9,30.7c53.5,0,96.9-13.7,96.9-30.7
			S308.4-175.1,254.9-175.1L254.9-175.1z M257.2-123.9c-43.8,0-79.2-9.1-79.2-20.3c0-11.2,35.5-20.3,79.2-20.3
			c43.8,0,79.2,9.1,79.2,20.3C336.4-133,301-123.9,257.2-123.9"/>
		<g>
			<defs>
				<rect id="SVGID_1_" x="131" y="-176.6" width="245.4" height="734"/>
			</defs>
			<clipPath id="SVGID_2_">
				<use xlink:href="#SVGID_1_"  overflow="visible"/>
			</clipPath>
			
				<path clip-path="url(#SVGID_2_)" fill="none" stroke="#000000" stroke-width="3" stroke-linecap="round" stroke-linejoin="round" d="
				M254.9-175.1c-53.5,0-96.9,13.7-96.9,30.7s43.4,30.7,96.9,30.7c53.5,0,96.9-13.7,96.9-30.7S308.4-175.1,254.9-175.1L254.9-175.1z
				 M257.2-123.9c-43.8,0-79.2-9.1-79.2-20.3c0-11.2,35.5-20.3,79.2-20.3c43.8,0,79.2,9.1,79.2,20.3
				C336.4-133,301-123.9,257.2-123.9L257.2-123.9z"/>
		</g>
		<path fill="#F781BF" d="M269.5,504.5c0,0-12,10.4,0,37.7l4.4-0.5c0,0-2.2-12.6-0.5-15.3l14.7,16.9c0,0,19.7,9.3,38.8,0.5
			c0,0-0.5-9.8-18-15.3c0,0,2.2,7.1-14.7,1.1C277.1,523.6,269.5,504.5,269.5,504.5"/>
		<g>
			<defs>
				<rect id="SVGID_3_" x="131" y="-176.6" width="245.4" height="734"/>
			</defs>
			<clipPath id="SVGID_4_">
				<use xlink:href="#SVGID_3_"  overflow="visible"/>
			</clipPath>
			
				<path clip-path="url(#SVGID_4_)" fill="none" stroke="#000000" stroke-width="3" stroke-linecap="round" stroke-linejoin="round" d="
				M269.5,504.5c0,0-12,10.4,0,37.7l4.4-0.5c0,0-2.2-12.6-0.5-15.3l14.7,16.9c0,0,19.7,9.3,38.8,0.5c0,0-0.5-9.8-18-15.3
				c0,0,2.2,7.1-14.7,1.1C277.1,523.6,269.5,504.5,269.5,504.5L269.5,504.5z"/>
		</g>
		<path fill="#F0027F" d="M303.4,242.5c-14,9.1-20.3,8.1-42.7,8.6c-18.3,0.4-33.8-10.6-39.3-15.1c-6.5,5.3-29.5,27.4-30,75.1
			c0,0,3.8,86.3-14.7,109.8c0,0,10.4,22.9,69.3,27.3c59,4.4,68.2-11.5,68.2-11.5s-5.5-78.1,0-97.2
			C319.4,321.6,313.3,259,303.4,242.5"/>
		<path fill="none" stroke="#000000" stroke-width="3" stroke-linecap="round" stroke-linejoin="round" d="M303.4,242.5
			c-14,9.1-20.3,8.1-42.7,8.6c-18.3,0.4-33.8-10.6-39.3-15.1c-6.5,5.3-29.5,27.4-30,75.1c0,0,3.8,86.3-14.7,109.8
			c0,0,10.4,22.9,69.3,27.3c59,4.4,68.2-11.5,68.2-11.5s-5.5-78.1,0-97.2C319.4,321.6,313.3,259,303.4,242.5L303.4,242.5z"/>
		<path fill="#FFCC00" d="M227.4,495.8c0,0-2.2-25.1-0.5-30.6c1.2-3.9,2.9-12.7,3.4-18.7c-16.8-2.5-28.5-6.7-36.5-11
			c-0.4,10.5,0.7,31.7,5.9,44.9c4,10.2-0.1,29.2-1.6,33.4c3.1,5.8,10.5,17.3,22.9,21.7c16.9,6,14.7-1.1,14.7-1.1
			c0.4,0.1,0.8,0.3,1.2,0.4L227.4,495.8"/>
		<path fill="none" stroke="#000000" stroke-width="3" stroke-linecap="round" stroke-linejoin="round" d="M227.4,495.8
			c0,0-2.2-25.1-0.5-30.6c1.2-3.9,2.9-12.7,3.4-18.7c-16.8-2.5-28.5-6.7-36.5-11c-0.4,10.5,0.7,31.7,5.9,44.9
			c4,10.2-0.1,29.2-1.6,33.4c3.1,5.8,10.5,17.3,22.9,21.7c16.9,6,14.7-1.1,14.7-1.1c0.4,0.1,0.8,0.3,1.2,0.4L227.4,495.8
			L227.4,495.8z"/>
		<g>
			<defs>
				<rect id="SVGID_5_" x="131" y="-176.6" width="245.4" height="734"/>
			</defs>
			<clipPath id="SVGID_6_">
				<use xlink:href="#SVGID_5_"  overflow="visible"/>
			</clipPath>
			<path clip-path="url(#SVGID_6_)" fill="#F781BF" d="M196.3,510.5c0,0-13.6,12.6,2.7,39.3l4.4-0.5c0,0-4.9-14.2-3.3-16.9
				l14.7,16.9c0,0,19.1,12.4,38.2,3.6c0,0,0-12.9-17.5-18.4c0,0,2.2,7.1-14.7,1.1S196.3,510.5,196.3,510.5"/>
			
				<path clip-path="url(#SVGID_6_)" fill="none" stroke="#000000" stroke-width="3" stroke-linecap="round" stroke-linejoin="round" d="
				M196.3,510.5c0,0-13.6,12.6,2.7,39.3l4.4-0.5c0,0-4.9-14.2-3.3-16.9l14.7,16.9c0,0,19.1,12.4,38.2,3.6c0,0,0-12.9-17.5-18.4
				c0,0,2.2,7.1-14.7,1.1S196.3,510.5,196.3,510.5L196.3,510.5z"/>
		</g>
		<path fill="#FFCC00" d="M299,501.8c0,0-4.9-23.5-3.3-28.9c1.2-4.1,3.1-19.2,3.5-27.7c-7.9,2.3-19.8,4.1-37.3,3.8
			c0.4,8.7,2.6,24.8,7.6,37.5c4,10.2,3.1,17.2,1.6,21.4c3.1,5.8,10.5,17.3,22.9,21.7c16.9,6,14.7-1.1,14.7-1.1
			c0.4,0.1,0.8,0.3,1.2,0.4L299,501.8"/>
		<path fill="none" stroke="#000000" stroke-width="3" stroke-linecap="round" stroke-linejoin="round" d="M299,501.8
			c0,0-4.9-23.5-3.3-28.9c1.2-4.1,3.1-19.2,3.5-27.7c-7.9,2.3-19.8,4.1-37.3,3.8c0.4,8.7,2.6,24.8,7.6,37.5
			c4,10.2,3.1,17.2,1.6,21.4c3.1,5.8,10.5,17.3,22.9,21.7c16.9,6,14.7-1.1,14.7-1.1c0.4,0.1,0.8,0.3,1.2,0.4L299,501.8L299,501.8z"
			/>
		<path fill="#FFFFFF" d="M219.2,234.2c0,0,18.6,17.5,41.5,16.9c22.9-0.5,28.9,0.5,43.7-9.3c0,0,4.4-6.6-6-6.6c0,0-9.3,6.6-36.6,7.1
			c-27.3,0.5-33.9-14.7-33.9-14.7S217.6,225.5,219.2,234.2"/>
		<path fill="none" stroke="#000000" stroke-width="3" stroke-linecap="round" stroke-linejoin="round" d="M219.2,234.2
			c0,0,18.6,17.5,41.5,16.9c22.9-0.5,28.9,0.5,43.7-9.3c0,0,4.4-6.6-6-6.6c0,0-9.3,6.6-36.6,7.1c-27.3,0.5-33.9-14.7-33.9-14.7
			S217.6,225.5,219.2,234.2L219.2,234.2z"/>
		<path fill="#F781BF" d="M291.8,108.9l-7.5-0.8c12.4,37.7-0.6,64.1-0.6,64.1c-8.9-24.5-21.8-50.4-30.8-67.4l-10.8-1.1
			c6,10.7,26.8,48.5,39.6,83.6C281.7,187.4,307.7,149.4,291.8,108.9"/>
		<path fill="none" stroke="#000000" stroke-width="3" stroke-linecap="round" stroke-linejoin="round" d="M291.8,108.9l-7.5-0.8
			c12.4,37.7-0.6,64.1-0.6,64.1c-8.9-24.5-21.8-50.4-30.8-67.4l-10.8-1.1c6,10.7,26.8,48.5,39.6,83.6
			C281.7,187.4,307.7,149.4,291.8,108.9L291.8,108.9z"/>
		<path fill="#F781BF" d="M320.3,164.3c0,0-15.8-56.8-26.2-55.1l-2.3-0.2c15.9,40.5-10.1,78.4-10.1,78.4c-12.4-34-33-71.9-39.6-83.6
			l-1-0.1c0,0-13.7,4.4-20.7,14.2c0,0,29.5-7.1,19.1,31.1c0,0-13.6,30.2-14.1,40c0,0,8.1,16.8-0.1,38.1l0,0.3c1.5,0,2.8,0.2,2.8,0.2
			s6.6,15.3,33.9,14.7c27.3-0.5,36.6-7.1,36.6-7.1c0.2,0,0.4,0,0.7,0c-1.1-7.5-3.2-28.7,4.8-42.1
			C303.9,193.3,324.1,191.1,320.3,164.3"/>
		<path fill="none" stroke="#000000" stroke-width="3" stroke-linecap="round" stroke-linejoin="round" d="M320.3,164.3
			c0,0-15.8-56.8-26.2-55.1l-2.3-0.2c15.9,40.5-10.1,78.4-10.1,78.4c-12.4-34-33-71.9-39.6-83.6l-1-0.1c0,0-13.7,4.4-20.7,14.2
			c0,0,29.5-7.1,19.1,31.1c0,0-13.6,30.2-14.1,40c0,0,8.1,16.8-0.1,38.1l0,0.3c1.5,0,2.8,0.2,2.8,0.2s6.6,15.3,33.9,14.7
			c27.3-0.5,36.6-7.1,36.6-7.1c0.2,0,0.4,0,0.7,0c-1.1-7.5-3.2-28.7,4.8-42.1C303.9,193.3,324.1,191.1,320.3,164.3L320.3,164.3z"/>
		<path fill="#FFFFFF" d="M284.3,108.2l-6.2-0.6c-7.8,3.5-15.4,1.2-21.4-2.2l-3.8-0.4c9,17,21.8,42.9,30.8,67.4
			C283.7,172.3,296.7,145.8,284.3,108.2"/>
		<path fill="none" stroke="#000000" stroke-width="3" stroke-linecap="round" stroke-linejoin="round" d="M284.3,108.2l-6.2-0.6
			c-7.8,3.5-15.4,1.2-21.4-2.2l-3.8-0.4c9,17,21.8,42.9,30.8,67.4C283.7,172.3,296.7,145.8,284.3,108.2L284.3,108.2z"/>
		<path d="M279.5,123.2c0,1-0.8,1.8-1.8,1.8c-1,0-1.8-0.8-1.8-1.8c0-1,0.8-1.8,1.8-1.8C278.8,121.4,279.5,122.2,279.5,123.2"/>
		<path d="M283.5,137.7c0,1-0.8,1.8-1.8,1.8s-1.8-0.8-1.8-1.8c0-1,0.8-1.8,1.8-1.8S283.5,136.7,283.5,137.7"/>
		<path fill="#FFFFFF" d="M252.1,176.8c0,0-18.9,11.9-26.8,12.3c0.5-9.8,14.1-40,14.1-40c10.4-38.2-19.1-31.1-19.1-31.1
			s-47.3,54.9-27.1,106.7c0,0,11.9,15.4,36.5,1.3c0,0,32.1-16.7,40.4-28.1C270.2,197.8,257.9,199.6,252.1,176.8"/>
		<path fill="none" stroke="#000000" stroke-width="3" stroke-linecap="round" stroke-linejoin="round" d="M252.1,176.8
			c0,0-18.9,11.9-26.8,12.3c0.5-9.8,14.1-40,14.1-40c10.4-38.2-19.1-31.1-19.1-31.1s-47.3,54.9-27.1,106.7c0,0,11.9,15.4,36.5,1.3
			c0,0,32.1-16.7,40.4-28.1C270.2,197.8,257.9,199.6,252.1,176.8L252.1,176.8z M206.9,194.3c0,0,14.9-2.2,18.5-5.3"/>
		<path fill="#FFFFFF" d="M338.7,193.9c-5.3-45.3-29.4-81.7-33-74.7l-1.2,1.7c8.1,16.2,15.7,43.5,15.7,43.5
			c2.1,14.7-3.1,22-8.1,25.6l-8.6-6.5l-0.6,1.5l0-0.1c-1.9,4.6-8.5,16-24.8,9.6c0,0,12.3,33.4,42.2,41.3
			C320.2,235.6,344,239.1,338.7,193.9"/>
		<path fill="none" stroke="#000000" stroke-width="3" stroke-linecap="round" stroke-linejoin="round" d="M338.7,193.9
			c-5.3-45.3-29.4-81.7-33-74.7l-1.2,1.7c8.1,16.2,15.7,43.5,15.7,43.5c2.1,14.7-3.1,22-8.1,25.6l-8.6-6.5l-0.6,1.5l0-0.1
			c-1.9,4.6-8.5,16-24.8,9.6c0,0,12.3,33.4,42.2,41.3C320.2,235.6,344,239.1,338.7,193.9L338.7,193.9z M324.2,197.8l-12.1-8"/>
		<path fill="#FFCC00" d="M278.1,194.3c16.3,6.4,22.9-5,24.8-9.6l0,0.1l0.4-1.1l-1.9-12.3c-3.1-0.8-8.6-2.1-10.9-1.9
			c-3.4,0.3-6.7,4.3-9,10.2c-1.2,3.3-3.6,7.8-6.8,11.7c0.6,1.3,1.9,2.4,3.5,3.3C278.1,194.5,278.1,194.3,278.1,194.3"/>
		<path fill="none" stroke="#000000" stroke-width="3" stroke-linecap="round" stroke-linejoin="round" d="M278.1,194.3
			c16.3,6.4,22.9-5,24.8-9.6l0,0.1l0.4-1.1l-1.9-12.3c-3.1-0.8-8.6-2.1-10.9-1.9c-3.4,0.3-6.7,4.3-9,10.2c-1.2,3.3-3.6,7.8-6.8,11.7
			c0.6,1.3,1.9,2.4,3.5,3.3C278.1,194.5,278.1,194.3,278.1,194.3L278.1,194.3z"/>
		<path fill="#FFCC00" d="M300.3,162.4c3.4-6.7-5.9-7.7-5.9-7.7c-1.8-9.1-11.5-5.3-19.5-5.8s-9.9,5.6-12.3,11
			c-1.8,4-7.3,13.1-10.1,17.8c4.3,15.9,11.8,19.3,15.5,19.9c6.6-4,11.6-12.5,13.6-17.9c2.2-5.9,5.6-9.9,9-10.2
			c3.4-0.3,13.3,2.6,13.3,2.6C309.7,166.6,300.3,162.4,300.3,162.4"/>
		<path fill="none" stroke="#000000" stroke-width="3" stroke-linecap="round" stroke-linejoin="round" d="M300.3,162.4
			c3.4-6.7-5.9-7.7-5.9-7.7c-1.8-9.1-11.5-5.3-19.5-5.8s-9.9,5.6-12.3,11c-1.8,4-7.3,13.1-10.1,17.8c4.3,15.9,11.8,19.3,15.5,19.9
			c6.6-4,11.6-12.5,13.6-17.9c2.2-5.9,5.6-9.9,9-10.2c3.4-0.3,13.3,2.6,13.3,2.6C309.7,166.6,300.3,162.4,300.3,162.4L300.3,162.4z"
			/>
		<line fill="#FFCC00" x1="277.6" y1="153.8" x2="294.4" y2="154.7"/>
		
			<line fill="none" stroke="#000000" stroke-width="3" stroke-linecap="round" stroke-linejoin="round" x1="277.6" y1="153.8" x2="294.4" y2="154.7"/>
		<line fill="#FFCC00" x1="284.3" y1="161" x2="300.3" y2="162.4"/>
		
			<line fill="none" stroke="#000000" stroke-width="3" stroke-linecap="round" stroke-linejoin="round" x1="284.3" y1="161" x2="300.3" y2="162.4"/>
		<path fill="#FFFFFF" d="M148.9,36.9l66.9,86.9c2.8-3.8,4.6-5.9,4.6-5.9s0.9-0.2,2.4-0.4c-9.3-12-63.9-82.1-72.4-91.4
			c0,0-12.3-17.4-17.9,10.8l17.4,168.4l-9.7-165.3C140.2,39.9,142.7,27.7,148.9,36.9"/>
		<g>
			<defs>
				<rect id="SVGID_7_" x="131" y="-176.6" width="245.4" height="734"/>
			</defs>
			<clipPath id="SVGID_8_">
				<use xlink:href="#SVGID_7_"  overflow="visible"/>
			</clipPath>
			
				<path clip-path="url(#SVGID_8_)" fill="none" stroke="#000000" stroke-width="3" stroke-linecap="round" stroke-linejoin="round" d="
				M148.9,36.9l66.9,86.9c2.8-3.8,4.6-5.9,4.6-5.9s0.9-0.2,2.4-0.4c-9.3-12-63.9-82.1-72.4-91.4c0,0-12.3-17.4-17.9,10.8l17.4,168.4
				l-9.7-165.3C140.2,39.9,142.7,27.7,148.9,36.9L148.9,36.9z"/>
		</g>
		<path fill="#FFFFFF" d="M215.8,123.8l-66.9-86.9c-6.1-9.2-8.7,3.1-8.7,3.1l9.1,153.9c0.7,0.4,2.6,1,4.3-1.9c0,0,3.6,15.4,9.7,5.6
			c0,0,2,15.9,7.7,4.1c0,0,3.1,10.2,7.2,2.6c0,0,0.5,12.3,6.1,4.6c0,0,1.5,10.2,5.1,4.1c0.1-0.2,0.2-0.4,0.4-0.7
			C182.2,174.6,205.5,137.7,215.8,123.8"/>
		<path fill="none" stroke="#000000" stroke-width="3" stroke-linecap="round" stroke-linejoin="round" d="M215.8,123.8l-66.9-86.9
			c-6.1-9.2-8.7,3.1-8.7,3.1l9.1,153.9c0.7,0.4,2.6,1,4.3-1.9c0,0,3.6,15.4,9.7,5.6c0,0,2,15.9,7.7,4.1c0,0,3.1,10.2,7.2,2.6
			c0,0,0.5,12.3,6.1,4.6c0,0,1.5,10.2,5.1,4.1c0.1-0.2,0.2-0.4,0.4-0.7C182.2,174.6,205.5,137.7,215.8,123.8L215.8,123.8z M156,77.2
			c0,0,4.7,98-2.5,114.8 M171.8,103.4c0,0-5.4,88.7-8.6,94.2 M180.4,118.3c0,0-6.8,77.5-9.5,83.3 M189.9,133.3c0,0-10,65.1-11.8,71"
			/>
		<g>
			<defs>
				<rect id="SVGID_9_" x="131" y="-176.6" width="245.4" height="734"/>
			</defs>
			<clipPath id="SVGID_10_">
				<use xlink:href="#SVGID_9_"  overflow="visible"/>
			</clipPath>
			<path clip-path="url(#SVGID_10_)" fill="#FFFFFF" d="M374.9,43.1C369.3,15,357,32.4,357,32.4c-6.6,7.4-41.9,52.4-61.2,77.1
				c2,0.8,4.1,3.4,6.3,7l56.4-73.3c6.1-9.2,8.7,3.1,8.7,3.1l-9.7,165.3L374.9,43.1"/>
			
				<path clip-path="url(#SVGID_10_)" fill="none" stroke="#000000" stroke-width="3" stroke-linecap="round" stroke-linejoin="round" d="
				M374.9,43.1C369.3,15,357,32.4,357,32.4c-6.6,7.4-41.9,52.4-61.2,77.1c2,0.8,4.1,3.4,6.3,7l56.4-73.3c6.1-9.2,8.7,3.1,8.7,3.1
				l-9.7,165.3L374.9,43.1L374.9,43.1z"/>
		</g>
		<path fill="#FFFFFF" d="M358.5,43.1l-56.4,73.3c0.8,1.4,1.6,2.9,2.4,4.5c0,0,0,0,0,0l1.2-1.7c3.5-7,27.7,29.4,33,74.7
			c0.8,7.1,0.9,13.1,0.5,18c3.6,2.6,4.9-8,4.9-8c6.1,9.7,9.7-5.6,9.7-5.6c1.7,2.9,3.6,2.3,4.3,1.9l9.1-153.9
			C367.2,46.2,364.7,33.9,358.5,43.1"/>
		<path fill="none" stroke="#000000" stroke-width="3" stroke-linecap="round" stroke-linejoin="round" d="M358.5,43.1l-56.4,73.3
			c0.8,1.4,1.6,2.9,2.4,4.5c0,0,0,0,0,0l1.2-1.7c3.5-7,27.7,29.4,33,74.7c0.8,7.1,0.9,13.1,0.5,18c3.6,2.6,4.9-8,4.9-8
			c6.1,9.7,9.7-5.6,9.7-5.6c1.7,2.9,3.6,2.3,4.3,1.9l9.1-153.9C367.2,46.2,364.7,33.9,358.5,43.1L358.5,43.1z M351.4,83.5
			c0,0-4.7,98,2.5,114.8 M335.6,109.7c0,0,5.4,88.7,8.6,94.2 M327,124.6c0,0,1.3,15.2,3,32.6 M324.2,197.8l-12.1-8"/>
		<path fill="#FC744A" d="M341.3-17.5c3.2-4.5,6.8-22.2-3.6-30.3c-10.4-8.1-9-19.4-19.4-30.8c-10.4-11.3-27.6-4.1-27.6-4.1
			s-4.1-6.3-25.3-9C244-94.4,235.9-79,235.9-79s-9.5-16.3-35.3,1.4C174.8-60,178-39.2,178-39.2s-10,2.3-19.4,19.9
			C149-1.7,168,15.1,168,15.1c-8.6,7.2-26.2,44.3,19.4,61.5c45.7,17.2,53.8-7.2,53.8-7.2s7.2-3.6,7.2-12.2c0,0-7.7,5-11.3,2.7
			c0,0,14.5-8.1,14.5-23.1c0,0-20.8,10-29.9-4.1c-9-14,4.5-37.5,14.5-43c10-5.4,22.2-8.6,28.5-12.7c0,0,5.9,2.7,11.3-0.5
			c0,0,4.5,2.3,10.4-0.9c0,0,5.9,2.7,10,0.5c0,0,5.4,3.6,9,2.7c0,0,10,15.8,4.5,29.9l0.5,13.1c0,0,5.4,11.8-6.3,24.4
			c0,0,12.2,3.6,13.6,10.9c0,0,3.6,4.5-19.9,6.3c0,0-5.1,6.9-8.8,17.1l0.2,0c0,0,22.6,4.1,38.9-11.8c16.3-15.8,13.1-38,13.1-38
			s9-6.3,10.4-22.2C353-7.1,341.3-17.5,341.3-17.5"/>
		<path fill="none" stroke="#000000" stroke-width="3" stroke-linecap="round" stroke-linejoin="round" d="M341.3-17.5
			c3.2-4.5,6.8-22.2-3.6-30.3c-10.4-8.1-9-19.4-19.4-30.8c-10.4-11.3-27.6-4.1-27.6-4.1s-4.1-6.3-25.3-9C244-94.4,235.9-79,235.9-79
			s-9.5-16.3-35.3,1.4C174.8-60,178-39.2,178-39.2s-10,2.3-19.4,19.9C149-1.7,168,15.1,168,15.1c-8.6,7.2-26.2,44.3,19.4,61.5
			c45.7,17.2,53.8-7.2,53.8-7.2s7.2-3.6,7.2-12.2c0,0-7.7,5-11.3,2.7c0,0,14.5-8.1,14.5-23.1c0,0-20.8,10-29.9-4.1
			c-9-14,4.5-37.5,14.5-43c10-5.4,22.2-8.6,28.5-12.7c0,0,5.9,2.7,11.3-0.5c0,0,4.5,2.3,10.4-0.9c0,0,5.9,2.7,10,0.5
			c0,0,5.4,3.6,9,2.7c0,0,10,15.8,4.5,29.9l0.5,13.1c0,0,5.4,11.8-6.3,24.4c0,0,12.2,3.6,13.6,10.9c0,0,3.6,4.5-19.9,6.3
			c0,0-5.1,6.9-8.8,17.1l0.2,0c0,0,22.6,4.1,38.9-11.8c16.3-15.8,13.1-38,13.1-38s9-6.3,10.4-22.2C353-7.1,341.3-17.5,341.3-17.5
			L341.3-17.5z M336.8,23.2l4.5,7.7 M335.8-20.6c1.4,0.5,5.4,3.2,5.4,3.2 M182.5-31.5c-0.5-1.4-4.5-7.7-4.5-7.7 M173.5,20.5
			l-5.4-5.4 M228.7,70.7l12.7-1.4 M268.9-44.2c0,0,0.5,18.1-4.1,21.3 M282-44.2c0,0,2.3,13.6-5.9,20.8 M295.1-44.2
			c0,0,0.5,13.1-8.6,19.9 M306.9-40.6c0,0-4.1,12.2-10.4,16.7 M315.5-48.7c0,0,9,16.3-10,27.6"/>
		<path fill="#FFCC00" d="M304.2,46.3c11.8-12.7,6.3-24.4,6.3-24.4l-0.5-13.1c5.4-14-4.5-29.9-4.5-29.9c-3.6,0.9-9-2.7-9-2.7
			c-4.1,2.3-10-0.5-10-0.5c-5.9,3.2-10.4,0.9-10.4,0.9c-5.4,3.2-11.3,0.5-11.3,0.5c-6.3,4.1-18.5,7.2-28.5,12.7
			c-10,5.4-23.5,28.9-14.5,43c9,14,29.9,4.1,29.9,4.1c0,14.9-14.5,23.1-14.5,23.1c3.6,2.3,11.3-2.7,11.3-2.7
			c0,8.6-7.2,12.2-7.2,12.2c1.3,3.8,3.4,18.1,4.6,26.4c2.1,2.5,21.3,24.6,39.7,5.3c-0.3-12.9,4.7-24.6,8.4-31.3
			c-7.7-0.6-8.4-3.8-7.8-6.2l5.2,0.4l1.1-1.4c5.9-6.3,9.5-6.8,11.8-6.3c2.3,0.5,3.2,3.2,6.3-0.9c1.5-1.9,3.3-2.5,4.8-2.6
			C311.4,48.4,304.2,46.3,304.2,46.3"/>
		<path fill="none" stroke="#000000" stroke-width="3" stroke-linecap="round" stroke-linejoin="round" d="M304.2,46.3
			c11.8-12.7,6.3-24.4,6.3-24.4l-0.5-13.1c5.4-14-4.5-29.9-4.5-29.9c-3.6,0.9-9-2.7-9-2.7c-4.1,2.3-10-0.5-10-0.5
			c-5.9,3.2-10.4,0.9-10.4,0.9c-5.4,3.2-11.3,0.5-11.3,0.5c-6.3,4.1-18.5,7.2-28.5,12.7c-10,5.4-23.5,28.9-14.5,43
			c9,14,29.9,4.1,29.9,4.1c0,14.9-14.5,23.1-14.5,23.1c3.6,2.3,11.3-2.7,11.3-2.7c0,8.6-7.2,12.2-7.2,12.2
			c1.3,3.8,3.4,18.1,4.6,26.4c2.1,2.5,21.3,24.6,39.7,5.3c-0.3-12.9,4.7-24.6,8.4-31.3c-7.7-0.6-8.4-3.8-7.8-6.2l5.2,0.4l1.1-1.4
			c5.9-6.3,9.5-6.8,11.8-6.3c2.3,0.5,3.2,3.2,6.3-0.9c1.5-1.9,3.3-2.5,4.8-2.6C311.4,48.4,304.2,46.3,304.2,46.3L304.2,46.3z"/>
		<path fill="#FFFFFF" d="M245.7,95.6c0,0,20.9,26.5,40.5,4.9l7.8,8.8c0,0-3.1,19.9-18.9,1.5c0,0-2.6,12.5-13.8,7.9
			c0,0-16.9-2.1-22.8-13.9L245.7,95.6"/>
		<path fill="none" stroke="#000000" stroke-width="3" stroke-linecap="round" stroke-linejoin="round" d="M245.7,95.6
			c0,0,20.9,26.5,40.5,4.9l7.8,8.8c0,0-3.1,19.9-18.9,1.5c0,0-2.6,12.5-13.8,7.9c0,0-16.9-2.1-22.8-13.9L245.7,95.6L245.7,95.6z"/>
		<path fill="#F50F5C" d="M291.3,63.9L291.3,63.9l-1,0c-1.4,0-2.8-0.1-4.2-0.2c-0.6,2.4,0.3,5.5,7.9,6.1c2.1-3.9,3.9-6.3,3.9-6.3
			C295.8,63.8,293.6,63.9,291.3,63.9"/>
		<path fill="none" stroke="#000000" stroke-width="3" stroke-linecap="round" stroke-linejoin="round" d="M291.3,63.9L291.3,63.9
			l-1,0c-1.4,0-2.8-0.1-4.2-0.2c-0.6,2.4,0.3,5.5,7.9,6.1c2.1-3.9,3.9-6.3,3.9-6.3C295.8,63.8,293.6,63.9,291.3,63.9L291.3,63.9z"/>
		<path fill="#F50F5C" d="M317.8,57.1c-0.3-1.7-1.2-3.1-2.4-4.4c-1.6,0.1-3.4,0.8-4.8,2.6c-3.2,4.1-4.1,1.4-6.3,0.9
			c-2.3-0.5-5.9,0-11.8,6.3l-1.1,1.3c2.2,0,4.4-0.1,6.5-0.4C321.4,61.7,317.8,57.1,317.8,57.1"/>
		<path fill="none" stroke="#000000" stroke-width="3" stroke-linecap="round" stroke-linejoin="round" d="M317.8,57.1
			c-0.3-1.7-1.2-3.1-2.4-4.4c-1.6,0.1-3.4,0.8-4.8,2.6c-3.2,4.1-4.1,1.4-6.3,0.9c-2.3-0.5-5.9,0-11.8,6.3l-1.1,1.3
			c2.2,0,4.4-0.1,6.5-0.4C321.4,61.7,317.8,57.1,317.8,57.1L317.8,57.1z M260.8,54c0,0-4.5,1.8-3.2,7.2 M270.3-4.4
			c0,0-22.6,1.4-28.9,19c0,0,22.2-16.7,35.3-12.2 M314,12.2c0,0,0.3-11.9-24.9-11c-0.1,1-0.3,3.1-0.4,5.3
			C294,5.7,305.2,4.5,314,12.2L314,12.2z M289.3,0.2c0,0-4.1,19.4,9,38.4l-8.6,2.3l14.5,5.4 M259.9,57.6c0,0,21.7,8.1,38,5.9
			 M297,5.7c0,0,7-4.2,10-11.6 M304.7,6.6c0,0,10.7-4.4,15.4-8.8 M311.9,10.6c0,0,10.5-1.2,17.7-5.6 M255.1-7.8
			c0,0,3.3,10.5,6.5,11.6 M244.9-5.3c0,0,5.4,8.8,10.5,11.6 M234-3.4c0,0,7.2,11.9,14,13.5 M220.7-0.1c0,0,10.9,14.2,21.6,14.2
			 M297.3-4.6c0,0,7,7.7,11.6,9.1"/>
		<path fill="#FFFFFF" d="M274,1.8c-13.2-1.9-32.7,12.8-32.7,12.8s8.9,16.4,32.2,9.4C273.5,24.1,282.8,14.8,274,1.8"/>
		<path fill="none" stroke="#000000" stroke-width="3" stroke-linecap="round" stroke-linejoin="round" d="M274,1.8
			c-13.2-1.9-32.7,12.8-32.7,12.8s8.9,16.4,32.2,9.4C273.5,24.1,282.8,14.8,274,1.8L274,1.8z"/>
		<path d="M258.6,12.7c0,1.4-1.1,2.6-2.6,2.6c-1.4,0-2.6-1.1-2.6-2.6c0-1.4,1.1-2.6,2.6-2.6C257.5,10.1,258.6,11.3,258.6,12.7"/>
		<path fill="#FFFFFF" d="M313.3,11.5c-7.7-7.7-20-5.9-24.6-5c-0.1,4.6,0.4,11.3,2.9,18.7c9.7,2.6,16.3-1.4,19.4-3.7
			C314.5,18.9,313.3,11.5,313.3,11.5"/>
		<path fill="none" stroke="#000000" stroke-width="3" stroke-linecap="round" stroke-linejoin="round" d="M313.3,11.5
			c-7.7-7.7-20-5.9-24.6-5c-0.1,4.6,0.4,11.3,2.9,18.7c9.7,2.6,16.3-1.4,19.4-3.7C314.5,18.9,313.3,11.5,313.3,11.5L313.3,11.5z"/>
		<path d="M303.3,14.8c0,1.4-1.1,2.6-2.6,2.6c-1.4,0-2.6-1.1-2.6-2.6c0-1.4,1.1-2.6,2.6-2.6C302.2,12.2,303.3,13.3,303.3,14.8"/>
	</g>
</g>
<g id="Calque_4_-_copie">
	<g>
		<path fill="#FFFF00" d="M201.3,73.8c-42.7,0-77.3,10.9-77.3,24.4c0,13.5,34.6,24.4,77.3,24.4c42.7,0,77.3-10.9,77.3-24.4
			C278.6,84.7,244,73.8,201.3,73.8L201.3,73.8z M203.1,114.6c-34.9,0-63.2-7.3-63.2-16.2c0-8.9,28.3-16.2,63.2-16.2
			c34.9,0,63.2,7.3,63.2,16.2C266.3,107.3,238,114.6,203.1,114.6"/>
		<g>
			<defs>
				<rect id="SVGID_11_" x="102.5" y="72.6" width="195.6" height="585.1"/>
			</defs>
			<clipPath id="SVGID_12_">
				<use xlink:href="#SVGID_11_"  overflow="visible"/>
			</clipPath>
			
				<path clip-path="url(#SVGID_12_)" fill="none" stroke="#000000" stroke-width="3" stroke-linecap="round" stroke-linejoin="round" d="
				M201.3,73.8c-42.7,0-77.3,10.9-77.3,24.4c0,13.5,34.6,24.4,77.3,24.4c42.7,0,77.3-10.9,77.3-24.4C278.6,84.7,244,73.8,201.3,73.8
				L201.3,73.8z M203.1,114.6c-34.9,0-63.2-7.3-63.2-16.2c0-8.9,28.3-16.2,63.2-16.2c34.9,0,63.2,7.3,63.2,16.2
				C266.3,107.3,238,114.6,203.1,114.6L203.1,114.6z"/>
		</g>
		<g>
			<defs>
				<rect id="SVGID_13_" x="102.5" y="72.6" width="195.6" height="585.1"/>
			</defs>
			<clipPath id="SVGID_14_">
				<use xlink:href="#SVGID_13_"  overflow="visible"/>
			</clipPath>
		</g>
		<g>
			<defs>
				<rect id="SVGID_15_" x="102.5" y="72.6" width="195.6" height="585.1"/>
			</defs>
			<clipPath id="SVGID_16_">
				<use xlink:href="#SVGID_15_"  overflow="visible"/>
			</clipPath>
		</g>
		<path fill="#F781BF" d="M230.7,300.2l-6-0.6c9.9,30-0.5,51.1-0.5,51.1c-7.1-19.5-17.4-40.2-24.5-53.7l-8.6-0.9
			c4.8,8.5,21.4,38.7,31.6,66.6C222.7,362.7,243.3,332.5,230.7,300.2"/>
		<path fill="none" stroke="#000000" stroke-width="3" stroke-linecap="round" stroke-linejoin="round" d="M230.7,300.2l-6-0.6
			c9.9,30-0.5,51.1-0.5,51.1c-7.1-19.5-17.4-40.2-24.5-53.7l-8.6-0.9c4.8,8.5,21.4,38.7,31.6,66.6
			C222.7,362.7,243.3,332.5,230.7,300.2L230.7,300.2z"/>
		<path fill="#F781BF" d="M189,332.2c0,0-10.8,24.1-11.2,31.9c0,0,0.3,0.6,0.7,1.8H245c4.5-2.3,10.3-7.9,8.4-21.5
			c0,0-12.6-45.3-20.9-44l-1.8-0.2c12.6,32.3-8,62.5-8,62.5c-9.9-27.1-26.3-57.3-31.6-66.6l-0.8-0.1c0,0-10.9,3.5-16.5,11.3
			C173.7,307.4,197.2,301.7,189,332.2z"/>
		<path fill="none" stroke="#000000" stroke-width="3" stroke-linecap="round" stroke-linejoin="round" d="M189,332.2
			c0,0-10.8,24.1-11.2,31.9c0,0,0.3,0.6,0.7,1.8H245c4.5-2.3,10.3-7.9,8.4-21.5c0,0-12.6-45.3-20.9-44l-1.8-0.2
			c12.6,32.3-8,62.5-8,62.5c-9.9-27.1-26.3-57.3-31.6-66.6l-0.8-0.1c0,0-10.9,3.5-16.5,11.3C173.7,307.4,197.2,301.7,189,332.2z"/>
		<path fill="#FFFFFF" d="M224.7,299.6l-4.9-0.5c-6.2,2.8-12.3,1-17.1-1.8l-3-0.3c7.2,13.6,17.4,34.2,24.5,53.7
			C224.2,350.7,234.6,329.6,224.7,299.6"/>
		<path fill="none" stroke="#000000" stroke-width="3" stroke-linecap="round" stroke-linejoin="round" d="M224.7,299.6l-4.9-0.5
			c-6.2,2.8-12.3,1-17.1-1.8l-3-0.3c7.2,13.6,17.4,34.2,24.5,53.7C224.2,350.7,234.6,329.6,224.7,299.6L224.7,299.6z"/>
		<path d="M220.9,311.6c0,0.8-0.6,1.4-1.4,1.4c-0.8,0-1.4-0.6-1.4-1.4s0.6-1.4,1.4-1.4C220.3,310.2,220.9,310.8,220.9,311.6"/>
		<path d="M224.1,323.2c0,0.8-0.6,1.4-1.4,1.4c-0.8,0-1.4-0.6-1.4-1.4c0-0.8,0.6-1.4,1.4-1.4C223.5,321.8,224.1,322.4,224.1,323.2"
			/>
		<path fill="#FFFFFF" d="M204.2,365.9c-1.9-2.5-3.7-6.2-5.1-11.6c0,0-15.1,9.5-21.4,9.8c0.4-7.8,11.2-31.9,11.2-31.9
			c8.3-30.5-15.2-24.8-15.2-24.8s-23.2,26.9-25.4,58.5H204.2z"/>
		<path fill="none" stroke="#000000" stroke-width="3" stroke-linecap="round" stroke-linejoin="round" d="M204.2,365.9
			c-1.9-2.5-3.7-6.2-5.1-11.6c0,0-15.1,9.5-21.4,9.8c0.4-7.8,11.2-31.9,11.2-31.9c8.3-30.5-15.2-24.8-15.2-24.8
			s-23.2,26.9-25.4,58.5H204.2z"/>
		<path fill="#FFFFFF" d="M267.8,365.9c-4.7-35.1-23.3-63-26-57.5l-1,1.3c6.5,12.9,12.5,34.7,12.5,34.7c1.7,11.7-2.4,17.5-6.5,20.4
			l-6.8-5.2l-0.5,1.2l0-0.1c-0.6,1.4-1.6,3.4-3.4,5.2H267.8z"/>
		<path fill="none" stroke="#000000" stroke-width="3" stroke-linecap="round" stroke-linejoin="round" d="M267.8,365.9
			c-4.7-35.1-23.3-63-26-57.5l-1,1.3c6.5,12.9,12.5,34.7,12.5,34.7c1.7,11.7-2.4,17.5-6.5,20.4l-6.8-5.2l-0.5,1.2l0-0.1
			c-0.6,1.4-1.6,3.4-3.4,5.2H267.8z"/>
		<path fill="#FFCC00" d="M236.2,365.9c1.8-1.8,2.8-3.9,3.4-5.2l0,0.1l0.4-0.8l-1.5-9.8c-2.5-0.7-6.9-1.7-8.7-1.5
			c-2.7,0.3-5.4,3.4-7.1,8.2c-1,2.6-2.8,6.1-5.3,9.2H236.2z"/>
		<path fill="none" stroke="#000000" stroke-width="3" stroke-linecap="round" stroke-linejoin="round" d="M236.2,365.9
			c1.8-1.8,2.8-3.9,3.4-5.2l0,0.1l0.4-0.8l-1.5-9.8c-2.5-0.7-6.9-1.7-8.7-1.5c-2.7,0.3-5.4,3.4-7.1,8.2c-1,2.6-2.8,6.1-5.3,9.2
			H236.2z"/>
		<path fill="#FFCC00" d="M217.3,365.9c2.5-3.1,4.3-6.6,5.3-9.2c1.8-4.7,4.5-7.9,7.1-8.2c2.7-0.3,10.6,2,10.6,2
			c4.7-4.5-2.8-7.8-2.8-7.8c2.7-5.4-4.7-6.1-4.7-6.1c-1.4-7.3-9.2-4.2-15.6-4.6c-6.4-0.4-7.9,4.5-9.8,8.8
			c-1.4,3.2-5.8,10.5-8.1,14.2c1.3,5,3.1,8.4,4.9,10.8H217.3z"/>
		<path fill="none" stroke="#000000" stroke-width="3" stroke-linecap="round" stroke-linejoin="round" d="M217.3,365.9
			c2.5-3.1,4.3-6.6,5.3-9.2c1.8-4.7,4.5-7.9,7.1-8.2c2.7-0.3,10.6,2,10.6,2c4.7-4.5-2.8-7.8-2.8-7.8c2.7-5.4-4.7-6.1-4.7-6.1
			c-1.4-7.3-9.2-4.2-15.6-4.6c-6.4-0.4-7.9,4.5-9.8,8.8c-1.4,3.2-5.8,10.5-8.1,14.2c1.3,5,3.1,8.4,4.9,10.8H217.3z"/>
		<line fill="#FFCC00" x1="219.4" y1="335.9" x2="232.8" y2="336.7"/>
		
			<line fill="none" stroke="#000000" stroke-width="3" stroke-linecap="round" stroke-linejoin="round" x1="219.4" y1="335.9" x2="232.8" y2="336.7"/>
		<line fill="#FFCC00" x1="224.7" y1="341.7" x2="237.5" y2="342.8"/>
		
			<line fill="none" stroke="#000000" stroke-width="3" stroke-linecap="round" stroke-linejoin="round" x1="224.7" y1="341.7" x2="237.5" y2="342.8"/>
		<path fill="#FFFFFF" d="M116.9,365.5l-7.1-120.3c0,0,2-9.8,6.9-2.4l53.3,69.3c2.2-3,3.6-4.7,3.6-4.7s0.8-0.2,1.9-0.3
			c-7.4-9.5-51-65.4-57.7-72.9c0,0-9.8-13.9-14.3,8.6l12.7,122.6C116.6,365.4,116.7,365.4,116.9,365.5z"/>
		<g>
			<defs>
				<rect id="SVGID_17_" x="102.5" y="72.6" width="195.6" height="585.1"/>
			</defs>
			<clipPath id="SVGID_18_">
				<use xlink:href="#SVGID_17_"  overflow="visible"/>
			</clipPath>
			
				<path clip-path="url(#SVGID_18_)" fill="none" stroke="#000000" stroke-width="3" stroke-linecap="round" stroke-linejoin="round" d="
				M116.9,365.5l-7.1-120.3c0,0,2-9.8,6.9-2.4l53.3,69.3c2.2-3,3.6-4.7,3.6-4.7s0.8-0.2,1.9-0.3c-7.4-9.5-51-65.4-57.7-72.9
				c0,0-9.8-13.9-14.3,8.6l12.7,122.6C116.6,365.4,116.7,365.4,116.9,365.5z"/>
		</g>
		<path fill="#FFFFFF" d="M119.6,365.9h28.7c1.7-23.7,15.1-44.8,21.8-53.9l-53.3-69.3c-4.9-7.3-6.9,2.4-6.9,2.4l7.1,120.3
			C117.8,365.6,118.7,365.7,119.6,365.9z"/>
		<path fill="none" stroke="#000000" stroke-width="3" stroke-linecap="round" stroke-linejoin="round" d="M119.6,365.9h28.7
			c1.7-23.7,15.1-44.8,21.8-53.9l-53.3-69.3c-4.9-7.3-6.9,2.4-6.9,2.4l7.1,120.3C117.8,365.6,118.7,365.7,119.6,365.9z"/>
		<path fill="none" stroke="#000000" stroke-width="3" stroke-linecap="round" stroke-linejoin="round" d="M122.4,274.9
			c0.9,27.9,2.8,56-0.5,83.8"/>
		<path fill="none" stroke="#000000" stroke-width="3" stroke-linecap="round" stroke-linejoin="round" d="M135.1,295.8
			c-2.4,21-1.9,42.3-4.7,63.3"/>
		<path fill="none" stroke="#000000" stroke-width="3" stroke-linecap="round" stroke-linejoin="round" d="M141.9,307.7
			c-2.2,17-2.5,34.2-4.9,51.2"/>
		<path fill="none" stroke="#000000" stroke-width="3" stroke-linecap="round" stroke-linejoin="round" d="M149.5,319.6
			c-2,13.2-4.1,26.3-6.3,39.5"/>
		<g>
			<defs>
				<rect id="SVGID_19_" x="102.5" y="72.6" width="195.6" height="585.1"/>
			</defs>
			<clipPath id="SVGID_20_">
				<use xlink:href="#SVGID_19_"  overflow="visible"/>
			</clipPath>
			<path clip-path="url(#SVGID_20_)" fill="#FFFFFF" d="M238.9,306.2l45-58.4c4.9-7.3,6.9,2.4,6.9,2.4L284,365.9h0.7l12.2-118.1
				c-4.5-22.4-14.3-8.6-14.3-8.6c-5.3,5.9-33.4,41.8-48.8,61.4C235.5,301.3,237.2,303.3,238.9,306.2z"/>
			
				<path clip-path="url(#SVGID_20_)" fill="none" stroke="#000000" stroke-width="3" stroke-linecap="round" stroke-linejoin="round" d="
				M238.9,306.2l45-58.4c4.9-7.3,6.9,2.4,6.9,2.4L284,365.9h0.7l12.2-118.1c-4.5-22.4-14.3-8.6-14.3-8.6
				c-5.3,5.9-33.4,41.8-48.8,61.4C235.5,301.3,237.2,303.3,238.9,306.2z"/>
		</g>
		<path fill="#FFFFFF" d="M241.8,308.4c2.7-5.5,21.3,22.4,26,57.5H284l6.8-115.7c0,0-2-9.8-6.9-2.4l-45,58.4
			c0.6,1.1,1.3,2.3,1.9,3.5L241.8,308.4z"/>
		<path fill="none" stroke="#000000" stroke-width="3" stroke-linecap="round" stroke-linejoin="round" d="M241.8,308.4
			c2.7-5.5,21.3,22.4,26,57.5H284l6.8-115.7c0,0-2-9.8-6.9-2.4l-45,58.4c0.6,1.1,1.3,2.3,1.9,3.5L241.8,308.4z"/>
		<path fill="none" stroke="#000000" stroke-width="3" stroke-linecap="round" stroke-linejoin="round" d="M278.2,279.9
			c-1.7,26.4-1.8,52.9,0,79.2"/>
		<path fill="none" stroke="#000000" stroke-width="3" stroke-linecap="round" stroke-linejoin="round" d="M265.6,300.8
			c1.2,19.4,2.5,38.8,4.4,58.2"/>
		<path fill="none" stroke="#000000" stroke-width="3" stroke-linecap="round" stroke-linejoin="round" d="M258.8,312.7
			c0,0,1.1,12.1,2.4,26"/>
		<path fill="#FC744A" d="M270.1,199.4c2.5-3.6,5.4-17.7-2.9-24.2c-8.3-6.5-7.2-15.5-15.5-24.5c-8.3-9-22-3.2-22-3.2
			s-3.2-5-20.2-7.2c-16.9-2.2-23.4,10.1-23.4,10.1s-7.6-13-28.1,1.1c-20.6,14.1-18,30.6-18,30.6s-7.9,1.8-15.5,15.9
			c-7.6,14.1,7.6,27.4,7.6,27.4c-6.9,5.8-20.9,35.3,15.5,49c36.4,13.7,42.9-5.8,42.9-5.8s5.8-2.9,5.8-9.7c0,0-6.1,4-9,2.2
			c0,0,11.5-6.5,11.5-18.4c0,0-16.6,7.9-23.8-3.2c-7.2-11.2,3.6-29.9,11.5-34.3c7.9-4.3,17.7-6.9,22.7-10.1c0,0,4.7,2.2,9-0.4
			c0,0,3.6,1.8,8.3-0.7c0,0,4.7,2.2,7.9,0.4c0,0,4.3,2.9,7.2,2.2c0,0,7.9,12.6,3.6,23.8l0.4,10.5c0,0,4.3,9.4-5,19.5
			c0,0,9.7,2.9,10.8,8.7c0,0,2.9,3.6-15.9,5c0,0-4.1,5.5-7,13.7l0.1,0c0,0,18,3.2,31-9.4c13-12.6,10.5-30.3,10.5-30.3
			s7.2-5,8.3-17.7C279.5,207.7,270.1,199.4,270.1,199.4"/>
		<path fill="none" stroke="#000000" stroke-width="3" stroke-linecap="round" stroke-linejoin="round" d="M270.1,199.4
			c2.5-3.6,5.4-17.7-2.9-24.2c-8.3-6.5-7.2-15.5-15.5-24.5c-8.3-9-22-3.2-22-3.2s-3.2-5-20.2-7.2c-16.9-2.2-23.4,10.1-23.4,10.1
			s-7.6-13-28.1,1.1c-20.6,14.1-18,30.6-18,30.6s-7.9,1.8-15.5,15.9c-7.6,14.1,7.6,27.4,7.6,27.4c-6.9,5.8-20.9,35.3,15.5,49
			c36.4,13.7,42.9-5.8,42.9-5.8s5.8-2.9,5.8-9.7c0,0-6.1,4-9,2.2c0,0,11.5-6.5,11.5-18.4c0,0-16.6,7.9-23.8-3.2
			c-7.2-11.2,3.6-29.9,11.5-34.3c7.9-4.3,17.7-6.9,22.7-10.1c0,0,4.7,2.2,9-0.4c0,0,3.6,1.8,8.3-0.7c0,0,4.7,2.2,7.9,0.4
			c0,0,4.3,2.9,7.2,2.2c0,0,7.9,12.6,3.6,23.8l0.4,10.5c0,0,4.3,9.4-5,19.5c0,0,9.7,2.9,10.8,8.7c0,0,2.9,3.6-15.9,5
			c0,0-4.1,5.5-7,13.7l0.1,0c0,0,18,3.2,31-9.4c13-12.6,10.5-30.3,10.5-30.3s7.2-5,8.3-17.7C279.5,207.7,270.1,199.4,270.1,199.4
			L270.1,199.4z M266.5,231.9l3.6,6.1 M265.8,196.9c1.1,0.4,4.3,2.5,4.3,2.5 M143.6,188.3c-0.4-1.1-3.6-6.1-3.6-6.1 M136.4,229.7
			l-4.3-4.3 M180.4,269.7l10.1-1.1 M212.5,178.2c0,0,0.4,14.4-3.2,16.9 M222.9,178.2c0,0,1.8,10.8-4.7,16.6 M233.4,178.2
			c0,0,0.4,10.5-6.9,15.9 M242.7,181c0,0-3.2,9.7-8.3,13.3 M249.6,174.6c0,0,7.2,13-7.9,22"/>
		<path fill="#FFCC00" d="M240.6,250.3c9.4-10.1,5-19.5,5-19.5l-0.4-10.5c4.3-11.2-3.6-23.8-3.6-23.8c-2.9,0.7-7.2-2.2-7.2-2.2
			c-3.2,1.8-7.9-0.4-7.9-0.4c-4.7,2.5-8.3,0.7-8.3,0.7c-4.3,2.5-9,0.4-9,0.4c-5,3.2-14.8,5.8-22.7,10.1
			c-7.9,4.3-18.7,23.1-11.5,34.3c7.2,11.2,23.8,3.2,23.8,3.2c0,11.9-11.5,18.4-11.5,18.4c2.9,1.8,9-2.2,9-2.2c0,6.9-5.8,9.7-5.8,9.7
			c1,3,2.7,14.4,3.6,21.1c1.7,2,17,19.6,31.7,4.2c-0.3-10.3,3.7-19.6,6.7-25c-6.1-0.5-6.7-3-6.3-4.9l4.1,0.3l0.9-1.1
			c4.7-5,7.6-5.4,9.4-5c1.8,0.4,2.5,2.5,5-0.7c1.2-1.5,2.6-2,3.9-2.1C246.3,252,240.6,250.3,240.6,250.3"/>
		<path fill="none" stroke="#000000" stroke-width="3" stroke-linecap="round" stroke-linejoin="round" d="M240.6,250.3
			c9.4-10.1,5-19.5,5-19.5l-0.4-10.5c4.3-11.2-3.6-23.8-3.6-23.8c-2.9,0.7-7.2-2.2-7.2-2.2c-3.2,1.8-7.9-0.4-7.9-0.4
			c-4.7,2.5-8.3,0.7-8.3,0.7c-4.3,2.5-9,0.4-9,0.4c-5,3.2-14.8,5.8-22.7,10.1c-7.9,4.3-18.7,23.1-11.5,34.3
			c7.2,11.2,23.8,3.2,23.8,3.2c0,11.9-11.5,18.4-11.5,18.4c2.9,1.8,9-2.2,9-2.2c0,6.9-5.8,9.7-5.8,9.7c1,3,2.7,14.4,3.6,21.1
			c1.7,2,17,19.6,31.7,4.2c-0.3-10.3,3.7-19.6,6.7-25c-6.1-0.5-6.7-3-6.3-4.9l4.1,0.3l0.9-1.1c4.7-5,7.6-5.4,9.4-5
			c1.8,0.4,2.5,2.5,5-0.7c1.2-1.5,2.6-2,3.9-2.1C246.3,252,240.6,250.3,240.6,250.3L240.6,250.3z"/>
		<path fill="#FFFFFF" d="M194,289.5c0,0,16.6,21.1,32.3,3.9l6.2,7c0,0-2.5,15.8-15,1.2c0,0-2.1,9.9-11,6.3c0,0-13.5-1.7-18.2-11.1
			L194,289.5"/>
		<path fill="none" stroke="#000000" stroke-width="3" stroke-linecap="round" stroke-linejoin="round" d="M194,289.5
			c0,0,16.6,21.1,32.3,3.9l6.2,7c0,0-2.5,15.8-15,1.2c0,0-2.1,9.9-11,6.3c0,0-13.5-1.7-18.2-11.1L194,289.5L194,289.5z"/>
		<path fill="#F50F5C" d="M230.3,264.3L230.3,264.3l-0.8,0c-1.1,0-2.2-0.1-3.4-0.2c-0.4,1.9,0.2,4.4,6.3,4.9c1.7-3.1,3.1-5,3.1-5
			C233.9,264.2,232.1,264.3,230.3,264.3"/>
		<path fill="none" stroke="#000000" stroke-width="3" stroke-linecap="round" stroke-linejoin="round" d="M230.3,264.3L230.3,264.3
			l-0.8,0c-1.1,0-2.2-0.1-3.4-0.2c-0.4,1.9,0.2,4.4,6.3,4.9c1.7-3.1,3.1-5,3.1-5C233.9,264.2,232.1,264.3,230.3,264.3L230.3,264.3z"
			/>
		<path fill="#F50F5C" d="M251.4,258.9c-0.2-1.3-1-2.5-1.9-3.5c-1.2,0.1-2.7,0.6-3.9,2.1c-2.5,3.2-3.2,1.1-5,0.7
			c-1.8-0.4-4.7,0-9.4,5l-0.9,1c1.8,0,3.5-0.1,5.2-0.3C254.3,262.5,251.4,258.9,251.4,258.9"/>
		<path fill="none" stroke="#000000" stroke-width="3" stroke-linecap="round" stroke-linejoin="round" d="M251.4,258.9
			c-0.2-1.3-1-2.5-1.9-3.5c-1.2,0.1-2.7,0.6-3.9,2.1c-2.5,3.2-3.2,1.1-5,0.7c-1.8-0.4-4.7,0-9.4,5l-0.9,1c1.8,0,3.5-0.1,5.2-0.3
			C254.3,262.5,251.4,258.9,251.4,258.9L251.4,258.9z M206,256.4c0,0-3.6,1.4-2.5,5.8 M213.5,209.9c0,0-18,1.1-23.1,15.1
			c0,0,17.7-13.3,28.1-9.7 M248.4,223.1c0,0,0.2-9.5-19.9-8.8c-0.1,0.8-0.3,2.5-0.3,4.2C232.4,217.9,241.4,217,248.4,223.1
			L248.4,223.1z M228.7,213.5c0,0-3.2,15.5,7.2,30.6l-6.9,1.8l11.5,4.3 M205.2,259.3c0,0,17.3,6.5,30.3,4.7 M234.9,217.9
			c0,0,5.6-3.3,8-9.3 M241,218.6c0,0,8.5-3.5,12.2-7.1 M246.8,221.8c0,0,8.3-0.9,14.1-4.5 M201.5,207.1c0,0,2.6,8.3,5.2,9.3
			 M193.3,209.2c0,0,4.3,7,8.3,9.3 M184.6,210.7c0,0,5.8,9.5,11.1,10.8 M174,213.3c0,0,8.7,11.3,17.3,11.3 M235.1,209.7
			c0,0,5.6,6.1,9.3,7.2"/>
		<path fill="#FFFFFF" d="M216.5,214.8c-10.6-1.5-26.1,10.2-26.1,10.2s7.1,13.1,25.7,7.5C216.1,232.6,223.5,225.1,216.5,214.8"/>
		<path fill="none" stroke="#000000" stroke-width="3" stroke-linecap="round" stroke-linejoin="round" d="M216.5,214.8
			c-10.6-1.5-26.1,10.2-26.1,10.2s7.1,13.1,25.7,7.5C216.1,232.6,223.5,225.1,216.5,214.8L216.5,214.8z"/>
		<path d="M204.3,223.5c0,1.1-0.9,2-2,2c-1.1,0-2-0.9-2-2c0-1.1,0.9-2,2-2C203.4,221.4,204.3,222.3,204.3,223.5"/>
		<path fill="#FFFFFF" d="M247.9,222.5c-6.1-6.1-16-4.7-19.6-4c-0.1,3.7,0.3,9,2.3,14.9c7.8,2.1,13-1.1,15.5-2.9
			C248.8,228.5,247.9,222.5,247.9,222.5"/>
		<path fill="none" stroke="#000000" stroke-width="3" stroke-linecap="round" stroke-linejoin="round" d="M247.9,222.5
			c-6.1-6.1-16-4.7-19.6-4c-0.1,3.7,0.3,9,2.3,14.9c7.8,2.1,13-1.1,15.5-2.9C248.8,228.5,247.9,222.5,247.9,222.5L247.9,222.5z"/>
		<path d="M239.9,225.1c0,1.1-0.9,2-2,2c-1.1,0-2-0.9-2-2c0-1.1,0.9-2,2-2C239,223.1,239.9,224,239.9,225.1"/>
	</g>
</g>
<g id="Calque_3_-_copie_3">
	<path fill="#F0F1F2" d="M200.3,6.3C94.8,6.3,9.2,91.9,9.2,197.4s85.6,191.1,191.1,191.1S391.5,303,391.5,197.4S305.9,6.3,200.3,6.3
		z M200.3,363.1c-91.5,0-165.6-74.2-165.6-165.6S108.9,31.8,200.3,31.8S366,106,366,197.4S291.8,363.1,200.3,363.1z"/>
</g>
<g id="Calque_3_-_copie_4">
	<path fill="#F0F1F2" d="M107,364.3c4.2,0.4,8.4,1,12.6,1.6h171.1c60-32.2,100.8-95.6,100.8-168.4c0-105.6-85.6-191.1-191.1-191.1
		S9.2,91.9,9.2,197.4C9.2,269.1,48.6,331.6,107,364.3z M200.3,31.8C291.8,31.8,366,106,366,197.4s-74.2,165.6-165.6,165.6
		S34.7,288.9,34.7,197.4S108.9,31.8,200.3,31.8z"/>
</g>
</svg>
