<?xml version="1.0" encoding="utf-8"?>
<!-- Generator: Adobe Illustrator 17.1.0, SVG Export Plug-In . SVG Version: 6.00 Build 0)  -->
<!DOCTYPE svg PUBLIC "-//W3C//DTD SVG 1.0//EN" "http://www.w3.org/TR/2001/REC-SVG-20010904/DTD/svg10.dtd" [
	<!ENTITY ns_extend "http://ns.adobe.com/Extensibility/1.0/">
	<!ENTITY ns_ai "http://ns.adobe.com/AdobeIllustrator/10.0/">
	<!ENTITY ns_graphs "http://ns.adobe.com/Graphs/1.0/">
	<!ENTITY ns_vars "http://ns.adobe.com/Variables/1.0/">
	<!ENTITY ns_imrep "http://ns.adobe.com/ImageReplacement/1.0/">
	<!ENTITY ns_sfw "http://ns.adobe.com/SaveForWeb/1.0/">
	<!ENTITY ns_custom "http://ns.adobe.com/GenericCustomNamespace/1.0/">
	<!ENTITY ns_adobe_xpath "http://ns.adobe.com/XPath/1.0/">
]>
<svg version="1.0" xmlns:x="&ns_extend;" xmlns:i="&ns_ai;" xmlns:graph="&ns_graphs;"
	 xmlns="http://www.w3.org/2000/svg" xmlns:xlink="http://www.w3.org/1999/xlink" x="0px" y="0px" viewBox="0 0 283.5 283.5"
	 enable-background="new 0 0 283.5 283.5" xml:space="preserve">
<metadata>
	<sfw  xmlns="&ns_sfw;">
		<slices></slices>
		<sliceSourceBounds  width="262.6" height="262.6" x="15" y="10.4" bottomLeftOrigin="true"></sliceSourceBounds>
	</sfw>
</metadata>
<g id="Calque_2">
	<circle fill="#54A2F7" cx="146.3" cy="141.8" r="121"/>
</g>
<g id="Calque_4">
	<g id="TJpE2B.tif">
		<g>
			<path fill="#FED611" d="M150.2,265.3c-5.7,0-11.4,0-17.1,0c-0.5-1,0.3-1.7,0.8-2.4c2.5-4.3,4.5-8.7,5.3-13.6
				c0.8-4.9,0.9-9.9,0.1-14.8c-0.2-1.2-0.5-2.4-1.1-3.5c-1-2.1-2.5-2.8-4.8-2.2c-1.2,0.3-2.4,0.5-3.6,0.4c-0.9-0.1-1.7-0.4-2.5-0.9
				c-0.7-0.5-1.5-1.2-1.4-2.2c0.1-1,1.1-1,1.8-1.3c5.5-2.3,11.2-4.1,17-5.6c0.9-0.2,1.8-0.8,2.7,0.2c-0.1-1.6-0.5-3.1-0.5-4.4
				c0,0.2,0,0.7,0.1,1.2c0.3,2.2,0.2,2.4-1.9,2.9c-11.2,2.8-21.8,7.2-31.9,12.8c-3.8,2.1-7.9,3.4-12.3,3.1c-3.2-0.2-4.6-2-3.7-5
				c1.3-4.2,3.7-7.7,6.6-11c2.5-2.9,5.4-5.3,8.7-7.3c-1.4,0.2-2.8,0.2-4.1,0.2c-2-0.1-2.8-1.3-1.9-3c3.6-7.3,9.5-11.5,17.6-12.6
				c1.3-0.2,1.6,0.5,2.1,1.5c2.3,5.4,6.4,8.7,12.2,9.5c10,1.5,17.4-7.1,17.4-14.7c0-7.5-5.4-14-11.9-15.1c-5.2-0.9-10-0.1-14,3.8
				c-1.4,1.4-1.8,1.4-3.2,0.1c-3.3-3.2-7.3-4.2-11.7-3.7c-2,0.2-2.5-0.3-2-2.3c0.3-1.2,0.8-2.4,1.4-3.6c0.6-1.1,1.4-1.5,2.6-0.8
				c1.2,0.7,2.5,1.3,3.9,1.4c2.2,0.1,3.6-1.1,4.9-2.7c1.4-1.8,1.7-1.9,3,0c3.2,4.5,7.6,5.5,13,3.5c2-0.7,3.7-1.8,5.4-3
				c0.9-0.7,1.8-0.7,2.8-0.3c1.3,0.6,2.7,1.1,4.1,1.2c2.2,0.2,4.2-0.3,5.8-2c0.5-0.5,1-0.7,1.7-0.7c1.5,0,3,0,4.5-0.3
				c0.8-0.2,1.5,0.2,2.1,0.8c2.9,2.9,4.2,6.4,4.3,10.4c0.1,2.3,0,4.7-0.4,7c-0.2,1-0.6,1.6-1.5,2c-2.2,1-3.6,2.7-4.4,4
				c0.4-0.8,1.6-2.1,3-3.2c2-1.5,4.3-1.6,6.5-0.5c2.6,1.4,4.4,3.4,4.5,6.5c0.2,5-1.9,9.2-4.5,13.2c-2.4,3.7-6.8,6.1-12.2,3.8
				c0.4,0.2,1.2,0.4,1.9,0.6c1.3,0.3,1.4,1,0.8,2.1c-1.3,2.3-2.5,4.7-3.4,7.3c-3.2,9.5-1.9,18.6,2.9,27.2c1.2,2.2,1.1,2.3-1,3.6
				c-1.6,1-3.1,1.4-5,1.3c-3.1,0-6,2.9-5.9,6.2C153.8,263.1,152.9,264.7,150.2,265.3z"/>
			<path fill="#060605" d="M86.5,139c0.7-1.6,1.4-3.2,2-4.9c1.3-3.7,0.9-7.3-0.6-10.9c-2-4.9-0.6-8.4,4.1-10.5c3-1.3,5.5-0.4,7,2.4
				c2,3.7,5.3,5.3,9.3,4.5c1-0.2,0.5-0.8,0.4-1.2c-0.6-2.2-0.8-4.5-0.4-6.8c0.8-4.2,3.4-7,7-9.1c0.9-0.5,1.9-1.2,2.9-1.4
				c2.2-0.4,2.5-1.9,2.7-3.7c0.5-3.5,1.2-6.9,3.1-10c2.6-4.3,5.9-5.5,10.7-3.6c1,0.4,1.3,0.3,1.6-0.8c0.5-2.3,1.7-4.3,3.4-6
				c3.7-3.7,8.3-6,13.3-7.2c1.2-0.2,2.5-0.2,3.7,0c3.1,0.9,4.2,3.4,5,6.2c0.3,1-0.1,2.4,0.7,2.9c0.7,0.4,1.9-0.3,2.9-0.5
				c5.7-1,9.9,2.1,11.2,8.1c0.9,4.3-0.3,8.1-2.3,11.8c-0.4,0.7-0.9,1.4-1.3,2.1c2.9,1.3,3.6,2.7,2.9,6c-0.3,1.5-0.9,3-1.4,4.5
				c0.1,0.3,0.4,0.2,0.7,0.2c4.5,0.4,6.7,2.7,6.9,7.2c0,1.1,0,2.2-0.2,3.3c-0.1,0.9,0.1,1.1,1,1.1c4.5,0.3,8.2-1.7,11.7-4.1
				c2.5-1.7,5-3,8.2-2.9c3.7,0.1,7.1,2.4,8.3,5.7c0.4,2.9-1.1,5-2.9,7c-1.3,1.4-2.3,3-2.9,4.8c-0.8,2.4-0.7,4.8,0.2,7.2
				c0.7,1.8,1.3,3.7,1.5,5.6c0.2,2-0.1,3.8-1.8,5.1c-1.8,1.4-3.8,1.8-6,0.8c-2-0.8-3.4-2.4-5.1-3.8c-3.3-2.6-6.6-5.1-10.6-6.6
				c-0.6-0.2-1.1-0.4-1.8-0.7c0.3,3,0.4,5.7,0,8.5c-0.8,5.1-3.1,9-7.9,11.1c-0.7,0.3-1,0.7-1.2,1.4c-0.6,2.2-1.9,3.9-3.9,5
				c-0.4,0.2-1.2,0.3-0.4,1.1c4.1,4,4.9,9.1,4.6,14.5c0,0.2,0,0.3-0.1,0.5c-0.2,1.2-0.7,2.4-0.4,3.4c0.4,1.2,2,0.6,3,1.1
				c3.6,1.6,5.6,4.4,5.2,8.3c-0.5,5.4-2.6,10.3-6.4,14.4c-1.6,1.7-3.5,2.7-5.9,2.7c-0.6,0-1,0.3-1.3,0.8c-5.6,9.2-7.2,18.9-3.7,29.3
				c0.4,1.2,0.9,1.6,2.2,1.7c4.5,0,6.7,2.4,6.3,6.9c-0.1,0.8,0.2,1.2,0.7,1.7c1.3,1.1,2.6,2.3,3.5,4c-1.4,0.2-2.5-0.5-3.9-0.2
				c2.1,2.4,3.6,5,4.5,8c-0.3,0-0.7,0-1,0c-1-0.9-1.2-2.3-1.8-3.4c-0.7-1.2-1.4-2.4-2.4-3.4c-0.7-0.7-1.5-0.9-2.5-0.8
				c-1.7,0.2-1.9,0.6-1.7,2.3c0.2,1.9,0.2,3.7-1,5.3c-0.3,0-0.7,0-1,0c-0.4-0.5,0-1.1,0-1.6c0.4-2.7,0.3-5.3-1.8-7.5
				c-1.7-1.7-6.1-1.8-7.7,0.7c-0.7,1.1-1.2,2.1-1.4,3.4c-0.3,2.1-0.1,2.4,2,3c1.1,0.3,2.4,0.4,2.5,2c-0.4,0-0.9,0-1.3,0
				c-2-0.8-4-0.6-6,0c-0.4,0-0.9,0-1.3,0c0.2-0.8,1-1,1.5-1.1c1.4-0.3,1.6-1.1,1.5-2.4c-0.2-2.2,0.5-4.2,1.9-5.9
				c1-1.2,2.3-2.3,3.8-2.2c2.5,0.3,4.4-0.8,6.5-1.8c1-0.5,0.9-0.7,0.5-1.5c-2.1-3.6-3.7-7.5-4.6-11.6c-1.8-8.6,0-16.5,4.3-24
				c0.8-1.4,0.7-1.8-0.9-2.1c-1.1-0.2-2.4-0.5-3.2-1.5c0.7-0.6,1.1-0.1,1.6,0.1c4.9,2,8.8,1,11.9-3.2c2.2-3.1,3.7-6.5,4.5-10.2
				c0.8-4-0.4-6.9-3.5-8.8c-2.6-1.6-5.3-1.4-7.5,0.7c-1.2,1.1-2.1,2.4-2.9,3.9c-0.2,0.3-0.3,0.7-0.7,0.5c-0.4-0.2-0.2-0.6,0-0.9
				c1.4-2.4,2.9-4.5,5.5-5.6c0.5-0.2,0.9-0.4,1-1c0.9-4.7,1.1-9.3-0.9-13.8c-0.4-0.8-0.8-1.6-1.4-2.3c-1.1-1.5-2.3-3.1-4.6-2.1
				c-0.3,0.1-0.8,0.1-1.2,0.1c-1.7-0.1-3.1,0.2-4.5,1.4c-2.7,2.3-5.8,1.6-8.7,0.1c-1.4-0.7-2.3-0.5-3.4,0.4c-1.8,1.4-3.9,2.5-6,3.2
				c-5,1.7-9.3,0.3-12.4-3.9c-0.4-0.5-0.8-1.1-1.1-1.6c-0.5,0-0.6,0.4-0.7,0.7c-2.5,4.1-5.4,4.9-9.6,2.5c-1.4-0.8-2-0.5-2.5,0.8
				c-0.2,0.5-0.5,1-0.7,1.5c-0.4,1-1.1,2.3-0.6,3.2c0.6,1.1,1.9,0.1,2.8,0.1c4.5-0.1,8.4,1,11.4,4.6c0.6,0.7,1,0.6,1.6-0.1
				c4.6-5.1,12.7-6.5,18.9-3.2c6.4,3.4,9.6,10.6,7.8,17.8c-1.7,6.8-7.9,11.7-14.9,11.7c-7.1,0-12.6-3.6-15.2-10.2
				c-0.3-0.9-0.7-1-1.6-0.9c-7.5,1.1-13.1,4.9-16.7,11.5c-0.4,0.8-1.1,1.7-0.6,2.7c0.6,1,1.8,0.8,2.7,0.8c0.9,0,1.9-0.3,2.8-0.4
				c0.5-0.1,1.2-0.6,1.5,0.1c0.2,0.6-0.6,0.7-1,0.9c-5.7,3.4-10.2,8.1-13.4,14c-0.7,1.3-1.4,2.7-1.8,4.1c-0.7,2.6,0.3,4.1,3.1,4.4
				c4.5,0.4,8.6-1,12.5-3.1c6.6-3.6,13.5-6.7,20.6-9.3c3.8-1.4,7.6-2.6,11.5-3.5c1.2-0.3,1.8-0.6,1.5-2.1c-0.2-1.2-0.3-2.6,0.2-3.9
				c0.6,2.6,0.5,5.4,1.5,8.1c-0.5-0.1-0.8-0.1-0.8-0.2c-0.4-2-1.7-1.3-2.9-1c-6,1.5-11.8,3.5-17.5,5.8c-1.2,0.5-1.1,1-0.4,1.8
				c1.5,1.8,3.5,2.1,5.5,1.4c4.8-1.7,6.5,1,7.2,4.6c2,10.3,0.7,20.1-4.8,29.2c-0.6,0.9-1.3,1.8-1.6,2.9c-0.3,0-0.7,0-1,0
				c0.1-1.6-1-2.1-2.3-2.5c-2.6-0.9-5.2-1.1-8.1,0c1.1,0.3,1.9,0.5,2.6,0.9c0.7,0.3,1.5,0.5,1.4,1.6c-0.4,0-0.9,0-1.3,0
				c-1.1-1.2-2.7-1.1-4.1-1.3c-0.4,0-0.9,0.1-1-0.3c-0.2-0.4,0.3-0.8,0.6-0.9c2.8-1,3.9-3.4,5-6c0.7-1.9,2.6-2.7,4.6-2.9
				c1.5-0.2,2.9,0,4.5,0c-0.9-2.1-3-3-4.5-4.7c1.7-0.5,3.2-0.1,4.6,0.4c0.9,0.3,1.6,0.4,2.2-0.4c0.2-0.3,0.6-0.6,0.9-0.6
				c2.1-0.3,2.2-1.7,2.3-3.3c0.3-4.2,0.3-8.5-0.9-12.6c-1-3.5-2.2-4-5.7-3.2c-3.5,0.9-5.1,0.4-7.1-2.4c-0.6-0.8-0.9-0.5-1.5-0.2
				c-3.7,1.7-7.3,3.5-10.9,5.4c-3.8,2.1-7.8,3.5-12.3,3.3c-3.8-0.1-5.5-2.3-4.2-6c2.3-6.4,6.4-11.5,11.8-15.7c0.6-0.4,1.1-0.8,2-1.5
				c-1,0-1.6,0-2.3,0c-2.5-0.1-3.3-1.4-2.4-3.8c0.6-1.5,1.5-2.9,2.6-4.1c0.7-0.8,0.6-1.1-0.2-1.8c-5-4.1-6.4-9.5-4.9-15.6
				c1-4,3.7-6.9,7.4-8.8c0.8-0.4,1.3-0.8,1.3-1.8c0.1-2,0.9-3.8,2-5.4c0.5-0.7,0.6-1.3,0.2-2.1c-0.9-1.8,0.1-3.2,1.2-4.6
				c-1.5-0.7-3.1-1.2-4.4-2.2c-1.5-1.2-2.2-2.7-1.7-4.6c0.3-1,0-1.2-0.8-1.5c-1.3-0.5-2.5-1.2-3.7-2c-3.1-2.2-4.1-5.6-2.9-9.4
				c0.7-2.1,1.8-3.9,2.9-5.8c-1.1-0.7-2.2-0.6-3.3-0.6c-0.8,0-1.3,0.6-1.4,1.4c-0.3,1.3-0.7,2.6-1.3,3.8c-1.4,2.6-3.8,3.5-6.6,2.6
				c-2.7-0.8-4.7-2.4-5.8-5C86.5,140.3,86.5,139.7,86.5,139z"/>
			<path fill="#94A299" d="M158.9,265.3c-0.8-1.3-2.2-1.6-3.6-1.7c-0.7-0.1-1.2-0.1-1.3-0.9c-0.6-3.6,1.6-8.7,6.6-8.2
				c2.5,0.2,4.9,2.7,5.3,5.6c0.3,1.8-0.1,3.5-0.7,5.2C163.1,265.3,161,265.3,158.9,265.3z"/>
			<path fill="#FED611" d="M166.2,265.3c0.5-2.2,1-4.3,0.3-6.5c-0.1-0.2-0.1-0.5,0-0.6c0.6-0.9,4.1-1.2,4.9-0.3
				c2,2.1,3.5,4.6,4.2,7.5C172.5,265.3,169.4,265.3,166.2,265.3z"/>
			<path fill="#93A198" d="M125.7,265.3c-1.1-1.6-3-1.7-4.9-2.2c2.2-1.8,4.5-1.8,6.9-1.4c1,0.2,2,0.6,3,0.9c1.3,0.4,2.2,1.1,1.3,2.6
				C130,265.3,127.8,265.3,125.7,265.3z"/>
			<path fill="#8C9991" d="M151.5,265.3c2-1.2,4-1.5,6,0C155.5,265.3,153.5,265.3,151.5,265.3z"/>
			<path fill="#747474" d="M156.9,70c-1.2,0-2.5,0-3.7,0c0.1-0.1,0.1-0.2,0-0.3c1.2,0,2.5,0,3.7,0C156.9,69.7,156.9,69.8,156.9,70z"
				/>
			<path fill="#151101" d="M167.7,202.1c1.1-2.8,2-5.7,4.1-8c0.5-0.5,1.1-0.7,1.8,0c-0.5,0.3-1.1,0.5-1.4,0.9
				c-0.6,0.7-1.6,1.3-0.2,2.3c0.5,0.3,0.6,1.1,0.6,1.7c0.1,3.1-0.9,6-1.7,9c-0.1,0.3-0.2,0.6-0.5,0.5c-0.6-0.1-0.3-0.6-0.2-1
				c0.6-2.2,1.3-4.4,1.5-6.7c0.1-1.1,0.6-2.7-0.6-3c-1.2-0.4-1.1,1.4-1.7,2.3c-0.5,0.7-0.7,1.5-1.1,2.3
				C168.1,202.3,167.9,202.2,167.7,202.1z"/>
			<path fill="#5E92A0" d="M156.7,124.2c1.7-3,3.4-5.6,4-8.8c-0.9-0.1-0.9,0.5-1,0.8c-1.3,3.8-3.3,7.2-5.9,10.2
				c-3.9,4.7-4.2,9.6-1.1,14.3c0.5,0.8,1,1.1,2,0.9c7.9-1.1,15.8-1.4,23.7-1.2c2.4,0.1,2.4,0.1,2.5,2.5c0.1,2.3,0.2,4.6-0.2,6.8
				c-1.2,6.7-5.4,10.6-12.5,11.5c-1.4,0.2-2.8,0.3-4.2,0.3c-1,0-1.5,0.4-1.8,1.3c-0.2,0.9-0.6,1.7-1,2.5c-2.3,4.7-6,6.1-10.6,3.8
				c-1.8-0.9-2.9-0.8-4.4,0.4c-1.8,1.5-3.8,2.5-6.1,3.1c-4,1.2-7.5,0.4-10.3-2.7c-0.9-1-1.6-2-2.2-3.1c-0.4-0.8-0.8-0.8-1.2,0
				c-0.1,0.3-0.2,0.5-0.4,0.8c-2.2,4.2-5.9,5.1-9.7,2.2c-2-1.5-2.2-3.1-0.5-4.9c1.2-1.2,0.7-1.5-0.6-1.9c-1.1-0.3-2.1-0.8-3.1-1.3
				c-2-1.2-2.6-2.6-1.9-4.8c0.4-1,0-1.3-0.9-1.7c-7.6-3.1-9.1-7.5-4.8-14.4c1.1-1.8,1.4-3.1,0.4-5c-0.9-1.6-1.3-3.4-1.3-5.3
				c-0.1-3.7,1.3-5.8,4.9-7.1c2.3-0.8,2.3-0.8,1.6-3.3c-0.7-2.2-1.3-4.4-1.2-6.7c0.1-4.2,2.1-7.3,5.5-9.6c1.6-1.1,3.3-2,5.1-2.5
				c1.4-0.4,1.8-1.2,1.9-2.5c0.3-2.6,0.8-5.2,1.7-7.7c0.3-1,0.8-2,1.3-2.9c2.4-4.5,5.7-5.6,10.3-3.6c1.4,0.6,1.9,0.5,2.1-1.1
				c0.1-0.9,0.4-1.9,0.9-2.7c3.8-6.4,9.7-9.6,16.9-10.5c2.5-0.3,4.1,1.1,5.2,3.2c0.9,1.7,1.2,3.5,1.3,5.3c0.1,1,0.4,1.2,1.3,0.9
				c0.9-0.3,1.8-0.5,2.8-0.7c5.7-0.8,9.8,2.5,10.5,8.4c0.5,4.5-1,8.5-3.5,12.1c-0.7,1-1.1,1.6,0.6,1.8c1.6,0.2,2.2,1.4,2.2,2.9
				c0,2.2-0.8,4.2-1.6,6.1c-0.5,1.1-0.4,1.4,0.9,1.5c4.5,0.1,6.4,2.1,6.5,6.6c0.1,4.2,0.1,4.2-4,4.5c-6.1,0.4-12.2,1-18.4,0.9
				C158.1,124.2,157.5,124.2,156.7,124.2z"/>
			<path fill="#FEFEFE" d="M162.6,125.1c7.8-0.5,15.6-0.9,23.4-1.5c3.5-0.3,6.4-2.4,9.3-4.3c2.1-1.4,4.2-2.5,6.8-2.5
				c2.2,0,4,0.7,5.7,2c2.5,1.9,3,4,1.5,6.7c-0.5,0.9-1.2,1.8-1.9,2.6c-3.6,4.2-4.8,8.7-2.5,13.9c0.7,1.6,1.1,3.3,1.2,5
				c0.3,4-3.8,5.6-6.4,4.6c-1.3-0.5-2.3-1.3-3.4-2.2c-4.2-3.7-8.6-7-13.9-8.8c-4.1-1.4-8.3-0.9-12.5-0.9c-5,0-10,0.4-15,1.2
				c-1,0.2-1.5-0.2-2-1c-2.4-4-2.1-7.9,0.4-11.8c1.4-2.2,3.1-3.7,5.9-3.1C160.5,125.2,161.6,125,162.6,125.1
				C162.6,125,162.6,125.1,162.6,125.1z"/>
			<path fill="#FEFEFE" d="M140.1,206.8c-8.3,0-14.9-6.7-14.9-14.9c0.1-8.3,6.6-14.7,15.1-14.6c8.3,0,14.9,6.5,14.9,14.7
				C155.2,200.3,148.6,206.8,140.1,206.8z"/>
			<path fill="#FEFEFE" d="M104.9,137.7c-0.8-0.1-1.4-0.2-2-0.3c-2.2-0.1-2.9,0.4-3.5,2.5c-0.1,0.4-0.2,0.7-0.3,1.1
				c-1.7,5.4-5.3,5.9-9.7,2.6c-2-1.5-2.6-3.8-1.4-6.2c2.6-5.1,2.5-10.1,0.4-15.3c-1.7-4.3,0.7-8.3,5.3-9.2c1.9-0.4,3.6,0.1,4.4,2.2
				c1.8,4.6,5.4,5.3,9.6,5.3c0.3,0,0.7,0,1,0c1-0.1,1.1,0.8,1.3,1.4c0.2,0.8-0.6,0.7-1,0.8c-5,1.7-6.7,4.7-5.7,9.9
				C103.6,134.3,104.2,135.9,104.9,137.7z"/>
			<path fill="#FEFEFE" d="M117,177.6c3.8,0,7,1.4,9.7,4.2c0.6,0.6,0.8,1,0.2,1.8c-2.2,3.2-2.8,6.9-2.3,10.7
				c0.1,0.7,0.3,1.2-0.8,1.4c-5.2,0.7-9.8,2.7-13.4,6.5c-0.6,0.6-0.9,0.3-1.4,0c-4.5-3.3-6.5-9.8-4.7-15.3
				C106.1,181.4,111.3,177.6,117,177.6z"/>
			<path fill="#94A299" d="M136.2,257.6c-0.8,1.8-1.7,3.5-2.8,5.1c-0.2,0.3-0.6,0-0.9-0.1c-2.3-1.2-4.7-2-7.4-1.9
				c-0.9,0-0.8-0.5-0.7-1.1c0.5-2.8,2.7-4.8,5.5-4.9c1.2-0.1,2.4,0.1,3.7,0.2C135.4,255,135.5,256.4,136.2,257.6z"/>
			<path fill="#5D919F" d="M161.2,167.6c0.8-1.5,1.5-2.9,2-4.4c0.2-0.6,0.6-0.7,1.1-0.7c2.2,0,4.3-0.2,6.5-0.7c1-0.3,1,0.3,0.7,1
				c-0.8,2.1-2.3,3.5-4.4,4.2C165.3,167.6,163.4,167.9,161.2,167.6z"/>
			<path fill="#93A198" d="M174.4,256.5c-2.8-0.4-5.3-0.4-7.6,0.5c-0.7,0.3-1,0.1-1.4-0.5c-0.4-0.6-0.8-1.1-1.3-1.5
				c-1.1-0.7-0.8-1.2,0.1-1.7c2.5-1.5,5-1.4,7.4,0.3C172.5,254.4,173.5,255.2,174.4,256.5z"/>
			<path fill="#93A198" d="M170.8,252c-4.1,0.4-4.8-2.9-6.2-5.5c-0.4-0.8,0.2-0.8,0.7-0.8C169.4,245.5,171.6,248,170.8,252z"/>
			<path fill="#919E96" d="M131.3,249.9c2.7,0.2,4.5,1.2,6.1,2.6c0.7,0.6,0.4,1.3,0.1,2c-0.2,0.7-0.3,1.4-1,2
				C135.4,254,133.7,251.9,131.3,249.9z"/>
			<path fill="#8D9B92" d="M138.1,252c-0.6-0.9-2.1-0.8-1.6-2c0.3-0.7,1.6-1.5,2-1C139.1,249.7,138.4,250.8,138.1,252z"/>
			<path fill="#070C0D" d="M119.4,123.1c-0.3-0.5,0-0.8,0.2-1.2c2.4-3.5,5.6-6.3,9.3-8.5c0.3-0.2,0.7-0.6,1-0.2
				c0.4,0.5-0.2,0.7-0.5,0.8c-3.8,2.2-6.9,5-9.3,8.6C120,123,119.8,123.2,119.4,123.1z"/>
			<path fill="#090E0F" d="M137.4,117c-3.9,1.2-7.1,3.4-9.4,7.1C127.6,121.2,134.3,116.2,137.4,117z"/>
			<path fill="#090E10" d="M121,137.7c1,4.2,4.5,5.8,8,7.7C125.5,145.8,120.4,140.8,121,137.7z"/>
			<path fill="#090E0F" d="M137.1,145.5c-0.6,0.4-1.1-0.1-1.6-0.4c-2.7-1.5-4.7-3.6-6.6-6c-0.2-0.2-0.5-0.5-0.2-0.8
				c0.4-0.4,0.6,0,0.8,0.3c2.1,2.7,4.6,5,7.6,6.5C137.1,145.1,137,145.3,137.1,145.5z"/>
			<path fill="#080808" d="M133,192.6c1,0.1,1.8,0.5,1.8,1.7c0,1.2-0.8,1.7-2,1.7c-1.1,0-1.9-0.6-1.9-1.7
				C130.9,193.1,131.8,192.6,133,192.6z"/>
			<path fill="#080808" d="M114.1,193.5c-0.1,1.3-0.7,2-1.9,2c-1.2,0-1.9-0.7-1.8-1.9c0-1.1,0.6-1.7,1.8-1.8
				C113.4,191.8,113.9,192.5,114.1,193.5z"/>
		</g>
	</g>
</g>
<g id="Calque_3">
	<path fill="#F0F1F2" d="M146.3,10.4C73.8,10.4,15,69.2,15,141.7S73.8,273,146.3,273s131.3-58.8,131.3-131.3S218.8,10.4,146.3,10.4z
		 M146.3,262.7c-66.8,0-121-54.2-121-121s54.2-121,121-121s121,54.2,121,121S213.2,262.7,146.3,262.7z"/>
</g>
</svg>
