<?xml version="1.0" encoding="utf-8"?>
<!-- Generator: Adobe Illustrator 17.1.0, SVG Export Plug-In . SVG Version: 6.00 Build 0)  -->
<!DOCTYPE svg PUBLIC "-//W3C//DTD SVG 1.1//EN" "http://www.w3.org/Graphics/SVG/1.1/DTD/svg11.dtd" [
	<!ENTITY ns_extend "http://ns.adobe.com/Extensibility/1.0/">
	<!ENTITY ns_ai "http://ns.adobe.com/AdobeIllustrator/10.0/">
	<!ENTITY ns_graphs "http://ns.adobe.com/Graphs/1.0/">
	<!ENTITY ns_vars "http://ns.adobe.com/Variables/1.0/">
	<!ENTITY ns_imrep "http://ns.adobe.com/ImageReplacement/1.0/">
	<!ENTITY ns_sfw "http://ns.adobe.com/SaveForWeb/1.0/">
	<!ENTITY ns_custom "http://ns.adobe.com/GenericCustomNamespace/1.0/">
	<!ENTITY ns_adobe_xpath "http://ns.adobe.com/XPath/1.0/">
]>
<svg version="1.1" xmlns:x="&ns_extend;" xmlns:i="&ns_ai;" xmlns:graph="&ns_graphs;"
	 xmlns="http://www.w3.org/2000/svg" xmlns:xlink="http://www.w3.org/1999/xlink" x="0px" y="0px" viewBox="0 0 283.5 283.5"
	 enable-background="new 0 0 283.5 283.5" xml:space="preserve">
<metadata>
	<sfw  xmlns="&ns_sfw;">
		<slices></slices>
		<sliceSourceBounds  height="267.5" width="267.5" bottomLeftOrigin="true" x="9.6" y="12.5"></sliceSourceBounds>
	</sfw>
</metadata>
<g id="Calque_2">
	<circle fill="#E5E681" cx="142.6" cy="142.6" r="127.4"/>
</g>
<g id="Calque_1">
	<g id="Calque_3">
		<g>
			<path fill="none" d="M43.3,207.4c-0.2,0.1-0.3,0.1-0.6,0.2C42.9,207.5,43.2,207.5,43.3,207.4z"/>
			<path fill="none" d="M44.4,207c-0.2,0.1-0.3,0.2-0.5,0.2C44,207.2,44.2,207.1,44.4,207z"/>
			<path fill="none" d="M42.2,207.8c-0.2,0.1-0.4,0.1-0.6,0.2C41.8,207.9,42,207.8,42.2,207.8z"/>
			<path fill="none" d="M180.7,136.8L180.7,136.8L180.7,136.8z"/>
			<path fill="none" d="M180.3,135.6L180.3,135.6L180.3,135.6z"/>
			<path fill="none" d="M141.8,230c0.1-0.3,0.3-0.7,0.3-1.1C142,229.3,141.9,229.6,141.8,230z"/>
			<path fill="none" d="M45.3,206.6c-0.2,0.1-0.3,0.2-0.4,0.3C45,206.7,45.2,206.7,45.3,206.6z"/>
			<path fill="none" d="M143.8,224.7c0.1-0.3,0.3-0.5,0.3-0.7C144.1,224.3,144,224.4,143.8,224.7z"/>
			<path fill="none" d="M142.3,228.6c0.1-0.3,0.3-0.6,0.3-0.9C142.6,227.9,142.4,228.2,142.3,228.6z"/>
			<path fill="none" d="M144.4,223.6c0.1-0.3,0.3-0.4,0.3-0.7C144.7,223.1,144.5,223.3,144.4,223.6z"/>
			<path fill="none" d="M143.3,225.9c0.1-0.3,0.3-0.5,0.3-0.8C143.6,225.4,143.4,225.7,143.3,225.9z"/>
			<path fill="none" d="M142.8,227.2c0.1-0.3,0.3-0.6,0.3-0.9C143,226.7,142.9,226.9,142.8,227.2z"/>
			<path fill="none" d="M175.9,131.3L175.9,131.3L175.9,131.3z"/>
			<path fill="none" d="M159.5,130h0.4c0-0.1-0.1-0.2-0.1-0.3L159.5,130z"/>
			<path fill="none" d="M46.1,206.1c-0.1,0.1-0.2,0.2-0.3,0.2C45.9,206.2,46,206.1,46.1,206.1z"/>
			<path fill="none" d="M173.1,130.8C173.1,130.8,173.2,130.8,173.1,130.8C173.2,130.8,173.2,130.8,173.1,130.8z"/>
			<path fill="none" d="M178.6,133C178.6,133,178.6,133.1,178.6,133C178.6,133.1,178.6,133,178.6,133z"/>
			<path fill="none" d="M46.8,205.6L46.8,205.6C46.7,205.7,46.8,205.7,46.8,205.6z"/>
			<path fill="none" d="M177.5,93.8c-0.3-0.5-0.3-0.9-0.3-1C177.2,92.9,177.3,93.3,177.5,93.8z"/>
			<path fill="none" d="M173.7,130.9L173.7,130.9L173.7,130.9z"/>
			<path fill="none" d="M145.1,222.5c0.1-0.3,0.3-0.4,0.3-0.6C145.3,222,145.1,222.3,145.1,222.5z"/>
			<path fill="none" d="M177.1,92.7C177.1,92.7,177.1,92.6,177.1,92.7C177.1,92.6,177.1,92.7,177.1,92.7z"/>
			<path fill="none" d="M178,132.5L178,132.5L178,132.5z"/>
			<path fill="none" d="M174.7,130.9L174.7,130.9L174.7,130.9z"/>
			<path fill="none" d="M173.4,130.8L173.4,130.8L173.4,130.8z"/>
			<path fill="none" d="M175.3,131.1L175.3,131.1L175.3,131.1z"/>
			<path fill="none" d="M139.9,236.7c0.5-2.1,1.1-4.3,1.9-6.6c-0.8,2.3-1.4,4.6-1.9,6.7c0.3,0,0.4,0.1,0.7,0.1
				C140.2,236.9,140,236.8,139.9,236.7z"/>
			<path fill="none" d="M178.3,147.6c0.1-0.1,0.2-0.1,0.2-0.2C178.4,147.5,178.3,147.6,178.3,147.6z"/>
			<path fill="none" d="M157.1,225.5c0.2,0.3,0.3,0.4,0.4,0.7C157.3,225.9,157.2,225.7,157.1,225.5z"/>
			<path fill="none" d="M91.2,232.3L91.2,232.3C91.2,232.3,91.2,232.3,91.2,232.3z"/>
			<path fill="none" d="M155.7,223.5c0.2,0.2,0.3,0.4,0.4,0.6C155.9,223.8,155.8,223.7,155.7,223.5z"/>
			<path fill="none" d="M156.4,224.4c0.2,0.2,0.3,0.4,0.4,0.6C156.7,224.9,156.5,224.7,156.4,224.4z"/>
			<path fill="none" d="M178.1,147.7c-1.8,1.3-4.7,2.2-9.4,1.9C173.5,150,176.4,149.1,178.1,147.7z"/>
			<path fill="none" d="M158.8,228.5c0.2,0.3,0.3,0.6,0.4,0.9C159.1,229.1,159,228.8,158.8,228.5z"/>
			<path fill="none" d="M159.2,229.5c0.6,1.3,1.2,2.6,1.6,3.8C160.4,232,159.9,230.7,159.2,229.5z"/>
			<path fill="none" d="M91.2,233.5c0-0.1,0-0.1,0-0.2C91.2,233.4,91.2,233.4,91.2,233.5z"/>
			<path fill="none" d="M161,233.8c-0.1-0.2-0.1-0.3-0.2-0.4C160.9,233.4,161,233.6,161,233.8L161,233.8z"/>
			<path fill="none" d="M157.7,226.5c0.2,0.3,0.3,0.4,0.4,0.7C157.9,226.9,157.8,226.7,157.7,226.5z"/>
			<path fill="none" d="M154.9,222.5c0.2,0.2,0.3,0.4,0.5,0.6C155.2,222.9,155.1,222.6,154.9,222.5z"/>
			<path fill="none" d="M142.9,216.6c4.2,0.5,7.1,0.7,7.1,0.7s3.5-1,7.5-2.6C154,215.5,149.2,216.2,142.9,216.6z"/>
			<path fill="none" d="M91.3,231.3L91.3,231.3L91.3,231.3z"/>
			<path fill="none" d="M147.7,218.8c0.3-0.3,0.5-0.4,0.8-0.7C148.2,218.4,147.9,218.7,147.7,218.8z"/>
			<path fill="none" d="M147,219.6c0.2-0.2,0.3-0.3,0.5-0.6C147.3,219.3,147.1,219.4,147,219.6z"/>
			<path fill="none" d="M146.3,220.5c0.2-0.2,0.3-0.3,0.4-0.6C146.6,220.1,146.4,220.3,146.3,220.5z"/>
			<path fill="none" d="M154.1,221.4c0.2,0.2,0.3,0.4,0.5,0.6C154.5,221.9,154.3,221.7,154.1,221.4z"/>
			<path fill="none" d="M149.9,217.3c-0.5,0.3-1,0.5-1.5,0.9h2.5C150.7,217.9,150.3,217.6,149.9,217.3z"/>
			<path fill="none" d="M153.2,220.4c0.2,0.3,0.4,0.4,0.6,0.7C153.6,220.8,153.4,220.6,153.2,220.4z"/>
			<path fill="none" d="M145.7,221.4c0.2-0.2,0.3-0.4,0.4-0.6C145.9,221.1,145.8,221.3,145.7,221.4z"/>
			<path fill="none" d="M151,218.2c0.3,0.3,0.6,0.6,0.9,0.9C151.6,218.8,151.4,218.6,151,218.2z"/>
			<path fill="none" d="M152.2,219.4c0.3,0.3,0.4,0.4,0.7,0.7C152.7,219.9,152.5,219.6,152.2,219.4z"/>
			<path fill="none" d="M177.1,89.1c0-0.3-0.1-0.4-0.1-0.7C177,88.5,177,88.8,177.1,89.1z"/>
			<path fill="none" d="M129.1,74.1c-0.3,0.1-0.4,0.2-0.7,0.3C128.6,74.2,128.9,74.2,129.1,74.1z"/>
			<path fill="none" d="M120.3,78.1c-0.3,0.2-0.5,0.3-0.7,0.4C119.8,78.4,120,78.3,120.3,78.1z"/>
			<path fill="none" d="M125,75.7c-0.3,0.1-0.5,0.2-0.7,0.3C124.5,75.9,124.8,75.8,125,75.7z"/>
			<path fill="none" d="M123.5,76.4c-0.3,0.1-0.5,0.3-0.8,0.3C123,76.6,123.2,76.5,123.5,76.4z"/>
			<path fill="none" d="M121.8,77.2c-0.3,0.2-0.5,0.3-0.8,0.4C121.3,77.5,121.6,77.3,121.8,77.2z"/>
			<path fill="none" d="M127.4,74.6c-0.3,0.1-0.4,0.2-0.7,0.3C127,74.8,127.3,74.7,127.4,74.6z"/>
			<path fill="none" d="M133.9,72.7c-0.2,0-0.3,0.1-0.4,0.1C133.6,72.8,133.7,72.7,133.9,72.7z"/>
			<path fill="none" d="M130.7,73.6c-0.3,0.1-0.4,0.2-0.7,0.2C130.3,73.7,130.5,73.6,130.7,73.6z"/>
			<path fill="none" d="M141.1,71.4L141.1,71.4L141.1,71.4z"/>
			<path fill="none" d="M132.4,73.1c-0.2,0.1-0.4,0.1-0.6,0.2C131.9,73.3,132.2,73.2,132.4,73.1z"/>
			<path fill="none" d="M112.8,84.1c-0.4,0.4-0.8,0.9-1.2,1.4C112.1,84.9,112.4,84.5,112.8,84.1z"/>
			<path fill="none" d="M175.3,83.2L175.3,83.2L175.3,83.2z"/>
			<path fill="none" d="M172.3,79.2C172.3,79.3,172.3,79.3,172.3,79.2C172.3,79.3,172.3,79.3,172.3,79.2z"/>
			<path fill="none" d="M21.8,142.2c0,3.1,0.1,6.2,0.3,9.2l9.8,15.5c0,0,9.3,7.3,12,7.3l8.1-7.8c0,0,4.8-6,12.3-0.2
				c7.3,5.8-0.5,12-0.5,12l-10.4,13.1c0,0,0,5.5-2.8,10.2c6.5,0.2,6.1,5.1,5,8.8c-0.7,2.2-1.7,4.1-1.7,4.1c4.7,0.9,4.8,6.9,3.6,13.1
				c3.2,3.2,6.6,6.2,10.2,9.1c11.7-3.8,21.2-5.9,23.9-6.4l0,0c0.4-3.5,1.7-5.6,3.2-6.8c0.4-0.3,0.8-0.6,1.2-0.8
				c-0.5-0.5-0.8-0.8-0.8-0.8c-2.8-8.3,3.6-18.3,3.6-18.3c2.2,4.1,11.2,7.2,21.1,9.3c-10.9-3.6-20-8.6-20-8.6l-0.6-16
				c-6.9-0.6-18-4.9-21.6-25c0,0-9.2-63.3,11-96.3c0,0,0.6-0.5,1.8-1.5c4.3-3.2,16.1-10.7,35.7-14.2c6.2-1.1,13.3-1.8,21.2-1.8
				c0,0,1.7,0,4.4,0.1c5.4,0.3,14.6,1.3,22.4,4.9c6.3,2.8,11.7,7.4,13.1,14.6c0.3,1,0.3,2.2,0.4,3.3c0.6,15.2-5.5,19.9-10,21.4
				c0.6,1.3,1.9,3.3,4.8,4.1c4.4,1.2,1.6,11.2,1.6,11.2l0,0c4.4,2.9,7.3,8,7.3,13.7c0,6.9-4.2,12.8-10.3,15.3l0,0
				c0.2,1,0.3,2.2,0.2,3.5c0,0,0.3,2.7-1.6,4.9l1.3-0.1c4.4,0.8,20.5,16.8,20.5,16.8c4,4.8-0.4,5.6-0.4,5.6c-12.6,4.7-26.5,6-38.4,6
				l-0.5,5.3c0,0,15.3,11.2,2,17.7v13.9c2-1.1,3.7-2.3,4.4-3.6c0,0,8.3,10.1,8.3,13.7c0,0-0.2,0.8-0.7,2.1c6,2.4,20.5,8.5,35.9,16.9
				c31-21.8,51.2-57.8,51.2-98.7c0-66.7-54-120.6-120.6-120.6S21.8,75.6,21.8,142.2z"/>
			<path fill="none" d="M139.4,71.7L139.4,71.7L139.4,71.7L139.4,71.7z"/>
			<path fill="none" d="M118.7,79c-0.3,0.2-0.4,0.3-0.7,0.5C118.3,79.4,118.5,79.2,118.7,79z"/>
			<path fill="none" d="M177.2,91.1c0,0.5,0,1-0.1,1.6C177.2,92.1,177.2,91.7,177.2,91.1z"/>
			<path fill="none" d="M113.3,83.6c0.3-0.3,0.6-0.6,0.9-0.9C113.8,83,113.5,83.4,113.3,83.6z"/>
			<path fill="none" d="M117.3,80.1c-0.3,0.2-0.4,0.3-0.7,0.5C116.7,80.4,117,80.3,117.3,80.1z"/>
			<path fill="none" d="M115.8,81.3c-0.4,0.3-0.8,0.7-1.2,1C114.9,82,115.4,81.6,115.8,81.3z"/>
			<path fill="none" d="M155.2,71.1C155.2,71,155.2,71,155.2,71.1C155.2,71,155.2,71,155.2,71.1z"/>
			<path fill="none" d="M161.8,72.9c-0.1,0-0.3-0.1-0.3-0.1C161.5,72.8,161.7,72.9,161.8,72.9z"/>
			<path fill="none" d="M169.6,77c-0.1-0.1-0.1-0.1-0.2-0.2C169.4,76.9,169.5,76.9,169.6,77z"/>
			<path fill="none" d="M170.5,77.7c-0.1-0.1-0.1-0.1-0.2-0.2C170.4,77.6,170.4,77.7,170.5,77.7z"/>
			<path fill="none" d="M166.3,74.9c-0.1,0-0.2-0.1-0.2-0.1S166.2,74.9,166.3,74.9z"/>
			<path fill="none" d="M165.1,74.3c-0.1,0-0.2-0.1-0.3-0.1C164.9,74.2,165,74.3,165.1,74.3z"/>
			<path fill="none" d="M171.4,78.4L171.4,78.4C171.3,78.4,171.4,78.4,171.4,78.4z"/>
			<path fill="none" d="M167.4,75.6c-0.1,0-0.1-0.1-0.2-0.1C167.3,75.5,167.3,75.5,167.4,75.6z"/>
			<path fill="none" d="M173.1,80.2L173.1,80.2L173.1,80.2z"/>
			<path fill="none" d="M176.8,87.6c0-0.2-0.1-0.3-0.1-0.4C176.7,87.3,176.8,87.5,176.8,87.6z"/>
			<path fill="none" d="M155.7,71.2C155.6,71.1,155.6,71.1,155.7,71.2C155.6,71.1,155.6,71.1,155.7,71.2z"/>
			<path fill="none" d="M173.9,81.1L173.9,81.1L173.9,81.1z"/>
			<path fill="none" d="M158.3,227.5c0.2,0.3,0.3,0.5,0.4,0.8C158.5,228,158.4,227.7,158.3,227.5z"/>
			<path fill="none" d="M164,73.8c-0.1-0.1-0.2-0.1-0.3-0.1C163.8,73.7,163.9,73.8,164,73.8z"/>
			<path fill="none" d="M157.9,71.7c-0.1,0-0.2-0.1-0.3-0.1C157.7,71.6,157.8,71.7,157.9,71.7z"/>
			<path fill="none" d="M158.8,72c-0.1,0-0.2-0.1-0.3-0.1C158.6,71.9,158.7,71.9,158.8,72z"/>
			<path fill="none" d="M156.4,71.3c-0.1,0-0.1,0-0.2,0C156.3,71.3,156.4,71.3,156.4,71.3z"/>
			<path fill="none" d="M157.1,71.4c-0.1,0-0.2,0-0.3-0.1C157,71.4,157.1,71.4,157.1,71.4z"/>
			<path fill="none" d="M159.7,72.2c-0.1,0-0.2-0.1-0.3-0.1C159.6,72.1,159.6,72.2,159.7,72.2z"/>
			<path fill="none" d="M162.8,73.3c-0.1,0-0.2-0.1-0.3-0.1C162.7,73.3,162.8,73.3,162.8,73.3z"/>
			<path fill="none" d="M177.2,90.6c0-0.3,0-0.6,0-0.9C177.2,90,177.2,90.3,177.2,90.6z"/>
			<path fill="none" d="M160.8,72.6c-0.1,0-0.3-0.1-0.3-0.1C160.5,72.5,160.6,72.5,160.8,72.6z"/>
			<path fill="#FFCC00" stroke="#000000" stroke-width="2" d="M42.2,207.8c0.2-0.1,0.3-0.1,0.5-0.2c0.2-0.1,0.3-0.1,0.6-0.2
				c0.2-0.1,0.3-0.1,0.5-0.2c0.2-0.1,0.3-0.2,0.5-0.2c0.2-0.1,0.3-0.2,0.5-0.3c0.2-0.1,0.3-0.2,0.4-0.3c0.2-0.1,0.3-0.2,0.5-0.3
				c0.1-0.1,0.2-0.2,0.3-0.2c0.2-0.1,0.3-0.3,0.5-0.3l0.1-0.1c1.6-1.1,2.7-2.5,3.5-3.9l0,0c2.8-4.7,2.8-10.2,2.8-10.2l10.4-13.2
				c0,0,7.9-6.3,0.5-12c-7.3-5.8-12.3,0.2-12.3,0.2l-8.1,7.8c-2.7,0-12-7.3-12-7.3L22,151.6c1.6,20.7,8.4,40.1,19.2,56.6
				c0.1,0,0.3,0,0.3-0.1C41.8,207.9,42,207.8,42.2,207.8z"/>
			<path fill="#FFCC00" stroke="#000000" stroke-width="2" d="M42.2,207.8c0.2-0.1,0.3-0.1,0.5-0.2c0.2-0.1,0.3-0.1,0.6-0.2
				c0.2-0.1,0.3-0.1,0.5-0.2c0.2-0.1,0.3-0.2,0.5-0.2c0.2-0.1,0.3-0.2,0.5-0.3c0.2-0.1,0.3-0.2,0.4-0.3c0.2-0.1,0.3-0.2,0.5-0.3
				c0.1-0.1,0.2-0.2,0.3-0.2c0.2-0.1,0.3-0.3,0.5-0.3l0.1-0.1c1.6-1.1,2.7-2.5,3.5-3.9l0,0c2.8-4.7,2.8-10.2,2.8-10.2l10.4-13.2
				c0,0,7.9-6.3,0.5-12c-7.3-5.8-12.3,0.2-12.3,0.2l-8.1,7.8c-2.7,0-12-7.3-12-7.3s1.1-14.5-9.8-23.2c-4.5-3.6-0.3,16.6,2.8,26.4
				c4.4,13.7,9.9,28.2,16.2,37.9c0.1,0,0.3,0,0.3-0.1C41.8,207.9,42,207.8,42.2,207.8z"/>
			<path fill="#FFCC00" d="M145.6,174c0.1,0,0.1,0,0.2,0C145.7,174,145.7,174,145.6,174z"/>
			<path fill="#FFCC00" d="M142.9,173.8L142.9,173.8L142.9,173.8z"/>
			<path fill="#FFCC00" d="M146.5,174.1c0.1,0,0.1,0,0.2,0C146.7,174.1,146.6,174.1,146.5,174.1z"/>
			<path fill="#FFCC00" d="M135.3,172.6c0.1,0,0.1,0,0.2,0C135.4,172.6,135.3,172.6,135.3,172.6z"/>
			<path fill="#FFCC00" d="M135.8,172.7L135.8,172.7C135.9,172.7,135.8,172.7,135.8,172.7z"/>
			<path fill="#FFCC00" d="M136.3,172.8C136.4,172.8,136.4,172.8,136.3,172.8C136.4,172.8,136.4,172.8,136.3,172.8z"/>
			<path fill="#FFCC00" d="M143.8,173.8L143.8,173.8C143.8,173.8,143.8,173.8,143.8,173.8z"/>
			<path fill="#FFCC00" d="M150.8,174.5c0.1,0,0.1,0,0.2,0C150.8,174.5,150.8,174.5,150.8,174.5z"/>
			<path fill="#FFCC00" d="M151.9,174.5L151.9,174.5L151.9,174.5z"/>
			<path fill="#FFCC00" d="M147.6,174.2c0.1,0,0.2,0,0.2,0C147.6,174.2,147.6,174.2,147.6,174.2z"/>
			<path fill="#FFCC00" d="M149.6,174.4c0.1,0,0.2,0,0.2,0S149.7,174.4,149.6,174.4z"/>
			<path fill="#FFCC00" d="M148.6,174.3c0.1,0,0.2,0,0.2,0C148.7,174.4,148.7,174.3,148.6,174.3z"/>
			<path fill="#FFCC00" d="M144.6,173.9c0.1,0,0.1,0,0.2,0C144.7,173.9,144.7,173.9,144.6,173.9z"/>
			<path fill="#FFCC00" d="M132.9,172.2L132.9,172.2L132.9,172.2z"/>
			<path fill="#FFCC00" d="M134.8,172.6L134.8,172.6C134.9,172.6,134.9,172.6,134.8,172.6z"/>
			<path fill="#FFCC00" d="M133.3,172.3L133.3,172.3L133.3,172.3z"/>
			<path fill="#FFCC00" d="M133.1,172.2C133.1,172.2,133.1,172.3,133.1,172.2C133.1,172.3,133.1,172.2,133.1,172.2z"/>
			<path fill="#FFCC00" stroke="#000000" stroke-width="2" d="M157.5,214.7c2.2-0.9,4.4-1.9,6.4-2.9v-13.9c13.2-6.4-2-17.7-2-17.7
				l0.5-5.3c-3.3,0-6.5-0.1-9.4-0.3l0,0v9.9c11.4,4.2,1.6,4.8-6.3,4.7c-4.1-0.1-7.8-0.3-7.8-0.3c-13.7-1.7-20-6.4-22.8-10.7
				c-3-4.7-2.1-9-2.1-9c1.2-8.6,13.4-7.1,20.9-5l-4.4,4.2l17.3-16.5c6.4-5.2,11.2-4.1,11.2-4.1l1.8-0.2c3.1,0.9,5.7,1.5,7.9,1.6
				c4.7,0.3,7.6-0.6,9.4-1.9l0.1-0.1c0.1-0.1,0.2-0.1,0.2-0.2c0.3-0.3,0.7-0.6,0.9-0.9h0.1c2-2.2,1.6-4.9,1.6-4.9
				c0.1-1.4,0-2.5-0.2-3.5c-0.1-0.4-0.2-0.9-0.3-1.3v-0.1c-0.1-0.3-0.3-0.8-0.3-1v-0.1c-0.4-1-1-1.9-1.6-2.5l0,0
				c-0.2-0.2-0.4-0.4-0.6-0.6l0,0c-0.7-0.5-1.4-0.9-2-1.1l0,0c-0.2-0.1-0.4-0.2-0.6-0.2l0,0c-0.2-0.1-0.4-0.1-0.6-0.2l0,0
				c-0.3-0.1-0.7-0.1-0.9-0.2l0,0c-0.1,0-0.3,0-0.3,0l0,0c-0.1,0-0.2,0-0.2,0l0,0h-0.1l-13.2-0.8l0,0h-0.4l0.3-0.3
				c-0.9-2.1-1.6-4.4-1.6-6.9c0-9.2,7.4-16.5,16.5-16.5c3.5,0,6.6,1,9.2,2.8l0,0c0,0,2.8-10-1.6-11.2c-2.9-0.8-4.2-2.8-4.8-4.1l0,0
				l0,0c-0.3-0.5-0.3-0.9-0.3-1l0,0c0-0.1,0-0.1,0-0.1c0.1-0.5,0.1-1,0.1-1.6c0-0.2,0-0.3,0-0.5c0-0.3,0-0.6,0-0.9s0-0.4-0.1-0.7
				c0-0.3-0.1-0.4-0.1-0.7c0-0.3-0.1-0.5-0.1-0.7c0-0.2-0.1-0.3-0.1-0.4c-0.3-1.5-0.9-2.8-1.5-4l0,0c-0.4-0.7-0.9-1.4-1.4-2.1l0,0
				c-0.3-0.3-0.5-0.6-0.8-0.9l0,0c-0.3-0.3-0.5-0.6-0.8-0.9l-0.1-0.1c-0.3-0.3-0.5-0.5-0.8-0.8l-0.1-0.1c-0.3-0.3-0.5-0.4-0.8-0.7
				c-0.1-0.1-0.1-0.1-0.2-0.2c-0.3-0.2-0.5-0.4-0.8-0.6c-0.1-0.1-0.1-0.1-0.2-0.2c-0.3-0.2-0.5-0.3-0.8-0.5
				c-0.3-0.3-0.8-0.5-1.1-0.7c-0.1,0-0.1-0.1-0.2-0.1c-0.3-0.2-0.7-0.3-1-0.6c-0.1,0-0.2-0.1-0.2-0.1c-0.3-0.2-0.6-0.3-0.9-0.4
				c-0.1,0-0.2-0.1-0.3-0.1c-0.3-0.2-0.6-0.3-0.9-0.4c-0.1-0.1-0.2-0.1-0.3-0.1c-0.3-0.1-0.5-0.3-0.8-0.3c-0.1,0-0.2-0.1-0.3-0.1
				c-0.3-0.1-0.5-0.2-0.8-0.3c-0.1,0-0.3-0.1-0.3-0.1c-0.3-0.1-0.5-0.2-0.7-0.3c-0.1,0-0.3-0.1-0.3-0.1c-0.3-0.1-0.4-0.2-0.7-0.3
				c-0.1,0-0.3-0.1-0.3-0.1c-0.2-0.1-0.4-0.1-0.6-0.2c-0.1,0-0.2-0.1-0.3-0.1c-0.2-0.1-0.3-0.1-0.6-0.2c-0.1,0-0.2-0.1-0.3-0.1
				c-0.2-0.1-0.3-0.1-0.5-0.2c-0.1,0-0.2,0-0.3-0.1c-0.2,0-0.3-0.1-0.5-0.1c-0.1,0-0.2,0-0.2,0c-0.2-0.1-0.4-0.1-0.5-0.1H156
				c-0.2,0-0.3-0.1-0.3-0.1h-0.1c-0.3,0-0.3-0.1-0.4-0.1h-0.1c0,0-5.9-0.5-13.6,0.5l0,0c-0.5,0.1-1,0.2-1.6,0.2l0,0
				c-1.8,0.3-3.6,0.6-5.5,1c-0.2,0-0.3,0.1-0.4,0.1c-0.3,0.1-0.7,0.2-1,0.3c-0.2,0.1-0.4,0.1-0.6,0.2c-0.3,0.1-0.7,0.2-1,0.3
				c-0.3,0.1-0.4,0.2-0.7,0.2c-0.3,0.1-0.7,0.2-0.9,0.3c-0.3,0.1-0.4,0.2-0.7,0.3c-0.3,0.1-0.6,0.3-0.9,0.3
				c-0.3,0.1-0.4,0.2-0.7,0.3c-0.6,0.3-1.2,0.4-1.7,0.7c-0.3,0.1-0.5,0.2-0.7,0.3c-0.3,0.2-0.6,0.3-0.9,0.4
				c-0.3,0.1-0.5,0.3-0.8,0.3c-0.3,0.2-0.6,0.3-0.9,0.4s-0.5,0.3-0.8,0.4c-0.3,0.2-0.5,0.3-0.9,0.5c-0.3,0.2-0.5,0.3-0.7,0.4
				c-0.3,0.2-0.5,0.3-0.8,0.5c-0.3,0.2-0.4,0.3-0.7,0.5c-0.3,0.2-0.5,0.3-0.8,0.6c-0.3,0.2-0.4,0.3-0.7,0.5
				c-0.3,0.2-0.5,0.3-0.8,0.6c0,0,0,0-0.1,0c-0.4,0.3-0.8,0.7-1.2,1c-0.2,0.2-0.3,0.3-0.4,0.4c-0.3,0.3-0.6,0.6-0.9,0.9
				c-0.2,0.2-0.3,0.3-0.4,0.4c-0.4,0.4-0.8,0.9-1.2,1.4c-13.6,16.8-3.6,53-3.6,53c1.6,20.9-6.4,16.1-6.4,16.1
				c-4.4,1.2-6.8-4.4-6.8-4.4l-0.4-18.5c0,0-16.5,2-15.3,18c1.2,16.1,18.9,9.7,18.9,9.7l1,28.9l0,0l0.6,16c0,0,9.2,4.9,20,8.6
				c8.3,1.8,17.3,3,23.2,3.7C149.2,216.2,154,215.5,157.5,214.7z M138.9,106.3c10.1,0,18.3,8.2,18.3,18.3s-8.2,18.3-18.3,18.3
				c-10.1,0-18.3-8.2-18.3-18.3C120.5,114.5,128.8,106.3,138.9,106.3z"/>
			<path fill="#FFCC00" d="M132.5,172.1C132.5,172.1,132.5,172.1,132.5,172.1S132.5,172.1,132.5,172.1z"/>
			<path fill="#FFCC00" d="M132.7,172.2L132.7,172.2L132.7,172.2z"/>
			<path fill="#FFCC00" d="M134.3,172.5c0.1,0,0.1,0,0.2,0C134.4,172.5,134.4,172.5,134.3,172.5z"/>
			<path fill="#FFCC00" d="M133.7,172.4L133.7,172.4C133.7,172.4,133.7,172.4,133.7,172.4z"/>
			<path fill="#FFCC00" d="M134,172.4L134,172.4C134.1,172.5,134,172.4,134,172.4z"/>
			<path fill="#7F4408" stroke="#000000" stroke-width="2" d="M178.5,147.4c-0.1,0.1-0.2,0.1-0.2,0.2l-0.1,0.1
				c-1.8,1.4-4.7,2.3-9.4,1.9c-2.2-0.2-4.8-0.7-7.9-1.6l-1.8,0.2c0,0-4.8-1.2-11.2,4.1l-17.3,16.5c0,0-2.4,4,2,3.6c0,0,0,0,0.1,0
				h0.1c0,0,0,0,0.1,0h0.1c0,0,0,0,0.1,0s0.1,0,0.2,0h0.1c0.1,0,0.1,0,0.2,0h0.1c0.1,0,0.2,0,0.2,0h0.1c0.1,0,0.2,0,0.3,0.1h0.1
				c0.1,0,0.2,0,0.3,0.1c0.1,0,0.1,0,0.2,0c0.1,0,0.2,0,0.3,0.1h0.1c0.1,0,0.3,0,0.3,0.1c0.1,0,0.1,0,0.2,0c0.1,0,0.3,0.1,0.4,0.1
				h0.1c0.2,0,0.3,0.1,0.4,0.1h0.1c1.6,0.3,3.9,0.6,6.5,0.9c0,0,0,0,0.1,0c0.3,0,0.5,0.1,0.8,0.1h0.1c0.3,0,0.5,0.1,0.8,0.1
				c0.1,0,0.1,0,0.2,0c0.3,0,0.5,0.1,0.8,0.1c0.1,0,0.1,0,0.2,0c0.3,0,0.5,0.1,0.8,0.1c0.1,0,0.1,0,0.2,0c0.3,0,0.5,0.1,0.8,0.1
				c0.1,0,0.2,0,0.2,0c0.3,0,0.5,0.1,0.9,0.1c0.1,0,0.2,0,0.2,0c0.3,0,0.6,0.1,0.9,0.1c0.1,0,0.2,0,0.2,0c0.3,0,0.6,0.1,0.9,0.1
				c0.1,0,0.1,0,0.2,0c0.3,0,0.6,0.1,0.9,0.1h0.1c0.3,0,0.7,0.1,1,0.1c2.9,0.2,6.1,0.3,9.4,0.3c11.9,0,25.7-1.4,38.4-6
				c0,0,4.4-0.8,0.4-5.6c0,0-16.1-16.1-20.5-16.8l-1.3,0.1h-0.1C179.2,146.8,178.8,147.2,178.5,147.4z"/>
			<path d="M151.9,174.5c-0.3,0-0.6,0-0.9-0.1c-0.1,0-0.1,0-0.2,0c-0.3,0-0.6-0.1-0.9-0.1c-0.1,0-0.2,0-0.2,0
				c-0.3,0-0.6-0.1-0.9-0.1c-0.1,0-0.2,0-0.2,0c-0.3,0-0.5-0.1-0.9-0.1c-0.1,0-0.2,0-0.2,0c-0.3,0-0.5-0.1-0.8-0.1
				c-0.1,0-0.1,0-0.2,0c-0.3,0-0.5-0.1-0.8-0.1c-0.1,0-0.1,0-0.2,0c-0.3,0-0.5-0.1-0.8-0.1c-0.1,0-0.1,0-0.2,0
				c-0.3,0-0.5-0.1-0.8-0.1h-0.1c-0.3,0-0.5-0.1-0.8-0.1c0,0,0,0-0.1,0c-2.6-0.3-4.7-0.6-6.5-0.9h-0.1c-0.2,0-0.3-0.1-0.4-0.1H136
				c-0.2,0-0.3-0.1-0.4-0.1c-0.1,0-0.1,0-0.2,0c-0.1,0-0.3,0-0.3-0.1H135c-0.1,0-0.2,0-0.3-0.1c-0.1,0-0.1,0-0.2,0
				c-0.1,0-0.2,0-0.3-0.1h-0.1c-0.1,0-0.2,0-0.3-0.1h-0.1c-0.1,0-0.2,0-0.2,0h-0.1c-0.1,0-0.1,0-0.2,0h-0.1c-0.1,0-0.1,0-0.2,0
				c0,0,0,0-0.1,0h-0.1c0,0,0,0-0.1,0h-0.1c-0.1,0-0.1,0-0.1,0c-4.4,0.4-2-3.6-2-3.6l4.4-4.2c-7.5-2.1-19.7-3.6-20.9,5
				c0,0-0.9,4.3,2.1,9c3.2-0.6,9-0.9,15.2,2.2c0,0,11.1-4.6,15.4,8.7c7.9,0.1,17.7-0.4,6.3-4.7v-9.9l0,0c-0.3,0-0.7,0-1-0.1
				C152,174.5,151.9,174.5,151.9,174.5z"/>
			<path fill="#FF0000" d="M131.3,180.6c-6.2-3.2-12-2.8-15.2-2.2c2.8,4.3,9.1,9,22.8,10.7c0,0,3.6,0.3,7.8,0.3
				C142.5,176,131.3,180.6,131.3,180.6z"/>
			<path fill="#FFFFFF" stroke="#000000" stroke-width="2" d="M138.9,143c10.1,0,18.3-8.2,18.3-18.3s-8.2-18.3-18.3-18.3
				c-10.1,0-18.3,8.2-18.3,18.3C120.5,134.8,128.8,143,138.9,143z M131.6,122.3c1.8,0,3.3,1.5,3.3,3.3c0,1.8-1.5,3.3-3.3,3.3
				s-3.3-1.5-3.3-3.3C128.3,123.8,129.8,122.3,131.6,122.3z"/>
			<path fill="#FFFFFF" stroke="#000000" stroke-width="2" d="M158.2,122.8c0,2.5,0.6,4.8,1.6,6.9c0,0.1,0.1,0.2,0.1,0.3l0,0
				l13.2,0.8c0,0,0,0,0.1,0l0,0c0.1,0,0.1,0,0.2,0l0,0c0.1,0,0.2,0,0.3,0l0,0c0.3,0,0.6,0.1,0.9,0.2l0,0c0.2,0,0.3,0.1,0.6,0.2l0,0
				c0.2,0.1,0.4,0.1,0.6,0.2l0,0c0.7,0.3,1.4,0.6,2,1.1l0,0c0.2,0.2,0.4,0.3,0.6,0.6l0,0c0.6,0.6,1.2,1.5,1.6,2.5v0.1
				c0.2,0.3,0.3,0.7,0.3,1v0.1c0.1,0.4,0.2,0.8,0.3,1.3l0,0c6-2.5,10.3-8.4,10.3-15.3c0-5.7-2.9-10.7-7.3-13.7
				c-2.6-1.8-5.8-2.8-9.2-2.8C165.6,106.3,158.2,113.7,158.2,122.8z M177.4,127.9c-1.8,0-3.3-1.5-3.3-3.3c0-1.8,1.5-3.3,3.3-3.3
				c1.8,0,3.3,1.5,3.3,3.3C180.7,126.4,179.2,127.9,177.4,127.9z"/>
			<circle cx="131.6" cy="125.6" r="3.3"/>
			<circle cx="177.4" cy="124.6" r="3.3"/>
			<path fill="#7F4408" stroke="#000000" stroke-width="2" d="M115.8,81.2c0.3-0.2,0.5-0.4,0.8-0.6c0.3-0.2,0.4-0.3,0.7-0.5
				c0.3-0.2,0.5-0.3,0.8-0.6c0.3-0.2,0.4-0.3,0.7-0.5s0.5-0.3,0.8-0.5c0.3-0.2,0.5-0.3,0.7-0.4c0.3-0.2,0.5-0.3,0.9-0.5
				c0.3-0.2,0.5-0.3,0.8-0.4c0.3-0.2,0.5-0.3,0.9-0.4c0.3-0.1,0.5-0.3,0.8-0.3c0.3-0.2,0.6-0.3,0.9-0.4c0.3-0.1,0.5-0.2,0.7-0.3
				c0.6-0.3,1.2-0.5,1.7-0.7c0.3-0.1,0.4-0.2,0.7-0.3c0.3-0.1,0.6-0.3,0.9-0.3c0.3-0.1,0.4-0.2,0.7-0.3c0.3-0.1,0.7-0.2,0.9-0.3
				c0.3-0.1,0.4-0.2,0.7-0.2c0.3-0.1,0.7-0.2,1-0.3c0.2-0.1,0.4-0.1,0.6-0.2c0.3-0.1,0.7-0.2,1-0.3c0.2,0,0.3-0.1,0.4-0.1
				c1.9-0.4,3.8-0.8,5.5-1l0,0c0.3-14.6-7.8-19.1-13.5-20.4c-19.6,3.5-31.4,11-35.7,14.2C96.4,65.8,107.1,68.6,115.8,81.2z"/>
			<path fill="#7F4408" stroke="#000000" stroke-width="2" d="M139.4,71.7L139.4,71.7c0.5-0.1,1-0.2,1.6-0.2l0,0
				c7.7-0.9,13.6-0.5,13.6-0.5s0,0,0.1,0c5.1-12.5,0.8-18.6-3.1-21.4c-2.7-0.2-4.4-0.1-4.4-0.1c-7.9,0-14.9,0.7-21.2,1.8
				C131.7,52.6,139.8,57.1,139.4,71.7z"/>
			<path fill="#7F4408" stroke="#000000" stroke-width="2" d="M98,159.3c0,0-17.7,6.4-18.9-9.7c-1.2-16.1,15.3-18,15.3-18l0.4,18.5
				c0,0,2.4,5.6,6.8,4.4c0,0,8,4.8,6.4-16.1c0,0-10-36.2,3.6-53c0.3-0.4,0.8-0.9,1.2-1.4c0.2-0.2,0.3-0.3,0.4-0.4
				c0.3-0.3,0.6-0.6,0.9-0.9c0.2-0.2,0.3-0.3,0.4-0.4c0.3-0.3,0.8-0.7,1.2-1c0,0,0,0,0.1,0c-8.7-12.7-19.3-15.4-25.5-15.8
				c-1.2,0.9-1.8,1.5-1.8,1.5c-20.3,33-11.1,96.3-11.1,96.3c3.6,20.1,14.7,24.4,21.6,25l0,0L98,159.3z"/>
			<path fill="#7F4408" stroke="#000000" stroke-width="2" d="M154.6,70.9c0.1,0,0.3,0,0.4,0.1h0.1c0.1,0,0.3,0.1,0.3,0.1h0.1
				c0.2,0,0.3,0.1,0.5,0.1c0.1,0,0.1,0,0.2,0c0.2,0,0.3,0.1,0.5,0.1c0.1,0,0.2,0,0.3,0.1c0.2,0,0.3,0.1,0.5,0.2
				c0.1,0,0.2,0.1,0.3,0.1c0.2,0.1,0.3,0.1,0.6,0.2c0.1,0,0.2,0.1,0.3,0.1c0.2,0.1,0.4,0.1,0.6,0.2c0.1,0,0.2,0.1,0.3,0.1
				c0.3,0.1,0.4,0.2,0.7,0.3c0.1,0,0.3,0.1,0.3,0.1c0.3,0.1,0.5,0.2,0.7,0.3c0.1,0,0.2,0.1,0.3,0.1c0.3,0.1,0.5,0.2,0.8,0.3
				c0.1,0,0.2,0.1,0.3,0.1c0.3,0.1,0.5,0.3,0.8,0.3c0.1,0,0.2,0.1,0.3,0.1c0.3,0.1,0.6,0.3,0.9,0.4c0.1,0,0.2,0.1,0.3,0.1
				c0.3,0.2,0.6,0.3,0.9,0.4c0.1,0,0.2,0.1,0.2,0.1c0.3,0.2,0.7,0.3,1,0.6c0.1,0,0.1,0.1,0.2,0.1c0.3,0.3,0.8,0.4,1.1,0.7
				c8.7-7.8,6.8-17.6,5.4-21.8c-7.8-3.5-17.1-4.6-22.4-4.9C155.4,52.4,159.8,58.4,154.6,70.9z"/>
			<path fill="#7F4408" stroke="#000000" stroke-width="2" d="M175.3,83.2L175.3,83.2c0.7,1.2,1.2,2.5,1.5,4c0,0.2,0.1,0.3,0.1,0.4
				c0.1,0.3,0.1,0.5,0.1,0.7c0,0.3,0.1,0.4,0.1,0.7c0,0.3,0.1,0.4,0.1,0.7c0,0.3,0,0.6,0,0.9c0,0.2,0,0.3,0,0.5c0,0.5,0,1-0.1,1.6
				c0,0,0,0,0,0.1l0,0c0,0.2,0.2,0.5,0.3,1l0,0l0,0c4.5-1.5,10.6-6.2,10-21.4c-0.1-1.2-0.2-2.2-0.4-3.3
				C185.5,72.8,182.3,78.4,175.3,83.2z"/>
			<path fill="#7F4408" stroke="#000000" stroke-width="2" d="M168.5,76.3c0.3,0.2,0.5,0.3,0.8,0.5c0.1,0.1,0.2,0.1,0.2,0.2
				c0.3,0.2,0.5,0.4,0.8,0.6c0.1,0.1,0.1,0.1,0.2,0.2c0.3,0.3,0.5,0.4,0.8,0.7l0.1,0.1c0.3,0.3,0.5,0.5,0.8,0.8l0.1,0.1
				c0.3,0.3,0.5,0.5,0.8,0.9l0,0c0.3,0.3,0.5,0.6,0.8,0.9l0,0c0.5,0.7,0.9,1.4,1.4,2.1l0,0c7-4.7,10.4-10.4,11.9-14.2
				c-1.5-7.2-6.8-11.7-13.1-14.6C175.4,58.7,177.3,68.5,168.5,76.3z"/>
			<path fill="#1F7B26" stroke="#000000" stroke-width="2" d="M175.1,225.9c0.1,0.1,0.1,0.2,0.2,0.3c4.2,6.5,9.2,17.1,13.6,27.5
				c8.1-3.4,15.8-7.7,22.9-12.7c-15.5-8.5-29.9-14.5-35.9-16.9C175.7,224.5,175.4,225.1,175.1,225.9z"/>
			<path fill="#1F7B26" stroke="#000000" stroke-width="2" d="M50.3,201.7L50.3,201.7c-0.9,1.5-2.1,2.8-3.5,3.9l-0.1,0.1
				c-0.2,0.1-0.3,0.3-0.5,0.3c-0.1,0.1-0.2,0.2-0.3,0.2c-0.2,0.1-0.3,0.2-0.5,0.3c-0.2,0.1-0.3,0.2-0.4,0.3s-0.3,0.2-0.5,0.3
				s-0.3,0.2-0.5,0.2c-0.2,0.1-0.3,0.2-0.5,0.2c-0.2,0.1-0.3,0.1-0.6,0.2c-0.2,0.1-0.3,0.1-0.5,0.2c-0.2,0.1-0.4,0.1-0.6,0.2
				c-0.1,0-0.3,0-0.3,0.1c2,3.1,4.2,6.1,6.5,9.1c2.5-1.8,5.1-4,7.6-6.5C56.6,206.8,56.8,201.9,50.3,201.7z"/>
			<path fill="#1F7B26" stroke="#000000" stroke-width="2" d="M53.6,214.5c0,0,1-1.8,1.7-4.1c-2.6,2.5-5.1,4.7-7.6,6.5
				c2.9,3.7,6.1,7.3,9.5,10.7C58.5,221.4,58.4,215.4,53.6,214.5z"/>
			<path fill="#1F7B26" stroke="#000000" stroke-width="2" d="M91.2,233.5c0-0.1,0-0.1,0-0.2c0-0.3,0-0.7,0-0.9v-0.1
				c0-0.3,0-0.7,0.1-0.9l0,0c0-0.3,0.1-0.7,0.1-0.9l0,0c-2.8,0.6-12.3,2.6-23.9,6.4c6.4,5.1,13.3,9.5,20.5,13.2l3.3-15.2
				C91.2,234.3,91.2,233.9,91.2,233.5z"/>
			<path fill="#1F7B26" d="M95.7,222.6c-0.4,0.2-0.8,0.4-1.2,0.8c3.1,2.4,7.9,6,13.5,9.5C102.1,228.6,97.5,224.4,95.7,222.6z"/>
			<path fill="#1F7B26" d="M161.2,234.1c0-0.1-0.1-0.3-0.1-0.3l0,0C161.1,233.9,161.1,233.9,161.2,234.1z"/>
			<path fill="#1F7B26" d="M162.8,240.2c0,0-0.3-2.5-1.6-6.1c-9.1,5.6-16.2,4.7-20.7,2.8c-0.3,0-0.4-0.1-0.7-0.1
				c-1.2,4.9-1.8,8.8-1.8,8.8c-1.6,0.1-3.3-0.1-5-0.3c17.3,5.7,34.9,4.3,42.3-19.3c-0.1-0.1-0.1-0.2-0.2-0.3
				C173.4,230,169.7,236.2,162.8,240.2z"/>
			<path fill="#1F7B26" stroke="#000000" stroke-width="2" d="M133,245.4c-8.5-1.5-17.7-7-25-12.4c-5.6-3.6-10.4-7.1-13.5-9.5
				c-1.5,1.2-2.8,3.3-3.2,6.8c0,0.3-0.1,0.6-0.1,0.9l0,0c0,0.3,0,0.6-0.1,0.9v0.1c0,0.3,0,0.6,0,0.9c0,0.1,0,0.1,0,0.2
				c0,0.3,0,0.8,0.1,1.2L88,249.8c16.3,8.3,34.9,13,54.4,13c16.5,0,32.2-3.3,46.5-9.3c-4.4-10.4-9.4-21-13.6-27.5
				C167.8,249.7,150.2,251,133,245.4z"/>
			<path fill="#F5BEDD" stroke="#000000" stroke-width="2" d="M133,245.4c1.7,0.3,3.4,0.4,5,0.3c0,0,0.6-3.9,1.8-8.8
				c0.5-2.2,1.2-4.5,1.9-6.7c0-0.1,0.1-0.2,0.1-0.2c0.1-0.3,0.3-0.7,0.3-1.1c0-0.1,0.1-0.3,0.1-0.3c0.1-0.3,0.3-0.6,0.3-0.9
				c0.1-0.2,0.1-0.3,0.2-0.4c0.1-0.3,0.3-0.6,0.3-0.9c0.1-0.2,0.1-0.3,0.2-0.4c0.1-0.3,0.3-0.5,0.3-0.8c0.1-0.2,0.2-0.3,0.2-0.4
				c0.1-0.3,0.3-0.5,0.3-0.7c0.1-0.2,0.2-0.3,0.3-0.4c0.1-0.3,0.3-0.4,0.3-0.7c0.1-0.2,0.2-0.3,0.3-0.4c0.1-0.3,0.3-0.4,0.3-0.6
				c0.1-0.2,0.2-0.3,0.3-0.4c0.2-0.2,0.3-0.4,0.4-0.6c0.1-0.1,0.2-0.3,0.3-0.3c0.2-0.2,0.3-0.3,0.4-0.6c0.1-0.1,0.2-0.2,0.3-0.3
				c0.2-0.2,0.3-0.3,0.5-0.6c0.1-0.1,0.1-0.2,0.2-0.2c0.3-0.3,0.5-0.4,0.8-0.7l0,0l0,0c0.5-0.3,0.9-0.7,1.5-0.9c0,0-2.8-0.3-7.1-0.7
				c-6-0.7-14.9-1.9-23.2-3.7c-9.8-2.2-18.8-5.2-21.1-9.3c0,0-6.4,10.1-3.6,18.3c0,0,0.3,0.3,0.8,0.8c1.8,1.7,6.4,6,12.3,10.4
				C115.2,238.3,124.4,244,133,245.4z"/>
			<path fill="#F5BEDD" stroke="#000000" stroke-width="2" d="M149.9,217.3c0.3,0.3,0.7,0.6,1,0.9l0,0c0,0,0,0,0.1,0.1
				c0.3,0.3,0.6,0.6,0.9,0.9c0.1,0.1,0.2,0.2,0.3,0.3c0.3,0.3,0.4,0.4,0.7,0.7c0.1,0.1,0.2,0.2,0.3,0.3c0.2,0.3,0.4,0.4,0.6,0.7
				c0.1,0.1,0.2,0.3,0.3,0.3c0.2,0.2,0.3,0.4,0.5,0.6c0.1,0.1,0.2,0.3,0.3,0.3c0.2,0.2,0.3,0.4,0.5,0.6c0.1,0.2,0.2,0.3,0.3,0.4
				c0.2,0.2,0.3,0.4,0.4,0.6c0.1,0.2,0.2,0.3,0.3,0.4c0.2,0.2,0.3,0.4,0.4,0.6c0.1,0.1,0.2,0.3,0.3,0.3c0.2,0.3,0.3,0.4,0.4,0.7
				c0.1,0.1,0.2,0.3,0.2,0.3c0.2,0.3,0.3,0.4,0.4,0.7c0.1,0.1,0.1,0.2,0.2,0.3c0.2,0.3,0.3,0.5,0.4,0.8c0,0.1,0.1,0.2,0.1,0.3
				c0.2,0.3,0.3,0.6,0.4,0.9l0,0c0.6,1.3,1.2,2.6,1.6,3.8c0,0,0,0,0,0.1c0.1,0.2,0.1,0.3,0.2,0.4c0,0.1,0.1,0.3,0.1,0.3l0,0l0,0
				c1.2,3.6,1.6,6.1,1.6,6.1c6.9-4.1,10.6-10.3,12.3-14.3c0.3-0.7,0.5-1.4,0.8-1.9c0.4-1.3,0.7-2.1,0.7-2.1c0-3.7-8.3-13.7-8.3-13.7
				c-0.8,1.2-2.4,2.4-4.4,3.6c-2,1.1-4.2,2.1-6.4,2.9C153.4,216.2,149.9,217.3,149.9,217.3z"/>
			<path fill="#F79D90" stroke="#000000" stroke-width="2" d="M140.5,237c4.5,1.8,11.7,2.7,20.7-2.8l0,0l0,0c0-0.1-0.1-0.3-0.1-0.3
				c-0.1-0.2-0.1-0.3-0.2-0.4c0,0,0,0,0-0.1c-0.4-1.2-0.9-2.4-1.6-3.8l0,0c-0.2-0.3-0.3-0.6-0.4-0.9c0-0.1-0.1-0.2-0.1-0.3
				c-0.2-0.3-0.3-0.5-0.4-0.8c-0.1-0.1-0.1-0.2-0.2-0.3c-0.1-0.3-0.3-0.4-0.4-0.7c-0.1-0.1-0.2-0.3-0.2-0.3
				c-0.2-0.3-0.3-0.4-0.4-0.7c-0.1-0.1-0.2-0.3-0.3-0.3c-0.2-0.2-0.3-0.4-0.4-0.6c-0.1-0.2-0.2-0.3-0.3-0.4
				c-0.2-0.2-0.3-0.4-0.4-0.6c-0.1-0.2-0.2-0.3-0.3-0.4c-0.2-0.2-0.3-0.4-0.5-0.6c-0.1-0.1-0.2-0.3-0.3-0.3
				c-0.2-0.2-0.3-0.4-0.5-0.6c-0.1-0.1-0.2-0.3-0.3-0.3c-0.2-0.3-0.3-0.4-0.6-0.7c-0.1-0.1-0.2-0.3-0.3-0.3
				c-0.3-0.3-0.4-0.4-0.7-0.7c-0.1-0.1-0.2-0.2-0.3-0.3c-0.3-0.3-0.6-0.6-0.9-0.9c0,0,0,0-0.1-0.1l0,0h-2.5l0,0l0,0
				c-0.3,0.2-0.5,0.4-0.8,0.7c-0.1,0.1-0.1,0.2-0.2,0.2c-0.2,0.2-0.3,0.3-0.5,0.6c-0.1,0.1-0.2,0.2-0.3,0.3
				c-0.2,0.2-0.3,0.3-0.4,0.6c-0.1,0.1-0.2,0.3-0.3,0.3c-0.2,0.2-0.3,0.4-0.4,0.6c-0.1,0.1-0.2,0.3-0.3,0.4
				c-0.1,0.2-0.3,0.4-0.3,0.6c-0.1,0.2-0.2,0.3-0.3,0.4c-0.1,0.3-0.3,0.4-0.3,0.7c-0.1,0.2-0.2,0.3-0.3,0.4
				c-0.1,0.3-0.3,0.5-0.3,0.7c-0.1,0.2-0.2,0.3-0.2,0.4c-0.1,0.3-0.3,0.5-0.3,0.8c-0.1,0.2-0.1,0.3-0.2,0.4
				c-0.1,0.3-0.3,0.6-0.3,0.9c-0.1,0.2-0.1,0.3-0.2,0.4c-0.1,0.3-0.3,0.6-0.3,0.9c0,0.1-0.1,0.2-0.1,0.3c-0.1,0.3-0.3,0.7-0.3,1.1
				c0,0.1-0.1,0.2-0.1,0.2c-0.8,2.2-1.4,4.5-1.9,6.6C140,236.8,140.2,236.9,140.5,237z"/>
		</g>
		<path fill="none" stroke="#000000" stroke-width="2" d="M119.8,123c-4.5,0.7-8.9,1.3-13.4,2l-0.8,0.2"/>
		<path fill="none" stroke="#000000" stroke-width="2" d="M142.4,164.5c3.3-4.1,6.8-7.9,10.4-11.7"/>
		<path fill="none" stroke="#000000" stroke-width="2" d="M150.6,167.5c0.4,0.2,0.9-0.3,1.1-0.8c2.2-4.7,4.1-9.5,5.4-14.5"/>
		<path fill="none" stroke="#000000" stroke-width="2" d="M158.1,170.1c1.1-3.2,2.2-6.4,3.3-9.6c0.9-2.7,1.9-5.4,2.2-8.3"/>
		<path fill="none" stroke="#000000" stroke-width="2" d="M168.4,152.8c0,0.2-0.3-0.1-0.1-0.2c0.2-0.1,0.3,0.1,0.4,0.3
			c2.8,4.9,5,10.1,6.6,15.5"/>
		<path fill="none" stroke="#000000" stroke-width="2" d="M176,153.5c2.1,5.1,4.9,9.9,8.5,14.1"/>
		<path fill="none" stroke="#000000" stroke-width="2" d="M183.7,150.9c2,3.5,4,7.2,6,10.7c0.7,1.2,1.4,2.5,2.5,3.3"/>
		<path fill="none" stroke="#000000" stroke-width="2" d="M93.5,140.8c-1.4-1-3.4-1.3-4.9-0.6s-2.8,2.2-2.9,4"/>
		<path fill="none" stroke="#000000" stroke-width="2" d="M163.8,197.9c-2.6,0.2-5.1,0.3-7.7,0.4c-0.8,0-1.7,0-2.2-0.6"/>
		<path fill="none" stroke="#000000" stroke-width="2" d="M36.9,192.9c4.7,0,8.8,4.2,8.8,8.8"/>
	</g>
</g>
<g id="Calque_3_1_">
	<path fill="#F0F1F2" d="M143.4,3.5C69.5,3.5,9.6,63.4,9.6,137.2S69.5,271,143.4,271s133.7-59.9,133.7-133.7S217.2,3.5,143.4,3.5z
		 M143.4,259.2c-67.3,0-121.9-54.6-121.9-121.9S76,15.3,143.4,15.3s121.9,54.6,121.9,121.9S210.7,259.2,143.4,259.2z"/>
</g>
</svg>
