<?xml version="1.0" encoding="utf-8"?>
<!-- Generator: Adobe Illustrator 17.1.0, SVG Export Plug-In . SVG Version: 6.00 Build 0)  -->
<!DOCTYPE svg PUBLIC "-//W3C//DTD SVG 1.0//EN" "http://www.w3.org/TR/2001/REC-SVG-20010904/DTD/svg10.dtd" [
	<!ENTITY ns_extend "http://ns.adobe.com/Extensibility/1.0/">
	<!ENTITY ns_ai "http://ns.adobe.com/AdobeIllustrator/10.0/">
	<!ENTITY ns_graphs "http://ns.adobe.com/Graphs/1.0/">
	<!ENTITY ns_vars "http://ns.adobe.com/Variables/1.0/">
	<!ENTITY ns_imrep "http://ns.adobe.com/ImageReplacement/1.0/">
	<!ENTITY ns_sfw "http://ns.adobe.com/SaveForWeb/1.0/">
	<!ENTITY ns_custom "http://ns.adobe.com/GenericCustomNamespace/1.0/">
	<!ENTITY ns_adobe_xpath "http://ns.adobe.com/XPath/1.0/">
]>
<svg version="1.0" xmlns:x="&ns_extend;" xmlns:i="&ns_ai;" xmlns:graph="&ns_graphs;"
	 xmlns="http://www.w3.org/2000/svg" xmlns:xlink="http://www.w3.org/1999/xlink" x="0px" y="0px" viewBox="0 0 279.3 275.5"
	 enable-background="new 0 0 279.3 275.5" xml:space="preserve">
<metadata>
	<sfw  xmlns="&ns_sfw;">
		<slices></slices>
		<sliceSourceBounds  width="267.5" height="267.5" x="266.6" y="393.9" bottomLeftOrigin="true"></sliceSourceBounds>
	</sfw>
</metadata>
<g id="Calque_2">
	<circle fill="#F22556" cx="139.7" cy="137.7" r="127.4"/>
</g>
<g id="Calque_4">
	<g>
		<path fill="none" stroke="#000000" stroke-width="2" stroke-miterlimit="10" d="M113.1,121.8c-0.1,0.1-0.2,0.2-0.3,0.3
			C112.9,122,113,121.9,113.1,121.8z"/>
		<path fill="none" stroke="#000000" stroke-width="2" stroke-miterlimit="10" d="M123.7,112.6c-0.1-0.1-0.1-0.2-0.2-0.2
			C123.6,112.4,123.6,112.5,123.7,112.6z"/>
		<path fill="none" stroke="#000000" stroke-width="2" stroke-miterlimit="10" d="M120.6,112.4c-0.1,0.2-0.2,0.4-0.3,0.5
			C120.4,112.8,120.5,112.6,120.6,112.4z"/>
		<path fill="none" stroke="#000000" stroke-width="2" stroke-miterlimit="10" d="M119.7,113.9c-0.1,0.2-0.2,0.3-0.3,0.5
			C119.5,114.3,119.6,114.1,119.7,113.9z"/>
		<path fill="none" stroke="#000000" stroke-width="2" stroke-miterlimit="10" d="M122.9,111.2c0-0.1-0.1-0.2-0.1-0.2
			C122.8,111.1,122.8,111.1,122.9,111.2z"/>
		<path fill="none" stroke="#000000" stroke-width="2" stroke-miterlimit="10" d="M123.2,111.9c0-0.1-0.1-0.2-0.1-0.2
			C123.1,111.8,123.2,111.9,123.2,111.9z"/>
		<path fill="none" stroke="#000000" stroke-width="2" stroke-miterlimit="10" d="M121.5,110.8c-0.1,0.2-0.2,0.4-0.3,0.6
			C121.4,111.2,121.5,111,121.5,110.8z"/>
		<path fill="none" stroke="#000000" stroke-width="2" stroke-miterlimit="10" d="M115,120c-0.1,0.1-0.2,0.2-0.3,0.3
			C114.8,120.2,114.9,120.1,115,120z"/>
		<path fill="none" stroke="#000000" stroke-width="2" stroke-miterlimit="10" d="M118.8,115.3c-0.1,0.1-0.2,0.3-0.3,0.4
			C118.6,115.6,118.7,115.5,118.8,115.3z"/>
		<path fill="none" stroke="#000000" stroke-width="2" stroke-miterlimit="10" d="M115.9,119c-0.1,0.1-0.2,0.2-0.3,0.4
			C115.7,119.2,115.8,119.1,115.9,119z"/>
		<path fill="none" stroke="#000000" stroke-width="2" stroke-miterlimit="10" d="M114,121c-0.1,0.1-0.2,0.2-0.3,0.3
			C113.8,121.2,113.9,121.1,114,121z"/>
		<path fill="none" stroke="#000000" stroke-width="2" stroke-miterlimit="10" d="M116.9,117.9c-0.1,0.1-0.2,0.3-0.3,0.4
			C116.7,118.1,116.8,118,116.9,117.9z"/>
		<path fill="none" stroke="#000000" stroke-width="2" stroke-miterlimit="10" d="M117.8,116.7c-0.1,0.1-0.2,0.3-0.3,0.4
			C117.6,116.9,117.7,116.8,117.8,116.7z"/>
		<path fill="none" stroke="#000000" stroke-width="2" stroke-miterlimit="10" d="M122.5,110.5c0-0.1-0.1-0.1-0.1-0.2
			C122.5,110.3,122.5,110.4,122.5,110.5z"/>
		<path fill="none" stroke="#000000" stroke-width="2" stroke-miterlimit="10" d="M128.7,115.1c-0.1,0-0.3,0-0.4,0
			C128.4,115.1,128.5,115.1,128.7,115.1z"/>
		<path fill="none" stroke="#000000" stroke-width="2" stroke-miterlimit="10" d="M132,114.5c-0.2,0.1-0.3,0.1-0.5,0.1
			C131.7,114.6,131.8,114.6,132,114.5z"/>
		<path fill="none" stroke="#000000" stroke-width="2" stroke-miterlimit="10" d="M129.7,115c-0.2,0-0.3,0-0.5,0
			C129.4,115.1,129.5,115.1,129.7,115z"/>
		<path fill="none" stroke="#000000" stroke-width="2" stroke-miterlimit="10" d="M130.8,114.9c-0.2,0-0.3,0.1-0.5,0.1
			C130.5,114.9,130.6,114.9,130.8,114.9z"/>
		<path fill="none" stroke="#000000" stroke-width="2" stroke-miterlimit="10" d="M133.3,114.1c-0.2,0.1-0.3,0.1-0.4,0.2
			C133,114.2,133.1,114.1,133.3,114.1z"/>
		<path fill="none" stroke="#000000" stroke-width="2" stroke-miterlimit="10" d="M175.5,165.1C175.5,165.1,175.5,165.1,175.5,165.1
			C175.5,165.1,175.5,165.1,175.5,165.1z"/>
		<path fill="none" stroke="#000000" stroke-width="2" stroke-miterlimit="10" d="M126.1,114.6c-0.1,0-0.2-0.1-0.3-0.2
			C125.9,114.5,126,114.5,126.1,114.6z"/>
		<path fill="none" stroke="#000000" stroke-width="2" stroke-miterlimit="10" d="M127.7,115c-0.1,0-0.3,0-0.4-0.1
			C127.5,115,127.6,115,127.7,115z"/>
		<path fill="none" stroke="#000000" stroke-width="2" stroke-miterlimit="10" d="M124.7,113.7c-0.1-0.1-0.2-0.1-0.2-0.2
			C124.6,113.6,124.7,113.7,124.7,113.7z"/>
		<path fill="none" stroke="#000000" stroke-width="2" stroke-miterlimit="10" d="M125.4,114.2c-0.1-0.1-0.2-0.1-0.3-0.2
			C125.2,114.1,125.3,114.1,125.4,114.2z"/>
		<path fill="none" stroke="#000000" stroke-width="2" stroke-miterlimit="10" d="M126.9,114.9c-0.1,0-0.2-0.1-0.4-0.1
			C126.6,114.8,126.7,114.8,126.9,114.9z"/>
		<path fill="none" stroke="#000000" stroke-width="2" stroke-miterlimit="10" d="M124.2,113.2c-0.1-0.1-0.1-0.2-0.2-0.2
			C124,113.1,124.1,113.1,124.2,113.2z"/>
		<path fill="none" stroke="#000000" stroke-width="2" stroke-miterlimit="10" d="M175.5,165.3C175.5,165.3,175.5,165.2,175.5,165.3
			C175.5,165.2,175.5,165.3,175.5,165.3z"/>
		<path fill="none" stroke="#000000" stroke-width="2" stroke-miterlimit="10" d="M100.4,127.7C100.4,127.7,100.4,127.7,100.4,127.7
			C100.4,127.7,100.4,127.7,100.4,127.7z"/>
		<path fill="none" stroke="#000000" stroke-width="2" stroke-miterlimit="10" d="M100.2,127.7C100.1,127.7,100.1,127.7,100.2,127.7
			C100.1,127.7,100.1,127.7,100.2,127.7z"/>
		<path fill="none" stroke="#000000" stroke-width="2" stroke-miterlimit="10" d="M100,127.7C100,127.7,100,127.7,100,127.7
			C100,127.7,100,127.7,100,127.7z"/>
		<path fill="none" stroke="#000000" stroke-width="2" stroke-miterlimit="10" d="M80,132.9c-0.1,0.2-0.1,0.4-0.2,0.5
			C79.8,133.3,79.9,133.1,80,132.9z"/>
		<path fill="none" stroke="#000000" stroke-width="2" stroke-miterlimit="10" d="M101.1,127.6c0,0-0.1,0-0.1,0
			C101,127.6,101.1,127.6,101.1,127.6z"/>
		<path fill="none" stroke="#000000" stroke-width="2" stroke-miterlimit="10" d="M100.7,127.6c0,0-0.1,0-0.1,0
			C100.7,127.7,100.7,127.7,100.7,127.6z"/>
		<path fill="none" stroke="#000000" stroke-width="2" stroke-miterlimit="10" d="M79.7,133.6c-0.1,0.2-0.1,0.4-0.2,0.7
			C79.5,134.1,79.6,133.9,79.7,133.6z"/>
		<path fill="none" stroke="#000000" stroke-width="2" stroke-miterlimit="10" d="M79,137.8c0,0.2,0,0.4,0.1,0.6
			C79,138.2,79,138,79,137.8z"/>
		<path fill="none" stroke="#000000" stroke-width="2" stroke-miterlimit="10" d="M79.1,136.1c0,0.2,0,0.4-0.1,0.6
			C79,136.5,79,136.3,79.1,136.1z"/>
		<path fill="none" stroke="#000000" stroke-width="2" stroke-miterlimit="10" d="M79.1,138.6c0,0.2,0.1,0.3,0.1,0.5
			C79.2,138.9,79.1,138.7,79.1,138.6z"/>
		<path fill="none" stroke="#000000" stroke-width="2" stroke-miterlimit="10" d="M79.5,134.4c-0.1,0.3-0.1,0.5-0.2,0.8
			C79.3,134.9,79.4,134.6,79.5,134.4z"/>
		<path fill="none" stroke="#000000" stroke-width="2" stroke-miterlimit="10" d="M79.2,135.3c0,0.2-0.1,0.4-0.1,0.6
			C79.1,135.7,79.2,135.5,79.2,135.3z"/>
		<path fill="none" stroke="#000000" stroke-width="2" stroke-miterlimit="10" d="M101.6,127.5c-0.1,0-0.1,0-0.1,0
			C101.5,127.6,101.5,127.6,101.6,127.5z"/>
		<path fill="none" stroke="#000000" stroke-width="2" stroke-miterlimit="10" d="M111.2,123.3c-0.1,0.1-0.2,0.1-0.3,0.2
			C111,123.5,111.1,123.4,111.2,123.3z"/>
		<path fill="none" stroke="#000000" stroke-width="2" stroke-miterlimit="10" d="M106.8,125.9c-0.1,0-0.2,0.1-0.3,0.1
			C106.6,126,106.7,126,106.8,125.9z"/>
		<path fill="none" stroke="#000000" stroke-width="2" stroke-miterlimit="10" d="M109.4,124.6c-0.1,0.1-0.2,0.1-0.3,0.2
			C109.2,124.7,109.3,124.6,109.4,124.6z"/>
		<path fill="none" stroke="#000000" stroke-width="2" stroke-miterlimit="10" d="M107.6,125.5c-0.1,0-0.2,0.1-0.3,0.1
			C107.5,125.6,107.5,125.6,107.6,125.5z"/>
		<path fill="none" stroke="#000000" stroke-width="2" stroke-miterlimit="10" d="M108.5,125.1c-0.1,0.1-0.2,0.1-0.3,0.2
			C108.3,125.2,108.4,125.1,108.5,125.1z"/>
		<path fill="none" stroke="#000000" stroke-width="2" stroke-miterlimit="10" d="M102.1,127.5c-0.1,0-0.1,0-0.2,0
			C102,127.5,102,127.5,102.1,127.5z"/>
		<path fill="none" stroke="#000000" stroke-width="2" stroke-miterlimit="10" d="M112.1,122.6c-0.1,0.1-0.2,0.2-0.3,0.2
			C111.9,122.8,112,122.7,112.1,122.6z"/>
		<path fill="none" stroke="#000000" stroke-width="2" stroke-miterlimit="10" d="M110.3,124c-0.1,0.1-0.2,0.1-0.3,0.2
			C110.1,124.1,110.2,124.1,110.3,124z"/>
		<path fill="none" stroke="#000000" stroke-width="2" stroke-miterlimit="10" d="M103.8,127c-0.1,0-0.1,0-0.2,0.1
			C103.7,127.1,103.8,127.1,103.8,127z"/>
		<path fill="none" stroke="#000000" stroke-width="2" stroke-miterlimit="10" d="M106,126.3c-0.1,0-0.2,0.1-0.2,0.1
			C105.9,126.4,105.9,126.3,106,126.3z"/>
		<path fill="none" stroke="#000000" stroke-width="2" stroke-miterlimit="10" d="M102.6,127.4c-0.1,0-0.1,0-0.2,0
			C102.5,127.4,102.5,127.4,102.6,127.4z"/>
		<path fill="none" stroke="#000000" stroke-width="2" stroke-miterlimit="10" d="M103.2,127.2c-0.1,0-0.1,0-0.2,0
			C103.1,127.2,103.1,127.2,103.2,127.2z"/>
		<path fill="none" stroke="#000000" stroke-width="2" stroke-miterlimit="10" d="M105.3,126.6c-0.1,0-0.2,0.1-0.2,0.1
			C105.1,126.6,105.2,126.6,105.3,126.6z"/>
		<path fill="none" stroke="#000000" stroke-width="2" stroke-miterlimit="10" d="M104.5,126.8c-0.1,0-0.1,0-0.2,0.1
			C104.4,126.9,104.5,126.9,104.5,126.8z"/>
		<path fill="none" stroke="#000000" stroke-width="2" stroke-miterlimit="10" d="M175.7,165.9C175.7,165.9,175.7,165.8,175.7,165.9
			C175.7,165.8,175.7,165.9,175.7,165.9z"/>
		<path fill="none" stroke="#000000" stroke-width="2" stroke-miterlimit="10" d="M165.2,187.6C165.2,187.6,165.2,187.6,165.2,187.6
			l-4.2-1.1C162.1,187.5,163.5,187.9,165.2,187.6z"/>
		<path fill="none" stroke="#000000" stroke-width="2" stroke-miterlimit="10" d="M168,186.6c-0.3,0.2-0.6,0.3-0.9,0.4
			C167.4,186.9,167.7,186.7,168,186.6z"/>
		<path fill="none" stroke="#000000" stroke-width="2" stroke-miterlimit="10" d="M166,187.4c-0.3,0.1-0.6,0.2-0.9,0.2
			C165.5,187.6,165.7,187.5,166,187.4z"/>
		<path fill="none" stroke="#000000" stroke-width="2" stroke-miterlimit="10" d="M167,187c-0.3,0.1-0.5,0.2-0.8,0.3
			C166.5,187.2,166.8,187.1,167,187z"/>
		<path fill="none" stroke="#000000" stroke-width="2" stroke-miterlimit="10" d="M158.4,176.7c-0.3-0.2-0.6-0.4-0.9-0.5
			C157.8,176.3,158.1,176.5,158.4,176.7z"/>
		<path fill="none" stroke="#000000" stroke-width="2" stroke-miterlimit="10" d="M169.9,185.3c-0.3,0.2-0.6,0.4-0.8,0.6
			C169.3,185.7,169.6,185.5,169.9,185.3z"/>
		<path fill="none" stroke="#000000" stroke-width="2" stroke-miterlimit="10" d="M160,185.6c-0.1-0.2-0.3-0.4-0.4-0.6
			C159.7,185.2,159.9,185.4,160,185.6z"/>
		<path fill="none" stroke="#000000" stroke-width="2" stroke-miterlimit="10" d="M161.5,179.8c-0.3-0.4-0.5-0.7-0.8-1
			C161,179,161.3,179.4,161.5,179.8z"/>
		<path fill="none" stroke="#000000" stroke-width="2" stroke-miterlimit="10" d="M158.8,183.7c-0.1-0.2-0.2-0.4-0.3-0.6
			C158.6,183.3,158.7,183.5,158.8,183.7z"/>
		<path fill="none" stroke="#000000" stroke-width="2" stroke-miterlimit="10" d="M159.5,177.5c-0.3-0.3-0.6-0.5-0.9-0.7
			C158.9,177,159.2,177.2,159.5,177.5z"/>
		<path fill="none" stroke="#000000" stroke-width="2" stroke-miterlimit="10" d="M160.9,186.5c-0.2-0.2-0.5-0.4-0.7-0.7
			C160.5,186.1,160.7,186.3,160.9,186.5z"/>
		<path fill="none" stroke="#000000" stroke-width="2" stroke-miterlimit="10" d="M170.8,184.5c-0.2,0.2-0.5,0.4-0.7,0.6
			C170.3,184.9,170.6,184.7,170.8,184.5z"/>
		<path fill="none" stroke="#000000" stroke-width="2" stroke-miterlimit="10" d="M159.4,184.7c-0.1-0.2-0.2-0.4-0.4-0.6
			C159.2,184.3,159.3,184.5,159.4,184.7z"/>
		<path fill="none" stroke="#000000" stroke-width="2" stroke-miterlimit="10" d="M168.9,186c-0.2,0.2-0.5,0.3-0.7,0.5
			C168.4,186.3,168.7,186.1,168.9,186z"/>
		<path fill="none" stroke="#000000" stroke-width="2" stroke-miterlimit="10" d="M151,243.7c-0.1-0.1-0.3-0.1-0.4-0.2
			C150.7,243.6,150.9,243.6,151,243.7z"/>
		<path fill="none" stroke="#000000" stroke-width="2" stroke-miterlimit="10" d="M175.6,165.5C175.6,165.5,175.6,165.5,175.6,165.5
			C175.6,165.5,175.6,165.5,175.6,165.5z"/>
		<path fill="none" stroke="#000000" stroke-width="2" stroke-miterlimit="10" d="M153.7,244.9c-0.1-0.1-0.2-0.1-0.4-0.2
			C153.5,244.8,153.6,244.9,153.7,244.9z"/>
		<path fill="none" stroke="#000000" stroke-width="2" stroke-miterlimit="10" d="M148.3,242.6c-0.1,0-0.3-0.1-0.4-0.1
			C148,242.5,148.1,242.5,148.3,242.6z"/>
		<path fill="none" stroke="#000000" stroke-width="2" stroke-miterlimit="10" d="M158.9,247.6c-0.1,0-0.1-0.1-0.2-0.1
			C158.7,247.6,158.8,247.6,158.9,247.6z"/>
		<path fill="none" stroke="#000000" stroke-width="2" stroke-miterlimit="10" d="M156.3,246.2c-0.1,0-0.1-0.1-0.2-0.1
			C156.2,246.2,156.2,246.2,156.3,246.2z"/>
		<path fill="none" stroke="#000000" stroke-width="2" stroke-miterlimit="10" d="M145.5,241.6c-0.1,0-0.2-0.1-0.3-0.1
			C145.3,241.6,145.4,241.6,145.5,241.6z"/>
		<path fill="none" stroke="#000000" stroke-width="2" stroke-miterlimit="10" d="M173.7,181.5c-0.3,0.3-0.6,0.6-0.8,1
			C173.1,182.2,173.4,181.8,173.7,181.5z"/>
		<path fill="none" stroke="#000000" stroke-width="2" stroke-miterlimit="10" d="M178.1,175.5c-0.5,0.8-1.1,1.6-1.6,2.4
			C177,177.1,177.5,176.3,178.1,175.5z"/>
		<path fill="none" stroke="#000000" stroke-width="2" stroke-miterlimit="10" d="M172.7,182.6c-0.2,0.3-0.5,0.5-0.7,0.8
			C172.2,183.2,172.4,182.9,172.7,182.6z"/>
		<path fill="none" stroke="#000000" stroke-width="2" stroke-miterlimit="10" d="M174.5,180.5c-0.3,0.3-0.5,0.6-0.8,1
			C174,181.1,174.3,180.8,174.5,180.5z"/>
		<path fill="none" stroke="#000000" stroke-width="2" stroke-miterlimit="10" d="M176.3,178.1c-0.5,0.8-1.1,1.5-1.7,2.2
			C175.3,179.6,175.8,178.8,176.3,178.1z"/>
		<path fill="none" stroke="#000000" stroke-width="2" stroke-miterlimit="10" d="M171.8,183.6c-0.3,0.3-0.6,0.5-0.8,0.8
			C171.3,184.1,171.5,183.8,171.8,183.6z"/>
		<path fill="none" stroke="#000000" stroke-width="2" stroke-miterlimit="10" d="M178.1,175.4c0.5-0.9,1.1-1.7,1.6-2.6c0,0,0,0,0,0
			C179.2,173.7,178.7,174.6,178.1,175.4z"/>
		<path fill="none" stroke="#000000" stroke-width="2" stroke-miterlimit="10" d="M161.5,179.8c-1.2,0.5-2.5,1.2-3.6,1.8
			c0.2,0.4,0.3,0.9,0.5,1.3L161.5,179.8C161.5,179.8,161.5,179.8,161.5,179.8z"/>
		<path fill="none" stroke="#000000" stroke-width="2" stroke-miterlimit="10" d="M179.2,172.3C179.1,172.3,179.1,172.2,179.2,172.3
			C179.1,172.2,179.1,172.3,179.2,172.3z"/>
		<path fill="none" stroke="#000000" stroke-width="2" stroke-miterlimit="10" d="M156.5,175.6c0.3,0.1,0.5,0.2,0.8,0.4
			C157,175.8,156.8,175.7,156.5,175.6C156.5,175.6,156.5,175.6,156.5,175.6z"/>
		<path fill="none" stroke="#000000" stroke-width="2" stroke-miterlimit="10" d="M159.7,177.7c0.3,0.3,0.6,0.6,0.9,0.9
			C160.3,178.2,160,177.9,159.7,177.7z"/>
		<path fill="none" stroke="#000000" stroke-width="2" stroke-miterlimit="10" d="M178.6,171.7C178.6,171.7,178.6,171.7,178.6,171.7
			C178.6,171.7,178.6,171.7,178.6,171.7z"/>
		<path fill="none" stroke="#000000" stroke-width="2" stroke-miterlimit="10" d="M154.9,174.9c-0.3-0.1-0.7-0.2-1-0.3
			C154.3,174.7,154.6,174.8,154.9,174.9z"/>
		<path fill="none" stroke="#000000" stroke-width="2" stroke-miterlimit="10" d="M178.2,171.1C178.2,171.1,178.1,171.1,178.2,171.1
			C178.1,171.1,178.2,171.1,178.2,171.1z"/>
		<path fill="none" stroke="#000000" stroke-width="2" stroke-miterlimit="10" d="M175.8,166.3C175.8,166.3,175.8,166.3,175.8,166.3
			C175.8,166.3,175.8,166.3,175.8,166.3z"/>
		<path fill="none" stroke="#000000" stroke-width="2" stroke-miterlimit="10" d="M79.3,139.3c0.1,0.2,0.2,0.4,0.2,0.6
			C79.4,139.7,79.4,139.5,79.3,139.3z"/>
		<path fill="none" stroke="#000000" stroke-width="2" stroke-miterlimit="10" d="M176,166.8C176,166.8,176,166.7,176,166.8
			C176,166.7,176,166.8,176,166.8z"/>
		<path fill="none" stroke="#000000" stroke-width="2" stroke-miterlimit="10" d="M177.3,169.8C177.3,169.8,177.3,169.8,177.3,169.8
			C177.3,169.8,177.3,169.8,177.3,169.8z"/>
		<path fill="none" stroke="#000000" stroke-width="2" stroke-miterlimit="10" d="M177.7,170.5C177.7,170.4,177.7,170.4,177.7,170.5
			C177.7,170.4,177.7,170.4,177.7,170.5z"/>
		<path fill="none" stroke="#000000" stroke-width="2" stroke-miterlimit="10" d="M155.7,175.2c-0.2-0.1-0.4-0.1-0.6-0.2
			C155.3,175.1,155.5,175.1,155.7,175.2l0.7-0.3L155.7,175.2z"/>
		<path fill="none" stroke="#000000" stroke-width="2" stroke-miterlimit="10" d="M148.7,173.7c-0.2,0-0.3,0-0.5,0
			C148.4,173.7,148.6,173.7,148.7,173.7z"/>
		<path fill="none" stroke="#000000" stroke-width="2" stroke-miterlimit="10" d="M151.4,174c-0.2,0-0.4-0.1-0.7-0.1
			C150.9,173.9,151.2,173.9,151.4,174z"/>
		<path fill="none" stroke="#000000" stroke-width="2" stroke-miterlimit="10" d="M140.5,164.4C140.5,164.4,140.5,164.4,140.5,164.4
			C140.5,164.4,140.5,164.4,140.5,164.4z"/>
		<path fill="none" stroke="#000000" stroke-width="2" stroke-miterlimit="10" d="M150.4,173.8c-0.2,0-0.5-0.1-0.7-0.1
			C150,173.8,150.2,173.8,150.4,173.8z"/>
		<path fill="none" stroke="#000000" stroke-width="2" stroke-miterlimit="10" d="M153.6,174.5c-0.3-0.1-0.5-0.1-0.8-0.2
			C153.1,174.3,153.4,174.4,153.6,174.5z"/>
		<path fill="none" stroke="#000000" stroke-width="2" stroke-miterlimit="10" d="M152.6,174.2c-0.3-0.1-0.6-0.1-0.9-0.2
			C152,174.1,152.3,174.1,152.6,174.2z"/>
		<path fill="none" stroke="#000000" stroke-width="2" stroke-miterlimit="10" d="M149.5,173.7c-0.2,0-0.4,0-0.5,0
			C149.1,173.7,149.3,173.7,149.5,173.7z"/>
		<path fill="none" stroke="#000000" stroke-width="2" stroke-miterlimit="10" d="M126.1,177.6C126.1,177.6,126,177.6,126.1,177.6
			C126,177.6,126.1,177.6,126.1,177.6z"/>
		<path fill="none" stroke="#000000" stroke-width="2" stroke-miterlimit="10" d="M143.8,165C143.8,165.1,143.8,165.1,143.8,165
			l0.7-1.1c0,0,0,0-0.1,0L143.8,165z"/>
		<path fill="none" stroke="#000000" stroke-width="2" stroke-miterlimit="10" d="M147.3,173.7C147.3,173.7,147.3,173.7,147.3,173.7
			C147.3,173.7,147.3,173.7,147.3,173.7z"/>
		<path fill="none" stroke="#000000" stroke-width="2" stroke-miterlimit="10" d="M147.6,173.6c-0.1,0-0.2,0-0.2,0
			C147.5,173.6,147.5,173.6,147.6,173.6z"/>
		<path fill="none" stroke="#000000" stroke-width="2" stroke-miterlimit="10" d="M148.1,173.6c-0.1,0-0.2,0-0.4,0
			C147.8,173.6,148,173.6,148.1,173.6z"/>
		<path fill="none" stroke="#000000" stroke-width="2" stroke-miterlimit="10" d="M104.8,137.6C104.8,137.7,104.8,137.7,104.8,137.6
			c0,0,0-0.1,0-0.1c0,0,0,0,0,0C104.8,137.6,104.8,137.6,104.8,137.6z"/>
		<path fill="none" stroke="#000000" stroke-width="2" stroke-miterlimit="10" d="M101,135.5c-0.1,0-0.2,0-0.3,0.1c0,0,0.1,0,0.1,0
			C100.9,135.6,100.9,135.6,101,135.5z"/>
		<path fill="none" stroke="#000000" stroke-width="2" stroke-miterlimit="10" d="M102.7,135.2c-0.1,0-0.2,0-0.3,0.1l0,0
			C102.5,135.2,102.6,135.2,102.7,135.2z"/>
		<path fill="none" stroke="#000000" stroke-width="2" stroke-miterlimit="10" d="M104.7,136.1c-0.1-0.7-0.2-1.2-0.2-1.2
			S104.6,135.4,104.7,136.1L104.7,136.1z"/>
		<path fill="none" stroke="#000000" stroke-width="2" stroke-miterlimit="10" d="M171.8,256.2c-0.1,0-0.1-0.1-0.2-0.1
			C171.7,256.2,171.8,256.2,171.8,256.2z"/>
		<path fill="none" stroke="#000000" stroke-width="2" stroke-miterlimit="10" d="M169.4,254.5c-0.1-0.1-0.2-0.2-0.3-0.2
			C169.2,254.3,169.3,254.4,169.4,254.5z"/>
		<path fill="none" stroke="#000000" stroke-width="2" stroke-miterlimit="10" d="M97.6,136.5C97.7,136.5,97.7,136.5,97.6,136.5
			c-0.1,0.1-0.4,0.1-0.6,0.2c0.1,0,0.2-0.1,0.2-0.1C97.4,136.6,97.5,136.6,97.6,136.5z"/>
		<path fill="none" stroke="#000000" stroke-width="2" stroke-miterlimit="10" d="M99.2,136c0.1,0,0.1,0,0.1,0
			c-0.2,0.1-0.5,0.1-0.7,0.2c0,0,0.1,0,0.1,0C98.9,136.1,99,136.1,99.2,136z"/>
		<path fill="none" stroke="#000000" stroke-width="2" stroke-miterlimit="10" d="M104.7,136.4C104.7,136.4,104.7,136.4,104.7,136.4
			c0,0,0-0.1,0-0.1c0,0,0,0,0,0C104.7,136.3,104.7,136.4,104.7,136.4z"/>
		<path fill="none" stroke="#000000" stroke-width="2" stroke-miterlimit="10" d="M104.7,138.3C104.7,138.3,104.7,138.3,104.7,138.3
			c0,0,0-0.1,0-0.1C104.7,138.2,104.7,138.2,104.7,138.3C104.7,138.2,104.7,138.3,104.7,138.3z"/>
		<path fill="none" stroke="#000000" stroke-width="2" stroke-miterlimit="10" d="M103.6,142.5c0,0,0-0.1,0.1-0.1
			C103.7,142.4,103.7,142.4,103.6,142.5C103.7,142.5,103.7,142.5,103.6,142.5z"/>
		<path fill="none" stroke="#000000" stroke-width="2" stroke-miterlimit="10" d="M102.6,144.3c0-0.1,0.1-0.1,0.1-0.2
			C102.7,144.2,102.6,144.2,102.6,144.3C102.6,144.3,102.6,144.3,102.6,144.3z"/>
		<path fill="none" stroke="#000000" stroke-width="2" stroke-miterlimit="10" d="M104,141.7c0-0.1,0-0.1,0.1-0.2c0,0,0,0,0,0.1
			C104,141.6,104,141.7,104,141.7z"/>
		<path fill="none" stroke="#000000" stroke-width="2" stroke-miterlimit="10" d="M104.5,139.9C104.5,139.9,104.5,139.9,104.5,139.9
			c0,0,0-0.1,0-0.1c0,0,0,0,0,0C104.5,139.8,104.5,139.9,104.5,139.9z"/>
		<path fill="none" stroke="#000000" stroke-width="2" stroke-miterlimit="10" d="M94.6,163.6c-0.1,0.2-0.2,0.4-0.3,0.6
			C94.4,164,94.5,163.8,94.6,163.6z"/>
		<path fill="none" stroke="#000000" stroke-width="2" stroke-miterlimit="10" d="M104.7,139.1c0,0,0,0.1,0,0.1
			C104.6,139.1,104.7,139.1,104.7,139.1C104.7,139,104.7,139,104.7,139.1C104.7,139,104.7,139,104.7,139.1z"/>
		<path fill="none" d="M88.2,90.6c-0.5,0.3-1,0.5-1.5,0.8C87.2,91.1,87.7,90.8,88.2,90.6z"/>
		<path fill="none" stroke="#000000" stroke-width="2" stroke-miterlimit="10" d="M80,132.8c0.1-0.1,0.1-0.1,0.2-0.2
			C80.1,132.7,80.1,132.7,80,132.8C80,132.8,80,132.8,80,132.8z"/>
		<path fill="none" stroke="#000000" stroke-width="2" stroke-miterlimit="10" d="M122.1,109.6C122.2,109.6,122.2,109.6,122.1,109.6
			C122.2,109.6,122.2,109.6,122.1,109.6c0.1,0,0.1-0.1,0.1-0.1C122.2,109.6,122.2,109.6,122.1,109.6z"/>
		<path fill="none" stroke="#000000" stroke-width="2" stroke-miterlimit="10" d="M125.5,77.2c-6.3-5.2-20.7-1.4-20.7-1.4
			c-9.7,5.1-13.3,10.6-14.7,13.8c-0.5,0.2-1,0.5-1.4,0.7c0.6-0.3,1.1-0.6,1.8-0.9c22.6-11.3,32.9-9.3,32.9-9.3l9.3,13.8
			c0,0.1-0.1,0.2-0.1,0.3c3.8,1,7.5,4,9.7,6.2C136.4,90.4,129.2,80.2,125.5,77.2z"/>
		<path fill="none" stroke="#000000" stroke-width="2" stroke-miterlimit="10" d="M79.6,139.9c0.1,0.2,0.2,0.4,0.4,0.6
			C79.8,140.3,79.7,140.1,79.6,139.9z"/>
		<path fill="none" stroke="#000000" stroke-width="2" stroke-miterlimit="10" d="M206.3,168.1c1.3,0.6,2.7,1.2,4.1,1.8L206.3,168.1
			C206.4,168,206.3,168,206.3,168.1z"/>
		<path fill="none" stroke="#000000" stroke-width="2" stroke-miterlimit="10" d="M80.5,141c-0.1-0.1-0.3-0.2-0.4-0.4
			C80.2,140.8,80.4,140.9,80.5,141z"/>
		<path fill="none" stroke="#000000" stroke-width="2" stroke-miterlimit="10" d="M79,137.6c0-0.2,0-0.5,0-0.7
			C79,137.2,79,137.4,79,137.6z"/>
		<path fill="none" stroke="#000000" stroke-width="2" stroke-miterlimit="10" d="M94.6,137.7c-0.1,0.1-0.2,0.1-0.3,0.2
			C94.4,137.8,94.4,137.8,94.6,137.7C94.5,137.8,94.6,137.7,94.6,137.7z"/>
		<path fill="none" stroke="#000000" stroke-width="2" stroke-miterlimit="10" d="M96.1,137.1C96.1,137.1,96.1,137.1,96.1,137.1
			c-0.2,0.1-0.4,0.2-0.6,0.3c0.1,0,0.2-0.1,0.3-0.1C95.9,137.2,96,137.1,96.1,137.1z"/>
		<path fill="none" stroke="#000000" stroke-width="2" stroke-miterlimit="10" d="M91.8,139.1c-0.1,0.1-0.3,0.1-0.4,0.2
			c0,0,0.1,0,0.1,0C91.6,139.2,91.7,139.1,91.8,139.1z"/>
		<path fill="none" stroke="#000000" stroke-width="2" stroke-miterlimit="10" d="M86.7,142.2C86.7,142.2,86.7,142.2,86.7,142.2
			c0,0-0.1,0.1-0.2,0.1c0,0,0,0,0,0C86.5,142.3,86.6,142.2,86.7,142.2z"/>
		<path fill="none" stroke="#000000" stroke-width="2" stroke-miterlimit="10" d="M89.2,140.5c0.1-0.1,0.3-0.2,0.4-0.3
			C89.5,140.4,89.4,140.4,89.2,140.5z"/>
		<path fill="none" stroke="#000000" stroke-width="2" stroke-miterlimit="10" d="M104.7,136.9c0,0,0,0.1,0,0.1
			C104.7,137,104.7,136.9,104.7,136.9z"/>
		<path fill="none" stroke="#000000" stroke-width="2" stroke-miterlimit="10" d="M92.7,138.6c0.1-0.1,0.2-0.1,0.4-0.2
			C92.9,138.5,92.8,138.6,92.7,138.6z"/>
		<path fill="none" stroke="#000000" stroke-width="2" stroke-miterlimit="10" d="M95.1,162.8c-0.1,0.1-0.1,0.2-0.2,0.3
			C95,163,95.1,162.8,95.1,162.8z"/>
		<path fill="none" stroke="#000000" stroke-width="2" stroke-miterlimit="10" d="M82.4,142.1c0.2,0.1,0.5,0.2,0.8,0.2
			C82.9,142.2,82.7,142.2,82.4,142.1z"/>
		<path fill="none" stroke="#000000" stroke-width="2" stroke-miterlimit="10" d="M104.3,140.7C104.3,140.7,104.3,140.7,104.3,140.7
			C104.3,140.7,104.3,140.7,104.3,140.7z"/>
		<path fill="none" stroke="#000000" stroke-width="2" stroke-miterlimit="10" d="M81.4,141.6c0.3,0.1,0.5,0.3,0.8,0.4
			C81.9,141.9,81.6,141.8,81.4,141.6z"/>
		<path fill="none" stroke="#000000" stroke-width="2" stroke-miterlimit="10" d="M103.2,143.3c0,0.1-0.1,0.1-0.1,0.2
			C103.2,143.4,103.2,143.4,103.2,143.3z"/>
		<path fill="none" stroke="#000000" stroke-width="2" stroke-miterlimit="10" d="M95.3,162.4C95.3,162.4,95.3,162.5,95.3,162.4
			C95.3,162.5,95.3,162.4,95.3,162.4z"/>
		<path fill="none" stroke="#000000" stroke-width="2" stroke-miterlimit="10" d="M94.9,163.2c-0.1,0.1-0.1,0.2-0.2,0.4
			C94.7,163.4,94.8,163.3,94.9,163.2z"/>
		<path fill="none" stroke="#000000" stroke-width="2" stroke-miterlimit="10" d="M95.2,162.5c0,0-0.1,0.1-0.1,0.2
			C95.2,162.6,95.2,162.6,95.2,162.5z"/>
		<path fill="none" stroke="#000000" stroke-width="2" stroke-miterlimit="10" d="M87,142c0.1-0.1,0.2-0.1,0.3-0.2
			C87.1,141.9,87,141.9,87,142z"/>
		<path fill="none" stroke="#000000" stroke-width="2" stroke-miterlimit="10" d="M86.2,142.5C86.2,142.5,86.3,142.5,86.2,142.5
			C86.3,142.5,86.2,142.5,86.2,142.5z"/>
		<path fill="none" stroke="#000000" stroke-width="2" stroke-miterlimit="10" d="M84.8,142.5c0.4,0,0.9,0.1,1.4,0.1
			C85.6,142.6,85.2,142.6,84.8,142.5z"/>
		<path fill="none" stroke="#000000" stroke-width="2" stroke-miterlimit="10" d="M87.6,141.6c0.1-0.1,0.2-0.1,0.3-0.2
			C87.8,141.4,87.7,141.5,87.6,141.6z"/>
		<path fill="none" stroke="#000000" stroke-width="2" stroke-miterlimit="10" d="M80.7,141.2c0.2,0.1,0.3,0.2,0.5,0.3
			C81,141.4,80.9,141.3,80.7,141.2z"/>
		<path fill="none" stroke="#000000" stroke-width="2" stroke-miterlimit="10" d="M88.3,141.1c0.1-0.1,0.2-0.2,0.4-0.2
			C88.6,140.9,88.4,141,88.3,141.1z"/>
		<path fill="none" stroke="#000000" stroke-width="2" stroke-miterlimit="10" d="M90.3,139.9c0.2-0.1,0.3-0.2,0.5-0.3
			C90.6,139.7,90.4,139.8,90.3,139.9z"/>
		<path fill="none" stroke="#000000" stroke-width="2" stroke-miterlimit="10" d="M83.6,142.4c0.3,0,0.5,0.1,0.8,0.1
			C84.1,142.4,83.8,142.4,83.6,142.4z"/>
		<path fill="#F57EBD" stroke="#000000" stroke-width="2" stroke-miterlimit="10" d="M169.4,254.5c0.7,0.5,1.5,1.1,2.2,1.6
			c0.1,0,0.1,0.1,0.2,0.1c0.7,0.5,1.4,1.1,2.1,1.6l0.4-1.1c0,0,3.2-3.2-0.8-5.7c-3.2-1.9-4.9,1-5.4,2.4c0.4,0.3,0.7,0.5,1.1,0.8
			C169.2,254.3,169.3,254.4,169.4,254.5z"/>
		<path fill="#F57EBD" stroke="#000000" stroke-width="2" stroke-miterlimit="10" d="M156.5,175.6c0-0.2-0.1-0.5-0.1-0.7l-0.7,0.3
			C156,175.3,156.2,175.4,156.5,175.6C156.5,175.6,156.5,175.6,156.5,175.6C156.5,175.6,156.5,175.6,156.5,175.6z"/>
		<path fill="#F57EBD" stroke="#000000" stroke-width="2" stroke-miterlimit="10" d="M181.9,257.9c1.2-0.4,2.4-0.8,3.5-1.3
			C184.3,256,182.9,255.8,181.9,257.9z"/>
		<path fill="#F57EBD" stroke="#000000" stroke-width="2" stroke-miterlimit="10" d="M201,244.1c0,0-1.9,4.8-4.2,7.5
			c4.5-2.2,8.8-4.8,12.9-7.5C206.8,244.2,203.8,244.3,201,244.1z"/>
		
			<path fill="#F57EBD" stroke="#000000" stroke-width="2" stroke-linecap="round" stroke-linejoin="round" stroke-miterlimit="10" d="
			M145.2,241.7c0.1,0,0.2,0.1,0.3,0.1c0.8,0.3,1.6,0.5,2.4,0.8c0.1,0,0.3,0.1,0.4,0.1c0.8,0.3,1.6,0.6,2.3,0.9
			c0.1,0.1,0.3,0.1,0.4,0.2c0.8,0.3,1.6,0.7,2.3,1.1c0.1,0.1,0.2,0.1,0.4,0.2c0.8,0.4,1.6,0.8,2.4,1.2c0.1,0,0.1,0.1,0.2,0.1
			c0.8,0.4,1.6,0.9,2.4,1.3c0.1,0,0.1,0.1,0.2,0.1c0.2,0.1,0.5,0.3,0.7,0.4c2.3-3.6,5.6-7.7,9.8-11.2c0,0-11.3,1.9-9.4-5.7
			c1.9-7.6,10.3-4.3,10.3-4.3s14,1.3,16.2,0.8c2.2-0.5,14.6-2.4,20.2-5.7c5.7-3.2,17.8-7.8,17.8-7.8s-10.9-6.6-15.2-11.1
			c2.4-5.5,7.2-14.6,13.5-18.8c2.1,1.4,5.5,3.8,9.3,6.9c4.5-7.7-0.1-11.2-0.1-11.2s-1-0.5-2.7-1.3c0,0,0,0,0,0l-18.9-8.8
			c-1.4-0.6-2.8-1.2-4.1-1.8c-8.8,7.3-14.6,3.3-14.6,3.3c-5.6,4.3-9.5,3.6-12,1.4c-0.5,0.9-1,1.8-1.6,2.6c0,0,0,0,0,0.1
			c-0.5,0.8-1.1,1.6-1.6,2.4c0,0.1-0.1,0.1-0.1,0.2c-0.5,0.8-1.1,1.5-1.7,2.2c0,0.1-0.1,0.1-0.1,0.2c-0.3,0.3-0.5,0.6-0.8,1
			c0,0,0,0-0.1,0.1c-0.3,0.3-0.6,0.6-0.8,1c-0.1,0.1-0.1,0.1-0.2,0.2c-0.2,0.3-0.5,0.5-0.7,0.8c0,0-0.1,0.1-0.1,0.1
			c-0.3,0.3-0.6,0.5-0.8,0.8c-0.1,0.1-0.1,0.1-0.2,0.2c-0.2,0.2-0.5,0.4-0.7,0.6c-0.1,0.1-0.1,0.1-0.2,0.2c-0.3,0.2-0.6,0.4-0.8,0.6
			c0,0-0.1,0.1-0.1,0.1c-0.2,0.2-0.5,0.3-0.7,0.5c-0.1,0-0.1,0.1-0.2,0.1c-0.3,0.2-0.6,0.3-0.9,0.4c0,0-0.1,0-0.1,0
			c-0.3,0.1-0.5,0.2-0.8,0.3c-0.1,0-0.1,0-0.2,0.1c-0.3,0.1-0.6,0.2-0.9,0.2c0,0,0,0,0,0h0c0,0,0,0,0,0c-1.7,0.3-3.1-0.1-4.2-1.1
			l0,0c0,0,0,0,0,0c-0.2-0.2-0.5-0.4-0.7-0.7c-0.1-0.1-0.1-0.2-0.2-0.3c-0.1-0.2-0.3-0.4-0.4-0.6c-0.1-0.1-0.1-0.2-0.2-0.3
			c-0.1-0.2-0.2-0.4-0.4-0.6c-0.1-0.1-0.1-0.3-0.2-0.4c-0.1-0.2-0.2-0.4-0.3-0.6c0-0.1-0.1-0.1-0.1-0.2l0,0
			c-0.2-0.4-0.3-0.8-0.5-1.3c-1.7,1.1-3.1,2.1-3.1,2.1c-6.4,12.3-19.6,3.9-19.6,3.9c-2.3,2.3-5.3,2.4-8.1,1.5
			c-0.9,1.2-1.9,4.6-1.5,9.1l6.1-2.9c4.3,2.3,13,8.5,14,20.6c-2.4,1.4-5,2.6-7.6,3.8c9.5,7.4,12-0.2,12-0.2c3-3.9,10-5.2,10-5.2
			c1.3,1.3,3.9,0.9,3.9,0.9c-5.2,1.7-3,5.6-3,5.6c-9.1,0-12.6,9.5-12.6,9.5c-10.7,3.1-9,8.6-6.4,12l0.9-1.5
			C143.5,241.2,144.4,241.5,145.2,241.7z M180.2,203.6l4.4,9.5l-0.4,1.3c0,0-2.5,4.1-5.3,1.6l0-0.1l-3.8-9.6
			C175.1,206.3,175.9,200.3,180.2,203.6z"/>
		
			<path fill="#F57EBD" stroke="#000000" stroke-width="2" stroke-linecap="round" stroke-linejoin="round" stroke-miterlimit="10" d="
			M145.2,241.7c0.1,0,0.2,0.1,0.3,0.1c0.8,0.3,1.6,0.5,2.4,0.8c0.1,0,0.3,0.1,0.4,0.1c0.8,0.3,1.6,0.6,2.3,0.9
			c0.1,0.1,0.3,0.1,0.4,0.2c0.8,0.3,1.6,0.7,2.3,1.1c0.1,0.1,0.2,0.1,0.4,0.2c0.8,0.4,1.6,0.8,2.4,1.2c0.1,0,0.1,0.1,0.2,0.1
			c0.8,0.4,1.6,0.9,2.4,1.3c0.1,0,0.1,0.1,0.2,0.1c0.2,0.1,0.5,0.3,0.7,0.4c2.3-3.6,5.6-7.7,9.8-11.2c0,0-11.3,1.9-9.4-5.7
			c1.9-7.6,10.3-4.3,10.3-4.3s14,1.3,16.2,0.8c2.2-0.5,14.6-2.4,20.2-5.7c5.7-3.2,17.8-7.8,17.8-7.8s-10.9-6.6-15.2-11.1
			c2.4-5.5,7.2-14.6,13.5-18.8c2.1,1.4,5.5,3.8,9.3,6.9c4.5-7.7-0.1-11.2-0.1-11.2s-1-0.5-2.7-1.3c0,0,0,0,0,0l-18.9-8.8
			c-1.4-0.6-2.8-1.2-4.1-1.8c-8.8,7.3-14.6,3.3-14.6,3.3c-5.6,4.3-9.5,3.6-12,1.4c-0.5,0.9-1,1.8-1.6,2.6c0,0,0,0,0,0.1
			c-0.5,0.8-1.1,1.6-1.6,2.4c0,0.1-0.1,0.1-0.1,0.2c-0.5,0.8-1.1,1.5-1.7,2.2c0,0.1-0.1,0.1-0.1,0.2c-0.3,0.3-0.5,0.6-0.8,1
			c0,0,0,0-0.1,0.1c-0.3,0.3-0.6,0.6-0.8,1c-0.1,0.1-0.1,0.1-0.2,0.2c-0.2,0.3-0.5,0.5-0.7,0.8c0,0-0.1,0.1-0.1,0.1
			c-0.3,0.3-0.6,0.5-0.8,0.8c-0.1,0.1-0.1,0.1-0.2,0.2c-0.2,0.2-0.5,0.4-0.7,0.6c-0.1,0.1-0.1,0.1-0.2,0.2c-0.3,0.2-0.6,0.4-0.8,0.6
			c0,0-0.1,0.1-0.1,0.1c-0.2,0.2-0.5,0.3-0.7,0.5c-0.1,0-0.1,0.1-0.2,0.1c-0.3,0.2-0.6,0.3-0.9,0.4c0,0-0.1,0-0.1,0
			c-0.3,0.1-0.5,0.2-0.8,0.3c-0.1,0-0.1,0-0.2,0.1c-0.3,0.1-0.6,0.2-0.9,0.2c0,0,0,0,0,0h0c0,0,0,0,0,0c-1.7,0.3-3.1-0.1-4.2-1.1
			l0,0c0,0,0,0,0,0c-0.2-0.2-0.5-0.4-0.7-0.7c-0.1-0.1-0.1-0.2-0.2-0.3c-0.1-0.2-0.3-0.4-0.4-0.6c-0.1-0.1-0.1-0.2-0.2-0.3
			c-0.1-0.2-0.2-0.4-0.4-0.6c-0.1-0.1-0.1-0.3-0.2-0.4c-0.1-0.2-0.2-0.4-0.3-0.6c0-0.1-0.1-0.1-0.1-0.2l0,0
			c-0.2-0.4-0.3-0.8-0.5-1.3c-1.7,1.1-3.1,2.1-3.1,2.1c-6.4,12.3-19.6,3.9-19.6,3.9c-2.3,2.3-5.3,2.4-8.1,1.5
			c-0.9,1.2-1.9,4.6-1.5,9.1l6.1-2.9c4.3,2.3,13,8.5,14,20.6c-2.4,1.4-5,2.6-7.6,3.8c9.5,7.4,12-0.2,12-0.2c3-3.9,10-5.2,10-5.2
			c1.3,1.3,3.9,0.9,3.9,0.9c-5.2,1.7-3,5.6-3,5.6c-9.1,0-12.6,9.5-12.6,9.5c-10.7,3.1-9,8.6-6.4,12l0.9-1.5
			C143.6,241.2,144.4,241.5,145.2,241.7z M180.3,203.6c0,0,5.4,9,5.5,9.8s0.2,1.5,0,2.1s-3.7,4.5-6.6,2.1l-0.4-0.5l-3.5-10.7
			C175.1,206.3,175.9,200.3,180.3,203.6z"/>
		<path fill="#FFCC00" stroke="#000000" stroke-width="2" stroke-miterlimit="10" d="M88.7,240.2c-3.6,2.1-7.4,5.3-11.2,8.9
			c5.3,2.9,10.8,5.5,16.4,7.7c0.7-10.3,2.7-16.2,5.1-19.5C93.5,237.4,88.7,240.2,88.7,240.2z"/>
		<path fill="#8A5CAA" stroke="#000000" stroke-width="2" stroke-miterlimit="10" d="M155.1,256.3c0,0,1.5-3.6,4.5-8.2
			c-0.2-0.1-0.5-0.3-0.7-0.4c-0.1,0-0.1-0.1-0.2-0.1c-0.8-0.4-1.6-0.9-2.4-1.3c-0.1,0-0.1-0.1-0.2-0.1c-0.8-0.4-1.6-0.8-2.4-1.2
			c-0.1-0.1-0.2-0.1-0.4-0.2c-0.8-0.4-1.6-0.7-2.3-1.1c-0.1-0.1-0.3-0.1-0.4-0.2c-0.8-0.3-1.6-0.6-2.3-0.9c-0.1,0-0.3-0.1-0.4-0.1
			c-0.8-0.3-1.6-0.6-2.4-0.8c-0.1,0-0.2-0.1-0.3-0.1c-0.8-0.3-1.7-0.5-2.5-0.7l-0.9,1.5l-1.7,2.9c0,0-25.6-7.3-29.4-10.1
			c0,0-6.7-4.7-11.7,2.1c-2.4,3.3-4.4,9.2-5.1,19.5c14.2,5.4,29.5,8.4,45.6,8.4c4.7,0,9.3-0.3,13.8-0.7
			C151,260.6,155.1,256.3,155.1,256.3z"/>
		<path fill="#8A5CAA" stroke="#000000" stroke-width="2" stroke-miterlimit="10" d="M173.9,257.8c-0.7-0.5-1.4-1.1-2.1-1.6
			c-0.1,0-0.1-0.1-0.2-0.1c-0.7-0.5-1.5-1.1-2.2-1.6c-0.1-0.1-0.2-0.2-0.3-0.2c-0.4-0.3-0.7-0.5-1.1-0.8c-0.2,0.4-0.2,0.6-0.2,0.6
			l-5.7,8.4c0,0-0.2,0.3-0.5,0.8c3.8-0.7,7.5-1.5,11.2-2.5L173.9,257.8z"/>
		<path fill="#42B8D5" stroke="#000000" stroke-width="2" stroke-miterlimit="10" d="M178.8,215.7L178.8,215.7
			c2.9,2.5,5.4-1.6,5.4-1.6l0.4-1.3C182.8,212.8,180.1,213.2,178.8,215.7z"/>
		<path fill="#42B8D5" stroke="#000000" stroke-width="2" stroke-miterlimit="10" d="M184.6,212.9l-4.4-9.5
			c-4.3-3.2-5.1,2.7-5.1,2.7l3.8,9.6C180.1,213.2,182.8,212.8,184.6,212.9z"/>
		<path fill="#FFCC00" stroke="#000000" stroke-width="2" stroke-miterlimit="10" d="M232.1,191.1c-3.8-3.1-7.3-5.5-9.3-6.9
			c-6.3,4.2-11.1,13.4-13.5,18.8c4.4,4.6,15.2,11.1,15.2,11.1s-12.1,4.6-17.8,7.8c-5.7,3.2-18.1,5.1-20.2,5.7
			c-2.2,0.5-16.2-0.8-16.2-0.8s-8.4-3.2-10.3,4.3c-1.9,7.6,9.4,5.7,9.4,5.7c-4.2,3.5-7.5,7.7-9.8,11.2c-3,4.6-4.5,8.2-4.5,8.2
			s-4.1,4.3-1.8,8.2c2.8-0.3,5.6-0.7,8.3-1.2c0.3-0.5,0.5-0.8,0.5-0.8l5.7-8.4c0,0,0.1-0.3,0.2-0.6c0.6-1.3,2.2-4.3,5.4-2.4
			c4,2.4,0.8,5.7,0.8,5.7l-0.4,1.1l-1.1,2.9c3.1-0.8,6.1-1.8,9.1-2.8c1-2.1,2.4-2,3.5-1.3c3.9-1.5,7.7-3.2,11.3-5
			c2.3-2.6,4.2-7.5,4.2-7.5c2.8,0.1,5.8,0.1,8.7,0c15-9.9,27.8-23,37.5-38.2C242.9,200.4,237.2,195.2,232.1,191.1z"/>
		<path fill="#FFCC00" stroke="#000000" stroke-width="2" stroke-miterlimit="10" d="M131.7,195.3l-6.1,2.9l-11.9,5.6
			c0,0-5.6,3.4-19.9-0.6L63.4,186c0,0,3.4-6.5,0-13.4c0,0,4.7,5.3,9.3-2.8c0,0,1.9-12.1-7.1-11.2c0,0-5.6-5-10.6-2.2l-5.6,3.1
			l-0.6-5.6c0,0,9,0,8.1-6.5c0,0-1.6-5-8.1-3.4c-6.5,1.6-12.4,6.8-11.5,10.3l2.8,8.1l-1.2,25.2c0,0,3.4,7.1,9.3,13.7
			c0,0,22.4,22.4,56.9,28.9c0,0,17.7-3.7,33-10.5c2.6-1.2,5.2-2.4,7.6-3.8C144.6,203.8,136,197.6,131.7,195.3z"/>
		<path stroke="#000000" stroke-width="2" stroke-miterlimit="10" d="M149.7,154.7C149.7,154.7,149.7,154.7,149.7,154.7
			C149.7,154.7,149.7,154.7,149.7,154.7z"/>
		<path stroke="#000000" stroke-width="2" stroke-miterlimit="10" d="M148.7,155.8C148.7,155.8,148.7,155.8,148.7,155.8
			C148.7,155.8,148.7,155.8,148.7,155.8z"/>
		<path stroke="#000000" stroke-width="2" stroke-miterlimit="10" d="M147.5,157.1C147.5,157.1,147.5,157.1,147.5,157.1
			C147.5,157.1,147.5,157.1,147.5,157.1z"/>
		<path stroke="#000000" stroke-width="2" stroke-miterlimit="10" d="M150.6,153.7C150.6,153.7,150.6,153.7,150.6,153.7
			C150.6,153.7,150.6,153.7,150.6,153.7z"/>
		<path stroke="#000000" stroke-width="2" stroke-miterlimit="10" d="M143.7,163.9c0,0.3,0.1,0.7,0.1,1.1l0.6-1.1
			C144.2,164,143.9,164,143.7,163.9z"/>
		<path stroke="#000000" stroke-width="2" stroke-miterlimit="10" d="M135.2,187.6c0,0,13.3,8.3,19.6-3.9c0,0,1.4-1,3.1-2.1
			c1.1-0.7,2.4-1.4,3.6-1.8c0,0,0,0,0,0c-0.3-0.4-0.5-0.7-0.8-1c-0.1-0.1-0.1-0.1-0.2-0.2c-0.3-0.3-0.6-0.6-0.9-0.9
			c-0.1-0.1-0.1-0.1-0.2-0.2c-0.3-0.3-0.6-0.5-0.9-0.7c-0.1,0-0.1-0.1-0.2-0.1c-0.3-0.2-0.6-0.4-0.9-0.5c-0.1-0.1-0.2-0.1-0.3-0.2
			c-0.2-0.1-0.5-0.3-0.8-0.4c-0.3-0.1-0.5-0.3-0.8-0.4c-0.2-0.1-0.4-0.2-0.5-0.2c-0.1,0-0.1-0.1-0.2-0.1c-0.3-0.1-0.7-0.2-1-0.3
			c-0.1,0-0.2-0.1-0.3-0.1c-0.3-0.1-0.5-0.1-0.8-0.2c-0.1,0-0.2,0-0.3-0.1c-0.3-0.1-0.6-0.1-0.9-0.2c-0.1,0-0.2,0-0.3-0.1
			c-0.2,0-0.4-0.1-0.7-0.1c-0.1,0-0.2,0-0.3,0c-0.2,0-0.5-0.1-0.7-0.1c-0.1,0-0.2,0-0.3,0c-0.2,0-0.4,0-0.5,0c-0.1,0-0.1,0-0.2,0
			c-0.2,0-0.3,0-0.5,0c-0.1,0-0.1,0-0.2,0c-0.1,0-0.3,0-0.4,0c0,0-0.1,0-0.1,0c-0.1,0-0.2,0-0.2,0c0,0,0,0-0.1,0c0,0-0.1,0-0.1,0
			c-7.1,4.3-7.5,0.4-7.3-1.6c-1.7,0.8-3.7,0.8-5.4,0.5c0.1,2-0.3,4.6-2.4,6.5c-2.7,2.5-6.8,1.6-9,0.9c-1.6,1.3-3.1,2.5-4.7,3.7
			c1.3,1.2,4.8,4.2,8.6,5.4C129.9,190,132.9,190,135.2,187.6z"/>
		<path stroke="#000000" stroke-width="2" stroke-miterlimit="10" d="M93.7,148.2c0.2,0,0.3,0,0.5,0C94,148.2,93.8,148.2,93.7,148.2
			z"/>
		<path stroke="#000000" stroke-width="2" stroke-miterlimit="10" d="M97.6,136.5c-0.1,0-0.2,0.1-0.4,0.1
			C97.4,136.6,97.5,136.6,97.6,136.5z"/>
		<path stroke="#000000" stroke-width="2" stroke-miterlimit="10" d="M90.7,148.1c0.2,0,0.3,0.1,0.5,0.1
			C91,148.2,90.9,148.1,90.7,148.1z"/>
		<path stroke="#000000" stroke-width="2" stroke-miterlimit="10" d="M99.2,136c-0.1,0-0.3,0.1-0.4,0.1
			C98.9,136.1,99,136.1,99.2,136z"/>
		<path stroke="#000000" stroke-width="2" stroke-miterlimit="10" d="M100.7,135.6c-0.1,0-0.2,0.1-0.4,0.1
			C100.5,135.7,100.6,135.6,100.7,135.6C100.8,135.6,100.7,135.6,100.7,135.6z"/>
		<path stroke="#000000" stroke-width="2" stroke-miterlimit="10" d="M89.9,147.9c0.2,0.1,0.3,0.1,0.5,0.1
			C90.2,148,90.1,147.9,89.9,147.9z"/>
		<path stroke="#000000" stroke-width="2" stroke-miterlimit="10" d="M94.5,137.8c0,0,0.1,0,0.1-0.1
			C94.6,137.7,94.6,137.7,94.5,137.8C94.6,137.7,94.5,137.8,94.5,137.8C94.5,137.8,94.5,137.8,94.5,137.8z"/>
		<path stroke="#000000" stroke-width="2" stroke-miterlimit="10" d="M86.7,142.2C86.7,142.2,86.7,142.2,86.7,142.2
			C86.7,142.2,86.7,142.2,86.7,142.2C86.7,142.2,86.7,142.2,86.7,142.2z"/>
		<path stroke="#000000" stroke-width="2" stroke-miterlimit="10" d="M96.1,137.1c-0.1,0-0.2,0.1-0.3,0.1
			C95.9,137.2,96,137.1,96.1,137.1z"/>
		<path stroke="#000000" stroke-width="2" stroke-miterlimit="10" d="M97.7,149.1C97.7,149.1,97.7,149.1,97.7,149.1
			C97.7,149.1,97.7,149.1,97.7,149.1z"/>
		<path stroke="#000000" stroke-width="2" stroke-miterlimit="10" d="M104.7,136.3C104.7,136.3,104.7,136.3,104.7,136.3
			c0-0.1,0-0.1,0-0.2l0,0C104.7,136.2,104.7,136.2,104.7,136.3z"/>
		<path stroke="#000000" stroke-width="2" stroke-miterlimit="10" d="M99.5,147.2C99.5,147.2,99.5,147.2,99.5,147.2
			C99.5,147.2,99.5,147.2,99.5,147.2z"/>
		<path stroke="#000000" stroke-width="2" stroke-miterlimit="10" d="M104.7,138.2C104.7,138.2,104.7,138.2,104.7,138.2
			c0-0.2,0-0.4,0-0.5c0,0,0,0,0-0.1C104.7,137.8,104.7,138,104.7,138.2z"/>
		<path stroke="#000000" stroke-width="2" stroke-miterlimit="10" d="M102.4,135.3c-0.1,0-0.2,0-0.2,0
			C102.2,135.3,102.3,135.3,102.4,135.3L102.4,135.3z"/>
		<path stroke="#000000" stroke-width="2" stroke-miterlimit="10" d="M104.7,139C104.7,139,104.7,139,104.7,139
			c0-0.2,0.1-0.5,0.1-0.7c0,0,0,0,0-0.1C104.7,138.5,104.7,138.8,104.7,139z"/>
		<path stroke="#000000" stroke-width="2" stroke-miterlimit="10" d="M104.5,139.8C104.5,139.8,104.5,139.8,104.5,139.8
			c0-0.2,0.1-0.4,0.1-0.6c0,0,0-0.1,0-0.1C104.6,139.3,104.6,139.5,104.5,139.8z"/>
		<path stroke="#000000" stroke-width="2" stroke-miterlimit="10" d="M100,146.2c0,0,0.1-0.1,0.1-0.1
			C100.1,146.2,100.1,146.2,100,146.2z"/>
		<path stroke="#000000" stroke-width="2" stroke-miterlimit="10" d="M104.3,140.7c0.1-0.2,0.1-0.5,0.2-0.7c0,0,0-0.1,0-0.1
			C104.5,140.1,104.4,140.4,104.3,140.7z"/>
		<path stroke="#000000" stroke-width="2" stroke-miterlimit="10" d="M101.8,145.2C101.9,145.2,101.9,145.1,101.8,145.2
			c0.1-0.1,0.1-0.1,0.2-0.1C101.9,145.1,101.9,145.1,101.8,145.2L101.8,145.2z"/>
		<path stroke="#000000" stroke-width="2" stroke-miterlimit="10" d="M103.3,143.1c0.1-0.2,0.2-0.4,0.3-0.6c0,0,0-0.1,0-0.1
			C103.6,142.7,103.5,142.9,103.3,143.1z"/>
		<path stroke="#000000" stroke-width="2" stroke-miterlimit="10" d="M99.1,146.7c0.1,0,0.2-0.1,0.3-0.1
			C99.2,146.6,99.2,146.7,99.1,146.7z"/>
		<path stroke="#000000" stroke-width="2" stroke-miterlimit="10" d="M102.2,144.8c0.1-0.2,0.3-0.3,0.4-0.5c0,0,0-0.1,0.1-0.1
			C102.5,144.4,102.3,144.6,102.2,144.8z"/>
		<path stroke="#000000" stroke-width="2" stroke-miterlimit="10" d="M103.8,142.3c0.1-0.2,0.2-0.4,0.2-0.6c0,0,0-0.1,0-0.1
			C104,141.8,103.9,142.1,103.8,142.3z"/>
		<path stroke="#000000" stroke-width="2" stroke-miterlimit="10" d="M97.3,147.5c0,0,0.1,0,0.1,0C97.4,147.4,97.3,147.4,97.3,147.5
			z"/>
		<path stroke="#000000" stroke-width="2" stroke-miterlimit="10" d="M94.6,148.1c0.1,0,0.3,0,0.4-0.1
			C94.9,148.1,94.8,148.1,94.6,148.1z"/>
		<path stroke="#000000" stroke-width="2" stroke-miterlimit="10" d="M98.1,147.2c0.1,0,0.2-0.1,0.3-0.1
			C98.3,147.1,98.2,147.1,98.1,147.2z"/>
		<path stroke="#000000" stroke-width="2" stroke-miterlimit="10" d="M92.6,148.3c0.2,0,0.4,0,0.7,0C93,148.3,92.8,148.3,92.6,148.3
			z"/>
		<path stroke="#000000" stroke-width="2" stroke-miterlimit="10" d="M100,146.7C100,146.7,100,146.7,100,146.7
			C100,146.7,100,146.7,100,146.7z"/>
		<path stroke="#000000" stroke-width="2" stroke-miterlimit="10" d="M95.6,147.9c0.1,0,0.2-0.1,0.4-0.1
			C95.8,147.9,95.7,147.9,95.6,147.9z"/>
		<path stroke="#000000" stroke-width="2" stroke-miterlimit="10" d="M91.5,148.2c0.2,0,0.4,0,0.6,0
			C91.9,148.3,91.7,148.3,91.5,148.2z"/>
		<path stroke="#000000" stroke-width="2" stroke-miterlimit="10" d="M103.1,143.5c0-0.1,0.1-0.1,0.1-0.2c0,0,0,0,0,0
			c-0.1,0.2-0.3,0.4-0.4,0.7C102.9,143.8,103,143.7,103.1,143.5z"/>
		<path stroke="#000000" stroke-width="2" stroke-miterlimit="10" d="M94.6,163.6C94.6,163.6,94.6,163.6,94.6,163.6
			c0.1-0.2,0.2-0.4,0.3-0.5c0,0,0,0,0-0.1c0.1-0.1,0.1-0.2,0.2-0.3c0,0,0,0,0,0c0-0.1,0.1-0.1,0.1-0.2c0,0,0,0,0-0.1c0,0,0,0,0,0
			c-1.6-2.5-1.7-5.1-1.1-7.4l0,0c-8.4,0-6.8-4.8-5.2-7.6c0.2,0.1,0.4,0.2,0.7,0.3c-1-0.4-1.9-1-2.5-1.9c-0.7-1-1-2.1-0.9-3.4
			c0.1,0,0.1-0.1,0.3-0.2c0,0,0,0,0,0c-0.1,0-0.1,0.1-0.2,0.1c0,0-0.1,0.1-0.1,0.1c-0.1,0-0.1,0.1-0.1,0.1c-0.5,0-0.9,0-1.4-0.1
			c-0.1,0-0.3,0-0.4,0c-0.3,0-0.6-0.1-0.8-0.1c-0.1,0-0.2,0-0.4-0.1c-0.3-0.1-0.5-0.1-0.8-0.2c-0.1,0-0.1,0-0.2-0.1
			c-0.3-0.1-0.6-0.2-0.8-0.4c-0.1,0-0.1-0.1-0.2-0.1c-0.2-0.1-0.3-0.2-0.5-0.3c-0.1-0.1-0.1-0.1-0.2-0.2c-0.1-0.1-0.3-0.2-0.4-0.4
			c0-0.1-0.1-0.1-0.1-0.2c-0.2-0.2-0.3-0.4-0.4-0.6c0,0,0-0.1,0-0.1c-0.1-0.2-0.2-0.4-0.2-0.6c0-0.1,0-0.1-0.1-0.2
			c0-0.2-0.1-0.3-0.1-0.5c0-0.1,0-0.1,0-0.2c0-0.2-0.1-0.4-0.1-0.6c0,0,0-0.1,0-0.1c0-0.2,0-0.5,0-0.7c0-0.1,0-0.1,0-0.2
			c0-0.2,0-0.4,0.1-0.6c0-0.1,0-0.2,0-0.2c0-0.2,0.1-0.4,0.1-0.6c0-0.1,0-0.1,0-0.2c0.1-0.3,0.1-0.5,0.2-0.8c0,0,0-0.1,0-0.1
			c0.1-0.2,0.1-0.4,0.2-0.7c0-0.1,0-0.1,0.1-0.2c0.1-0.2,0.1-0.4,0.2-0.5c0,0,0-0.1,0-0.1c0,0,0,0,0,0c0,0,0,0,0,0
			c-2,1.9-3.8,3.3-5.5,4.2c-1.4,4.3-0.7,9.7,6.1,15.3c0,0-7.5,13.7,13.4,12.4c0.1-0.1,0.1-0.2,0.2-0.4c0,0,0-0.1,0-0.1
			C94.4,164,94.5,163.8,94.6,163.6z"/>
		<path stroke="#000000" stroke-width="2" stroke-miterlimit="10" d="M100.6,146.2C100.6,146.2,100.5,146.2,100.6,146.2
			C100.5,146.2,100.6,146.2,100.6,146.2z"/>
		<path stroke="#000000" stroke-width="2" stroke-miterlimit="10" d="M104.8,137.5C104.8,137.5,104.8,137.5,104.8,137.5
			c0-0.2,0-0.3,0-0.5c0,0,0-0.1,0-0.1c0-0.2,0-0.3,0-0.5c0,0,0,0,0,0C104.7,136.7,104.8,137.1,104.8,137.5z"/>
		<path stroke="#000000" stroke-width="2" stroke-miterlimit="10" d="M101.4,145.6C101.4,145.6,101.3,145.6,101.4,145.6
			C101.3,145.6,101.4,145.6,101.4,145.6z"/>
		<path stroke="#000000" stroke-width="2" stroke-miterlimit="10" d="M104.3,140.8C104.3,140.7,104.3,140.7,104.3,140.8
			C104.3,140.7,104.3,140.7,104.3,140.8c0,0.2-0.1,0.4-0.2,0.7C104.2,141.2,104.2,141,104.3,140.8z"/>
		<path stroke="#000000" stroke-width="2" stroke-miterlimit="10" d="M101,145.8C101,145.8,101,145.9,101,145.8
			C101,145.9,101,145.8,101,145.8z"/>
		<path stroke="#000000" stroke-width="2" stroke-miterlimit="10" d="M146.7,115.1c1.2-0.4,2.3-0.6,3.2-0.8c-1.8-3.9-4.5-8.9-7.6-14
			c-2.3-2.2-5.9-5.3-9.7-6.2c-2.1,6.1-8.7,8.5-8.7,8.5l-1,5.4c-0.2,0.5-0.5,1-0.7,1.5c0,0,0,0.1,0,0.1c0.1,0.2,0.1,0.4,0.2,0.6
			c0,0.1,0.1,0.1,0.1,0.2c0.1,0.2,0.1,0.4,0.2,0.5c0,0.1,0.1,0.2,0.1,0.2c0.1,0.2,0.2,0.3,0.2,0.5c0,0.1,0.1,0.2,0.1,0.2
			c0.1,0.1,0.2,0.3,0.3,0.4c0.1,0.1,0.1,0.2,0.2,0.2c0.1,0.1,0.2,0.3,0.3,0.4c0.1,0.1,0.1,0.2,0.2,0.2c0.1,0.1,0.2,0.2,0.3,0.3
			c0.1,0.1,0.2,0.1,0.2,0.2c0.1,0.1,0.2,0.2,0.4,0.3c0.1,0.1,0.2,0.1,0.3,0.2c0.1,0.1,0.3,0.1,0.4,0.2c0.1,0.1,0.2,0.1,0.3,0.2
			c0.1,0.1,0.3,0.1,0.4,0.2c0.1,0,0.2,0.1,0.4,0.1c0.1,0,0.3,0.1,0.5,0.1c0.1,0,0.3,0.1,0.4,0.1c0.2,0,0.3,0,0.5,0
			c0.1,0,0.3,0,0.4,0c0.2,0,0.4,0,0.6,0c0.2,0,0.3,0,0.5,0c0.2,0,0.4-0.1,0.6-0.1c0.2,0,0.3,0,0.5-0.1c0.2,0,0.5-0.1,0.7-0.2
			c0.2,0,0.3-0.1,0.5-0.1c0.3-0.1,0.6-0.2,0.9-0.3c0.2-0.1,0.3-0.1,0.4-0.2c0.5-0.2,0.9-0.4,1.4-0.6c0,0-0.9,6.8,4.8,8.6
			C140.2,118.1,143.6,116.1,146.7,115.1z"/>
		<path stroke="#000000" stroke-width="2" stroke-miterlimit="10" d="M160.4,121.6c0.6,1,4.3,7.1,3.6,12.5c-0.4,3.1-0.9,5.2-5.5,6.7
			c-1.9,0.7-3.7,0.9-5.3,0.8c1.1,4.9,3.8,10.1,10,7.5c0,0,1,18.2,12.3,15.7c0,0,0,0,0,0.1c0,0,0,0,0,0c0,0,0,0.1,0,0.1
			c0,0,0,0,0,0.1c0,0.1,0,0.1,0.1,0.2c0,0,0,0,0,0.1c0,0.1,0,0.2,0.1,0.3c0,0,0,0,0,0.1c0,0.1,0.1,0.2,0.1,0.4c0,0,0,0,0,0.1
			c0,0.1,0.1,0.3,0.1,0.4c0,0,0,0,0,0c0.3,0.9,0.7,1.9,1.3,3c0,0,0,0,0,0c0.1,0.2,0.2,0.4,0.4,0.6c0,0,0,0,0,0.1
			c0.1,0.2,0.2,0.4,0.4,0.6c0,0,0,0,0.1,0.1c0.1,0.2,0.3,0.4,0.4,0.5c0,0,0,0,0.1,0.1c0.1,0.2,0.3,0.4,0.5,0.5c0,0,0,0,0,0
			c0.2,0.2,0.4,0.4,0.6,0.5c0,0,0,0,0,0c0,0,0,0,0,0c2.5,2.2,6.3,2.9,12-1.4c0,0,5.8,3.9,14.6-3.3c0,0,0.1,0,0.1-0.1l4,1.9l18.9,8.8
			c0,0,0,0,0,0c0,0,5.6-2.4,5.6-10.2c0-7.9-7.9-9.8-8.8-9.3c0,0-4.4-14.7-13.3-9.8c0,0-2.5-12.8-9.3-10.8c0,0,0.5-10.8-8.8-11.3
			c0,0,0-20.6-15.2-16.2c0,0-5.9-11.8-14.7-3.9c0,0-10.4-11.9-17.6-7.2c3.7,6.2,7.1,12.3,9.5,16.8
			C158.4,118.5,159.9,120.8,160.4,121.6z"/>
		<path fill="#E65C00" stroke="#000000" stroke-width="2" stroke-miterlimit="10" d="M158.5,140.9c4.6-1.6,5.1-3.7,5.5-6.7
			c-3.6,4.1-7.3,5.5-11.6,2.4c0.1,1.4,0.3,3.2,0.8,5.1C154.9,141.8,156.6,141.6,158.5,140.9z"/>
		<path fill="#E65C00" stroke="#000000" stroke-width="2" stroke-miterlimit="10" d="M146.7,115.1c-3.1,1-6.5,3-7.2,7
			c1,0.3,2.3,0.5,3.8,0.4C142.9,118.7,144.9,116.4,146.7,115.1z"/>
		<path fill="#E65C00" stroke="#000000" stroke-width="2" stroke-miterlimit="10" d="M146,129c0.6,2.1,1.6,4.1,3.7,5.1
			c-1.2-1.3-2.3-2.9-3.6-4.8C146,129.1,146,129,146,129z"/>
		<path fill="#FF6600" stroke="#000000" stroke-width="2" stroke-miterlimit="10" d="M164,134.2c0.7-5.5-3-11.6-3.6-12.5
			c-0.5-0.9-2-3.1-3.9-4.9c2.3,4.3,3.7,7.1,3.7,7.1c2,4.2-3.9,12.2-9.4,4.1c-5.4-8.2,0.6-9.5,0.6-9.5c-0.4-1.1-0.9-2.5-1.6-4
			c-0.9,0.2-2,0.4-3.2,0.8c-1.9,1.3-3.8,3.6-3.4,7.4c0.7,0,1.4-0.1,2.1-0.2c0,0-0.4,3.4,0.4,6.7c0,0.1,0.1,0.1,0.1,0.2
			c1.2,2,2.4,3.6,3.6,4.8c0.8,0.3,1.7,0.5,2.7,0.5c0,0,0,0.8,0.1,2C156.7,139.7,160.4,138.2,164,134.2z"/>
		<path fill="#8FB5BE" stroke="#000000" stroke-width="2" stroke-miterlimit="10" d="M88.2,90.6c0.2-0.1,0.3-0.2,0.5-0.3
			c0.5-0.2,0.9-0.5,1.4-0.7c1.4-3.2,5-8.7,14.7-13.8c0,0,14.4-3.7,20.7,1.4c3.7,3,10.9,13.2,16.8,23.1c3.1,5.1,5.8,10.1,7.6,14
			c0.7,1.5,1.2,2.9,1.6,4c0,0-6,1.4-0.6,9.5c5.4,8.2,11.3,0.2,9.4-4.1c0,0-1.4-2.8-3.7-7.1c-2.4-4.5-5.8-10.6-9.5-16.8
			c-6.9-11.6-15.1-23.7-20.4-26.4c-10.9-5.5-20.1-2.9-24.4-1.4c-4.1,1.4-16,10.2-16.4,19.8c0.2-0.1,0.3-0.2,0.5-0.3
			c0.1-0.1,0.2-0.1,0.4-0.2C87.2,91.1,87.7,90.8,88.2,90.6z"/>
		<path fill="#F7AC7F" stroke="#000000" stroke-width="2" stroke-miterlimit="10" d="M80.2,132.6c7.4-7.4,19.6-4.9,19.6-4.9
			s0,0,0.1,0c0,0,0,0,0.1,0c0,0,0.1,0,0.1,0c0,0,0,0,0.1,0c0.1,0,0.1,0,0.2,0c0,0,0,0,0.1,0c0.1,0,0.1,0,0.2,0c0,0,0.1,0,0.1,0
			c0.1,0,0.2,0,0.2,0c0,0,0.1,0,0.1,0c0.1,0,0.2,0,0.3,0c0.1,0,0.1,0,0.1,0c0.1,0,0.2,0,0.3-0.1c0.1,0,0.1,0,0.2,0
			c0.1,0,0.2,0,0.4-0.1c0.1,0,0.1,0,0.2,0c0.1,0,0.3-0.1,0.4-0.1c0.1,0,0.1,0,0.2,0c0.1,0,0.3-0.1,0.4-0.1c0.1,0,0.1,0,0.2-0.1
			c0.2,0,0.3-0.1,0.5-0.1c0.1,0,0.1,0,0.2-0.1c0.2-0.1,0.3-0.1,0.5-0.2c0.1,0,0.2-0.1,0.2-0.1c0.2-0.1,0.3-0.1,0.5-0.2
			c0.1,0,0.2-0.1,0.2-0.1c0.2-0.1,0.4-0.2,0.5-0.2c0.1,0,0.2-0.1,0.3-0.1c0.2-0.1,0.4-0.2,0.6-0.3c0.1,0,0.2-0.1,0.3-0.1
			c0.2-0.1,0.4-0.2,0.6-0.3c0.1-0.1,0.2-0.1,0.3-0.2c0.2-0.1,0.4-0.2,0.6-0.3c0.1-0.1,0.2-0.1,0.3-0.2c0.2-0.1,0.4-0.3,0.6-0.4
			c0.1-0.1,0.2-0.1,0.3-0.2c0.2-0.1,0.4-0.3,0.6-0.4c0.1-0.1,0.2-0.1,0.3-0.2c0.2-0.2,0.4-0.3,0.6-0.5c0.1-0.1,0.2-0.2,0.3-0.2
			c0.2-0.2,0.4-0.3,0.6-0.5c0.1-0.1,0.2-0.2,0.3-0.3c0.2-0.2,0.4-0.4,0.6-0.6c0.1-0.1,0.2-0.2,0.3-0.3c0.2-0.2,0.4-0.4,0.6-0.6
			c0.1-0.1,0.2-0.2,0.3-0.3c0.2-0.2,0.4-0.4,0.6-0.7c0.1-0.1,0.2-0.2,0.3-0.4c0.2-0.2,0.4-0.5,0.6-0.7c0.1-0.1,0.2-0.3,0.3-0.4
			c0.2-0.3,0.4-0.5,0.6-0.8c0.1-0.1,0.2-0.3,0.3-0.4c0.2-0.3,0.4-0.6,0.6-0.9c0.1-0.1,0.2-0.3,0.3-0.4c0.2-0.3,0.4-0.6,0.6-0.9
			c0.1-0.2,0.2-0.3,0.3-0.5c0.2-0.3,0.4-0.7,0.6-1c0.1-0.2,0.2-0.3,0.3-0.5c0.2-0.4,0.4-0.7,0.6-1.1c0.1-0.2,0.2-0.4,0.3-0.6
			c0.2-0.4,0.4-0.8,0.6-1.1c0,0,0-0.1,0.1-0.1c0.2-0.5,0.5-1,0.7-1.5c-26,0-40.8,11.8-40.8,11.8l-15.7,14.7c0,0-2.5,4.9,0.5,4.4
			c0,0,3.1,0.5,7.6-2c1.7-0.9,3.5-2.3,5.5-4.2C80.1,132.7,80.1,132.7,80.2,132.6z"/>
		<path fill="#F7AC7F" stroke="#000000" stroke-width="2" stroke-miterlimit="10" d="M122.9,108l1-5.4c0,0,6.6-2.4,8.7-8.5
			c0-0.1,0.1-0.2,0.1-0.3l-9.3-13.8c0,0-10.3-2-32.9,9.3c-0.6,0.3-1.2,0.6-1.8,0.9c-0.2,0.1-0.4,0.2-0.5,0.3c-0.5,0.3-1,0.5-1.5,0.8
			c-0.1,0.1-0.2,0.1-0.4,0.2c-17.3,9.8-9.6,14.5-9.6,14.5s7.9,7.9,5.4,13.8C82.2,119.8,96.9,108,122.9,108z"/>
		<path fill="#FFCC00" stroke="#000000" stroke-width="2" stroke-miterlimit="10" d="M126,177.6C126,177.6,126.1,177.6,126,177.6
			c2.5-2.1,4.9-4.3,7.2-6.4c2.6-2.4,5-4.7,7.2-6.9c0,0,0,0,0,0c0.7-0.7,1.4-1.4,2-2c1.9-1.9,3.6-3.7,5-5.2c0,0,0,0,0,0
			c0.4-0.4,0.8-0.9,1.2-1.3c0,0,0,0,0,0c0.4-0.4,0.7-0.8,1-1.1c0,0,0,0,0-0.1c0.3-0.3,0.6-0.7,0.8-1c0,0,0,0,0,0
			c0.3-0.3,0.5-0.6,0.7-0.8c0,0,1.9,6-1.9,9.5c-1.4,1.3-3.2,1.7-4.9,1.6l-0.7,1.2c0,1.9-0.5,4.3-2.4,6c-0.4,0.4-0.9,0.7-1.4,1
			c-0.2,2,0.2,5.9,7.3,1.6c0,0,0,0,0.1,0c0,0,0,0,0.1,0c0.1,0,0.1,0,0.2,0c0,0,0.1,0,0.1,0c0.1,0,0.2,0,0.4,0c0.1,0,0.1,0,0.2,0
			c0.1,0,0.3,0,0.5,0c0.1,0,0.1,0,0.2,0c0.2,0,0.3,0,0.5,0c0.1,0,0.2,0,0.3,0c0.2,0,0.4,0,0.7,0.1c0.1,0,0.2,0,0.3,0
			c0.2,0,0.4,0.1,0.7,0.1c0.1,0,0.2,0,0.3,0.1c0.3,0.1,0.6,0.1,0.9,0.2c0.1,0,0.2,0,0.3,0.1c0.3,0.1,0.5,0.1,0.8,0.2
			c0.1,0,0.2,0.1,0.3,0.1c0.3,0.1,0.6,0.2,1,0.3c0.1,0,0.1,0.1,0.2,0.1c0.2,0.1,0.4,0.1,0.6,0.2l0.7-0.3c0,0.2,0.1,0.5,0.1,0.7
			c0,0,0,0,0,0c0.3,0.1,0.5,0.3,0.8,0.4c0.1,0,0.2,0.1,0.3,0.2c0.3,0.2,0.6,0.3,0.9,0.5c0.1,0,0.1,0.1,0.2,0.1
			c0.3,0.2,0.6,0.5,0.9,0.7c0.1,0.1,0.1,0.1,0.2,0.2c0.3,0.3,0.6,0.6,0.9,0.9c0.1,0.1,0.1,0.1,0.2,0.2c0.3,0.3,0.6,0.7,0.8,1
			c0,0,0,0,0,0c0,0,0,0,0,0l-3.1,3.1l0,0c0,0.1,0.1,0.1,0.1,0.2c0.1,0.2,0.2,0.4,0.3,0.6c0.1,0.1,0.1,0.3,0.2,0.4
			c0.1,0.2,0.2,0.4,0.4,0.6c0.1,0.1,0.1,0.2,0.2,0.3c0.1,0.2,0.3,0.4,0.4,0.6c0.1,0.1,0.1,0.2,0.2,0.3c0.2,0.2,0.5,0.5,0.7,0.7
			c0,0,0,0,0,0l0,0l4.2,1.1h0c0,0,0,0,0,0c0.3-0.1,0.6-0.1,0.9-0.2c0.1,0,0.1,0,0.2-0.1c0.3-0.1,0.5-0.2,0.8-0.3c0,0,0.1,0,0.1,0
			c0.3-0.1,0.6-0.3,0.9-0.4c0.1,0,0.1-0.1,0.2-0.1c0.2-0.1,0.5-0.3,0.7-0.5c0,0,0.1-0.1,0.1-0.1c0.3-0.2,0.6-0.4,0.8-0.6
			c0.1,0,0.1-0.1,0.2-0.2c0.2-0.2,0.5-0.4,0.7-0.6c0.1-0.1,0.1-0.1,0.2-0.2c0.3-0.3,0.6-0.5,0.8-0.8c0,0,0.1-0.1,0.1-0.1
			c0.2-0.2,0.5-0.5,0.7-0.8c0.1-0.1,0.1-0.1,0.2-0.2c0.3-0.3,0.6-0.6,0.8-1c0,0,0,0,0.1-0.1c0.3-0.3,0.5-0.6,0.8-1
			c0-0.1,0.1-0.1,0.1-0.2c0.6-0.7,1.1-1.5,1.7-2.2c0-0.1,0.1-0.1,0.1-0.2c0.6-0.8,1.1-1.6,1.6-2.4c0,0,0,0,0-0.1
			c0.5-0.9,1.1-1.7,1.6-2.6c0,0,0,0,0,0c-0.2-0.2-0.4-0.3-0.6-0.5c0,0,0,0,0,0c-0.2-0.2-0.3-0.3-0.5-0.5c0,0,0,0-0.1-0.1
			c-0.1-0.2-0.3-0.4-0.4-0.5c0,0,0,0-0.1-0.1c-0.1-0.2-0.3-0.4-0.4-0.6c0,0,0,0,0-0.1c-0.1-0.2-0.3-0.4-0.4-0.6c0,0,0,0,0,0
			c-0.6-1.1-1-2.2-1.3-3c0,0,0,0,0,0c-0.1-0.2-0.1-0.3-0.1-0.4c0,0,0,0,0-0.1c0-0.1-0.1-0.2-0.1-0.4c0,0,0,0,0-0.1
			c0-0.1-0.1-0.2-0.1-0.3c0,0,0,0,0-0.1c0-0.1,0-0.1-0.1-0.2c0,0,0,0,0-0.1c0-0.1,0-0.1,0-0.1c0,0,0,0,0,0c0,0,0-0.1,0-0.1
			c-11.3,2.5-12.3-15.7-12.3-15.7c-6.2,2.5-8.8-2.6-10-7.5c-0.4-1.9-0.7-3.8-0.8-5.1c-0.1-1.2-0.1-2-0.1-2c-1.1,0-1.9-0.2-2.7-0.5
			c-2.1-0.9-3.2-3-3.7-5.1c-0.8-3.2-0.4-6.7-0.4-6.7c-0.8,0.1-1.5,0.2-2.1,0.2c-1.5,0.1-2.8-0.1-3.8-0.4c-5.8-1.8-4.8-8.6-4.8-8.6
			c-0.5,0.2-1,0.4-1.4,0.6c-0.2,0.1-0.3,0.1-0.4,0.2c-0.3,0.1-0.6,0.2-0.9,0.3c-0.2,0.1-0.3,0.1-0.5,0.1c-0.2,0.1-0.5,0.1-0.7,0.2
			c-0.2,0-0.3,0.1-0.5,0.1c-0.2,0-0.4,0.1-0.6,0.1c-0.2,0-0.3,0-0.5,0c-0.2,0-0.4,0-0.6,0c-0.1,0-0.3,0-0.4,0c-0.2,0-0.3,0-0.5,0
			c-0.1,0-0.3,0-0.4-0.1c-0.2,0-0.3-0.1-0.5-0.1c-0.1,0-0.2-0.1-0.4-0.1c-0.1-0.1-0.3-0.1-0.4-0.2c-0.1,0-0.2-0.1-0.3-0.2
			c-0.1-0.1-0.3-0.1-0.4-0.2c-0.1-0.1-0.2-0.1-0.3-0.2c-0.1-0.1-0.2-0.2-0.4-0.3c-0.1-0.1-0.2-0.1-0.2-0.2c-0.1-0.1-0.2-0.2-0.3-0.3
			c-0.1-0.1-0.1-0.2-0.2-0.2c-0.1-0.1-0.2-0.2-0.3-0.4c-0.1-0.1-0.1-0.2-0.2-0.2c-0.1-0.1-0.2-0.3-0.3-0.4c0-0.1-0.1-0.2-0.1-0.2
			c-0.1-0.2-0.2-0.3-0.2-0.5c0-0.1-0.1-0.2-0.1-0.2c-0.1-0.2-0.1-0.3-0.2-0.5c0-0.1-0.1-0.1-0.1-0.2c-0.1-0.2-0.1-0.4-0.2-0.6
			c0,0,0-0.1,0-0.1c0,0,0,0.1-0.1,0.1c-0.2,0.4-0.4,0.8-0.6,1.1c-0.1,0.2-0.2,0.4-0.3,0.6c-0.2,0.4-0.4,0.7-0.6,1.1
			c-0.1,0.2-0.2,0.4-0.3,0.5c-0.2,0.3-0.4,0.7-0.6,1c-0.1,0.2-0.2,0.3-0.3,0.5c-0.2,0.3-0.4,0.6-0.6,0.9c-0.1,0.2-0.2,0.3-0.3,0.4
			c-0.2,0.3-0.4,0.6-0.6,0.9c-0.1,0.1-0.2,0.3-0.3,0.4c-0.2,0.3-0.4,0.5-0.6,0.8c-0.1,0.1-0.2,0.3-0.3,0.4c-0.2,0.3-0.4,0.5-0.6,0.7
			c-0.1,0.1-0.2,0.2-0.3,0.4c-0.2,0.2-0.4,0.5-0.6,0.7c-0.1,0.1-0.2,0.2-0.3,0.3c-0.2,0.2-0.4,0.4-0.6,0.6c-0.1,0.1-0.2,0.2-0.3,0.3
			c-0.2,0.2-0.4,0.4-0.6,0.6c-0.1,0.1-0.2,0.2-0.3,0.3c-0.2,0.2-0.4,0.4-0.6,0.5c-0.1,0.1-0.2,0.2-0.3,0.2c-0.2,0.2-0.4,0.3-0.6,0.5
			c-0.1,0.1-0.2,0.1-0.3,0.2c-0.2,0.1-0.4,0.3-0.6,0.4c-0.1,0.1-0.2,0.1-0.3,0.2c-0.2,0.1-0.4,0.3-0.6,0.4c-0.1,0.1-0.2,0.1-0.3,0.2
			c-0.2,0.1-0.4,0.2-0.6,0.3c-0.1,0.1-0.2,0.1-0.3,0.2c-0.2,0.1-0.4,0.2-0.6,0.3c-0.1,0-0.2,0.1-0.3,0.1c-0.2,0.1-0.4,0.2-0.6,0.3
			c-0.1,0-0.2,0.1-0.3,0.1c-0.2,0.1-0.4,0.2-0.5,0.2c-0.1,0-0.2,0.1-0.2,0.1c-0.2,0.1-0.3,0.1-0.5,0.2c-0.1,0-0.2,0.1-0.2,0.1
			c-0.2,0.1-0.3,0.1-0.5,0.2c-0.1,0-0.1,0-0.2,0.1c-0.2,0-0.3,0.1-0.5,0.1c-0.1,0-0.1,0-0.2,0.1c-0.1,0-0.3,0.1-0.4,0.1
			c-0.1,0-0.1,0-0.2,0c-0.1,0-0.3,0.1-0.4,0.1c-0.1,0-0.1,0-0.2,0c-0.1,0-0.3,0.1-0.4,0.1c-0.1,0-0.1,0-0.2,0c-0.1,0-0.2,0-0.3,0.1
			c-0.1,0-0.1,0-0.1,0c-0.1,0-0.2,0-0.3,0c0,0-0.1,0-0.1,0c-0.1,0-0.2,0-0.2,0c0,0-0.1,0-0.1,0c-0.1,0-0.1,0-0.2,0c0,0,0,0-0.1,0
			c-0.1,0-0.1,0-0.2,0c0,0,0,0-0.1,0c0,0-0.1,0-0.1,0c0,0,0,0-0.1,0c-0.1,0-0.1,0-0.1,0s-12.3-2.5-19.6,4.9
			c-0.1,0.1-0.1,0.1-0.2,0.2c0,0,0,0,0,0c0,0,0,0.1,0,0.1c-0.1,0.2-0.1,0.4-0.2,0.5c0,0.1,0,0.1-0.1,0.2c-0.1,0.2-0.1,0.4-0.2,0.7
			c0,0,0,0.1,0,0.1c-0.1,0.3-0.1,0.5-0.2,0.8c0,0.1,0,0.1,0,0.2c0,0.2-0.1,0.4-0.1,0.6c0,0.1,0,0.2,0,0.2c0,0.2,0,0.4-0.1,0.6
			c0,0.1,0,0.1,0,0.2c0,0.2,0,0.5,0,0.7c0,0,0,0.1,0,0.1c0,0.2,0,0.4,0.1,0.6c0,0.1,0,0.1,0,0.2c0,0.2,0.1,0.3,0.1,0.5
			c0,0.1,0,0.1,0.1,0.2c0.1,0.2,0.2,0.4,0.2,0.6c0,0,0,0.1,0,0.1c0.1,0.2,0.2,0.4,0.4,0.6c0,0.1,0.1,0.1,0.1,0.2
			c0.1,0.1,0.2,0.3,0.4,0.4c0.1,0.1,0.1,0.1,0.2,0.2c0.2,0.1,0.3,0.2,0.5,0.3c0.1,0,0.1,0.1,0.2,0.1c0.3,0.1,0.5,0.3,0.8,0.4
			c0.1,0,0.1,0,0.2,0.1c0.2,0.1,0.5,0.2,0.8,0.2c0.1,0,0.2,0,0.4,0.1c0.3,0,0.5,0.1,0.8,0.1c0.1,0,0.2,0,0.4,0
			c0.4,0,0.9,0.1,1.4,0.1c0,0,0,0,0.1-0.1c0,0,0.1,0,0.1-0.1c0,0,0.1-0.1,0.2-0.1c0.1,0,0.1-0.1,0.2-0.2c0,0,0,0,0,0
			c0.1-0.1,0.1-0.1,0.2-0.2c0.1-0.1,0.2-0.1,0.3-0.2c0.1-0.1,0.2-0.2,0.4-0.2c0.1-0.1,0.2-0.1,0.3-0.2c0.1-0.1,0.3-0.2,0.5-0.3
			c0.1-0.1,0.2-0.2,0.4-0.2c0.2-0.1,0.3-0.2,0.5-0.3c0.1-0.1,0.3-0.2,0.4-0.3c0.2-0.1,0.4-0.2,0.6-0.4c0.2-0.1,0.3-0.2,0.5-0.3
			c0.1,0,0.2-0.1,0.3-0.1c0,0,0,0,0,0c0,0,0,0,0,0c0.1-0.1,0.3-0.1,0.4-0.2c0.1-0.1,0.3-0.1,0.4-0.2c0.1-0.1,0.2-0.1,0.3-0.2
			c0.2-0.1,0.4-0.2,0.5-0.3c0,0,0,0,0,0c0.1-0.1,0.2-0.1,0.4-0.2c0.1,0,0.2-0.1,0.2-0.1c0.2-0.1,0.4-0.2,0.6-0.3
			c0.1-0.1,0.2-0.1,0.4-0.2c0.1-0.1,0.2-0.1,0.3-0.2c0,0,0,0,0,0c0.2-0.1,0.3-0.2,0.5-0.2c0.1,0,0.1,0,0.2-0.1c0,0,0,0,0,0
			c0,0,0.1,0,0.1-0.1c0.2-0.1,0.4-0.2,0.7-0.3c0.3-0.1,0.6-0.2,0.9-0.3c0.2-0.1,0.4-0.2,0.7-0.2c0.3-0.1,0.6-0.2,0.9-0.3
			c0.2-0.1,0.5-0.1,0.7-0.2c0.3-0.1,0.7-0.2,1-0.3c0.1,0,0.2-0.1,0.4-0.1c0.1,0,0.2-0.1,0.3-0.1c0.4-0.1,0.8-0.2,1.1-0.2
			c0.1,0,0.2,0,0.2,0c0.1,0,0.2,0,0.3-0.1c0.6-0.1,1.2-0.2,1.8-0.2c0,0,0.1,0.4,0.2,1.2c0,0.1,0,0.1,0,0.2c0,0.1,0,0.1,0,0.2
			c0,0.1,0,0.3,0,0.5c0,0,0,0.1,0,0.1c0,0.2,0,0.3,0,0.5c0,0.1,0,0.1,0,0.2c0,0.2,0,0.3,0,0.5c0,0.1,0,0.1,0,0.2
			c0,0.2,0,0.4-0.1,0.7c0,0.1,0,0.1,0,0.2c0,0.2-0.1,0.4-0.1,0.6c0,0.1,0,0.1,0,0.2c0,0.2-0.1,0.5-0.2,0.7c0,0,0,0,0,0
			c0,0,0,0,0,0.1c0,0,0,0,0,0c-0.1,0.2-0.1,0.5-0.2,0.7c0,0,0,0,0,0.1c0,0.1,0,0.1-0.1,0.2c-0.1,0.2-0.2,0.4-0.2,0.6
			c0,0,0,0.1-0.1,0.1c0,0,0,0.1-0.1,0.1c-0.1,0.2-0.2,0.4-0.3,0.6c0,0.1-0.1,0.1-0.1,0.2c0,0,0,0,0,0c0,0.1-0.1,0.1-0.1,0.2
			c-0.1,0.2-0.2,0.3-0.3,0.5c0,0.1-0.1,0.1-0.1,0.2c0,0.1-0.1,0.1-0.1,0.2c-0.1,0.2-0.2,0.3-0.4,0.5c-0.1,0.1-0.1,0.2-0.2,0.2
			c0,0,0,0,0,0c0,0,0,0.1-0.1,0.1c0,0,0,0-0.1,0.1l0,0c-0.1,0.1-0.3,0.2-0.5,0.4c0,0,0,0,0,0c-0.1,0.1-0.2,0.2-0.3,0.2
			c0,0-0.1,0-0.1,0.1c-0.1,0.1-0.2,0.2-0.4,0.3c0,0,0,0,0,0c-0.2,0.1-0.3,0.3-0.5,0.4c0,0,0,0,0,0c-0.2,0.1-0.3,0.3-0.5,0.5
			c0,0,0,0-0.1,0.1c-0.6,0.5-1.2,1.1-1.8,1.8c0,0,0,0,0,0c-1.4,1.6-2.8,3.7-3.5,6c-0.7,2.3-0.6,4.9,1.1,7.4c0,0,0,0,0,0
			c0,0,0,0,0,0.1c0,0-0.1,0.1-0.1,0.2c0,0,0,0,0,0c-0.1,0.1-0.1,0.2-0.2,0.3c0,0,0,0,0,0.1c-0.1,0.1-0.1,0.2-0.2,0.4
			c0,0,0,0.1-0.1,0.1c-0.1,0.2-0.2,0.4-0.3,0.6c0,0,0,0.1,0,0.1c-3.4,6.1-13,25.5-1,29.8c6.7,2.4,18.6-4.9,29.9-14.1c0,0,0,0,0,0
			C124.1,179.2,125.1,178.4,126,177.6z M110.1,137.7c-0.7-1-1-2.1-0.9-3.3c2-0.6,4.4-1.5,7.5-3c0,0,1.1-0.9,2.8-2c0,0,0,0,0,0
			c0.1-0.1,0.2-0.1,0.3-0.2c0.1-0.1,0.2-0.2,0.3-0.2c0.2-0.1,0.4-0.3,0.6-0.4c0.1-0.1,0.3-0.2,0.4-0.3c0.2-0.1,0.4-0.3,0.6-0.4
			c0.2-0.1,0.3-0.2,0.5-0.3c0.2-0.1,0.4-0.3,0.6-0.4c0.2-0.1,0.3-0.2,0.5-0.3c0.1,0,0.1-0.1,0.2-0.1c0,0,0,0,0,0
			c2.6-1.6,5.5-3.1,7.7-3.5c2.3,3.6-0.4,9.6-6.1,13.6C119.3,140.8,112.6,141.2,110.1,137.7z"/>
		<path fill="#FFCC00" stroke="#000000" stroke-width="2" stroke-miterlimit="10" d="M100.2,146.2c0,0-0.1,0.1-0.1,0.1
			c-0.2,0.1-0.5,0.2-0.7,0.4c-0.1,0-0.2,0.1-0.3,0.1c-0.2,0.1-0.4,0.2-0.7,0.3c-0.1,0-0.2,0.1-0.3,0.1c-0.2,0.1-0.4,0.2-0.7,0.3
			c0,0-0.1,0-0.1,0c-0.4,0.2-0.9,0.3-1.3,0.4c-0.1,0-0.2,0.1-0.4,0.1c-0.2,0-0.4,0.1-0.5,0.1c-0.1,0-0.3,0.1-0.4,0.1
			c-0.2,0-0.3,0.1-0.5,0.1c-0.2,0-0.3,0-0.5,0c-0.2,0-0.3,0-0.5,0c-0.2,0-0.4,0-0.7,0c-0.2,0-0.3,0-0.5,0c-0.2,0-0.4,0-0.6,0
			c-0.1,0-0.2,0-0.3-0.1c-0.2,0-0.3-0.1-0.5-0.1c-0.1,0-0.2,0-0.3-0.1c-0.2,0-0.3-0.1-0.5-0.1c-0.1,0-0.2-0.1-0.3-0.1
			c-0.2-0.1-0.5-0.2-0.7-0.3c-1.6,2.7-3.2,7.6,5.2,7.6l0,0c0.7-2.3,2-4.3,3.5-6c0,0,0,0,0,0c0.6-0.7,1.2-1.3,1.8-1.8
			c0,0,0,0,0.1-0.1c0.2-0.2,0.3-0.3,0.5-0.5c0,0,0,0,0,0c0.2-0.2,0.3-0.3,0.5-0.4c0,0,0,0,0,0c0.1-0.1,0.3-0.2,0.4-0.3
			c0,0,0.1,0,0.1-0.1c0.1-0.1,0.2-0.2,0.3-0.2c0,0,0,0,0,0c0.2-0.2,0.4-0.3,0.5-0.4l0,0l0,0C101.3,145.5,100.7,145.9,100.2,146.2z"
			/>
		<path fill="#FFFFFF" stroke="#000000" stroke-width="2" stroke-miterlimit="10" d="M91.5,139.2C91.5,139.3,91.4,139.3,91.5,139.2
			c-0.2,0.1-0.4,0.2-0.5,0.3C91.2,139.4,91.3,139.3,91.5,139.2z"/>
		<path fill="#FFFFFF" stroke="#000000" stroke-width="2" stroke-miterlimit="10" d="M86.5,142.3c-0.1,0.1-0.2,0.1-0.3,0.2
			c0,1.3,0.2,2.4,0.9,3.4c0.6,0.9,1.5,1.5,2.5,1.9c0.1,0,0.2,0.1,0.3,0.1c0.2,0.1,0.3,0.1,0.5,0.1c0.1,0,0.2,0.1,0.3,0.1
			c0.2,0,0.3,0.1,0.5,0.1c0.1,0,0.2,0,0.3,0.1c0.2,0,0.4,0,0.6,0c0.2,0,0.3,0,0.5,0c0.2,0,0.4,0,0.7,0c0.1,0,0.3,0,0.5,0
			c0.2,0,0.3,0,0.5,0c0.2,0,0.3,0,0.5-0.1c0.1,0,0.3,0,0.4-0.1c0.2,0,0.4-0.1,0.5-0.1c0.1,0,0.2-0.1,0.4-0.1
			c0.4-0.1,0.9-0.2,1.3-0.4c0,0,0.1,0,0.1,0c0.2-0.1,0.4-0.2,0.7-0.3c0.1,0,0.2-0.1,0.3-0.1c0.2-0.1,0.4-0.2,0.7-0.3
			c0.1,0,0.2-0.1,0.3-0.1c0.2-0.1,0.5-0.2,0.7-0.4c0,0,0.1-0.1,0.1-0.1c0.6-0.3,1.1-0.6,1.6-1c0.1,0,0.1-0.1,0.2-0.1c0,0,0,0,0,0
			c0.1-0.1,0.1-0.2,0.2-0.2c0.2-0.2,0.3-0.4,0.4-0.6c0,0,0,0,0-0.1c0.1-0.1,0.1-0.1,0.1-0.2c0.2-0.2,0.3-0.4,0.4-0.7
			c0-0.1,0.1-0.1,0.1-0.2c0.1-0.2,0.3-0.5,0.4-0.7c0,0,0,0,0,0c0,0,0-0.1,0.1-0.1c0.1-0.2,0.2-0.5,0.3-0.7c0,0,0,0,0-0.1
			c0,0,0,0,0-0.1c0.1-0.3,0.2-0.5,0.3-0.8c0,0,0,0,0,0c0.1-0.3,0.1-0.5,0.2-0.8c0,0,0-0.1,0-0.1c0-0.2,0.1-0.5,0.1-0.7c0,0,0,0,0,0
			c0-0.2,0.1-0.5,0.1-0.7c0,0,0-0.1,0-0.1c0-0.2,0-0.4,0-0.6c0,0,0-0.1,0-0.1c0-0.4,0-0.8,0-1.1c0,0,0-0.1,0-0.1c0-0.1,0-0.1,0-0.2
			c-0.1-0.7-0.2-1.2-0.2-1.2c-0.6,0.1-1.2,0.1-1.8,0.2c-0.1,0-0.2,0-0.3,0.1c-0.1,0-0.2,0-0.3,0.1c-0.4,0.1-0.8,0.1-1.1,0.2
			c-0.1,0-0.1,0-0.2,0.1c-0.2,0-0.3,0.1-0.4,0.1c-0.3,0.1-0.7,0.2-1,0.3c-0.1,0-0.1,0-0.1,0c-0.1,0-0.3,0.1-0.4,0.1c0,0-0.1,0-0.1,0
			c-0.3,0.1-0.6,0.2-0.9,0.3c0,0-0.1,0-0.1,0c-0.1,0-0.2,0.1-0.4,0.1c-0.1,0-0.2,0.1-0.2,0.1c-0.3,0.1-0.6,0.2-0.9,0.3c0,0,0,0,0,0
			c-0.1,0-0.2,0.1-0.3,0.1c-0.1,0-0.2,0.1-0.3,0.1c0,0-0.1,0-0.1,0.1c0.5,0.5,0.9,1.2,0.9,1.9c0,1.4-1.2,2.6-2.6,2.6
			c-1.4,0-2.5-1.1-2.6-2.4c-0.1,0-0.2,0.1-0.3,0.1c-0.2,0.1-0.3,0.2-0.5,0.3c-0.2,0.1-0.4,0.2-0.6,0.4c-0.1,0.1-0.3,0.2-0.4,0.3
			c-0.2,0.1-0.4,0.2-0.5,0.3c-0.1,0.1-0.3,0.2-0.4,0.2c-0.2,0.1-0.3,0.2-0.5,0.3c-0.1,0.1-0.2,0.1-0.3,0.2c-0.1,0.1-0.2,0.2-0.4,0.2
			c-0.1,0.1-0.2,0.1-0.3,0.2c-0.1,0.1-0.2,0.1-0.2,0.2c0,0-0.1,0-0.1,0.1C86.6,142.2,86.5,142.3,86.5,142.3z"/>
		<path fill="#FFFFFF" stroke="#000000" stroke-width="2" stroke-miterlimit="10" d="M95.2,137.5c-0.2,0.1-0.3,0.2-0.5,0.2
			c0,0-0.1,0-0.1,0.1C94.8,137.7,95,137.6,95.2,137.5z"/>
		<path fill="#FFFFFF" stroke="#000000" stroke-width="2" stroke-miterlimit="10" d="M92.1,138.9c0.2-0.1,0.4-0.2,0.5-0.3
			C92.5,138.7,92.3,138.8,92.1,138.9z"/>
		<path fill="#FFFFFF" stroke="#000000" stroke-width="2" stroke-miterlimit="10" d="M93.9,138c-0.2,0.1-0.4,0.2-0.6,0.3
			C93.5,138.2,93.7,138.1,93.9,138z"/>
		<path fill="#FFFFFF" stroke="#000000" stroke-width="2" stroke-miterlimit="10" d="M119.7,129.1c0.1-0.1,0.2-0.2,0.3-0.2
			C120,129,119.8,129.1,119.7,129.1z"/>
		<path fill="#FFFFFF" stroke="#000000" stroke-width="2" stroke-miterlimit="10" d="M120.7,128.5c0.1-0.1,0.3-0.2,0.4-0.3
			C120.9,128.3,120.8,128.4,120.7,128.5z"/>
		<path fill="#FFFFFF" stroke="#000000" stroke-width="2" stroke-miterlimit="10" d="M121.7,127.8c0.2-0.1,0.3-0.2,0.5-0.3
			C122,127.6,121.8,127.7,121.7,127.8z"/>
		<path fill="#FFFFFF" stroke="#000000" stroke-width="2" stroke-miterlimit="10" d="M131.2,123.2c-2.2,0.4-5.1,1.9-7.7,3.5
			c0.7,0.5,1.2,1.3,1.2,2.2c0,1.4-1.2,2.6-2.6,2.6c-1.3,0-2.4-0.9-2.6-2.2c-1.7,1.2-2.8,2-2.8,2c-3.1,1.4-5.5,2.4-7.5,3
			c0,1.2,0.3,2.4,0.9,3.3c2.5,3.5,9.2,3.1,15-0.9C130.8,132.8,133.4,126.8,131.2,123.2z"/>
		<path fill="#FFFFFF" stroke="#000000" stroke-width="2" stroke-miterlimit="10" d="M122.8,127.1c0.2-0.1,0.3-0.2,0.5-0.3
			C123.1,126.9,122.9,127,122.8,127.1z"/>
		<path stroke="#000000" stroke-width="2" stroke-miterlimit="10" d="M93.6,141.9c1.4,0,2.6-1.2,2.6-2.6c0-0.8-0.3-1.4-0.9-1.9
			c0,0,0,0,0,0c-0.1,0-0.1,0-0.2,0.1c-0.2,0.1-0.4,0.2-0.6,0.3c0,0,0,0,0,0c-0.1,0-0.2,0.1-0.2,0.1c-0.1,0.1-0.2,0.1-0.4,0.2
			c-0.2,0.1-0.4,0.2-0.6,0.3c-0.1,0-0.2,0.1-0.2,0.1c-0.1,0.1-0.2,0.1-0.4,0.2c0,0,0,0,0,0c-0.2,0.1-0.4,0.2-0.5,0.3
			c-0.1,0.1-0.2,0.1-0.3,0.2c-0.1,0.1-0.2,0.1-0.3,0.2c-0.2,0.1-0.3,0.2-0.5,0.3c0,0,0,0,0,0c0,0,0,0,0,0
			C91.1,140.9,92.2,141.9,93.6,141.9z"/>
		<path stroke="#000000" stroke-width="2" stroke-miterlimit="10" d="M122,131.5c1.4,0,2.6-1.2,2.6-2.6c0-0.9-0.5-1.7-1.2-2.2
			c0,0,0,0,0,0c-0.1,0-0.1,0.1-0.2,0.1c-0.2,0.1-0.4,0.2-0.5,0.3c-0.2,0.1-0.4,0.3-0.6,0.4c-0.2,0.1-0.3,0.2-0.5,0.3
			c-0.2,0.1-0.4,0.3-0.6,0.4c-0.1,0.1-0.3,0.2-0.4,0.3c-0.2,0.1-0.4,0.3-0.6,0.4c-0.1,0.1-0.2,0.2-0.3,0.2c-0.1,0.1-0.2,0.1-0.3,0.2
			c0,0,0,0,0,0C119.7,130.6,120.7,131.5,122,131.5z"/>
		<path fill="#FFFFFF" stroke="#000000" stroke-width="2" stroke-miterlimit="10" d="M132.2,179.1c2-1.9,2.4-4.5,2.4-6.5
			c-0.8-0.1-1.6-0.4-2.2-0.6c0.3-0.3,0.6-0.5,0.9-0.8c-2.3,2.1-4.7,4.3-7.2,6.3c0,0,0,0,0,0c-0.9,0.8-1.9,1.6-2.8,2.3c0,0,0,0,0,0
			c0,0,0,0,0,0C125.4,180.7,129.5,181.5,132.2,179.1z"/>
		<path fill="#FFFFFF" stroke="#000000" stroke-width="2" stroke-miterlimit="10" d="M143.8,165.1
			C143.8,165.1,143.8,165.1,143.8,165.1c0-0.5,0-0.8-0.1-1.2c-0.9-0.1-1.7-0.2-2.4-0.4c0.4-0.4,0.8-0.8,1.2-1.2
			c-0.7,0.7-1.3,1.3-2,2c0,0,0,0,0,0c-2.2,2.2-4.6,4.5-7.2,6.9c-0.3,0.3-0.6,0.5-0.9,0.8c0.6,0.2,1.3,0.4,2.2,0.6
			c1.7,0.3,3.7,0.3,5.4-0.5c0.5-0.2,1-0.5,1.4-1C143.3,169.4,143.8,167.1,143.8,165.1z"/>
		<path fill="#FFFFFF" stroke="#000000" stroke-width="2" stroke-miterlimit="10" d="M143.7,163.9c0.2,0,0.5,0,0.7,0c0,0,0,0,0.1,0
			c1.7,0,3.5-0.3,4.9-1.6c3.8-3.5,1.9-9.5,1.9-9.5c-0.2,0.2-0.4,0.5-0.7,0.8c0,0,0,0,0,0c-0.2,0.3-0.5,0.6-0.8,1c0,0,0,0,0,0.1
			c-0.3,0.3-0.6,0.7-1,1.1c0,0,0,0,0,0c-0.4,0.4-0.8,0.8-1.2,1.3c0,0,0,0,0,0c-1.4,1.5-3.1,3.3-5,5.2c-0.4,0.4-0.8,0.8-1.2,1.2
			C142,163.7,142.9,163.9,143.7,163.9z"/>
		<polygon fill="#FFCC00" points="56.2,167 60.1,164.7 64.5,167.9 65.5,171.9 59.3,177.1 		"/>
	</g>
	<path fill="none" stroke="#000000" stroke-width="2" stroke-linecap="round" stroke-miterlimit="10" d="M94.2,161.2
		c2.5,3.4,7.2,5,11.3,3.9c4.5-1.2,7.7-5.1,11.7-7.6"/>
	<path fill="none" stroke="#000000" stroke-width="2" stroke-linecap="round" stroke-miterlimit="10" d="M146.4,150.6
		c1.4-0.1,2.8-0.2,4.2,0c1.4,0.2,2.8,0.8,3.6,1.9c0.7,0.9,1,2,1.2,3.1"/>
	<path fill="none" stroke="#000000" stroke-width="2" stroke-miterlimit="10" d="M160.1,185.7c-1.4,3.1-1.6,6.6-1.7,10.1
		c-0.1,2.1-0.2,4.3-0.1,6.4c0.3,5.1,1.9,10.2,4.5,14.6"/>
	<path fill="none" stroke="#000000" stroke-width="2" stroke-miterlimit="10" d="M160.4,185.1"/>
	<path fill="none" stroke="#000000" stroke-width="2" stroke-miterlimit="10" d="M182.3,215.5c0.8,0.5,0.9,1,1.3,1.8
		c1.8,3.5,2.7,7.4,2.5,11.3"/>
	<path fill="none" stroke="#000000" stroke-width="2" stroke-linecap="round" stroke-linejoin="round" stroke-miterlimit="10" d="
		M173.3,182.2c3.6,6.2,4.9,13,4.6,20.2c0.2-0.7-0.6-0.3,0,0"/>
	<path fill="none" stroke="#000000" stroke-width="2" stroke-linecap="round" stroke-linejoin="round" stroke-miterlimit="10" d="
		M149.6,185.8c2.7,4.7,6.8,8.5,11.5,11.4c4.7,2.8,9.8,4.7,15.1,5.9"/>
	<path fill="none" stroke="#000000" stroke-width="2" stroke-linecap="round" stroke-linejoin="round" stroke-miterlimit="10" d="
		M145.2,213.4c0.1,0.3,0.1,0.7,0.2,1c0.2,1.2,0.4,2.4,0.4,3.7"/>
	<path fill="none" stroke="#000000" stroke-width="2" stroke-linecap="round" stroke-linejoin="round" stroke-miterlimit="10" d="
		M129.5,194.2c0.4,0.1,0.8,0.3,1.3,0.4c0.7,0.2,1.4,0.5,1.8,1.2"/>
	<path fill="none" stroke="#000000" stroke-width="2" stroke-linecap="round" stroke-linejoin="round" stroke-miterlimit="10" d="
		M210.1,201.3c0-0.1-0.2,0-0.3,0.1c-0.7,1.6-1.2,3.3-1.3,5"/>
	<path fill="none" stroke="#000000" stroke-width="2" stroke-linecap="round" stroke-linejoin="round" stroke-miterlimit="10" d="
		M222.4,184.6C222.4,184.7,222.3,184.7,222.4,184.6c-0.1,0-0.1-0.1,0-0.1c0.9-0.7,2-1.2,3.1-1.2"/>
	<path fill="none" stroke="#000000" stroke-width="2" stroke-linecap="round" stroke-linejoin="round" stroke-miterlimit="10" d="
		M82,105.7c-0.6-0.5-0.2-1.5,0.3-2.2c2.3-3.3,5.4-7,9.4-6.6c0.9,0.1,1.7,0.4,2.6,0.5c0.8,0.1,1.6,0.1,2.4,0c9.2-0.5,18.4-2.5,27-5.9
		"/>
	<path fill="none" stroke="#000000" stroke-width="2" stroke-linecap="round" stroke-miterlimit="10" d="M110.1,137.7
		c0,0,0.3,8.9,6.8,7.5c6.4-1.4,13.4-4.4,13.4-4.4"/>
	<path fill="none" stroke="#000000" stroke-width="2" stroke-linecap="round" stroke-miterlimit="10" d="M129.6,123.5
		c1.2-0.7,3.2-0.7,4.3,0.1"/>
	<path fill="none" stroke="#000000" stroke-width="2" stroke-linecap="round" stroke-miterlimit="10" d="M103,127.3
		c0,0-5.4,8.4,0,7.7s8.1-0.5,9.6-1.8"/>
	<path fill="none" stroke="#000000" stroke-width="2" stroke-linecap="round" stroke-linejoin="round" stroke-miterlimit="10" d="
		M226,213.5c0,0.1,0,0.1,0.1,0.1c0.1,0,0.1-0.1,0.2-0.1c0.2-0.2,0.4-0.5,0.6-0.7c1.1-1.5,2.6-2.7,4.3-3.5c0,0,0,0,0.1,0"/>
	<path fill="none" stroke="#000000" stroke-width="2" stroke-linecap="round" stroke-linejoin="round" stroke-miterlimit="10" d="
		M63.3,173.6c0.6-0.7,1.3-1.4,1.9-2.1c1.1-1.2,2.3-2.3,3.6-3.3"/>
	<path fill="none" stroke="#000000" stroke-width="2" stroke-linecap="round" stroke-linejoin="round" stroke-miterlimit="10" d="
		M64.2,158.7c-0.3,0.2-0.5,0.4-0.8,0.7c-2.2,2.3-4.5,4.7-6.7,7c-0.5,0.5-1,1-1.6,1.3"/>
	<path fill="none" stroke="#000000" stroke-width="2" stroke-linecap="round" stroke-linejoin="round" stroke-miterlimit="10" d="
		M168.7,236.6c0-0.1,0-0.2,0-0.3c1.5-0.6,3.1-0.7,4.7-0.7c1.9,0,3.8,0,5.8,0c0.1,0.2,0.2,0.5,0.1,0.8"/>
</g>
<g id="Calque_3">
	<path fill="#EFF0F1" d="M139.7,4C65.8,4,5.9,63.9,5.9,137.7s59.9,133.8,133.8,133.8s133.7-59.9,133.7-133.7S213.5,4,139.7,4z
		 M139.7,259.7c-67.3,0-121.9-54.6-121.9-121.9s54.5-122,121.9-122s121.9,54.6,121.9,121.9S207,259.7,139.7,259.7z"/>
</g>
</svg>
