<?xml version="1.0" encoding="utf-8"?>
<!-- Generator: Adobe Illustrator 17.1.0, SVG Export Plug-In . SVG Version: 6.00 Build 0)  -->
<!DOCTYPE svg PUBLIC "-//W3C//DTD SVG 1.0//EN" "http://www.w3.org/TR/2001/REC-SVG-20010904/DTD/svg10.dtd" [
	<!ENTITY ns_extend "http://ns.adobe.com/Extensibility/1.0/">
	<!ENTITY ns_ai "http://ns.adobe.com/AdobeIllustrator/10.0/">
	<!ENTITY ns_graphs "http://ns.adobe.com/Graphs/1.0/">
	<!ENTITY ns_vars "http://ns.adobe.com/Variables/1.0/">
	<!ENTITY ns_imrep "http://ns.adobe.com/ImageReplacement/1.0/">
	<!ENTITY ns_sfw "http://ns.adobe.com/SaveForWeb/1.0/">
	<!ENTITY ns_custom "http://ns.adobe.com/GenericCustomNamespace/1.0/">
	<!ENTITY ns_adobe_xpath "http://ns.adobe.com/XPath/1.0/">
]>
<svg version="1.0" xmlns:x="&ns_extend;" xmlns:i="&ns_ai;" xmlns:graph="&ns_graphs;"
	 xmlns="http://www.w3.org/2000/svg" xmlns:xlink="http://www.w3.org/1999/xlink" x="0px" y="0px" viewBox="0 0 283.5 283.5"
	 enable-background="new 0 0 283.5 283.5" xml:space="preserve">
<metadata>
	<sfw  xmlns="&ns_sfw;">
		<slices></slices>
		<sliceSourceBounds  width="262.6" height="262.6" x="15" y="10.4" bottomLeftOrigin="true"></sliceSourceBounds>
	</sfw>
</metadata>
<g id="Calque_2">
	<circle fill="#F99E53" cx="146.3" cy="141.8" r="121"/>
</g>
<g id="Calque_5">
	<g id="j3YxBZ.tif">
		<g>
			<path fill="#C7D2CE" d="M172.7,266.1c9.2-1.1,18.4-3.5,27.3-6.7c-1-4.5-1.2-9.1-1.2-13.8c0-7.2,1.6-13.9,4.9-20.2
				c4.8-9.3,11.6-16.2,22.5-17.8c0.6-0.1,1.2-0.3,1.3-0.9c0.2-0.7-0.4-1.1-1-1.5c-1.5-1-3.1-1.6-4.8-2.2c-7.3-2.6-15-3-22.7-3.8
				c-1.2-0.1-1.8,0.5-2.1,1.6c-1.5,5.6-4.1,10.8-7.3,15.5c-5.2,7.7-11.6,14.3-18.9,20.1c-3.6,2.9-2.4,2.9-6.4,0
				c-4.5-3.3-9.1-6.6-14.1-9.2c-4.5-2.4-6.7-1.9-10.1,2c-0.2,0.3-0.5,0.6-0.7,0.9c-4.9,7.7-8.2,16-9.2,25.2
				c-0.1,1.4-0.3,2.8-0.7,4.1c-1.6,5.6-6,6.5-10.6,4.2c-1.1-0.6-1.8-1.5-2.1-2.8c-0.5-2.1-0.1-4.2,0.5-6.1c1.5-5.1,3.8-9.9,6.3-14.6
				c0.7-1.4,0.7-2.5-0.4-3.6c-2.1-2.3-3.6-4.9-4.8-7.7c-0.7-1.5-1.7-2.1-3.3-2c-5.3,0.3-10.3,1.4-14.5,4.7c-0.7,0.5-1.3,1.2-2.2,1.4
				c-0.3-1.2-0.2-2.3-0.2-3.3c0.5-7.3,2.9-13.9,6.4-20.2c1.1-2,2.2-4,3.5-5.9c1-1.6,0.8-1.9-1-2c-1.8-0.1-3.7,0.2-5.5,0.4
				c-8.3,1.2-15.1,4.6-18.6,12.7c-3.7,8.4-5.9,17.2-5.9,26.4c0,1.6,0,3.1,0,4.7c10.6,7.6,21.3,14.9,33.3,20c1.4,0.6,2.4,1.6,3,2.8
				h55.2C169.6,267.3,170.9,266.3,172.7,266.1z"/>
			<path fill="#C7D2CE" d="M248.7,211.6c-4.3-2.4-8.9-3.5-13.7-4c-4.6-0.5-9.2-0.6-13.6,1.1c-8.2,3-13.8,8.9-17.5,16.4
				c-5.5,11.2-6.6,22.7-3.8,34.3c5.8-2.1,11.4-4.6,16.7-7.3c0.8-0.4,1.7-0.9,2.5-1.3c-0.2-1.3,0.2-2.7,1.2-3.9
				c3.5-4.1,8.1-7.2,12.3-10.7c2.8-2.4,8.3-6.2,8.3-10.4c0-3.7,3.2-5.3,6-4.7c0.3-2.7,2.8-4.6,5.2-4.8v-1.9
				C251.4,213,250,212.3,248.7,211.6z"/>
			<path fill="#040402" d="M186.6,221.4c5-6.3,9.1-13,11-20.9c0.2-1,0.8-0.8,1.4-0.7c2.3,0.2,4.7,0.3,7,0.6
				c6.3,0.7,12.7,1.5,18.6,4.2c1.2,0.5,2.4,1,3.2,2.2c-0.4,0.1-0.6,0.2-0.9,0.2c-6.6,0.7-12.2,3.6-16.7,8.4
				c-7.9,8.3-11.5,18.4-11.9,29.7c-0.2,5,0.2,9.9,1.2,14.4c0.3-0.1,0.6-0.2,0.9-0.3c-1.1-4.6-1.4-9.3-1.2-14.2
				c0.4-10,3.2-19.1,9.7-26.9c6.1-7.4,13.8-11.1,23.6-10.4c7.2,0.5,13.9,2.2,19.8,6.5v-1.1c-4.8-3.3-10.1-5.3-15.9-5.9
				c-3.9-0.4-7.5-1.1-11.1-3.1c-7.9-4.4-17-4.5-25.9-5.3c-1.1-0.1-1.7-0.2-1.9-1.6c-0.6-6.1-5.4-11.6-11.5-12.4
				c-3.2-0.4-3.9-2.1-4.4-4.6c-0.1-0.3-0.1-0.6-0.2-0.9c-2.6-10.3-5.6-20.4-9.1-30.4c-0.4-1-0.6-1.7,0.9-1.4
				c1.3,0.2,2.1-0.5,2.8-1.5c1.9-3,3-6.2,2.9-9.8c0-1.4-0.4-2.8-1.2-3.9c-0.8-1-0.7-1.9-0.5-3c1.6-8.6,4.5-16.9,7-25.2
				c1.4-4.5,2.5-9,2.3-13.7c-0.2-4.1-2.3-7.2-5.7-7.9c-1.7-0.4-3.4-0.3-5.1,0c-2.2,0.4-4.4,1.1-6.7,1.1c-5.7,0.1-11-1.3-16.1-3.4
				c-11-4.5-22.4-6.9-34.3-7.5c-0.7-0.4-1.6,0.1-2.3-0.3h-5.3c-0.2,0.4-0.6,0.3-1,0.4c-5.3,0.5-10.2,2.3-14.4,5.6
				c-3.1,2.5-4.1,5.5-2.8,9c1.3,3.2,3.7,5.3,6.8,6.7c2.5,1.1,5.2,1.1,7.9,1.2c-0.1,0.3,0,0.4-0.1,0.5c-0.2,0.3-0.4,0.6-0.7,0.9
				c-2.8,3.6-5.1,7.5-6.1,12c-0.5,2.1-0.1,3.9,1.6,5.3c0.9,0.7,1,1.3,0.6,2.4c-0.9,2.5-1.1,5.2,0.6,7.4c2,2.6,2.6,5.7,2.9,8.8
				c0.5,5.2-1.1,10-3.4,14.6c-3.5,6.8-7.7,13.3-11.4,20c-1.9,3.4-0.7,6.9,2.8,8.8c3.2,1.7,6.7,2.3,10.2,2.6c1.5,0.1,1.7,0.6,1.5,1.9
				c-0.5,3.9,0.6,6.1,3.9,7.7c1.6,0.7,2.4,1.6,2.1,3.4c-0.1,0.6,0,1.1,0,1.7c0,1.2,0.7,2.4,0.3,3.5c-1,2.8-3.2,4.2-6.3,4.2
				c-0.3,0-0.6,0-0.9,0c-6.9,0.5-13.4,2.1-18.5,7.2c-0.5,0.5-1,0.7-1.7,0.7c-6.1,0.6-11.5,2.8-16.1,6.7c-5.3,4.5-9.5,9.6-13,15.2
				c7.4,4.7,14.5,9.9,21.7,15c-0.3-9.7,1.1-19.2,4.7-28.4c1.3-3.3,2.9-6.5,5.4-9c4.1-4.1,9.3-5.7,14.8-6.3c1.9-0.2,3.9-0.6,5.9-0.3
				c-1.6,2.6-3.1,5.1-4.5,7.6c-3.8,7.1-6.5,14.5-6.2,22.7c0,0.5-0.2,1.1,0.4,1.4c0.6,0.3,0.9-0.3,1.2-0.6c4.6-4.3,10.3-5.7,16.4-5.8
				c1,0,1.6,0.3,2,1.2c1.4,3.3,3.1,6.4,5.6,8.9c0.6,0.6,0.4,1.1,0.1,1.6c-1,2-2.1,4-3,6.1c-1.9,4.3-4.1,8.6-4.4,13.4
				c-0.2,3.1,1.2,5.2,4.1,6.2c3.6,1.2,6.9,0.3,8.4-2.3c0.9-1.5,1.5-3.2,1.7-5c0.3-2.4,0.6-4.9,1.1-7.3c1.4-7,4.2-13.3,7.9-19.3
				c3.1-5,6-5.7,11-3c0.4,0.2,0.9,0.5,1.3,0.7c5.1,3,10,6.4,14.7,10c0.9,0.7,1.5,0.6,2.4-0.1C175.5,233.4,181.5,227.8,186.6,221.4z"
				/>
			<path fill="#7C7C7B" d="M118.8,72.9c-0.8,0-1.6,0.3-2.3-0.3c0.8,0,1.5,0,2.3,0C118.7,72.6,118.7,72.8,118.8,72.9z"/>
			<path fill="#080806" d="M172.7,266.1c1.2-0.1,2.4-0.3,3.6-0.5c0-0.1,0-0.1,0-0.2c-0.3-2.1-0.8-2.5-2.4-1
				c-1.8,1.7-3.2,1.8-4.8-0.1c-0.5-0.6-1.1-0.8-1.6,0.2c-0.6,1.2-0.8,2.6-0.8,3.9h2.2C169.6,267.3,170.9,266.3,172.7,266.1z"/>
			<path fill="#FED611" d="M124.6,237.1c-6.4-5.3-12.1-23.9-8.4-29.7c0.8,1.3,1.5,2.6,2.3,3.9c0.2,0.3,0.4,1,0.9,0.7
				c0.7-0.4,0-0.9-0.2-1.3c-2.3-3.7-4.2-7.6-5.2-11.9c-0.7-2.8-1-5.6-0.9-8.4c0-1.3-0.3-2-1.6-2.4c-3.7-1.3-5.2-4.1-4.4-7.7
				c0.2-0.8,0.3-1.3,1.4-1.2c12.4,0.6,24.8,0.3,37.1-0.2c3.2-0.1,6.3-0.2,9.5-0.4c1.6-0.1,3.3-0.6,3.3,2.2c0.9-1.9,0-4.7-1.6-5.4
				c-0.2-0.1-0.5-0.2-0.6,0.1c-0.1,0.1-0.1,0.4,0,0.5c0.3,0.4,0.7,0.9,1.2,1.4c-4.3,0.6-8.4,0.5-12.6,0.7
				c-11.2,0.5-22.4,0.7-33.5,0.4c-3.8-0.1-7.6-0.5-11.3-1.1c-1-0.2-2.1-0.5-3.1-0.9c-5.5-2.2-6.5-5.2-3.5-10.2
				c3.8-6.3,7.6-12.7,10.9-19.3c3.2-6.3,4.3-12.7,2-19.6c-0.1-0.2,0-0.4,0-0.7c1.6,1.1,3.4,1.3,5.3,1.5c-0.5,0.8-0.9,1.5-1.3,2.2
				c-1.6,3.4-0.4,6.7,3.3,7.6c5.3,1.3,10.7,0.7,15.8-1.2c1.1-0.4,2.1-1.3,2.4-2.5c0.2-0.8,0.4-1.7-0.8-2.5c0.5,3.5-1.8,4.3-4.2,4.9
				c-4.1,1-8.2,1.5-12.4,0.6c-3.6-0.7-5-3.7-3.1-6.9c1-1.8,2.3-3.4,4.7-3.8c1.2-0.2,2.4-0.8,3.5-1.3c4.5-2,3.7-6.3,1.5-8.9
				c-1.5-1.7-3.7-2.4-5.9-2.6c-3.1-0.2-6.2,0-9.3,0.5c-2.3,0.3-4-1-4.2-3.4c-0.1-1.4,0.2-2.8,0.7-4.1c1.5-3.9,3.8-7.3,6.3-10.5
				c0.5-0.6,1-0.8,1.8-0.8c15.9,0,31.8,0,47.8,0c0.6,0,1.1,0,1.7,0.1c2.9,0.3,3.7,1.6,2.8,4.4c-0.4,1.3-1,2.4-1.1,3.8
				c-0.1,1.8,0.5,3.1,2.3,3.6c1.5,0.4,1.7,1.3,0.7,2.5c-0.4,0.5-0.9,0.9-1.2,1.4c-1.3,1.9-1.1,3,0.8,4.2c2.1,1.3,2.1,1.6,0.9,3.7
				c-0.3,0.6-0.8,1.2-1,1.8c-0.3,0.9-0.3,1.8,0.6,2.5c2.9,2.3,2.5,5.7,3.1,8.8c0.1,0.4-0.5,0.8-0.7,1.3c-0.2,0.4-0.9,0.9-0.3,1.3
				c0.6,0.4,0.8-0.4,1.1-0.8c1-1.4,2-2.6,3.7-3c3.7-0.8,6.7,1.7,6.7,5.7c0,3-0.9,5.8-2.3,8.3c-1.3,2.4-2.3,2.4-5,0.5
				c-0.6,0.6-0.2,1.1,0,1.7c3.7,10.7,7,21.4,9.7,32.4c1,4,2,8,4.5,11.3c0.7,1,0.1,1.5-0.4,2.1c-3.7,4.8-8.2,8.8-13,12.3
				c-7.9,5.7-16.7,9.9-25.5,14.1c-7.3,3.5-14.1,7.7-19.2,14.2C126.3,234.6,125.5,235.8,124.6,237.1z"/>
			<path fill="#CEBE81" d="M168.6,131.3c-0.3-2.2-0.6-4.2-1.3-6c-0.3-0.8-0.6-1.7-1.4-2.2c-1.5-0.9-1.1-1.9-0.4-3.1
				c2-3.4,2-3.4-1.3-5.8c-1.2-0.8-0.7-1.8-0.1-2.6c0.5-0.7,1.2-1.3,1.6-2.1c0.9-1.5,0.6-2.4-1-3.2c-2.2-1-2.5-1.5-1.9-3.9
				c0.3-1.1,0.7-2.2,1-3.3c0.7-2.6-0.4-4.2-3-4.6c-1.6-0.2-3.1-0.3-4.7-0.3c-16.6,0-33.2,0-49.8,0c-3.9,0-7.5-1-10.2-4
				c-3.7-4-3.4-8.1,1-11.5c5.4-4.2,11.6-5.5,18.2-5.3c12,0.4,23.9,2.2,35.2,6.6c4.5,1.7,9,3.3,13.7,4.1c4.1,0.7,8.1,0.2,12.2-0.8
				c6.9-1.6,9.5,2,9.7,8.2c0.1,3.5-0.8,6.9-1.7,10.2c-2.5,8.8-5.7,17.4-7.4,26.4c-0.1,0.5-0.2,1-0.3,1.5c-0.1,0.5-0.2,0.9-0.8,0.6
				C173.1,129.3,170.9,129.8,168.6,131.3z"/>
			<path fill="#C7D2CE" d="M186.2,190.7c-1.4-1.6-2.1-3.3-2.8-5.1c5.6-0.5,11.8,4.5,13.1,10.5c0.7,2.9,0.1,5.7-1,8.3
				c-3.8,9.6-9.8,17.6-17.2,24.7c-3,3-6.3,5.7-9.5,8.4c-0.9,0.7-1.4,0.6-2.2,0c-5.4-3.9-10.6-8-16.5-11c-4.3-2.2-6.9-1.7-10,2.1
				c-3,3.7-4.8,8.1-6.6,12.5c-2.1,4.9-3.2,10.1-3.8,15.4c-0.1,0.9-0.3,1.9-0.5,2.8c-1.3,4.5-4.3,6-8.7,4.4c-2.5-0.9-3.3-2-3.3-4.7
				c0-3.2,1.1-6.1,2.3-8.9c2.3-5.3,4.5-10.6,7.9-15.3c4-5.5,9.4-9.3,15.2-12.5c7.1-3.9,14.6-6.9,21.6-11c7.6-4.5,14.7-9.6,20.3-16.5
				c1.2-1.4,2.2-2.9,3.1-4.5c0.2-0.4,0.9-0.9,0.2-1.3c-0.6-0.4-0.7,0.5-1,0.8C186.6,190.1,186.5,190.3,186.2,190.7z"/>
			<path fill="#C7D2CE" d="M76.9,245.4c-0.1-12.2,1.7-24.1,8.5-35.4c-4.1,0.4-7.8,1.5-11.2,3.4c-6.5,3.7-11.3,9-15.3,15.2
				c-0.7,1-1.3,2-1.9,3C63.8,235.9,70.3,240.7,76.9,245.4z"/>
			<path fill="#C7D2CE" d="M98.9,232.5c-0.2-13.7,6.5-24.1,14-34.6c0.7,2.8,1.5,5.2,2.5,7.5c0.1,0.3,0,0.6-0.1,0.9
				c-2.1,5.8-1,11.4,0.7,17c0.3,0.9,0.6,1.9,0.9,3C110.2,226.3,104.2,227.7,98.9,232.5z"/>
			<path fill="#FDFDFD" d="M111.8,114.3c2.6,0.2,4.7,0.1,6.7,1.1c2,1,3.1,2.6,3.3,4.7c0.2,1.6-0.4,3-1.9,3.6c-2.6,1.1-5.2,2.4-7.9,3
				c-3.1,0.7-5.7-0.8-7.6-3.3c-1.8-2.5-1.4-5.1-0.3-7.7c0.2-0.5,0.5-0.6,1-0.7C107.6,114.8,110,114.5,111.8,114.3z"/>
			<path fill="#B49C4B" d="M170.4,266.9c-0.3-0.3-0.7-0.7-1-1.2c-0.4-0.6-1-0.8-1.3,0.2c-0.2,0.9-0.4,1.7-0.4,2.6h1.1
				C169.3,267.8,169.8,267.3,170.4,266.9z"/>
			<path fill="#070603" d="M128.9,114.9c-0.2-0.1-0.4-0.1-0.5-0.1c-4.9-0.5-5.4-1.5-3.4-6c0.7-1.5,1.3-3,2.7-4.1
				c0.6,0.8,0,1.1-0.2,1.5c-1.1,1.6-1.8,3.3-2.4,5.1c-0.5,1.5,0,2.1,1.4,2.4c1.9,0.4,3.9,0.2,5.8,0.1c5.1-0.3,10.2-0.9,15.3-0.6
				c3.6,0.2,4.6,1.5,5,5c0.4,4.2-2,6.4-5.2,8.4c-5.2,3.4-9.7,3.5-15.9-1.5C128.3,122.4,127.4,118.9,128.9,114.9z"/>
			<path fill="#0D0B01" d="M176.1,138.9c-1.3-0.4-1.4-1.8-2.5-2.1c-0.1,1-0.1,1.9-0.2,2.8c0,0.4-0.1,1-0.7,0.8
				c-0.5-0.1-0.3-0.6-0.2-1c0.2-0.9,0.2-1.7,0-2.7c-1.1,0.3-0.9,1.6-2.1,2.2c-0.2-1.4,0.5-2.2,1.2-3c0.6-0.7,1.5-0.8,2.3-0.4
				C175,136.3,175.9,137.3,176.1,138.9z"/>
			<path fill="#12110B" d="M118.1,89.5c-1.5,0.3-1.8-0.5-2.3-1c-1.6-1.5-2.8-3.2-3.9-5c-0.2-0.3-0.4-0.7,0-1c0.2-0.2,0.5,0,0.6,0.2
				C113.9,85.2,115.7,87.4,118.1,89.5z"/>
			<path fill="#0E0D09" d="M107.5,89.8c-1.4,0.3-1.8-0.4-2.4-0.9c-1.7-1.5-3.2-3.2-4.3-5.2c-0.2-0.3-0.4-0.6-0.1-0.9
				c0.2-0.2,0.5-0.2,0.6,0.1C102.9,85.5,104.9,87.7,107.5,89.8z"/>
			<path fill="#12100B" d="M157.9,87.5c-0.1,1.1-0.1,2.2-1.4,2.3c-1.4,0.1-2.4-0.9-3.4-1.8c-0.1-0.1,0-0.4,0.1-0.4
				c0.1-0.1,0.4-0.1,0.5-0.1c0.4,0.3,0.8,0.6,1.2,0.9c1.4,0.9,1.8,0.7,2.1-1c0.1-0.4-0.3-1.2,0.4-1.2
				C158.2,86.2,157.8,87.1,157.9,87.5z"/>
			<path fill="#17150E" d="M122.4,83.6c1.1-0.1,1.1,0.5,1.3,0.9c0.7,1.3,1.5,2.5,2.6,3.4c0.3,0.2,0.5,0.4,0.3,0.8
				c-0.2,0.3-0.6,0.2-0.8,0C124.1,87.4,123.1,85.6,122.4,83.6z"/>
			<path fill="#211E14" d="M146.9,85.4c0.4,0,0.6,0.3,0.6,0.6c0.2,1.2,0.7,2.3,1.8,3c0.2,0.1,0.5,0.3,0.3,0.6
				c-0.1,0.2-0.3,0.3-0.6,0.3c-1.1-0.2-2.9-3.2-2.4-4.1C146.7,85.6,146.8,85.5,146.9,85.4z"/>
			<path fill="#232116" d="M140.5,87.3c0.3,0.1,0.5,0.4,0.5,0.7c0,0.6,0.2,1.1,0.6,1.5c0.3,0.3,0.9,0.6,0.5,1
				c-0.5,0.5-0.9-0.1-1.2-0.4c-0.6-0.6-0.9-1.3-0.8-2.2C140,87.7,140.2,87.4,140.5,87.3z"/>
			<path fill="#0D0C08" d="M132.1,86.7c0.9,0.8,1.2,2.1,2.4,2.5c0.2,0.1,0.3,0.4,0.1,0.6c-0.2,0.1-0.5,0.2-0.7,0.1
				C132.6,89.3,131.8,88.3,132.1,86.7z"/>
			<path fill="#090909" d="M120.9,257c0-2.3,1-3.7,2.7-3.6c1.5,0,2.6,1.5,2.6,3.6c0,1.9-1.2,3.5-2.7,3.6
				C122,260.5,120.9,259,120.9,257z"/>
			<path fill="#0B0B0B" d="M126.5,243c1.3,0,2.1,0.7,2.1,1.9c0.1,1.3-0.8,2.2-2.1,2.2c-1.2,0-2-0.7-2.1-2
				C124.4,243.9,125.1,243.1,126.5,243z"/>
			<path fill="#080808" d="M109.1,123.4c-1-0.1-1.5-0.7-1.5-1.7c0.1-1,0.7-1.6,1.7-1.6c1,0.1,1.6,0.7,1.5,1.7
				C110.8,122.8,110.2,123.4,109.1,123.4z"/>
			<path fill="#FEFEFE" d="M143.8,113.8c1.8,0.1,3.3,0.1,4.8,0.3c1.8,0.2,2.8,1.2,3,3.1c0.4,3.1-0.3,5.7-3.1,7.5
				c-1.5,1-3,2.1-4.7,2.8c-5.8,2.4-13.4-3.3-14.3-7.2c-0.2-0.7-0.3-1.4-0.3-2.1c0-2.9,0.5-3.4,3.4-3.6
				C136.4,114.3,140.2,114.1,143.8,113.8z"/>
			<path fill="#716E6E" d="M125.3,257.1c0,1-0.3,2.3-1.7,2.3c-1.5,0-1.8-1.4-1.8-2.6c0-1.2,0.4-2.5,1.7-2.5
				C124.9,254.4,125.3,255.6,125.3,257.1z"/>
			<path fill="#6A6868" d="M126.5,246.2c-0.7-0.1-1.2-0.5-1.2-1.2c0-0.6,0.3-1.1,1-1.1c0.7,0,1.2,0.4,1.3,1.1
				C127.7,245.7,127.2,246.1,126.5,246.2z"/>
			<path fill="#0A0A0A" d="M139.6,121.4c-0.1,1.2-0.8,1.8-1.9,1.7c-1.1,0-1.8-0.7-1.7-1.9c0.1-1.1,0.7-1.7,1.9-1.7
				C139,119.7,139.5,120.4,139.6,121.4z"/>
		</g>
	</g>
</g>
<g id="Calque_3">
	<path fill="#F0F1F2" d="M146.3,10.4C73.8,10.4,15,69.2,15,141.7S73.8,273,146.3,273s131.3-58.8,131.3-131.3S218.8,10.4,146.3,10.4z
		 M146.3,262.7c-66.8,0-121-54.2-121-121s54.2-121,121-121s121,54.2,121,121S213.2,262.7,146.3,262.7z"/>
</g>
</svg>
