<?xml version="1.0" encoding="utf-8"?>
<!-- Generator: Adobe Illustrator 17.1.0, SVG Export Plug-In . SVG Version: 6.00 Build 0)  -->
<!DOCTYPE svg PUBLIC "-//W3C//DTD SVG 1.1//EN" "http://www.w3.org/Graphics/SVG/1.1/DTD/svg11.dtd" [
	<!ENTITY ns_extend "http://ns.adobe.com/Extensibility/1.0/">
	<!ENTITY ns_ai "http://ns.adobe.com/AdobeIllustrator/10.0/">
	<!ENTITY ns_graphs "http://ns.adobe.com/Graphs/1.0/">
	<!ENTITY ns_vars "http://ns.adobe.com/Variables/1.0/">
	<!ENTITY ns_imrep "http://ns.adobe.com/ImageReplacement/1.0/">
	<!ENTITY ns_sfw "http://ns.adobe.com/SaveForWeb/1.0/">
	<!ENTITY ns_custom "http://ns.adobe.com/GenericCustomNamespace/1.0/">
	<!ENTITY ns_adobe_xpath "http://ns.adobe.com/XPath/1.0/">
]>
<svg version="1.1" xmlns:x="&ns_extend;" xmlns:i="&ns_ai;" xmlns:graph="&ns_graphs;"
	 xmlns="http://www.w3.org/2000/svg" xmlns:xlink="http://www.w3.org/1999/xlink" x="0px" y="0px" viewBox="0 0 283.5 283.5"
	 enable-background="new 0 0 283.5 283.5" xml:space="preserve">
<metadata>
	<sfw  xmlns="&ns_sfw;">
		<slices></slices>
		<sliceSourceBounds  height="267.5" width="267.5" bottomLeftOrigin="true" x="8.6" y="9.5"></sliceSourceBounds>
	</sfw>
</metadata>
<g id="Calque_3_1_">
	<circle fill="#E5E681" cx="142.6" cy="142.6" r="127.4"/>
</g>
<g id="Calque_1">
	<g id="Calque_4">
	</g>
	<g id="Calque_3">
		<g>
			<path fill="none" d="M20.5,142.2c0,7.9,0.8,15.7,2.2,23.3c6.9-1.6,15.8-2.9,27.2-3.2c0.6-0.1,14.2-1.1,15.6,5.5
				c0.1,0.2,1,1.7,1,3.5c0,0.6-0.1,1.3-0.4,1.9c-0.1,0.9-0.4,5,1.7,5.8l-0.6-0.6c0.1-0.1,3.3-3.4,8.5-5.5l7.7-17.3
				c-6.8-7.5-8.9-15.4-9.4-17.7c-0.4,0.1-0.9,0.2-1.4,0.2c-3.7,0.1-6.3-2.9-6.5-3.1c-8.2-9.2-0.3-18.3-0.1-18.5
				c1.5-1.3,3.1-1.9,4.8-1.9c0.7-7.2,2.4-13.1,4.3-17.9c-2.6,4.4-5,9.7-5.4,14.7l-1.6-0.1c0.8-10.4,9.2-21.2,12.5-25
				c1.3-1.9,2.2-3,2.3-3.1c3.7-5.5,8.5-9.7,13.9-13c-27.4,14-35.8,42.2-35.9,42.7l-1.6-0.4c0.2-0.5,14.6-49,67.2-51.2
				c3.4-0.3,6.6-0.6,9.5-0.7h7.3c4.5,0.2,7.7,0.5,8.6,0.6c7.6,0.3,39.4,3.3,56.9,28.8l-1.4,0.9C195,72.4,174.6,66,161.9,63.9
				c18.4,6,30.3,14.3,35.6,25.1c2.2,4.5,2.8,8.6,2.8,12.1c0,5.1-1.5,8.5-1.6,8.7c-0.3,0.9-0.4,1.9-0.5,2.8c1.2,0.3,3.5,1,5.4,2.8
				c0,0,4.6,5.3-1.1,10.2c0.5,0.7,0.8,1.1,0.8,1.1c3.6,3.6,4.6,6.6,4.6,8.9c0,2.3-0.9,3.6-1.2,3.9c-1.2,3.8-6.3,6.8-12.3,9.2
				l20.9,13c5.5-7.1,10.5-8.8,10.8-8.9l0.2-0.1h0.2c5.5,0.7,7.5,3.7,7.9,4.3c0.3,0.3,1.3,1.8,1.5,4.3c3.4-0.3,7.9,0,13.8,2
				c0.1,0,6.3,2.2,11.3,8.4c2.3-9.4,3.6-19.3,3.6-29.5c0-67.3-54.6-121.9-121.9-121.9S20.5,74.9,20.5,142.2z"/>
			<path fill="none" d="M220,236.2c2.3-2,4.7-4,6.8-6.1c-3.6-1.4-6.5-3.2-8.3-4.7C219.3,228.9,219.8,232.6,220,236.2z"/>
			<path fill="none" d="M188.7,158.5c-1.2,0.7-2.2,1.5-3.1,2.2c4.8,2.1,8.3,5.4,8.5,5.5l0.7,0.6l-0.2,0.1c0.8,1.3,1.5,3.1,2,5.2
				c1.3,0.3,5.5,1.3,10.4,4.8c0.8-2.8,2.2-5.7,2.9-7C206.5,168.5,197,163.2,188.7,158.5z"/>
			<path fill="#77C7E0" d="M184.8,180.8c-3.5,6.6-6.1,13.1-6.2,13.3l-0.5,1.2l-0.9-1c-10.2-11.7-20.7-17-27.5-19.4l-18,32.4
				l-0.5-0.1c-4.3-0.4-19.9-9.6-24.3-12.3c-0.3,3-1.1,6.3-2.9,9.8l-0.3-0.2c0.6,1.9,0.9,3.2,0.9,3.3c-0.4,5.9-2.5,10.3-6,12.9
				c-3.5,2.7-7.6,2.9-9.8,2.8l4.7,24.5c5.6,0.5,58.9,5.2,79.1-0.1c0-1.4,0.1-2.2,0.1-2.3v-0.8h0.8c22.5-0.4,28-4.4,28.1-4.5l0.7-0.5
				l0.5,0.7c0.3,0.4,0.6,1.2,0.8,2.2c4-0.7,13-3.1,14.8-6.7l0,0c-0.3-4.2-0.9-8.4-1.8-12.3c-0.2-0.2-0.3-0.3-0.4-0.4l0.3-0.3
				c-4.1-17.4-13.2-31.4-17.6-37.5c0.3,3.5,0.5,6.2,0.5,6.5l-1.6,0.3C196.1,188.9,187.5,182.7,184.8,180.8z"/>
			<path fill="#77C7E0" d="M196.7,182.1c-0.7-5.3-1.7-11.1-3.4-14c-2.6,2.4-5.4,6.8-7.8,11.3c2.1,1.5,8.5,6,11.8,9.9
				c-0.1-1.6-0.3-3.9-0.6-6.3C196.8,182.4,196.7,182.1,196.7,182.1z"/>
			<path fill="#77C7E0" d="M244.1,193.4l-0.1-0.2c0,0,0,0,0-0.1c-3.4,1.8-6.6,0.3-8.5-1.2c0,0,0,0.1-0.1,0.1
				c-0.2,0.3-0.4,0.6-0.7,0.9c0.8,1.1,4.8,6.6,14.9,6.9h0.1c0.5-1,1-2,1.6-3C247.4,196,244.3,193.5,244.1,193.4L244.1,193.4z"/>
			<path fill="#77C7E0" d="M192.3,166.9c-1.3-1-4.3-3.5-8-4.8c-2,2-3.1,4.1-3.8,6c1.4,1.5,4.1,4.7,5.7,7
				C188.1,171.7,190.3,168.8,192.3,166.9z"/>
			<path fill="#77C7E0" d="M94.9,174.7c-13.8-6.2-24.3,2.9-26.1,4.7c2.7,1,10.9,4.4,13.6,9c13,1.1,18.5,9.2,20.7,14.6
				C111.3,184.2,95.5,175.1,94.9,174.7z"/>
			<path fill="#77C7E0" d="M131,205.5c0.5-0.9,14-25.3,17.2-31.1c-3.5-1.1-5.5-1.4-5.5-1.4c-19.9-0.4-34.4-3.5-34.5-3.5
				c-10.8-2.6-18.2-7.4-23.2-12.5l-6.7,15.2c4.7-1.6,10.8-2,17.5,1c0.2,0.1,11.7,6.7,11.5,19.9C112.8,196.6,126.7,204.6,131,205.5z"
				/>
			<path fill="#77C7E0" d="M233.6,194.1c-0.9,0.5-1.8,0.9-2.9,1l-4.8,8.1l-1.4-0.9l4.2-7.2c-1.7-0.1-3.5-0.6-5.3-1.6
				c-2.2-1.3-4-3.2-4.8-5.3c-0.9,0.5-2.2,0.6-2.7,0.6v-0.3l-0.6-0.2c-4.9-1.7-8.5-7.3-8.6-7.6l-0.1-0.2v-0.2c0-0.5,0-1.1,0.1-1.6
				c-4.1-3.1-7.8-4.3-9.6-4.8c0.6,2.7,1,5.6,1.4,8.4c3.2,4.1,14.8,20,19.6,40.4c1.4,1.3,4.9,4.1,10.2,6c8.1-8,15.1-17.3,20.8-27.4
				C239.2,200.9,234.8,195.6,233.6,194.1z"/>
			<path fill="#433F3D" d="M204,247.4c2.8-1.7,5.7-3.5,8.4-5.4c-3.5,1.4-7.3,2.2-8.6,2.4C203.9,245.3,204,246.3,204,247.4z"/>
			<path fill="#433F3D" d="M93.9,249.8l0.9,4.7c11.1,4.7,23.1,7.9,35.5,9.1c10.5,0.2,21.8,0,31.3-0.9c4.1-0.6,8-1.5,12-2.5
				c-0.6-3.5-0.8-7.4-0.8-10.4C152.1,254.8,101.8,250.5,93.9,249.8z"/>
			<path fill="#EA4D4D" d="M79.2,210.8c0-0.6,0-0.9,0.1-1c0-0.3-0.1-0.8-0.1-1.1c0-4,1.8-6.9,3.7-8.8l-1.2-8.3
				c0.3-4.9-10.2-9.6-14.2-11.1c-2.3-0.9-2.8-3.6-2.9-5.6c-1.2,0.7-2.9,1.1-5.1,1.2c-0.3,1.6-1.6,5.5-4.6,7.5
				c-1.6,1-3.4,1.3-5.4,0.9c-0.6,0-2.6,0.1-4.2-0.4c-0.7,2-1.7,3.2-3.1,3.5c-2.4,0.5-4.7-2-5-2.4c-1.5-2.7-2.8-3.3-3.5-3.4
				c-0.9-0.1-1.5,0.6-1.4,0.5c-1.1,1.6-2.2,2.3-3.3,2.2c-0.4,0-0.7-0.2-0.9-0.3c4.9,13.4,12.2,25.7,21.2,36.4
				c17.3-3,27.8-7.6,30.1-8.7C79.3,211.6,79.2,211.1,79.2,210.8z"/>
			<path fill="#FFFFFF" d="M86.1,241.1L86.1,241.1c0.7,3.6,1.4,7.2,2,10.3c1.6,0.8,3.2,1.6,4.8,2.2c-0.9-4.9-1.9-10.2-2.8-14.9
				L86.1,241.1z"/>
			<path fill="#FFFFFF" d="M80.9,221.6l0.1-0.2l1-2.6c-1.4-1.8-2.1-3.6-2.4-5.1c-3,1.4-13.2,5.5-29.2,8.5c1.4,1.6,2.7,3,4.1,4.5
				c3.4-2.6,5.8-3.4,7.3-2.5c2.1,1.1,1.6,4.6,1.6,4.9l-1.6-0.3c0.2-0.9,0.2-2.8-0.7-3.2c-0.4-0.3-1.9-0.4-5.4,2.2
				c5.9,6,12.3,11.3,19.3,15.9c-1.4-9.1-2.4-18-2.8-21.1c-3.5,0.9-6.8,1.8-7.1,1.9l-0.4-1.6c0.1,0,12.1-3,15-4.4l0.7,1.5
				c-1.2,0.6-3.9,1.4-6.6,2.2c0.8,6.8,1.8,15.2,3,22.7c3,2,6.2,3.7,9.4,5.4c-1.8-8.8-3.8-20.3-5.3-28.6L80.9,221.6z"/>
			<path fill="#FFFFFF" d="M83.2,220.2c-0.3,0.7-0.5,1.4-0.6,1.6c0.9,5.2,2.1,11.6,3.2,17.6l4.1-2.3c-1.3-7-2.3-12.5-2.6-13.6
				C85.6,222.4,84.3,221.3,83.2,220.2z"/>
			<path fill="#DFD7CF" d="M28.4,182.3L28.4,182.3c0.1,0.1,0.3,0.5,0.7,0.5c0.2,0,0.8-0.1,1.8-1.6c0.1-0.1,1.1-1.4,2.8-1.2
				c1.6,0.2,3.3,1.6,4.7,4.1c0.5,0.6,2.1,2.1,3.3,1.8c0.9-0.2,1.6-1.5,2-2.7c0,0-0.1,0-0.1-0.1l0.1-0.1c0-0.1,0.1-0.2,0.1-0.3H44
				l0.9-0.9c0.7,0.7,3,0.9,4.5,0.8h0.1h0.1c1.6,0.4,3,0.2,4.2-0.6c3-2,4.1-7,4.1-7l0.1-0.7h0.7c3.3-0.1,5.4-0.8,6-2.1
				c0.9-1.6-0.5-3.8-0.5-3.9l-0.1-0.2v-0.2c-0.8-4.6-10.3-4.7-14-4.5c-11.3,0.3-20.1,1.6-26.9,3.3c0.2,0.9,0.3,1.7,0.5,2.5
				c2.8,0,6.6,0.7,10.1,3.8c9.6-0.5,23.3-2.6,24.1-5.3c0,0,0,0,0-0.1c0-0.1,0-0.3-0.3-0.6c-0.3-0.3-1.4-0.9-4.4-0.7l-0.2-1.6
				c2.9-0.3,4.8,0.2,5.9,1.3c0.8,0.9,0.6,1.9,0.6,2.1c-1.6,5-21.8,6.3-25.9,6.6h-0.3l-0.3-0.3c-2.9-2.8-6.4-3.5-8.9-3.6
				c0.8,3.3,1.7,6.5,2.8,9.6c0.5,0.3,0.9,0.8,1.6,1.3L28.4,182.3z"/>
			<path fill="#FFCE00" d="M97.7,219.5c3.1-2.3,4.8-6.3,5.3-11.6c-0.1-0.7-2.4-15.9-19.9-17.9c0.1,0.5,0.2,0.9,0.2,1.5l1,7
				c1.4-1.1,2.4-1.6,2.5-1.6l0.7,1.5c-0.3,0.2-6.6,3.3-6.6,10.4c0,0.3,0,0.7,0.1,1v0.1v0.1c0,0.1-0.1,0.3-0.1,0.9
				c0,2.1,0.7,7.1,7.1,11.1C88.5,222,93.6,222.6,97.7,219.5z"/>
			<path fill="#FFCE00" d="M220.1,183.1c-0.6,1-0.7,2.2-0.3,3.6c0.5,2.1,2.2,4.1,4.5,5.4c3.9,2.2,8.3,1.8,9.8-0.9
				c1.6-2.8-0.3-6.8-4.1-9C226,180,221.6,180.4,220.1,183.1z"/>
			<path fill="#EA4D4D" d="M211.6,170.5L211.6,170.5c-0.9,1.4-3.5,6.2-3.5,9.6v0.1c0.5,0.8,3.2,4.6,6.7,6.3
				c0.4-2.5,1.8-8.8,6.6-15.1v-0.1c0,0,0,0,0-0.1c0-1.5,0.5-6.3,6.6-7.9l0,0c-3.2-2.3-6.4-4.1-7.8-4.7c-1.1,1-2.4,2.4-3.7,4.1
				l-0.5,0.9c-1.3,1.2-3.5,5.1-4.1,6.6L211.6,170.5z M219.4,160.6l5.1,2.8l-0.8,1.5l-5.1-2.8L219.4,160.6z"/>
			<path fill="#EA4D4D" d="M196.8,157.4L196.8,157.4l-0.3,0.1c-1,0.2-1.6,0.6-1.9,1.1c-0.3,0.5-0.2,1-0.1,1.4
				c7.4,4.1,14.1,7.8,16.1,8.7c1.1-2.2,2.3-4,3.5-5.6c-1.2-0.8-8.9-5.5-14.9-9.2C199,155.5,197.7,156.8,196.8,157.4z"/>
			<path fill="#EA4D4D" d="M221.1,174.6c-3.5,5.7-4.6,11-4.7,12.6c0.8-0.1,1.5-0.3,1.6-0.5c-0.3-1.6-0.2-3.1,0.6-4.4
				c0.8-1.3,2-2.2,3.5-2.7C221.4,178,221.1,176.2,221.1,174.6z"/>
			<path fill="#EA4D4D" d="M229.9,162.6c0.9-0.3,2.2-0.8,4.1-1c0-1.4-0.3-2.3-0.7-2.8C231.2,160.3,230.3,161.8,229.9,162.6z"/>
			<path fill="#EA4D4D" d="M229.2,160.7c-2.3-2.1-5.4-3.6-6.5-4.1c-0.3,0.3-0.7,0.5-1,0.8c1.6,0.8,4.2,2.3,7,4.2
				C228.7,161.3,228.9,161,229.2,160.7z"/>
			<path fill="#EA4D4D" d="M232.3,157.4c-0.7-0.9-2.4-2.4-6-2.9c-0.3,0.1-1,0.4-2.1,1c1.5,0.8,3.9,2.2,6,3.9
				C230.7,158.7,231.5,158,232.3,157.4z"/>
			<path fill="#DFD7CF" d="M180.6,154c-0.5-0.3-1.1-0.6-1.6-0.9c-4.1,0.9-7.3,1.4-7.7,1.4c-8.5,1.1-15.4,1.5-20.6,1.3
				c1.1,1.9,2.8,2.9,2.8,3c1.5,1.2,2.8,1.8,4.1,1.7c1.1-0.1,1.7-0.9,1.8-0.9l0.1-0.1l0.1-0.1c4.1-3.1,6.8-0.9,6.9-0.9
				c2.2,1.6,6.1,1.6,6.2,1.6C178,160.5,180,155.8,180.6,154z"/>
			<path fill="#DFD7CF" d="M192.3,149.5c-3.6,1.3-7.5,2.3-10.9,3.1c3.5,2,7.5,4.2,11.4,6.4c0-0.3,0.1-0.8,0.3-1.2
				c0.5-0.9,1.5-1.6,2.8-1.9c0.1-0.1,1.7-1,1.7-2.7c0-0.2,0-0.3-0.1-0.5C195.1,151.2,193.1,149.9,192.3,149.5z"/>
			<path fill="#DFD7CF" d="M194.8,143.3c-1.5-0.3-3.4,0.5-5.6,2.6c-0.2,0.1-3.6,2.5-8.5-1.9c0,0-1.9-1.5-3.7-1
				c-0.9,0.2-1.7,0.9-2.4,2.2c-0.2,0.3-3.5,5.5-7.6,4.6c-0.3-0.1-5.6-1.4-8.3-3.8c-0.4-0.2-3-1-4.7,2.4l-0.1,0.1l-0.1,0.1
				c-0.3,0.4-3.6,4.1-6.4,3.8c-0.4,0-2.9,0.1-4.1-1.4c-0.5,0-1.4,0.2-1.6,0.6c-0.1,0.1-0.1,0.3-0.1,0.3c0,0.3,0.2,0.9,0.5,1.4l0,0
				c5.7,1.1,14.8,1.6,29-0.3c2-0.3,4.8-0.8,7.9-1.5c0,0,0.2-0.1,0.2,0c5.8-1.3,12.7-3.2,18-5.7C196.9,144.9,196.2,143.6,194.8,143.3
				z"/>
			<path fill="#FFCE00" stroke="#000000" stroke-width="2" d="M202.3,125.7c5.7-4.8,1.1-10.2,1.1-10.2c-1.8-1.8-4.1-2.5-5.4-2.8
				c0,0.3,0,0.6,0,0.9C198.1,118.6,200.9,123.5,202.3,125.7z"/>
			<path fill="#FFCE00" d="M197.1,109.2c0-0.1,3.9-9.1-1.3-19.5c-5.4-11.1-18.4-19.6-38.4-25.4c11.1,4,25.2,11.7,26.9,25.8l-1.6,0.2
				c-2.2-18.6-28.5-25.7-36.6-27.5c7.9,3.5,21.5,11.6,24.6,27.5l-1.6,0.3c-4.1-21.4-28.8-28.2-29-28.3v-0.1c-0.2,0-0.3,0-0.6,0
				c4.9,4.1,21,18.4,19.5,33.3l-1.6-0.2c1.4-14.3-15.2-28.8-19.3-32.2c1,5.4,3.8,21.7,2.8,28.4l-1.6-0.3c0.9-6.2-1.7-21.8-2.7-27.5
				c-9.8,12.9-9.2,26.1-9.2,26.2l-1.6,0.1c0-0.6-0.5-13.7,9.4-26.9c-20.5,9.5-24.7,34.7-24.7,35l-1.6-0.3c0-0.3,4.1-24.9,23.9-35.3
				c-0.9,0.1-1.8,0.1-2.8,0.2l-1.6,0.6c-34.5,16.3-38.7,50.7-38.8,50.9l-1.6-0.2c0-0.3,4.1-33.3,36.3-50.6c-1.2,0.3-3.3,0.8-4.1,1
				l0,0C82.5,76.8,78.5,112.6,78.4,113l-1.6-0.2c0-0.3,3.5-32.3,35.1-47c-10.5,3.1-20.7,8.6-27.3,18.4c0,0-0.5,0.6-1.2,1.6l0.2,0.1
				c0,0-0.4,0.5-1.1,1.3c-3,4.4-8.2,13.9-9.6,27.7c3.3,0.9,5.6,3.7,5.7,3.9l-1.3,1c0,0-2.6-3.2-5.8-3.5c-1.5-0.1-2.8,0.3-4.1,1.5
				c-0.3,0.3-7,8,0.2,16.2c0,0,2.3,2.6,5.2,2.5c1.7,0,3.5-1,5-2.8l1.3,1c-1,1.2-2.2,2.2-3.3,2.8c0.5,2.9,5.4,23.9,32.6,30.5
				c0.2,0,14.6,3.1,34.3,3.5c0.7,0.1,17.9,2.1,34.9,21c1.1-2.8,4.1-9.6,7.7-15.7c-1.2-2-3.7-4.9-5.4-6.7c-0.5,2.4-0.3,4.1-0.3,4.2
				l-1.6,0.3c0-0.1-0.3-2.6,0.6-6c-0.1-0.1-0.2-0.2-0.2-0.2l0.3-0.3c1-3.2,3.3-7.1,8.2-10.3c-1.7-0.9-3.5-1.9-5-2.8
				c-0.9,2.3-3.4,7.3-9.4,7c-0.2,0-4.6,0.1-7.2-1.9c-0.1-0.1-1.9-1.4-4.8,0.9c-0.3,0.3-1.2,1.2-2.8,1.4c-1.6,0.2-3.5-0.5-5.2-2
				c-0.1-0.1-2.4-1.6-3.8-4.5c-10.9-0.7-15.1-3.4-16.4-4.6c-0.5,0.6-1,1.1-1.6,1.6c-6.1,5.2-14.4,4-14.9,4l0.3-1.6
				c0.1,0,7.9,1.1,13.5-3.5c3.6-3.1,5.5-7.9,5.6-14.6h1.6c-0.1,5.3-1.2,9.6-3.5,12.9c0.6,0.5,2.4,1.9,6.7,3
				c-0.3-0.9-0.3-1.6,0.2-2.2c0.9-1.5,3.2-1.4,3.5-1.4h0.5l0.2,0.4c0.4,0.9,2.2,1,3,0.9h0.1h0.1c1.4,0.3,3.8-1.8,5-3.2
				c1.9-3.9,5.3-3.7,6.7-3.1l0.2,0.1l0.1,0.1c2.3,2.2,7.7,3.5,7.8,3.5c3,0.7,5.8-3.7,5.8-3.7c0.9-1.6,2.1-2.6,3.5-2.9
				c2.6-0.5,5,1.3,5.1,1.4c3.8,3.5,6.3,1.9,6.3,1.9c2.7-2.5,5-3.5,7.1-2.9c1.9,0.5,3,2.2,3.5,3.2c3.3-1.7,5.7-3.8,6.4-6l0.1-0.2
				l0.1-0.2c0.2-0.2,3.2-4.2-3.3-10.8C201.6,127.5,194.3,118.1,197.1,109.2z M74.5,125.6c0,0-0.9-1.5-2.3-2.1c-0.3,1.1-0.8,3.5,1,6
				l-1.4,0.9c-2-2.8-1.7-5.5-1.3-7.1c-0.8,0.3-1.6,0.9-2.3,1.9l-1.3-0.9c1.4-1.9,2.9-2.8,4.6-2.7c2.7,0.1,4.4,2.9,4.5,3L74.5,125.6z
				 M128.6,124.5c-8.5,0-15.5-6.9-15.5-15.5s6.9-15.5,15.5-15.5s15.5,6.9,15.5,15.5C144,117.6,137,124.5,128.6,124.5z M168.2,134.1
				c-2.4,2.8-7.3,3.8-14.7,2.8l0.3-1.6c6.6,0.9,11.1,0.1,13.1-2.2c1.9-2.2,1-5.2,1-5.2v-0.1v-0.1c0-1.5-0.5-2.7-1.6-3.5
				c-4.2-3.6-14.9-2-15-2l-0.3-1.6c0.4-0.1,11.6-1.7,16.3,2.3c1.4,1.2,2.2,2.8,2.2,4.7C169.7,128.2,170.5,131.5,168.2,134.1z
				 M174.8,124.1c-8.5,0-15.5-6.9-15.5-15.5s6.9-15.5,15.5-15.5c8.5,0,15.5,6.9,15.5,15.5C190.4,117.2,183.4,124.1,174.8,124.1z"/>
			<path fill="#12100B" d="M167.4,122.8c-4.7-4.1-15.9-2.4-16.3-2.3l0.3,1.6c0.1,0,10.9-1.6,15,2c1,0.9,1.6,2.1,1.6,3.5v0.1v0.1
				c0,0,0.9,3-1,5.2c-2.1,2.3-6.6,3.2-13.1,2.2l-0.3,1.6c7.3,0.9,12.2,0,14.7-2.8c2.2-2.7,1.6-6,1.4-6.6
				C169.6,125.6,168.9,124,167.4,122.8z"/>
			<path fill="#12100B" d="M71.4,121.7c-1.6-0.1-3.1,0.9-4.6,2.7l1.3,0.9c0.8-1,1.6-1.6,2.3-1.9c-0.4,1.6-0.6,4.2,1.3,7.1l1.4-0.9
				c-1.8-2.6-1.4-4.9-1-6c1.4,0.5,2.3,2,2.3,2.1l1.4-0.9C75.8,124.6,74.1,121.8,71.4,121.7z"/>
			<path fill="#FFFFFF" d="M188.7,108.7c0-7.6-6.2-13.8-13.8-13.8c-7.6,0-13.8,6.2-13.8,13.8s6.2,13.8,13.8,13.8
				C182.5,122.5,188.7,116.3,188.7,108.7z M176,113c-1.6,0-2.9-1.3-2.9-2.9s1.3-2.9,2.9-2.9s2.9,1.3,2.9,2.9S177.6,113,176,113z"/>
			<path fill="#FFFFFF" d="M128.6,95.3c-7.6,0-13.8,6.2-13.8,13.8s6.2,13.8,13.8,13.8c7.6,0,13.8-6.2,13.8-13.8
				C142.4,101.5,136.2,95.3,128.6,95.3z M126.1,112.9c-1.6,0-2.9-1.3-2.9-2.9s1.3-2.9,2.9-2.9c1.6,0,2.9,1.3,2.9,2.9
				C129.1,111.6,127.8,112.9,126.1,112.9z"/>
			<circle fill="#12100B" cx="126.1" cy="110" r="2.9"/>
			<circle fill="#12100B" cx="176" cy="110.1" r="2.9"/>
			<path fill="#12100B" d="M174.8,93.2c-8.5,0-15.5,6.9-15.5,15.5s6.9,15.5,15.5,15.5c8.5,0,15.5-6.9,15.5-15.5
				C190.4,100.1,183.4,93.2,174.8,93.2z M161,108.7c0-7.6,6.2-13.8,13.8-13.8c7.6,0,13.8,6.2,13.8,13.8s-6.2,13.8-13.8,13.8
				C167.2,122.5,161,116.3,161,108.7z"/>
			<path fill="#12100B" d="M128.6,93.6c-8.5,0-15.5,6.9-15.5,15.5s6.9,15.5,15.5,15.5s15.5-6.9,15.5-15.5
				C144,100.5,137,93.6,128.6,93.6z M128.6,122.9c-7.6,0-13.8-6.2-13.8-13.8s6.2-13.8,13.8-13.8c7.6,0,13.8,6.2,13.8,13.8
				S136.2,122.9,128.6,122.9z"/>
			
				<rect x="218.6" y="162" transform="matrix(-0.8742 -0.4856 0.4856 -0.8742 336.0974 412.7955)" fill="#12100B" width="5.9" height="1.6"/>
			<path fill="#12100B" d="M228.6,161.6c-2.8-2-5.4-3.5-7-4.2c-0.4,0.3-0.9,0.8-1.4,1.2c1.4,0.7,4.7,2.4,7.8,4.7
				C228.1,162.8,228.3,162.3,228.6,161.6z"/>
			<path fill="#12100B" d="M230.2,159.4c-2.1-1.7-4.5-3.1-6-3.9c-0.4,0.3-1,0.6-1.6,1c1.1,0.5,4.1,2.1,6.5,4.1
				C229.4,160.3,229.8,159.9,230.2,159.4z"/>
			<path fill="#12100B" d="M33.2,175.2h0.3c4.1-0.3,24.4-1.6,25.9-6.6c0-0.2,0.3-1.2-0.6-2.1c-0.9-1.1-2.9-1.6-5.9-1.3l0.2,1.6
				c3-0.3,4.1,0.3,4.4,0.7c0.2,0.3,0.3,0.4,0.3,0.6v0.1c-0.9,2.8-14.5,4.7-24.1,5.3c-3.5-3.1-7.3-3.8-10.1-3.8
				c0.1,0.5,0.3,1.1,0.4,1.6c2.6,0.1,6,0.8,8.9,3.6L33.2,175.2z"/>
			<path fill="#12100B" d="M61,225.6c0.9,0.4,0.9,2.3,0.7,3.2l1.6,0.3c0.1-0.3,0.6-3.8-1.6-4.9c-1.6-0.9-4-0.1-7.3,2.5
				c0.3,0.4,0.8,0.8,1.2,1.2C59.1,225.2,60.6,225.3,61,225.6z"/>
			<path fill="#12100B" d="M80.4,220l-0.7-1.5c-2.9,1.4-14.9,4.4-15,4.4l0.4,1.6c0.3-0.1,3.5-0.9,7.1-1.9c0.3,3,1.4,11.9,2.8,21.1
				c0.6,0.4,1.2,0.8,1.8,1.2c-1.2-7.5-2.2-15.9-3-22.7C76.5,221.5,79.2,220.6,80.4,220z"/>
			<path fill="#EA4D4D" d="M174.3,246.5c0,0.6,0,1.5,0,2.6c0,2.8,0.2,7.1,0.8,10.5c9.7-2.7,18.8-6.6,27.4-11.4
				c-0.1-2.6-0.3-4.8-0.8-6C199.4,243.4,192.3,246.1,174.3,246.5z"/>
			<path fill="#12100B" d="M130.2,263.5c4,0.4,8,0.6,12.2,0.6c6.5,0,12.9-0.5,19.1-1.5C152,263.6,140.8,263.7,130.2,263.5z"/>
			<path fill="#12100B" d="M124.8,63.2l-0.1-0.9l-5.8,1.1l0.6,0.9c0,0,0.2,0,0.4-0.1c0.9-0.3,3-0.8,4.1-1
				C124.4,63.3,124.6,63.2,124.8,63.2z"/>
			<polyline fill="#FFCE00" points="251.1,196.7 250.9,196.6 244.1,192.7 242.1,193.6 238,192.7 235.3,191.5 222.1,179 221.6,171.7 
				222.6,168 224.5,165.6 226.4,164.2 228.9,163.2 233.6,161.9 238.2,161.6 242.4,161.9 246.8,163.2 252.5,165.5 257.8,170 
				260.6,172.2 			"/>
			<path fill="#12100B" d="M80.8,210.8c0-0.5,0.1-0.9,0.1-0.9v-0.1v-0.1c0-0.3-0.1-0.7-0.1-1c0-7.1,6.4-10.2,6.6-10.4l-0.7-1.5
				c0,0-1.1,0.5-2.5,1.6l-1-7c0-0.5,0-1-0.2-1.5c17.4,2.1,19.8,17.3,19.9,17.9c-0.4,5.3-2.2,9.2-5.3,11.6c-4.1,3.2-9.2,2.5-9.8,2.4
				C81.6,218,80.8,212.9,80.8,210.8z M103.1,202.9c-2.2-5.4-7.8-13.5-20.7-14.6c-2.7-4.6-11-7.9-13.6-9c1.8-1.7,12.3-10.9,26.1-4.7
				C95.5,175.1,111.3,184.2,103.1,202.9z M95.6,173.2c-6.7-3-12.8-2.6-17.5-1l6.7-15.2c5.1,5.1,12.4,9.9,23.2,12.5
				c0.2,0,14.8,3.1,34.5,3.5c0,0,2.2,0.3,5.5,1.4c-3.2,5.8-16.7,30.1-17.2,31.1c-4.2-0.9-18.1-8.9-23.9-12.4
				C107.2,180,95.8,173.3,95.6,173.2z M216.1,163.5l0.5-0.9c1.3-1.6,2.5-2.9,3.7-4.1c0.4-0.4,0.9-0.9,1.4-1.2c0.3-0.3,0.7-0.5,1-0.8
				c0.6-0.4,1.1-0.8,1.6-1c1.1-0.7,1.8-0.9,2.1-1c3.6,0.5,5.4,2.1,6,2.9c-0.9,0.7-1.6,1.4-2.2,2.1c-0.4,0.4-0.8,0.9-1,1.3
				c-0.2,0.3-0.4,0.6-0.5,0.9c-0.3,0.7-0.5,1.2-0.5,1.6l0,0c-6,1.6-6.6,6.5-6.6,7.9v0.1v0.1c-4.7,6.4-6.2,12.7-6.6,15.1
				c-3.5-1.7-6.2-5.5-6.7-6.3v-0.1c0-3.4,2.6-8.2,3.4-9.6h0.1l0.3-0.5C212.7,168.6,214.7,164.6,216.1,163.5z M234,161.6
				c-1.8,0.3-3.2,0.7-4.1,1c0.3-0.9,1.3-2.3,3.4-4C233.6,159.3,233.9,160.2,234,161.6z M218.6,182.3c-0.8,1.3-0.9,2.8-0.6,4.4
				c-0.2,0.2-0.9,0.4-1.6,0.5c0.3-1.6,1.2-6.9,4.7-12.6c0,1.6,0.3,3.4,0.9,4.9C220.6,180.1,219.4,181,218.6,182.3z M210.7,168.6
				c-2.1-0.9-8.7-4.6-16.1-8.7c-0.1-0.3-0.2-0.9,0.1-1.4c0.3-0.5,0.9-0.9,1.9-1.1h0.2l0.1-0.1c0.9-0.5,2.2-1.8,2.5-3.5
				c6,3.7,13.7,8.5,14.9,9.2C213,164.6,211.9,166.4,210.7,168.6z M172.7,160.2c-0.1,0-4.1,0.1-6.2-1.6c-0.1-0.1-2.8-2.2-6.9,0.9
				l-0.1,0.1l-0.1,0.1c0,0-0.6,0.8-1.8,0.9c-1.2,0.1-2.6-0.4-4.1-1.7c-0.1-0.1-1.7-1.1-2.8-3c5.4,0.2,12.1-0.1,20.6-1.3
				c0.4-0.1,3.5-0.5,7.7-1.4c0.5,0.3,1,0.6,1.6,0.9C180,155.8,178,160.5,172.7,160.2z M196,155.9c-1.4,0.3-2.3,0.9-2.8,1.9
				c-0.2,0.4-0.3,0.8-0.3,1.2c-3.9-2.2-7.9-4.4-11.4-6.4c3.4-0.8,7.3-1.8,10.9-3.1c0.8,0.5,2.8,1.7,5.3,3.3c0,0.2,0.1,0.3,0.1,0.5
				C197.6,154.9,196.1,155.8,196,155.9z M179.3,151.4h-0.2c-3.1,0.7-6,1.2-7.9,1.5c-14.2,1.9-23.3,1.5-29,0.3l0,0
				c-0.3-0.6-0.5-1-0.5-1.4c0-0.2,0-0.3,0.1-0.3c0.3-0.4,1.1-0.5,1.6-0.6c1.2,1.5,3.7,1.5,4.1,1.4c2.8,0.3,6-3.4,6.4-3.8l0.1-0.1
				l0.1-0.1c1.6-3.5,4.2-2.7,4.7-2.4c2.7,2.4,8.1,3.7,8.3,3.8c4.1,1,7.4-4.3,7.6-4.6c0.7-1.2,1.5-1.9,2.4-2.2c1.8-0.4,3.7,1,3.7,1
				c4.7,4.4,8.3,2,8.5,1.9c2.2-2.1,4.1-2.9,5.6-2.6c1.3,0.3,2.1,1.6,2.4,2.4C192,148.2,185.1,150.1,179.3,151.4z M180.5,168
				c0.7-1.9,1.8-4,3.8-6c3.7,1.5,6.7,3.8,8,4.8c-2,1.9-4.1,4.8-6,8.1C184.6,172.6,181.8,169.4,180.5,168z M196.6,172.2
				c-0.5-2.1-1.2-4-2-5.2l0.2-0.1l-0.7-0.6c-0.2-0.2-3.7-3.5-8.5-5.5c0.9-0.8,1.9-1.5,3.1-2.2c8.4,4.7,17.9,9.9,21.2,11.5
				c-0.8,1.3-2.2,4.1-2.9,7C202,173.5,197.9,172.5,196.6,172.2z M202,127.8c6.6,6.6,3.5,10.6,3.3,10.8l-0.1,0.2l-0.1,0.2
				c-0.6,2.2-3,4.2-6.4,6c-0.5-1-1.6-2.7-3.5-3.2c-2.1-0.5-4.5,0.4-7.1,2.9c0,0-2.5,1.6-6.3-1.9c-0.2-0.1-2.6-2-5.1-1.4
				c-1.5,0.3-2.6,1.3-3.5,2.9c0,0-2.8,4.5-5.8,3.7c-0.1,0-5.4-1.3-7.8-3.5l-0.1-0.1l-0.2-0.1c-1.6-0.7-4.8-0.9-6.7,3.1
				c-1.2,1.4-3.6,3.5-5,3.2h-0.1h-0.1c-0.8,0.1-2.6-0.1-3-0.9l-0.2-0.4h-0.5c-0.3,0-2.5-0.1-3.5,1.4c-0.3,0.6-0.4,1.4-0.2,2.2
				c-4.3-1-6.2-2.4-6.7-3c2.2-3.3,3.5-7.6,3.5-12.9h-1.6c-0.1,6.6-2,11.5-5.6,14.6c-5.5,4.7-13.4,3.6-13.5,3.5l-0.3,1.6
				c0.3,0.1,8.7,1.3,14.9-4c0.6-0.5,1.1-1,1.6-1.6c1.3,1.1,5.5,3.9,16.4,4.6c1.4,2.9,3.7,4.4,3.8,4.5c1.7,1.5,3.5,2.2,5.2,2
				c1.6-0.2,2.5-1.1,2.8-1.4c3-2.2,4.8-0.9,4.8-0.9c2.6,2,7,1.9,7.2,1.9c6,0.3,8.5-4.7,9.4-7c1.6,0.9,3.2,1.8,5,2.8
				c-4.9,3.2-7.2,7.1-8.2,10.3l-0.3,0.3c0,0,0.1,0.1,0.2,0.2c-0.9,3.4-0.6,5.9-0.6,6l1.6-0.3c0-0.2-0.3-1.9,0.3-4.2
				c1.6,1.8,4.1,4.7,5.4,6.7c-3.5,6.2-6.6,13-7.7,15.7c-17-18.8-34.1-20.9-34.9-21c-19.7-0.4-34.2-3.5-34.3-3.5
				c-27.2-6.6-32.1-27.5-32.6-30.5c1.1-0.6,2.2-1.5,3.3-2.8l-1.3-1c-1.6,1.9-3.2,2.8-5,2.8c-2.9,0.1-5.2-2.5-5.2-2.5
				c-7.2-8.1-0.5-15.9-0.2-16.2c1.2-1,2.6-1.6,4.1-1.5c3.2,0.3,5.7,3.5,5.8,3.5l1.3-1c-0.1-0.2-2.4-3-5.7-3.9
				c1.4-13.8,6.6-23.2,9.6-27.7c0.7-0.8,1.1-1.2,1.1-1.3l-0.2-0.1c0.8-0.9,1.2-1.6,1.2-1.6c6.6-9.8,16.8-15.3,27.3-18.4
				c-31.7,14.7-35.1,46.6-35.2,47l1.6,0.2c0-0.3,4-36.2,41.5-48.5l0,0c-0.3,0.1-0.4,0.1-0.4,0.1l-0.6-0.9l5.8-1.1l0.1,0.9
				c-0.2,0-0.3,0.1-0.7,0.1C91.8,80.7,87.8,113.7,87.7,114l1.6,0.2c0-0.3,4.2-34.6,38.8-50.9l1.6-0.6c0.9-0.1,1.8-0.2,2.8-0.2
				c-19.8,10.4-23.8,35.1-23.9,35.3l1.6,0.3c0-0.3,4.1-25.5,24.7-35c-9.9,13.2-9.4,26.3-9.4,26.9l1.6-0.1c0-0.2-0.5-13.3,9.2-26.2
				c1,5.6,3.6,21.2,2.7,27.5l1.6,0.3c1-6.7-1.8-23-2.8-28.4c4.1,3.4,20.7,17.9,19.3,32.2l1.6,0.2c1.5-14.9-14.6-29.3-19.5-33.3
				c0.2,0,0.3,0,0.6,0v0.1c0.3,0.1,24.9,6.8,29,28.3l1.6-0.3c-3-15.9-16.7-24.1-24.5-27.5c8.1,1.8,34.5,9,36.6,27.5l1.6-0.2
				c-1.6-14.1-15.8-21.8-26.9-25.8c20,5.9,33,14.3,38.4,25.4c5.1,10.4,1.3,19.4,1.3,19.5C194.3,118.1,201.6,127.5,202,127.8z
				 M85.7,239.4c-1.1-6-2.2-12.4-3.2-17.6c0.1-0.2,0.3-0.9,0.6-1.6c1,1.1,2.3,2.2,4,3.2c0.3,1.1,1.3,6.6,2.6,13.6L85.7,239.4z
				 M199.3,192.1c0-0.3-0.2-2.9-0.5-6.5c4.4,6,13.5,20.1,17.6,37.5l-0.3,0.3c0,0,0.2,0.2,0.4,0.4c0.9,4,1.6,8.1,1.8,12.3l0,0
				c-1.7,3.6-10.8,6-14.8,6.7c-0.2-0.9-0.4-1.6-0.8-2.2l-0.5-0.7l-0.7,0.5c-0.1,0-5.5,4-28.1,4.5h-0.8v0.8c0,0.2-0.1,1-0.1,2.3
				c-20.2,5.3-73.5,0.6-79.1,0.1l-4.7-24.5c2.2,0.1,6.2-0.1,9.8-2.8c3.5-2.7,5.4-7,6-12.9c0-0.1-0.2-1.4-0.9-3.3l0.3,0.2
				c1.7-3.6,2.6-6.9,2.9-9.8c4.5,2.8,20,11.9,24.3,12.3l0.5,0.1l18-32.4c6.7,2.4,17.3,7.8,27.5,19.4l0.9,1l0.5-1.2
				c0.1-0.1,2.7-6.6,6.2-13.3c2.7,1.9,11.2,8,12.9,11.7L199.3,192.1z M197.5,189.3c-3.4-3.9-9.8-8.5-11.8-9.9
				c2.4-4.5,5.2-8.9,7.8-11.3c1.6,2.8,2.7,8.7,3.4,14c0,0,0.1,0.3,0.1,0.9C197.1,185.4,197.3,187.7,197.5,189.3z M229.9,182.2
				c3.9,2.2,5.7,6.3,4.1,9c-1.6,2.8-6,3.1-9.8,0.9c-2.2-1.3-4-3.4-4.5-5.4c-0.3-1.3-0.3-2.6,0.3-3.6
				C221.6,180.4,226,180,229.9,182.2z M249.4,163.3c-5.9-1.9-10.4-2.2-13.8-2c-0.1-2.6-1.1-4-1.5-4.3c-0.3-0.6-2.3-3.6-7.9-4.3H226
				l-0.2,0.1c-0.3,0.1-5.3,1.7-10.8,8.9l-20.9-13c6-2.3,11.1-5.4,12.3-9.2c0.2-0.3,1.2-1.6,1.2-3.9s-0.9-5.3-4.6-8.9
				c0,0-0.3-0.4-0.8-1.1c-1.4-2.2-4.2-7-4.2-12.1c0-0.3,0-0.6,0-0.9c0.1-0.9,0.3-1.9,0.5-2.8c0.1-0.2,1.6-3.6,1.6-8.7
				c0-3.5-0.7-7.6-2.8-12.1c-5.3-10.7-17.2-19.2-35.6-25.1c12.7,2.2,33.2,8.5,45.8,26.9l1.4-0.9c-17.4-25.5-49.2-28.4-56.8-28.8
				c-0.9-0.1-4.1-0.4-8.6-0.6h-7.3c-2.9,0.1-6.1,0.3-9.5,0.7c-52.5,2.2-67,50.7-67.2,51.1l1.6,0.4c0.1-0.3,8.5-28.7,36-42.6
				c-5.4,3.2-10.2,7.4-13.9,13c-0.1,0.1-1,1.1-2.3,3.1c-3.4,3.9-11.7,14.6-12.5,25l1.6,0.1c0.3-5.1,2.8-10.3,5.4-14.7
				c-1.9,4.7-3.5,10.7-4.3,17.9c-1.7,0-3.4,0.6-4.8,1.9c-0.2,0.2-8,9.2,0.1,18.5c0.1,0.1,2.8,3.1,6.5,3.1c0.4,0,0.9-0.1,1.4-0.2
				c0.5,2.3,2.5,10.2,9.4,17.7l-7.7,17.3c-5.3,2.2-8.5,5.4-8.5,5.5L68,179c-2.2-0.9-1.9-4.9-1.7-5.8c0.3-0.6,0.4-1.3,0.4-1.9
				c0-1.8-0.9-3.3-1-3.5c-1.5-6.7-15-5.6-15.6-5.5c-11.4,0.3-20.3,1.6-27.2,3.2c0.1,0.5,0.2,1.1,0.3,1.6c6.8-1.6,15.6-2.9,26.9-3.3
				c3.7-0.3,13.2-0.2,14,4.5v0.2l0.1,0.2c0,0,1.4,2.2,0.5,3.9c-0.7,1.3-2.8,2-6,2.1h-0.7l-0.1,0.7c0,0.1-0.9,5-4.1,7
				c-1.2,0.8-2.6,0.9-4.2,0.6h-0.1h-0.1c-1.5,0.1-3.9-0.1-4.5-0.8l-0.9,0.9h-0.2c0,0.1-0.1,0.2-0.1,0.3l-0.1,0.1c0,0,0,0,0.1,0.1
				c-0.3,1.2-0.9,2.4-2,2.7c-1.2,0.3-2.8-1.2-3.3-1.8c-1.4-2.5-3-4-4.7-4.1c-1.7-0.2-2.8,1.1-2.8,1.2c-1,1.6-1.6,1.6-1.8,1.6
				c-0.3,0-0.6-0.4-0.6-0.4l-0.1-0.1l-0.1-0.1c-0.5-0.5-1-0.9-1.6-1.3c0.3,1.1,0.8,2.2,1.1,3.3c0.3,0.2,0.6,0.3,0.9,0.3
				c1.1,0.1,2.2-0.7,3.3-2.2c0,0,0.5-0.6,1.4-0.5c0.8,0.1,2,0.7,3.5,3.4c0.3,0.4,2.6,2.9,5,2.4c1.4-0.3,2.4-1.5,3.1-3.5
				c1.6,0.5,3.6,0.4,4.2,0.4c2,0.4,3.8,0.2,5.4-0.9c3-1.9,4.2-6,4.6-7.5c2.2-0.1,3.9-0.5,5.1-1.2c0.1,2,0.6,4.7,2.9,5.6
				c4.1,1.4,14.6,6,14.2,11.1l0.6,7.6c-1.9,1.9-3,5.5-3,9.5c0,0.3,0,0.7,0.1,1.1c0,0.2-0.1,0.5-0.1,1c0,0.3-0.1-0.4,0,0
				c-2.3,1.1-14.2,6-31.4,9c0.4,0.5,2.2,1.8,2.6,2.3c16.1-2.9,26.2-7.1,29.2-8.5c0.3,1.5,1,3.3,2.4,5.1l-1,2.6l-0.1,0.2v0.3
				c1.5,8.3,3.5,19.8,5.3,28.6c0.6,0.3,1.3,0.6,1.9,0.9c-0.6-3.1-1.3-6.6-2-10.4v0.1l4-2.3c0.9,4.7,1.9,9.9,2.8,14.9
				c0.6,0.3,1.6,0.9,2.2,1.1l-0.3-4.2c7.9,0.7,57.3,4.3,77.9-0.8c0,2.9,0.2,7,0.8,10.4c0.5-0.2,1.6-0.4,2.1-0.6
				c-0.6-3.5-0.9-7.5-0.9-10.4c0-1.1,0.1-1.6,0.1-2.2c18-0.4,24.3-3,26.5-4.1c0.4,1.2,1.1,3,1.2,5.6c0.5-0.3,1.6-0.6,2.2-0.9
				c-0.1-1-0.2-1.6-0.3-2.5c1.4-0.3,4.6-1.5,8.1-2.8c2.6-1.8,5.1-3.7,7.5-5.8c-0.3-3.6-0.7-7.3-1.5-10.7c1.8,1.4,4.7,3.3,8.3,4.7
				c0.4-0.4,0.9-0.9,1.4-1.3c-5.3-1.8-8.8-4.7-10.2-6c-4.8-20.5-16.4-36.3-19.6-40.4c-0.3-2.8-0.8-5.7-1.4-8.4
				c1.7,0.4,5.4,1.7,9.6,4.8c-0.1,0.6-0.1,1.1-0.1,1.6v0.2l0.1,0.2c0.2,0.3,3.7,5.9,8.6,7.6l0.6,0.2v0.3c0.5,0,1.7-0.2,2.7-0.6
				c0.9,2.1,2.6,4,4.8,5.3c1.7,1,3.5,1.6,5.3,1.6l-4.2,7.2l1.4,0.9l4.8-8.1c1.1-0.2,2.1-0.5,2.9-1c1.1,1.6,5.5,6.9,15.4,7.4
				c0.3-0.5,0.6-1,0.9-1.6h-0.1c-10.1-0.3-14.2-5.8-14.9-6.9c0.3-0.3,0.5-0.5,0.7-0.9c0,0,0-0.1,0.1-0.1c1.8,1.5,5,3,8.5,1.2
				c0,0,0,0,0,0.1l0.1,0.2l0.2,0.2c0.1,0.1,3.2,2.5,7.2,3.3c0.3-0.5,0.5-1,0.8-1.5c-3.2-0.4-6-2.3-6.6-2.8c-0.9-2.3-1.2-4.4-1.2-6.3
				c0-6.1,3.6-9.9,3.9-10.1l-1.2-1.1c-0.1,0.1-6.6,6.7-3.5,16.8c-3.5,2.1-6.6-0.5-7.3-1.3c0.5-2.8-0.9-6.2-4-8.5
				c0-2.3,0.5-9.4,5.2-11.9l-0.8-1.5c-4.8,2.7-5.8,9.1-6,12.3c-2.2-1.3-4.7-1.7-6.8-1.5c-1.3-2.5-0.9-6-0.7-7.3l0.2-0.2v-0.3
				c0-0.3-0.5-5.4,5.9-6.8l0.6-0.2l0.1,0.1c0.1,0,6.6-3.8,19.3,0.3c0.4,0.2,6.6,2.3,11.3,8.8c0.2-0.6,0.3-1.3,0.5-2
				C255.7,165.6,249.4,163.4,249.4,163.3z"/>
		</g>
	</g>
</g>
<g id="Calque_2">
	<path fill="#F0F1F2" d="M142.4,6.5C68.5,6.5,8.6,66.4,8.6,140.2S68.5,274,142.4,274s133.7-59.9,133.7-133.7S216.2,6.5,142.4,6.5z
		 M142.4,262.2c-67.3,0-121.9-54.6-121.9-121.9S75,18.3,142.4,18.3s121.9,54.6,121.9,121.9S209.7,262.2,142.4,262.2z"/>
</g>
</svg>
