<?xml version="1.0" encoding="utf-8"?>
<!-- Generator: Adobe Illustrator 17.1.0, SVG Export Plug-In . SVG Version: 6.00 Build 0)  -->
<!DOCTYPE svg PUBLIC "-//W3C//DTD SVG 1.0//EN" "http://www.w3.org/TR/2001/REC-SVG-20010904/DTD/svg10.dtd" [
	<!ENTITY ns_extend "http://ns.adobe.com/Extensibility/1.0/">
	<!ENTITY ns_ai "http://ns.adobe.com/AdobeIllustrator/10.0/">
	<!ENTITY ns_graphs "http://ns.adobe.com/Graphs/1.0/">
	<!ENTITY ns_vars "http://ns.adobe.com/Variables/1.0/">
	<!ENTITY ns_imrep "http://ns.adobe.com/ImageReplacement/1.0/">
	<!ENTITY ns_sfw "http://ns.adobe.com/SaveForWeb/1.0/">
	<!ENTITY ns_custom "http://ns.adobe.com/GenericCustomNamespace/1.0/">
	<!ENTITY ns_adobe_xpath "http://ns.adobe.com/XPath/1.0/">
]>
<svg version="1.0" xmlns:x="&ns_extend;" xmlns:i="&ns_ai;" xmlns:graph="&ns_graphs;"
	 xmlns="http://www.w3.org/2000/svg" xmlns:xlink="http://www.w3.org/1999/xlink" x="0px" y="0px" viewBox="0 0 411.7 420"
	 enable-background="new 0 0 411.7 420" xml:space="preserve">
<metadata>
	<sfw  xmlns="&ns_sfw;">
		<slices></slices>
		<sliceSourceBounds  width="393" height="393" x="99" y="277.8" bottomLeftOrigin="true"></sliceSourceBounds>
	</sfw>
</metadata>
<g id="Calque_2">
	<circle fill="#F0F1F2" cx="201.6" cy="205" r="196.5"/>
</g>
<g id="Calque_3">
	<circle fill="#46A8F9" cx="201.6" cy="205" r="178.3"/>
</g>
<g id="Layer_1">
</g>
<g id="Calque_3_-_copie">
	<g>
		<path fill="none" stroke="#000000" stroke-width="3" stroke-linecap="round" stroke-linejoin="round" stroke-miterlimit="10" d="
			M173.7,143.4C173.7,143.5,173.7,143.5,173.7,143.4C173.7,143.5,173.7,143.5,173.7,143.4z"/>
		<path fill="none" stroke="#000000" stroke-width="3" stroke-linecap="round" stroke-linejoin="round" stroke-miterlimit="10" d="
			M175.2,140.4C175.2,140.5,175.2,140.5,175.2,140.4C175.2,140.5,175.2,140.5,175.2,140.4z"/>
		<path fill="none" stroke="#000000" stroke-width="3" stroke-linecap="round" stroke-linejoin="round" stroke-miterlimit="10" d="
			M175.7,139.6c0,0-0.1,0.1-0.1,0.1C175.6,139.7,175.7,139.6,175.7,139.6z"/>
		<path fill="none" stroke="#000000" stroke-width="3" stroke-linecap="round" stroke-linejoin="round" stroke-miterlimit="10" d="
			M176.2,138.7c0,0.1-0.1,0.1-0.1,0.2C176.1,138.8,176.1,138.8,176.2,138.7z"/>
		<path fill="none" stroke="#000000" stroke-width="3" stroke-linecap="round" stroke-linejoin="round" stroke-miterlimit="10" d="
			M172.9,145.3c0,0.1,0,0.1-0.1,0.2C172.8,145.4,172.8,145.3,172.9,145.3z"/>
		<path fill="none" stroke="#000000" stroke-width="3" stroke-linecap="round" stroke-linejoin="round" stroke-miterlimit="10" d="
			M176.7,137.9c0,0.1-0.1,0.1-0.1,0.2C176.6,138,176.6,137.9,176.7,137.9z"/>
		<path fill="none" stroke="#000000" stroke-width="3" stroke-linecap="round" stroke-linejoin="round" stroke-miterlimit="10" d="
			M172.6,145.8c0,0.1,0,0.1-0.1,0.2C172.6,145.9,172.6,145.9,172.6,145.8z"/>
		<path fill="none" stroke="#000000" stroke-width="3" stroke-linecap="round" stroke-linejoin="round" stroke-miterlimit="10" d="
			M173.4,144.1c0,0,0,0.1-0.1,0.1C173.4,144.2,173.4,144.1,173.4,144.1z"/>
		<path fill="none" stroke="#000000" stroke-width="3" stroke-linecap="round" stroke-linejoin="round" stroke-miterlimit="10" d="
			M172.4,146.3c0,0.1,0,0.1-0.1,0.2C172.4,146.4,172.4,146.4,172.4,146.3z"/>
		<path fill="none" stroke="#000000" stroke-width="3" stroke-linecap="round" stroke-linejoin="round" stroke-miterlimit="10" d="
			M173.1,144.7c0,0,0,0.1-0.1,0.1C173.1,144.8,173.1,144.8,173.1,144.7z"/>
		<path fill="none" stroke="#000000" stroke-width="3" stroke-linecap="round" stroke-linejoin="round" stroke-miterlimit="10" d="
			M180.1,132.5c-0.1,0.1-0.1,0.1-0.2,0.2C180,132.6,180.1,132.6,180.1,132.5z"/>
		<path fill="none" stroke="#000000" stroke-width="3" stroke-linecap="round" stroke-linejoin="round" stroke-miterlimit="10" d="
			M179.5,133.4c-0.1,0.1-0.1,0.2-0.2,0.2C179.4,133.6,179.4,133.5,179.5,133.4z"/>
		<path fill="none" stroke="#000000" stroke-width="3" stroke-linecap="round" stroke-linejoin="round" stroke-miterlimit="10" d="
			M180.8,131.6c0,0.1-0.1,0.1-0.1,0.2C180.7,131.7,180.8,131.6,180.8,131.6z"/>
		<path fill="none" stroke="#000000" stroke-width="3" stroke-linecap="round" stroke-linejoin="round" stroke-miterlimit="10" d="
			M181.5,130.7c0,0-0.1,0.1-0.1,0.1C181.4,130.7,181.5,130.7,181.5,130.7z"/>
		<path fill="none" stroke="#000000" stroke-width="3" stroke-linecap="round" stroke-linejoin="round" stroke-miterlimit="10" d="
			M178.9,134.3c-0.1,0.1-0.1,0.2-0.2,0.2C178.8,134.5,178.8,134.4,178.9,134.3z"/>
		<path fill="none" stroke="#000000" stroke-width="3" stroke-linecap="round" stroke-linejoin="round" stroke-miterlimit="10" d="
			M177.2,137c0,0.1-0.1,0.2-0.1,0.2C177.1,137.1,177.1,137.1,177.2,137z"/>
		<path fill="none" stroke="#000000" stroke-width="3" stroke-linecap="round" stroke-linejoin="round" stroke-miterlimit="10" d="
			M177.7,136.1c-0.1,0.1-0.1,0.2-0.2,0.2C177.6,136.3,177.7,136.2,177.7,136.1z"/>
		<path fill="none" stroke="#000000" stroke-width="3" stroke-linecap="round" stroke-linejoin="round" stroke-miterlimit="10" d="
			M178.3,135.2c-0.1,0.1-0.1,0.2-0.2,0.2C178.2,135.4,178.2,135.3,178.3,135.2z"/>
		<path fill="none" stroke="#000000" stroke-width="3" stroke-linecap="round" stroke-linejoin="round" stroke-miterlimit="10" d="
			M172.2,146.8c0,0,0,0.1-0.1,0.1C172.2,146.9,172.2,146.8,172.2,146.8z"/>
		<path fill="none" stroke="#000000" stroke-width="3" stroke-linecap="round" stroke-linejoin="round" stroke-miterlimit="10" d="
			M171.5,148.6C171.5,148.7,171.5,148.7,171.5,148.6C171.5,148.7,171.5,148.7,171.5,148.6z"/>
		<path fill="none" stroke="#000000" stroke-width="3" stroke-linecap="round" stroke-linejoin="round" stroke-miterlimit="10" d="
			M166,151.4c0,0-0.1,0-0.1,0.1C165.9,151.5,166,151.5,166,151.4z"/>
		<path fill="none" stroke="#000000" stroke-width="3" stroke-linecap="round" stroke-linejoin="round" stroke-miterlimit="10" d="
			M170.3,149.6c-0.1,0-0.2,0.1-0.3,0.1C170.1,149.6,170.2,149.6,170.3,149.6z"/>
		<path fill="none" stroke="#000000" stroke-width="3" stroke-linecap="round" stroke-linejoin="round" stroke-miterlimit="10" d="
			M168.8,150.1c-0.1,0-0.1,0.1-0.2,0.1C168.6,150.2,168.7,150.2,168.8,150.1z"/>
		<path fill="none" stroke="#000000" stroke-width="3" stroke-linecap="round" stroke-linejoin="round" stroke-miterlimit="10" d="
			M164.6,152.2C164.6,152.2,164.6,152.2,164.6,152.2C164.6,152.2,164.6,152.2,164.6,152.2z"/>
		<path fill="none" stroke="#000000" stroke-width="3" stroke-linecap="round" stroke-linejoin="round" stroke-miterlimit="10" d="
			M162.3,153.8C162.3,153.8,162.3,153.8,162.3,153.8C162.3,153.8,162.3,153.8,162.3,153.8z"/>
		<path fill="none" stroke="#000000" stroke-width="3" stroke-linecap="round" stroke-linejoin="round" stroke-miterlimit="10" d="
			M171.9,147.6c0,0,0,0.1,0,0.1C171.9,147.6,171.9,147.6,171.9,147.6z"/>
		<path fill="none" stroke="#000000" stroke-width="3" stroke-linecap="round" stroke-linejoin="round" stroke-miterlimit="10" d="
			M171.8,147.9c0,0,0,0.1,0,0.1C171.8,148,171.8,147.9,171.8,147.9z"/>
		<path fill="none" stroke="#000000" stroke-width="3" stroke-linecap="round" stroke-linejoin="round" stroke-miterlimit="10" d="
			M172.1,147.2c0,0.1,0,0.1-0.1,0.1C172,147.3,172,147.2,172.1,147.2z"/>
		<path fill="none" stroke="#000000" stroke-width="3" stroke-linecap="round" stroke-linejoin="round" stroke-miterlimit="10" d="
			M171.6,148.4C171.6,148.4,171.6,148.4,171.6,148.4C171.6,148.4,171.6,148.4,171.6,148.4z"/>
		<path fill="none" stroke="#000000" stroke-width="3" stroke-linecap="round" stroke-linejoin="round" stroke-miterlimit="10" d="
			M171.7,148.1C171.7,148.2,171.7,148.2,171.7,148.1C171.7,148.2,171.7,148.2,171.7,148.1z"/>
		<path fill="none" stroke="#000000" stroke-width="3" stroke-linecap="round" stroke-linejoin="round" stroke-miterlimit="10" d="
			M171.5,148.6C171.5,148.6,171.5,148.6,171.5,148.6C171.5,148.6,171.5,148.6,171.5,148.6z"/>
		
			<path fill="#F87F11" stroke="#000000" stroke-width="3" stroke-linecap="round" stroke-linejoin="round" stroke-miterlimit="10" d="
			M281.6,223.4c-1.1-20.5-5.6-42.3-9.1-57.1c-1.1,0.2-1.7,0.1-1.7,0.1c-7.9-2-17.7-17.7-17.7-17.7s-5.9-10.8,4.9-16.7l0.2-0.1
			c-7.5-9.7-19.9-20-38.5-20.5c-16.6-0.5-28.2,7.7-35.8,16.5l0,0c-0.8,0.9-1.6,1.9-2.3,2.8c0,0-0.1,0.1-0.1,0.1
			c-0.2,0.3-0.4,0.5-0.6,0.8c0,0.1-0.1,0.1-0.1,0.2c-0.2,0.2-0.4,0.5-0.5,0.7c-0.1,0.1-0.1,0.1-0.2,0.2c-0.2,0.2-0.3,0.5-0.5,0.7
			c-0.1,0.1-0.1,0.2-0.2,0.2c-0.2,0.2-0.3,0.4-0.5,0.7c-0.1,0.1-0.1,0.2-0.2,0.2c-0.1,0.2-0.3,0.4-0.4,0.7c-0.1,0.1-0.1,0.2-0.2,0.2
			c-0.1,0.2-0.3,0.4-0.4,0.6c-0.1,0.1-0.1,0.2-0.2,0.2c-0.1,0.2-0.3,0.4-0.4,0.6c0,0.1-0.1,0.2-0.1,0.2c-0.1,0.2-0.3,0.4-0.4,0.6
			c0,0.1-0.1,0.1-0.1,0.2c-0.1,0.2-0.3,0.4-0.4,0.6c0,0.1-0.1,0.1-0.1,0.2c-0.1,0.2-0.3,0.5-0.4,0.7c0,0-0.1,0.1-0.1,0.1
			c-0.1,0.2-0.3,0.5-0.4,0.7c0,0,0,0,0,0.1c-0.6,1.1-1.1,2-1.5,3c0,0,0,0,0,0c-0.1,0.2-0.2,0.4-0.3,0.6c0,0,0,0.1-0.1,0.1
			c-0.1,0.2-0.2,0.3-0.2,0.5c0,0,0,0.1-0.1,0.1c-0.1,0.1-0.1,0.3-0.2,0.4c0,0.1,0,0.1-0.1,0.2c-0.1,0.1-0.1,0.3-0.2,0.4
			c0,0.1,0,0.1-0.1,0.2c0,0.1-0.1,0.2-0.1,0.3c0,0.1,0,0.1-0.1,0.2c0,0.1-0.1,0.2-0.1,0.3c0,0,0,0.1-0.1,0.1c0,0.1-0.1,0.2-0.1,0.3
			c0,0.1,0,0.1-0.1,0.1c0,0.1-0.1,0.2-0.1,0.2c0,0,0,0.1,0,0.1c0,0.1-0.1,0.1-0.1,0.2c0,0,0,0.1,0,0.1c0,0.1,0,0.1-0.1,0.2
			c0,0,0,0.1,0,0.1c0,0.1,0,0.1-0.1,0.2c0,0,0,0,0,0c0,0.1,0,0.1-0.1,0.1c0,0,0,0,0,0c0,0,0,0.1,0,0.1c0,0,0,0,0,0c0,0,0,0,0,0
			l16.1-0.3c-0.4,0.1-16.8,1-17.3,1.2c-0.1,0-0.2,0.1-0.3,0.1c-0.4,0.2-0.8,0.3-1.3,0.5c-0.1,0-0.1,0.1-0.2,0.1
			c-0.9,0.4-1.7,0.8-2.6,1.2c0,0-0.1,0-0.1,0.1c-0.4,0.2-0.8,0.5-1.2,0.7c0,0,0,0,0,0c-0.8,0.5-1.6,1-2.3,1.6c0,0,0,0,0,0
			c-0.4,0.3-0.7,0.6-1,0.9c0,0,0,0,0,0c-3.7,3.6-4.8,8.6-0.6,15.6c0,0,0,0.5,0.1,1.4c3.5-1.8,7.5-2.8,11.7-2.8c14.4,0,26,11.6,26,26
			c0,14.4-11.6,26-26,26c-5.5,0-10.6-1.7-14.8-4.6c-0.8,2.6-1.7,4.7-2.9,6.2c0,0-12.2,26.3-29.4,40.3c2.2,1.7,3.7,3.9,4.3,6.5
			c1.4,6-2.6,12.4-9.6,16.7c8.7,5.7,30.4,15.5,68.2,5.3c0,0,34.4-20.7,45.6-25.8c0.4,0.8-31.6,17.2-31.3,18
			c9.2,21.9,16.1,22.6,16.1,22.6s-14.7,15.7-17.7,71.7c-0.1,1.9-0.1,3.8-0.1,5.6c0.6,0,1.1,0,1.7,0c50.5,0,96-21,128.5-54.7
			c-30.1-44.6-36.7-68.9-36.7-68.9C288.5,251.9,281.6,223.4,281.6,223.4z M232.4,225.8c-17.1,0-31-13.9-31-31c0-17.1,13.9-31,31-31
			c17.1,0,31,13.9,31,31C263.4,212,249.5,225.8,232.4,225.8z"/>
		
			<path fill="#FFFFFF" stroke="#000000" stroke-width="3" stroke-linecap="round" stroke-linejoin="round" stroke-miterlimit="10" d="
			M232.4,163.9c-17.1,0-31,13.9-31,31c0,17.1,13.9,31,31,31c17.1,0,31-13.9,31-31C263.4,177.8,249.5,163.9,232.4,163.9z
			 M241.3,204.7c-3.3,0-5.9-2.6-5.9-5.9c0-3.3,2.6-5.9,5.9-5.9c3.3,0,5.9,2.6,5.9,5.9C247.2,202.1,244.5,204.7,241.3,204.7z"/>
		
			<path fill="#FFFFFF" stroke="#000000" stroke-width="3" stroke-linecap="round" stroke-linejoin="round" stroke-miterlimit="10" d="
			M198.5,194.9c0-14.4-11.6-26-26-26c-4.2,0-8.2,1-11.7,2.8c-8.5,4.3-14.3,13.1-14.3,23.2c0,8.8,4.4,16.7,11.2,21.4
			c4.2,2.9,9.3,4.6,14.8,4.6C186.8,220.9,198.5,209.3,198.5,194.9z M169.5,197.8c0-2.7,2.2-4.9,4.9-4.9c2.7,0,4.9,2.2,4.9,4.9
			c0,2.7-2.2,4.9-4.9,4.9C171.7,202.8,169.5,200.6,169.5,197.8z"/>
		
			<circle stroke="#000000" stroke-width="3" stroke-linecap="round" stroke-linejoin="round" stroke-miterlimit="10" cx="241.3" cy="198.8" r="5.9"/>
		
			<circle stroke="#000000" stroke-width="3" stroke-linecap="round" stroke-linejoin="round" stroke-miterlimit="10" cx="174.4" cy="197.8" r="4.9"/>
		
			<path fill="#FF7F00" stroke="#000000" stroke-width="3" stroke-linecap="round" stroke-linejoin="round" stroke-miterlimit="10" d="
			M253.1,148.7c0,0,9.8,15.7,17.7,17.7c0,0,0.6,0.1,1.7-0.1c2.1-0.3,6-1.7,10.3-6.9c6.3,11.7,13.6,16.2,19.4,12.8
			c6.9-3.9,1-35.4,1-35.4c-4.9-24.6-24.6-17.7-24.6-17.7l-20.4,12.7L258,132C247.2,137.9,253.1,148.7,253.1,148.7z"/>
		<path stroke="#000000" stroke-width="3" stroke-linecap="round" stroke-linejoin="round" stroke-miterlimit="10" d="M129.6,269.2
			c-0.6-2.6-2.1-4.8-4.3-6.5c-5-4-13.4-5.6-22.3-3.5c-12.7,2.9-21.4,12.2-19.4,20.6c2,8.5,13.8,12.9,26.5,10c3.7-0.8,7-2.2,9.8-3.9
			C127,281.6,131,275.2,129.6,269.2z"/>
		
			<path fill="#FF7F00" stroke="#000000" stroke-width="3" stroke-linecap="round" stroke-linejoin="round" stroke-miterlimit="10" d="
			M162.3,153.8C162.3,153.8,162.3,153.8,162.3,153.8c0.7-0.6,1.5-1.1,2.3-1.6c0,0,0,0,0,0c0.4-0.2,0.8-0.5,1.2-0.7
			c0,0,0.1,0,0.1-0.1c0.8-0.4,1.7-0.8,2.6-1.2c0.1,0,0.1-0.1,0.2-0.1c0.4-0.2,0.8-0.3,1.3-0.5c0.1,0,0.2-0.1,0.3-0.1
			c0.4-0.2,0.9-0.3,1.3-0.5l-0.1-0.4c0,0,0,0,0,0c0,0,0,0,0,0c0,0,0,0,0-0.1c0,0,0,0,0,0c0,0,0-0.1,0.1-0.1c0,0,0,0,0,0
			c0,0,0-0.1,0.1-0.2c0,0,0-0.1,0-0.1c0-0.1,0-0.1,0.1-0.2c0,0,0-0.1,0-0.1c0-0.1,0.1-0.1,0.1-0.2c0,0,0-0.1,0-0.1
			c0-0.1,0.1-0.1,0.1-0.2c0,0,0-0.1,0.1-0.1c0-0.1,0.1-0.2,0.1-0.3c0,0,0-0.1,0.1-0.1c0-0.1,0.1-0.2,0.1-0.3c0-0.1,0-0.1,0.1-0.2
			c0-0.1,0.1-0.2,0.1-0.3c0-0.1,0-0.1,0.1-0.2c0.1-0.1,0.1-0.3,0.2-0.4c0-0.1,0-0.1,0.1-0.2c0.1-0.1,0.1-0.3,0.2-0.4
			c0,0,0-0.1,0.1-0.1c0.1-0.2,0.1-0.3,0.2-0.5c0,0,0-0.1,0.1-0.1c0.1-0.2,0.2-0.4,0.3-0.6c0,0,0,0,0,0c0.4-0.9,0.9-1.9,1.5-3
			c0,0,0,0,0-0.1c0.1-0.2,0.3-0.5,0.4-0.7c0,0,0.1-0.1,0.1-0.1c0.1-0.2,0.2-0.4,0.4-0.7c0-0.1,0.1-0.1,0.1-0.2
			c0.1-0.2,0.2-0.4,0.4-0.6c0-0.1,0.1-0.1,0.1-0.2c0.1-0.2,0.3-0.4,0.4-0.6c0-0.1,0.1-0.2,0.1-0.2c0.1-0.2,0.3-0.4,0.4-0.6
			c0.1-0.1,0.1-0.2,0.2-0.2c0.1-0.2,0.3-0.4,0.4-0.6c0.1-0.1,0.1-0.2,0.2-0.2c0.1-0.2,0.3-0.4,0.4-0.7c0.1-0.1,0.1-0.2,0.2-0.2
			c0.1-0.2,0.3-0.4,0.5-0.7c0.1-0.1,0.1-0.2,0.2-0.2c0.2-0.2,0.3-0.5,0.5-0.7c0.1-0.1,0.1-0.1,0.2-0.2c0.2-0.2,0.4-0.5,0.5-0.7
			c0-0.1,0.1-0.1,0.1-0.2c0.2-0.3,0.4-0.5,0.6-0.8c0,0,0.1-0.1,0.1-0.1c0.7-0.9,1.5-1.9,2.3-2.8l0,0l-2.5-3.7
			c0,0-27.5-26.5-41.3-4.9c0,0-13.8,26.5-24.6,29.5c0,0-14.7,11.8,5.9,12.8c0,0,22.2,0.9,33.4-12.6l-10-10.4c0,0,6.7,6.9,10,10.4
			c0,0,0,0,0,0c2,2.1,4.2,4.1,6.5,5.9c0,0,0,0,0,0C161.6,154.4,162,154.1,162.3,153.8z"/>
		
			<path fill="#FF7F00" stroke="#000000" stroke-width="3" stroke-linecap="round" stroke-linejoin="round" stroke-miterlimit="10" d="
			M154.8,148.9C154.8,148.9,154.8,148.9,154.8,148.9c-3.3-3.5-10-10.4-10-10.4L154.8,148.9z"/>
	</g>
</g>
</svg>
