<?xml version="1.0" encoding="utf-8"?>
<!-- Generator: Adobe Illustrator 17.1.0, SVG Export Plug-In . SVG Version: 6.00 Build 0)  -->
<!DOCTYPE svg PUBLIC "-//W3C//DTD SVG 1.1//EN" "http://www.w3.org/Graphics/SVG/1.1/DTD/svg11.dtd" [
	<!ENTITY ns_extend "http://ns.adobe.com/Extensibility/1.0/">
	<!ENTITY ns_ai "http://ns.adobe.com/AdobeIllustrator/10.0/">
	<!ENTITY ns_graphs "http://ns.adobe.com/Graphs/1.0/">
	<!ENTITY ns_vars "http://ns.adobe.com/Variables/1.0/">
	<!ENTITY ns_imrep "http://ns.adobe.com/ImageReplacement/1.0/">
	<!ENTITY ns_sfw "http://ns.adobe.com/SaveForWeb/1.0/">
	<!ENTITY ns_custom "http://ns.adobe.com/GenericCustomNamespace/1.0/">
	<!ENTITY ns_adobe_xpath "http://ns.adobe.com/XPath/1.0/">
]>
<svg version="1.1" xmlns:x="&ns_extend;" xmlns:i="&ns_ai;" xmlns:graph="&ns_graphs;"
	 xmlns="http://www.w3.org/2000/svg" xmlns:xlink="http://www.w3.org/1999/xlink" x="0px" y="0px" viewBox="0 0 283.5 283.5"
	 enable-background="new 0 0 283.5 283.5" xml:space="preserve">
<metadata>
	<sfw  xmlns="&ns_sfw;">
		<slices></slices>
		<sliceSourceBounds  height="537.3" width="267.5" bottomLeftOrigin="true" x="8.6" y="-260.3"></sliceSourceBounds>
	</sfw>
</metadata>
<g id="Calque_3_1_">
	<circle fill="#E5E681" cx="142.6" cy="142.6" r="127.4"/>
</g>
<g id="Calque_1">
	<g id="Calque_4">
	</g>
	<g id="Calque_3">
		<g>
			<path fill="none" stroke="#000000" stroke-width="2" d="M86.9,111.8c0.2-0.1,0.3-0.2,0.4-0.2C87.1,111.7,87,111.8,86.9,111.8z"/>
			<path fill="none" stroke="#000000" stroke-width="2" d="M87.7,111.4c0.2-0.1,0.3-0.1,0.5-0.2C88.1,111.3,87.9,111.4,87.7,111.4z"
				/>
			<path fill="none" stroke="#000000" stroke-width="2" d="M86.1,112.2c0.2-0.1,0.3-0.2,0.4-0.3C86.3,112,86.2,112.1,86.1,112.2z"/>
			<path fill="none" stroke="#000000" stroke-width="2" d="M85.3,112.7c0.1-0.1,0.3-0.2,0.3-0.3C85.6,112.5,85.5,112.6,85.3,112.7z"
				/>
			<path fill="none" stroke="#000000" stroke-width="2" d="M176.8,125.2c0.1,0.1,0.3,0.3,0.3,0.3C177.1,125.5,177,125.3,176.8,125.2
				z"/>
			<path fill="none" stroke="#000000" stroke-width="2" d="M88.6,111.2c0.2-0.1,0.3-0.1,0.5-0.1C88.9,111.1,88.8,111.1,88.6,111.2z"
				/>
			<path fill="none" stroke="#000000" stroke-width="2" d="M90.5,110.8c0.3,0,0.6-0.1,0.9-0.1C91.1,110.8,90.7,110.8,90.5,110.8z"/>
			<path fill="none" stroke="#000000" stroke-width="2" d="M89.5,111c0.2,0,0.4-0.1,0.6-0.1C89.9,110.9,89.7,110.9,89.5,111z"/>
			<path fill="none" stroke="#000000" stroke-width="2" d="M178,126.4c-0.1-0.1-0.2-0.3-0.3-0.3C177.7,126.3,177.9,126.4,178,126.4z
				"/>
			<path fill="none" stroke="#000000" stroke-width="2" d="M176.3,124.7c-0.1-0.1-0.3-0.3-0.3-0.3
				C176.1,124.5,176.1,124.6,176.3,124.7z"/>
			<path fill="none" stroke="#000000" stroke-width="2" d="M101.5,120.4c0-0.1,0-0.1,0-0.2C101.5,120.3,101.5,120.3,101.5,120.4
				L101.5,120.4z"/>
			<path fill="none" stroke="#000000" stroke-width="2" d="M178.5,127.4c-0.1-0.1-0.2-0.3-0.3-0.3
				C178.4,127.1,178.5,127.3,178.5,127.4z"/>
			<path fill="none" stroke="#000000" stroke-width="2" d="M179,128.4c-0.1-0.1-0.1-0.3-0.2-0.3C178.9,128.2,178.9,128.3,179,128.4z
				"/>
			<path fill="none" stroke="#000000" stroke-width="2" d="M105.3,83.7c0.1,0,0.2,0,0.3,0C105.5,83.7,105.4,83.7,105.3,83.7z"/>
			<path fill="none" stroke="#000000" stroke-width="2" d="M105.2,83.8L105.2,83.8L105.2,83.8z"/>
			<path fill="none" stroke="#000000" stroke-width="2" d="M174,123.2c-0.2-0.1-0.3-0.2-0.4-0.3C173.7,123,173.8,123.1,174,123.2z"
				/>
			<path fill="none" stroke="#000000" stroke-width="2" d="M175.3,123.9c-0.2-0.1-0.3-0.2-0.4-0.3
				C174.9,123.7,175.1,123.9,175.3,123.9z"/>
			<path fill="none" d="M52.9,225c0.3-0.4,0.7-0.9,1-1.2c6.8-7.5,12.8-8.7,15.3-8.8c10.3-11.6,25.7-17.1,33-19.2
				c1.2-1.3,2.5-2.6,3.9-3.9c-4.1-8-9.2-7.6-9.2-7.6c-8.6,0.4-7.4-7-7.4-7c-17.7,0.4-16.4-7-16.4-7c1.6-9.4,16-22,16-22
				s0.4-9.1,5-17.6c-0.4,0.9-0.9,1.7-1.3,2.5c-0.3,0.7-0.7,1.3-0.9,1.8c-9.3-0.5-8.6-5.1-7.3-7.9l0,0c-2-1.7-3.3-4.2-3.3-7
				c0-2.9,1.4-5.5,3.6-7.3c-0.8-11.8,10.7-9.6,10.7-9.6c0.7-2.8,1.6-5.3,2.4-7.5c-5.3-2.2-19.7-9.1-23.9-23.1c0,0,18.7,4.6,35.7-9.7
				c13.7-11.5,53.4-13.1,61.6,21.6c0,0,9.7-14.9,16.1-6.7c0,0-6.7,4.1-7.6,7.3c0,0,10.2-1.7,10.5,3.8c0,0-7-0.9-9.1,2.1
				c0,0,7.3,0.9,7.3,6.1c0,0-7.6-2.1-10.8,0.6l10.8,12.3c0,0,4.4,7.9-0.9,12.5l-8.5,6.6c0-0.1-0.1-0.2-0.1-0.2
				c2.6,7.6-4.6,17.5-4.6,17.5c-4.5,1.6-7.4,6.1-7.4,6.1c-1.6,11.1-11.1,7-11.1,7l1.2,22c5.9,2.5,10.3,6.2,13.6,10.5
				c19.4,8.5,39.5,24.1,39.5,24.1c5,3.2,10.1,8.8,14.8,15.3c24-22.3,39-54,39-89.4c0-67.3-54.6-121.9-121.9-121.9
				S20.5,74.9,20.5,142.2C20.5,174.2,32.8,203.3,52.9,225z"/>
			<path fill="none" stroke="#000000" stroke-width="2" d="M86.1,128.3L86.1,128.3L86.1,128.3z"/>
			<path fill="none" stroke="#000000" stroke-width="2" d="M86.9,128.7C86.9,128.7,86.9,128.7,86.9,128.7
				C86.9,128.7,86.9,128.7,86.9,128.7z"/>
			<path fill="none" stroke="#000000" stroke-width="2" d="M85.3,127.7L85.3,127.7L85.3,127.7z"/>
			<path fill="none" stroke="#000000" stroke-width="2" d="M101.5,121.2L101.5,121.2C101.5,121.1,101.5,121.1,101.5,121.2z"/>
			<path fill="none" stroke="#000000" stroke-width="2" d="M99,123.7c0.2-0.3,0.4-0.5,0.6-0.7C99.4,123.3,99.2,123.4,99,123.7z"/>
			<path fill="none" stroke="#000000" stroke-width="2" d="M87.9,129c-0.1,0-0.2-0.1-0.2-0.1C87.7,129,87.8,129,87.9,129z"/>
			<path fill="none" stroke="#000000" stroke-width="2" d="M97.9,124.9c-0.3,0.3-0.5,0.7-0.8,1C97.5,125.6,97.7,125.2,97.9,124.9z"
				/>
			<path fill="none" stroke="#000000" stroke-width="2" d="M91.4,129.6c-0.3,0-0.7,0-1-0.1C90.7,129.6,91.1,129.6,91.4,129.6z"/>
			<path fill="none" stroke="#000000" stroke-width="2" d="M96.4,127c-0.3,0.3-0.5,0.8-0.8,1.2C95.9,127.7,96.2,127.3,96.4,127z"/>
			<path fill="none" stroke="#000000" stroke-width="2" d="M88.8,129.4c-0.1,0-0.3-0.1-0.3-0.1C88.7,129.3,88.8,129.4,88.8,129.4z"
				/>
			<path fill="none" stroke="#000000" stroke-width="2" d="M90,129.6c-0.2,0-0.3,0-0.5-0.1C89.6,129.6,89.8,129.6,90,129.6z"/>
			<path fill="#009BB9" stroke="#000000" stroke-width="2" d="M210.5,216.3c0,0-20.1-15.5-39.5-24.1c12.2,15.6,9.9,38.9,9.9,38.9
				l-17.6,9.8l5.2,9.7c0,0,2.9,6.3,0.3,10.6c8.3-1.8,16.3-4.5,23.8-7.9C190.8,214.5,210.5,216.3,210.5,216.3z"/>
			<path fill="#009BB9" stroke="#000000" stroke-width="2" d="M82.1,232.1c0,0,5.8-20.6,20.2-36.3c-7.3,2.1-22.8,7.6-33,19.2
				c0.9,0,1.4,0.1,1.4,0.1c-3.4,6-5.2,14-6.1,21.1c4.7,4,9.8,7.6,15.3,10.8l10.4-4.1L82.1,232.1z"/>
			<path fill="#009BB9" stroke="#000000" stroke-width="2" d="M112.1,205.7L112.1,205.7L112.1,205.7c0.2,0.2,0.3,0.3,0.3,0.3
				S112.2,205.9,112.1,205.7C112.2,205.7,112.1,205.7,112.1,205.7z"/>
			<path fill="#009BB9" stroke="#000000" stroke-width="2" d="M90.2,242.7l2.4-0.9c1.6-0.3,2.9-0.1,4.2,0.3c1.1,0.3,2.1,0.9,3,1.6
				l1.4-1c-0.6-11.6,0.6-20.8,2.2-27.5c0.1,0.1,0.1,0.3,0.2,0.3c-0.6-1.2-1-2.5-1.2-3.6c-0.4-1,4-16.1,4-16.1c0.3-0.3,0.7-0.5,1-0.7
				c-0.4-1.2-0.9-2.3-1.4-3.3c-1.4,1.2-2.7,2.5-3.9,3.9C87.8,211.6,82,232.2,82,232.2L90.2,242.7z"/>
			<path fill="#009BB9" stroke="#000000" stroke-width="2" d="M109.1,200.4c0,0.3,0.1,0.5,0.2,0.9
				C109.2,201,109.1,200.8,109.1,200.4z"/>
			<path fill="#009BB9" stroke="#000000" stroke-width="2" d="M109,222.7c-0.4-0.4-0.9-0.9-1.2-1.2
				C108.2,221.9,108.6,222.3,109,222.7z"/>
			<path fill="#009BB9" stroke="#000000" stroke-width="2" d="M104.6,217.1c-0.3-0.3-0.4-0.8-0.6-1.1
				C104.1,216.4,104.3,216.8,104.6,217.1z"/>
			<path fill="#009BB9" stroke="#000000" stroke-width="2" d="M106.5,219.9c-0.3-0.4-0.6-0.8-0.9-1.2
				C105.9,219.1,106.1,219.4,106.5,219.9z"/>
			<path fill="#009BB9" stroke="#000000" stroke-width="2" d="M105.3,218.3c-0.3-0.3-0.4-0.6-0.6-0.9
				C104.9,217.7,105.1,218,105.3,218.3z"/>
			<path fill="#009BB9" stroke="#000000" stroke-width="2" d="M111.9,205.5c-0.5-0.6-1.6-1.6-2.2-3c0,0,0,0,0-0.1
				C110.4,203.8,111.4,204.9,111.9,205.5L111.9,205.5z"/>
			<path fill="#009BB9" stroke="#000000" stroke-width="2" d="M107.5,221.1c-0.3-0.3-0.7-0.8-0.9-1.1
				C106.9,220.4,107.2,220.7,107.5,221.1z"/>
			<path fill="#009BB9" stroke="#000000" stroke-width="2" d="M168.4,250.6l-5.2-9.7l17.6-9.8c0,0,2.2-23.2-9.9-38.9
				c-3.4-4.3-7.8-8-13.6-10.5l0.3,5.2c4.3,1.5,4.7,3.2,4.7,3.2l5,15.6c-0.4,0.8-0.9,1.6-1.3,2.3c-1.8,10.3-8,23.1-15.5,35.6
				c1.8,1.9,3.9,4.9,1.8,7.5c0,0,3.9,3,2.5,6.9c-1.4,3.9-4.1,4.7-4.1,4.7s0.3,0.4,0.4,1c6-0.4,11.8-1.3,17.5-2.5
				C171.3,256.9,168.4,250.6,168.4,250.6z"/>
			<polygon fill="#009BB9" stroke="#000000" stroke-width="2" points="111.9,205.5 111.9,205.5 111.9,205.5 			"/>
			<path fill="#D5C7E3" stroke="#000000" stroke-width="2" d="M133.3,207.5c0.1,0.1,0.1,0.3,0.2,0.3
				C133.4,207.8,133.4,207.7,133.3,207.5z"/>
			<path fill="#D5C7E3" stroke="#000000" stroke-width="2" d="M133.1,206.9c0,0.1,0,0.1,0.1,0.2C133.1,207,133.1,207,133.1,206.9z"
				/>
			<path fill="#D5C7E3" stroke="#000000" stroke-width="2" d="M112.4,206c0,0-0.1-0.1-0.3-0.3C112.2,205.9,112.4,206,112.4,206z"/>
			<path fill="#D5C7E3" stroke="#000000" stroke-width="2" d="M133.2,207.2c0,0.1,0.1,0.2,0.1,0.3
				C133.2,207.3,133.2,207.3,133.2,207.2z"/>
			<path fill="#D5C7E3" stroke="#000000" stroke-width="2" d="M136.1,224.9c1.8-4.9-0.9-12.8-2.4-16.5c0.5,1.3,1.2,3.1,1.8,5.1
				l-8.9,11.7l1.4,13.3c4.1-0.5,16-1.6,20.5,3.3c0,0,1,0.7,2.1,1.9c7.3-12.4,13.6-25.3,15.5-35.6
				C155.8,224.6,136.1,224.9,136.1,224.9z"/>
			<path fill="#D5C7E3" stroke="#000000" stroke-width="2" d="M129.7,206.2c-5.8-0.2-17.7-0.7-17.8-0.7l0,0
				C114.5,206.2,124.3,206.2,129.7,206.2z"/>
			<path fill="#D5C7E3" stroke="#000000" stroke-width="2" d="M112.1,205.7L112.1,205.7C112,205.6,112.1,205.6,112.1,205.7z"/>
			<path fill="#D5C7E3" stroke="#000000" stroke-width="2" d="M133,206.7L133,206.7L133,206.7z"/>
			<path fill="#D5C7E3" stroke="#000000" stroke-width="2" d="M109.7,202.5c0.7,1.4,1.6,2.5,2.2,3
				C110.8,204.1,110.2,203.1,109.7,202.5z"/>
			<path fill="#D5C7E3" stroke="#000000" stroke-width="2" d="M111.1,212l-2.2,10.6c-0.4-0.4-0.9-0.9-1.2-1.2
				c-0.1-0.1-0.2-0.3-0.3-0.3c-0.3-0.3-0.7-0.8-0.9-1.1l-0.1-0.1c-0.3-0.4-0.6-0.8-0.9-1.2c-0.1-0.1-0.2-0.3-0.3-0.3
				c-0.3-0.3-0.4-0.6-0.6-0.9c-0.1-0.1-0.1-0.2-0.2-0.3c-0.3-0.3-0.4-0.8-0.6-1.1c-0.1-0.1-0.1-0.3-0.2-0.3
				c-0.1-0.1-0.1-0.3-0.2-0.3c-1.6,6.7-2.8,15.9-2.2,27.5l10.8-7.7c2.1-6.6,3.8-10.2,3.8-10.2C114.6,223,112.5,216.5,111.1,212z"/>
			<path fill="#D5C7E3" stroke="#000000" stroke-width="2" d="M133.5,208c0.1,0.2,0.1,0.3,0.2,0.4C133.7,208.2,133.6,208,133.5,208z
				"/>
			<path fill="#D5C7E3" stroke="#000000" stroke-width="2" d="M157.8,191.7c-7.9,6.4-12.8,9.8-17,11.7
				C150.8,199,157.8,191.7,157.8,191.7z"/>
			<path fill="#D5C7E3" stroke="#000000" stroke-width="2" d="M104.6,217.1c0.1,0.1,0.1,0.2,0.2,0.3c0.2,0.3,0.4,0.6,0.6,0.9
				c0.1,0.1,0.2,0.3,0.3,0.3c0.3,0.4,0.6,0.8,0.9,1.2l0.1,0.1c0.3,0.3,0.6,0.8,0.9,1.1c0.1,0.1,0.2,0.3,0.3,0.3
				c0.3,0.4,0.8,0.9,1.2,1.2l2.2-10.6l0,0l1.2-6.1c0,0-0.2-0.2-0.4-0.4l0,0l0,0c-0.6-0.6-1.6-1.7-2.2-3.1c-0.6-0.9-0.4-1.1-0.4-1.1
				l0,0c-0.1-0.3-0.2-0.5-0.2-0.9c-0.4-2-0.9-3.8-1.6-5.3c-0.3,0.3-0.7,0.4-1,0.7c0,0-4.5,15-4,16.1c0.3,1.2,0.7,2.4,1.2,3.6
				c0.1,0.1,0.1,0.3,0.2,0.3C104.1,216.4,104.3,216.8,104.6,217.1z"/>
			<path fill="#D5C7E3" stroke="#000000" stroke-width="2" d="M111.9,205.5L111.9,205.5L111.9,205.5z"/>
			<path fill="#D5C7E3" stroke="#000000" stroke-width="2" d="M157.8,191.7c0,0-7.1,7.3-17,11.7c-2.8,1.3-5.3,2.1-8.1,2.8
				c0,0,0.1,0.2,0.3,0.5l0,0c0,0.1,0.1,0.1,0.1,0.2c0,0.1,0,0.1,0.1,0.2c0,0.1,0,0.1,0.1,0.2c0,0.1,0.1,0.2,0.1,0.3v0.1
				c0.1,0.1,0.1,0.3,0.2,0.3l0,0c0.1,0.2,0.1,0.3,0.2,0.4l0,0c1.6,3.8,4.2,11.6,2.4,16.5c0,0,19.7-0.3,30-16.9
				c0.4-0.8,0.9-1.5,1.3-2.3l-5-15.6c0,0-0.3-1.7-4.7-3.2L157.8,191.7z"/>
			<path fill="#EF7F91" stroke="#000000" stroke-width="2" d="M112,205.5C112.1,205.6,112.1,205.6,112,205.5L112,205.5
				c0.3,0.3,0.3,0.3,0.3,0.3l-1.2,6.1l0,0c1.3,4.5,3.5,10.9,4.8,12.9l10.6,0.3l8.9-11.7c-0.6-2-1.2-3.8-1.8-5.1l0,0
				c-0.1-0.2-0.1-0.3-0.2-0.4l0,0c-0.1-0.1-0.1-0.3-0.2-0.3v-0.1c0-0.1-0.1-0.2-0.1-0.3s0-0.1-0.1-0.2c0-0.1,0-0.1-0.1-0.2
				c0-0.1-0.1-0.1-0.1-0.2l0,0c-0.2-0.3-0.3-0.5-0.3-0.5c-0.3,0.1-1.4,0.1-3,0C124.3,206.2,114.5,206.2,112,205.5
				C111.9,205.5,111.9,205.5,112,205.5C111.9,205.5,111.9,205.5,112,205.5L112,205.5L112,205.5z"/>
			<path fill="#EF7F91" stroke="#000000" stroke-width="2" d="M116,224.9c0,0-1.7,3.5-3.8,10.2l1.2-0.9c0,0,7.8-6.9,13.3,4.4
				c0,0,0.5-0.1,1.4-0.2l-1.4-13.3L116,224.9z"/>
			<path fill="#FFCE00" stroke="#000000" stroke-width="2" d="M107.6,195.2c0.5,1.6,1,3.3,1.6,5.3c0.1,0.3,0.1,0.5,0.2,0.9l0,0
				c0,0-0.2,0.1,0.4,1.1c0,0,0,0,0,0.1c0.3,0.6,1,1.6,2.2,3l0,0l0,0l0,0l0,0c0,0,11.9,0.6,17.8,0.7c1.6,0,2.8,0,3,0
				c2.8-0.7,5.4-1.4,8.1-2.8c4.2-2,9.2-5.4,17-11.7l-0.3-4.8l-0.3-5.2l-1.2-22c0,0,9.4,4.1,11.1-7c0,0,2.8-4.5,7.4-6.1
				c0,0,7.2-9.8,4.6-17.5c-0.1-0.2-0.2-0.4-0.3-0.6c-0.1-0.1-0.1-0.3-0.2-0.3c-0.1-0.2-0.2-0.4-0.3-0.6c-0.1-0.1-0.2-0.3-0.3-0.3
				c-0.1-0.2-0.3-0.3-0.3-0.5c-0.1-0.1-0.2-0.3-0.3-0.3c-0.2-0.2-0.3-0.3-0.4-0.5c-0.1-0.1-0.2-0.3-0.3-0.3
				c-0.2-0.2-0.3-0.3-0.5-0.5c-0.1-0.1-0.3-0.3-0.3-0.3c-0.2-0.2-0.4-0.3-0.7-0.5c-0.2-0.1-0.3-0.2-0.4-0.3
				c-0.3-0.2-0.5-0.3-0.9-0.5c-0.2-0.1-0.3-0.2-0.4-0.3c-0.4-0.3-0.9-0.4-1.5-0.6c0,0-13.1,0-16.4,14.4l-10.3-0.4
				c0,0-2.8-13.6,11.1-19.7c0,0,1.2-3.3-2.5-4.9c0,0,5.4-4.9,0.9-7.4c0,0-7,2.8-7.8-4.5c-0.9-7.4,19.3-4.9,19.3-4.9
				s4.5-7.8-15.6-9.1c-20.1-1.2-14.4,12-45.2-2c-0.1,0-0.2,0-0.3,0c0,0-0.1,0-0.1,0.1c0,0,0,0-0.1,0c-1,0.7-3.1,4.7-6.7,12.2
				c-0.1-0.1-0.3-0.1-0.3-0.2c-0.9,2.2-1.6,4.7-2.4,7.5c0,0-11.5-2.2-10.7,9.6c0.1-0.1,0.3-0.2,0.3-0.3s0.3-0.2,0.3-0.3
				s0.3-0.2,0.4-0.3c0.2-0.1,0.3-0.2,0.4-0.3c0.2-0.1,0.3-0.2,0.4-0.2c0.2-0.1,0.3-0.2,0.4-0.2c0.2-0.1,0.3-0.1,0.4-0.2
				c0.2-0.1,0.3-0.1,0.5-0.2c0.2,0,0.3-0.1,0.4-0.1c0.2-0.1,0.3-0.1,0.5-0.1c0.1,0,0.3-0.1,0.3-0.1c0.2,0,0.4-0.1,0.6-0.1
				c0.1,0,0.3,0,0.3,0c0.3,0,0.6-0.1,0.9-0.1c5.6,0,10.1,4.2,10.1,9.4c0,0.1,0,0.1,0,0.2l0,0c0,0.3,0,0.5,0,0.8l0,0
				c-0.7,0.6-1.3,1.2-1.9,1.8c-0.3,0.3-0.4,0.5-0.6,0.7c-0.3,0.4-0.7,0.8-1,1.2c-0.3,0.3-0.5,0.7-0.8,1c-0.3,0.3-0.5,0.7-0.8,1
				c-0.3,0.3-0.5,0.8-0.8,1.2c-0.2,0.3-0.4,0.6-0.6,0.9c-0.3,0.5-0.6,1.1-0.9,1.6c-4.6,8.5-5,17.6-5,17.6s-14.3,12.6-16,22
				c0,0-1.2,7.4,16.4,7c0,0-1.2,7.4,7.4,7c0,0,5.2-0.4,9.2,7.6C106.7,192.8,107.2,194,107.6,195.2z M126.1,109.5
				c7.5,0,13.6,4.6,13.6,10.3c0,5.7-6,10.3-13.6,10.3s-13.6-4.6-13.6-10.3C112.5,114.2,118.6,109.5,126.1,109.5z"/>
			<path fill="#FFCE00" stroke="#000000" stroke-width="2" d="M95.1,129c-0.1,0-0.1,0.1-0.2,0.1c-1.2,0.4-1.3,0.6-3.5,0.6
				c-0.3,0-0.7,0-1-0.1c-0.2,0-0.3,0-0.4-0.1c-0.2,0-0.3,0-0.5-0.1c-0.2,0-0.3-0.1-0.6-0.2c-0.1,0-0.3-0.1-0.3-0.1
				c-0.3-0.1-0.4-0.2-0.7-0.2c-0.1,0-0.2-0.1-0.2-0.1c-0.3-0.1-0.5-0.2-0.7-0.3c0,0-0.1,0-0.1-0.1c-0.3-0.1-0.5-0.3-0.8-0.4
				c0,0,0,0-0.1,0c-0.3-0.2-0.5-0.3-0.7-0.5l0,0c-0.3-0.2-0.4-0.3-0.7-0.5l0,0c-1.3,2.8-2.1,7.3,7.3,7.9c0.3-0.5,0.6-1.2,0.9-1.8
				c0.4-0.9,0.9-1.6,1.3-2.5C94.5,130.1,94.7,129.6,95.1,129L95.1,129z"/>
			<path fill="#FFFFFF" stroke="#000000" stroke-width="2" d="M126.1,130.1c7.5,0,13.6-4.6,13.6-10.3c0-5.7-6-10.3-13.6-10.3
				s-13.6,4.6-13.6,10.3C112.5,125.5,118.6,130.1,126.1,130.1z M125.3,113c1.5,0,2.6,1.2,2.6,2.6c0,1.5-1.2,2.6-2.6,2.6
				c-1.4,0-2.6-1.2-2.6-2.6C122.7,114.2,123.9,113,125.3,113z"/>
			<path fill="#FFFFFF" stroke="#000000" stroke-width="2" d="M85.3,127.7c0.3,0.2,0.5,0.3,0.7,0.5c0,0,0,0,0.1,0
				c0.3,0.2,0.5,0.3,0.8,0.4c0,0,0.1,0,0.1,0.1c0.3,0.1,0.4,0.2,0.7,0.3c0.1,0,0.2,0.1,0.2,0.1c0.3,0.1,0.4,0.2,0.7,0.2
				c0.1,0,0.3,0.1,0.3,0.1c0.2,0.1,0.3,0.1,0.6,0.2c0.2,0,0.3,0.1,0.5,0.1c0.2,0,0.3,0.1,0.4,0.1c0.3,0,0.7,0.1,1,0.1
				c2.2,0,2.2-0.2,3.5-0.6c0.1,0,0.1-0.1,0.2-0.1l0,0c0.2-0.3,0.4-0.6,0.6-0.9c0.3-0.4,0.5-0.8,0.8-1.2c0.3-0.3,0.5-0.7,0.8-1
				c0.3-0.3,0.5-0.7,0.8-1c0.3-0.4,0.7-0.8,1-1.2c0.2-0.3,0.4-0.5,0.6-0.7c0.6-0.6,1.2-1.2,1.9-1.8l0,0c0-0.3,0-0.5,0-0.8
				c0-0.1,0-0.1,0-0.2c0-5.2-4.5-9.4-10.1-9.4c-0.3,0-0.7,0-0.9,0.1c-0.1,0-0.3,0-0.3,0c-0.2,0-0.4,0.1-0.6,0.1
				c-0.1,0-0.3,0.1-0.3,0.1c-0.2,0-0.3,0.1-0.5,0.1c-0.2,0-0.3,0.1-0.4,0.1c-0.2,0.1-0.3,0.1-0.5,0.2s-0.3,0.1-0.4,0.2
				c-0.2,0.1-0.3,0.1-0.4,0.2c-0.2,0.1-0.3,0.1-0.4,0.2c-0.2,0.1-0.3,0.2-0.4,0.3c-0.2,0.1-0.3,0.2-0.4,0.3
				c-0.1,0.1-0.3,0.2-0.3,0.3c-0.1,0.1-0.3,0.2-0.3,0.3c-2.2,1.7-3.6,4.3-3.6,7.3c0,2.8,1.3,5.3,3.3,7
				C84.8,127.4,85,127.6,85.3,127.7L85.3,127.7z M92,116.8c0,1.5-1.2,2.6-2.6,2.6c-1.5,0-2.6-1.2-2.6-2.6c0-1.5,1.2-2.6,2.6-2.6
				S92,115.3,92,116.8z"/>
			<circle fill="#12100B" stroke="#000000" stroke-width="2" cx="125.3" cy="115.6" r="2.6"/>
			<circle fill="#12100B" stroke="#000000" stroke-width="2" cx="89.4" cy="116.8" r="2.6"/>
			<path fill="#8F6D1F" stroke="#000000" stroke-width="2" d="M105.2,83.8L105.2,83.8c0.1-0.1,0.2-0.1,0.2-0.1c0.1,0,0.2,0,0.3,0
				c30.8,14,25,0.8,45.2,2c20.1,1.2,15.6,9.1,15.6,9.1s-20.1-2.5-19.3,4.9c0.9,7.4,7.8,4.5,7.8,4.5c4.5,2.5-0.9,7.4-0.9,7.4
				c3.7,1.6,2.5,4.9,2.5,4.9c-14,6.1-11.1,19.7-11.1,19.7l10.3,0.4c3.3-14.4,16.4-14.4,16.4-14.4c0.5,0.2,0.9,0.4,1.5,0.6
				c0.2,0.1,0.3,0.2,0.4,0.3c0.3,0.2,0.6,0.3,0.9,0.5c0.2,0.1,0.3,0.2,0.4,0.3c0.3,0.2,0.4,0.3,0.7,0.5c0.2,0.1,0.3,0.3,0.3,0.3
				c0.2,0.2,0.3,0.3,0.5,0.5c0.1,0.1,0.3,0.3,0.3,0.3c0.2,0.2,0.3,0.3,0.4,0.5c0.1,0.1,0.2,0.3,0.3,0.3c0.2,0.2,0.3,0.3,0.3,0.5
				c0.1,0.1,0.2,0.3,0.3,0.3c0.1,0.2,0.2,0.4,0.3,0.6c0.1,0.1,0.1,0.3,0.2,0.3c0.1,0.2,0.2,0.4,0.3,0.6c0,0.1,0.1,0.2,0.1,0.2
				l8.5-6.6c5.3-4.7,0.9-12.5,0.9-12.5l-10.8-12.1c3.2-2.6,10.8-0.6,10.8-0.6c0-5.3-7.3-6.1-7.3-6.1c2.1-2.9,9.1-2.1,9.1-2.1
				c-0.3-5.5-10.5-3.8-10.5-3.8c0.9-3.2,7.6-7.3,7.6-7.3c-6.4-8.2-16.1,6.7-16.1,6.7c-8.2-34.7-47.9-33.2-61.6-21.6
				c-16.8,14.2-35.5,9.7-35.5,9.7c4.2,14.1,18.6,20.9,23.9,23.1c0.1,0.1,0.3,0.1,0.3,0.2C102.1,88.5,104.1,84.5,105.2,83.8z"/>
			<path fill="#009BB9" stroke="#000000" stroke-width="2" d="M210.5,216.3c0,0-19.7-1.8-17.9,37c12.1-5.4,23.1-12.9,32.6-21.8
				C220.5,225.1,215.5,219.5,210.5,216.3z"/>
			<path fill="#009BB9" stroke="#000000" stroke-width="2" d="M90.1,250.9C90.1,250.8,90.1,250.8,90.1,250.9l9.8-7.1
				c-0.9-0.7-1.9-1.3-3-1.6C94.5,243,91.5,245.3,90.1,250.9z"/>
			<path fill="#009BB9" stroke="#000000" stroke-width="2" d="M90,251.6c0,0.1,0,0.3-0.1,0.3C89.9,251.9,89.9,251.8,90,251.6z"/>
			<path fill="#009BB9" stroke="#000000" stroke-width="2" d="M69.3,214.9c-2.6,0.1-8.5,1.3-15.3,8.8c-0.3,0.3-0.7,0.8-1,1.2
				c3.6,4,7.5,7.6,11.7,11.1c0.9-7.1,2.7-15,6.1-21.1C70.7,215,70.2,214.9,69.3,214.9z"/>
			<path fill="#009BB9" stroke="#000000" stroke-width="2" d="M90,251.6c0.1-0.3,0.1-0.6,0.2-0.9c1.4-5.6,4.3-7.9,6.8-8.7
				c-1.3-0.4-2.8-0.6-4.2-0.3l-2.4,0.9L80,246.7c3.2,1.9,6.6,3.7,10,5.4c0-0.1,0-0.2,0-0.2C89.9,251.9,89.9,251.8,90,251.6z"/>
			<path fill="#FFCE00" stroke="#000000" stroke-width="2" d="M154.9,258c1.4-3.9-2.5-6.9-2.5-6.9c2.1-2.6,0-5.6-1.8-7.5
				c-1.1-1.1-2.1-1.9-2.1-1.9c-4.6-4.8-16.5-3.7-20.5-3.3c-0.9,0.1-1.4,0.2-1.4,0.2c-5.5-11.3-13.3-4.4-13.3-4.4l-1.2,0.9l-10.8,7.7
				l-1.4,1l-9.8,7c0,0,0,0,0,0.1c-0.1,0.3-0.2,0.5-0.2,0.9c0,0.1,0,0.3-0.1,0.3c0,0.1,0,0.2,0,0.2c15.9,7.6,33.8,11.9,52.6,11.9
				c2.9,0,5.9-0.1,8.8-0.3c-0.3-0.6-0.4-1-0.4-1S153.5,261.9,154.9,258z"/>
		</g>
		<path fill="none" stroke="#000000" stroke-width="2" d="M114.2,107.4c4.7-3.4,10.2-5.4,15.9-5.8c1.6-0.1,3.2-0.1,4.6,0.6"/>
		<path fill="none" stroke="#000000" stroke-width="2" d="M92.9,82.2c4-1.3,8.5-0.7,11.9,1.6"/>
		<path fill="none" stroke="#000000" stroke-width="2" d="M94.8,102c1.2,1.3,2.8,2.2,4.4,2.8"/>
		<path fill="none" stroke="#000000" stroke-width="2" d="M112.7,128.4c2,2.3,4.1,4.7,6.5,6.6c2.5,1.9,5.4,3.2,8.5,3.2
			c0,0.3,0,0.5,0,0.8"/>
		<path fill="none" stroke="#000000" stroke-width="2" d="M88.8,148.6c-0.2-0.2-0.2,0.3,0,0.4c7.3,4.1,16.3,4.6,24,1.4
			c0.6-0.3,1.1-0.5,1.6-0.9c0.6-0.7,0.9-1.7,0.7-2.7c-0.2-1.6-1.2-3.1-2.6-4c-1.4-0.8-3.2-0.9-4.7-0.3"/>
		<path fill="none" stroke="#000000" stroke-width="2" d="M122.9,152.4c2.2,0.9,3.2,3.6,3.7,6c0.8,3.3,1.6,6.5,2.4,9.8
			c0.5,2,0.9,4,1.7,5.9c1.4,3.4,3.6,6.3,6.5,8.5"/>
		<path fill="none" stroke="#000000" stroke-width="2" d="M83.5,172.1c6.4-0.6,13-1.2,18.9,1.4c2.4,1,4.6,2.6,7.1,3.4
			c5.1,1.5,10.4-0.7,15.3-2.8c1.5-0.6,2.8-1.2,4.3-1.9"/>
		<path fill="none" stroke="#000000" stroke-width="2" d="M88.8,177.8c0.7,0.1,1.4-0.3,2-0.7c3.1-1.8,7.9-4.1,11.3-3.1
			c1,0.3,0.3-1,0,0"/>
		<path fill="none" stroke="#000000" stroke-width="2" d="M173.3,129.8c-3.1,0.2-6.1,1.2-8.6,3c-1,0.8-2,1.6-2.6,2.8
			c-0.6,1.1-0.8,2.5-0.2,3.6c0.6,1.3,2,2.1,3.3,2.8c0.3,0.2,0.7,0.4,0.9,0.8c0.3,0.6-0.2,1.3-0.6,1.8c-1.8,2.2-4,4.7-6.8,4.7
			c0,0.2,0,0.3,0,0.5"/>
		<path fill="none" stroke="#000000" stroke-width="2" stroke-linecap="round" d="M127.4,250c8.4-0.2,16.8,0.3,25,1.3"/>
		<path fill="none" stroke="#000000" stroke-width="2" stroke-linecap="round" d="M126.3,261.6c0.3,0,0.7-0.1,1-0.1
			c7.8-0.5,15.7,0,23.3,1.6"/>
		<path fill="none" stroke="#000000" stroke-width="2" stroke-linecap="round" d="M107.9,244.9c0.4-0.1,0.8-0.3,1.2-0.3
			c6.1-1.9,12.2-4,18.1-6.2"/>
	</g>
	<g id="Calque_5" display="none">
		<g display="inline" opacity="0.5">
			<path fill="#009BB9" d="M189.4,323.7c0,0,9.1-16.8,10.2-38.9c-3.9-9.2-6.2-17.7-6.2-17.7c-7.1-52.2,16.8-49.9,16.8-49.9
				s-29.2-22.5-51.3-28.3c0,0-36.7,2.2-53.4,6.6c0,0-24.3,4.8-38,21.2l-11.1,52.2l10.2,38.9l6.2,19.9c0,0-2.2,25.6-1.7,36.3
				c0,0-3.5,16.8,16.3,17.7c0,0,23,2.2,29.2-3.5c0,0,22.5,11.9,53.4,0.9s28.8-13.3,28.8-13.3S195.2,334.7,189.4,323.7"/>
			<path fill="none" stroke="#12100B" stroke-width="3" stroke-linecap="round" stroke-linejoin="round" d="M189.4,323.7
				c0,0,9.1-16.8,10.2-38.9c-3.9-9.2-6.2-17.7-6.2-17.7c-7.1-52.2,16.8-49.9,16.8-49.9s-29.2-22.5-51.3-28.3c0,0-36.7,2.2-53.4,6.6
				c0,0-24.3,4.8-38,21.2l-11.1,52.2l10.2,38.9l6.2,19.9c0,0-2.2,25.6-1.7,36.3c0,0-3.5,16.8,16.3,17.7c0,0,23,2.2,29.2-3.5
				c0,0,22.5,11.9,53.4,0.9s28.8-13.3,28.8-13.3S195.2,334.7,189.4,323.7L189.4,323.7L189.4,323.7z"/>
			<path fill="#009BB9" d="M116.6,378c0,0-6.9-7.3-4-56.5"/>
			<path fill="none" stroke="#12100B" stroke-width="3" stroke-linecap="round" stroke-linejoin="round" d="M116.6,378
				c0,0-6.9-7.3-4-56.5"/>
			<path fill="#009BB9" d="M133.2,328.4c0,4.3-3.5,7.9-7.9,7.9c-4.3,0-7.9-3.5-7.9-7.9c0-4.3,3.5-7.9,7.9-7.9
				C129.7,320.5,133.2,324.1,133.2,328.4"/>
			<path fill="none" stroke="#12100B" stroke-width="3" stroke-linecap="round" stroke-linejoin="round" d="M133.2,328.4
				c0,4.3-3.5,7.9-7.9,7.9c-4.3,0-7.9-3.5-7.9-7.9c0-4.3,3.5-7.9,7.9-7.9C129.7,320.5,133.2,324.1,133.2,328.4L133.2,328.4
				L133.2,328.4z"/>
			<path fill="#009BB9" d="M81.2,233.1c0,0,15.7-56,60-54c44.2,2,39.3,53.1,39.3,53.1l-17.7,9.8l5.2,9.7c0,0,3.6,7.8-0.6,12
				c0,0-12.4,12.2-24.3,21.1c-13,9.9-27,26.3-30.6,42l-0.4-15.6c0,0-30.4-37.3-33.8-46.8c0,0-4-6.6,0.2-8.6l14.9-6.6L81.2,233.1"/>
			<path fill="none" stroke="#12100B" stroke-width="3" stroke-linecap="round" stroke-linejoin="round" d="M81.2,233.1
				c0,0,15.7-56,60-54c44.2,2,39.3,53.1,39.3,53.1l-17.7,9.8l5.2,9.7c0,0,3.6,7.8-0.6,12c0,0-12.4,12.2-24.3,21.1
				c-13,9.9-27,26.3-30.6,42l-0.4-15.6c0,0-30.4-37.3-33.8-46.8c0,0-4-6.6,0.2-8.6l14.9-6.6L81.2,233.1L81.2,233.1L81.2,233.1z"/>
			<path fill="#D5C7E3" d="M135.4,225.8c2.5-6.7-3.4-18.8-3.4-18.8c14-3.1,25.2-14.6,25.2-14.6c-0.2-0.8-0.6-1.5-1.3-2.1
				c-9.9-2.8-29.4-5.1-47.6,11.7c0.8,2.6,3.1,4.7,3.1,4.7l-3.4,16.8c-2.7-2.5-4.4-5-5.4-7.4c-2.5,10.3-4.1,26.3,0.5,47.7l8.5,46.7
				c0.7-7.9,2.2-15.5,6.2-20.5c0,0,42.1-51.5,47.5-81.3C155.2,225.6,135.4,225.8,135.4,225.8"/>
			<path fill="none" stroke="#12100B" stroke-width="3" stroke-linecap="round" stroke-linejoin="round" d="M135.4,225.8
				c2.5-6.7-3.4-18.8-3.4-18.8c14-3.1,25.2-14.6,25.2-14.6c-0.2-0.8-0.6-1.5-1.3-2.1c-9.9-2.8-29.4-5.1-47.6,11.7
				c0.8,2.6,3.1,4.7,3.1,4.7l-3.4,16.8c-2.7-2.5-4.4-5-5.4-7.4c-2.5,10.3-4.1,26.3,0.5,47.7l8.5,46.7c0.7-7.9,2.2-15.5,6.2-20.5
				c0,0,42.1-51.5,47.5-81.3C155.2,225.6,135.4,225.8,135.4,225.8L135.4,225.8L135.4,225.8z"/>
			<path fill="#D5C7E3" d="M139.9,185.4c-9.2-0.1-23.6,3.7-34.2,11.2c0,0-4.5,15.1-4.1,16.1c0.7,3.4,2.7,7,6.6,10.8l3.4-16.8
				c0,0-9-7.9,2.5-12.6c11.5-4.7,40.9-10.4,43.2-1.7c0,0-11.2,11.5-25.2,14.6c0,0,5.9,12.1,3.4,18.8c0,0,21.6-0.3,31.4-19.3l-5-15.7
				C161.8,190.7,160.7,185.7,139.9,185.4"/>
			<path fill="none" stroke="#12100B" stroke-width="3" stroke-linecap="round" stroke-linejoin="round" d="M139.9,185.4
				c-9.2-0.1-23.6,3.7-34.2,11.2c0,0-4.5,15.1-4.1,16.1c0.7,3.4,2.7,7,6.6,10.8l3.4-16.8c0,0-9-7.9,2.5-12.6
				c11.5-4.7,40.9-10.4,43.2-1.7c0,0-11.2,11.5-25.2,14.6c0,0,5.9,12.1,3.4,18.8c0,0,21.6-0.3,31.4-19.3l-5-15.7
				C161.8,190.7,160.7,185.7,139.9,185.4L139.9,185.4L139.9,185.4z"/>
			<path fill="#EF7F91" d="M134.8,214.3c-1.1-4-2.7-7.2-2.8-7.3c-3,0-17.8,0.2-20.9-0.7c0.3,0.3,0.4,0.4,0.4,0.4l-1.2,6.1
				c1.4,4.5,3.5,11,4.8,13l10.6,0.3L134.8,214.3"/>
			<path fill="none" stroke="#12100B" stroke-width="3" stroke-linecap="round" stroke-linejoin="round" d="M134.8,214.3
				c-1.1-4-2.7-7.2-2.8-7.3c-3,0-17.8,0.2-20.9-0.7c0.3,0.3,0.4,0.4,0.4,0.4l-1.2,6.1c1.4,4.5,3.5,11,4.8,13l10.6,0.3L134.8,214.3
				L134.8,214.3L134.8,214.3z"/>
			<path fill="#EF7F91" d="M130.8,273.4l-4.9-47.3l-10.6-0.3c0,0-8.3,16.8-10.4,46.3l7.1,38.5c0.7-7.9,2.2-15.5,6.2-20.5
				C118,290.1,123.6,283.3,130.8,273.4"/>
			<path fill="none" stroke="#12100B" stroke-width="3" stroke-linecap="round" stroke-linejoin="round" d="M130.8,273.4l-4.9-47.3
				l-10.6-0.3c0,0-8.3,16.8-10.4,46.3l7.1,38.5c0.7-7.9,2.2-15.5,6.2-20.5C118,290.1,123.6,283.3,130.8,273.4L130.8,273.4
				L130.8,273.4z"/>
			<path fill="#FFCE00" d="M171.6,122.6c0,0-13.2,0-16.5,14.5l-10.4-0.4c0,0-2.9-13.6,11.1-19.9c0,0,1.2-3.3-2.5-4.9
				c0,0,5.4-4.9,0.9-7.4c0,0-7,2.9-7.9-4.6c-0.9-7.4,19.4-4.9,19.4-4.9s4.6-7.9-15.7-9.1s-14.5,12.1-45.5-2
				c-1.1-0.5-6.6,6.9-9.9,19.8c0,0-11.6-2.2-10.8,9.7c1.7-1.4,4.1-2.2,6.5-2.2c5.6,0,10.2,4.2,10.2,9.5c0,0.1,0,0.1,0,0.2l-0.1,0.8
				c-0.1,0.1,0.1,0,0,0c-2.6,2.3-4.7,5.1-6.5,7.9c-5.5,9.1-6,19.4-6,19.4s-14.4,12.7-16.1,22.2c0,0-1.2,7.4,16.5,7
				c0,0-1.2,7.4,7.4,7c0,0,8.7-0.7,12.4,17.1c0,0-0.4,0.3,2.7,4.2c0,0,19.8,0.9,20.9,0.7c7.2-1.6,12.1-4,25.2-14.6l-1.7-32.2
				c0,0,9.5,4.1,11.1-7c0,0,2.9-4.6,7.4-6.2C174.2,147,187.4,128.8,171.6,122.6"/>
			<path fill="none" stroke="#12100B" stroke-width="3" stroke-linecap="round" stroke-linejoin="round" d="M173.3,130.1
				c0,0-10.9,2-11.6,8.7c0,0,0,2.9,3.7,2.9c3.7,0-1.6,7.4-6.2,7.4 M115.9,107.3c0,0,8.3-7.9,18.6-5.8 M113,128.8
				c0,0,4.9,9.1,14.1,8.3 M88.2,148.7c0.9,1.7,19.1,8.5,26.4-1.4c0,0,0.5-6-5.8-4.6 M88.6,178c0,0,7.1-6.3,12.5-4.2 M83.7,173.4
				c0,0,16.5-2.5,23.6,2.5c7,4.9,22.1-4,22.1-4 M122.9,154c0,0,4.1,0.9,5.4,12.8c1.2,12,7.9,13.6,7.9,13.6 M171.6,122.6
				c0,0-13.2,0-16.5,14.5l-10.4-0.4c0,0-2.9-13.6,11.1-19.9c0,0,1.2-3.3-2.5-4.9c0,0,5.4-4.9,0.9-7.4c0,0-7,2.9-7.9-4.6
				c-0.9-7.4,19.4-4.9,19.4-4.9s4.6-7.9-15.7-9.1s-14.5,12.1-45.5-2c-1.1-0.5-6.6,6.9-9.9,19.8c0,0-11.6-2.2-10.8,9.7
				c1.7-1.4,4.1-2.2,6.5-2.2c5.6,0,10.2,4.2,10.2,9.5c0,0.1,0,0.1,0,0.2l-0.1,0.8c-0.1,0.1,0.1,0,0,0c-2.6,2.3-4.7,5.1-6.5,7.9
				c-5.5,9.1-6,19.4-6,19.4s-14.4,12.7-16.1,22.2c0,0-1.2,7.4,16.5,7c0,0-1.2,7.4,7.4,7c0,0,8.7-0.7,12.4,17.1c0,0-0.4,0.3,2.7,4.2
				c0,0,19.8,0.9,20.9,0.7c7.2-1.6,12.1-4,25.2-14.6l-1.7-32.2c0,0,9.5,4.1,11.1-7c0,0,2.9-4.6,7.4-6.2
				C174.2,147,187.4,128.8,171.6,122.6L171.6,122.6L171.6,122.6z"/>
			<path fill="#FFCE00" d="M91,135.4c0.3-0.5,0.6-1.2,0.9-1.8c0.7-1.4,1.4-2.8,2.2-4.1l0,0c-0.1,0-0.1,0.1-0.2,0.1
				c-1.2,0.4-1.3,0.6-3.5,0.6c-2.7,0-5.1-0.9-6.9-2.5C82.3,130.2,81.6,134.9,91,135.4"/>
			<path fill="none" stroke="#12100B" stroke-width="3" stroke-linecap="round" stroke-linejoin="round" d="M94.5,128.9
				c-0.1,0.1-0.2,0.3-0.3,0.3C94.4,129.1,94.4,129,94.5,128.9L94.5,128.9L94.5,128.9L94.5,128.9z M91,135.4c0.3-0.5,0.6-1.2,0.9-1.8
				c0.7-1.4,1.4-2.8,2.2-4.1l0,0c-0.1,0-0.1,0.1-0.2,0.1c-1.2,0.4-1.3,0.6-3.5,0.6c-2.7,0-5.1-0.9-6.9-2.5
				C82.3,130.2,81.6,134.9,91,135.4L91,135.4L91,135.4z"/>
			<path fill="#FFFFFF" d="M139,120.1c0,5.7-6.1,10.4-13.6,10.4s-13.6-4.7-13.6-10.4s6.1-10.4,13.6-10.4S139,114.4,139,120.1"/>
			<path fill="none" stroke="#12100B" stroke-width="3" stroke-linecap="round" stroke-linejoin="round" d="M139,120.1
				c0,5.7-6.1,10.4-13.6,10.4s-13.6-4.7-13.6-10.4s6.1-10.4,13.6-10.4S139,114.4,139,120.1L139,120.1L139,120.1z"/>
			<path fill="#FFFFFF" d="M100.7,121.4c0-0.3,0.1-0.6,0.1-0.9c0-5.3-4.6-9.5-10.2-9.5s-10.2,4.2-10.2,9.5S85,130,90.6,130
				c2.2,0,2.2-0.2,3.5-0.6c0.1,0,0.1-0.1,0.2-0.1C95.9,126.5,98,123.8,100.7,121.4"/>
			<path fill="none" stroke="#12100B" stroke-width="3" stroke-linecap="round" stroke-linejoin="round" d="M100.7,121.4
				c0-0.3,0.1-0.6,0.1-0.9c0-5.3-4.6-9.5-10.2-9.5s-10.2,4.2-10.2,9.5S85,130,90.6,130c2.2,0,2.2-0.2,3.5-0.6c0.1,0,0.1-0.1,0.2-0.1
				C95.9,126.5,98,123.8,100.7,121.4L100.7,121.4L100.7,121.4z"/>
			<path fill="#12100B" d="M127.3,115.9c0,1.5-1.2,2.7-2.7,2.7c-1.5,0-2.7-1.2-2.7-2.7c0-1.5,1.2-2.7,2.7-2.7
				C126.1,113.2,127.3,114.4,127.3,115.9"/>
			<path fill="#12100B" d="M91.1,117c0,1.5-1.2,2.7-2.7,2.7c-1.5,0-2.7-1.2-2.7-2.7c0-1.5,1.2-2.7,2.7-2.7
				C90,114.4,91.1,115.6,91.1,117"/>
			
				<line fill="none" stroke="#12100B" stroke-width="3" stroke-linecap="round" stroke-linejoin="round" x1="99.4" y1="105.3" x2="94.8" y2="103.6"/>
			<g>
				<g>
					<defs>
						<rect id="SVGID_1_" x="30.2" y="54.6" width="227" height="488.6"/>
					</defs>
					<clipPath id="SVGID_2_">
						<use xlink:href="#SVGID_1_"  overflow="visible"/>
					</clipPath>
					<path clip-path="url(#SVGID_2_)" fill="#8F6D1F" d="M177.4,98c3.2-2.7,10.9-0.6,10.9-0.6c0-5.3-7.3-6.1-7.3-6.1
						c2.1-2.9,9.1-2.1,9.1-2.1c-0.3-5.6-10.5-3.8-10.5-3.8c0.9-3.2,7.6-7.3,7.6-7.3c-6.5-8.2-16.1,6.7-16.1,6.7
						c-8.2-35-48.2-33.3-62-21.8c-17,14.3-35.8,9.7-35.8,9.7C77.4,87.1,92.5,94,97.5,96.1c4.2-8.6,6.3-12.7,7.2-12.3
						c31,14.1,25.2,0.8,45.5,2s15.7,9.1,15.7,9.1s-20.3-2.5-19.4,4.9c0.9,7.4,7.9,4.6,7.9,4.6c4.6,2.5-0.9,7.4-0.9,7.4
						c3.7,1.6,2.5,4.9,2.5,4.9c-14.1,6.2-11.1,19.9-11.1,19.9l10.4,0.4c3.3-14.5,16.5-14.5,16.5-14.5c4.2,1.6,6.3,4.1,7.2,7l8.5-6.6
						c5.3-4.7,0.9-12.6,0.9-12.6L177.4,98"/>
				</g>
				<g>
					<defs>
						<rect id="SVGID_3_" x="30.2" y="54.6" width="227" height="488.6"/>
					</defs>
					<clipPath id="SVGID_4_">
						<use xlink:href="#SVGID_3_"  overflow="visible"/>
					</clipPath>
					
						<path clip-path="url(#SVGID_4_)" fill="none" stroke="#12100B" stroke-width="3" stroke-linecap="round" stroke-linejoin="round" d="
						M92.8,84.3c0,0,6.2-2.4,11.9-0.5 M177.4,98c3.2-2.7,10.9-0.6,10.9-0.6c0-5.3-7.3-6.1-7.3-6.1c2.1-2.9,9.1-2.1,9.1-2.1
						c-0.3-5.6-10.5-3.8-10.5-3.8c0.9-3.2,7.6-7.3,7.6-7.3c-6.5-8.2-16.1,6.7-16.1,6.7c-8.2-35-48.2-33.3-62-21.8
						c-17,14.3-35.8,9.7-35.8,9.7C77.4,87.1,92.5,94,97.5,96.1c4.2-8.6,6.3-12.7,7.2-12.3c31,14.1,25.2,0.8,45.5,2
						s15.7,9.1,15.7,9.1s-20.3-2.5-19.4,4.9c0.9,7.4,7.9,4.6,7.9,4.6c4.6,2.5-0.9,7.4-0.9,7.4c3.7,1.6,2.5,4.9,2.5,4.9
						c-14.1,6.2-11.1,19.9-11.1,19.9l10.4,0.4c3.3-14.5,16.5-14.5,16.5-14.5c4.2,1.6,6.3,4.1,7.2,7l8.5-6.6
						c5.3-4.7,0.9-12.6,0.9-12.6L177.4,98L177.4,98L177.4,98z"/>
				</g>
			</g>
			<path fill="#009BB9" d="M210.2,217.2c0,0-23.8-2.2-16.8,49.9c0,0,4,14.6,10.2,26.1c6.2,11.5,8.8,24.8,8.4,31.9
				c-0.9,1.7,1.3,23,1.3,23s19.9,19.9,41.5,4.8l1.3-47.3c0,0-2.2-20.8-8.4-32.3C247.8,273.3,228.8,229.1,210.2,217.2"/>
			<g>
				<g>
					<defs>
						<rect id="SVGID_5_" x="30.2" y="54.6" width="227" height="488.6"/>
					</defs>
					<clipPath id="SVGID_6_">
						<use xlink:href="#SVGID_5_"  overflow="visible"/>
					</clipPath>
					
						<path clip-path="url(#SVGID_6_)" fill="none" stroke="#12100B" stroke-width="3" stroke-linecap="round" stroke-linejoin="round" d="
						M210.2,217.2c0,0-23.8-2.2-16.8,49.9c0,0,4,14.6,10.2,26.1c6.2,11.5,8.8,24.8,8.4,31.9c-0.9,1.7,1.3,23,1.3,23
						s19.9,19.9,41.5,4.8l1.3-47.3c0,0-2.2-20.8-8.4-32.3C247.8,273.3,228.8,229.1,210.2,217.2L210.2,217.2L210.2,217.2z"/>
				</g>
			</g>
			<line fill="none" x1="47.6" y1="260.4" x2="62.6" y2="254.3"/>
			
				<line fill="none" stroke="#12100B" stroke-width="3" stroke-linecap="round" stroke-linejoin="round" x1="47.6" y1="260.4" x2="62.6" y2="254.3"/>
			<path fill="#009BB9" d="M89.5,271.9c2.2,12.3,10.4,18.1,17.3,11.1c2.3-4.5,3.9-12.3,0.4-25.6c0,0-3.8-11.7-11.2-14.2
				C91.5,244.6,85.8,250.5,89.5,271.9"/>
			<path fill="none" stroke="#12100B" stroke-width="3" stroke-linecap="round" stroke-linejoin="round" d="M89.5,271.9
				c2.2,12.3,10.4,18.1,17.3,11.1c2.3-4.5,3.9-12.3,0.4-25.6c0,0-3.8-11.7-11.2-14.2C91.5,244.6,85.8,250.5,89.5,271.9L89.5,271.9
				L89.5,271.9z"/>
			<g>
				<g>
					<defs>
						<rect id="SVGID_7_" x="30.2" y="54.6" width="227" height="488.6"/>
					</defs>
					<clipPath id="SVGID_8_">
						<use xlink:href="#SVGID_7_"  overflow="visible"/>
					</clipPath>
					<path clip-path="url(#SVGID_8_)" fill="#009BB9" d="M89.5,271.9c-3.7-21.4,2-27.4,6.5-28.8c-1.3-0.4-2.8-0.6-4.3-0.3
						l-29.2,11.5c0,0-0.9-24.3,7.1-38.4c0,0-7.5-1.3-16.8,8.8c-9.2,10.2-31.3,46.4-16.8,74.3c14.6,27.8,65.9-10.6,65.9-10.6
						s2.8-1.2,4.8-5.4C100.1,290.2,91.7,284.2,89.5,271.9"/>
				</g>
				<g>
					<defs>
						<rect id="SVGID_9_" x="30.2" y="54.6" width="227" height="488.6"/>
					</defs>
					<clipPath id="SVGID_10_">
						<use xlink:href="#SVGID_9_"  overflow="visible"/>
					</clipPath>
					
						<path clip-path="url(#SVGID_10_)" fill="none" stroke="#12100B" stroke-width="3" stroke-linecap="round" stroke-linejoin="round" d="
						M89.5,271.9c-3.7-21.4,2-27.4,6.5-28.8c-1.3-0.4-2.8-0.6-4.3-0.3l-29.2,11.5c0,0-0.9-24.3,7.1-38.4c0,0-7.5-1.3-16.8,8.8
						c-9.2,10.2-31.3,46.4-16.8,74.3c14.6,27.8,65.9-10.6,65.9-10.6s2.8-1.2,4.8-5.4C100.1,290.2,91.7,284.2,89.5,271.9L89.5,271.9
						L89.5,271.9z"/>
				</g>
			</g>
			<path fill="#009BB9" d="M210,426.7l-18.3-56.3c-4.2,2-11,4.7-21.7,8.5c-30.9,11.1-53.4-0.9-53.4-0.9c-6.2,5.8-29.2,3.5-29.2,3.5
				c-3.1-0.2-5.7-0.7-7.8-1.5c5.4,16.5,27.4,86.7,22.8,125.5c0,0,33.8,12,52.2-3.9c0,0-7.7-87.8-18.4-103.3h5.6
				c0,0,30.4,53.5,34.3,113.5c0,0,41.1,9.4,54.8-6C231,505.9,216.4,438.7,210,426.7"/>
			<path fill="none" stroke="#12100B" stroke-width="3" stroke-linecap="round" stroke-linejoin="round" d="M119.6,392.8
				c0,0,13.7,5.2,16.8,5.6 M210,426.7l-18.3-56.3c-4.2,2-11,4.7-21.7,8.5c-30.9,11.1-53.4-0.9-53.4-0.9c-6.2,5.8-29.2,3.5-29.2,3.5
				c-3.1-0.2-5.7-0.7-7.8-1.5c5.4,16.5,27.4,86.7,22.8,125.5c0,0,33.8,12,52.2-3.9c0,0-7.7-87.8-18.4-103.3h5.6
				c0,0,30.4,53.5,34.3,113.5c0,0,41.1,9.4,54.8-6C231,505.9,216.4,438.7,210,426.7L210,426.7L210,426.7z"/>
			<g>
				<g>
					<defs>
						<rect id="SVGID_11_" x="30.2" y="54.6" width="227" height="488.6"/>
					</defs>
					<clipPath id="SVGID_12_">
						<use xlink:href="#SVGID_11_"  overflow="visible"/>
					</clipPath>
					<path clip-path="url(#SVGID_12_)" fill="#888482" d="M227.6,508.9c-13.2,9.2-39.7,5.4-48.5,3.7c-6,3.6-16.4,11.7-18.8,24.3
						c0,0,18,10.7,49.3,2.2c0,0,11.1-2.2,15.5-13.7l-1.3,6c0,0,9-1.3,10.7-6.4C234.4,524.8,234.1,515.4,227.6,508.9"/>
				</g>
				<g>
					<defs>
						<rect id="SVGID_13_" x="30.2" y="54.6" width="227" height="488.6"/>
					</defs>
					<clipPath id="SVGID_14_">
						<use xlink:href="#SVGID_13_"  overflow="visible"/>
					</clipPath>
					
						<path clip-path="url(#SVGID_14_)" fill="none" stroke="#12100B" stroke-width="3" stroke-linecap="round" stroke-linejoin="round" d="
						M227.6,508.9c-13.2,9.2-39.7,5.4-48.5,3.7c-6,3.6-16.4,11.7-18.8,24.3c0,0,18,10.7,49.3,2.2c0,0,11.1-2.2,15.5-13.7l-1.3,6
						c0,0,9-1.3,10.7-6.4C234.4,524.8,234.1,515.4,227.6,508.9L227.6,508.9L227.6,508.9z"/>
				</g>
			</g>
			<path fill="#888482" d="M105.9,506.6c-24.2,9.8-34.4,27.6-34.4,27.6s-5.6,3.9,25.3,4.7c30.8,0.9,43.7-11.6,45-12.4
				c1.3-0.9,0.4,5.6,0.4,5.6c12.4-1.7,12-6,14.2-6c2.8-10.2-2.7-17.9-5.9-21.4C135.6,513.5,114.1,508.9,105.9,506.6"/>
			<g>
				<g>
					<defs>
						<rect id="SVGID_15_" x="30.2" y="54.6" width="227" height="488.6"/>
					</defs>
					<clipPath id="SVGID_16_">
						<use xlink:href="#SVGID_15_"  overflow="visible"/>
					</clipPath>
					
						<path clip-path="url(#SVGID_16_)" fill="none" stroke="#12100B" stroke-width="3" stroke-linecap="round" stroke-linejoin="round" d="
						M105.9,506.6c-24.2,9.8-34.4,27.6-34.4,27.6s-5.6,3.9,25.3,4.7c30.8,0.9,43.7-11.6,45-12.4c1.3-0.9,0.4,5.6,0.4,5.6
						c12.4-1.7,12-6,14.2-6c2.8-10.2-2.7-17.9-5.9-21.4C135.6,513.5,114.1,508.9,105.9,506.6L105.9,506.6L105.9,506.6z"/>
				</g>
			</g>
			<path fill="#FFCE00" d="M214.9,349.4c-3.9,2.4-12.2,8.2-12.8,13.4c0,0,0.2,4.7,5.1,7.9c0,0-1.6,10.6-0.3,12.3
				c1.1,1.7,6.8,7,12.5,2.7c0,0,2.8,6,15.9-2.7c0,0,9.7,2.8,15.7-10.8c0,0,0.9-11,0.2-17.1C234.5,363.7,219.6,353.3,214.9,349.4"/>
			<path fill="none" stroke="#12100B" stroke-width="3" stroke-linecap="round" stroke-linejoin="round" d="M224.6,378.7l-5.3,7
				 M238.6,379.6l-3.4,3.4 M213.8,364.2c0,0-0.3,14.6-6.6,6.5 M214.9,349.4c-3.9,2.4-12.2,8.2-12.8,13.4c0,0,0.2,4.7,5.1,7.9
				c0,0-1.6,10.6-0.3,12.3c1.1,1.7,6.8,7,12.5,2.7c0,0,2.8,6,15.9-2.7c0,0,9.7,2.8,15.7-10.8c0,0,0.9-11,0.2-17.1
				C234.5,363.7,219.6,353.3,214.9,349.4L214.9,349.4L214.9,349.4z"/>
			<path fill="#FFCE00" d="M151.8,252.2c3.4-4.1-3.9-9.5-3.9-9.5c-5.6-5.9-22-3-22-3c-5.5-11.4-13.4-4.5-13.4-4.5l-23.3,16.7
				c-1.1,4.4-1.3,10.8,0.3,20.1c0.7,3.9,2,7.2,3.7,9.6c0.6,0.2,1,0.3,1.5,0.4c10,4.1,31.2-9.2,31.2-9.2l18.1,0.3
				c2.2-0.3,6.6-2.2,7-4.7c0.3-2.5-0.9-4.5-0.9-4.5s2.8-0.9,4.1-4.7C155.7,255.2,151.8,252.2,151.8,252.2"/>
			<path fill="none" stroke="#12100B" stroke-width="3" stroke-linecap="round" stroke-linejoin="round" d="M106.7,245.5
				c0.9-0.3,19.2-5.9,19.2-5.9 M126.2,262.2c0,0,22.5-0.5,23.9,1.6 M126.7,249.7c0,0,23.4,0,25,2.5 M151.8,252.2
				c3.4-4.1-3.9-9.5-3.9-9.5c-5.6-5.9-22-3-22-3c-5.5-11.4-13.4-4.5-13.4-4.5l-23.3,16.7c-1.1,4.4-1.3,10.8,0.3,20.1
				c0.7,3.9,2,7.2,3.7,9.6c0.6,0.2,1,0.3,1.5,0.4c10,4.1,31.2-9.2,31.2-9.2l18.1,0.3c2.2-0.3,6.6-2.2,7-4.7c0.3-2.5-0.9-4.5-0.9-4.5
				s2.8-0.9,4.1-4.7C155.7,255.2,151.8,252.2,151.8,252.2L151.8,252.2L151.8,252.2z"/>
		</g>
	</g>
</g>
<g id="Calque_2_1_">
	<path fill="#F0F1F2" d="M142.4,6.5C68.5,6.5,8.6,66.4,8.6,140.2S68.5,274,142.4,274s133.7-59.9,133.7-133.7S216.2,6.5,142.4,6.5z
		 M142.4,262.2c-67.3,0-121.9-54.6-121.9-121.9S75,18.3,142.4,18.3s121.9,54.6,121.9,121.9S209.7,262.2,142.4,262.2z"/>
</g>
</svg>
