<?xml version="1.0" encoding="utf-8"?>
<!-- Generator: Adobe Illustrator 17.1.0, SVG Export Plug-In . SVG Version: 6.00 Build 0)  -->
<!DOCTYPE svg PUBLIC "-//W3C//DTD SVG 1.0//EN" "http://www.w3.org/TR/2001/REC-SVG-20010904/DTD/svg10.dtd" [
	<!ENTITY ns_extend "http://ns.adobe.com/Extensibility/1.0/">
	<!ENTITY ns_ai "http://ns.adobe.com/AdobeIllustrator/10.0/">
	<!ENTITY ns_graphs "http://ns.adobe.com/Graphs/1.0/">
	<!ENTITY ns_vars "http://ns.adobe.com/Variables/1.0/">
	<!ENTITY ns_imrep "http://ns.adobe.com/ImageReplacement/1.0/">
	<!ENTITY ns_sfw "http://ns.adobe.com/SaveForWeb/1.0/">
	<!ENTITY ns_custom "http://ns.adobe.com/GenericCustomNamespace/1.0/">
	<!ENTITY ns_adobe_xpath "http://ns.adobe.com/XPath/1.0/">
]>
<svg version="1.0" id="Calque_1" xmlns:x="&ns_extend;" xmlns:i="&ns_ai;" xmlns:graph="&ns_graphs;"
	 xmlns="http://www.w3.org/2000/svg" xmlns:xlink="http://www.w3.org/1999/xlink" x="0px" y="0px" viewBox="0 0 283.5 283.5"
	 enable-background="new 0 0 283.5 283.5" xml:space="preserve">
<metadata>
	<sfw  xmlns="&ns_sfw;">
		<slices></slices>
		<sliceSourceBounds  width="262.6" height="262.6" x="15" y="10.5" bottomLeftOrigin="true"></sliceSourceBounds>
	</sfw>
</metadata>
<g id="Calque_2">
	<circle fill="#2AE86E" cx="146.3" cy="141.7" r="121"/>
</g>
<g id="Calque_4">
	<g id="qga1Cu.tif">
		<g>
			<path fill="#BB88D3" d="M165.7,265.3c-0.7-0.9-1.3-1.7-2.1-2.4c-3.6-3.5-7.2-6.8-9.3-11.5c-1-2.1-1.7-4.2-2.4-6.4
				c-0.3-0.4-0.7-0.7-1.2-0.6c-0.4,0.2-0.7,0.6-1,1c-2,3.6-5.3,5.2-9.2,5.4c-8.8,0.5-16.2-2.5-22.1-9.2c-1.5-2.2-2.8-4.4-2.8-7.1
				c-0.1-2.4-0.7-2.8-3-2c-6,2-11.3,5.1-15.4,9.9c-4.4,5.2-7.5,11-9.2,17.3c0,0,0,0,0.1,0c7.2,1.2,14.5,1.9,21.7,2.5
				c0-0.4,0-0.9,0.1-1.3c0,0.4,0,0.9,0,1.3c13.5,1,27.1,1.3,40.7,2c-0.1-0.7-0.2-1.4-0.3-2.1c0.1,0.7,0.2,1.4,0.4,2.1
				C155.7,264.4,160.7,264.7,165.7,265.3z M150.5,251.1c-0.1,1.9-0.1,3.7-0.3,5.6C150.3,254.8,150.4,252.9,150.5,251.1z"/>
			<path fill="#130E17" d="M203.8,120.1c-3.5-10.2-9.4-18.6-17.8-25.5c-10.4-8.5-22.3-10.3-35.2-8.4c-1.4,0.2-3,1-4.2,0.6
				c-1.3-0.4-1.1-2.4-1.7-3.7c-1.4-3.1-3.4-5.6-6.4-7.3c-2.1-1.2-4.2-1.5-6.2,0.3c-0.2,0.4,0.1,0.6,0.4,0.7c2.2-0.5,4.2-0.7,6.1,0.9
				c2.6,2.2,4.5,4.8,5.4,8.1c0.3,0.9-0.2,1.3-1,1.5c-4.2,1.2-8.3,2.8-12,5.2c-0.8,0.5-1.4,0.3-2.1-0.3c-1-0.9-1.5-1.9-1.5-3.2
				c-0.1-0.4-0.2-0.9-0.8-0.8c-0.3,1.5-0.7,2.9-2.7,1.8c0,0-0.1,0-0.2,0c-3.1,0.7-4.7-1-5.8-3.5c-0.4,0-0.6,0.3-0.7,0.6
				c0.3,2.1,1.8,3.7,2.4,5.7c0.3,1,0.7,1.9,1.2,2.8c1.6,2.9,1.3,5.4-0.2,8.4c-3.8,7.9-10.3,11.6-18.4,13.2c-2.1,0.4-3.6-0.3-4.8-2
				c-1.6-2.3-2.7-4.9-3.4-7.6c-1.9-7.3-1.8-14.7-0.4-22c0.2-1,0.5-2,0.9-2.9c1.6-4.3,4.9-6.2,9.5-5.4c2,0.4,3.9,1.1,5.6,2.1
				c0.6,0.4,1.3,0.9,2.1,0.9c0.4-0.1,0.7-0.3,0.6-0.7c-3.5-3.3-7.8-4.2-12.5-3.7c-3.3,0.4-5.2,2.7-6.4,5.5c-1.7,4-2.1,8.3-2.2,12.6
				c-0.2,6.9,0.5,13.7,3.8,20c0.4,0.7,0.2,1.3-0.1,2c-6.3,13.2-10,27.2-11.8,41.7c-0.4,3.7-0.6,7.4-0.9,11.1
				c-0.5,4.4-0.1,8.7-0.2,13c0,14.5,2.4,28.7,5.9,42.7c1.6,6.2,3.4,12.3,5.3,18.4c0.5,1.6,0,2.8-0.8,4.2c-2.3,3.9-4.1,8-5.3,12.3
				c0.3,0,0.6,0,1,0.1c0.1,0.1,0.3,0.1,0.4,0.1c2.6-9.6,8.3-17.9,15.2-22.4c2.8-1.9,5.8-3.3,9-4.5c1.4-0.5,2.1-0.5,2.1,1.4
				c0,2.9,1.1,5.5,3.1,7.6c0.5,0.1,0.6-0.2,0.7-0.5c0-0.9-0.5-1.5-0.9-2.2c-2.5-4.7-1.6-11.5,1.9-14.8c0.8-0.7,1.5-1.9,2.9-0.9
				c0.3,0.5,0.2,1.4,1.2,1.1c0.7-0.8,0.8-1.9,0.8-3c0-6.6,0.3-13.3-0.1-20c-0.5-8.4-1.6-16.8-3.8-24.9c-0.4-1.4-0.8-2.6,0.8-3.5
				c0.8-0.5,0.5-1.1-0.3-1.4c-0.4-0.2-0.7-0.2-1.1-0.1c-6.4,1-12.1-6.2-11.4-12.9c0.3-2.6,1.8-4.2,4.2-5c2.4-0.9,4.9-1,7.1,0.8
				c0.4,0.4,0.7,0.8,1.1,1.1c0.5,0.4,1,1.3,1.8,0.6c0.8-0.6,0.2-1.3-0.1-1.9c-2.9-6-4.1-12.5-5.1-19c-0.1-0.8-0.2-1.7,0.7-2.1
				c2.9-1.2,5.7-2.7,8.9-2.9c0.3,0.2,0.7,0.5,1.2,0.3c1.2-1.2,2.7-1.8,4.3-2.3c6.9-1.9,13.8-3.4,20.8-4.7c1.8-0.3,3.3,0.2,4.8,0.8
				c0.4,0,0.7-0.2,0.8-0.5c-0.1-0.5-0.2-1,0.7-1.1c2.4-0.2,4.7-0.6,7.1-0.8c1.5-0.1,0.4,1,0.7,1.5c0.1,0.5,0.3,0.9,0.9,0.8
				c1.7-3,4.6-3.1,7.5-2.9c5,0.3,10,0.6,15,1.4c2.3,0.4,4.1,1.2,4.8,3.6c0.1,0.5,0.5,1,1,1.3c0.8-0.1,0.7-0.6,0.5-1.1
				c1-1,2.4-0.7,3.6-1.1C204.2,124.4,204.8,123.4,203.8,120.1z"/>
			<path fill="#1B191B" d="M151.2,264.1c-0.5-2.9-0.7-5.8-0.4-8.7c0.2-2.2,0-4.5,0-6.9c-0.3,0.3-0.6,0.4-0.6,0.5
				c-0.2,5.1-1.1,10.1,0,15.1C150.5,264.2,150.9,264.2,151.2,264.1z"/>
			<path fill="#1B191B" d="M110.4,258.5c-0.4,0.3-0.7,0.4-0.7,0.5c-0.2,1-0.4,2.1-0.4,3.1c0.3,0,0.7,0.1,1.1,0.1
				C110.4,261,110.4,259.8,110.4,258.5z"/>
			<path fill="#1B191B" d="M188.6,157.1c-0.5-1-0.6-1.9,0.4-2.8c0.7-0.6,1.2-1.6,1.1-2.5c-0.5-2.6,1.3-4,2.4-5.9
				c3.1-5,5.6-10.3,5.6-16.4c0-0.9,0-1.9-0.5-2.7c-0.1,0.3-0.3,0.7-0.4,1c-0.9,0.8-0.6,2-0.6,3c-0.1,5.1-2.4,8.4-7.3,10.2
				c-2.7,1-5.4,1.6-8.2,0.6c-0.7-0.2-1.4-0.3-2.1-0.4c-7.7-1.4-11.8-7.6-10.3-15.1c0.1-0.6,0.5-1.2-0.1-1.8
				c-0.1-0.2-0.3-0.5-0.4-0.8c-1.1,0-1.1,1-1.3,1.7c-1.5,5.1-0.3,9.5,3.2,13.4c0.7,0.8,2.1,1.4,2,2.4c-0.1,1.1-1.7,1-2.6,1.5
				c-2.3,1.3-3.8,3.1-4.8,5.4c-1.2,2.6,0,6.3,2.4,7.8c0.6,0.3,1.3,0.7,1.8,0.1c0.4-0.4,0-0.9-0.3-1.3c-1.6-1.7-3-3.5-1.8-6.1
				c1.4-3,3.8-4.7,7-5.1c4-0.5,7.9,0.3,11.4,2.3c4.4,2.6,4.6,6.8,0.6,9.9c-0.3,0.2-0.7,0.5-1,0.8c-0.3,0.4-0.6,0.7-0.4,1.2
				c0.2,0.5,0.7,0.6,1.1,0.4c1.4-0.6,1.9,0.3,2.3,1.4c4,10,7.7,20.1,10.2,30.6c1.2,5.3,1.6,10.7,1.4,16.2c-0.1,2-1.4,2.8-3.1,3.3
				c-4.9,1.4-9.8,2.2-14.8,2.8c-4.3,0.5-8.6,0.5-12.9,0.4c-0.3-0.6,0.9-1.2,0-1.7c-0.6-0.4-1.2,0-1.8,0.3c-3.6,1.9-7.4,2.9-11.6,1.8
				c-0.6-0.2-1.3-0.3-1.5,0.4c-0.2,0.7,0.4,1.1,0.9,1.3c2.3,0.9,4.6,0.9,7,0.5c0.8-0.1,1.6-0.5,2.7-0.4c-0.4,1.1-1.2,1.5-2,1.8
				c-1.3,0.6-2.8,0.7-4.2,0.8c-0.7,0-1.7-0.1-1.8,1c-0.1,1.3-1,2-1.7,2.9c-3.1,3.8-6,7.8-8.2,12.3c-1.9,3.8-4.6,5.2-8.9,4.7
				c-5.6-0.6-9.5-3.7-12.5-8.2c-0.6-1-0.8-2-0.8-3.1c-0.1-0.7,0.1-1.6-0.6-2.2c-0.6-0.5-0.3-1.3-0.5-1.9c-1.7,2.4-1.4,5.1-0.3,7.3
				c3.6,7,11.4,12.4,20.7,9.5c2-0.6,3.3-1.8,4-3.7c0.2-0.6,0.2-1.6,1.2-1.5c0.7,0,1,0.8,1.2,1.4c1.7,4.4-0.5,12.4-7.3,13.6
				c-8.2,1.4-15.3-0.9-21.5-6.4c-0.8-0.7-1.3-1.8-2.6-1.7l-0.5,0.5c5.3,7.2,17.3,11.2,25.8,8.8c3.4-1,5.7-3,7-6.2
				c0.6-0.4,0.6,0.1,0.8,0.4c1.7,6.5,4.8,12.2,10.1,16.6c1.3,1.1,2.4,2.3,3.4,3.6c0.4,0,0.8,0.1,1.2,0.1c-1.3-1.8-2.9-3.4-4.6-4.9
				c-5.9-5.1-8.8-11.7-9.8-19.3c-0.2-1.3,0.3-2.8-0.1-4.2c-0.2-0.9-0.3-2-1-2.5c-2.4-2-1.2-3.7,0.1-5.6c2.1-3,4.3-5.8,6.6-8.5
				c0.9-1.1,1.8-1.8,3.4-1.9c2.4-0.2,4.5-1.1,5.4-3.6c0.5-1.2,1.4-0.8,2.2-0.8c8,0.1,15.9-0.5,23.7-2.2c1.8-0.4,3.6-0.8,5.4-1.4
				c2.8-0.9,3.4-1.8,3.5-4.7c0.4-10.2-2.3-19.8-5.4-29.4C193.6,169.7,191.2,163.2,188.6,157.1z"/>
			<path fill="#BFBFBF" d="M81.9,168.9c0.1,0,0.3,0,0.4,0c0,4.5,0,8.9,0,13.4c-0.1,0-0.3,0-0.4,0C81.9,177.8,81.9,173.4,81.9,168.9z
				"/>
			<path fill="#2B252F" d="M132.8,77.5c-2.4,3.1-3.5,6.8-4.5,10.5c-0.2,0.6-0.3,1.2-1,1.3c-0.2-0.4-0.3-0.7-0.5-1
				c0.1-2.1,0.9-4,1.6-5.9c0.9-2.3,1.7-4.7,3.9-6.2c0.2,0.2,0.3,0.3,0.5,0.5C132.9,77,132.9,77.3,132.8,77.5z"/>
			<path fill="#2E2732" d="M118,86.6c-0.1,0.2-0.3,0.3-0.4,0.5c-0.4,0-0.7-0.2-0.9-0.5c-1.3-1.9-2.7-3.7-4.3-5.3
				c-0.3-0.3-0.6-0.7-0.4-1.2c0.2-0.1,0.3-0.3,0.5-0.4C115,81.5,116.7,83.9,118,86.6z"/>
			<path fill="#6E507C" d="M150.9,244.4c0-0.4,0-0.9,0.5-0.7c0.5,0.2,0.3,0.7,0.3,1.1C151.4,244.7,151.2,244.6,150.9,244.4z"/>
			<path fill="#DFDDC1" d="M120.1,175.6c-0.5-1.9-0.7-3.2,1.8-3.1c0,0,0-0.2,0.1-0.3c-0.2-0.4-0.6-0.3-0.9-0.3
				c-7.2,0.3-12.3-4.3-12.8-11.4c-0.2-3.7,1.1-6.1,4.3-7.4c3.6-1.5,6.5-0.9,9,1.8c0.3,0.4,0.6,1.1,1.5,1c-0.1-1.4-1.4-2.1-1.8-3.3
				c-1.6-5.3-3-10.6-3.9-16.1c-0.6-3.6-0.5-3.6,3-4.9c2.1-0.7,4.2-1.4,6.3-2.1c0.4-0.2,0.9-0.6,1.3,0c-0.3,0.6-0.1,1.1-0.1,1.7
				c-0.5,6.9,2.1,11.6,8.3,14.6c4.8,2.3,9.9,2.6,15.1,1.5c4.4-0.9,8.3-3,10.2-7.4c1.7-4.1,1.3-8.4-0.5-12.5
				c-0.6-1.4-1.5-2.5-1.9-3.9c0.3-0.5-1.5-1.1,0-1.3c3.2-0.5,6.4-0.8,9.8-1.2c-0.3,0.9-0.5,1.5-0.7,2.1c-3.5,7.6,0,13,5.6,17.8
				c-6.6,3-9.6,6.4-8.8,10.1c0.5,2.1,2.4,4.2,4.1,4.2c-0.3-0.3-0.6-0.6-0.8-0.8c-3.2-3.2-3.2-6-0.1-9.3c1.7-1.7,3.7-2.7,6.1-2.9
				c4-0.3,7.9,0.4,11.4,2.4c4.8,2.7,5,8,0.3,11c-0.4,0.3-1.3,0.3-1.1,1.5c3.1-2.3,3.2,0.5,3.9,2.2c2.7,6.7,5.2,13.4,7.3,20.3
				c2.7,8.5,4.6,17,4.3,26c-0.1,2.2-1,3.4-3,3.9c-2.1,0.5-4.2,1.1-6.3,1.5c-7.9,1.6-15.8,2.3-24,1.9c0.4-1,1.7-0.9,1.9-2.5
				c-4.9,3-9.7,4.5-15,2.9c3.9,2.1,7.7,1.4,11.7,0c-0.3,2.3-1.7,3.2-3.4,3.8c-1.5,0.5-3,0.5-4.5,0.5c-0.4,0-1.4-0.1-0.8,0.6
				c0.8,1.1-0.2,1.3-0.6,1.7c-4.1,4.8-7.8,9.9-10.4,15.7c-0.5,1.1-1.2,2-2.4,2.3c-4.7,1.3-9.3,1-13.4-1.9c-3.9-2.8-7.3-6-6.5-11.5
				C125.1,208.1,124.2,191.8,120.1,175.6z"/>
			<path fill="#6E4497" d="M96.1,209.5c-0.1,0.3-0.2,0.7-0.2,1c-0.1,9.2,0.4,18.4,1.6,27.5c0.2,1.8,0.1,3.3-1.3,4.7
				c-1.3,1.3-1.4,0.7-1.8-0.5c-0.8-2.8-1.8-5.7-2.6-8.6c-6.3-22-9.9-44.4-8.5-67.5c1-16.7,4.7-32.7,11.5-48c0.8-1.8,1.3-2.2,2.6-0.5
				c0.4,0.7,1.2,1.1,2,1.1c1.7,0,1.7,1,1.7,2.3c0.1,10.6,3,20.4,8.5,29.4c1,1.6,1.5,2.6-0.4,3.9c-0.9,0.6-1.4,1.8-1.7,2.9
				c-1.8,5.8,2.7,14,8.7,15.5c1.5,0.4,2.2,1.1,2.6,2.6c4,14.6,4.7,29.4,4.2,44.4c0,1-0.5,1.4-1.3,1.6c-2.6,0.7-4.8,2.4-5.3,4.9
				c-0.9,4.3-3.7,5.9-7.5,7.1c-1.7,0.6-2,0.2-2.3-1.3c-0.8-4.2-0.9-8.5-1-12.8c0-0.5,0.5-1.4-0.3-1.4c-0.9,0-0.6,1-0.6,1.5
				c0,4.6,0.3,9.2,1.2,13.7c0.2,0.6,0.8,1.4-0.1,1.9c-2.4,1.4-4.6,3.2-7,5c-1.4-10.2-1.7-20.2-1.9-30.2
				C96.7,209.7,96.5,209.7,96.1,209.5z"/>
			<path fill="#6E4497" d="M118.6,112.8c3-10.8,9.3-18.4,19.9-22.4c7.9-2.9,16.1-4.3,24.5-3.8c6.4,0.4,12.5,2,17.9,5.5
				c7.7,5,13.8,11.6,18.2,19.7c1.5,2.9,2.8,5.8,3.8,8.9c0.4,1.1,0.8,2.4-0.5,3.1c-1.5,0.8-3.2,1.6-5.1,1c-0.3-0.1-0.7-0.8-0.6-1
				c0.8-1.8-0.7-1.6-1.5-1.8c-5.8-1.4-11.6-2-17.5-2.1c-11.3-0.1-22.4,1.7-33.4,4c-8.7,1.8-17.2,4.3-25.5,7.5
				c-1.4,0.6-2.1,0.4-2-1.3c0.1-1.3,0-2.6,0-3.9C116.7,121.7,117.3,117.2,118.6,112.8z"/>
			<path fill="#B181D5" d="M122.8,98.8c0.2,0.6,0.9,1.4,0.4,2c-1.7,2.6-2.5,5.8-4.4,8.1c-3.2,3.8-7.3,6.5-12,8.1
				c-6.9,2.3-9.2,1.3-11.9-5.5c-3.5-8.8-3.3-17.8-1.4-26.9c0.3-1.4,0.9-2.8,1.6-4c1.4-2.4,3.5-3.7,6.3-3.8c4-0.2,7.4,1.1,10.6,3.4
				c2.1,2,3.9,4.5,5.6,6.9C119.6,90.8,121.3,94.7,122.8,98.8z"/>
			<path fill="#FEFEFE" d="M159.7,124.8c2.9,4.2,3.8,8.9,2.6,13.9c-1,3.9-4,6.2-7.5,7.8c-5.2,2.3-10.6,2.1-15.8,0.6
				c-5.3-1.5-9.4-4.8-11-10.3c-0.6-2-0.9-4.2,0.5-6.2c0.4-1.5,1.5-2.1,2.9-2.5c7.5-2.1,15.1-3.8,22.8-5.2c1.7-0.3,3.2-0.2,4.4,1.2
				C158.9,124.2,159.3,124.4,159.7,124.8z"/>
			<path fill="#FEFEFE" d="M173.9,120.8c5.5,0.1,11,0.5,16.5,1.1c3.7,0.5,5.9,2.1,6.7,5.7c0,0.6,0.1,1.3,0.1,1.9
				c0.2,6.1-2.5,10.1-8.3,12.1c-2.6,0.9-5.1,1.5-7.8,0.4c-2-0.9-4.5-0.2-6.4-1.5c-4.9-3.3-9.1-8.8-6.2-16.4
				C169.3,121.3,171.1,120.7,173.9,120.8z"/>
			<path fill="#BB88D3" d="M117.3,226.9c0.8-1.9,2.1-3.5,4-4.3c0.6-0.3,1.3-0.9,1.9,0.1c-0.4,2.5-1,5.1,0.3,7.4
				c3.2,5.6,9.4,10.8,18.1,9.3c2.7-0.5,4.9-1.5,5.7-4.4c0.2-0.7,0.5-1.5,1.3-2c2.1,1.6,2.6,3.8,2.5,6.3c-0.4,6.9-4.4,10.7-11.3,11
				c-8.5,0.3-15.4-2.9-21.2-9C115.3,236.7,115.1,231.9,117.3,226.9z"/>
			<path fill="#B181D5" d="M115.6,150.7c0.2,0.3,0.5,0.6-0.1,1c-1.9,1.1-3.6,0.6-4.8-1.3c-5.2-8.7-8.2-18.1-8.5-28.3
				c-0.1-2.4,0.3-3.7,2.9-3.8c1.1-0.1,2.1-0.6,3.1-1c1-0.4,1.4-0.3,1.4,0.9c0,2,0,4.1,0,6.2C110,133.5,110.9,142.5,115.6,150.7z"/>
			<path fill="#B181D5" d="M138.7,76.9c3.3,2.1,5,5.2,6.2,8.8c0.4,1.3,0.1,1.8-1.2,2.1c-4.6,1.1-8.9,2.9-12.8,5.5
				c-0.4,0.3-0.9,0.9-1.3,0.3c-1-1.4-3.2-2.1-2.4-4.4c0.2-0.8,0.5-1.6,0.7-2.4c1-3.7,2.2-7.3,4.9-10.1
				C134.8,75.5,136.7,75.7,138.7,76.9z"/>
			<path fill="#B181D4" d="M115.8,149c-0.4-0.8-0.8-1.6-1.2-2.5c-4-9.4-4.2-19.3-4-29.2c0-0.5,0-1,0.5-1.3c2.5-1.3,4.7-3.2,7.2-5.2
				c-4.5,14.3-2.4,27.9,1.9,41.5C117.7,152.1,116.6,150.7,115.8,149z"/>
			<path fill="#272724" d="M159.1,123.6c1.8,1.5,2.6,3.6,3.2,5.7c1.5,5.5,1.4,10.8-3.3,15c-7.1,6.3-24,6-30.1-4.3
				c-2-3.3-2.6-6.8-0.9-10.4c0.1,0.3,0.3,0.6,0.4,0.9c-1.2,4.4,0,8.1,3.1,11.4c6.2,6.5,18.8,7.6,26.1,2.2c3.1-2.3,4.7-5.3,4.6-9.2
				c-0.1-4-1.2-7.6-3.6-10.8C158.8,123.9,158.9,123.8,159.1,123.6z"/>
			<path fill="#AF80D2" d="M127.1,92.4c2.1,1.7,2.1,2,0.2,3.8c-0.8,0.7-1.6,1.6-2.4,2.4c-0.4,0.5-0.9,0.8-1.2-0.1
				c-1-2.4-2-4.9-3-7.4C123.1,90.7,125.3,90.9,127.1,92.4z"/>
			<path fill="#DAD8BC" d="M194.5,139.4c-0.8,2.7-2,4.6-3.3,6.5c-0.8,1.1-1.5,2.1-2.6,0.1c-0.6-1-1.8-1.7-2.9-2.7
				C189,142.7,191.8,141.6,194.5,139.4z"/>
			<path fill="#2E2D27" d="M121,163.9c-0.6-0.8-1.1-1.5-1.7-2.1c-0.8-0.8-1.7-1.6-2.8-1.2c-1.2,0.3-1.4,1.5-1.6,2.6
				c-0.1,0.6,0.3,1.4-0.5,1.9c-2.1-1.6,1.7-4.2-1.3-5.7C117.7,158.7,121,160.5,121,163.9z"/>
			<path fill="#31302A" d="M172.8,153.8c0.5,0.1,0.7,0.5,0.8,0.9c0.1,0.4-0.1,0.8-0.5,0.8c-0.5,0-0.8-0.5-0.9-1
				C172.2,154,172.4,153.8,172.8,153.8z"/>
			<path fill="#2E2E28" d="M182,154.5c-0.1,0.4-0.4,0.8-0.8,0.9c-0.4,0.1-0.6-0.2-0.6-0.6c0-0.5,0.3-0.9,1-1
				C181.9,153.9,182.1,154.1,182,154.5z"/>
			<path fill="#1A1A1A" d="M149.9,131.1c0,1-0.6,1.6-1.6,1.6c-0.9,0-1.4-0.6-1.4-1.5c0.1-0.9,0.5-1.5,1.4-1.5
				C149.3,129.7,149.8,130.2,149.9,131.1z"/>
			<path fill="#1A1A1A" d="M184.5,127.7c0-0.8,0.5-1.3,1.3-1.4c0.9-0.1,1.4,0.4,1.5,1.3c0.1,1-0.5,1.4-1.4,1.6
				C185,129.1,184.5,128.6,184.5,127.7z"/>
		</g>
	</g>
</g>
<g id="Calque_3">
	<path fill="#F0F1F2" d="M146.3,10.4C73.8,10.4,15,69.2,15,141.7S73.8,273,146.3,273s131.3-58.8,131.3-131.3S218.8,10.4,146.3,10.4z
		 M146.3,262.7c-66.8,0-121-54.2-121-121s54.2-121,121-121s121,54.2,121,121S213.2,262.7,146.3,262.7z"/>
</g>
</svg>
