<?xml version="1.0" encoding="utf-8"?>
<!-- Generator: Adobe Illustrator 17.1.0, SVG Export Plug-In . SVG Version: 6.00 Build 0)  -->
<!DOCTYPE svg PUBLIC "-//W3C//DTD SVG 1.0//EN" "http://www.w3.org/TR/2001/REC-SVG-20010904/DTD/svg10.dtd" [
	<!ENTITY ns_extend "http://ns.adobe.com/Extensibility/1.0/">
	<!ENTITY ns_ai "http://ns.adobe.com/AdobeIllustrator/10.0/">
	<!ENTITY ns_graphs "http://ns.adobe.com/Graphs/1.0/">
	<!ENTITY ns_vars "http://ns.adobe.com/Variables/1.0/">
	<!ENTITY ns_imrep "http://ns.adobe.com/ImageReplacement/1.0/">
	<!ENTITY ns_sfw "http://ns.adobe.com/SaveForWeb/1.0/">
	<!ENTITY ns_custom "http://ns.adobe.com/GenericCustomNamespace/1.0/">
	<!ENTITY ns_adobe_xpath "http://ns.adobe.com/XPath/1.0/">
]>
<svg version="1.0" xmlns:x="&ns_extend;" xmlns:i="&ns_ai;" xmlns:graph="&ns_graphs;"
	 xmlns="http://www.w3.org/2000/svg" xmlns:xlink="http://www.w3.org/1999/xlink" x="0px" y="0px" viewBox="0 0 283.5 283.5"
	 enable-background="new 0 0 283.5 283.5" xml:space="preserve">
<metadata>
	<sfw  xmlns="&ns_sfw;">
		<slices></slices>
		<sliceSourceBounds  width="262.6" height="262.6" x="15" y="10.4" bottomLeftOrigin="true"></sliceSourceBounds>
	</sfw>
</metadata>
<g id="Calque_2">
	<circle fill="#2AE86E" cx="146.3" cy="141.7" r="121"/>
</g>
<g id="Calque_4">
	<g id="qga1Cu.tif">
		<g>
			<path fill="#BB88D3" d="M135.5,266.2c0.2-0.7,0.3-1.4,0.4-2.1c-0.1,0.7-0.2,1.4-0.3,2.1c13.6-0.7,27.2-1,40.7-2
				c0-0.4,0-0.9,0-1.3c0.1,0.4,0.1,0.9,0.1,1.3c7.2-0.6,14.5-1.3,21.7-2.5c0.1,0,0.1,0,0.1,0c-1.7-6.3-4.8-12.1-9.2-17.3
				c-4.1-4.8-9.4-7.9-15.4-9.9c-2.3-0.8-2.9-0.4-3,2c0,2.7-1.3,4.9-2.8,7.1c-5.9,6.7-13.3,9.7-22.1,9.2c-3.9-0.2-7.2-1.8-9.2-5.4
				c-0.3-0.4-0.6-0.8-1-1c-0.5-0.1-0.9,0.2-1.2,0.6c-0.7,2.2-1.4,4.3-2.4,6.4c-2.1,4.7-5.7,8-9.3,11.5c-0.8,0.7-1.4,1.5-2.1,2.4
				C125.5,266.7,130.5,266.4,135.5,266.2z M136,258.7c-0.2-1.9-0.2-3.7-0.3-5.6C135.8,254.9,135.9,256.8,136,258.7z"/>
			<path fill="#130E17" d="M85.1,127.4c1.2,0.4,2.6,0.1,3.6,1.1c-0.2,0.5-0.3,1,0.5,1.1c0.5-0.3,0.9-0.8,1-1.3
				c0.7-2.4,2.5-3.2,4.8-3.6c5-0.8,10-1.1,15-1.4c2.9-0.2,5.8-0.1,7.5,2.9c0.6,0.1,0.8-0.3,0.9-0.8c0.3-0.5-0.8-1.6,0.7-1.5
				c2.4,0.2,4.7,0.6,7.1,0.8c0.9,0.1,0.8,0.6,0.7,1.1c0.1,0.3,0.4,0.5,0.8,0.5c1.5-0.6,3-1.1,4.8-0.8c7,1.3,13.9,2.8,20.8,4.7
				c1.6,0.5,3.1,1.1,4.3,2.3c0.5,0.2,0.9-0.1,1.2-0.3c3.2,0.2,6,1.7,8.9,2.9c0.9,0.4,0.8,1.3,0.7,2.1c-1,6.5-2.2,13-5.1,19
				c-0.3,0.6-0.9,1.3-0.1,1.9c0.8,0.7,1.3-0.2,1.8-0.6c0.4-0.3,0.7-0.7,1.1-1.1c2.2-1.8,4.7-1.7,7.1-0.8c2.4,0.8,3.9,2.4,4.2,5
				c0.7,6.7-5,13.9-11.4,12.9c-0.4-0.1-0.7-0.1-1.1,0.1c-0.8,0.3-1.1,0.9-0.3,1.4c1.6,0.9,1.2,2.1,0.8,3.5
				c-2.2,8.1-3.3,16.5-3.8,24.9c-0.4,6.7-0.1,13.4-0.1,20c0,1.1,0.1,2.2,0.8,3c1,0.3,0.9-0.6,1.2-1.1c1.4-1,2.1,0.2,2.9,0.9
				c3.5,3.3,4.4,10.1,1.9,14.8c-0.4,0.7-0.9,1.3-0.9,2.2c0.1,0.3,0.2,0.6,0.7,0.5c2-2.1,3.1-4.7,3.1-7.6c0-1.9,0.7-1.9,2.1-1.4
				c3.2,1.2,6.2,2.6,9,4.5c6.9,4.5,12.6,12.8,15.2,22.4c0.1,0,0.3,0,0.4-0.1c0.4-0.1,0.7-0.1,1-0.1c-1.2-4.3-3-8.4-5.3-12.3
				c-0.8-1.4-1.3-2.6-0.8-4.2c1.9-6.1,3.7-12.2,5.3-18.4c3.5-14,5.9-28.2,5.9-42.7c-0.1-4.3,0.3-8.6-0.2-13
				c-0.3-3.7-0.5-7.4-0.9-11.1c-1.8-14.5-5.5-28.5-11.8-41.7c-0.3-0.7-0.5-1.3-0.1-2c3.3-6.3,4-13.1,3.8-20
				c-0.1-4.3-0.5-8.6-2.2-12.6c-1.2-2.8-3.1-5.1-6.4-5.5c-4.7-0.5-9,0.4-12.5,3.7c-0.1,0.4,0.2,0.6,0.6,0.7c0.8,0,1.5-0.5,2.1-0.9
				c1.7-1,3.6-1.7,5.6-2.1c4.6-0.8,7.9,1.1,9.5,5.4c0.4,0.9,0.7,1.9,0.9,2.9c1.4,7.3,1.5,14.7-0.4,22c-0.7,2.7-1.8,5.3-3.4,7.6
				c-1.2,1.7-2.7,2.4-4.8,2c-8.1-1.6-14.6-5.3-18.4-13.2c-1.5-3-1.8-5.5-0.2-8.4c0.5-0.9,0.9-1.8,1.2-2.8c0.6-2,2.1-3.6,2.4-5.7
				c-0.1-0.3-0.3-0.6-0.7-0.6c-1.1,2.5-2.7,4.2-5.8,3.5c-0.1,0-0.2,0-0.2,0c-2,1.1-2.4-0.3-2.7-1.8c-0.6-0.1-0.7,0.4-0.8,0.8
				c0,1.3-0.5,2.3-1.5,3.2c-0.7,0.6-1.3,0.8-2.1,0.3c-3.7-2.4-7.8-4-12-5.2c-0.8-0.2-1.3-0.6-1-1.5c0.9-3.3,2.8-5.9,5.4-8.1
				c1.9-1.6,3.9-1.4,6.1-0.9c0.3-0.1,0.6-0.3,0.4-0.7c-2-1.8-4.1-1.5-6.2-0.3c-3,1.7-5,4.2-6.4,7.3c-0.6,1.3-0.4,3.3-1.7,3.7
				c-1.2,0.4-2.8-0.4-4.2-0.6c-12.9-1.9-24.8-0.1-35.2,8.4c-8.4,6.9-14.3,15.3-17.8,25.5C81.4,125.4,82,126.4,85.1,127.4z"/>
			<path fill="#1B191B" d="M136,266.1c1.1-5,0.2-10,0-15.1c0-0.1-0.3-0.2-0.6-0.5c0,2.4-0.2,4.7,0,6.9c0.3,2.9,0.1,5.8-0.4,8.7
				C135.3,266.2,135.7,266.2,136,266.1z"/>
			<path fill="#1B191B" d="M175.8,264.2c0.4,0,0.8-0.1,1.1-0.1c0-1-0.2-2.1-0.4-3.1c0-0.1-0.3-0.2-0.7-0.5
				C175.8,261.8,175.8,263,175.8,264.2z"/>
			<path fill="#1B191B" d="M90.5,178.2c-3.1,9.6-5.8,19.2-5.4,29.4c0.1,2.9,0.7,3.8,3.5,4.7c1.8,0.6,3.6,1,5.4,1.4
				c7.8,1.7,15.7,2.3,23.7,2.2c0.8,0,1.7-0.4,2.2,0.8c0.9,2.5,3,3.4,5.4,3.6c1.6,0.1,2.5,0.8,3.4,1.9c2.3,2.7,4.5,5.5,6.6,8.5
				c1.3,1.9,2.5,3.6,0.1,5.6c-0.7,0.5-0.8,1.6-1,2.5c-0.4,1.4,0.1,2.9-0.1,4.2c-1,7.6-3.9,14.2-9.8,19.3c-1.7,1.5-3.3,3.1-4.6,4.9
				c0.4,0,0.8-0.1,1.2-0.1c1-1.3,2.1-2.5,3.4-3.6c5.3-4.4,8.4-10.1,10.1-16.6c0.2-0.3,0.2-0.8,0.8-0.4c1.3,3.2,3.6,5.2,7,6.2
				c8.5,2.4,20.5-1.6,25.8-8.8l-0.5-0.5c-1.3-0.1-1.8,1-2.6,1.7c-6.2,5.5-13.3,7.8-21.5,6.4c-6.8-1.2-9-9.2-7.3-13.6
				c0.2-0.6,0.5-1.4,1.2-1.4c1-0.1,1,0.9,1.2,1.5c0.7,1.9,2,3.1,4,3.7c9.3,2.9,17.1-2.5,20.7-9.5c1.1-2.2,1.4-4.9-0.3-7.3
				c-0.2,0.6,0.1,1.4-0.5,1.9c-0.7,0.6-0.5,1.5-0.6,2.2c0,1.1-0.2,2.1-0.8,3.1c-3,4.5-6.9,7.6-12.5,8.2c-4.3,0.5-7-0.9-8.9-4.7
				c-2.2-4.5-5.1-8.5-8.2-12.3c-0.7-0.9-1.6-1.6-1.7-2.9c-0.1-1.1-1.1-1-1.8-1c-1.4-0.1-2.9-0.2-4.2-0.8c-0.8-0.3-1.6-0.7-2-1.8
				c1.1-0.1,1.9,0.3,2.7,0.4c2.4,0.4,4.7,0.4,7-0.5c0.5-0.2,1.1-0.6,0.9-1.3c-0.2-0.7-0.9-0.6-1.5-0.4c-4.2,1.1-8,0.1-11.6-1.8
				c-0.6-0.3-1.2-0.7-1.8-0.3c-0.9,0.5,0.3,1.1,0,1.7c-4.3,0.1-8.6,0.1-12.9-0.4c-5-0.6-9.9-1.4-14.8-2.8c-1.7-0.5-3-1.3-3.1-3.3
				c-0.2-5.5,0.2-10.9,1.4-16.2c2.5-10.5,6.2-20.6,10.2-30.6c0.4-1.1,0.9-2,2.3-1.4c0.4,0.2,0.9,0.1,1.1-0.4
				c0.2-0.5-0.1-0.8-0.4-1.2c-0.3-0.3-0.7-0.6-1-0.8c-4-3.1-3.8-7.3,0.6-9.9c3.5-2,7.4-2.8,11.4-2.3c3.2,0.4,5.6,2.1,7,5.1
				c1.2,2.6-0.2,4.4-1.8,6.1c-0.3,0.4-0.7,0.9-0.3,1.3c0.5,0.6,1.2,0.2,1.8-0.1c2.4-1.5,3.6-5.2,2.4-7.8c-1-2.3-2.5-4.1-4.8-5.4
				c-0.9-0.5-2.5-0.4-2.6-1.5c-0.1-1,1.3-1.6,2-2.4c3.5-3.9,4.7-8.3,3.2-13.4c-0.2-0.7-0.2-1.7-1.3-1.7c-0.1,0.3-0.3,0.6-0.4,0.8
				c-0.6,0.6-0.2,1.2-0.1,1.8c1.5,7.5-2.6,13.7-10.3,15.1c-0.7,0.1-1.4,0.2-2.1,0.4c-2.8,1-5.5,0.4-8.2-0.6
				c-4.9-1.8-7.2-5.1-7.3-10.2c0-1,0.3-2.2-0.6-3c-0.1-0.3-0.3-0.7-0.4-1c-0.5,0.8-0.5,1.8-0.5,2.7c0,6.1,2.5,11.4,5.6,16.4
				c1.1,1.9,2.9,3.3,2.4,5.9c-0.1,0.9,0.4,1.9,1.1,2.5c1,0.9,0.9,1.8,0.4,2.8C95,165.2,92.6,171.7,90.5,178.2z"/>
			<path fill="#BFBFBF" d="M204.3,184.3c-0.1,0-0.3,0-0.4,0c0-4.5,0-8.9,0-13.4c0.1,0,0.3,0,0.4,0
				C204.3,175.4,204.3,179.8,204.3,184.3z"/>
			<path fill="#2B252F" d="M153.4,78.7c0.2-0.2,0.3-0.3,0.5-0.5c2.2,1.5,3,3.9,3.9,6.2c0.7,1.9,1.5,3.8,1.6,5.9
				c-0.2,0.3-0.3,0.6-0.5,1c-0.7-0.1-0.8-0.7-1-1.3c-1-3.7-2.1-7.4-4.5-10.5C153.3,79.3,153.3,79,153.4,78.7z"/>
			<path fill="#2E2732" d="M173.7,81.7c0.2,0.1,0.3,0.3,0.5,0.4c0.2,0.5-0.1,0.9-0.4,1.2c-1.6,1.6-3,3.4-4.3,5.3
				c-0.2,0.3-0.5,0.5-0.9,0.5c-0.1-0.2-0.3-0.3-0.4-0.5C169.5,85.9,171.2,83.5,173.7,81.7z"/>
			<path fill="#6E507C" d="M134.5,246.8c0-0.4-0.2-0.9,0.3-1.1c0.5-0.2,0.5,0.3,0.5,0.7C135,246.6,134.8,246.7,134.5,246.8z"/>
			<path fill="#DFDDC1" d="M162.5,226.5c0.8,5.5-2.6,8.7-6.5,11.5c-4.1,2.9-8.7,3.2-13.4,1.9c-1.2-0.3-1.9-1.2-2.4-2.3
				c-2.6-5.8-6.3-10.9-10.4-15.7c-0.4-0.4-1.4-0.6-0.6-1.7c0.6-0.7-0.4-0.6-0.8-0.6c-1.5,0-3,0-4.5-0.5c-1.7-0.6-3.1-1.5-3.4-3.8
				c4,1.4,7.8,2.1,11.7,0c-5.3,1.6-10.1,0.1-15-2.9c0.2,1.6,1.5,1.5,1.9,2.5c-8.2,0.4-16.1-0.3-24-1.9c-2.1-0.4-4.2-1-6.3-1.5
				c-2-0.5-2.9-1.7-3-3.9c-0.3-9,1.6-17.5,4.3-26c2.1-6.9,4.6-13.6,7.3-20.3c0.7-1.7,0.8-4.5,3.9-2.2c0.2-1.2-0.7-1.2-1.1-1.5
				c-4.7-3-4.5-8.3,0.3-11c3.5-2,7.4-2.7,11.4-2.4c2.4,0.2,4.4,1.2,6.1,2.9c3.1,3.3,3.1,6.1-0.1,9.3c-0.2,0.2-0.5,0.5-0.8,0.8
				c1.7,0,3.6-2.1,4.1-4.2c0.8-3.7-2.2-7.1-8.8-10.1c5.6-4.8,9.1-10.2,5.6-17.8c-0.2-0.6-0.4-1.2-0.7-2.1c3.4,0.4,6.6,0.7,9.8,1.2
				c1.5,0.2-0.3,0.8,0,1.3c-0.4,1.4-1.3,2.5-1.9,3.9c-1.8,4.1-2.2,8.4-0.5,12.5c1.9,4.4,5.8,6.5,10.2,7.4c5.2,1.1,10.3,0.8,15.1-1.5
				c6.2-3,8.8-7.7,8.3-14.6c0-0.6,0.2-1.1-0.1-1.7c0.4-0.6,0.9-0.2,1.3,0c2.1,0.7,4.2,1.4,6.3,2.1c3.5,1.3,3.6,1.3,3,4.9
				c-0.9,5.5-2.3,10.8-3.9,16.1c-0.4,1.2-1.7,1.9-1.8,3.3c0.9,0.1,1.2-0.6,1.5-1c2.5-2.7,5.4-3.3,9-1.8c3.2,1.3,4.5,3.7,4.3,7.4
				c-0.5,7.1-5.6,11.7-12.8,11.4c-0.3,0-0.7-0.1-0.9,0.3c0.1,0.1,0.1,0.3,0.1,0.3c2.5-0.1,2.3,1.2,1.8,3.1
				C162,193.8,161.1,210.1,162.5,226.5z"/>
			<path fill="#6E4497" d="M189.3,211.7c-0.2,10-0.5,20-1.9,30.2c-2.4-1.8-4.6-3.6-7-5c-0.9-0.5-0.3-1.3-0.1-1.9
				c0.9-4.5,1.2-9.1,1.2-13.7c0-0.5,0.3-1.5-0.6-1.5c-0.8,0-0.3,0.9-0.3,1.4c-0.1,4.3-0.2,8.6-1,12.8c-0.3,1.5-0.6,1.9-2.3,1.3
				c-3.8-1.2-6.6-2.8-7.5-7.1c-0.5-2.5-2.7-4.2-5.3-4.9c-0.8-0.2-1.3-0.6-1.3-1.6c-0.5-15,0.2-29.8,4.2-44.4
				c0.4-1.5,1.1-2.2,2.6-2.6c6-1.5,10.5-9.7,8.7-15.5c-0.3-1.1-0.8-2.3-1.7-2.9c-1.9-1.3-1.4-2.3-0.4-3.9c5.5-9,8.4-18.8,8.5-29.4
				c0-1.3,0-2.3,1.7-2.3c0.8,0,1.6-0.4,2-1.1c1.3-1.7,1.8-1.3,2.6,0.5c6.8,15.3,10.5,31.3,11.5,48c1.4,23.1-2.2,45.5-8.5,67.5
				c-0.8,2.9-1.8,5.8-2.6,8.6c-0.4,1.2-0.5,1.8-1.8,0.5c-1.4-1.4-1.5-2.9-1.3-4.7c1.2-9.1,1.7-18.3,1.6-27.5c0-0.3-0.1-0.7-0.2-1
				C189.7,211.7,189.5,211.7,189.3,211.7z"/>
			<path fill="#6E4497" d="M169.4,128.2c0,1.3-0.1,2.6,0,3.9c0.1,1.7-0.6,1.9-2,1.3c-8.3-3.2-16.8-5.7-25.5-7.5
				c-11-2.3-22.1-4.1-33.4-4c-5.9,0.1-11.7,0.7-17.5,2.1c-0.8,0.2-2.3,0-1.5,1.8c0.1,0.2-0.3,0.9-0.6,1c-1.9,0.6-3.6-0.2-5.1-1
				c-1.3-0.7-0.9-2-0.5-3.1c1-3.1,2.3-6,3.8-8.9c4.4-8.1,10.5-14.7,18.2-19.7c5.4-3.5,11.5-5.1,17.9-5.5c8.4-0.5,16.6,0.9,24.5,3.8
				c10.6,4,16.9,11.6,19.9,22.4C168.9,119.2,169.5,123.7,169.4,128.2z"/>
			<path fill="#B181D5" d="M168.6,89.1c1.7-2.4,3.5-4.9,5.6-6.9c3.2-2.3,6.6-3.6,10.6-3.4c2.8,0.1,4.9,1.4,6.3,3.8
				c0.7,1.2,1.3,2.6,1.6,4c1.9,9.1,2.1,18.1-1.4,26.9c-2.7,6.8-5,7.8-11.9,5.5c-4.7-1.6-8.8-4.3-12-8.1c-1.9-2.3-2.7-5.5-4.4-8.1
				c-0.5-0.6,0.2-1.4,0.4-2C164.9,96.7,166.6,92.8,168.6,89.1z"/>
			<path fill="#FEFEFE" d="M127.6,126.1c1.2-1.4,2.7-1.5,4.4-1.2c7.7,1.4,15.3,3.1,22.8,5.2c1.4,0.4,2.5,1,2.9,2.5
				c1.4,2,1.1,4.2,0.5,6.2c-1.6,5.5-5.7,8.8-11,10.3c-5.2,1.5-10.6,1.7-15.8-0.6c-3.5-1.6-6.5-3.9-7.5-7.8c-1.2-5-0.3-9.7,2.6-13.9
				C126.9,126.4,127.3,126.2,127.6,126.1z"/>
			<path fill="#FEFEFE" d="M117.7,126.1c2.9,7.6-1.3,13.1-6.2,16.4c-1.9,1.3-4.4,0.6-6.4,1.5c-2.7,1.1-5.2,0.5-7.8-0.4
				c-5.8-2-8.5-6-8.3-12.1c0-0.6,0.1-1.3,0.1-1.9c0.8-3.6,3-5.2,6.7-5.7c5.5-0.6,11-1,16.5-1.1C115.1,122.7,116.9,123.3,117.7,126.1
				z"/>
			<path fill="#BB88D3" d="M167.6,243.3c-5.8,6.1-12.7,9.3-21.2,9c-6.9-0.3-10.9-4.1-11.3-11c-0.1-2.5,0.4-4.7,2.5-6.3
				c0.8,0.5,1.1,1.3,1.3,2c0.8,2.9,3,3.9,5.7,4.4c8.7,1.5,14.9-3.7,18.1-9.3c1.3-2.3,0.7-4.9,0.3-7.4c0.6-1,1.3-0.4,1.9-0.1
				c1.9,0.8,3.2,2.4,4,4.3C171.1,233.9,170.9,238.7,167.6,243.3z"/>
			<path fill="#B181D5" d="M176.6,126.4c0-2.1,0-4.2,0-6.2c0-1.2,0.4-1.3,1.4-0.9c1,0.4,2,0.9,3.1,1c2.6,0.1,3,1.4,2.9,3.8
				c-0.3,10.2-3.3,19.6-8.5,28.3c-1.2,1.9-2.9,2.4-4.8,1.3c-0.6-0.4-0.3-0.7-0.1-1C175.3,144.5,176.2,135.5,176.6,126.4z"/>
			<path fill="#B181D5" d="M153.4,78.7c2.7,2.8,3.9,6.4,4.9,10.1c0.2,0.8,0.5,1.6,0.7,2.4c0.8,2.3-1.4,3-2.4,4.4
				c-0.4,0.6-0.9,0-1.3-0.3c-3.9-2.6-8.2-4.4-12.8-5.5c-1.3-0.3-1.6-0.8-1.2-2.1c1.2-3.6,2.9-6.7,6.2-8.8
				C149.5,77.7,151.4,77.5,153.4,78.7z"/>
			<path fill="#B181D4" d="M166,154.3c4.3-13.6,6.4-27.2,1.9-41.5c2.5,2,4.7,3.9,7.2,5.2c0.5,0.3,0.5,0.8,0.5,1.3
				c0.2,9.9,0,19.8-4,29.2c-0.4,0.9-0.8,1.7-1.2,2.5C169.6,152.7,168.5,154.1,166,154.3z"/>
			<path fill="#272724" d="M127.6,126.1c-2.4,3.2-3.5,6.8-3.6,10.8c-0.1,3.9,1.5,6.9,4.6,9.2c7.3,5.4,19.9,4.3,26.1-2.2
				c3.1-3.3,4.3-7,3.1-11.4c0.1-0.3,0.3-0.6,0.4-0.9c1.7,3.6,1.1,7.1-0.9,10.4c-6.1,10.3-23,10.6-30.1,4.3c-4.7-4.2-4.8-9.5-3.3-15
				c0.6-2.1,1.4-4.2,3.2-5.7C127.3,125.8,127.4,125.9,127.6,126.1z"/>
			<path fill="#AF80D2" d="M165.5,93.1c-1,2.5-2,5-3,7.4c-0.3,0.9-0.8,0.6-1.2,0.1c-0.8-0.8-1.6-1.7-2.4-2.4
				c-1.9-1.8-1.9-2.1,0.2-3.8C160.9,92.9,163.1,92.7,165.5,93.1z"/>
			<path fill="#DAD8BC" d="M100.5,145.3c-1.1,1-2.3,1.7-2.9,2.7c-1.1,2-1.8,1-2.6-0.1c-1.3-1.9-2.5-3.8-3.3-6.5
				C94.4,143.6,97.2,144.7,100.5,145.3z"/>
			<path fill="#2E2D27" d="M173.1,161.4c-3,1.5,0.8,4.1-1.3,5.7c-0.8-0.5-0.4-1.3-0.5-1.9c-0.2-1.1-0.4-2.3-1.6-2.6
				c-1.1-0.4-2,0.4-2.8,1.2c-0.6,0.6-1.1,1.3-1.7,2.1C165.2,162.5,168.5,160.7,173.1,161.4z"/>
			<path fill="#31302A" d="M114,156.5c-0.1,0.5-0.4,1-0.9,1c-0.4,0-0.6-0.4-0.5-0.8c0.1-0.4,0.3-0.8,0.8-0.9
				C113.8,155.8,114,156,114,156.5z"/>
			<path fill="#2E2E28" d="M104.6,155.8c0.7,0.1,1,0.5,1,1c0,0.4-0.2,0.7-0.6,0.6c-0.4-0.1-0.7-0.5-0.8-0.9
				C104.1,156.1,104.3,155.9,104.6,155.8z"/>
			<path fill="#1A1A1A" d="M137.9,131.7c0.9,0,1.3,0.6,1.4,1.5c0,0.9-0.5,1.5-1.4,1.5c-1,0-1.6-0.6-1.6-1.6
				C136.4,132.2,136.9,131.7,137.9,131.7z"/>
			<path fill="#1A1A1A" d="M100.3,131.2c-0.9-0.2-1.5-0.6-1.4-1.6c0.1-0.9,0.6-1.4,1.5-1.3c0.8,0.1,1.3,0.6,1.3,1.4
				C101.7,130.6,101.2,131.1,100.3,131.2z"/>
		</g>
	</g>
</g>
<g id="Calque_3">
	<path fill="#F0F1F2" d="M146.3,10.4C73.8,10.4,15,69.2,15,141.7S73.8,273,146.3,273s131.3-58.8,131.3-131.3S218.8,10.4,146.3,10.4z
		 M146.3,262.7c-66.8,0-121-54.2-121-121s54.2-121,121-121s121,54.2,121,121S213.2,262.7,146.3,262.7z"/>
</g>
</svg>
