<?xml version="1.0" encoding="utf-8"?>
<!-- Generator: Adobe Illustrator 17.1.0, SVG Export Plug-In . SVG Version: 6.00 Build 0)  -->
<!DOCTYPE svg PUBLIC "-//W3C//DTD SVG 1.0//EN" "http://www.w3.org/TR/2001/REC-SVG-20010904/DTD/svg10.dtd" [
	<!ENTITY ns_extend "http://ns.adobe.com/Extensibility/1.0/">
	<!ENTITY ns_ai "http://ns.adobe.com/AdobeIllustrator/10.0/">
	<!ENTITY ns_graphs "http://ns.adobe.com/Graphs/1.0/">
	<!ENTITY ns_vars "http://ns.adobe.com/Variables/1.0/">
	<!ENTITY ns_imrep "http://ns.adobe.com/ImageReplacement/1.0/">
	<!ENTITY ns_sfw "http://ns.adobe.com/SaveForWeb/1.0/">
	<!ENTITY ns_custom "http://ns.adobe.com/GenericCustomNamespace/1.0/">
	<!ENTITY ns_adobe_xpath "http://ns.adobe.com/XPath/1.0/">
]>
<svg version="1.0" xmlns:x="&ns_extend;" xmlns:i="&ns_ai;" xmlns:graph="&ns_graphs;"
	 xmlns="http://www.w3.org/2000/svg" xmlns:xlink="http://www.w3.org/1999/xlink" x="0px" y="0px" viewBox="0 0 283.5 283.5"
	 enable-background="new 0 0 283.5 283.5" xml:space="preserve">
<metadata>
	<sfw  xmlns="&ns_sfw;">
		<slices></slices>
		<sliceSourceBounds  width="262.6" height="262.6" x="15" y="10.4" bottomLeftOrigin="true"></sliceSourceBounds>
	</sfw>
</metadata>
<g id="Calque_2">
	<circle fill="#36B3F2" cx="146.3" cy="141.7" r="121"/>
</g>
<g id="Calque_4">
	<g id="NEd2cU.tif">
		<g>
			<path fill="#171614" d="M84.5,240.5c-0.2,3.5-0.4,7-0.6,10.5c0.4,0.1,0.8,0.3,1.2,0.5c0.3,0.2,0.7,0.4,1,0.5c0-0.4,0-0.8,0.1-1.2
				c0.5-8.8,0.9-17.6,1.7-26.3c0.3-2.8,0.1-5.6,0.6-8.4c0.1-0.9,0-2.1-1-2.3c-1.2-0.3-1.5,0.9-1.8,1.7c-0.3,0.7-0.4,1.4-0.4,2.1
				c0,3.5-0.9,7-0.7,10.5c0.1,2.6-1,4-3.4,4.8c-6.6,2-13.3,3-20.2,3.5c0.7,0.7,1.5,1.5,2.2,2.2c0.6-0.1,1.3-0.1,1.9-0.2
				c6.6-0.7,13-2.4,19.5-4C85,236.6,84.7,238.5,84.5,240.5z"/>
			<path fill="#171614" d="M118.8,226.7c-1.7-3.7-3.1-7.4-4.5-11.2c-4.3-11.6-6.4-23.6-6.8-35.9c-0.2-7.7-0.3-15.7,6-21.7
				c0.1-0.6-0.2-1-0.7-1.2c-1.4,0.5-2.4,1.6-3.3,2.7c-3.2,4.2-7.3,7.2-12.1,9.4c-11.7,5.2-24,7.5-36.9,7.1c-1.9-0.1-4.2,0.6-5-2.3
				c-0.2-0.7-1.2-0.6-1.9-0.6c-4.9-0.3-9.7-0.7-14.6-1c-1.7-0.1-3.3-0.1-4.8,0.7c-3.3,1.7-7.9,0.4-9.9-2.7c-0.6-0.9-1.3-1.8-2.1-2.7
				c0.5,1.7,0.8,3.5,0.9,5.3c1.4,2.3,2.9,4.5,4,6.7c3.1,5.8,5.5,12,4.1,18.5c0.3,0.7,0.6,1.4,1,2.1c0.4,0.8,0.9,1.7,1.4,2.5
				c5.9,8.1,11.7,16.4,18.1,24c-3-12.3-3.6-24.6-0.5-37.2c0.7-2.8,1.5-5.6,2.9-8.2c0.7-1.4,1.7-2.2,3.4-2.3c3.1-0.2,6.2-0.6,9.3-0.7
				c12.7-0.5,24.8-3.2,36-9.6c0.7-0.4,1.3-1.1,2.3-0.6c0.3,2.7-0.5,5.3-0.6,8c-0.3,15,3,29.4,8.2,43.4c2.5,6.8,5.7,13.3,7,20.5
				c0.2,0.8,0.5,1.6,1.1,2.2c1.4,0.1,1.3-1,1.5-1.8C122.2,235.4,120.8,231,118.8,226.7z"/>
			<path d="M127,83.3c-0.4-1.3-1.6-1.1-2.6-1.4c-3.5-1.2-6.7-2.7-9.2-5.5c-4.3-4.9-3.1-9.6,3-11.8c5.5-2,10.9-1,16,1
				c2.6,1,5,1.5,7.8,1.4c5.4-0.2,10.8,0.6,15.7,3c6.9,3.2,11.7,8.1,14.3,15.7c2,5.8,3.4,11.5,2.7,17.5c-0.9,7.7-3.4,14.9-6.7,21.8
				c-0.5,0.7,0.1,2.1-1.3,2.2c-0.6,0-1.2-0.2-1.8-0.4c-0.9-0.2-2-0.7-2.6,0.2c-0.6,0.9,0.7,1.3,1.1,1.9c0.8,1.3,0.8,1.2-0.9,2.6
				c-0.5,0.4-0.1,1.3-0.5,1.9c-0.4,0.5-0.7,1.1-1.4,1c-0.8,0-1-0.7-1-1.3c-0.1-2.4-1.3-2.1-2.9-1.2c-3,1.7-6.2,1.7-9.4,0.9
				c-3.7-0.9-4.6-3.7-2.3-6.8c2.7-3.6,5.9-6.9,8.6-10.6c3.2-4.3,4.7-9.1,4.3-14.5c-0.4-5-0.5-10,2.7-14.3c1-1.3,0.1-1.8-1-2.2
				c-6.2-2-12.6-3-19-1.7c-4.4,0.9-8.8,1.1-13.2,2C126.7,84.5,126.5,84.1,127,83.3z"/>
			<path fill="#100D0B" d="M135.3,269.1c0.6-9.8,1.6-19.5,3.8-29.1c0.3-1.4,0.8-2.8,0.3-4.3c-0.3-0.6-0.7-0.9-1.4-0.9
				c-1.9,1.2-1.9,3.3-2.4,5.2c-2.2,9.5-3.2,19.1-3.6,28.7C133,268.9,134.2,269,135.3,269.1z"/>
			<path fill="#14120C" d="M226.8,194c1-0.7,1.1-1.9,1.5-3c1.1-3.2,2.6-6.1,4.2-9c0.9-1.6,2.1-2.9,3.9-3.3
				c5.2-1.2,10.4-1.7,15.7-0.9c1.8,0.3,2.2,1.1,1.6,2.8c-3.9,10.5-6,21.3-6.7,32.4c-0.2,4-0.4,8-0.2,11.9c0.7-0.6,1.5-1.2,2.3-1.9
				c2.5-3.7,4.9-7.6,7-11.6c2.5-6.2,5.1-12.3,7-18.4c0.6-1.9,1.9-3,3.3-3.4c0.5-1.7,1-3.5,1.3-5.3c0.9-4.3,1.6-9,3.5-13.1
				c-2.8,1-5.6,2.5-8.2,4.2c-0.9,0.6-1.4,1.5-2.9,1.2c-9.9-2.1-19.7-2.4-29.4,1.1c-0.3,0.5-0.3,1.1-0.5,1.6
				c-1.5,3.2-3.2,6.4-4.4,9.7c-0.5,1.4-1.1,2.9-0.4,4.4C225.9,194.1,226.3,194.3,226.8,194z"/>
			<path fill="#14120C" d="M181.7,233.5c-3.2-1.8-6.1-3.9-9-6.1c-0.7-0.6-1.8-1.2-2.5-0.4c-0.8,0.9,0.2,1.7,0.8,2.4
				c0.7,0.9,1.6,1.6,2.6,2.3c7.8,5.6,16.3,9.9,25.2,13.1c2.6,1,3.8,2.5,4,5.2c0.1,2.1,0.3,4.3,0.5,6.4c0.7-0.2,1.4-0.4,2.1-0.6
				c-0.2-3.1-0.4-6.2-0.6-9.3c3.9,0.9,7.7,1.7,11.5,2.5c0.9-0.6,1.8-1.1,2.7-1.7C205.8,245,193.4,240.2,181.7,233.5z"/>
			<path fill="#0C0A09" d="M113.6,157.5c-0.3-0.2-0.6-0.5-0.9-0.7c0.6-0.4,1.1-0.9,1.7-1.2c2.2-1.1,3-1.5,2.2-5
				c-1.1-4.5-3-2.7-5.2-2.5c-1.8,0.2-4,1.2-5.1-0.8c-1.4-2.4-0.2-5,0.9-7.3c0.6-0.1,0.9,0.3,1.1,0.8c0.2,5.6,0.4,5.8,6.1,4.2
				c5.4-1.5,10.8-2.7,16.5-2.7c0.7,0,1.5,0,1.8-0.8c0.4-0.9,0.9-1.4,1.9-0.9c0.9,0.4,1.4,1.2,1.6,2.2c0.1,1.1-0.3,2.1-1.3,2.6
				c-1.3,0.6-2.6,0.6-4,0.4c-2.7-0.4-5.4,0.2-8,0.4c-0.9,0.1-1.8,0.4-2.6,0.9c-1.1,0.6-1.7,1.5-1.4,2.8c0.3,1.4,1.4,1.6,2.6,1.7
				c4.3,0.2,4.3,0.2,4.9,4.3c0.1,0.5,0.2,1,0.2,1.5c-0.2,5.3,0.1,5.7,6.1,6.8c4.8,0.9,9.3-0.1,13.6-2c2.3-1,3.5-2.6,3.6-5.3
				c0.2-3.6,1-7.2,2.2-10.6c1-2.8,2-5.6,2.5-8.7c0.3-2.3,1.2-2.4,3.2-0.6c0.2,0.8-0.3,1.2-0.9,1.7c-0.9,2.9-1.7,5.9-2.7,8.8
				c-0.4,1.3-0.1,1.8,1.1,2.3c2,0.7,3.9,1.7,5.9,2.5c0.2,0.6-0.2,0.9-0.6,1.1c-1.5,0.4-2.8-0.3-4.2-0.7c-1.9-0.7-2.7,0.1-3,1.9
				c-0.1,0.4-0.2,0.9-0.1,1.2c1.7,3.9-0.8,6.6-2.6,9.5c-4.9,7.8-9.3,15.8-12.9,24.3c-0.5,1.1-0.9,2.3-2.3,2.8
				c-0.7-0.1-1-0.7-1.1-1.4c-0.3-3.4,0-6.8-0.2-10.2c-0.1-1.5,0-3.3-2-3.8c-1.9-0.4-3.4,0.4-4.5,2c-2,3.1-3,6.3-1.9,10
				c1.1,4.2,1.7,8.5,3.7,12.6c1.8-2,1.3-5.2,3.9-6.5c0.8,0.2,0.9,0.9,1,1.6c-1.3,5.5-3,10.9-3.7,16.6c-0.4,3.4-0.3,6.8-0.9,10.2
				c-0.2,1.1,0.1,2.3-1.2,3c-1.4-0.7-1.2-2-1.2-3.2c-0.1-2.9,0-5.9,0-8.8c1.1-5.4-0.5-10.4-2.1-15.4c-3.1-9.6-4.6-19.5-4.1-29.6
				c0.1-2.9,0.5-5.8,1.6-8.5c0.3-0.9,0.6-1.7,0.6-2.7c0-2.8-1-3.4-3.7-2.6C117.6,156.2,116,158,113.6,157.5z"/>
			<path fill="#1A170B" d="M107.9,140.8c-0.2-0.3-0.5-0.5-0.7-0.8c1-3.7,3.5-6.5,5.6-9.8c-0.6-0.2-1-0.4-1.5-0.5
				c-7.4-2.2-9.3-9.7-3.8-15.1c2-2,4.4-3.4,7.3-3.9c1.4-0.2,1.9-0.5,1.3-2.1c-1.8-5.1-1.2-9.9,1.8-14.5c0.9-1.3,1.4-2.7,2.1-4.1
				c0.6-1.1,1.3-2.5,2.5-2.6c2.6-0.3,3.5-2.2,4.6-4c0.2,0.4,0.4,0.8,0.5,1.3c1.2,3.9,0.9,4.4-2.6,4.7c-0.5,0.1-1,0.1-1.5,0.4
				c-0.3,0.1-0.5,0.3-0.6,0.9c2.1,0.8,4,2.1,5.5,4c0.8,1,1.6,0.8,2.7,0.2c5.7-3.2,10.5-1.3,12.6,4.9c1.8,5.3,0.8,10.3-2.4,14.7
				c-2.2,3.1-5.3,4.9-9.6,4c1.5,2.2,3.3,3.1,5.4,3.8c0.9,0.3,2.3,0.5,1.8,1.9c-0.4,1.2-1.7,1.1-2.7,0.8c-2.5-0.7-4.8-1.9-6.3-4.2
				c-1.9-2.7-2.9-5.7-3.7-8.8c-0.4-1.5-0.9-2.3-2.4-1c-2,1.8-4.5,1.8-7,1.8c-4,0.1-7.2,1.6-9.1,5.4c-2.3,4.5,0.4,9,5.5,9.2
				c2.2,0.1,4.3-0.1,6.3-1.2c0.6-0.4,1.5-1.1,2.2-0.1c0.6,1,0,1.8-0.7,2.4c-0.5,0.4-1,0.8-1.6,1c-4.8,1-6.9,4.9-9.1,8.7
				C109.6,139.1,109.3,140.4,107.9,140.8z"/>
			<path fill="#1F1F1D" d="M160.4,153.1c0.3-0.3,0.6-0.5,0.8-0.8c2.8,0.7,5.2,2.2,7.2,4c11.8,10.5,25.9,15.9,40.9,19.7
				c7.1,1.8,14.2,2.7,21.5,1.8c0.2,0.4,0.3,0.9,0.5,1.3c-2.5,1.7-5.4,1.4-8.1,1.2c-13.5-0.8-26.2-4.9-38.4-10.7
				c-2.7-1.3-5.4-2.6-8-4.1c-2.8-1.6-2.9-1.6-3.6,1.5c-2.1,10.2-6.1,19.8-10.7,29.1c-4.1,8.3-8.9,16.1-14.7,23.4
				c-3.3,4.2-5.8,8.8-7.4,13.9c-0.3,0.9-0.3,2.2-1.7,2.3c-0.3-0.3-0.5-0.5-0.8-0.8c-0.9-1.3-0.1-2.6,0.3-3.8
				c1.6-6.4,5.9-11.3,9.6-16.5c8.6-12.1,15.5-25.1,20.2-39.3c1.1-3.4,1.8-7,2.4-10.6c0.4-2.6-0.4-4.4-2.3-5.9
				c-1.7-1.4-3.4-2.7-5.3-3.7C161.8,154.8,160.6,154.4,160.4,153.1z"/>
			<path fill="#2C291D" d="M156.9,138.8c0.2-0.5,0.4-0.9,0.6-1.4c0.9-0.7,1.8-0.2,2.7-0.2c6,0.3,8.7-3.4,6.6-9.1
				c-0.1-0.4-0.2-0.8-0.1-1.2c0.4-0.6,0.9-1.3,1.3-1.9c-0.1,0.8,0.3,1.4,0.7,2c1.8,2.7,2.3,5.6,0.4,8.4c-1.9,3-4.8,4.1-8.2,3.9
				C159.5,139.2,158.2,138.9,156.9,138.8z"/>
			<path fill="#FEFEFE" d="M85.2,230.6c0.1-3.3,0.4-6.6,0.7-9.9c0.2-2.3,0.2-4.6,1-7c1.3,1,0.7,2,0.7,2.8
				c-0.9,11.7-1.7,23.4-2.3,35.1c11.2,6,23.3,11.8,35.8,15.1c0-1.1,0-2.2-0.1-3.3c0-0.7,0-1.4,0.1-2.2c0.9-5.8,0.3-11.6,0.4-17.3
				c0-0.7-0.2-1.4-0.8-2c-1.2-7.8-4.3-14.9-7.1-22.1c-5.5-14.4-9-29.3-8.4-44.9c0.1-3.1,0.6-6.2,1-9.8c-6,4.2-12.2,6.9-18.8,8.9
				c-9.3,2.7-18.9,3.6-28.6,3.6c-3.5,0-5.2,1.3-6.3,4.4c-5.4,14.5-5.6,28.9-2.2,43.2c0.9,1.2,1.9,2.3,2.9,3.4c2.7,3,5.5,5.9,8.5,8.8
				c7.3-0.4,14.5-1.8,21.5-4.1C84.7,232.8,85.2,232,85.2,230.6z"/>
			<path fill="#FEFEFE" d="M93.9,270.2c2.8,0.2,5.7,0.3,8.5,0.5c-4.3-1.7-8.6-3.7-12.8-5.7c0,0.1,0,0.1,0,0.2
				C90.1,268.3,90.6,270,93.9,270.2z"/>
			<path fill="#FDFAC7" d="M121.5,239.8c0.6,1.6-0.4,3.2-0.1,4.9c0,2.1,0,4.2,0,6.3c-0.2,5.2-0.3,10.4-0.5,15.6c2,0.5,4.1,1,6.2,1.4
				c0-0.2,0-0.3,0-0.5c0.1-10.5,1-21,0.8-31.6c0-2.8,0.9-5.5,0.4-8.3c-0.8-4.6-0.5-9.2-0.3-13.9c1.2-4.6-0.2-8.9-1.6-13.3
				c-3.3-10.6-5.6-21.4-4.5-32.6c0.2-2,0.1-4.2,1.2-6c1.2-2,1-3.9,0.7-6c-0.3-1.7-0.9-2.2-2.7-1.7c-2.7,0.8-5.1,2.2-7.6,3.3
				c-5.1,3.1-6.3,8.2-6.6,13.6c-1.3,19.7,3,38.4,11.2,56.3C119.9,231.3,121.1,235.5,121.5,239.8z"/>
			<path fill="#FDFAC7" d="M31.1,197.9c0.3,0.7,0.6,1.4,1,2.1c0.4,0.8,0.9,1.7,1.4,2.5c4.9,6.7,9.7,13.5,14.8,20
				c-1.7-8.4-2-16.9-0.9-25.7c1-7.3,2.4-14.5,7-20.6c1.1-1.4,0-1.8-1.2-1.8c-5,0-9.9-0.6-14.9-1.1c-2.7-0.2-4.4,0.9-5.4,3.6
				c-1.2,3-2.1,6-2.9,9C31.4,189.8,32,193.8,31.1,197.9z"/>
			<path fill="#FDD41F" d="M23,172.7c0.2,0.3,0.4,0.6,0.6,0.9c0.2-0.8,0.1-1.6-0.4-2.5c-0.1-0.2-0.3-0.4-0.4-0.6
				C22.9,171.2,23,172,23,172.7z"/>
			<path fill="#EE5D79" d="M27,179.4c0.7,1.3,1.4,2.7,2,4.1c0.6-2.2,1.4-4.3,2.3-6.4c0.7-1.5,0.5-2.1-1.3-2.4
				c-3-0.4-4.4-0.5-5.4,0.5C25.5,176.6,26.3,178,27,179.4z"/>
			<path fill="#353530" d="M120.3,266.4c0.5,0.1,0.9,0.2,1.4,0.4c0.1-5.4,0.3-10.8,0.4-16.2c-0.5-2.1-0.5-4.1,0-6.2
				c0.1-1.6,0.1-3.1-0.5-4.5c-0.3,0.7,0.1,1.6-0.7,2.1c0.3,6.7-0.2,13.4-0.4,20.1C120.3,263.5,120.3,264.9,120.3,266.4z"/>
			<path fill="#FED41F" d="M166.7,126.9c1.9,2.3,2.8,4.8,1.2,7.6c-1.6,2.8-4.3,3.6-7.4,3.4c-1-0.1-2-0.4-3-0.6
				c-0.6-0.5-1.1-1.5-2-1.1c-0.9,0.4,0.2,1.2,0,1.9c-0.7,2.2-1.2,4.4-1.9,6.5c-1.5,4.5-2.9,9.1-2.6,13.9c0.1,1.3-0.5,2.1-1.6,2.8
				c-7,4.4-14.4,4.7-22.1,2.2c-1.4-0.5-1.6-1.4-1.5-2.6c0.1-1.8,0.2-3.5-0.2-5.3c-0.5-2.4-0.1-5.2-4.2-3.3c-1.5,0.7-3.2-0.6-3.6-2.5
				c-0.4-1.9,0.3-3.5,2.3-4.1c4.1-1.2,8.3-1.6,12.6-0.9c1.2,0.2,2.7,0.4,3.1-1.2c0.4-1.5-0.2-2.6-1.7-3.1c-1.5,0.9,1.2,1.9,0,2.5
				c-0.8,0.4-2,0.1-3,0c-5.1-0.2-10.1,0.6-15,2.1c-0.8,0.2-1.6,0.5-2.4,0.7c-6.4,1.6-6.9,1.1-5.7-5.3c1.1-2.1,2.2-4.2,3.4-6.2
				c1.2-1.9,2.5-4,4.6-4.9c2.1-0.9,4.6-1,5.8-3.7c-1.7-0.2-2.3,1.2-3.3,1.6c-4.7,2.1-10.5,0.4-12.1-3.7c-1.7-4.3,1.7-9.9,6.9-11.4
				c0.8-0.2,1.6-0.4,2.4-0.4c3.8,0,7.5,0,10-4.2c2.3,7.5,3.3,15.4,12.8,16.1c-3.5-0.9-6.4-2.7-8.7-7c4.9,2.2,8.4,0.7,10.9-2.9
				c3-4.1,3.7-8.8,2.4-13.6c-1.8-6.9-8.7-8.5-12.6-4.2c-0.8,0.8-1.3,1.4-2.3-0.1c-2.5-3.8-2.9-3.9-7.1-4.6c1.2-3.2,2.4-3.6,6.5-2.5
				c-0.3-1.5-0.9-3-0.2-4.4c0.7-0.9,1.6-1.6,2.9-1.4c3,0.5,5.9-0.4,8.9-1.1c8.2-1.8,15.9-0.2,24.1,2.6c-4.7,5.1-5.4,10.8-4.4,17
				c0.8,5.2-1.3,9.8-4.4,13.9c-2.7,3.6-5.7,7.1-8.6,10.6c-1,1.2-1.9,2.3-1.3,3.9c0.6,1.6,2,2,3.5,2.1c3.3,0.3,6.6,0.8,9.4-1.7
				c0.8-0.8,1.7-0.7,2.5,0c1.4,1.2,0.4,2.4-0.2,4c2.2-1.1,2-2.7,1.9-4.3c1,0,0.7,1.2,1.6,1.3c0.5-1.6-0.6-2.3-1.7-3.1
				c-0.6-0.4-2-0.2-1.4-1.5c0.4-1,1.2-1.6,2.5-1.5C164.2,125.5,165.4,126.3,166.7,126.9z"/>
			<path fill="#FEFEFE" d="M200.9,272.5c0.6-1.9,1.2-3.8,2-5.6c-6.9,2-13.8,3.9-20.8,5.6H200.9z"/>
			<path fill="#FEFEFE" d="M224.8,200.4c0.4-2.4,1.4-4.7,0.9-7.3c1-5,3.2-9.5,5.6-13.9c-2.6,0.1-5.2,0.4-7.7,0.2
				c-17.5-0.8-33.2-7-48.1-15.8c-1.8-1.1-2.3-1-2.7,1.2c-3.7,18.6-11.9,35.2-22.9,50.4c-4.6,6.4-9.2,12.7-11.1,20.5
				c-1.5,7.5-3.3,15-3.8,22.6c-0.2,3.5-0.4,7.1-0.6,10.6c3.5,0.3,7.1,0.4,10.6,0.1c19.9-1.5,39.7-7.2,58.9-13
				c-0.2-2.5-0.5-5.1-0.6-7.6c-0.2-2.2-1-3.4-3.2-4.2c-9.1-3.2-17.7-7.5-25.6-13c-1.6-1.1-3.3-2.2-4.4-4.5c0.8,0.2,1.1,0.2,1.3,0.4
				c11.8,9.6,25.5,15.2,39.9,19.2c2.1,0.6,4.3,1.1,6.5,1.5c1.9-1.1,3.8-2.2,5.4-3.3c1.9-1.3,3.7-2.6,5.4-4c0-0.3,0-0.7-0.2-1
				C223.9,226.9,222.9,213.8,224.8,200.4z"/>
			<path fill="#FDFAC7" d="M133.1,268.9c0.1-1.6,0.1-3.3,0.2-4.9c0.5-9.8,1.5-19.6,4.8-29c1.2-4.8,2.8-9.5,5.9-13.5
				c6.2-8.1,11.8-16.5,16.4-25.6c5.1-10.1,9.6-20.4,11.1-31.8c0.3-1.9-0.3-3.3-1.6-4.7c-2.7-2.9-6.1-4.5-9.5-6.3
				c-0.7-0.2-1.4-0.4-2.1-0.6c-5.2-1.8-6.1-1.1-5.7,4.5c0,0.4-0.1,1.1,0.1,1.2c1.4,0.9,0.5,1.8-0.1,2.6c-6.6,9.9-12,20.5-16.9,31.3
				c-1.6,1.1-1.5,2.8-1.8,4.4c-0.6,1.9-1.3,3.8-1.8,5.6c-2.4,7.9-2.8,16-3.2,24.1c-0.6,0.7-0.6,1.5-0.6,2.3
				c-0.8,13.1-1.3,26.1-1.6,39.2C128.8,268.3,130.9,268.6,133.1,268.9z"/>
			<path fill="#2D2C24" d="M127.5,268c0.2-8.4,0.5-16.9,0.9-25.3c0.2-5.5,0.4-10.9,0.5-16.4c-0.9-0.8-0.6-1.9-0.6-2.9
				c-0.1-3.3-0.1-6.5-0.1-9.8c-0.7,1.8-0.4,3.7-0.5,5.5c-0.2,5-0.2,9.9-0.4,14.9c-0.3,11.2-0.8,22.5-1.1,33.7
				C126.6,267.9,127,268,127.5,268z"/>
			<path fill="#FDFAC7" d="M228.9,240.4c6.5-5.1,12.5-10.9,19-16.2c-0.7-14.9,1.6-29.5,7.1-43.8c1-2.7,0.5-3.2-2.2-3.4
				c-5-0.4-9.9-0.2-14.9,0.4c-2.7,0.3-4.7,1.6-6.1,4.1c-2.2,4-3.9,8.2-5.3,12.5c-0.7,1-1,2-1.2,3.2c-2.2,11-1.9,22,0.3,32.9
				C226.2,233.6,226.8,237.3,228.9,240.4z"/>
			<path fill="#FDD41F" d="M253.6,199.9c2.3,0.1,4.5-0.7,7,0.1c0.1,0,0.1,0,0.2,0.1c0.9-2.3,1.7-4.6,2.4-6.9c0.6-1.9,1.9-3,3.3-3.4
				c0.5-1.7,1-3.5,1.3-5.3c0.8-3.7,1.4-7.7,2.8-11.3c-3.1,1.1-5.9,2.9-8.5,5.2c-1.3,1.2-2.5,2.6-4.5,2.5c-0.4-1.6,2-1.2,1.6-2.7
				c-2,0.7-2,0.6-2.7,2c-2.5,5.5-4,11.3-5.2,17.2C250.9,199.5,251.8,199.8,253.6,199.9z"/>
			<path fill="#FDFAC7" d="M249.2,223.1c2.5-3.7,4.9-7.6,7-11.6c1.3-3.3,2.7-6.6,3.9-9.9c-2.2-0.5-4.4-0.8-6.8-0.3
				c-1.9,0.4-2.9,0.7-3.1,2.7c-0.4,4.7-0.9,9.5-1.2,12c-0.1,2.5-0.1,4.8,0,7.1C249.1,223.2,249.1,223.2,249.2,223.1z"/>
			<path fill="#2C2C27" d="M228.2,241c0.3-0.3,0.7-0.5,1-0.8c-0.9-2.9-2-5.7-2.6-8.6c-2.8-12.5-2.7-25-0.1-37.5
				c-0.2-0.3-0.5-0.6-0.7-0.9c-3.1,9.7-3.3,19.5-2.1,29.5C224.3,228.9,225.5,235.2,228.2,241z"/>
			<path fill="#6AABC9" d="M133.3,195.3c-1.4,2.7-2.2,5.7-3.2,8.6c-1.2-0.3-1.3-1.4-1.6-2.2c-2-4.8-3.1-9.9-3.9-15
				c-0.6-4,1.4-7.2,3.9-10.1c1.3-1.5,3.3-0.9,5-0.6c1.5,0.3,1.3,1.7,1.4,2.8c0.4,4,0.7,8,0.3,12.1
				C134.7,192.5,134.7,194.2,133.3,195.3z"/>
			<path fill="#69A9C6" d="M131,166.5c2.5,0.1,6.1,2.8,5.8,4.6c-0.3,1.7-0.7,3.5-3.2,3.4c-4.2-0.2-6.5-1.8-6.5-4.8
				C127.1,168.2,129.1,166.5,131,166.5z"/>
			<path fill="#EB5C77" d="M149.2,163.6c-2.4,3.9-4.4,7.1-6.1,9.9c-2.4-2.2-4.8-4.4-7.6-6.9C140.2,166.2,144.5,165.7,149.2,163.6z"
				/>
			<path fill="#E65A75" d="M137.4,185c-0.7-3.6-1.7-7.1-0.4-10.5c0.3-0.8,0.7-2.8,2-2.1c1.4,0.8,3.3,2.3,2.5,4.4
				C140.3,179.7,138.7,182.3,137.4,185z"/>
			<path fill="#DF5772" d="M124,180.9c-0.9-2.7-1.2-5,0.1-7.2c0.5-0.8,0.6-2.6,1.8-1.9c1,0.6,2.1,2.2,1.2,3.7
				C126.3,177.3,125.2,178.9,124,180.9z"/>
			<path fill="#DC5670" d="M123.6,171.3c-0.5-2.1-0.2-3.6,0-5.1c0.2-1.9,1-2.4,2.9-1.5c1.5,0.7,1.6,1.1,0.5,2.3
				C125.8,168.2,124.9,169.6,123.6,171.3z"/>
			<path fill="#262F30" d="M133.3,195.3c0.3-1.6,0.9-3.1,1.8-4.4c0.1,0.5,0.1,1,0.6,1.3c-0.4,1.6-0.9,3.1-1.8,4.4
				C133.7,196.2,133.5,195.7,133.3,195.3z"/>
			<path fill="#FCFCFC" d="M127.5,108.2c0-1,0-1.2,0-1.4c0.2-1.2-0.3-3.3,0.9-3.3c1.7,0,4-0.1,5,2.1c1,2,2.1,2.1,3.5,0.4
				c1.4-1.8,3-0.8,4.4-0.2c1.7,0.6,1,2,0.7,3.2c-0.4,1.5-1,3-2,4.2c-1.8,2.2-3.9,4.2-7.1,3.4c-3.3-0.8-4.6-3.3-5.2-6.3
				C127.5,109.3,127.5,108.4,127.5,108.2z"/>
			<path fill="#FBD31F" d="M142.4,102.9c0,0.6,0.1,1.5-0.8,1.2c-3.4-1.2-7-0.3-10.4-1.4c-2.2-0.7-2.8-1.7-1.4-3.8
				c1.9-2.9,5-4.5,7.8-3.7C140.1,95.9,142.5,99.7,142.4,102.9z"/>
			<path fill="#FBD31F" d="M116.6,102.8c-0.4-3.2,0.4-5.5,2.1-7.6c1.4-1.7,3.2-2.5,5.2-1.6c2.3,1,3.7,2.9,3.9,5.5
				c0.1,1.3-0.7,1.8-1.9,1.8C122.8,101,119.8,101.6,116.6,102.8z"/>
			<path fill="#F7F7F7" d="M116.5,105.6c0.3-1.1,0.4-2.5,2-1c1.2,1.1,2.1,0.8,2.5-0.6c0.2-0.8,0.7-1.2,1.5-1.3
				c1.3-0.1,3.1-0.8,3.8,0.2c0.8,1-0.4,2.5-1.1,3.6c-0.6,0.9-1.4,1.8-2.2,2.5c-1.2,1-2.8,2-4.2,1.3
				C117.1,109.3,116.9,107.3,116.5,105.6z"/>
			<path fill="#171614" d="M122,250.6c-0.8-2.1-0.9-4.1,0-6.2C122.4,246.5,122.3,248.5,122,250.6z"/>
			<path fill="#292308" d="M267.3,186.7c0.1-0.4,0.2-0.9,0.3-1.4c-2.8-0.6-5.7-0.2-7.8,1.6C262.5,186.1,265,186.1,267.3,186.7z"/>
		</g>
	</g>
</g>
<g id="Calque_3">
	<path fill="#F0F1F2" d="M146.3,10.4C73.8,10.4,15,69.2,15,141.7S73.8,273,146.3,273s131.3-58.8,131.3-131.3S218.8,10.4,146.3,10.4z
		 M146.3,262.7c-66.8,0-121-54.2-121-121s54.2-121,121-121s121,54.2,121,121S213.2,262.7,146.3,262.7z"/>
</g>
</svg>
