<?xml version="1.0" encoding="utf-8"?>
<!-- Generator: Adobe Illustrator 17.1.0, SVG Export Plug-In . SVG Version: 6.00 Build 0)  -->
<!DOCTYPE svg PUBLIC "-//W3C//DTD SVG 1.1//EN" "http://www.w3.org/Graphics/SVG/1.1/DTD/svg11.dtd" [
	<!ENTITY ns_extend "http://ns.adobe.com/Extensibility/1.0/">
	<!ENTITY ns_ai "http://ns.adobe.com/AdobeIllustrator/10.0/">
	<!ENTITY ns_graphs "http://ns.adobe.com/Graphs/1.0/">
	<!ENTITY ns_vars "http://ns.adobe.com/Variables/1.0/">
	<!ENTITY ns_imrep "http://ns.adobe.com/ImageReplacement/1.0/">
	<!ENTITY ns_sfw "http://ns.adobe.com/SaveForWeb/1.0/">
	<!ENTITY ns_custom "http://ns.adobe.com/GenericCustomNamespace/1.0/">
	<!ENTITY ns_adobe_xpath "http://ns.adobe.com/XPath/1.0/">
]>
<svg version="1.1" xmlns:x="&ns_extend;" xmlns:i="&ns_ai;" xmlns:graph="&ns_graphs;"
	 xmlns="http://www.w3.org/2000/svg" xmlns:xlink="http://www.w3.org/1999/xlink" x="0px" y="0px" viewBox="0 0 283.5 283.5"
	 enable-background="new 0 0 283.5 283.5" xml:space="preserve">
<metadata>
	<sfw  xmlns="&ns_sfw;">
		<slices></slices>
		<sliceSourceBounds  height="410.2" width="267.5" bottomLeftOrigin="true" x="8.6" y="-135.2"></sliceSourceBounds>
	</sfw>
</metadata>
<g id="Calque_3_1_">
	<circle fill="#E5E681" cx="142.6" cy="142.6" r="127.4"/>
</g>
<g id="Calque_1">
	<g id="Calque_4">
		<g>
			<path fill="none" d="M160.1,198.2c0.3-0.1,0.6-0.2,0.9-0.3C160.7,198,160.4,198,160.1,198.2z"/>
			<path fill="none" d="M161.5,197.8c0.4-0.1,0.9-0.2,1.4-0.3C162.3,197.6,161.9,197.7,161.5,197.8z"/>
			<path fill="none" d="M91,138.1C90.9,138.1,90.9,138.1,91,138.1C90.9,138.1,90.9,138.1,91,138.1z"/>
			<path fill="none" d="M158.9,198.6c0.3-0.1,0.5-0.2,0.8-0.3C159.4,198.4,159.1,198.5,158.9,198.6z"/>
			<path fill="none" d="M154.8,201.4c0.2-0.2,0.4-0.4,0.6-0.6C155.2,201,155.1,201.2,154.8,201.4z"/>
			<path fill="none" d="M96.2,131L96.2,131L96.2,131z"/>
			<path fill="none" d="M154,202.4c0.2-0.3,0.4-0.5,0.6-0.8C154.4,201.9,154.2,202.2,154,202.4z"/>
			<path fill="none" d="M156.7,199.8c0.2-0.2,0.4-0.3,0.7-0.4C157.1,199.6,156.9,199.7,156.7,199.8z"/>
			<path fill="none" d="M157.7,199.1c0.3-0.1,0.4-0.3,0.7-0.3C158.2,198.9,158,199.1,157.7,199.1z"/>
			<path fill="none" d="M155.8,200.6c0.2-0.2,0.4-0.3,0.6-0.5C156.1,200.3,155.9,200.4,155.8,200.6z"/>
			<path fill="none" d="M102.4,230.1c0.1,0,0.1,0,0.2-0.1C102.5,230.1,102.5,230.1,102.4,230.1z"/>
			<path fill="none" d="M102.7,230c0.1,0,0.1,0,0.2,0C102.8,230,102.7,230,102.7,230z"/>
			<path fill="none" d="M101.9,230.2c0.1,0,0.2-0.1,0.3-0.1C102.1,230.1,102,230.2,101.9,230.2z"/>
			<path fill="none" d="M102.9,230C102.9,230,102.9,229.9,102.9,230C102.9,229.9,102.9,230,102.9,230z"/>
			<path fill="none" d="M79.7,246.8c4.6-10.6,17.8-15.3,21.9-16.5c-0.1,0-0.3,0.1-0.4,0.1l3.7-7.4l0.5-0.9c1.8-1,4-1.9,6.4-2.6
				c0.8-11.2-2.7-17.9-7.3-25c-6.8-10.6-5.3-15.9-5.3-15.9c-16.7-10.6-28.8-21.9-26.4-27.2c2.2-5.3,17.4,0.8,17.4,0.8
				c-2-4.9-1.4-9.4,0.2-13c-9.3-0.9-21.6-4.6-7.7-19.5c0,0-19.7-23.4,9.8-24.2c0,0-5.3-25.7,21.2-21.2c0,0,11.3-30.2,34.8-6
				c0,0,18.9-17.4,37.8,7.6c0,0,37.8-7.6,26.4,26.4c0,0,25.7,0,15.9,31c0,0,12.9,10.6,0,26.4c0,0,13.6,22.7-12.9,29.4
				c0,0-0.8,12.1-14.3,15.1c0,0-15.1,17.4-28.8,6.8c0,0-14.1,6-18.7-8.6c-3,3.9-4,9.4-4.1,14.3c0.5,0.1,0.9,0.1,1.4,0.2
				c4.2,0.6,6.9,2.6,8.5,4.5c1.7,2,2.2,3.9,2.2,3.9l-0.3,10.5c9.5,1.8,13.1,14.9,14.5,23.6c50.9-14.6,88.2-61.6,88.2-117.2
				c0-67.3-54.6-121.9-121.9-121.9S20.5,74.9,20.5,142.2C20.5,186.6,44.3,225.5,79.7,246.8z"/>
			<path fill="#E30D13" d="M129.7,228.2L129.7,228.2C129.7,228.2,129.7,228.2,129.7,228.2z"/>
			<path fill="#E30D13" d="M129.3,228.2L129.3,228.2L129.3,228.2z"/>
			<path fill="#E30D13" d="M115.8,244.2c0,0.6,0,1.3,0,1.9C115.9,245.5,115.9,244.8,115.8,244.2z"/>
			<path fill="#E30D13" d="M130,228.3c0.1,0,0.1,0,0.2,0C130.1,228.3,130,228.3,130,228.3z"/>
			<path fill="#E30D13" d="M129.2,228.2L129.2,228.2L129.2,228.2z"/>
			<path fill="#E30D13" d="M132.4,228.3c0.1,0,0.2,0,0.2,0C132.6,228.3,132.5,228.3,132.4,228.3z"/>
			<path fill="#E30D13" d="M131.2,228.3c0.1,0,0.2,0,0.2,0C131.2,228.3,131.2,228.3,131.2,228.3z"/>
			<path fill="#E30D13" d="M130.5,228.3c0.1,0,0.1,0,0.2,0C130.5,228.3,130.5,228.3,130.5,228.3z"/>
			<path fill="#E30D13" d="M133.3,228.3c0.1,0,0.3,0,0.3,0C133.6,228.3,133.5,228.3,133.3,228.3z"/>
			<path fill="#E30D13" d="M112,231.5c-0.3-0.4-0.5-0.8-0.7-1.2C111.6,230.7,111.8,231.2,112,231.5z"/>
			<path fill="#E30D13" d="M115.3,240c-0.1-0.5-0.3-1.1-0.4-1.6C115,238.9,115.2,239.4,115.3,240z"/>
			<path fill="#E30D13" d="M115.6,241.8c-0.1-0.5-0.2-1-0.3-1.6C115.4,240.7,115.5,241.2,115.6,241.8z"/>
			<path fill="#E30D13" d="M134.2,228.2c0.1,0,0.3,0,0.3,0C134.4,228.2,134.3,228.2,134.2,228.2z"/>
			<path fill="#E30D13" d="M115.8,243.9c0-0.6-0.1-1.2-0.2-1.8C115.7,242.7,115.8,243.3,115.8,243.9z"/>
			<path fill="#E30D13" d="M114.7,238c-0.2-0.5-0.3-1-0.5-1.6C114.5,237,114.7,237.5,114.7,238z"/>
			<path fill="#E30D13" d="M112.8,232.9c-0.2-0.4-0.4-0.8-0.6-1.2C112.3,232.1,112.5,232.5,112.8,232.9z"/>
			<path fill="#E30D13" d="M114.2,236.3c-0.2-0.4-0.3-0.9-0.5-1.4C113.9,235.3,114.1,235.8,114.2,236.3z"/>
			<path fill="#E30D13" d="M113.5,234.5c-0.2-0.4-0.4-0.9-0.6-1.4C113.1,233.7,113.4,234.1,113.5,234.5z"/>
			<path fill="#E30D13" d="M135.2,228.2c0.2,0,0.3,0,0.4,0C135.5,228.2,135.3,228.2,135.2,228.2z"/>
			<path fill="#E30D13" d="M149.6,226.3c0.2,0,0.3-0.1,0.4-0.1C149.9,226.2,149.8,226.3,149.6,226.3z"/>
			<path fill="#E30D13" d="M148.5,226.6c0.1,0,0.3-0.1,0.3-0.1C148.8,226.5,148.6,226.5,148.5,226.6z"/>
			<path fill="#E30D13" d="M147,226.9c0.2,0,0.3-0.1,0.5-0.1C147.3,226.9,147.1,226.9,147,226.9z"/>
			<path fill="#E30D13" d="M144.4,227.4c0.2,0,0.3-0.1,0.5-0.1C144.8,227.3,144.6,227.3,144.4,227.4z"/>
			<path fill="#E30D13" d="M145.8,227.1c0.2,0,0.3-0.1,0.5-0.1C146.2,227,146,227.1,145.8,227.1z"/>
			<path fill="#E30D13" stroke="#000000" stroke-width="2" d="M111,230.1c-0.3-0.3-0.4-0.7-0.7-1c0.9-3.5,1.3-6.7,1.5-9.6
				c-2.4,0.7-4.7,1.6-6.4,2.6l-0.5,0.9C106.7,224.5,109,226.9,111,230.1z"/>
			<path fill="#E30D13" d="M131.9,228.3c-0.1,0-0.2,0-0.3,0C131.8,228.3,131.8,228.3,131.9,228.3z"/>
			<path fill="#E30D13" stroke="#000000" stroke-width="2" d="M150.3,226.1c3.5-1,6.9-2.5,9.3-4.6c-1.6-1.9-4.3-3.9-8.5-4.5
				c-0.4-0.1-0.9-0.1-1.4-0.2C149.7,220.6,150.1,223.9,150.3,226.1z"/>
			<path fill="#E30D13" d="M136.2,228.2c0.2,0,0.3,0,0.4,0C136.5,228.2,136.3,228.2,136.2,228.2z"/>
			<path fill="#E30D13" d="M138.5,228.1c0.2,0,0.3,0,0.4,0C138.8,228.1,138.7,228.1,138.5,228.1z"/>
			<path fill="#E30D13" d="M137.2,228.2c0.2,0,0.3,0,0.4,0C137.5,228.2,137.4,228.2,137.2,228.2z"/>
			<path fill="#E30D13" d="M143.2,227.6c0.2,0,0.3-0.1,0.5-0.1C143.5,227.5,143.3,227.6,143.2,227.6z"/>
			<path fill="#E30D13" d="M139.5,228c0.2,0,0.3,0,0.4-0.1C139.9,227.9,139.7,228,139.5,228z"/>
			<path fill="#E30D13" d="M140.7,227.8c0.2,0,0.3,0,0.4-0.1C141,227.8,140.8,227.8,140.7,227.8z"/>
			<path fill="#E30D13" d="M142.1,227.7c0.2,0,0.3,0,0.4-0.1C142.4,227.6,142.2,227.6,142.1,227.7z"/>
			<path fill="#FFCE00" stroke="#000000" stroke-width="2" d="M111,230.1c0.1,0.1,0.2,0.3,0.3,0.3c0.3,0.3,0.5,0.8,0.7,1.2
				c0,0.1,0.1,0.1,0.1,0.2c0.3,0.3,0.4,0.8,0.6,1.2c0.1,0.1,0.1,0.2,0.2,0.3c0.3,0.4,0.4,0.9,0.6,1.4c0.1,0.1,0.1,0.2,0.2,0.3
				c0.2,0.4,0.3,0.9,0.5,1.4c0,0.1,0,0.1,0.1,0.2c0.2,0.5,0.3,1,0.5,1.6c0,0.1,0.1,0.3,0.1,0.3c0.2,0.5,0.3,1,0.4,1.6
				c0,0.1,0,0.2,0,0.3c0.1,0.5,0.2,1,0.3,1.6c0,0.1,0,0.2,0.1,0.3c0.1,0.6,0.1,1.2,0.2,1.8c0,0.1,0,0.3,0,0.3c0,0.6,0,1.3,0,1.9
				l13.2-17.8l0.1-0.1c0,0,0,0,0.1,0l0,0h0.1c0,0,0,0,0.1,0s0.2,0,0.3,0h0.1c0.1,0,0.2,0,0.3,0c0.1,0,0.1,0,0.2,0c0.1,0,0.2,0,0.3,0
				s0.1,0,0.2,0c0.2,0,0.3,0,0.5,0c0.1,0,0.2,0,0.2,0c0.2,0,0.3,0,0.4,0c0.1,0,0.2,0,0.3,0c0.2,0,0.3,0,0.5,0c0.1,0,0.2,0,0.2,0
				c0.3,0,0.4,0,0.7,0c0.1,0,0.3,0,0.3,0c0.2,0,0.3,0,0.5,0c0.1,0,0.3,0,0.3,0c0.2,0,0.4,0,0.7,0c0.2,0,0.3,0,0.4,0
				c0.2,0,0.4,0,0.6,0c0.2,0,0.3,0,0.4,0s0.3,0,0.6,0c0.2,0,0.3,0,0.4,0c0.3,0,0.6,0,0.9-0.1c0.2,0,0.3,0,0.4,0s0.4,0,0.6-0.1
				c0.2,0,0.3,0,0.4-0.1c0.3,0,0.4-0.1,0.7-0.1c0.2,0,0.3,0,0.4-0.1c0.3,0,0.7-0.1,0.9-0.1c0.2,0,0.3,0,0.4-0.1
				c0.2,0,0.4-0.1,0.6-0.1s0.3-0.1,0.5-0.1c0.3,0,0.5-0.1,0.8-0.1c0.2,0,0.3-0.1,0.5-0.1c0.3-0.1,0.5-0.1,0.9-0.2
				c0.2,0,0.3-0.1,0.5-0.1c0.3,0,0.4-0.1,0.7-0.2c0.2,0,0.3-0.1,0.5-0.1c0.3-0.1,0.7-0.2,1-0.3c0.1,0,0.3-0.1,0.3-0.1
				c0.3-0.1,0.5-0.1,0.8-0.2c0.2,0,0.3-0.1,0.4-0.1s0.2-0.1,0.3-0.1c-0.3-2.2-0.6-5.5-0.5-9.2c0.2-4.9,1.1-10.4,4.1-14.3l0,0
				l0.1-0.1c0.2-0.3,0.4-0.5,0.6-0.8c0.1-0.1,0.2-0.2,0.2-0.3c0.2-0.2,0.4-0.4,0.6-0.6c0.1-0.1,0.2-0.2,0.3-0.3
				c0.2-0.2,0.4-0.3,0.6-0.5c0.1-0.1,0.3-0.2,0.3-0.3c0.2-0.2,0.4-0.3,0.7-0.4c0.1-0.1,0.3-0.2,0.4-0.3c0.3-0.1,0.4-0.3,0.7-0.3
				c0.2-0.1,0.3-0.2,0.4-0.2c0.3-0.1,0.5-0.2,0.8-0.3c0.2-0.1,0.3-0.1,0.4-0.2c0.3-0.1,0.6-0.2,0.9-0.3c0.2,0,0.3-0.1,0.4-0.1
				c0.4-0.1,0.9-0.2,1.4-0.3c0,0,6.8,15.1,24.2,3c0,0,11.3-15.9-9.1-20.4c0,0-8.3-9.1,5.3-12.1c0,0-11.3-12.1,6-19.7
				c0,0-15.9-10.6-2.2-20.4c0,0-23.4,0-15.9-17.4c0,0-21.2,6-22.7-11.3c0,0-14.3,12.9-18.9-1.6c0,0-13.2,2.2-15,12.4
				c6.8,1.5,12,7.5,12,14.8c0,8.2-6.6,14.9-14.7,15.1c-1.9-1.1-4.2-2-6.8-1.4c-3.7-1.7-6.6-4.8-7.9-8.6c-0.3,0.3-0.6,0.6-1,0.9l0,0
				c-1.5,1.5-3.6,3.9-5.2,7v0.1c-0.2,0.3-0.3,0.7-0.5,1l0,0c-1.6,3.6-2.2,8.1-0.2,13c0,0-15.1-6-17.4-0.8
				c-2.2,5.3,9.8,16.7,26.4,27.2c0,0-1.6,5.3,5.3,15.9c4.5,7,8,13.7,7.3,25c-0.2,2.8-0.7,6-1.5,9.6
				C110.6,229.4,110.9,229.7,111,230.1z M143.2,130.1c8.8,0,15.9,7.1,15.9,15.9s-7.1,15.9-15.9,15.9s-15.9-7.1-15.9-15.9
				S134.4,130.1,143.2,130.1z"/>
			<path fill="#F18500" stroke="#000000" stroke-width="2" d="M90.9,138.2C90.9,138.1,90.9,138.1,90.9,138.2
				c1.6-3.2,3.7-5.6,5.3-7.1l0,0c0.4-0.4,0.8-0.7,1-0.9c-0.6-1.6-0.9-3.3-0.9-5.1c0-8.4,6.7-15.1,15.1-15.1c1,0,2.1,0.1,3.1,0.3
				c1.8-10.2,15-12.4,15-12.4c4.6,14.3,18.9,1.6,18.9,1.6c1.5,17.4,22.7,11.3,22.7,11.3c-7.6,17.4,15.9,17.4,15.9,17.4
				c-13.6,9.8,2.2,20.4,2.2,20.4c-17.4,7.6-6,19.7-6,19.7c-13.6,3-5.3,12.1-5.3,12.1c20.4,4.6,9.1,20.4,9.1,20.4
				c-17.4,12.1-24.2-3-24.2-3c-0.5,0.1-0.9,0.2-1.4,0.3c-0.2,0-0.3,0.1-0.4,0.1c-0.3,0.1-0.6,0.2-0.9,0.3c-0.2,0.1-0.3,0.1-0.4,0.2
				c-0.3,0.1-0.5,0.2-0.8,0.3c-0.2,0.1-0.3,0.2-0.4,0.2c-0.3,0.1-0.5,0.3-0.7,0.3s-0.3,0.2-0.4,0.3c-0.3,0.2-0.4,0.3-0.7,0.4
				c-0.1,0.1-0.3,0.2-0.3,0.3c-0.2,0.2-0.4,0.3-0.6,0.5c-0.1,0.1-0.2,0.2-0.3,0.3c-0.2,0.2-0.4,0.4-0.6,0.6
				c-0.1,0.1-0.2,0.2-0.2,0.3c-0.3,0.3-0.4,0.5-0.6,0.8l-0.1,0.1l0,0c4.7,14.6,18.7,8.6,18.7,8.6c13.6,10.6,28.8-6.8,28.8-6.8
				c13.6-3,14.3-15.1,14.3-15.1c26.4-6.8,12.9-29.4,12.9-29.4c12.9-15.9,0-26.4,0-26.4c9.8-31-15.9-31-15.9-31
				c11.3-34-26.4-26.4-26.4-26.4c-18.9-25-37.8-7.6-37.8-7.6c-23.4-24.2-34.8,6-34.8,6c-26.4-4.6-21.2,21.2-21.2,21.2
				c-29.4,0.8-9.8,24.2-9.8,24.2c-13.8,14.9-1.6,18.6,7.7,19.5l0,0C90.6,138.8,90.7,138.4,90.9,138.2z"/>
			<path fill="#FFFFFF" stroke="#000000" stroke-width="2" d="M143.2,161.8c8.8,0,15.9-7.1,15.9-15.9s-7.1-15.9-15.9-15.9
				s-15.9,7.1-15.9,15.9S134.4,161.8,143.2,161.8z M137.9,131.8c2.1,0,3.8,1.7,3.8,3.8c0,2.1-1.7,3.8-3.8,3.8
				c-2.1,0-3.8-1.7-3.8-3.8C134.1,133.5,135.8,131.8,137.9,131.8z"/>
			<path fill="#FFFFFF" stroke="#000000" stroke-width="2" d="M96.4,125c0,1.8,0.3,3.5,0.9,5.1c1.4,3.8,4.2,7,7.9,8.6
				c2.6-0.6,4.9,0.2,6.8,1.4c8.1-0.3,14.7-6.9,14.7-15.1c0-7.3-5.2-13.4-12-14.8c-1-0.2-2.1-0.3-3.1-0.3
				C103.1,109.9,96.4,116.7,96.4,125z M106.9,121.3c-2.1,0-3.8-1.7-3.8-3.8s1.7-3.8,3.8-3.8s3.8,1.7,3.8,3.8S109,121.3,106.9,121.3z
				"/>
			<circle fill="#12100B" cx="137.9" cy="135.6" r="3.8"/>
			<circle fill="#12100B" cx="106.9" cy="117.5" r="3.8"/>
			<path fill="#E30D13" stroke="#000000" stroke-width="2" d="M100.7,261.3c0.3,0.2,1-0.2,1.2,0c0,0,3.2-18.1,3.2-20.6l-5.8-0.4
				l3.7-10.4c0,0,0,0-0.1,0c0,0,0,0-0.1,0c0,0-0.1,0-0.2,0c0,0-0.1,0-0.2,0c-0.1,0-0.1,0-0.2,0.1c-0.1,0-0.2,0.1-0.3,0.1
				c-0.1,0-0.2,0.1-0.3,0.1c-0.1,0-0.2,0-0.3,0.1c-4.1,1.2-20,9-24.5,19.6c3,1.8,7.1,4,10.3,5.5c3.4,0.1,6.9,2,12.1,5.4L100.7,261.3
				z"/>
			<path fill="#E30D13" stroke="#000000" stroke-width="2" d="M150.1,226.2c-0.2,0-0.3,0.1-0.4,0.1c-0.3,0.1-0.5,0.1-0.8,0.2
				c-0.1,0-0.3,0.1-0.3,0.1c-0.3,0.1-0.7,0.2-1,0.3c-0.2,0-0.3,0.1-0.5,0.1c-0.3,0.1-0.4,0.1-0.7,0.2c-0.2,0-0.3,0.1-0.5,0.1
				c-0.3,0.1-0.5,0.1-0.9,0.2c-0.2,0-0.3,0.1-0.5,0.1c-0.3,0-0.5,0.1-0.8,0.1c-0.2,0-0.3,0.1-0.5,0.1c-0.2,0-0.4,0.1-0.6,0.1
				s-0.3,0-0.4,0.1c-0.3,0-0.7,0.1-0.9,0.1c-0.2,0-0.3,0-0.4,0.1c-0.3,0-0.4,0.1-0.7,0.1c-0.2,0-0.3,0-0.4,0.1c-0.2,0-0.4,0-0.6,0.1
				c-0.2,0-0.3,0-0.4,0c-0.3,0-0.6,0.1-0.9,0.1c-0.2,0-0.3,0-0.4,0c-0.2,0-0.3,0-0.6,0c-0.2,0-0.3,0-0.4,0c-0.2,0-0.4,0-0.6,0
				c-0.2,0-0.3,0-0.4,0c-0.3,0-0.4,0-0.7,0c-0.1,0-0.3,0-0.3,0c-0.2,0-0.3,0-0.5,0c-0.1,0-0.3,0-0.3,0c-0.3,0-0.4,0-0.7,0
				c-0.1,0-0.2,0-0.2,0c-0.2,0-0.3,0-0.5,0c-0.1,0-0.2,0-0.3,0c-0.2,0-0.3,0-0.4,0c-0.1,0-0.2,0-0.2,0c-0.2,0-0.3,0-0.5,0
				c-0.1,0-0.1,0-0.2,0c-0.1,0-0.2,0-0.3,0s-0.1,0-0.2,0s-0.2,0-0.3,0h-0.1c-0.1,0-0.2,0-0.3,0c0,0,0,0-0.1,0c-0.1,0-0.1,0-0.1,0
				l0,0h-0.1l-0.1,0.1c2.1,3.1,5.2,9,6.3,17.8c0,0,4.3-0.8,9.9-2.3c2.7-4.2,6.6-7.4,12.5-8.1c1.4-0.2,2.6-0.1,3.8,0.1l0.3-10.5
				c0,0-0.5-1.9-2.2-3.9c-2.4,2.1-5.8,3.5-9.3,4.6C150.2,226.1,150.1,226.2,150.1,226.2z"/>
			<path fill="#E30D13" stroke="#000000" stroke-width="2" d="M135.4,246.1c-1-8.8-4.2-14.7-6.3-17.8l-13.2,17.8c0-0.7,0-1.3,0-1.9
				c0-0.1,0-0.3,0-0.3c0-0.6-0.1-1.2-0.2-1.8c0-0.1,0-0.2-0.1-0.3c-0.1-0.5-0.2-1-0.3-1.6c0-0.1,0-0.2,0-0.3
				c-0.1-0.5-0.3-1.1-0.4-1.6c0-0.1-0.1-0.3-0.1-0.3c-0.2-0.5-0.3-1-0.5-1.6c0-0.1,0-0.1-0.1-0.2c-0.2-0.4-0.3-0.9-0.5-1.4
				c-0.1-0.1-0.1-0.2-0.2-0.3c-0.2-0.4-0.4-0.9-0.6-1.4c-0.1-0.1-0.1-0.2-0.2-0.3c-0.2-0.4-0.4-0.8-0.6-1.2c0-0.1-0.1-0.1-0.1-0.2
				c-0.3-0.4-0.5-0.8-0.7-1.2c-0.1-0.1-0.2-0.3-0.3-0.3c-2.1-3.1-4.3-5.4-6.1-7l-3.7,7.4c0.2-0.1,0.3-0.1,0.4-0.1
				c0.1,0,0.2,0,0.3-0.1c0.1,0,0.2-0.1,0.3-0.1c0.1,0,0.2-0.1,0.3-0.1s0.1,0,0.2-0.1c0.1,0,0.1,0,0.2,0c0.1,0,0.1,0,0.2,0
				c0,0,0,0,0.1,0h0.1l-3.7,10.4l5.8,0.4l1.6-7.9l-1.6,7.9c0,2.5-2.5,16.2-2.5,16.2c-0.3-0.2-0.6-0.3-0.9-0.5l0.2,0.8
				c11.8,4.2,24.5,9.8,37.7,10.1c0.3-5.4,1.7-17.1,5.7-23.4C139.7,245.3,135.4,246.1,135.4,246.1z"/>
			<path fill="#E30D13" stroke="#000000" stroke-width="2" d="M161.6,235.8c-1.2-0.3-2.4-0.3-3.8-0.1c-5.9,0.7-9.8,3.9-12.5,8.1
				c-4.1,6.4-5.3,18.1-5.6,23.3c0.9,0,1.8-3.1,2.7-3.1c11.7,0,24.2,1.3,34.9-1.8C176,253.7,171,237.7,161.6,235.8z"/>
			<line fill="none" x1="105" y1="240.8" x2="106.7" y2="232.8"/>
			<path fill="#FFCE00" d="M101.7,260.4c0.3,0.2-0.6,0.7-0.3,0.9c-0.3-0.2-0.5,0.2-0.7,0L101.7,260.4z"/>
		</g>
		<path fill="none" stroke="#000000" stroke-width="2" d="M173.5,198.4c-0.2-0.2-0.3,0.2-0.3,0.3s0.3,0.2,0.5,0.2
			c0.8,0.1,1.6,0.1,2.2-0.1c1.9-0.6,2.7-2.8,2.7-4.7c-0.1-2.9-1.8-5.8-4.3-7.3c1.4-1,3.4-1,4.9-0.4c1.6,0.6,2.8,1.9,3.9,3.3
			c0.6,0.9,1.2,1.9,1.2,2.9s-0.8,2.2-1.8,2.2"/>
		<path fill="none" stroke="#000000" stroke-width="2" stroke-linecap="round" d="M149.9,182.6c2.5,2.6,3.7,6.3,3.3,9.8
			c-0.2,1.3-0.5,2.6-1.4,3.6c-0.9,0.9-2.3,1.5-3.5,1"/>
		<path fill="#FFCE00" stroke="#000000" stroke-width="2" stroke-linecap="round" d="M143.7,192.8c0,0-37-6.9-44.3-13.7"/>
		<path fill="#FFCE00" stroke="#000000" stroke-width="2" d="M90.3,152.2c0,0,6,2.6,11.4,0"/>
		<path fill="#FFCE00" stroke="#000000" stroke-width="2" stroke-linecap="round" d="M113.7,158.8c-0.6,0.6-16.7-2.8-16.1-13
			c0.6-10.1,13.6-8.5,18.1-3.7"/>
	</g>
	<g id="Calque_3" display="none">
		<g display="inline" opacity="0.5">
			<path fill="#E30D13" d="M115.9,246.6l13.4-18c0,0,21.7,1.1,30.7-6.8c-1.6-1.9-4.3-3.9-8.6-4.5c-8.8-1.3-35.1-1.3-46,5l-0.5,0.9
				C109,227,116.1,235.1,115.9,246.6"/>
			<path fill="none" stroke="#12100B" stroke-width="4" stroke-linecap="round" stroke-linejoin="round" d="M115.9,246.6l13.4-18
				c0,0,21.7,1.1,30.7-6.8c-1.6-1.9-4.3-3.9-8.6-4.5c-8.8-1.3-35.1-1.3-46,5l-0.5,0.9C109,227,116.1,235.1,115.9,246.6L115.9,246.6
				L115.9,246.6z"/>
			<path fill="#FFCE00" d="M178.4,180.2c0,0-8.4-9.2,5.4-12.2c0,0-11.4-12.2,6.1-19.8c0,0-16-10.6-2.2-20.5c0,0-23.6,0-16-17.5
				c0,0-21.3,6.1-22.8-11.4c0,0-14.5,13-19-1.6c0,0-13.7,2.2-15.2,13l-16.8,19c0,0-13,9.9-7.6,22.8c0,0-15.2-6.1-17.5-0.8
				c-2.2,5.4,9.9,16.8,26.7,27.4c0,0-1.6,5.4,5.4,16c5.7,8.9,9.8,17.3,5.8,34.7c3,4.2,5.7,10,5.5,17.3l13.4-18
				c0,0,11.6,0.6,21.3-2.2c-0.9-7.1-2.4-26.9,12.6-28.8c0,0,6.8,15.2,24.3,3C187.5,200.8,198.9,184.8,178.4,180.2"/>
			<path fill="none" stroke="#12100B" stroke-width="4" stroke-linecap="round" stroke-linejoin="round" d="M178.4,180.2
				c0,0-8.4-9.2,5.4-12.2c0,0-11.4-12.2,6.1-19.8c0,0-16-10.6-2.2-20.5c0,0-23.6,0-16-17.5c0,0-21.3,6.1-22.8-11.4
				c0,0-14.5,13-19-1.6c0,0-13.7,2.2-15.2,13l-16.8,19c0,0-13,9.9-7.6,22.8c0,0-15.2-6.1-17.5-0.8c-2.2,5.4,9.9,16.8,26.7,27.4
				c0,0-1.6,5.4,5.4,16c5.7,8.9,9.8,17.3,5.8,34.7c3,4.2,5.7,10,5.5,17.3l13.4-18c0,0,11.6,0.6,21.3-2.2
				c-0.9-7.1-2.4-26.9,12.6-28.8c0,0,6.8,15.2,24.3,3C187.5,200.8,198.9,184.8,178.4,180.2L178.4,180.2L178.4,180.2z"/>
			<g>
				<g>
					<defs>
						<rect id="SVGID_1_" x="60.2" y="57.1" width="176" height="360.4"/>
					</defs>
					<clipPath id="SVGID_2_">
						<use xlink:href="#SVGID_1_"  overflow="visible"/>
					</clipPath>
					<path clip-path="url(#SVGID_2_)" fill="#F18500" d="M229.4,133c9.9-31.2-16-31.2-16-31.2c11.4-34.3-26.7-26.7-26.7-26.7
						c-19-25.1-38.1-7.6-38.1-7.6c-23.6-24.3-35.1,6.1-35.1,6.1C86.9,69.1,92.3,95,92.3,95c-29.7,0.8-9.9,24.3-9.9,24.3
						c-14,14.9-1.6,18.7,7.8,19.6c2.5-6,7.4-9.8,7.4-9.8l16.8-19c1.6-10.6,15.2-13,15.2-13c4.6,14.4,19,1.6,19,1.6
						c1.7,17.4,23.1,11.4,23.1,11.4c-7.6,17.5,16,17.5,16,17.5c-13.7,9.9,2.2,20.5,2.2,20.5c-17.5,7.6-6.1,19.8-6.1,19.8
						c-13.7,3-5.4,12.2-5.4,12.2c20.5,4.6,9.2,20.5,9.2,20.5c-17.5,12.2-24.3-3-24.3-3c-4.1,0.5-7,2.4-9,5
						c4.7,14.7,18.9,8.7,18.9,8.7c13.7,10.6,28.9-6.8,28.9-6.8c13.7-3,14.5-15.2,14.5-15.2c26.7-6.8,13-29.7,13-29.7
						C242.4,143.7,229.4,133,229.4,133"/>
				</g>
				<g>
					<defs>
						<rect id="SVGID_3_" x="60.2" y="57.1" width="176" height="360.4"/>
					</defs>
					<clipPath id="SVGID_4_">
						<use xlink:href="#SVGID_3_"  overflow="visible"/>
					</clipPath>
					
						<path clip-path="url(#SVGID_4_)" fill="none" stroke="#12100B" stroke-width="4" stroke-linecap="round" stroke-linejoin="round" d="
						M229.4,133c9.9-31.2-16-31.2-16-31.2c11.4-34.3-26.7-26.7-26.7-26.7c-19-25.1-38.1-7.6-38.1-7.6c-23.6-24.3-35.1,6.1-35.1,6.1
						C86.9,69.1,92.3,95,92.3,95c-29.7,0.8-9.9,24.3-9.9,24.3c-14,14.9-1.6,18.7,7.8,19.6c2.5-6,7.4-9.8,7.4-9.8l16.8-19
						c1.6-10.6,15.2-13,15.2-13c4.6,14.4,19,1.6,19,1.6c1.7,17.4,23.1,11.4,23.1,11.4c-7.6,17.5,16,17.5,16,17.5
						c-13.7,9.9,2.2,20.5,2.2,20.5c-17.5,7.6-6.1,19.8-6.1,19.8c-13.7,3-5.4,12.2-5.4,12.2c20.5,4.6,9.2,20.5,9.2,20.5
						c-17.5,12.2-24.3-3-24.3-3c-4.1,0.5-7,2.4-9,5c4.7,14.7,18.9,8.7,18.9,8.7c13.7,10.6,28.9-6.8,28.9-6.8
						c13.7-3,14.5-15.2,14.5-15.2c26.7-6.8,13-29.7,13-29.7C242.4,143.7,229.4,133,229.4,133L229.4,133L229.4,133z"/>
				</g>
			</g>
			<path fill="#FFFFFF" d="M159.4,145.7c0,8.8-7.2,16-16,16c-8.8,0-16-7.2-16-16c0-8.8,7.2-16,16-16
				C152.2,129.7,159.4,136.9,159.4,145.7"/>
			<path fill="none" stroke="#12100B" stroke-width="4" stroke-linecap="round" stroke-linejoin="round" d="M159.4,145.7
				c0,8.8-7.2,16-16,16c-8.8,0-16-7.2-16-16c0-8.8,7.2-16,16-16C152.2,129.7,159.4,136.9,159.4,145.7L159.4,145.7L159.4,145.7z"/>
			<path fill="#FFFFFF" d="M111.4,109.4c-8.4,0-15.2,6.8-15.2,15.2c0,6.1,3.6,11.4,8.8,13.8c2.6-0.6,4.9,0.2,6.8,1.4
				c8.2-0.3,14.8-7,14.8-15.2C126.7,116.3,119.8,109.4,111.4,109.4"/>
			<path fill="none" stroke="#12100B" stroke-width="4" stroke-linecap="round" stroke-linejoin="round" d="M111.4,109.4
				c-8.4,0-15.2,6.8-15.2,15.2c0,6.1,3.6,11.4,8.8,13.8c2.6-0.6,4.9,0.2,6.8,1.4c8.2-0.3,14.8-7,14.8-15.2
				C126.7,116.3,119.8,109.4,111.4,109.4L111.4,109.4L111.4,109.4z"/>
			<path fill="#12100B" d="M141.9,135.3c0,2.1-1.7,3.8-3.8,3.8c-2.1,0-3.8-1.7-3.8-3.8c0-2.1,1.7-3.8,3.8-3.8
				C140.1,131.5,141.9,133.2,141.9,135.3"/>
			<path fill="#12100B" d="M110.7,117c0,2.1-1.7,3.8-3.8,3.8s-3.8-1.7-3.8-3.8s1.7-3.8,3.8-3.8S110.7,115,110.7,117"/>
			<path fill="none" stroke="#12100B" stroke-width="4" stroke-linecap="round" stroke-linejoin="round" d="M127.4,90.4l2.2,6.8
				 M144.2,191.6c0,0-39.5-6.1-44.9-13 M100,152.8c0,0-8.4,1.6-9.9-0.8 M116.7,144.4c0,0-8.4-12.2-17.5-2.2s14.5,17.5,14.5,17.5
				 M184.5,191.6c0,0-6.8-6.8-10.6-3c0,0,9.9,5.4,0,9.9 M149.5,184c0,0,9.2,8.4,0,13.7"/>
			<path fill="#0E7C5B" d="M176.4,318.2c-30.7,15.9-79.3,4.1-93.9,0c1.3,2.7,4.1,7.9,4.1,7.9s-6.3,20.5-8.4,36.4
				c0,0,31.4,7.1,45.6,3.8l-0.9,3.4c0,0,33.1,5,50.3-2.1c0,0-5-25.6-2.1-31C171,336.6,178.3,329.8,176.4,318.2"/>
			<path fill="none" stroke="#12100B" stroke-width="4" stroke-linecap="round" stroke-linejoin="round" d="M103.7,337.5
				c0,0,14.7,7.9,20.5,7.9l-0.4,20.9 M176.4,318.2c-30.7,15.9-79.3,4.1-93.9,0c1.3,2.7,4.1,7.9,4.1,7.9s-6.3,20.5-8.4,36.4
				c0,0,31.4,7.1,45.6,3.8l-0.9,3.4c0,0,33.1,5,50.3-2.1c0,0-5-25.6-2.1-31C171,336.6,178.3,329.8,176.4,318.2L176.4,318.2
				L176.4,318.2z"/>
			<path fill="#FFCE00" d="M136.9,391.9c0,0,2.5-0.2,9.6,1.1c7.1,1.3,4,7.9,4,7.9c4.9,2.8,16-1.3,18.5-2.2c-1.7-6.8-5-20.8-5-28.6
				c-9.1,1.6-19.5,1.4-27.6,0.9c-0.3,5.3-0.6,15.4-0.2,20.9C136.4,391.9,136.9,391.9,136.9,391.9"/>
			<path fill="none" stroke="#12100B" stroke-width="4" stroke-linecap="round" stroke-linejoin="round" d="M136.9,391.9
				c0,0,2.5-0.2,9.6,1.1c7.1,1.3,4,7.9,4,7.9c4.9,2.8,16-1.3,18.5-2.2c-1.7-6.8-5-20.8-5-28.6c-9.1,1.6-19.5,1.4-27.6,0.9
				c-0.3,5.3-0.6,15.4-0.2,20.9C136.4,391.9,136.9,391.9,136.9,391.9L136.9,391.9L136.9,391.9z"/>
			<path fill="#FFCE00" d="M83.9,380.8c0,0,3.6-0.3,10.7,0.9s4.1,8.5,4.1,8.5c4.2,2.3,12.9-0.3,16.8-1.6c-0.9-5.2-1.4-15.5-1.6-21.4
				c-8.9,0-19.4-1.6-26.8-2.8l-3.5,16.3C83.8,380.7,83.9,380.8,83.9,380.8"/>
			<path fill="none" stroke="#12100B" stroke-width="4" stroke-linecap="round" stroke-linejoin="round" d="M83.9,380.8
				c0,0,3.6-0.3,10.7,0.9s4.1,8.5,4.1,8.5c4.2,2.3,12.9-0.3,16.8-1.6c-0.9-5.2-1.4-15.5-1.6-21.4c-8.9,0-19.4-1.6-26.8-2.8
				l-3.5,16.3C83.8,380.7,83.9,380.8,83.9,380.8L83.9,380.8L83.9,380.8z"/>
			<path fill="#E30D13" d="M102.8,230.3c0,0-28.5,6.7-24.7,28.8c0,0,5.4-14.2,24.3-1.6c0,0,2.5-13.8,2.5-16.3l-5.9-0.4L102.8,230.3"
				/>
			<path fill="none" stroke="#12100B" stroke-width="4" stroke-linecap="round" stroke-linejoin="round" d="M102.8,230.3
				c0,0-28.5,6.7-24.7,28.8c0,0,5.4-14.2,24.3-1.6c0,0,2.5-13.8,2.5-16.3l-5.9-0.4L102.8,230.3L102.8,230.3L102.8,230.3z"/>
			<path fill="#E30D13" d="M161.9,238.1l0.4-12.4c0,0-0.5-1.9-2.3-3.9c-9.2,7.9-30.7,6.8-30.7,6.8l-0.1,0.1c2.1,3.1,5.3,9.1,6.3,18
				C135.5,246.6,151.6,243.8,161.9,238.1"/>
			<path fill="none" stroke="#12100B" stroke-width="4" stroke-linecap="round" stroke-linejoin="round" d="M161.9,238.1l0.4-12.4
				c0,0-0.5-1.9-2.3-3.9c-9.2,7.9-30.7,6.8-30.7,6.8l-0.1,0.1c2.1,3.1,5.3,9.1,6.3,18C135.5,246.6,151.6,243.8,161.9,238.1
				L161.9,238.1L161.9,238.1z"/>
			<path fill="#E30D13" d="M167.8,274.7l-5.9-36.4v-0.2c-10.3,5.7-26.3,8.5-26.3,8.5c-1-8.9-4.2-14.8-6.3-18l-13.4,18
				c0.3-11.7-6.8-19.6-11-23.3l-3.7,7.4c1-0.3,1.7-0.5,1.7-0.5l-3.8,10.4l5.9,0.4c0,2.5-2.5,16.3-2.5,16.3c-0.3-0.2-0.6-0.3-0.9-0.6
				l0.4,2.7c0,0-20.5,22.2-23.8,57.3c0,0,65.3,21.3,101.3-0.4C179.4,316.6,180.7,285.1,167.8,274.7"/>
			<path fill="none" stroke="#12100B" stroke-width="4" stroke-linecap="round" stroke-linejoin="round" d="M167.8,274.7l-5.9-36.4
				v-0.2c-10.3,5.7-26.3,8.5-26.3,8.5c-1-8.9-4.2-14.8-6.3-18l-13.4,18c0.3-11.7-6.8-19.6-11-23.3l-3.7,7.4c1-0.3,1.7-0.5,1.7-0.5
				l-3.8,10.4l5.9,0.4c0,2.5-2.5,16.3-2.5,16.3c-0.3-0.2-0.6-0.3-0.9-0.6l0.4,2.7c0,0-20.5,22.2-23.8,57.3c0,0,65.3,21.3,101.3-0.4
				C179.4,316.6,180.7,285.1,167.8,274.7L167.8,274.7L167.8,274.7z"/>
			<path fill="#E30D13" d="M177.3,267.6c0,0-1.3-33.5-19.3-31.4c-19.8,2.3-18.4,33.5-18.4,33.5C158.5,258.4,177.3,267.6,177.3,267.6
				"/>
			<path fill="none" stroke="#12100B" stroke-width="4" stroke-linecap="round" stroke-linejoin="round" d="M177.3,267.6
				c0,0-1.3-33.5-19.3-31.4c-19.8,2.3-18.4,33.5-18.4,33.5C158.5,258.4,177.3,267.6,177.3,267.6L177.3,267.6L177.3,267.6z"/>
			<path fill="#E30D13" d="M139.7,269.7c18.8,10.9,37.6-2.1,37.6-2.1S158.5,258.4,139.7,269.7"/>
			<path fill="none" stroke="#12100B" stroke-width="4" stroke-linecap="round" stroke-linejoin="round" d="M139.7,269.7
				c18.8,10.9,37.6-2.1,37.6-2.1S158.5,258.4,139.7,269.7L139.7,269.7L139.7,269.7z"/>
			<line fill="none" x1="106.6" y1="233.3" x2="105" y2="241.2"/>
			
				<line fill="none" stroke="#12100B" stroke-width="4" stroke-linecap="round" stroke-linejoin="round" x1="106.6" y1="233.3" x2="105" y2="241.2"/>
			<path fill="#A12216" d="M93.6,391.3c-1.3-2-10.7-4.6-14.5-5.5l-0.7,1.7c0,0-1.2-0.1-2.9,0c4.5,1.8,15.4,6.7,15.4,6.7L93.6,391.3"
				/>
			<path fill="none" stroke="#12100B" stroke-width="4" stroke-linecap="round" stroke-linejoin="round" d="M93.6,391.3
				c-1.3-2-10.7-4.6-14.5-5.5l-0.7,1.7c0,0-1.2-0.1-2.9,0c4.5,1.8,15.4,6.7,15.4,6.7L93.6,391.3L93.6,391.3L93.6,391.3z"/>
			<path fill="#A12216" d="M119.9,394.1c-0.3-2-0.9-4.3-2.2-6.3c0,0-13.4,5.6-19,2.5c0,0,2.9-7.3-4.1-8.5s-10.7-0.9-10.7-0.9
				s-2.2-0.9-3.1,0.7l-1.6,4.4c3.8,0.9,13.2,3.5,14.5,5.5l-2.8,2.9c0,0-10.8-4.9-15.4-6.7c-3.7,0.3-9.9,1.3-11.7,5.9l-0.1,0.2
				c8.3,4.7,15.2,3.5,28.3,3.8C103.6,397.7,115.8,395.1,119.9,394.1"/>
			<g>
				<g>
					<defs>
						<rect id="SVGID_5_" x="60.2" y="57.1" width="176" height="360.4"/>
					</defs>
					<clipPath id="SVGID_6_">
						<use xlink:href="#SVGID_5_"  overflow="visible"/>
					</clipPath>
					
						<path clip-path="url(#SVGID_6_)" fill="none" stroke="#12100B" stroke-width="4" stroke-linecap="round" stroke-linejoin="round" d="
						M119.9,394.1c-0.3-2-0.9-4.3-2.2-6.3c0,0-13.4,5.6-19,2.5c0,0,2.9-7.3-4.1-8.5s-10.7-0.9-10.7-0.9s-2.2-0.9-3.1,0.7l-1.6,4.4
						c3.8,0.9,13.2,3.5,14.5,5.5l-2.8,2.9c0,0-10.8-4.9-15.4-6.7c-3.7,0.3-9.9,1.3-11.7,5.9l-0.1,0.2c8.3,4.7,15.2,3.5,28.3,3.8
						C103.6,397.7,115.8,395.1,119.9,394.1L119.9,394.1L119.9,394.1z"/>
				</g>
			</g>
			<path fill="#A12216" d="M92,397.4c-13.1-0.3-20,0.9-28.3-3.8l-2.5,4.1c0,0,3.3,6.6,26.2,6.1c22.9-0.5,32.6-4.7,32.6-4.7
				s0.3-2.2-0.1-4.9C115.8,395.1,103.6,397.7,92,397.4"/>
			<g>
				<g>
					<defs>
						<rect id="SVGID_7_" x="60.2" y="57.1" width="176" height="360.4"/>
					</defs>
					<clipPath id="SVGID_8_">
						<use xlink:href="#SVGID_7_"  overflow="visible"/>
					</clipPath>
					
						<path clip-path="url(#SVGID_8_)" fill="none" stroke="#12100B" stroke-width="4" stroke-linecap="round" stroke-linejoin="round" d="
						M92,397.4c-13.1-0.3-20,0.9-28.3-3.8l-2.5,4.1c0,0,3.3,6.6,26.2,6.1c22.9-0.5,32.6-4.7,32.6-4.7s0.3-2.2-0.1-4.9
						C115.8,395.1,103.6,397.7,92,397.4L92,397.4L92,397.4z"/>
				</g>
			</g>
			<path fill="#A12216" d="M145.2,402.1c-1.3-2-9.3-4.2-13.2-5.2l-0.7,1.7c0,0,0.3,1-1.5,1.2c4.5,1.8,12.5,5.3,12.5,5.3L145.2,402.1
				"/>
			<path fill="none" stroke="#12100B" stroke-width="4" stroke-linecap="round" stroke-linejoin="round" d="M145.2,402.1
				c-1.3-2-9.3-4.2-13.2-5.2l-0.7,1.7c0,0,0.3,1-1.5,1.2c4.5,1.8,12.5,5.3,12.5,5.3L145.2,402.1L145.2,402.1L145.2,402.1z"/>
			<path fill="#A12216" d="M171.5,404.8c-0.3-2-0.9-4.3-2.2-6.3c0,0-13.4,5.6-19,2.5c0,0,3.1-6.6-4-7.9c-7.1-1.3-9.6-1.1-9.6-1.1
				s-2.2-0.5-3.1,1.1l-1.6,3.7c3.9,0.9,11.9,3.2,13.2,5.2l-2.8,2.9c0,0-8-3.4-12.5-5.3c-3.7,0.3-9.2,2.3-11,6.9l-0.1,0.2
				c8.3,4.7,13.1,4.3,26.2,4.6C156.7,411.7,167.4,405.8,171.5,404.8"/>
			<path fill="none" stroke="#12100B" stroke-width="4" stroke-linecap="round" stroke-linejoin="round" d="M171.5,404.8
				c-0.3-2-0.9-4.3-2.2-6.3c0,0-13.4,5.6-19,2.5c0,0,3.1-6.6-4-7.9c-7.1-1.3-9.6-1.1-9.6-1.1s-2.2-0.5-3.1,1.1l-1.6,3.7
				c3.9,0.9,11.9,3.2,13.2,5.2l-2.8,2.9c0,0-8-3.4-12.5-5.3c-3.7,0.3-9.2,2.3-11,6.9l-0.1,0.2c8.3,4.7,13.1,4.3,26.2,4.6
				C156.7,411.7,167.4,405.8,171.5,404.8L171.5,404.8L171.5,404.8z"/>
			<path fill="#A12216" d="M145.1,411.5c-13.1-0.3-18,0-26.2-4.6l-2.5,4.1c0,0-0.6,6.1,22.3,5.6c22.9-0.5,33-6.7,33-6.7
				s0.3-2.2-0.1-4.9C167.4,405.8,156.7,411.7,145.1,411.5"/>
			<g>
				<g>
					<defs>
						<rect id="SVGID_9_" x="60.2" y="57.1" width="176" height="360.4"/>
					</defs>
					<clipPath id="SVGID_10_">
						<use xlink:href="#SVGID_9_"  overflow="visible"/>
					</clipPath>
					
						<path clip-path="url(#SVGID_10_)" fill="none" stroke="#12100B" stroke-width="4" stroke-linecap="round" stroke-linejoin="round" d="
						M105.4,309.9c0,0,4.1,2.8,8.6,2.2 M98.3,285.1c0,0-1.6-4.9,0-6.8 M145.1,411.5c-13.1-0.3-18,0-26.2-4.6l-2.5,4.1
						c0,0-0.6,6.1,22.3,5.6c22.9-0.5,33-6.7,33-6.7s0.3-2.2-0.1-4.9C167.4,405.8,156.7,411.7,145.1,411.5L145.1,411.5L145.1,411.5z"
						/>
				</g>
			</g>
			<path fill="#FFCE00" d="M146.5,266.4c-0.3,3.5-1,10.2-4,13.5c0,0-5.3,4.7-9,6.2c0,0-2.5,0.9-3.7-0.9c0,0-2.2-7.8-9-5.3
				c-6.8,2.5-2.8,7.4-1.9,9.3c0,0,0.9,2-0.3,3.4c0.4,0.4,0.7,0.9,0.6,1.6c-0.6,3.1-7.4,3.7-7.4,3.7s-8.6-1.6-8.6,3.4
				c0,4.9,11.1,3.1,11.1,3.1s6.8-2.8,6.5,1.6c-0.3,4.3-6.8,6.2-6.8,6.2c-0.2,0.9-0.4,1.6-0.7,2.2c3.1,0.9,8.7,2.2,14.1,0.6
				c0,0,2.5,3.1,12.7-4.9c0,0,33.6-3.7,30.7-44.6C165.1,263.9,156.1,263,146.5,266.4"/>
			<path fill="none" stroke="#12100B" stroke-width="4" stroke-linecap="round" stroke-linejoin="round" d="M102.4,257.5
				L102.4,257.5L102.4,257.5L102.4,257.5L102.4,257.5z M102.5,257.5c0-0.1,0-0.2,0.1-0.3C102.5,257.3,102.5,257.4,102.5,257.5
				L102.5,257.5L102.5,257.5z M146.5,266.4c-0.3,3.5-1,10.2-4,13.5c0,0-5.3,4.7-9,6.2c0,0-2.5,0.9-3.7-0.9c0,0-2.2-7.8-9-5.3
				c-6.8,2.5-2.8,7.4-1.9,9.3c0,0,0.9,2-0.3,3.4c0.4,0.4,0.7,0.9,0.6,1.6c-0.6,3.1-7.4,3.7-7.4,3.7s-8.6-1.6-8.6,3.4
				c0,4.9,11.1,3.1,11.1,3.1s6.8-2.8,6.5,1.6c-0.3,4.3-6.8,6.2-6.8,6.2c-0.2,0.9-0.4,1.6-0.7,2.2c3.1,0.9,8.7,2.2,14.1,0.6
				c0,0,2.5,3.1,12.7-4.9c0,0,33.6-3.7,30.7-44.6C165.1,263.9,156.1,263,146.5,266.4L146.5,266.4L146.5,266.4z"/>
			<path fill="#FFCE00" d="M114.4,304.4c0,0-11.1,1.9-11.1-3.1c0-4.9,8.6-3.4,8.6-3.4s6.8-0.6,7.4-3.7c0.6-3.1-8-3.7-8-3.7
				s-4.9,0.3-4.7-2.2c0.3-2.5,1.6-8.4-3.1-10.2c-4.7-1.9-4.9-0.6-5.3,0.3l-3.4-9c3.8-5.8,7.2-9.8,7.2-9.8l-0.4-2.7
				c0.3,0.2,0.6,0.3,0.9,0.6c-18.8-12.5-24.3,1.6-24.3,1.6c-0.1-0.3-0.1-0.6-0.2-0.9c-3.1,5.2-6.4,12.3-6,19.4
				c0.6,12.7,21.1,26.9,21.1,26.9s1.9,10.9,18.6,11.5c0,0,1.9-0.6,2.5-4.1c0,0,6.5-1.9,6.8-6.2C121.2,301.5,114.4,304.4,114.4,304.4
				"/>
			<path fill="none" stroke="#12100B" stroke-width="4" stroke-linecap="round" stroke-linejoin="round" d="M103.9,249.1
				c-0.5,3.1-1,6.2-1.3,7.6C102.8,255.4,103.4,252.3,103.9,249.1L103.9,249.1L103.9,249.1z M102.5,257.1c0-0.1,0-0.2,0.1-0.3
				C102.6,256.9,102.6,257,102.5,257.1L102.5,257.1L102.5,257.1z M114.4,304.4c0,0-11.1,1.9-11.1-3.1c0-4.9,8.6-3.4,8.6-3.4
				s6.8-0.6,7.4-3.7c0.6-3.1-8-3.7-8-3.7s-4.9,0.3-4.7-2.2c0.3-2.5,1.6-8.4-3.1-10.2c-4.7-1.9-4.9-0.6-5.3,0.3l-3.4-9
				c3.8-5.8,7.2-9.8,7.2-9.8l-0.4-2.7c0.3,0.2,0.6,0.3,0.9,0.6c-18.8-12.5-24.3,1.6-24.3,1.6c-0.1-0.3-0.1-0.6-0.2-0.9
				c-3.1,5.2-6.4,12.3-6,19.4c0.6,12.7,21.1,26.9,21.1,26.9s1.9,10.9,18.6,11.5c0,0,1.9-0.6,2.5-4.1c0,0,6.5-1.9,6.8-6.2
				C121.2,301.5,114.4,304.4,114.4,304.4L114.4,304.4L114.4,304.4z"/>
		</g>
	</g>
</g>
<g id="Calque_2">
	<path fill="#F0F1F2" d="M142.4,8.5C68.5,8.5,8.6,68.4,8.6,142.2S68.5,276,142.4,276s133.7-59.9,133.7-133.7S216.2,8.5,142.4,8.5z
		 M142.4,264.2c-67.3,0-121.9-54.6-121.9-121.9S75,20.3,142.4,20.3s121.9,54.6,121.9,121.9S209.7,264.2,142.4,264.2z"/>
</g>
</svg>
