<?xml version="1.0" encoding="utf-8"?>
<!-- Generator: Adobe Illustrator 17.1.0, SVG Export Plug-In . SVG Version: 6.00 Build 0)  -->
<!DOCTYPE svg PUBLIC "-//W3C//DTD SVG 1.0//EN" "http://www.w3.org/TR/2001/REC-SVG-20010904/DTD/svg10.dtd" [
	<!ENTITY ns_extend "http://ns.adobe.com/Extensibility/1.0/">
	<!ENTITY ns_ai "http://ns.adobe.com/AdobeIllustrator/10.0/">
	<!ENTITY ns_graphs "http://ns.adobe.com/Graphs/1.0/">
	<!ENTITY ns_vars "http://ns.adobe.com/Variables/1.0/">
	<!ENTITY ns_imrep "http://ns.adobe.com/ImageReplacement/1.0/">
	<!ENTITY ns_sfw "http://ns.adobe.com/SaveForWeb/1.0/">
	<!ENTITY ns_custom "http://ns.adobe.com/GenericCustomNamespace/1.0/">
	<!ENTITY ns_adobe_xpath "http://ns.adobe.com/XPath/1.0/">
]>
<svg version="1.0" xmlns:x="&ns_extend;" xmlns:i="&ns_ai;" xmlns:graph="&ns_graphs;"
	 xmlns="http://www.w3.org/2000/svg" xmlns:xlink="http://www.w3.org/1999/xlink" x="0px" y="0px" viewBox="0 0 283.5 283.5"
	 enable-background="new 0 0 283.5 283.5" xml:space="preserve">
<metadata>
	<sfw  xmlns="&ns_sfw;">
		<slices></slices>
		<sliceSourceBounds  width="262.6" height="262.6" x="15" y="10.4" bottomLeftOrigin="true"></sliceSourceBounds>
	</sfw>
</metadata>
<g id="Calque_2">
	<circle fill="#36B3F2" cx="146.3" cy="141.7" r="121"/>
</g>
<g id="Calque_4">
	<g id="Wrq8CN.tif">
		<g>
			<path fill="#D8D8D8" d="M95.5,258.9c4.5,1.5,9.1,2.7,13.8,4c9,2.4,17.9,5.6,27.2,6.3c2.9,0.2,5.9,0.4,8.9,0.5
				c0.4-0.6,0.8-1.2,0.9-1.9c0-0.4,0-0.7-0.3-1c-4-0.9-8.1-1.5-12-2.8c-4.3-1.5-8.6-3.1-12.5-5.4c-6.8-3.9-12.3-9.1-17.2-15.1
				c-3.7-4.6-3.6-3.2-2.1-9.1c0.2-1,0.1-1.8-0.9-2.2c-1.4-0.3-2.4,0.5-3.1,1.5c-0.7,1.1-1.2,2.2-1.6,3.5c-1.1,3.1-1.4,6.4-2,9.6
				c-0.3,1.8-0.4,3.5-0.2,5.3C94.6,254.4,95,256.7,95.5,258.9z"/>
			<path fill="#D7D7D7" d="M158,269.2c4.5-1.9,9.4-3.1,13.5-3.8c3.7-0.6,7.3-1,11.1-1.2c0.1-2.3,0-4.7-0.4-7
				c-0.8-2.2-1.3-2.3-2.9-0.6c-0.8,0.8-1.5,1.6-2.4,2.3c-5.5,3.7-11.5,6.1-18,7.3c-2.2,0.4-2.5,0.9-1.1,2.6
				C157.8,269,157.9,269.1,158,269.2z"/>
			<path fill="#BBAFBD" d="M94.5,258.6c0.3,0.1,0.5,0.2,0.8,0.2c-0.2-0.9-0.4-1.9-0.6-2.8c-0.7-2.2-0.4-4.5-0.5-6.8
				c-0.1-1.6-0.8-2.3-2.3-2c-1,0.2-2.1,0.1-3.1,0.5c-0.7,0.3-1.3,0.6-1.8,1C89.8,250.7,93.2,254.6,94.5,258.6z"/>
			<path fill="#4F1E1B" d="M156.7,269.8c0.4-0.2,0.7-0.3,1.1-0.5c-0.5-0.6-1-1.3-1.5-1.9c-0.5-0.6-1-0.9-1.8-0.7
				c-1.6,0.3-3.2,0.2-4.8,0.2c-1.4,0-2.5,0.5-3.2,1.7c-0.3,0.4-0.5,0.8-0.8,1.2C149.4,269.9,153,269.9,156.7,269.8z"/>
			<path fill="#16120B" d="M103.3,217.8c1.1,0.1,1.1,0.7,1,1.5c-0.3,2.3-0.8,4.5-0.8,6.8c-0.4,2.2,0,4.7-2,6.5
				c1,0.7,0.5,1.5,0.2,2.2c-1.2,3.2-0.7,5.7,1.7,8.4c3.8,4.3,7.7,8.5,12.2,12c4.3,3.3,9,5.9,14.1,7.7c5.3,1.9,10.6,3.6,16.3,4.1
				c0.5,0.3,0.3,0.6,0.1,1c-0.4,0.6-0.8,1.2-1.1,1.7c0.4,0,0.9,0,1.3,0.1c0.2-0.3,0.4-0.6,0.6-0.9c0.6-1,1.4-1.7,2.7-1.6
				c1.4,0.1,3,0.3,4.3-0.1c1.4-0.4,2,0.2,2.7,1.1c0.3,0.4,0.6,0.7,0.9,1.1c0.4-0.2,0.7-0.3,1.1-0.5c-0.5-0.7-1-1.3-1.5-2
				c4.7-0.8,8.9-1.9,12.9-3.8c3.6-1.7,7.2-3.4,9.9-6.5c1.2-1.4,1.2-1.4,1.9,0.2c0.9,1.6,0.4,3.4,0.8,5c0.1,0.4,0,0.9,0.5,0.9
				c0.6,0,0.5-0.6,0.6-1c0.2-1.2-0.4-2.4-0.3-3.7c0-0.3-0.1-0.5-0.1-0.8c-0.6-0.9-0.4-1.9-0.3-2.9c-1.1-0.2-1.9-0.8-2.3-1.8
				c0.2-0.6,0.1-1.2,0.1-1.8c0-3.5,0-7,0-10.4c0-0.7,0-1.4,0.5-2c0.1-0.1,0.2-0.2,0.3-0.4c-0.1-0.9-0.2-0.9-1.4-0.1
				c-0.3,0.3-0.4,0.7-0.4,1.1c-0.1,4.4,0,8.7,0,13.1c0,0.9-0.1,1.8-0.4,2.6c-0.3,0.5-0.7,0.9-1.1,1.3c-2.5,2.8-5.9,4.2-9.2,5.9
				c-0.5,0.4-1,0.5-1.6,0.7c-0.5,0.1-1.1,0.3-1.6,0.5c-7.1,2.6-14.4,3.2-21.9,2.1c-4.7-0.7-9.2-2.1-13.7-3.7c-0.9,0-1.8-0.4-2.6-0.9
				c-2.7-1.1-5.1-2.8-7.6-4.1c-0.7-0.2-1.1-0.7-1.6-1.1c-5.7-4.1-10.6-9-14.9-14.5c-1-1.2-1.2-2.4-0.9-3.8
				c1.2-5.2,2.1-10.4,2.8-15.6c0.7-5.6,1-11.2,1.2-16.8c0.1-1.6,0-3.2,0-4.8c0-0.9,0.2-1.5,1.2-1.8c0.7-0.2,1.4-0.5,1.1-1.3
				c-0.2-0.8-1-0.6-1.6-0.5c-3.7,0.5-6.9-0.5-9.6-3.1c-0.4-0.4-0.8-0.7-1.4-0.9c-0.9-0.2-1.1,0.3-1.3,1c-0.2,0.8,0.1,1.6-0.2,2.4
				c-0.2,5.1-0.4,10.2,1.3,15.2C97.2,214.4,99.2,217.3,103.3,217.8z"/>
			<path fill="#BBAFBD" d="M182.8,257.8c0.7,2.2,0.5,4.3,0.1,6.4c1.5-0.1,2.9-0.1,4.4-0.1c0.6-0.2,1.2-0.4,1.8-0.7
				c0.7-0.3,1.5-0.6,2.4-1c-1-3.3-3.5-5.9-7.1-6.9c-0.6-0.2-1.4-0.5-1.9,0c-0.5,0.6,0.2,1.1,0.3,1.7
				C182.8,257.4,182.8,257.6,182.8,257.8z"/>
			<path fill="#181718" d="M86.8,248.7c0.2,0.1,0.3,0.2,0.5,0.4c0.4-0.3,0.9-0.6,1.4-0.9c1.2-0.6,2.5-0.6,3.7-0.8
				c1.1-0.1,1.6,0.4,1.5,1.6c-0.1,2.4,0,4.9,0.5,7.3c0.1,0.8,0.3,1.6,0.4,2.4c0.4,0.1,0.8,0.2,1.2,0.4c-1-4.2-1.5-8.5-0.8-13
				c0.7-3.9,1.1-7.8,3-11.4c0.7-1.4,1.7-2.2,3.3-2.1c0.7-0.5,1.6-0.8,1.7-1.9c0-1.5,0.6-3.1,0.3-4.6c-0.3,1.5-0.6,3-0.9,4.6
				c-0.1,0.5-0.1,1.2-0.9,1c-2.4-0.5-3.5,1-4.5,2.8c-1.7,3.2-2.2,6.7-2.7,10.2c-0.2,1.3-0.6,1.8-2,1.7c-2.2-0.1-4.6,0.2-6,1.9
				C86.5,248.5,86.7,248.6,86.8,248.7z"/>
			<path fill="#1C1B1D" d="M182.7,255.7c4.2,0.5,7.3,3.1,8.5,6.9c0.7-0.3,1.5-0.7,2.3-1.1c-1.1-0.5-2.1-1.2-2.9-2.4
				c-1.8-2.8-4.6-4.1-7.8-4.5c-0.7,0.9-1,1.8,0,2.7C182.9,256.7,182.4,256.2,182.7,255.7z"/>
			<path fill="#282729" d="M182.2,264.2c0.4,0,0.8-0.1,1.1-0.1c0.3-2.1,0.3-4.2-0.4-6.3c-0.3,1.6,0.6,3.2,0,5.1
				c-0.2-1.4-0.3-2.4-0.4-3.4c-0.1-0.9,0-1.9-0.8-2.6C182.2,259.4,182.4,261.8,182.2,264.2z"/>
			<path fill="#140F07" d="M181.1,75.1c5.3,1,10.4,2.9,15.4,5c0.6,0.3,1.1,0.6,1.7,0.9c1.4,0.8,2.9,1.6,4.3,2.4
				c0.7,0.4,1.4,0.9,2,1.3c4.3,2.8,7.9,6.3,10.2,10.9c2.5,5,2.7,10.3,1.3,15.6c-1.7,6.9-5,12.9-10.7,17.5c-1.1,0.9-2.1,1.8-3.5,2.2
				c-0.7,0.3-1.4,0.6-1.5,1.5c0,0.3-0.3,0.6-0.7,0.4c-0.6-0.6-0.6-1.4-0.7-2.2c-0.7-6.3-2.6-12-6.3-17.2c-0.9-1.4-2.1-2-3.8-1.9
				c-5.4,0.3-10.1-1.7-14.6-4.4c-0.5-0.5-1-0.9-1.7-1.1c-1.1-0.7-2.1-0.7-3.3-0.2c-3.6,1.4-7.3,1.5-10.9,0.3c-0.9-0.4-1.7-0.9-2.6-1
				c-1.3-0.6-2.4-0.4-3.7,0.2c-5.1,2.3-10.4,3.6-15.8,4.6c-2.3,0.5-4.7,1-7.1,1.3c-0.8,0.1-1.3,0.6-1.8,1.1c-0.9,0.9-1.8,1.8-3,2.4
				c-0.7,0.2-1.2,0.7-1.7,1.2c-1.9,1.2-4,2-6.1,2.8c-0.9,0.3-1.6,0.6-1.7,1.8c-0.3,3.8-1.5,7.4-2.7,11c-2.1,5.8-2.5,11.6-1.5,17.6
				c0.4,2.6,1,5.3,1.4,7.9c0.8,4.7,0.9,9.4-1,14c-0.1,0.3-0.3,0.5-0.4,0.7c-1,1.6-1.2,1.7-2.8,0.8c-0.2-0.1-0.4-0.2-0.6-0.3
				c-1.3-0.6-2.4-1.5-3.9-1.6c-3.2-0.3-5.5,1.2-7.4,3.6c-0.4,0.5-0.9,0.9-1.1,1.5c-0.9,0.9-0.7,2.4-1.8,3.2c-0.9-0.9,0-1.7,0.2-2.5
				c-0.1-0.1,0-0.2,0.1-0.2c1.4-3,0.9-6.2,0.5-9.3c-0.1-0.7-0.3-1.4-0.5-2.1c-1.1-3.6-2.1-7.2-3.7-10.7c-0.2-0.3-0.3-0.7-0.4-1
				c-0.1-0.5-0.3-1-0.5-1.4c-2-4.3-3.8-8.8-4.7-13.5c-1.5-7.8-1.2-15.5,1.8-23c0.1-0.2,0.1-0.4,0.2-0.6c0.3-0.6,0.6-1.2,1-1.7
				c1.8-3.1,4.2-5.3,7.8-5.9c1.2-0.2,1.8-0.8,2.3-1.8c2.4-4.7,5.6-8.7,9.9-11.8c0.4-0.4,1-0.6,1.3-1c5.9-3.8,12.5-4.5,19.2-5.3
				c11.6-1.3,22.7-4.3,33.2-9.5c2.4-1.2,5-1.8,7.6-2.6C172.6,74.4,176.9,74.4,181.1,75.1z"/>
			<path fill="#1C1A0F" d="M199.8,133c0.5-0.9,0.7-2.1,2.1-2c-1.1,0.6-1.3,1.6-1.2,2.8c0.1,2.1,0,4.2-0.1,6.4
				c-0.1,2.6,0.2,3.2,2.6,4.3c2.7,1.3,3.3,4.1,1.4,7.1c-0.4,0.6-0.8,1.2-1.2,1.8c-1,1.4-1.5,2.7-0.2,4.2c0.6,0.8,0.6,1.8,0.4,2.7
				c-0.2,1.1,0.1,1.9,1,2.6c2.2,1.9,2.4,3.9,1.4,6.7c-1.7,4.7-1.8,9.7-1.3,14.7c0.5,5.3,2.5,10.1,5,14.8c0.7,1.3,1.4,2.7,1.6,4.2
				c0.7,4.5-1.5,7.2-5.5,9c-4.3,1.9-8.9,2.3-13.5,2.7c-2.8,0.3-2.8,0.2-3.6,2.8c-0.4,1.3-0.6,2.7-1.2,4c-0.7,1.5-0.2,2.5,0.7,3.6
				c1,1.3,1.9,2.7,2.3,4.4c0.6,2.5-0.2,4.2-2.5,5.1c-2.2,0.9-4.5,1.6-6.4,3.1c-0.4-1.1-0.8,0.3-1.1,0c-0.2-0.8,0.4-1.2,1-1.6
				c1.4-1.1,3.1-1.8,4.8-2.4c3.1-1.2,3.7-2.7,2.1-5.7c-0.2-0.4-0.5-0.9-0.8-1.3c-0.3-0.6-0.7-0.7-1.4-0.3c-4.2,2.4-8.8,3.1-13.5,3.4
				c-2.3,0.1-4.7,0.4-7,0.4c-13.4,0-25.8-3.7-37.1-10.8c-3.3-2.1-6.2-4.8-7.3-8.8c-1-3.8,0.7-7.3,4.5-8.2c3.5-0.9,7.1-0.9,10.6,0
				c5.4,1.4,10.4,3.7,15.6,5.7c6.9,2.6,13.9,4.3,21.2,5.2c6.7,0.8,13.3,0.7,20-0.2c2.8-0.4,5.7-0.6,8.4-1.3c1.7-0.4,3.4-1,5-1.9
				c3.3-1.9,4.3-4.7,2.8-8.3c-0.7-1.9-1.7-3.7-2.5-5.5c-2.3-4.8-3.8-9.8-3.7-15.1c0.1-4.2,0-8.6,1.7-12.7c0.8-2,0.4-3.1-1-4.3
				c-0.6-0.5-1.1-0.6-1.8-0.1c-4.4,3.5-9.7,4.3-15,5c-1.8,0.2-1.8,0.2-0.8,1.8c0.2,0.4,0.5,0.7,0.7,1.1c0.3,0.7,0.6,1.4,1.2,2
				c2.6,3.9,4.7,7.9,6,12.4c0.6,2,0.6,4.1,0.2,6.1c-0.6,3.3-3.6,5.5-7.4,5.7c-3.5,0.1-6.7-0.9-9.9-2.2c-2.4-0.9-4.7-2.1-6.9-3.4
				c-0.4-0.2-0.9-0.5-1.2-0.8c-0.3-0.3-0.6-0.6-0.4-1c0.2-0.4,0.6-0.4,1-0.4c0.9,0.1,1.6,0.6,2.3,1c4.1,2.1,8.2,4,12.8,4.7
				c1.4,0.2,2.8,0.2,4.1-0.3c2.3-0.7,3.7-2.5,3.8-4.9c0.2-3.9-1.4-7.3-3.1-10.6c-2.2-4.3-4.9-8.4-7.7-12.3c-3.5-5-5.3-10.6-6.3-16.6
				c-0.1-0.8-0.1-1.6,0-2.3c0-0.7,0.1-1.5,0.9-1.6c1-0.1,0.9,0.8,0.9,1.5c0.1,1.1,0.8,1.3,1.6,1.1c3.1-0.5,6.1-0.2,9.2,0
				c4.1,0.3,7.9,1.4,11.5,3.3c1.2,0.6,1.9,0.6,2.5-0.7c0.6-1.1,1.4-2,1.8-3.2c0.5-1.7,0.3-2.8-1.3-3.5c-3.4-1.5-3.8-4.3-3.3-7.4
				c0.2-1.3,0.1-2.6,0.2-3.8C199.4,134.3,199.3,133.6,199.8,133z"/>
			<path fill="#2E2B1A" d="M93.3,176.4c0.2,0.8-0.7,1.7,0.1,2.5c0.5,0.4,0.5,1,0.4,1.5c-0.5,3.9,0.1,7.6,2.2,11
				c0.2,0.3,0.3,0.7,0.1,1.1c-1-0.3-0.8,0.6-1,1c-0.3,0.6,0.2,1.4-0.4,2c0.1-2-0.1-3.8-1.2-5.7c-1.2-2.1-1.4-4.6-1.6-7
				C92.3,180.7,91.9,178.4,93.3,176.4z"/>
			<path fill="#2E2B1A" d="M93.4,164.9c1.4,2.3,1,4.8,1.1,7.2c0,1.5,0.2,3-1.1,4.2C94.7,172.4,93.9,168.6,93.4,164.9z"/>
			<path fill="#1C1A0F" d="M180.5,252.8c0-4.2,0-8.5,0-12.7c0-0.6,0-1.3,0.7-1.5c-0.7,3.3-0.1,6.6-0.4,9.9
				C180.6,249.9,180.8,251.3,180.5,252.8z"/>
			<path fill="#8D8D8D" d="M87,113c-0.1,0.7-0.4,1.3-1,1.7C86.1,113.9,86.3,113.3,87,113z"/>
			<path fill="#5D5D5D" d="M145.9,267c0.3,0,0.6-0.1,0.6,0.3c0,0.3-0.1,0.6-0.5,0.7C146,267.7,145.9,267.3,145.9,267z"/>
			<path fill="#534E53" d="M88.7,248.2c1.4-1.1,3.1-1,4.7-0.8c0.5,0,0.7,0.5,0.6,1c-0.2,2.7,0.3,5.3,0.3,7.9c-0.9-2.3-0.7-4.7-0.7-7
				c0-1.5-0.6-1.7-1.8-1.6C90.9,247.8,89.8,248,88.7,248.2z"/>
			<path fill="#FEDD30" d="M96.2,192.6c-3-4.1-3.3-8.8-2.8-13.7c0.1-1.3,0.6-2.4,1.3-3.4c0.4-0.4,0.8-0.8,1-1.3
				c2.3-3.5,7.1-5.8,11.8-2.3c0.2,0.1,0,0,0.1,0.1c1.7,1.5,2,2.1,3.2-0.8c2-5.6,1.7-11.2,0.4-16.9c-1.5-6.5-2.1-13.1-0.3-19.7
				c0.9-3.3,2.3-6.5,3-9.9c0.3-1.4,0.7-2.8,0.6-4.3c-0.1-1,0.3-1.4,1.2-1.7c2.5-0.7,4.9-1.9,7.2-3.1c0.5-0.2,0.9-0.7,1.4-0.9
				c3-3.9,7.6-4.2,11.9-5c5.6-1.1,11.1-2.4,16.3-4.8c1.3-0.6,2.4-0.8,3.6,0.1c0.8,0.3,1.5,0.8,2.4,1c4.2,1.2,8.2,1.2,12.2-0.9
				c1.1-0.6,1.7,0.7,2.5,1c0.5,0.2,0.9,0.7,1.4,0.9c3.5,2,7.1,3.6,11.1,4.3c1.4,0.2,2.9,0.4,4.3,0.2c1.3-0.1,2,0.4,2.8,1.3
				c4.1,5.4,6.2,11.6,6.9,18.3c0.1,0.7,0.2,1.3,0.3,2c-0.1,2.6-0.2,5.2-0.3,7.8c-0.1,2.2,0.7,3.8,3,4.7c2.1,0.8,2.6,2.3,1.8,4.3
				c-0.7,1.7-2,3.1-2.8,4.7c-0.3,0.5-0.6,0.4-0.9,0.1c-6.6-4.1-13.8-4.5-21.3-4.1c-0.3,0-0.6,0-0.8,0.1c-1.2,0.3-1.8-0.1-1.6-1.5
				c0-0.5,0.3-1.3-0.5-1.4c-0.8,0-0.6,0.8-0.6,1.3c0,5.3,1.6,10.2,4,14.9c2.4,4.8,6.1,8.9,8.6,13.7c1.8,3.4,3.6,6.8,4.3,10.6
				c0.3,1.7,0.4,3.5-0.3,5.1c-1.1,2.4-3.1,3.4-5.7,3.4c-4.6,0.1-8.7-1.8-12.7-3.6c-1.4-0.6-2.8-1.4-4.2-2.1
				c-0.4-0.2-0.9-0.6-1.2-0.1c-0.3,0.5,0.3,0.8,0.6,1c2.9,1.6,5.9,3.2,9,4.3c1.9,0.7,3.8,1.3,5.8,1.5c7.2,1,11.3-3.5,9.5-10.5
				c-1.1-4.3-3.1-8.1-5.3-11.8c-0.3-0.4-0.5-0.9-0.8-1.3c-0.5-0.5-0.6-1.2-1.1-1.6c-0.8-1.1-1.5-2.3-2.4-3.7c2.8,0,5.3-0.4,7.9-0.9
				c3.8-0.7,7.4-2,10.3-4.7c0.2-0.2,0.4-0.5,0.8-0.3c1.8,0.9,2.8,3.5,2.2,5.4c-2.7,8.2-2.5,16.4,0.4,24.6c1,2.8,2.4,5.4,3.7,8.1
				c2.1,4.4,0.7,8.1-3.7,10.2c-2.8,1.3-5.7,1.9-8.7,2.3c-9.9,1.4-19.8,1.6-29.6-0.2c-7.1-1.3-14-3.6-20.7-6.4
				c-5.6-2.3-11.1-4.8-17.4-4.3c-0.5,0-1,0-1.5,0.1c-7,0.6-7.7,6.9-5,11c2.5,3.8,6.2,6.1,10.1,8.2c7.1,3.8,14.7,6.4,22.7,7.6
				c8.6,1.3,17.1,1,25.6-1.1c2-0.5,4.1-1,5.6-2.8c0.9,0.6,1.3,1.5,1.7,2.3c1.8,3.2,1.8,5.7-2.6,6.9c-2.1,0.6-4.1,1.4-5.4,3.4
				c-0.3,0.1-0.3,0.3-0.2,0.6c-0.3,3.9,0,7.9-0.1,11.8c0,1.7,0,3.4-0.6,5.1c-2.8,3.2-6.4,5.1-10.3,6.8c-0.4,0.2-0.9,0.3-1.4,0.6
				c-10.9,4.4-21.9,4.1-33,0.6c-1.6-0.5-3.3-1.1-4.9-1.7c-0.8-0.3-1.6-0.7-2.4-1c-2.7-1.1-5.2-2.6-7.7-4c-0.5-0.3-0.8-0.8-1.4-1
				c-6.3-4.3-11.4-9.7-16.1-15.6c-0.5-0.7-0.6-1.3-0.4-2.2c3.1-12.8,4.4-25.8,4.2-38.9c0-1.2,0.6-1.4,1.5-1.5c0.5-0.1,1.1-0.1,1-0.8
				c-0.2-0.7-0.7-0.2-1.1-0.2c-4,0.7-7.3-0.6-10.2-3.3C96.9,193.1,96.7,192.7,96.2,192.6z"/>
			<path fill="#754F2C" d="M95.8,199.5c0-1.5,0-3,0-4.5c0-0.3-0.1-0.8,0.3-0.8c0.2,0,0.5,0.2,0.7,0.4c2,1.8,4.3,3,6.9,3.3
				c1.1,0.1,1.4,0.8,1.4,1.8c0,5.3-0.3,10.7-0.6,16c-0.1,1.2-0.7,1.1-1.6,1c-3.1-0.7-4.7-3-5.7-5.8
				C95.9,207.2,95.7,203.4,95.8,199.5z"/>
			<path fill="#1C1A0F" d="M179.4,255.6c0.5-4.9,0.5-9.9,0.4-14.8c0-0.7-0.2-1.4,0.3-2.1c0,4.8,0,9.6,0,14.4
				C180.1,254,180,254.9,179.4,255.6z"/>
			<path fill="#897719" d="M127.5,261c0.9-0.1,1.7,0.4,2.4,1C129,261.9,128.2,261.5,127.5,261z"/>
			<path fill="#877518" d="M118.5,256c0.7,0,1.1,0.4,1.4,1C119.2,256.9,118.8,256.5,118.5,256z"/>
			<path fill="#9A871C" d="M167.8,263c0.3-0.5,0.8-0.7,1.4-0.6C168.8,262.9,168.3,263,167.8,263z"/>
			<path fill="#75502C" d="M155.8,103.4c1.1-0.9,2-1.8,3-2.6c0.5-0.5,0.9-1,1.3-1.5c0.3-0.4,0.6-1,0.2-1.4c-0.6-0.5-0.8,0.3-1,0.7
				c-2.2,3-5.3,4.6-8.6,6c-6,2.5-12.4,3.5-18.7,4.9c-0.8,0.2-1.8,0.7-2.5-0.6c-0.3-0.6-0.8,0.2-1.1,0.5c-2.8,3.2-6,5.6-9.9,7.2
				c-1,0.4-2.1,0.8-3.1,1.1c-0.7,0.2-0.9-0.1-1.1-0.7c-2.4-7.2-8.5-9-14.9-10.1c-1.3-0.2-1.7-0.3-0.9-1.6
				c3.8-6.6,8.8-11.8,16.1-14.5c3.9-1.5,8-1.9,12.1-2.3c5.9-0.7,11.6-1.8,17.3-3.3c5-1.3,9.9-3.1,14.6-5.1c2.5-1.1,5-2.4,7.7-3.2
				c3.9-1,7.9-1.3,11.9-1c4,0.3,7.9,1.3,11.7,2.6c4.9,1.8,9.6,4,14,6.9c2.9,1.9,5.5,4.2,7.6,6.9c3.6,4.6,5.1,9.8,4.3,15.6
				c-1,7-3.7,13.3-8.7,18.3c-1.5,1.5-3.2,2.6-4.8,3.8c-1.3,0.9-1.6,0.4-1.7-0.8c-0.2-2.2-0.7-4.4-1.4-6.5c-1.1-3.5-2.6-6.7-4.8-9.6
				c-1.3-1.7-1.3-1.8,0.7-2.4c1.2-0.3,2.3-0.8,3.4-1.3c0.3-0.1,0.8-0.3,0.7-0.8c-0.2-0.6-0.8-0.4-1.1-0.2c-1.7,0.7-3.4,1.4-5.2,1.7
				c-5,0.8-9.7-0.1-14.2-2.2c-1.8-0.8-3.4-1.8-5-2.9c-0.8-0.5-0.9-0.9-0.1-1.5c0.9-0.7,1.8-1.5,2.7-2.3c0.4-0.3,1.1-0.8,0.6-1.3
				c-0.6-0.6-0.9,0.2-1.3,0.6c-3.5,3.2-7.5,5.4-12.4,5.2C160.4,105.4,158.1,104.7,155.8,103.4z"/>
			<path fill="#754F2C" d="M98.4,107.9c4.4,0.7,9.5,1.7,13.1,6.1c2.3,2.9,2.3,6.3,1.5,9.7c-0.8,3.4-2,6.6-3,9.9
				c-1.5,5.4-1.5,10.8-0.8,16.4c0.6,4.6,2.4,8.9,2,13.6c-0.2,2.4-0.6,4.7-1.4,7c-0.3,0.8-0.6,1.2-1.6,0.5c-3.6-2.8-8.3-2.8-11.7,0.4
				c-0.2,0.2-0.4,0.6-0.8,0.5c-0.4-0.1-0.3-0.5-0.3-0.9c-0.6-7.7-3.4-14.9-6.6-21.9c-3.2-7.1-5-14.5-4.4-22.3
				c0.3-4.4,1.1-8.8,3.1-12.7C89.7,110.2,92.4,108,98.4,107.9z"/>
			<path fill="#8B7919" d="M110.8,171.2c0,0.3-0.1,0.5-0.1,0.8c-0.6,1.8-1.1,2-2.5,0.7c-0.2-0.2-0.4-0.5-0.6-0.7
				c0.2,0,0.4,0,0.5,0.1c1.1,1.2,2,1.3,2.5-0.5C110.5,171.4,110.6,171.3,110.8,171.2z"/>
			<path fill="#9E891D" d="M158.4,105.9c-1,0.1-1.7-0.3-2.4-1C157,104.9,157.7,105.4,158.4,105.9z"/>
			<path fill="#917E1B" d="M174.5,106.9c-0.7,0-1.1-0.4-1.4-0.9C173.7,106,174.1,106.4,174.5,106.9z"/>
			<path fill="#9B871C" d="M124.2,114.7c-0.3,0.5-0.7,0.9-1.4,0.9C123.2,115.1,123.6,114.7,124.2,114.7z"/>
			<path fill="#907D1A" d="M95.7,174.2c0,0.7-0.4,1.1-1,1.3C94.9,175,95.1,174.4,95.7,174.2z"/>
			<path fill="#FDFDFD" d="M183.6,151.8c5.7-0.2,11.1,0.6,16,3.5c3.9,2.3,4,6.3,0.1,8.7c-4.8,2.8-10.2,3.7-15.7,3.8
				c-0.6,0-1-0.3-1.3-0.8c-2.9-4.3-4.5-9-5.5-14c-0.2-0.8,0.1-1.2,0.9-1.1C179.9,151.8,181.7,151.8,183.6,151.8z"/>
			<path fill="#FEFEFE" d="M147,215.1c0.1-0.1,0.1-0.1,0-0.2c0.2-1.6,0.6-3.2,0.9-4.8c0.1-1.1,0.5-1.3,1.6-0.8
				c3.5,1.4,7,2.7,10.7,3.5c0.7,0.2,0.9,0.6,0.9,1.3c-0.1,1.1-0.3,2.2-0.5,3.4l0,0c-0.4,0.6,0.1,1.4-0.3,2c0,0.2,0,0.4-0.1,0.6
				c-0.4,2-0.5,4.1-1,6.1l0,0c-0.4,0.7,0.1,1.6-0.4,2.3c-1.6,0.6-3.2,0-4.7-0.3c-3-0.6-5.9-1.4-8.9-2.1c-0.9-1.1,0.3-2.2,0.2-3.3
				c0-0.2,0-0.4,0.1-0.6c0.3-1.7,0.5-3.4,1-5.1l0,0C147.1,216.5,146.6,215.7,147,215.1z"/>
			<path fill="#FDFDFD" d="M134.6,209.4c0.3-1.4,0.6-2.8,0.9-4.2c0.1-0.7,0.4-0.9,1.1-0.7c3.3,0.9,6.5,2.3,9.7,3.4
				c0.7,0.2,0.9,0.7,0.8,1.4c-0.2,1.1-0.3,2.2-0.4,3.3c-0.2,1.6-0.6,3.2-0.9,4.8c0,0.2,0,0.4-0.1,0.6c-0.3,0.6,0.1,1.2-0.3,1.8l0,0
				c-0.3,1.7-0.6,3.4-1,5.1c-0.1,0.1-0.1,0.2-0.1,0.3c-0.5,0.5-1.1,0.3-1.6,0.1c-3.2-1.1-6.2-2.7-9.3-4c-0.7-0.4-0.7-1-0.4-1.6
				c0.2-0.6,0.1-1.2,0.4-1.8c0-0.3,0.1-0.6,0.1-0.9c0.3-1.8,0.6-3.7,1-5.5l0,0C134.7,210.8,134.2,210,134.6,209.4z"/>
			<path fill="#FDFDFD" d="M161.6,217.4c0.5-4,0.6-4,4.5-3.2c2.7,0.6,5.4,0.8,8.1,1.1c0.7,0.1,1.3,0.2,1.1,1.2
				c-0.9,4.1-1.5,8.2-2.7,12.2c-3.9,0.6-7.9,0.8-11.9,0.4c-0.8-0.1-1.1-0.5-0.9-1.2c0.2-0.7,0.2-1.4,0.4-2.1c0-0.3,0.1-0.6,0.1-0.9
				c0.3-0.7-0.2-1.5,0.3-2.1l0,0C161,221,161.2,219.2,161.6,217.4z"/>
			<path fill="#FDFDFD" d="M133.3,211.7c0,0.2,0,0.4-0.1,0.6c-0.4,0.7,0.2,1.6-0.4,2.4l0,0c-0.4,1.7-0.3,3.4-1,5
				c-0.2,0.1-0.5,0.3-0.6,0.3c-3.2-2.5-6.9-4.4-8.4-8.5c-1.5-4.2,0.4-7.3,4.9-7.8c1.7-0.2,3.3,0,5,0c1.3,0,1.9,0.5,1.4,1.8
				c-0.1,0.3,0,0.7-0.1,1C133.9,208.3,133.7,210,133.3,211.7z"/>
			<path fill="#FDFDFD" d="M181.4,227.1c-2.1,0.4-4.1,0.9-6.2,1.3c-1,0.2-1.2-0.2-1-1.2c0.8-3.5,1.5-7.1,2.2-10.6
				c0.2-0.9,0.6-1.1,1.4-1c3.1,0.1,6.1,0.2,9.2-0.1c0.8-0.1,1,0.2,0.8,1c-0.8,2.8-1.7,5.7-2.5,8.5c-0.2,0.8-0.9,0.9-1.5,1.2
				C183.1,226.6,182.2,226.7,181.4,227.1z"/>
			<path fill="#3C3C3C" d="M160.3,225.8c0,0.1,0,0.2,0,0.3c-0.2,2.9-0.2,2.9,2.8,3c3.2,0.1,6.3-0.3,9.5-0.4
				c-1.3,0.8-2.7,0.6-4.1,0.7c-2.3,0.2-4.5,0.1-6.8,0c-2.2,0-2.4-0.4-1.9-2.5C160,226.6,159.9,226.1,160.3,225.8z"/>
			<path fill="#3C3C3C" d="M159.3,226.1c0-2.1,0.4-4.1,1-6.1C160.3,222.1,160.3,224.2,159.3,226.1z"/>
			<path fill="#343434" d="M134.3,211.4c0,1.9-0.4,3.7-1,5.5C133.4,215,133.4,213.1,134.3,211.4z"/>
			<path fill="#3C3C3C" d="M161.6,217.4c-0.1,1.8-0.3,3.7-0.9,5.4C160.6,220.9,160.8,219.1,161.6,217.4z"/>
			<path fill="#333333" d="M146.7,217.1c0,1.8-0.4,3.4-1,5.1C145.6,220.4,145.7,218.7,146.7,217.1z"/>
			<path fill="#343434" d="M133.3,211.7c0.1-1.8,0.4-3.5,0.9-5.1C134.3,208.4,134.1,210.1,133.3,211.7z"/>
			<path fill="#333333" d="M144.3,224.8c0.1-1.7,0.3-3.4,1-5.1C145.5,221.5,145,223.2,144.3,224.8z"/>
			<path fill="#343434" d="M131.8,219.7c0.3-1.7,0.3-3.4,1-5C133,216.5,132.9,218.2,131.8,219.7z"/>
			<path fill="#3C3C3C" d="M160.7,217.4c-0.1-1,0.1-2,0.3-3c0.2-0.8,0-1.3-0.7-1.7c0.7-0.1,1.1,0.1,1.1,0.9
				C161.4,214.9,161.5,216.2,160.7,217.4z"/>
			<path fill="#333333" d="M147.9,210c0,1.6-0.4,3.2-0.9,4.8C146.9,213.2,147.2,211.6,147.9,210z"/>
			<path fill="#333333" d="M145.7,217.4c0-1.7,0.4-3.3,0.9-4.8C146.8,214.3,146.3,215.9,145.7,217.4z"/>
			<path fill="#343434" d="M133.2,217.7c0.3,1.1-0.7,2.2,0.1,3.3c-1.1-0.1-0.8-0.9-0.7-1.5C132.8,219,132.7,218.3,133.2,217.7z"/>
			<path fill="#333333" d="M145.6,222.8c0.2,1.1-0.6,2.2-0.2,3.3C144.3,224.9,145.3,223.9,145.6,222.8z"/>
			<path fill="#666666" d="M181.4,227.1c0.7-0.5,1.5-0.9,2.4-0.9C183.2,226.9,182.4,227.1,181.4,227.1z"/>
			<path fill="#7C7C7C" d="M142.6,225.1c0.5,0,1.1,0,1.6-0.1C143.8,225.9,143.7,225.9,142.6,225.1z"/>
			<path fill="#343434" d="M132.9,214.7c-0.1-0.8,0-1.6,0.4-2.4C133.2,213.1,133.6,214,132.9,214.7z"/>
			<path fill="#3C3C3C" d="M159,228.4c0-0.8,0-1.6,0.4-2.3C159.4,226.9,159.7,227.7,159,228.4z"/>
			<path fill="#93801B" d="M186.5,172.6c0.6,0.4,1,0.9,1.1,1.6C186.8,173.9,186.6,173.2,186.5,172.6z"/>
			<path fill="#333333" d="M147,215.1c0.1,0.7,0,1.4-0.3,2C146.6,216.4,146.4,215.7,147,215.1z"/>
			<path fill="#3C3C3C" d="M160.4,219.4c-0.1-0.7-0.1-1.4,0.3-2C160.7,218.1,160.9,218.8,160.4,219.4z"/>
			<path fill="#3C3C3C" d="M160.7,222.8c0.1,0.7,0.1,1.4-0.3,2.1C160.4,224.2,160.1,223.4,160.7,222.8z"/>
			<path fill="#343434" d="M134.6,209.4c0.1,0.7,0,1.4-0.3,2C134.3,210.7,134,210,134.6,209.4z"/>
			<path fill="#333333" d="M145.3,219.7c-0.1-0.6,0-1.2,0.3-1.8C145.6,218.6,145.9,219.2,145.3,219.7z"/>
			<path fill="#1D1B0E" d="M158.4,151.7c2.5,1.1,3.6,3.2,3.7,5.9c0.1,4.9-2.3,8.2-6.9,10.2c-7.4,3.4-15.2,3.6-23.1,2.2
				c-3.5-0.6-7-1.4-9.6-4.2c-0.6-0.6-1-0.2-1.4,0c-1.4,0.8-2.8,1.3-4.4,1.7c-0.5,0.1-1.1,0.4-1.3-0.2c-0.2-0.7,0.5-0.7,0.9-0.8
				c1-0.3,2-0.6,3-1c1.4-0.5,2.4-1.3,3-3c0.9-2.6,3.2-4.4,5.4-6c7.3-5,15.5-6.9,24.3-6.2c1.4,0.1,2.9,0.3,4.3-0.3
				c0.5-0.2,1-0.3,1.4-0.7l0,0c0.4-0.2,0.8-0.2,0.7,0.4c-0.2,0.2-0.5,0.4-0.7,0.6C156.9,151.5,158.1,151.4,158.4,151.7z"/>
			<path fill="#252106" d="M113.9,209.7c0.1-4.6,0.8-8.7,4.6-11.4c2-1.4,4.3-2.1,6.8-2.1c0.4,0,0.9-0.1,0.9,0.5
				c0,0.5-0.4,0.6-0.9,0.6c-1.3,0.1-2.6,0.3-3.9,0.8c-4.3,1.6-5.8,5.1-6.2,9.3c-0.2,2-0.1,4,0.2,6c0.1,0.5,0.2,1.1-0.5,1.2
				c-0.6,0.1-0.5-0.6-0.6-1C114.2,212.1,114,210.8,113.9,209.7z"/>
			<path fill="#262106" d="M104.9,177.6c-1.8-1.2-3.3-0.3-4.8,0.1c-0.6,0.2-1.4,1-1.7,0.2c-0.4-0.9,0.8-1,1.4-1.3
				c0.7-0.3,1.5-0.5,2.2-0.6c2.4-0.4,4.1,0.6,5.2,2.8c0.7,1.3,0.9,2.7,1.1,4.2c0,0.4,0.1,0.9-0.4,1c-0.6,0.1-0.7-0.4-0.8-0.8
				c-0.1-0.6,0-1.3-0.2-1.8c-0.4-0.9-0.2-2.4-1.9-2.3c-1.5,0.1-2.8,1.1-3,2.6c-0.1,0.7-0.1,1.3-0.1,2c0,0.4,0.1,1-0.5,1
				c-0.6,0-0.6-0.5-0.7-1C100.4,180.6,101.6,178.8,104.9,177.6z"/>
			<path fill="#252006" d="M141.7,178.7c-0.4,0-0.8-0.1-0.8-0.5c-0.1-0.5,0.4-0.6,0.8-0.7c2.9-0.8,5.8-1.8,8.5-3.4
				c2.6-1.5,4.9-3.3,6.5-5.8c0.4-0.6,0.8-0.7,1.2-0.4c0.4,0.3,0,0.8-0.2,1.1c-2.4,3.4-5.7,5.7-9.5,7.4
				C146,177.4,143.9,178.1,141.7,178.7z"/>
			<path fill="#322C09" d="M117.8,172.8c-0.6-0.2-0.7-0.6-0.3-1c1.2-1.2,2.1-2.5,2.8-4.1c0.1-0.3,0.3-0.5,0.7-0.4
				c0.3,0.1,0.4,0.3,0.4,0.7c0,0.9-2.4,4.4-3.3,4.7C118.1,172.7,118,172.7,117.8,172.8z"/>
			<path fill="#352E09" d="M158.4,149.9c-0.1-0.3-0.4-0.4-0.7-0.4c0.9-0.9,2.2-1.3,3-2.3c0.2-0.3,0.7-0.6,1-0.2
				c0.3,0.3,0.1,0.8-0.2,1C160.5,148.7,159.7,149.6,158.4,149.9z"/>
			<path fill="#927F1A" d="M158.4,151.7c-0.6-0.1-1.3-0.1-1.5-0.8c-0.1-0.4,0.4-0.5,0.8-0.5C157.5,151.1,158.2,151.3,158.4,151.7z"
				/>
			<path fill="#352E09" d="M157.7,149.4c-0.3,0.7-0.8,0.7-1.4,0.7C156.7,149.7,157.1,149.4,157.7,149.4z"/>
			<path fill="#050505" d="M190.6,158.2c1.5,0,2.7,1.4,2.6,2.9c-0.1,1.4-1.3,2.6-2.7,2.6c-1.5,0-2.7-1.3-2.7-2.8
				C187.8,159.4,189,158.2,190.6,158.2z"/>
			<path fill="#FDFDFD" d="M155.3,166.5c-9.2,4.2-18.5,4.1-28,1.2c-0.9-0.3-1.8-0.7-2.6-1.2c-1.3-0.7-2-1.8-1.5-3.3
				c0.4-0.5,0.6-1.2,1-1.7c2.4-3.3,5.7-5.4,9.3-7c6.8-3.1,13.9-3.8,21.2-2.7c2.6,0.4,5,1.2,5.9,4c1,3,0.2,5.8-1.9,8.2
				c-0.5,0.6-1.2,1-1.8,1.5C156.5,166,155.8,166.1,155.3,166.5z"/>
			<path fill="#9D9D9D" d="M124.2,161.5c-0.1,0.7-0.4,1.3-1,1.7C123.3,162.5,123.5,161.8,124.2,161.5z"/>
			<path fill="#949494" d="M155.3,166.5c0.4-0.6,1-0.9,1.6-1C156.6,166.1,156.1,166.5,155.3,166.5z"/>
			<path fill="#0A0A0A" d="M143.6,165.5c-1.5,0-2.9-1.3-2.9-2.9c0-1.5,1.3-2.6,2.9-2.6c1.5,0,2.8,1.3,2.8,2.7
				C146.4,164.1,145.1,165.4,143.6,165.5z"/>
		</g>
	</g>
</g>
<g id="Calque_3">
	<path fill="#F0F1F2" d="M146.3,10.4C73.8,10.4,15,69.2,15,141.7S73.8,273,146.3,273s131.3-58.8,131.3-131.3S218.8,10.4,146.3,10.4z
		 M146.3,262.7c-66.8,0-121-54.2-121-121s54.2-121,121-121s121,54.2,121,121S213.2,262.7,146.3,262.7z"/>
</g>
</svg>
