<?xml version="1.0" encoding="utf-8"?>
<!-- Generator: Adobe Illustrator 16.0.3, SVG Export Plug-In . SVG Version: 6.00 Build 0)  -->
<!DOCTYPE svg PUBLIC "-//W3C//DTD SVG 1.1//EN" "http://www.w3.org/Graphics/SVG/1.1/DTD/svg11.dtd">
<svg version="1.1" id="Layer_1" xmlns="http://www.w3.org/2000/svg" xmlns:xlink="http://www.w3.org/1999/xlink" x="0px" y="0px"
	 width="453px" height="453px" viewBox="0 0 453 453" enable-background="new 0 0 453 453" xml:space="preserve">
<path fill="#D1B270" d="M226.124,21.012c111.625,0,202.113,90.49,202.113,202.113c0,111.624-90.488,202.113-202.113,202.113
	c-108.424,0-202.111-86.663-202.111-202.113C24.013,111.502,114.501,21.012,226.124,21.012z"/>
<path fill="#FFD90F" d="M298.283,240.232c-5.405-4.055-4.055-17.568-4.055-17.568l6.757-33.783
	c8.486-12.259,9.015-23.547,3.01-33.763c0.599,1.018,0,0,0,0c-35.214-17.088-125.835-9.321-125.835-9.321
	c9.178,23.359-4.828,55.784-10.623,67.515c-1.861-2.001-5.616-3.646-13.197-1.749c-14.5,3.625-13.464,15.016-13.464,15.016
	c4.474,18.238,15.348,16.354,22.142,13.037l0.13,0.617c12.69,12.237,20.598,22.184,24.183,30.822c0,0,4.925,15.398,7.13,22.885
	c-0.036-0.123-0.069-0.242-0.106-0.365c11.308,7.858,26.077,9.851,39.26,9.562c1.997-0.06,0,0,1.997-0.06
	c4.565-0.181,8.896-0.619,12.786-1.16c-1.305-11.562,2.589-25.197,2.589-25.197c15.726-9.23,6.923-11.301,6.923-11.301
	c22.426,0,37.672-4.916,37.672-4.916C307.742,259.15,303.688,244.287,298.283,240.232"/>
<path fill="none" stroke="#000000" stroke-width="3" stroke-linecap="round" stroke-linejoin="round" d="M298.283,240.232
	c-5.405-4.055-4.055-17.568-4.055-17.568l6.757-33.783c8.682-11.881,8.098-27.214,3.01-33.763l0,0
	c-35.214-17.088-125.835-9.321-125.835-9.321c9.178,23.359-4.828,55.784-10.623,67.515c-1.861-2.001-5.616-3.646-13.197-1.749
	c-14.5,3.625-13.464,15.016-13.464,15.016c4.474,18.238,15.348,16.354,22.142,13.037l0.13,0.617
	c12.69,12.237,20.728,19.768,24.183,30.822c2.895,9.294,4.925,15.398,7.13,22.885c-0.036-0.123-0.069-0.242-0.106-0.365
	c11.308,7.858,26.077,9.851,39.26,9.562c1.997-0.06,0,0,1.997-0.06c4.565-0.181,8.896-0.619,12.786-1.16
	c-1.305-11.562,2.589-25.197,2.589-25.197c15.726-9.23,6.923-11.301,6.923-11.301c19.926,0,37.672-4.916,37.672-4.916
	C307.742,259.15,303.688,244.287,298.283,240.232L298.283,240.232z"/>
<g>
	<path fill="#B45B22" d="M312.799,134.922c0,0-5.178-5.696-10.356,0c0,0-7.249-9.839-13.464-3.625c0,0-7.768-7.768-15.018-2.071
		c0,0-6.732-8.804-15.018-2.589c0,0-6.215-8.285-15.535-1.553c0,0-10.875-6.732-18.124,0c0,0-10.357-7.768-15.535-1.554
		c0,0-10.874-5.696-17.089,4.143c0,0-7.768-10.357-17.607,0c0,0-9.32-9.839-16.57,1.553c-7.7-2.009-7.128-8.258-18.643,4.143
		c0,0-13.463-8.803-15.018,4.661c0,0-6.375,51.038,19.566,79.063c1.994-2.234,5.1-4.316,9.951-5.529
		c7.581-1.896,11.336-0.252,13.197,1.749c5.795-11.731,19.801-44.156,10.623-67.515c0,0,90.621-7.767,125.835,9.321
		C303.995,155.118,315.906,145.797,312.799,134.922"/>
	<path fill="none" stroke="#000000" stroke-width="3" stroke-linecap="round" stroke-linejoin="round" d="M312.799,134.922
		c0,0-5.178-5.696-10.356,0c0,0-7.249-9.839-13.464-3.625c0,0-7.768-7.768-15.018-2.071c0,0-6.732-8.804-15.018-2.589
		c0,0-6.215-8.285-15.535-1.553c0,0-10.875-6.732-18.124,0c0,0-10.357-7.768-15.535-1.554c0,0-10.874-5.696-17.089,4.143
		c0,0-7.768-10.357-17.607,0c0,0-9.32-9.839-16.57,1.553c-7.7-2.009-7.128-8.258-18.643,4.143c0,0-13.463-8.803-15.018,4.661
		c0,0-6.375,51.038,19.566,79.063c1.994-2.234,5.1-4.316,9.951-5.529c7.581-1.896,11.336-0.252,13.197,1.749
		c5.795-11.731,19.801-44.156,10.623-67.515c0,0,90.621-7.767,125.835,9.321C303.995,155.118,315.906,145.797,312.799,134.922
		L312.799,134.922z M149.68,223.99c0,0,8.285-6.214,13.981,1.035c0,0-12.95-4.849-6.731,5.178"/>
</g>
<path fill="#B45B22" d="M218.034,155.635c0,0-8.285,3.107-8.804,7.768c0,0,2.071,4.143,8.804,3.625c0,0,17.606-2.072,21.749-0.518
	c0,0,3.107-0.518,3.625-5.178s-5.696-6.214-5.696-6.214S223.73,153.564,218.034,155.635"/>
<path fill="none" stroke="#000000" stroke-width="3" stroke-linecap="round" stroke-linejoin="round" d="M218.034,155.635
	c0,0-8.285,3.107-8.804,7.768c0,0,2.071,4.143,8.804,3.625c0,0,17.606-2.072,21.749-0.518c0,0,3.107-0.518,3.625-5.178
	s-5.696-6.214-5.696-6.214S223.73,153.564,218.034,155.635L218.034,155.635z"/>
<path fill="#B45B22" d="M284.835,160.813c0,0-6.724-1.581-8.285,6.214c-1.203,6.004,6.214,5.696,6.214,5.696
	s10.356-0.518,13.464,1.553s5.231-2.054,5.696-3.625c1.564-5.288-2.589-6.732-2.589-6.732S290.53,160.813,284.835,160.813"/>
<path fill="none" stroke="#000000" stroke-width="3" stroke-linecap="round" stroke-linejoin="round" d="M284.835,160.813
	c0,0-6.724-1.581-8.285,6.214c-1.203,6.004,6.214,5.696,6.214,5.696s10.356-0.518,13.464,1.553s5.231-2.054,5.696-3.625
	c1.564-5.288-2.589-6.732-2.589-6.732S290.53,160.813,284.835,160.813L284.835,160.813z M257.39,208.455
	c0,0,23.304-2.589,22.268,13.463c-1.036,16.054-26.41,7.25-26.41,7.25 M207.16,248.328c0,0-5.697,4.144-3.625,8.804 M203.59,252.707
	c18.827,8.377,30.327,12.127,54.318,12.711 M168.84,235.9c0,0-21.232,18.125-27.964-9.322c0,0-1.036-11.391,13.464-15.016
	s15.018,5.695,15.018,5.695 M149.68,223.99c0,0,8.285-6.214,13.981,1.035c0,0-12.95-4.849-6.731,5.178 M155.51,211.292
	l41.811-14.229 M250.658,202.241c0,0,12.429-3.626,17.089,1.554"/>
<path fill="#FFFFFF" d="M250.658,198.098c0,13.442-11.94,24.339-26.669,24.339c-14.729,0-26.669-10.896-26.669-24.339
	c0-13.441,11.939-24.338,26.669-24.338C238.718,173.76,250.658,184.656,250.658,198.098"/>
<path fill="none" stroke="#000000" stroke-width="3.1403" stroke-linecap="round" stroke-linejoin="round" d="M250.658,198.098
	c0,13.442-11.94,24.339-26.669,24.339c-14.729,0-26.669-10.896-26.669-24.339c0-13.441,11.939-24.338,26.669-24.338
	C238.718,173.76,250.658,184.656,250.658,198.098L250.658,198.098z"/>
<path fill="#FFFFFF" d="M290,183.6c-13.005,0-23.548,9.621-23.548,21.49c0,1.248,0.123,2.47,0.347,3.66
	c6.336,1.014,13.44,4.148,12.858,13.168c-0.055,0.842-0.189,1.599-0.37,2.307c3.215,1.502,6.854,2.355,10.713,2.355
	c13.005,0,23.548-9.621,23.548-21.49S303.005,183.6,290,183.6"/>
<path fill="none" stroke="#000000" stroke-width="2.7729" stroke-linecap="round" stroke-linejoin="round" d="M290,183.6
	c-13.005,0-23.548,9.621-23.548,21.49c0,1.248,0.123,2.47,0.347,3.66c6.336,1.014,13.44,4.148,12.858,13.168
	c-0.055,0.842-0.189,1.599-0.37,2.307c3.215,1.502,6.854,2.355,10.713,2.355c13.005,0,23.548-9.621,23.548-21.49
	S303.005,183.6,290,183.6L290,183.6z"/>
<path d="M222.177,200.17c0,2.574-2.087,4.66-4.661,4.66s-4.66-2.086-4.66-4.66s2.086-4.66,4.66-4.66S222.177,197.596,222.177,200.17
	"/>
<path d="M295.191,204.973c0,2.574-2.086,4.661-4.66,4.661s-4.66-2.087-4.66-4.661c0-2.573,2.086-4.66,4.66-4.66
	S295.191,202.399,295.191,204.973"/>
<path fill="#556730" stroke="#000000" stroke-width="3" stroke-linecap="round" stroke-linejoin="round" d="M141.741,410.309
	l-42.729-31.264c13.585-37.648,41.573-59.475,41.573-59.475s16.173,3.883,15.508,21.162c-0.664,17.279-8.311,56.916-8.311,56.916
	S143.584,401.199,141.741,410.309z"/>
<path fill="#556730" stroke="#000000" stroke-width="3" stroke-linecap="round" stroke-linejoin="round" d="M187.604,272.457
	c0,0-8.949,8.492-11.021,15.089s-4.415,12.954,0.818,51.157l1.062,0.804l22.375,14.843l-18.279,14.94
	c5.441,23.96,16.646,55.54,16.646,55.54l25.129,0.721c0,0-5-19.551-14.287-69.363C203,318.334,187.604,272.457,187.604,272.457z"/>
<g>
	<path fill="#556730" stroke="#000000" stroke-width="3" stroke-linecap="round" stroke-linejoin="round" d="M147.783,397.648
		c5.498-32.037,8.331-44.861,8.331-58.273c0-15.251-15.528-19.805-15.528-19.805c12.628-20.603,35.996-32.024,35.996-32.024
		s-5.095,8.418,0.881,51.615l23.375,15.176l-18.279,14.953c0,0,8.191,32.585,16.646,55.54L150,414.654
		C150,405.766,150.58,405.438,147.783,397.648"/>
</g>
<path fill="#FFFFFF" d="M250.455,301.615c-4.394,0.676-9.458,1.248-14.845,1.461c0.905,2.725,1.784,5.478,2.636,8.258
	c4.66,8.059,12.982,16.146,26.201,8.99C261.549,316.3,255.112,307.445,250.455,301.615"/>
<path fill="#556730" stroke="#000000" stroke-width="3" stroke-linecap="round" stroke-linejoin="round" d="M296.542,314.984
	c-6.424-13.736-28.704-22.368-28.704-22.368l3.662,20.245l31.244,106.02l19.486-11.735
	C310.459,357.553,313.225,366.978,296.542,314.984"/>
<path fill="none" stroke="#000000" stroke-width="3" stroke-linecap="round" stroke-linejoin="round" d="M250.455,301.615
	c-4.394,0.676-9.458,1.248-14.845,1.461c0.905,2.725,1.784,5.478,2.636,8.258c4.66,8.059,12.982,16.146,26.201,8.99
	C261.549,316.3,255.112,307.445,250.455,301.615L250.455,301.615z"/>
<path fill="#FFFFFF" d="M233.613,303.136c-13.183,0.289-27.952-1.703-39.26-9.562c3.01,10.192,5.715,20.111,8.135,29.691
	C216.736,327.396,234.285,327.596,233.613,303.136"/>
<path fill="none" stroke="#000000" stroke-width="3" stroke-linecap="round" stroke-linejoin="round" d="M233.613,303.136
	c-13.183,0.289-27.952-1.703-39.26-9.562c3.01,10.192,5.715,20.111,8.135,29.691C216.736,327.396,234.285,327.596,233.613,303.136
	L233.613,303.136z"/>
<path fill="#FFFFFF" stroke="#000000" stroke-width="3" stroke-linecap="round" stroke-linejoin="round" d="M224.277,429.667
	c-4.215-25.784-21.789-106.401-21.789-106.401S237,334,233.613,303.136c0.032,0.291,2.891,5.187,4.633,8.198l0,0
	c17.749,70.853,17.749,70.853,22.504,110.416L224.277,429.667z"/>
<path fill="#FFFFFF" stroke="#000000" stroke-width="3" stroke-linecap="round" stroke-linejoin="round" d="M287.431,414.875
	c-5.299-37.896-3.681-48.333-21.458-92.426c0,0-0.576-0.806-1.525-2.125c-13.219,7.155-21.541-0.932-26.201-8.99
	c0,0,18.542,64.916,22.504,110.416C260.75,421.75,288.059,419.369,287.431,414.875z"/>
<path fill="#556730" stroke="#000000" stroke-width="3" stroke-linecap="round" stroke-linejoin="round" d="M291.224,332.197
	l-10.19,13.512l16.172,8.197c0,0,7.754,28.799,5.539,64.465l-14.001,4.381c-2.979-24.654-6.759-68.283-22.771-100.303
	c0,0-12.007-16.844-17.807-23.615c-0.421-10.768,2.819-22.115,2.819-22.115c0.062-0.036,0.114-0.07,0.175-0.105l1.518,0.645
	c0,0,4.322,1.975,17.322,15.358S291.224,332.197,291.224,332.197l-10.19,13.512l0,0l16.172,8.197c0,0,7.754,28.799,5.539,64.465
	 M322.23,406.636"/>
<path fill="#7E00B2" d="M236.062,307.605c0,0-13.07-20.158-17.943-17.943c-4.874,2.215-8.64,6.424-9.306,19.494
	c-0.664,13.07,3.103,27.469,8.418,27.914c5.317,0.442,19.718-19.275,19.718-19.275l7.753,0.223c0,0,8.42,13.734,13.07,13.514
	c4.652-0.222,10.191-12.184,10.191-20.603c0-8.418-2.658-19.938-8.64-20.16c0,0-8.196,2.882-14.843,16.616L236.062,307.605"/>
<path fill="none" stroke="#000000" stroke-width="3" stroke-linecap="round" stroke-linejoin="round" d="M236.062,307.605
	c0,0-13.07-20.158-17.943-17.943c-4.874,2.215-8.64,6.424-9.306,19.494c-0.664,13.07,3.103,27.469,8.418,27.914
	c5.317,0.442,19.718-19.275,19.718-19.275l7.753,0.223c0,0,8.42,13.734,13.07,13.514c4.652-0.222,10.191-12.184,10.191-20.603
	c0-8.418-2.658-19.938-8.64-20.16c0,0-8.196,2.882-14.843,16.616L236.062,307.605L236.062,307.605z"/>
<path fill="#7E00B2" d="M241.157,301.623c0,0-7.31,0-6.867,6.869c0.442,6.867-1.771,13.07,4.431,13.514s9.303-4.209,9.082-11.741
	S243.594,301.623,241.157,301.623"/>
<path fill="none" stroke="#000000" stroke-width="3" stroke-linecap="round" stroke-linejoin="round" d="M241.157,301.623
	c0,0-7.31,0-6.867,6.869c0.442,6.867-1.771,13.07,4.431,13.514s9.303-4.209,9.082-11.741S243.594,301.623,241.157,301.623
	L241.157,301.623z"/>
<path fill="#556730" stroke="#000000" stroke-width="3" stroke-linecap="round" stroke-linejoin="round" d="M291.542,307.984
	c0,0,31.75,29.35,50.416,84.017l-19.728,14.635L291.542,307.984z"/>
<path fill="#556730" stroke="#000000" stroke-width="3" stroke-linecap="round" stroke-linejoin="round" d="M321.5,416.01"/>
<path fill="#556730" stroke="#000000" stroke-width="3" stroke-linecap="round" stroke-linejoin="round" d="M341.958,408.25"/>
<path fill="#556730" stroke="#000000" stroke-width="3" stroke-linecap="round" stroke-linejoin="round" d="M296.542,314.984"/>
<g>
	<path fill="#F0F1F2" d="M226,436.5c-31.77,0-62.048-6.223-89.8-19.021c-25.146-11.596-47.418-28.174-66.196-49.272
		C35.048,328.929,15,276.915,15,225.5c0-56.363,21.947-109.351,61.798-149.202S169.637,14.5,226,14.5s109.351,21.947,149.202,61.798
		C415.053,116.149,437,169.137,437,225.5c0,78.176-42.899,149.582-111.958,186.354c-4.111,2.202-8.352,4.281-12.606,6.184
		c-0.495,0.232-0.973,0.441-1.449,0.65l-0.846,0.371C283.766,430.544,268.752,436.5,226,436.5z M225.508,27.113
		c-109.195,0-198.033,88.837-198.033,198.034c0,109.195,88.838,198.032,198.033,198.032c109.196,0,198.033-88.837,198.033-198.032
		C423.541,115.95,334.704,27.113,225.508,27.113z"/>
</g>
</svg>
