<?xml version="1.0" encoding="utf-8"?>
<!-- Generator: Adobe Illustrator 17.0.0, SVG Export Plug-In . SVG Version: 6.00 Build 0)  -->
<!DOCTYPE svg PUBLIC "-//W3C//DTD SVG 1.1//EN" "http://www.w3.org/Graphics/SVG/1.1/DTD/svg11.dtd">
<svg version="1.1" id="Calque_1" xmlns="http://www.w3.org/2000/svg" xmlns:xlink="http://www.w3.org/1999/xlink" x="0px" y="0px"
	 width="210px" height="200px" viewBox="0 0 210 200" enable-background="new 0 0 210 200" xml:space="preserve">
<path fill="#9B6C3A" d="M200.511,100.596c-0.022,52.499-42.676,94.965-95.334,94.915c-52.299-0.05-94.726-42.769-94.676-95.328
	C10.55,47.88,53.268,5.449,105.824,5.5C158.023,5.551,200.532,48.244,200.511,100.596z"/>
<path fill="#F3EDDA" d="M196.51,100.428c0.031,50.25-40.752,91.078-90.981,91.082c-50.262,0.004-91.034-40.776-91.028-91.046
	C14.506,50.22,55.306,9.488,105.614,9.501C155.711,9.514,196.479,50.296,196.51,100.428z"/>
<path fill="#FE7BAB" d="M105.929,182.514c-3.532,0.101-6.704-1.193-9.752-2.727c-5.246-2.64-10.801-3.928-16.612-3.695
	c-7.388,0.296-12.94-2.674-17.355-8.465c-3.584-4.701-8.197-8.221-13.655-10.61c-3.82-1.672-7.023-4.121-9.102-7.842
	c-1.313-2.35-1.966-4.911-2.548-7.521c-1.176-5.281-3.42-10.121-6.984-14.185c-5.031-5.737-6.59-12.099-4.467-19.451
	c1.809-6.265,0.914-12.515-0.512-18.716c-1.336-5.807,0.243-10.9,3.922-15.367c4.093-4.969,7.03-10.413,8.273-16.803
	c1.234-6.345,4.757-11.128,10.753-13.796c6.15-2.736,11.134-6.814,15.277-12.108c3.867-4.942,9.043-7.492,15.421-7.259
	c6.191,0.226,12.099-0.903,17.596-3.787c6.539-3.431,13.009-3.472,19.556-0.038c5.577,2.926,11.561,4.046,17.837,3.83
	c6.598-0.227,11.721,2.67,15.704,7.742c3.601,4.587,7.84,8.337,13.191,10.787c3.341,1.53,6.45,3.37,8.779,6.385
	c2.004,2.595,3.018,5.553,3.659,8.65c1.156,5.579,3.428,10.64,7.132,14.921c4.971,5.746,6.669,12.063,4.525,19.441
	c-1.843,6.343-0.923,12.675,0.524,18.962c1.292,5.614-0.169,10.637-3.747,14.929c-4.417,5.298-7.429,11.185-8.786,17.939
	c-1.201,5.978-4.683,10.262-10.145,12.774c-6.255,2.876-11.445,6.916-15.678,12.377c-3.777,4.873-8.886,7.428-15.189,7.156
	c-7.174-0.309-13.789,1.632-20.143,4.792C111.077,181.989,108.568,182.607,105.929,182.514z"/>
<path fill="#F3EDDA" d="M105.822,59.49c2.791-0.409,5.067,0.683,7.264,1.865c3.986,2.145,8.2,3.626,12.588,4.66
	c4.362,1.027,7.376,3.584,9.057,7.77c1.897,4.725,4.313,9.179,7.348,13.277c2.82,3.808,3.622,7.951,2.158,12.483
	c-1.724,5.337-2.229,10.866-2.739,16.409c-0.357,3.874-2.368,6.863-5.55,9.052c-3.571,2.458-7.224,4.911-9.894,8.326
	c-4.274,5.467-9.756,6.878-16.182,5.548c-3.86-0.799-7.637-0.072-11.407,0.309c-3.851,0.39-7.123-0.512-9.77-3.211
	c-4.088-4.167-8.349-8.078-13.184-11.4c-3.238-2.225-4.887-5.546-5.084-9.565c-0.285-5.825-1.447-11.512-2.993-17.119
	c-1.009-3.659-0.121-6.966,1.927-9.943c3.168-4.607,5.957-9.379,8.065-14.583c1.396-3.447,3.921-5.987,7.669-6.952
	c5.333-1.372,10.486-3.166,15.353-5.791C102.125,59.722,103.971,59.067,105.822,59.49z"/>
<g>
	<path fill="#E41C21" stroke="#333333" d="M82.337,56.481c1.146-3.165,2.328-6.338,4.36-9.067c0.713-0.957,1.961-0.855,2.943-0.171
		c0.922,0.642,1.573,1.439,1.03,2.733c-1.09,2.596-2.071,5.238-3.169,7.83c-0.526,1.241-1.481,2.081-2.928,1.695
		C83.131,59.115,82.365,58.096,82.337,56.481z"/>
	<path fill="#FEFDFD" stroke="#333333" d="M158.571,72.847c-1.399-0.271-2.437-0.895-1.775-2.521
		c1.127-2.769,2.377-5.488,3.602-8.216c0.515-1.146,1.48-1.769,2.68-2.035c1.83-0.406,3.343,1.035,2.573,2.703
		c-1.39,3.009-3.063,5.892-4.7,8.781C160.483,72.384,159.527,72.656,158.571,72.847z"/>
	<path fill="#E41C21" stroke="#333333" d="M102.422,41.728c0.881-0.063,1.599,0.308,2.149,1.194
		c1.353,2.182,2.775,4.321,4.179,6.471c0.592,0.906,0.851,1.837,0.076,2.737c-0.831,0.964-1.893,1.352-3.113,0.798
		c-0.589-0.267-1.306-0.562-1.626-1.061c-1.427-2.228-2.868-4.466-4.038-6.833C99.143,43.201,100.263,41.746,102.422,41.728z"/>
	<path fill="#FEFDFE" stroke="#333333" d="M78.483,165.395c0.121,1.702-0.303,2.479-1.208,2.92c-0.955,0.466-1.832,0.202-2.412-0.65
		c-1.681-2.465-3.434-4.896-4.911-7.482c-0.866-1.515-0.461-3.212,1.138-4.088c1.721-0.942,2.786,0.205,3.533,1.677
		C76.009,160.5,77.388,163.231,78.483,165.395z"/>
	<path fill="#FEFCFD" stroke="#333333" d="M147.474,67.649c0,1.411,0.109,2.833-0.031,4.23c-0.137,1.366-0.965,2.404-2.428,2.321
		c-1.307-0.074-1.913-0.987-2.079-2.359c-0.34-2.809-0.413-5.62-0.434-8.44c-0.013-1.701,0.898-2.799,2.469-2.869
		c1.548-0.069,2.333,1.175,2.441,2.635c0.11,1.486,0.024,2.987,0.024,4.482C147.449,67.649,147.461,67.649,147.474,67.649z"/>
	<path fill="#FEFDFD" stroke="#333333" d="M166.369,111.904c1.049,0.016,1.673,0.152,2.262,0.53
		c2.164,1.391,4.357,2.737,6.521,4.128c1.286,0.827,1.859,1.995,0.998,3.382c-0.784,1.262-2.066,1.393-3.285,0.686
		c-2.439-1.415-4.851-2.884-7.203-4.438c-0.946-0.625-1.422-1.68-1.024-2.844C164.958,112.407,165.696,111.884,166.369,111.904z"/>
	<path fill="#FEFDFE" stroke="#333333" d="M45.042,80.85c-1.681,0.076-2.508-0.441-2.869-1.484c-0.37-1.067,0.012-2.092,0.983-2.564
		c2.828-1.377,5.69-2.699,8.608-3.869c1.099-0.441,2.104,0.194,2.681,1.273c0.504,0.943,0.314,1.917-0.483,2.465
		C51.079,78.656,47.771,79.744,45.042,80.85z"/>
	<path fill="#E41C21" stroke="#333333" d="M45.511,125.206c-2.833-0.641-5.681-1.227-8.493-1.949
		c-1.193-0.306-1.754-1.264-1.503-2.515c0.25-1.248,1.132-1.91,2.352-1.741c2.876,0.399,5.746,0.867,8.593,1.432
		c1.502,0.298,2.349,1.341,1.989,2.928C48.108,124.857,46.916,125.193,45.511,125.206z"/>
	<path fill="#E41C21" stroke="#333333" d="M152.234,80.012c2.87,0.882,5.893,1.738,8.86,2.758c1.259,0.433,1.754,1.565,1.251,2.838
		c-0.451,1.14-1.471,1.622-2.648,1.304c-2.874-0.775-5.739-1.592-8.572-2.502c-1.245-0.4-1.858-1.422-1.536-2.748
		C149.892,80.41,150.939,80.11,152.234,80.012z"/>
	<path fill="#FEFDFD" stroke="#333333" d="M88.367,33.283c1.887,0.052,2.833,0.512,3.064,1.767c0.23,1.249-0.688,1.789-1.669,2.124
		c-2.82,0.963-5.66,1.866-8.486,2.815c-1.385,0.465-2.572,0.144-3.108-1.189c-0.503-1.25,0.22-2.482,1.341-2.871
		C82.624,34.847,85.827,34.024,88.367,33.283z"/>
	<path fill="#E41C21" stroke="#333333" d="M134.031,143.909c-0.945,2.975-1.829,6.416-3.459,9.581
		c-0.374,0.727-1.267,1.156-2.15,0.876c-0.949-0.301-1.558-1.071-1.436-2.08c0.442-3.653,2.032-6.923,3.645-10.159
		c0.401-0.805,1.384-0.855,2.231-0.605C133.815,141.803,134.045,142.581,134.031,143.909z"/>
	<path fill="#FEFDFE" stroke="#333333" d="M64.982,122.98c-1.307,2.525-2.357,5.704-4.474,8.306
		c-0.612,0.752-1.573,0.946-2.492,0.385c-0.936-0.572-1.517-1.441-1.112-2.513c1.147-3.036,2.798-5.819,4.678-8.452
		c0.514-0.72,1.407-0.879,2.26-0.457C64.765,120.703,65.153,121.477,64.982,122.98z"/>
	<path fill="#FEFDFD" stroke="#333333" d="M58.44,54.043c-0.05,0.143-0.081,0.517-0.278,0.748c-2.207,2.588-4.617,4.979-7.282,7.093
		c-0.824,0.653-1.751,0.509-2.432-0.325c-0.711-0.871-0.792-1.962-0.086-2.754c1.978-2.223,4.052-4.366,6.172-6.455
		c0.758-0.747,1.845-0.782,2.803-0.309C58.03,52.382,58.445,53.025,58.44,54.043z"/>
	<path fill="#FEFDFD" stroke="#333333" d="M88.79,147.872c0.049,1.845-1.792,2.89-3.411,1.77c-2.664-1.843-4.877-4.238-7.004-6.677
		c-0.612-0.701-0.41-1.572,0.171-2.29c0.678-0.839,1.761-1.063,2.464-0.516c2.672,2.078,5.435,4.09,7.465,6.872
		C88.661,147.286,88.708,147.644,88.79,147.872z"/>
	<path fill="#E41C21" stroke="#333333" d="M108.552,171.007c-1.961-0.139-3.543,0.035-5.091-0.403
		c-1.404-0.397-2.141-1.264-1.96-2.724c0.175-1.421,1.169-1.928,2.484-1.864c2.479,0.122,4.96,0.234,7.432,0.45
		c1.476,0.129,2.21,1.084,2.102,2.556c-0.105,1.424-1.035,1.98-2.375,1.984C110.148,171.01,109.153,171.007,108.552,171.007z"/>
	<g>
		<path fill="#FFEF62" stroke="#333333" d="M128.405,58.712c-1.328,0-2.671,0.123-3.98-0.033c-1.396-0.166-2.278-1.151-2.289-2.543
			c-0.01-1.29,0.97-1.807,2.178-1.936c2.718-0.291,5.431-0.626,8.149-0.904c1.882-0.193,3.207,0.73,3.359,2.537
			c0.154,1.834-1.365,2.565-2.942,2.733c-1.476,0.157-2.982,0.034-4.475,0.034C128.405,58.636,128.405,58.674,128.405,58.712z"/>
		<path fill="#FFEF62" stroke="#333333" d="M167.024,133.876c-0.124,1.387-0.269,3.451-0.505,5.505
			c-0.171,1.486-1.032,2.581-2.557,2.539c-1.709-0.048-2.026-1.389-1.984-2.863c0.078-2.732,0.089-5.464,0.468-8.183
			c0.222-1.596,0.96-2.794,2.602-2.776c1.711,0.018,2.045,1.382,1.981,2.856C166.997,131.699,167.024,132.446,167.024,133.876z"/>
		<path fill="#FFEF62" stroke="#333333" d="M125.797,162.062c2.054,0.398,4.746,0.897,7.428,1.449
			c1.308,0.269,2.127,1.146,1.929,2.474c-0.21,1.412-1.246,2.18-2.699,2.002c-2.716-0.334-5.432-0.703-8.123-1.196
			c-1.465-0.268-2.819-0.99-2.441-2.825C122.239,162.279,123.567,161.827,125.797,162.062z"/>
		<path fill="#FFEF62" stroke="#333333" d="M152.23,50.579c-0.174,0.911-0.386,1.764-1.309,2.284
			c-0.914,0.514-1.768,0.507-2.557-0.121c-1.952-1.55-3.939-3.068-5.773-4.75c-1.123-1.029-1.089-2.457-0.146-3.612
			c0.996-1.22,2.274-1.264,3.516-0.246c1.8,1.476,3.586,2.968,5.386,4.445C151.984,49.103,152.1,49.841,152.23,50.579z"/>
		<path fill="#FFEF62" stroke="#333333" d="M72.714,51.339c-2.349-0.971-5.206-1.898-7.568-3.752
			c-1.046-0.821-0.754-2.105-0.132-3.198c0.651-1.144,1.699-1.352,2.787-0.888c2.132,0.909,4.228,1.911,6.305,2.941
			c1.194,0.592,1.627,1.664,1.274,2.929C75.079,50.452,74.513,51.375,72.714,51.339z"/>
		<path fill="#FFEF62" stroke="#333333" d="M176.499,86.591c0.039,1.733-0.341,2.868-1.708,3.123
			c-1.373,0.255-2.247-0.678-2.525-1.894c-0.664-2.909-1.246-5.842-1.72-8.788c-0.195-1.21,0.164-2.378,1.676-2.6
			c1.255-0.185,2.166,0.374,2.449,1.597C175.361,81.016,175.957,84.025,176.499,86.591z"/>
		<path fill="#FFEF62" stroke="#333333" d="M61.493,87.603c-0.102,0.246-0.201,0.662-0.423,0.995
			c-1.473,2.213-2.922,4.444-4.483,6.594c-0.85,1.17-1.998,1.83-3.417,0.774c-1.356-1.01-1.248-2.191-0.37-3.471
			c1.41-2.055,2.739-4.168,4.206-6.181c0.713-0.978,1.744-1.593,3.041-1.033C60.967,85.679,61.424,86.44,61.493,87.603z"/>
		<path fill="#FFEF62" stroke="#333333" d="M69.994,139.332c-0.485,2.319-0.957,5.106-1.689,7.823
			c-0.317,1.179-1.404,1.898-2.745,1.578c-1.262-0.3-1.729-1.285-1.52-2.491c0.469-2.695,0.953-5.392,1.564-8.057
			c0.3-1.307,1.35-1.887,2.676-1.671C69.568,136.723,70.023,137.652,69.994,139.332z"/>
	</g>
	<path fill="#FEFDFD" stroke="#333333" d="M144.432,154.489c-1.489,0.044-2.5-0.349-2.808-1.569
		c-0.355-1.409,0.552-2.262,1.758-2.567c2.721-0.689,5.469-1.288,8.231-1.787c1.217-0.22,2.41,0.226,2.771,1.549
		c0.384,1.408-0.587,2.252-1.775,2.555C149.811,153.384,146.97,153.935,144.432,154.489z"/>
	<g>
		<path fill="#139F64" stroke="#333333" d="M158.991,100.208c-0.556,2.138-1.205,4.877-1.997,7.575
			c-0.415,1.411-1.662,1.935-2.97,1.592c-1.306-0.343-1.983-1.25-1.648-2.838c0.529-2.507,0.726-5.083,1.256-7.59
			c0.348-1.647,1.57-2.657,3.297-2.3C158.349,96.94,159.153,98.025,158.991,100.208z"/>
		<path fill="#139F64" stroke="#333333" d="M148.198,139.96c-2.796-1.241-6.211-2.057-9.233-3.811
			c-1.047-0.608-1.329-1.753-0.757-2.839c0.559-1.062,1.69-1.558,2.762-1.142c3.009,1.166,5.975,2.456,8.896,3.828
			c1.082,0.508,1.435,1.619,0.979,2.774C150.469,139.725,149.641,140.084,148.198,139.96z"/>
		<path fill="#139F64" stroke="#333333" d="M117.526,153.683c0.068,1.224-0.24,1.952-0.996,2.463c-0.888,0.6-1.828,0.45-2.547-0.16
			c-2.465-2.093-4.527-4.579-6.538-7.095c-0.738-0.923-0.334-1.912,0.347-2.725c0.7-0.835,1.676-0.9,2.461-0.297
			c2.566,1.971,4.804,4.303,6.929,6.735C117.474,152.938,117.479,153.523,117.526,153.683z"/>
		<path fill="#139F64" stroke="#333333" d="M57.52,113.636c0.086,1.292-0.254,2.09-1.14,2.598c-0.82,0.47-1.68,0.339-2.334-0.213
			c-2.533-2.14-4.685-4.651-6.68-7.286c-0.649-0.858-0.204-1.758,0.372-2.514c0.584-0.767,1.496-1,2.216-0.49
			c2.849,2.013,5.271,4.496,7.422,7.237C57.557,113.198,57.514,113.604,57.52,113.636z"/>
		<path fill="#139F64" stroke="#333333" d="M43.063,92.123c-0.845,2.765-1.888,5.983-3.484,8.971
			c-0.566,1.06-1.755,1.237-2.851,0.715c-1.015-0.483-1.505-1.463-1.15-2.488c1.025-2.963,2.129-5.903,3.346-8.792
			c0.481-1.143,1.668-1.282,2.795-1.013C42.792,89.77,43.072,90.619,43.063,92.123z"/>
		<path fill="#139F64" stroke="#333333" d="M106.86,29.349c2.512,0.808,5.532,1.699,8.486,2.771
			c1.168,0.424,1.473,1.604,1.064,2.735c-0.37,1.024-1.25,1.641-2.372,1.361c-2.895-0.723-5.776-1.51-8.642-2.34
			c-1.277-0.37-2.002-1.391-1.69-2.656C104.001,30.028,104.983,29.31,106.86,29.349z"/>
		<path fill="#139F64" stroke="#333333" d="M91.727,162.004c-1.731-0.035-2.546-0.791-2.976-1.976
			c-0.44-1.213,0.042-2.156,1.148-2.674c2.325-1.089,4.662-2.163,7.049-3.103c1.488-0.586,2.582,0.183,3.212,1.54
			c0.664,1.431,0.004,2.406-1.294,3.005C96.39,159.936,93.894,161.032,91.727,162.004z"/>
		<path fill="#139F64" stroke="#333333" d="M132.511,35.765c-0.123,0.326-0.22,0.834-0.482,1.232
			c-1.414,2.153-2.823,4.311-4.327,6.4c-0.823,1.143-1.92,1.978-3.391,0.996c-1.499-1.001-1.427-2.25-0.463-3.635
			c1.376-1.978,2.66-4.02,4.053-5.984c0.706-0.995,1.685-1.66,2.996-1.225C131.849,33.865,132.342,34.618,132.511,35.765z"/>
		<path fill="#139F64" stroke="#333333" d="M68.093,72.194c-0.003,1.36-0.567,2.324-1.89,2.608c-1.44,0.309-2.518-0.376-2.826-1.777
			c-0.551-2.5-0.968-5.033-1.348-7.566c-0.199-1.324,0.443-2.305,1.774-2.586c1.44-0.304,2.508,0.376,2.83,1.778
			C67.206,67.145,67.615,69.677,68.093,72.194z"/>
		<path fill="#139F64" stroke="#333333" d="M52.509,139.007c0.742,0,1.511-0.125,2.22,0.028c1.193,0.259,1.777,1.144,1.795,2.352
			c0.017,1.156-0.603,1.925-1.713,2.09c-2.527,0.376-5.062,0.774-7.607,0.918c-1.599,0.091-2.658-0.922-2.708-2.595
			c-0.045-1.513,0.896-2.188,2.346-2.312c1.89-0.162,3.775-0.376,5.662-0.568C52.505,138.95,52.507,138.979,52.509,139.007z"/>
		<path fill="#139F64" stroke="#333333" d="M149.44,125.491c-1.556,0.039-2.629-0.395-2.858-1.769
			c-0.211-1.266,0.639-2.083,1.76-2.357c2.807-0.684,5.63-1.325,8.478-1.802c1.211-0.203,2.385,0.368,2.615,1.745
			c0.213,1.27-0.675,2.07-1.782,2.347C154.851,124.357,152.014,124.924,149.44,125.491z"/>
	</g>
	<path fill="#FEFDFD" stroke="#333333" d="M169.433,103.484c-1.498,0.058-2.481-0.356-2.808-1.567
		c-0.343-1.273,0.417-2.182,1.532-2.467c2.877-0.736,5.783-1.391,8.709-1.885c1.204-0.203,2.377,0.391,2.574,1.786
		c0.18,1.276-0.728,2.048-1.829,2.321C174.807,102.368,171.969,102.931,169.433,103.484z"/>
</g>
<path fill="#9B6C3A" d="M105.573,71.504c16.001,0.045,29.063,13.224,28.934,29.194c-0.128,15.924-13.182,28.859-29.073,28.808
	c-16.007-0.051-29.061-13.226-28.929-29.198C76.636,84.376,89.671,71.459,105.573,71.504z"/>
<path fill="#F7D100" d="M105.908,75.603c13.8,0.285,24.823,11.671,24.497,25.306c-0.331,13.842-11.691,24.838-25.312,24.501
	c-13.867-0.343-24.775-11.621-24.488-25.317C80.894,86.278,92.215,75.321,105.908,75.603z"/>
</svg>
