<?xml version="1.0" encoding="utf-8"?>
<!-- Generator: Adobe Illustrator 17.1.0, SVG Export Plug-In . SVG Version: 6.00 Build 0)  -->
<!DOCTYPE svg PUBLIC "-//W3C//DTD SVG 1.1//EN" "http://www.w3.org/Graphics/SVG/1.1/DTD/svg11.dtd">
<svg version="1.1" id="Calque_1" xmlns="http://www.w3.org/2000/svg" xmlns:xlink="http://www.w3.org/1999/xlink" x="0px" y="0px"
	 viewBox="0 0 40 32" enable-background="new 0 0 40 32" xml:space="preserve">
<path fill="none" stroke="#F4F4F4" stroke-width="4" stroke-linecap="round" stroke-linejoin="round" stroke-miterlimit="10" d="
	M-25.9,21"/>
<path fill="none" stroke="#F4F4F4" stroke-width="4" stroke-linecap="round" stroke-linejoin="round" stroke-miterlimit="10" d="
	M-25.9,7.6"/>
<g>
	<g>
		<g>
			<path fill="#F4F4F4" d="M28.3,4.8c-0.5-0.3-0.9-0.6-1.5-0.9c-1-0.5-2.2-0.2-2.7,0.8S24,6.9,24.9,7.4c0.1,0.1,0.2,0.1,0.3,0.2
				l-0.4-2.7L28.3,4.8z"/>
			<path fill="#F4F4F4" d="M30.6,6.7l-3.4,0.1l0.4,2.5c2.8,2.8,3.1,6.5,2.2,9.4c-1.2,4.1-5.1,8.1-11,7.7c-5.7-0.4-8.9-4.8-9.5-8.9
				C8.8,13.8,10.1,9,15.6,6.9c1-0.4,1.5-1.6,1.2-2.6c-0.4-1-1.5-1.5-2.6-1.2c-6.4,2.4-9.8,8.3-8.9,15c0.8,5.7,5.2,11.7,13.2,12.3
				c0.4,0,0.7,0,1.1,0c6.5,0,12.1-4.2,14-10.6C35.1,14.9,33.9,10.1,30.6,6.7z"/>
		</g>
	</g>
</g>
<path fill="#F4F4F4" d="M34.8,2.6c0-0.6-0.3-1.1-0.7-1.5c-0.3-0.3-0.8-0.5-1.3-0.5c0,0-0.1,0-0.1,0L22.7,1c-0.6,0-1.1,0.3-1.5,0.7
	c-0.4,0.4-0.5,1-0.4,1.6l1.6,10c0.2,1,1,1.7,2,1.7c0.1,0,0.2,0,0.3,0c1.1-0.2,1.8-1.2,1.7-2.3l-1.2-7.7l7.8-0.3
	C34,4.6,34.9,3.7,34.8,2.6z"/>
</svg>
