<?xml version="1.0" encoding="utf-8"?>
<!-- Generator: Adobe Illustrator 17.1.0, SVG Export Plug-In . SVG Version: 6.00 Build 0)  -->
<!DOCTYPE svg PUBLIC "-//W3C//DTD SVG 1.1//EN" "http://www.w3.org/Graphics/SVG/1.1/DTD/svg11.dtd">
<svg version="1.1" xmlns="http://www.w3.org/2000/svg" xmlns:xlink="http://www.w3.org/1999/xlink" x="0px" y="0px"
	 viewBox="0 0 500 500" style="enable-background:new 0 0 500 500;" xml:space="preserve">
<style type="text/css">
	.st0{fill:#C49963;}
	.st1{display:none;}
	.st2{display:inline;}
	.st3{fill:#B38962;}
	.st4{fill:none;stroke:#000000;stroke-width:8;stroke-linecap:round;stroke-linejoin:round;stroke-miterlimit:10;}
	.st5{fill:#9A6842;}
	.st6{fill:none;stroke:#000000;stroke-width:3;stroke-linecap:round;stroke-linejoin:round;stroke-miterlimit:10;}
	.st7{fill:#ED5B9F;}
	.st8{fill:#C4208C;}
	.st9{fill:#EFA6C4;}
	.st10{fill:#CA1F83;}
	.st11{fill:none;stroke:#000000;stroke-width:4;stroke-linecap:round;stroke-linejoin:round;stroke-miterlimit:10;}
	.st12{fill:none;stroke:#000000;stroke-width:3;stroke-miterlimit:10;}
	.st13{fill:#EBE535;}
	.st14{fill:#66C8F0;}
	.st15{fill:#00A768;}
	.st16{fill:#EC353A;}
	.st17{fill:#FFFFFF;}
</style>
<g id="Pain">
	<g>
		<g>
			<g>
				<g>
					<g>
						<g>
							<path class="st0" d="M474.8,232.3c-1.5-16,0.3-58.3-34.3-96.3c-11.2-12.3-6.8-32.3-31-48.5c-24.4-16.3-32.5-18.5-40-32
								S344,40,316,33.5s-44.3-20.7-63.3-18.7s-17.8,5.5-31.3,5.2c-14.2-0.4-17.8,2.3-25.3,6.5c-8.2,4.6-8.8,3.6-19.3,4.1
								s-13,8.7-29.6,11.3c-10.4,1.6-24.6,22.7-29.6,24.2s-23.8,7-30,24c-34.5,6.3-44.8,47.2-46.8,71.7c-8,13-7.7,23.5-10.7,42
								S24,238,25,250s2.5,19.3,2,31c5.7,29,11.8,33.9,15,41.5c6.4,15.2,4.3,13.8,11.5,30.5c7.2,16.7,18.7,28.8,27,37
								c10.5,10.3,8.9,12.7,13.8,18.3c5.2,5.9,11.3,7.9,16.5,13.5c10.2,4.5,12.3,10.4,21.8,13.9s14.9,9.8,17.3,11.3
								c12.3,7.7,26.1,9.8,44,10c17.2,0.2,26.8,8.5,46,9.7c19.3,1.2,26.2-0.4,34.7-1c5.9,0.2,17.6,2.6,23.9,1.5
								C308,465.3,316,460,320,455c13.3-2.4,25.4-8,31.3-17c14.7-3.7,24.1-9.9,38.2-24.5c13.8-14.3,35.6-21.3,46.5-48.5
								c8.7-21.7,15.7-6.3,22-48.5c8.1-21.5,19.3-12.7,15.3-51.2C472,246.3,476.3,248.3,474.8,232.3z M275.3,304.8
								c-33.3,12.7-45.5-1.9-62.6-8.2s-27.5-28.3-29.3-53.6c-1.5-21.3,24.6-64.5,61.6-66.4c49.1-2.5,65.6,36,69.8,63.3
								C317.9,260.6,308.6,292.1,275.3,304.8z"/>
						</g>
					</g>
				</g>
				<g class="st1">
					<g class="st2">
						<g>
							<path class="st3" d="M314.7,240c-4.2-27.3-20.7-65.9-69.8-63.3c-37,1.9-63.1,45.1-61.6,66.4c1.8,25.3,12.3,47.3,29.3,53.6
								s29.3,20.9,62.6,8.2S317.9,260.6,314.7,240z"/>
						</g>
					</g>
					<g class="st2">
						<g>
							<path class="st4" d="M314.7,240c-4.2-27.3-20.7-65.9-69.8-63.3c-37,1.9-63.1,45.1-61.6,66.4c1.8,25.3,12.3,47.3,29.3,53.6
								s29.3,20.9,62.6,8.2S317.9,260.6,314.7,240z"/>
						</g>
					</g>
				</g>
			</g>
		</g>
	</g>
</g>
<g id="Ombre_pain">
	<path class="st5" d="M61.8,307.4c-5.5,7,0.9,20.4,3.7,27.4c2.8,6.9-0.2,22.7,16.1,39.4C98,390.9,111,399.4,117,407.9
		s15.6,8.3,24.1,11.1s-21-46.4-21-46.4L105.8,324L61.8,307.4z"/>
	<path class="st5" d="M214.8,436c6.2,6.4,11.6,16.9,23.4,18.9c11.8,2,27.8-9.5,27.8-9.5L214.8,436z"/>
	<path class="st5" d="M328.9,422c6.8,6.3,23.1,7.6,34.2,0.9c11.2-6.6,14.9-13.8,23.4-17.6c8.5-3.7,19.4-2.5,21.3-9.5
		c1.9-6.9,2.2-15,2.7-21.6c0.5-6.7,13.3-10.7,16.6-16.7c3.3-6,4.6-8.4,6.3-11.9c1.6-3.4-6.3-12.2-6.3-12.2L328.9,422"/>
	<path class="st5" d="M459.7,256.3l-5-1.2l-10.2-33.2c0,0,15.2,2.5,18.5,8.4c3.3,5.9,1.3,15.4,1,20.4c-0.3,4.9-3.5,12.4-8.1,12.4"/>
	<path class="st5" d="M208.9,323.9c3.2-4.9-0.7-7.4-5-14.8s-10.4-6.1-15.5-11.4c-5.1-5.3-5.1-14.2-7.5-19.3c-5.4-11.4-1.5,2.2,0-6.3
		c1.5-8.4,5.9-45.5,5.9-45.5l3.5-12.8l6.1-6.9l7.5-9.2l7.7-7.3l5.8-7.2l19.6-6.6h14.6l26.5,2.4l20.8,16.8l9.5,14.1l5.9,24.6
		l2.8,10.5l-2.6,11.4c0,0,8.4-8.6,22.4-15.3s-0.7-50.6-0.7-50.6l-23.9-42l-75.4-32.9l-80.2,26.1l-8.7,46.6l-4.5,49.2l5,56.5L173,329
		l20.4,3.2l10.5-12.3"/>
</g>
<g id="Calque_3">
	<g>
		<g>
			<path d="M317.3,238.8c-2.6-16.4-8.2-32.7-19-45.6c-13.4-16-33.6-22.3-54-21c-20.6,1.3-38.1,15.9-49.3,32.3
				c-5.1,7.4-9,15.7-11.4,24.4c-2.5,9.2-1.7,18.4,0.1,27.7c3.4,17.9,11.7,37.8,30,44.8c6.8,2.6,13.1,6.5,19.9,9.3
				c7.9,3.2,16.2,4.3,24.7,3.3c19.8-2.2,38.7-13.3,49.4-30.1C316.1,270.7,319.5,254.2,317.3,238.8c-0.9-6-4.4-1.6-3.8,2.4
				c2.8,19.3-6.6,38.6-21.7,50.3c-10.2,7.9-23.4,12.7-36.2,13.8c-9.7,0.8-18.7-2-27.4-6.2c-7.8-3.8-16.8-6.7-23.6-12.1
				c-9.5-7.6-14.3-20.2-16.9-31.8c-2.2-9.8-2.3-18.2,1.2-27.5c3.5-9.2,9-17.6,15.5-24.9c8.8-9.9,20.4-17.7,33.5-20.6
				c13.7-3,29.3-0.7,41.8,5.6c20,10.2,30.4,32.2,33.7,53.4C314.5,247.2,318,242.8,317.3,238.8z"/>
		</g>
	</g>
	<g>
		<g>
			<g>
				<path class="st4" d="M474.8,234.3c-1.5-16,0.3-58.3-34.3-96.3c-11.2-12.3-6.8-32.3-31-48.5c-24.4-16.3-32.5-18.5-40-32
					S344,42,316,35.5s-44.3-20.7-63.3-18.7c-19.1,2-17.8,5.5-31.3,5.2c-14.2-0.4-17.8,2.3-25.3,6.5c-8.2,4.6-8.8,3.6-19.3,4.1
					s-13,8.7-29.6,11.3c-10.4,1.6-24.6,22.7-29.6,24.2s-23.8,7-30,24c-34.5,6.3-44.8,47.2-46.8,71.7c-8,13-7.7,23.5-10.7,42
					S24,240,25,252s2.5,19.3,2,31c5.7,29,11.8,33.9,15,41.5c6.4,15.2,4.3,13.8,11.5,30.5c7.2,16.7,18.7,28.8,27,37
					c10.5,10.3,8.9,12.7,13.8,18.3c5.2,5.9,11.3,7.9,16.5,13.5c10.2,4.5,12.3,10.4,21.8,13.9s14.9,9.8,17.3,11.3
					c12.3,7.7,26.1,9.8,44,10c17.2,0.2,26.8,8.5,46,9.7c19.3,1.2,26.2-0.4,34.7-1c5.9,0.2,17.6,2.6,23.9,1.5
					C308,467.3,316,462,320,457c13.3-2.4,25.4-8,31.3-17c14.7-3.7,24.1-9.9,38.2-24.5c13.8-14.3,35.6-21.3,46.5-48.5
					c8.7-21.7,15.7-6.3,22-48.5c8.1-21.5,19.3-12.7,15.3-51.2C472,248.3,476.3,250.3,474.8,234.3z"/>
			</g>
		</g>
	</g>
</g>
<g id="Calque_7">
	<g>
		<path d="M230,451.9c0,0,0.3,0,0.7,0.1c0.2,0,0.5,0.1,0.8,0.1c0.3,0,0.6,0.1,0.9,0.1c0.3,0.1,0.7,0.1,1.1,0.2
			c0.4,0.1,0.8,0.2,1.2,0.2c0.4,0.1,0.8,0.1,1.2,0.2c0.4,0.1,0.8,0.1,1.3,0.2c0.4,0.1,0.8,0.2,1.3,0.2c0.4,0.1,0.8,0.1,1.2,0.2
			c0.4,0.1,0.8,0.1,1.2,0.2c0.4,0.1,0.7,0.1,1.1,0.2c0.7,0.1,1.2,0.2,1.7,0.3c0.4,0.1,0.7,0.2,0.7,0.2s-0.2,0.2-0.6,0.4
			c-0.4,0.2-0.9,0.6-1.6,0.9c-0.4,0.1-0.7,0.2-1.2,0.3c-0.4,0.1-0.9,0.2-1.3,0.2c-0.5,0-0.9,0-1.4,0c-0.5,0-1-0.1-1.5-0.2
			c-0.5-0.1-1-0.2-1.4-0.3c-0.5-0.2-0.9-0.3-1.3-0.5c-0.4-0.2-0.8-0.4-1.2-0.6c-0.4-0.2-0.7-0.4-1-0.7c-0.3-0.2-0.6-0.5-0.8-0.7
			c-0.2-0.2-0.4-0.4-0.5-0.6C230.1,452.1,230,451.9,230,451.9z"/>
	</g>
	<g>
		<path d="M250,456.9c0,0,0.1-0.1,0.2-0.3c0.1-0.2,0.3-0.4,0.5-0.6c0.4-0.4,0.9-0.6,1.4-0.6c0.5,0,1,0.2,1.4,0.6
			c0.2,0.2,0.3,0.4,0.5,0.6c0.1,0.2,0.2,0.3,0.2,0.3s-0.1,0.1-0.2,0.3c-0.1,0.2-0.3,0.4-0.5,0.6c-0.4,0.4-0.9,0.6-1.4,0.6
			c-0.5,0-1-0.3-1.4-0.6c-0.2-0.2-0.3-0.4-0.5-0.6C250.1,457,250,456.9,250,456.9z"/>
	</g>
	<g>
		<path d="M349,430.9c0,0,0.1,0.2,0.3,0.5c0.2,0.3,0.5,0.7,0.7,1.2c0.3,0.5,0.5,1.1,0.8,1.8c0.2,0.7,0.4,1.4,0.5,2.2
			c0,0.4,0.1,0.8,0.1,1.2c0,0.4,0,0.8-0.1,1.2c-0.1,0.8-0.3,1.5-0.7,2.1c-0.2,0.3-0.3,0.5-0.6,0.7c-0.2,0.2-0.4,0.4-0.6,0.5
			c-0.4,0.2-0.6,0.2-0.6,0.2s0-0.2,0.1-0.6c0-0.2,0-0.4,0-0.6c0-0.2-0.1-0.5-0.1-0.7c-0.2-1-0.4-2.3-0.6-3.7c-0.2-1.4-0.2-2.9,0-4.1
			c0.1-0.6,0.2-1.1,0.4-1.5C348.9,431.1,349,430.9,349,430.9z"/>
	</g>
	<g>
		<path d="M384.5,407.9c0,0,0,0,0.1-0.1c0.1,0,0.2-0.1,0.3-0.2c0.1-0.1,0.4-0.1,0.6-0.1c0.2,0,0.4-0.1,0.7-0.1c0.5,0,1,0,1.5,0
			c0.5,0,1,0.1,1.5,0.2c0.5,0.1,0.9,0.2,1.3,0.3c0.4,0.1,0.7,0.2,1.1,0.2c0.2,0,0.3,0,0.5,0c0.2,0,0.3,0,0.5-0.1
			c0.3-0.1,0.5-0.1,0.5-0.1s0,0.2,0,0.5c0,0.2-0.1,0.4-0.2,0.6c-0.1,0.2-0.2,0.5-0.4,0.7c-0.2,0.2-0.5,0.4-0.8,0.6
			c-0.3,0.2-0.6,0.3-1,0.4c-0.3,0.1-0.7,0.1-1,0.1c-0.3,0-0.7,0-1-0.1c-1.3-0.2-2.3-0.9-3-1.5c-0.2-0.2-0.3-0.3-0.4-0.4
			c-0.1-0.1-0.2-0.3-0.3-0.4C384.6,408,384.5,407.9,384.5,407.9z"/>
	</g>
	<g>
		<path d="M438.5,343.9c0,0-0.1,0.3-0.3,0.8c-0.2,0.5-0.5,1.2-1,2c-0.4,0.8-1,1.7-1.5,2.6c-0.3,0.5-0.5,0.9-0.7,1.3
			c-0.1,0.2-0.2,0.4-0.2,0.5c0,0.1,0,0.2,0-0.1c0,0,0-0.1,0-0.1l0,0l0,0c-0.1-0.1,0.1,0.2,0.1,0.1l0,0l0,0l0.1,0.2l0.2,0.4
			c0.1,0.2,0.2,0.7,0.3,1c0.2,0.7,0.3,1.3,0.4,1.8c0.1,0.6,0.2,1.1,0.2,1.6c0.1,0.5,0.1,1,0.1,1.5c0,0.9,0,1.7-0.1,2.2
			c-0.1,0.5-0.1,0.9-0.1,0.9s-0.2-0.3-0.5-0.7c-0.3-0.5-0.6-1.2-1-2c-0.2-0.4-0.4-0.9-0.6-1.3c-0.2-0.5-0.4-1-0.6-1.5
			c-0.2-0.5-0.4-1-0.6-1.5c-0.1-0.2-0.1-0.4-0.3-0.7l-0.2-0.4l-0.1-0.2l0,0l0,0c0,0,0.2,0.3,0.1,0.1l0,0l-0.1-0.1
			c0-0.1-0.1-0.2-0.1-0.3c-0.3-0.8-0.1-1.4,0-1.8c0.1-0.4,0.3-0.8,0.5-1.1c0.3-0.6,0.7-1.1,1.1-1.6c0.8-0.9,1.6-1.6,2.3-2.2
			c0.7-0.6,1.4-1,1.8-1.3C438.2,344,438.5,343.9,438.5,343.9z"/>
	</g>
	<g>
		<path d="M464,222.9c0,0,0-0.2,0.1-0.5c0.1-0.3,0.2-0.8,0.4-1.2c0.2-0.5,0.4-1,0.7-1.5c0.1-0.3,0.3-0.5,0.4-0.8
			c0.2-0.3,0.3-0.5,0.5-0.8c0.2-0.2,0.3-0.5,0.5-0.7c0.2-0.2,0.4-0.5,0.5-0.7c0.2-0.2,0.4-0.4,0.6-0.6c0.2-0.2,0.3-0.4,0.5-0.5
			c0.2-0.2,0.4-0.3,0.5-0.5c0.1-0.1,0.3-0.3,0.4-0.4c0.2-0.2,0.4-0.4,0.4-0.4s0.1,0.2,0.2,0.5c0.1,0.3,0.2,0.8,0.2,1.4
			c0,0.3-0.1,0.6-0.1,0.9c-0.1,0.3-0.2,0.6-0.3,0.9c-0.1,0.3-0.2,0.6-0.4,0.9c-0.2,0.3-0.3,0.6-0.5,0.9c-0.8,1.1-1.8,2-2.8,2.5
			c-0.5,0.2-0.9,0.4-1.2,0.5C464.2,222.9,464,222.9,464,222.9z"/>
	</g>
	<g>
		<path d="M228,29.9c0,0,0.3-0.1,1-0.3c0.6-0.2,1.4-0.5,2.4-0.9c1.9-0.8,4.5-1.8,7.2-2.7c2.7-0.9,5.5-1.6,7.8-1.6
			c1.1,0,2.1,0.2,2.8,0.5c0.3,0.1,0.5,0.3,0.7,0.4c0.1,0.1,0.2,0.2,0.2,0.2s-0.1,0-0.3,0c-0.2,0-0.4,0-0.7,0c-0.3,0-0.6,0.1-1,0.2
			c-0.4,0.1-0.8,0.3-1.3,0.4c-1.9,0.7-4.5,1.8-7.2,2.7c-1.3,0.4-2.7,0.8-4.1,1.1c-1.3,0.3-2.6,0.4-3.7,0.5c-1.1,0-2-0.1-2.7-0.2
			C228.3,30,228,29.9,228,29.9z"/>
	</g>
	<g>
		<path d="M255.5,25c0,0,0-0.1,0.1-0.3c0.1-0.2,0.1-0.4,0.2-0.6c0.2-0.4,0.5-0.6,0.7-0.6c0.3,0,0.5,0.2,0.7,0.6
			c0.1,0.2,0.2,0.4,0.2,0.6c0.1,0.2,0.1,0.3,0.1,0.3s0,0.1-0.1,0.3c-0.1,0.2-0.1,0.4-0.2,0.6c-0.2,0.4-0.5,0.6-0.7,0.6
			c-0.3,0-0.5-0.3-0.7-0.6c-0.1-0.2-0.2-0.4-0.2-0.6C255.5,25.1,255.5,25,255.5,25z"/>
	</g>
	<g>
		<path d="M120.7,65.1c0,0,0,0.2-0.2,0.5c-0.1,0.1-0.1,0.3-0.2,0.5c-0.1,0.2-0.1,0.4-0.2,0.6c-0.3,0.9-0.5,1.9-0.9,3
			c-0.4,1.1-0.8,2.2-1.3,3.1c-0.2,0.4-0.5,0.8-0.7,1.1c-0.2,0.3-0.3,0.4-0.3,0.4s-0.1-0.2-0.3-0.5c-0.2-0.3-0.3-0.7-0.5-1.3
			c-0.1-0.5-0.2-1.1-0.2-1.8c0-0.3,0-0.7,0.1-1c0.1-0.3,0.2-0.7,0.3-1c0.1-0.3,0.2-0.7,0.4-1c0.2-0.3,0.4-0.6,0.6-0.9
			c0.2-0.3,0.5-0.5,0.7-0.7c0.2-0.2,0.5-0.4,0.7-0.5c0.2-0.2,0.5-0.3,0.7-0.3c0.2-0.1,0.4-0.1,0.6-0.1
			C120.5,65.1,120.7,65.1,120.7,65.1z"/>
	</g>
	<g>
		<path d="M41.5,190.4c0,0,0.1,0.2,0.2,0.6c0.1,0.4,0.2,0.8,0.3,1.4c0.2,1.2,0.3,2.7,0.2,4.1c0,0.4,0,0.7-0.1,1.1
			c0,0.4-0.1,0.7-0.1,1c-0.1,0.7-0.2,1.3-0.3,1.8c-0.1,0.3-0.1,0.5-0.1,0.7c0,0.2-0.1,0.4-0.1,0.6c0,0.4,0,0.6,0,0.6
			s-0.2-0.1-0.5-0.3c-0.3-0.3-0.7-0.7-0.9-1.3c-0.3-0.6-0.5-1.3-0.6-2.1c-0.1-0.8-0.2-1.6-0.1-2.4c0.1-1.6,0.5-3.1,1.1-4.2
			c0.3-0.5,0.6-1,0.8-1.3C41.3,190.5,41.5,190.4,41.5,190.4z"/>
	</g>
	<g>
		<path d="M35,218.9c0,0,0,0.1-0.1,0.1c-0.1,0.1-0.2,0.2-0.3,0.4c-0.2,0.3-0.5,0.8-0.8,1.4c-0.7,1.2-1.6,2.7-2.7,4.1
			c-0.5,0.7-1.1,1.4-1.7,2c-0.6,0.6-1.1,1.2-1.6,1.7c-0.5,0.5-1,0.9-1.3,1.1c-0.3,0.3-0.5,0.5-0.5,0.5c0,0-0.1-0.3-0.1-0.7
			c0-0.5,0.1-1.1,0.3-1.8c0.2-0.7,0.5-1.5,0.9-2.3c0.4-0.8,0.9-1.6,1.5-2.3c0.6-0.7,1.2-1.4,1.9-2c0.7-0.6,1.3-1.1,2-1.5
			c0.3-0.2,0.6-0.3,0.9-0.5c0.3-0.1,0.6-0.2,0.8-0.3c0.2-0.1,0.4,0,0.5,0C34.9,218.9,35,218.9,35,218.9z"/>
	</g>
	<g>
		<path d="M40.7,285.9c0,0,0.2,0.2,0.4,0.5c0.3,0.3,0.6,0.8,0.9,1.5c0.6,1.2,1.2,2.9,1.5,4.6c0.3,1.7,0.4,3.4,0.4,4.7
			c0,0.7,0,1.2,0,1.6c0,0.4,0,0.6,0,0.6s-0.1,0-0.2-0.1c-0.1-0.1-0.3-0.1-0.4-0.3c-0.3-0.3-0.7-0.8-1.1-1.4
			c-0.8-1.2-1.4-2.9-1.7-4.6c-0.3-1.7-0.4-3.5-0.2-4.8c0.1-0.7,0.2-1.2,0.2-1.6C40.6,286.1,40.7,285.9,40.7,285.9z"/>
	</g>
	<g>
		<path d="M47.5,303.4c0,0,0.1,0.1,0.3,0.2c0.2,0.1,0.4,0.3,0.6,0.5c0.4,0.4,0.6,0.9,0.6,1.4c0,0.5-0.2,1-0.6,1.4
			c-0.2,0.2-0.4,0.3-0.6,0.5c-0.2,0.1-0.3,0.2-0.3,0.2s-0.1-0.1-0.3-0.2c-0.2-0.1-0.4-0.3-0.6-0.5c-0.4-0.4-0.6-0.9-0.6-1.4
			c0-0.5,0.3-1,0.6-1.4c0.2-0.2,0.4-0.3,0.6-0.5C47.4,303.4,47.5,303.4,47.5,303.4z"/>
	</g>
	<g>
		<path d="M58.5,327.9c0,0,0.1,0,0.2,0.1c0.1,0.1,0.3,0.2,0.6,0.4c0.2,0.2,0.5,0.4,0.8,0.8c0.3,0.3,0.6,0.7,0.9,1.1
			c0.6,0.8,1.2,1.8,1.7,2.9c0.5,1.1,1,2.3,1.5,3.5c0.8,2.4,1.4,5,1.5,6.9c0.1,1,0.1,1.8,0,2.4c0,0.3-0.1,0.5-0.1,0.7
			c0,0.2-0.1,0.2-0.1,0.2s0-0.1-0.1-0.2c-0.1-0.1-0.2-0.3-0.3-0.6c-0.3-0.5-0.7-1.2-1.1-2.1c-0.4-0.9-0.9-1.9-1.4-3
			c-0.5-1.1-0.9-2.3-1.3-3.5c-0.8-2.4-1.5-4.8-1.9-6.6c-0.1-0.5-0.2-0.9-0.3-1.3c-0.1-0.4-0.2-0.7-0.2-0.9
			C58.6,328.2,58.5,327.9,58.5,327.9z"/>
	</g>
	<g>
		<path d="M84,390.9c0,0,0.5-0.1,1.4-0.4c0.8-0.2,2.1-0.6,3.5-1.1c1.5-0.4,3.2-1,5.2-1.2c0.5,0,1.1-0.1,1.7,0c0.6,0,1.2,0.1,1.9,0.5
			c0.3,0.1,0.7,0.4,1,0.7c0.1,0.2,0.3,0.3,0.4,0.5l0.2,0.3c0,0,0,0.1,0.1,0.1l0.8,1.3c1.1,1.7,2.1,3.4,3.1,4.9
			c0.5,0.8,1,1.6,1.4,2.3c0.4,0.8,0.9,1.5,1.2,2.1c0.4,0.6,0.7,1.3,1,1.8c0.3,0.5,0.6,1,0.8,1.4c0.2,0.4,0.4,0.7,0.6,0.9
			c0.1,0.2,0.2,0.3,0.2,0.3s-0.1-0.1-0.3-0.2c-0.2-0.1-0.6-0.3-0.9-0.6c-0.7-0.6-1.7-1.4-2.8-2.5c-1.1-1.1-2.3-2.5-3.5-4
			c-0.6-0.7-1.2-1.6-1.8-2.4c-0.6-0.8-1.2-1.7-1.7-2.6l-0.7-1.3l-0.1-0.2c0,0,0,0,0,0c0,0,0-0.1,0-0.1c-0.1,0-0.1-0.1-0.2-0.2
			c-0.4-0.2-1.3-0.4-2.1-0.4c-1.8,0-3.5,0.2-5.1,0.3c-1.5,0.1-2.8,0.1-3.8,0c-0.5,0-0.8-0.1-1-0.2C84.1,390.9,84,390.9,84,390.9z"/>
	</g>
	<g>
		<path d="M184,182.4c0,0,0,0,0-0.1c0-0.1,0.1-0.2,0.1-0.4c0.1-0.3,0.2-0.7,0.4-1.1c0.3-0.9,0.8-2.1,1.5-3.1
			c0.4-0.5,0.8-1.1,1.3-1.5c0.5-0.4,1.1-0.8,1.8-1c0.3-0.1,0.7-0.1,1-0.1c0.3,0.1,0.5,0.2,0.7,0.4c0.2,0.3,0.2,0.5,0.2,0.5
			c0,0-0.1,0-0.1,0c-0.1,0-0.2,0-0.3,0c-0.1,0-0.2,0.1-0.3,0.2c-0.1,0.1-0.1,0.2-0.2,0.4c-0.3,0.6-0.8,1.7-1.5,2.8
			c-0.7,1-1.7,2-2.7,2.6c-0.5,0.3-1,0.4-1.3,0.5c-0.2,0-0.3,0-0.4,0C184,182.4,184,182.4,184,182.4z"/>
	</g>
	<g>
		<path d="M224,179c0,0-0.2,0-0.4,0c-0.1,0-0.3,0-0.5,0c-0.2,0-0.4-0.1-0.7-0.1c-0.6-0.1-1.2-0.3-1.9-0.6c-0.7-0.2-1.5-0.5-2.3-0.7
			c-0.4-0.1-0.8-0.2-1.3-0.2c-0.5,0-0.9-0.1-1.4-0.1c-0.5-0.1-1,0-1.5,0c-0.3,0-0.5,0-0.8,0l-0.2,0l0,0l0,0c0,0,0.2,0,0.1,0l0,0
			l-0.1,0l-0.4,0c-0.2,0.1-0.4,0.1-0.6,0.2c-0.2,0.1-0.5,0.1-0.7,0.2c-0.5,0.2-0.9,0.4-1.4,0.7c-1,0.5-1.9,1.1-2.9,1.8
			c-1.9,1.3-3.8,2.7-5.6,4c-1.8,1.3-3.5,2.6-5,3.6c-1.5,1-2.8,1.8-3.8,2.3c-0.5,0.2-0.9,0.4-1.2,0.4c-0.3,0.1-0.5,0-0.4,0
			c0,0,0.2,0,0.4-0.1c0.2-0.1,0.5-0.4,0.9-0.7c0.8-0.7,1.8-1.8,3-3.1c1.2-1.3,2.7-2.8,4.4-4.3c1.7-1.5,3.5-3.1,5.6-4.5
			c1-0.7,2.1-1.3,3.2-1.9c0.6-0.3,1.2-0.5,1.8-0.7c0.3-0.1,0.6-0.2,1-0.3c0.3-0.1,0.8-0.1,1.1-0.2l0.4,0l0.1,0l0,0l0.1,0l0,0l0.1,0
			l0.2,0c0.3,0,0.6,0.1,0.9,0.1c0.6,0.1,1.1,0.1,1.7,0.3c0.5,0.1,1.1,0.3,1.5,0.4c0.5,0.2,0.9,0.4,1.4,0.6c0.9,0.4,1.6,0.8,2.2,1.3
			c0.6,0.4,1.1,0.8,1.6,1c0.2,0.1,0.4,0.2,0.6,0.3c0.2,0.1,0.4,0.1,0.5,0.2C223.9,178.9,224,179,224,179z"/>
	</g>
	<g>
		<path d="M282,168.9c0,0,0.2,0,0.4,0c0.2,0,0.5,0.1,0.8,0.2c0.6,0.2,1.2,0.6,1.6,1.2c0.4,0.6,0.5,1.3,0.5,1.9
			c0,0.3-0.1,0.6-0.1,0.8c-0.1,0.2-0.1,0.4-0.1,0.4s-0.2,0-0.4,0c-0.2,0-0.5-0.1-0.8-0.2c-0.6-0.2-1.2-0.6-1.6-1.2
			c-0.4-0.6-0.5-1.3-0.5-1.9c0-0.3,0.1-0.6,0.1-0.8C281.9,169,282,168.9,282,168.9z"/>
	</g>
	<g>
		<path d="M292.5,175.9c0,0,0.1,0.3,0.3,0.7c0.2,0.5,0.4,1.1,0.5,1.9c0.4,1.6,0.6,3.7,0.6,5.8c0.1,2.1-0.1,4.1-0.2,5.7
			c-0.1,0.8-0.1,1.4-0.1,1.9c0,0.2,0,0.4,0.1,0.5c0,0.1,0,0.2,0,0.2s-0.1,0-0.2-0.1c-0.1-0.1-0.3-0.2-0.5-0.4
			c-0.2-0.2-0.4-0.5-0.6-0.8c-0.2-0.3-0.4-0.7-0.5-1.1c-0.3-0.8-0.6-1.7-0.8-2.7c-0.2-1-0.3-2.1-0.3-3.2c0-2.2,0.2-4.3,0.6-5.9
			c0.2-0.8,0.4-1.4,0.6-1.9C292.4,176.2,292.5,175.9,292.5,175.9z"/>
	</g>
	<g>
		<path d="M320.5,232.4c0,0,0,0.1,0,0.2c0,0.1,0,0.3,0,0.4c0,0.4-0.1,0.9-0.3,1.4c-0.3,1.1-0.9,2.4-1.7,3.6
			c-0.7,1.2-1.6,2.2-2.1,2.9c-0.1,0.2-0.2,0.4-0.3,0.5c-0.1,0.2-0.1,0.3-0.2,0.5c0,0.1,0,0.3,0,0.4c0,0.1,0,0.2,0,0.2
			c0,0-0.2,0-0.5-0.3c-0.1-0.1-0.3-0.4-0.4-0.6c-0.1-0.3-0.2-0.6-0.2-0.9c-0.1-1.4,0.5-2.9,1.3-4.2c0.8-1.3,1.9-2.3,2.8-2.9
			c0.5-0.3,0.9-0.6,1.2-0.7c0.1-0.1,0.3-0.1,0.3-0.2C320.5,232.4,320.5,232.4,320.5,232.4z"/>
	</g>
	<g>
		<path d="M312.5,281.4c0,0,0,0.2,0,0.6c0,0.4-0.1,0.9-0.2,1.5c-0.2,1.2-0.8,2.7-1.5,4.1c-0.7,1.4-1.6,2.6-2.4,3.5
			c-0.4,0.4-0.8,0.8-1,1.1c-0.3,0.3-0.3,0.4-0.3,0.5c0,0-0.1,0-0.1-0.1c-0.1-0.1-0.1-0.3-0.1-0.5c-0.1-0.4-0.1-1,0-1.6
			c0.1-1.3,0.6-2.8,1.4-4.2c0.7-1.4,1.7-2.7,2.7-3.5c0.5-0.4,0.9-0.7,1.2-1C312.3,281.5,312.5,281.4,312.5,281.4z"/>
	</g>
	<g>
		<path d="M227,311.4c0,0,0,0,0.1,0c0.1,0,0.2,0.1,0.4,0.2c0,0,0.1,0,0.1,0.2c0,0.1,0,0.1-0.1,0.3c0,0.1-0.1,0.1-0.2,0.1
			c0,0,0,0-0.1,0c-0.1,0-0.1,0-0.2,0c-0.1,0-0.1,0-0.2,0c-0.1,0-0.2,0-0.3,0c-0.2,0-0.5,0-0.7-0.1c-1-0.1-2.2-0.3-3.3-0.3
			c-1.1-0.1-2.2-0.1-3.3-0.2c-0.5,0-1-0.1-1.3-0.1c-0.3,0-0.5-0.1-0.5-0.1s0.3-0.8,1.3-1.5c0.5-0.4,1.1-0.7,1.8-0.9
			c0.7-0.2,1.5-0.3,2.3-0.2c0.8,0.1,1.6,0.3,2.2,0.6c0.7,0.3,1.2,0.8,1.6,1.2c0.2,0.2,0.4,0.4,0.5,0.6c0.1,0.1,0.1,0.2,0.2,0.3
			c0,0,0,0.1,0,0.1c0,0,0,0-0.1,0c0,0,0,0-0.1,0c0,0-0.1,0-0.2,0.1c-0.1,0.1-0.1,0.1-0.1,0.2c0,0.1,0,0.1,0,0.1c0-0.1,0-0.3,0-0.4
			C227,311.4,227,311.4,227,311.4z"/>
	</g>
	<g>
		<path d="M210,307.4c0,0-0.1-0.3-0.3-0.8c-0.1-0.5-0.5-1.2-0.9-2c-0.2-0.4-0.5-0.9-0.8-1.4c-0.3-0.5-0.7-1-1-1.5
			c-0.8-1.1-1.7-2.3-2.7-3.5c-1-1.3-2.2-2.6-3.5-3.9c-1.3-1.3-2.7-2.7-4.2-4.1c-0.8-0.7-1.5-1.3-2.3-1.9c-0.4-0.3-0.8-0.6-1.2-0.8
			c-0.2-0.1-0.4-0.2-0.6-0.3l-0.3-0.2L192,287c-0.1,0-0.3-0.2-0.5-0.3c-0.4-0.3-0.6-0.5-0.8-0.8c-0.2-0.3-0.4-0.5-0.6-0.8
			c-0.3-0.5-0.7-1-0.9-1.5c-0.6-1-1-2.1-1.5-3.1c-0.9-2.1-1.6-4.2-2.3-6.3c-0.7-2.1-1.3-4.1-2-6c-0.7-1.9-1.3-3.8-1.9-5.5
			c-0.3-0.8-0.7-1.7-1.1-2.4c-0.2-0.4-0.4-0.7-0.6-1c-0.2-0.3-0.4-0.6-0.7-0.9c-1.1-1.3-2.1-2.4-2.9-3.5c-0.8-1.1-1.5-2-2.1-2.8
			c-1.1-1.6-1.7-2.6-1.7-2.6s0.2,0.2,0.5,0.6c0.4,0.4,0.9,0.9,1.6,1.6c0.7,0.7,1.5,1.5,2.5,2.4c1,0.9,2.1,1.9,3.3,3.1
			c0.3,0.3,0.7,0.6,0.9,1c0.3,0.4,0.6,0.8,0.8,1.1c0.5,0.8,1,1.6,1.4,2.5c0.9,1.7,1.7,3.6,2.4,5.6c0.7,1.9,1.5,3.9,2.2,6
			c0.7,2,1.5,4.1,2.3,6.1c0.4,1,0.8,2,1.3,2.9c0.2,0.4,0.5,0.9,0.7,1.3c0.1,0.2,0.3,0.4,0.4,0.5c0.1,0.1,0.3,0.3,0.3,0.3
			c0,0,0,0.1,0.2,0.2l0.2,0.1l0.1,0.1c0,0,0.1,0.1-0.1-0.1l0,0l0.1,0l0.8,0.5c0.5,0.3,1,0.7,1.4,1c0.9,0.7,1.7,1.4,2.4,2.2
			c1.5,1.5,2.8,3,4.1,4.5c1.2,1.5,2.3,3,3.2,4.4c0.9,1.4,1.7,2.7,2.3,3.9c0.3,0.6,0.6,1.2,0.8,1.7c0.2,0.6,0.4,1.1,0.6,1.5
			c0.3,0.9,0.5,1.7,0.5,2.2C210,307.1,210,307.4,210,307.4z"/>
	</g>
	<g>
		<path d="M175.5,209.4c0,0,0.1,0.4,0.3,1.1c0.2,0.7,0.3,1.8,0.4,3c0.1,1.3,0.1,2.8-0.2,4.4c-0.1,0.4-0.1,0.8-0.2,1.2
			c-0.1,0.4-0.2,0.8-0.3,1.2c-0.2,0.8-0.6,1.7-1.1,2.5l-0.7,1.1c-0.2,0.2-0.1,0.2-0.2,0.3c0,0.1-0.1,0.2-0.1,0.4
			c-0.2,0.5-0.2,1.1-0.2,1.8c0.1,1.3,0.5,2.7,0.7,3.8c0.3,1.2,0.5,2.2,0.5,3c0,0.4-0.1,0.7-0.2,0.9c-0.1,0.2-0.2,0.2-0.2,0.3
			c0,0,0-0.1,0-0.3c0-0.2-0.1-0.4-0.3-0.7c-0.3-0.6-0.9-1.4-1.5-2.5c-0.6-1.1-1.4-2.4-1.8-4.1c-0.2-0.9-0.3-1.9,0-2.9
			c0.1-0.3,0.2-0.5,0.3-0.8c0.1-0.3,0.3-0.6,0.4-0.8l0.6-1c0.7-1.2,1.2-2.6,1.7-4c0.4-1.4,0.8-2.7,1.1-3.9c0.3-1.2,0.5-2.2,0.7-2.9
			C175.4,209.8,175.5,209.4,175.5,209.4z"/>
	</g>
	<line class="st6" x1="301" y1="300" x2="297" y2="300"/>
</g>
<g id="Calque_4">
	<g>
		<g>
			<g>
				<path class="st7" d="M457,250c-2.6-9,1.1-15.3,1.1-21.3s-3.1-6.4-3.1-13.1c0-6.7,8-16,2.7-30c-5.3-14-11.2-18.2-24.2-33.2
					c-16-18.5-1.8-32.8-16.5-51.5c-14.7-18.7-33.3-6-41.3-15.3c-8-9.3-8.3-33.4-28-42c-24.2-10.6-42.7-0.8-56.7-0.2
					c-14,0.7-41-3.5-41-3.5c-32.2-3-51-19.2-73.3-7.4C154.3,44.3,135,73,120.3,84.3c-14.7,11.3-49.3,5.3-62,30
					c-12.7,24.7-11.9,45.8-8.7,77.3c2.7,26.5-17.5,36.2-15.3,58.3c2.2,22.5,21.1,24.5,22,37.7c0.9,12.8,1.1,20.8,6,29.3
					c2.1,3.7,6.7,7.3,8,14c1.3,6.7-1.3,21.5,15.3,41.3c12.5,14.9,17.5,10.4,28.7,18c23.7,16.2,18,52,46,60s36-7.8,67.3-6.7
					c37.3,1.3,50,27.2,71,23.4c21.8-3.9,17.3-32.1,37-38.8c13.6-4.6,20.9-1.6,31.3-10.7c5.1-4.4,5.3-11.3,12.7-15.3
					c7.3-4,17.3-4.7,26.7-14c9.3-9.3,7.3-16,11.3-25.3c4-9.3,9.3-9.3,14.7-16.7c5.3-7.3,1.7-13.3,8.7-21.3
					c10.5-12,25.4-17.2,28-42.5C470.7,266.2,460.5,261.8,457,250z M325,263c-1.8,13.5-1,27.5-9,36.7c-7,8-21.3,11.3-29,13.3
					c-8,2.1-12,12.7-22.7,15.4c-10.7,2.7-21.8-3.8-33.3-8.7c-8-3.3-15.3,2.7-27.7-1.3c-11.1-3.6-9.4-16.6-19.4-26
					c-8.9-8.3-13.6-7.1-17.6-17.1s-1.2-23.6-0.4-31.1c1-8.8-4.4-13.8-2.7-28.2c2.3-19,13.7-23.3,20.6-31.7
					c3.7-4.5,6.5-12.7,12.5-16.1c6-3.3,17.8-3.3,31.2-3.9c0,0,16.7-3.3,24-4.2c7.3-0.9,7.6,2.6,22.9,3.9c15.3,1.3,19.5,0.4,28.5,6.3
					c19.9,13.3,12.9,28.3,19.2,41.3c5.7,11.7,11.7,10,13.3,23.7C337.6,251.2,326.6,251.5,325,263z"/>
			</g>
		</g>
		<g class="st1">
			<g class="st2">
				<path class="st7" d="M322.3,211.7c-6.3-13,0.7-28-19.2-41.3c-9-6-13.2-5-28.5-6.3c-15.3-1.3-15.6-4.8-22.9-3.9
					c-7.3,0.9-24,4.2-24,4.2c-13.3,0.7-25.2,0.6-31.2,3.9c-6,3.3-8.8,11.6-12.5,16.1c-7,8.3-18.3,12.7-20.6,31.7
					c-1.7,14.3,3.7,19.3,2.7,28.2c-0.8,7.5-3.7,21.1,0.4,31.1s8.7,8.7,17.6,17.1c10,9.4,8.3,22.4,19.4,26c12.3,4,19.7-2,27.7,1.3
					c11.6,4.8,22.7,11.3,33.3,8.7C275,325.7,279,315,287,312.9c7.7-2,22-5.3,29-13.3c8-9.2,7.2-23.1,9-36.7
					c1.6-11.5,12.6-11.8,10.7-27.7C334,221.7,328,223.3,322.3,211.7z"/>
			</g>
		</g>
	</g>
</g>
<g id="Reflets">
	<path class="st8" d="M156.8,272.1c0,0-0.8-13.2,0-21.5c0.8-8.3,0.5-13.8,0-20.4c-0.5-6.6-7.8-7.2-3.2-15.9c4.7-8.7,7.4-22,18-32
		s12-19.8,22-22.3s20.1,1,28.7-0.1c8.6-1,18.1-8.6,25.7-8.2c7.6,0.4,15.3,1.8,20.7,2.4c5.5,0.7,17.1,0.1,23.6,2.7
		c6.5,2.6,15.5,9,20,11.8c4.5,2.8,7.1,5.4,13.2,35.5c2.3,11.3,16.8,14.1,17.8,21s2.6-18.1-8.2-37.3s-2.5-23-14.7-31.1
		c-12.2-8.1-20.6-6.1-28-9.4c-7.5-3.3-15.8-9.5-23.6-10.4c-7.8-0.9-12.9,2.1-20.7,1.9c-7.8-0.2-23.1-1.4-38.1,5.2
		s-30.3,4.6-44.7,18.6c-14.3,14-5.3,12.8-8.5,19.4c-3.2,6.6-15.3,18.6-13.3,24.6c2.1,6,5.4,19.5,5.4,21.4s2,2.7,2,9s0,8.2,0,18.9
		C151,267,156.8,272.1,156.8,272.1z"/>
	<path class="st9" d="M162.3,278.4c-1.3,6.6,5,16.8,16.2,21c6.3,10.5,5.1,18,9,24.6c8.2,13.7,16.4,17.5,22.3,17s18.3-8,25.2-2.7
		c4.3,3.3,9.6,7.5,23.5,7.4c13.9-0.1,33.1-2.1,48.5-19.8c11.1-9.1,19.2-10.9,27.3-18.6c8.1-7.7,4.7-23.6,3.9-35.3
		c-0.6-7.6,5.1-12.7,6-17.8c0.9-5,0-13.3-3.4-13.3c2.8,19-8.6,17-8.6,31.1c0,9.6-0.4,25-8.4,31.3c-8,6.3-5.8,6-11.2,8.5
		s-18.9,5.3-23,10c-4.1,4.7-24,19.9-33.5,16.8s-19.7-9.6-28-9.6c-8.3,0-21.4,5.3-26.5,2s-14-11.1-14-20c0-5.3-4.6-11.8-9.1-14.7
		c-4.5-2.9-8.7-3.2-11.3-7.7C165.2,285.9,164,284.6,162.3,278.4z"/>
	<path class="st10" d="M72.1,309.9c-4.1,3.1,1.9,6,4.4,14.1S82,353.5,87,360.9s14.3,13.1,33.2,20.6c18.8,7.5,14.6,50.3,41.9,60.9
		s40.5-14,63.7-10.4s34.2,23.7,59.2,22.9c25-0.8,31-27.4,42-32.1c11-4.7,26-3.7,34.5-9.2c8.5-5.5,5.5-8.5,9-13s23.6-9,27.8-14.5
		s8.7-18.7,12.2-25.1c3.5-6.4,12.5-13.9,16.5-20.4s6-20,11.5-25s24.5-14.7,24.5-34.1c0-26.9-11.2-24.1-12.1-33.5
		c-0.9-9.4-0.6-9.9,0-17.7c0.6-7.8-3.9-9.4-2.9-14.6c1-5.2,14-27.2,0-36.7c7.8,25.6-8.8,25.6-7.5,40.8c0.9,10.8,1.1,31.3,2.5,36.6
		s4.3,19.5,6.3,27.7c2.9,11.7-9.2,21.8-22.8,32.9s-14.3,24.7-16,28.9c-3.7,9-28.6,17.1-34,31.5c-1.8,5-5.5,8.4-10.5,11.6
		c-5,3.2-5,11.9-14.3,16.6c-9.2,4.6-17.6,3.7-30.1,10.2S301.5,439.6,283,438s-33.3-15.1-50.1-19.1s-38.4,5.8-56.4,1.3
		s-36-15.7-36-30.7c7.2-1.4,5.8-2.8,12.2-2.8c-9-7.5-42.7-9.5-54-25.9C87.5,344.5,84,342.1,84,329c0-13-5.5-10.2-5-12.1
		C79.5,315,72.1,309.9,72.1,309.9z"/>
</g>
<g id="Calque_5">
	<path class="st11" d="M249.3,40.1c-32.2-3-51-19.2-73.3-7.4s-41.7,40.4-56.4,51.8s-49.3,5.3-62,30s-11.9,45.8-8.7,77.3
		c2.7,26.5-17.5,36.2-15.3,58.3c2.2,22.5,21.1,24.5,22,37.7c0.9,12.8,1.1,20.8,6,29.3c2.1,3.7,6.7,7.3,8,14
		c1.3,6.7-1.3,21.5,15.3,41.3c12.5,14.9,17.5,10.4,28.7,18c23.7,16.2,18,52,46,60s36-7.8,67.3-6.7c37.3,1.3,50,27.2,71,23.4
		c21.8-3.9,17.3-32.1,37-38.8c13.6-4.6,20.9-1.6,31.3-10.7c5.1-4.4,5.3-11.3,12.7-15.3c7.3-4,17.3-4.7,26.7-14
		c9.3-9.3,7.3-16,11.3-25.3c4-9.3,9.3-9.3,14.7-16.7c5.3-7.3,1.7-13.3,8.7-21.3c10.5-12,25.4-17.2,28-42.5
		c1.7-16.3-8.5-20.7-12-32.5c-2.6-9,1.1-15.3,1.1-21.3s-3.1-6.4-3.1-13.1c0-6.7,8-16,2.7-30c-5.3-14-11.2-18.2-24.2-33.2
		c-16-18.5-1.8-32.8-16.5-51.5c-14.7-18.7-33.3-6-41.3-15.3s-8.3-33.4-28-42c-24.2-10.6-42.7-0.8-56.7-0.2
		C276.3,44.3,249.3,40.1,249.3,40.1z"/>
	<path class="st12" d="M227,164.4c-13.3,0.7-25.2,0.6-31.2,3.9s-8.8,11.6-12.5,16.1c-7,8.3-18.3,12.7-20.6,31.7
		c-1.7,14.3,3.7,19.3,2.7,28.2c-0.8,7.5-3.7,21.1,0.4,31.1c4,10,8.7,8.7,17.6,17.1c10,9.4,8.3,22.4,19.4,26c12.3,4,19.7-2,27.7,1.3
		c11.6,4.8,22.7,11.3,33.3,8.7c10.7-2.7,14.7-13.3,22.7-15.4c7.7-2,22-5.3,29-13.3c8-9.2,7.2-23.1,9-36.7
		c1.6-11.5,12.6-11.8,10.7-27.7c-1.7-13.7-7.6-12-13.3-23.7c-6.3-13,0.7-28-19.2-41.3c-9-6-13.2-5-28.5-6.3
		c-15.3-1.3-15.6-4.8-22.9-3.9C243.6,161.1,227,164.4,227,164.4z"/>
</g>
<g id="Calque_9">
	<g>
		<path class="st8" d="M133,119c-5.1-2.6,10-27.6,14.1-24.8c4.2,2.8-1.5,5.9-4.8,11.7C139.3,111.1,137.7,121.4,133,119z"/>
	</g>
	<g>
		<path class="st8" d="M339.7,102.3c-0.6-5.7,28.6-6.6,28.5-1.7c-0.1,5-5.8,2-12.4,2.3C349.7,103.3,340.2,107.5,339.7,102.3z"/>
	</g>
	<g>
		<path class="st8" d="M425.7,278.1c5.4,2-6.4,28.6-10.8,26.4c-4.5-2.2,0.7-6,3.3-12.2C420.5,286.6,420.8,276.3,425.7,278.1z"/>
	</g>
	<g>
		<path class="st8" d="M356.1,389.6c-3.5,3.5-19.1-15.8-15.7-18.4c3.4-2.7,4.3,2.8,7.9,7.2C351.7,382.3,359.3,386.4,356.1,389.6z"/>
	</g>
	<g>
		<path class="st8" d="M277.8,369.4c3.8,4.3-19.4,22-22.2,17.9c-2.8-4.1,3.6-4.9,8.8-9.1C269.1,374.4,274.4,365.5,277.8,369.4z"/>
	</g>
	<g>
		<path class="st8" d="M97,372.3c-5.2-2.4,9-27.9,13.2-25.3c4.3,2.6-1.3,5.9-4.4,11.9C102.9,364.2,101.7,374.5,97,372.3z"/>
	</g>
	<g>
		<path class="st8" d="M51,246.1c-4-4.1,18.3-22.9,21.3-18.9c3,4-3.3,5.1-8.3,9.5C59.4,240.7,54.6,249.8,51,246.1z"/>
	</g>
	<g>
		<path class="st8" d="M199,71.8c-4.4-3.7,16.1-24.5,19.5-20.8c3.4,3.7-2.8,5.4-7.4,10.2C206.9,65.6,202.9,75.2,199,71.8z"/>
	</g>
	<g>
		<path class="st8" d="M232.9,158.3c-5.6-1.1,3.9-29.3,8.6-27.8c4.8,1.5-1.9,6.1-3.5,12.6C236.6,149,238,159.2,232.9,158.3z"/>
	</g>
	<g>
		<path class="st8" d="M454.4,280.7c-5.1,2.6-14.7-25.7-10.1-27.4c4.7-1.7,2.2,6,4.9,12.1C451.7,271.1,459.1,278.4,454.4,280.7z"/>
	</g>
	<g>
		<path class="st8" d="M301.2,354.2c1.3,6.2-28.4,3.1-29-2.2c-0.6-5.4,6.4,0.5,13,0.5C291.1,352.6,299.9,348.6,301.2,354.2z"/>
	</g>
	<g>
		<path class="st8" d="M184.9,425.4c-4.2,4.7-19.4-21-15.4-24.6c4-3.7,3.4,5.4,7.3,10.7C180.3,416.3,188.7,421.1,184.9,425.4z"/>
	</g>
	<g>
		<path class="st8" d="M147.2,208.9c5.5,3.1-16.6,23.3-21,20.2c-4.4-3.1,4.6-4.4,9-9.3C139.3,215.3,142.3,206.1,147.2,208.9z"/>
	</g>
	<g>
		<path class="st8" d="M84.4,146.9c-4.1-4.8,23.7-16,26.7-11.6c3,4.5-10.2,4.2-16.1,7.2C89.7,145.3,88.1,151.2,84.4,146.9z"/>
	</g>
	<g>
		<path class="st8" d="M254.2,106.4c-5.8-2.4,13.8-25.1,18.4-22.5c4.7,2.6-5.4,6.3-9.2,11.7C259.9,100.5,259.4,108.6,254.2,106.4z"
			/>
	</g>
	<g>
		<path class="st8" d="M274.5,155.6c-3.8-1.6,9-15.9,12-14.3c3.1,1.7-3.5,4-6,7.4C278.3,151.9,278,157.1,274.5,155.6z"/>
	</g>
	<g>
		<path class="st8" d="M407.7,129.1c6.5,2.3-12.1,30.9-17.4,28.3c-5.4-2.6,5.1-8,8.6-14.7C402.1,136.6,401.8,127,407.7,129.1z"/>
	</g>
	<g>
		<path class="st8" d="M415.2,250.2c3,4.3-21.2,13-23.4,9.1c-2.2-4,6.7-2.5,11.9-4.9C408.4,252.2,412.5,246.3,415.2,250.2z"/>
	</g>
	<g>
		<path class="st8" d="M338.5,397.7c-5.3-0.7,4.8-24.4,9.2-23.3c4.4,1.1-2.8,6.6-4.5,12C341.7,391.3,343.3,398.3,338.5,397.7z"/>
	</g>
	<g>
		<path class="st8" d="M177.1,309.2c6.8,1.2-7.6,31.1-13.3,29.5c-5.7-1.6,2.5-7.9,5-14.8C171.1,317.7,170.9,308.1,177.1,309.2z"/>
	</g>
	<g>
		<path class="st8" d="M74,208.3c-6.6,1.8-6.3-31.4-0.5-32.4c5.8-1,1.1,8.2,1.7,15.5C75.7,198.1,80,206.7,74,208.3z"/>
	</g>
	<g>
		<path class="st8" d="M205.4,119.8c5.2,2.5-9.4,27.8-13.6,25.1c-4.2-2.7,1.4-5.9,4.6-11.8C199.3,127.8,200.7,117.5,205.4,119.8z"/>
	</g>
	<g>
		<path class="st8" d="M360.7,138.3c3.2,4.8-22.1,19.3-24.4,14.9c-2.3-4.5,4.2-4.4,9.9-7.9C351.5,142.1,357.9,134,360.7,138.3z"/>
	</g>
	<g>
		<path class="st8" d="M354.6,232.4c-5.1,0.9-7.8-25.3-3.3-25.5c4.5-0.2,2.1,5.1,2.9,11C354.9,223.4,359.3,231.6,354.6,232.4z"/>
	</g>
	<g>
		<path class="st8" d="M407.3,347.8c3.7,3.5-13,28.2-15.9,24.7c-2.9-3.6,2.3-6.1,6-11.9C400.8,355.4,403.9,344.7,407.3,347.8z"/>
	</g>
	<g>
		<path class="st8" d="M316.2,418.2c6.4,3.3-17,20.6-22,17.4c-5.1-3.2,2.8-4.6,8-8.6C306.8,423.3,310.4,415.2,316.2,418.2z"/>
	</g>
	<g>
		<path class="st8" d="M237.3,346.5c-3.1,4.4-20.7-14-17.7-17.4c3.1-3.5,4.6,2.4,8.7,6.5C232,339.2,240.1,342.5,237.3,346.5z"/>
	</g>
	<g>
		<path class="st8" d="M140.9,276.4c3.5,2.2-6.3,23.6-9.1,21.3c-2.9-2.3,0.9-5,3.1-10C136.8,283.2,137.8,274.4,140.9,276.4z"/>
	</g>
	<g>
		<path class="st8" d="M137.5,290.5c0.3,5.4-24.9,2.1-24.7-2.5c0.2-4.7,5-1,10.8-0.4C128.8,288.1,137.2,285.6,137.5,290.5z"/>
	</g>
	<g>
		<path class="st8" d="M181.3,129.3c-5.6,1.2-9.8-27.6-4.9-28.1c5-0.5,2.6,5.5,3.7,12.1C181.1,119.3,186.4,128.2,181.3,129.3z"/>
	</g>
	<g>
		<path class="st8" d="M313.7,94.1c-5.7,0.7-7.1-28.4-2.2-28.4c5,0,2.1,5.7,2.5,12.4C314.5,84.1,318.9,93.5,313.7,94.1z"/>
	</g>
	<g>
		<path class="st8" d="M410.8,213.8c-5.6,1.3-10.3-27.5-5.4-28c5-0.6,2.7,5.5,3.9,12C410.4,203.7,415.8,212.6,410.8,213.8z"/>
	</g>
	<g>
		<path class="st8" d="M342.8,313.8c-2.7-3.7,14.6-28.1,16.6-24.4c2,3.8-2.7,6.1-6.6,11.8C349.2,306.4,345.2,317.2,342.8,313.8z"/>
	</g>
	<g>
		<path class="st8" d="M270.3,431.4c-3.5,3-24.2-14.5-20.8-16.8c3.5-2.3,5.3,2.6,10.2,6.6C264.1,424.8,273.5,428.7,270.3,431.4z"/>
	</g>
	<g>
		<path class="st8" d="M198.8,390.8c-2.5-6.3,30.3-16.6,31.8-10.9c1.5,5.7-5.9,4.1-13.4,6.6C210.5,388.7,201.1,396.5,198.8,390.8z"
			/>
	</g>
	<g>
		<path class="st8" d="M85.2,315.2c-5.1,3.2-18.9-23.9-14.2-26.1c4.8-2.3,4.4,4.5,7.7,10.7C81.7,305.3,89.9,312.3,85.2,315.2z"/>
	</g>
	<g>
		<path class="st8" d="M123.8,173.7c-4.8,1.5-16.4-24.4-12.1-25.2c4.4-0.8,3.8,4.8,6.6,10.7C120.9,164.6,128.1,172.3,123.8,173.7z"
			/>
	</g>
</g>
<g id="Calque_6">
	<g>
		<path class="st13" d="M129.4,116.9c-0.7,0-1.3-0.2-2-0.5c-1.8-0.9-2.3-3.1-1.5-6.4c1.6-6.8,10.4-21.5,15.5-21.5
			c0.6,0,1.1,0.2,1.6,0.5c1.2,0.8,1.9,1.8,2.1,2.9c0.3,2.1-1.2,3.8-3.1,6.1c-1.1,1.4-2.4,2.9-3.4,4.6c-0.8,1.5-1.6,3.4-2.3,5.3
			C134.5,112.5,132.8,116.9,129.4,116.9z"/>
		<path d="M141.4,90c0.3,0,0.5,0.1,0.7,0.2c4.2,2.8-1.5,5.9-4.8,11.7c-2.7,4.7-4.3,13.5-7.9,13.5c-0.4,0-0.8-0.1-1.3-0.4
			C123.2,112.5,136.5,90,141.4,90 M141.4,87L141.4,87c-6.5,0-15.4,16.1-17,22.7c-0.7,2.8-0.8,6.5,2.3,8c0.9,0.5,1.8,0.7,2.7,0.7
			c4.5,0,6.4-5,8.3-9.9c0.7-1.9,1.5-3.8,2.2-5.1c0.9-1.6,2.2-3.1,3.2-4.4c1.9-2.4,3.8-4.6,3.4-7.3c-0.2-1.6-1.2-2.9-2.7-4
			C143.1,87.2,142.3,87,141.4,87L141.4,87z"/>
	</g>
	<g>
		<path class="st13" d="M338.4,102.4c-4.2,0-5.1-2.5-5.2-3.9c-0.1-0.6,0-1.6,0.9-2.6c2.6-2.9,10.9-3.9,17.2-3.9
			c3.7,0,10.2,0.3,12.5,2.6c0.7,0.8,0.9,1.6,0.9,2.1c0,2.9-1.7,4.4-4.8,4.4c-1,0-2.1-0.1-3.4-0.3c-1.4-0.2-3-0.4-4.7-0.4
			c-0.4,0-0.7,0-1.1,0c-1.7,0.1-3.7,0.5-5.7,0.9C342.7,101.9,340.3,102.4,338.4,102.4z"/>
		<path d="M351.3,93.4c6.3,0,11.9,1,11.9,3.2c0,2.3-1.3,2.9-3.3,2.9c-2,0-4.9-0.6-8-0.6c-0.4,0-0.8,0-1.1,0
			c-3.8,0.2-8.9,1.9-12.3,1.9c-2.1,0-3.5-0.6-3.7-2.6C334.3,95.1,343.3,93.4,351.3,93.4 M351.3,90.4c-2.4,0-14.5,0.2-18.3,4.4
			c-1,1.1-1.4,2.4-1.3,3.8c0.5,4.9,5.3,5.3,6.7,5.3c2.1,0,4.6-0.5,7-1c1.9-0.4,4-0.8,5.5-0.9c0.3,0,0.7,0,1,0c1.6,0,3.1,0.2,4.5,0.3
			c1.3,0.1,2.4,0.3,3.5,0.3c5.6,0,6.2-4.1,6.3-5.9c0-0.8-0.2-2-1.3-3.2C362.3,91,356.1,90.4,351.3,90.4L351.3,90.4z"/>
	</g>
	<g>
		<path class="st13" d="M410.4,302.1c-0.4,0-0.8-0.1-1.2-0.3c-1.3-0.7-2.2-1.5-2.5-2.6c-0.6-2,0.7-4,2.3-6.5c0.9-1.5,2-3.2,2.8-5
			c0.6-1.6,1.1-3.6,1.6-5.6c1.2-4.8,2.4-9.7,6.2-9.7c0.5,0,1,0.1,1.6,0.3c2.1,0.8,2.8,3.3,2.1,7.4
			C422.1,286.6,415.6,302.1,410.4,302.1z"/>
		<path d="M419.6,273.9c0.3,0,0.7,0.1,1.1,0.2c5.2,1.9-5.5,26.5-10.2,26.5c-0.2,0-0.4,0-0.6-0.1c-4.5-2.2,0.7-6,3.3-12.2
			C415.3,283.1,415.7,273.9,419.6,273.9 M419.6,270.9C419.6,270.9,419.6,270.9,419.6,270.9c-5,0-6.4,5.8-7.7,10.9
			c-0.5,1.9-1,3.9-1.6,5.4c-0.7,1.8-1.8,3.4-2.7,4.8c-1.6,2.6-3.2,5-2.4,7.7c0.4,1.5,1.5,2.7,3.2,3.6c0.6,0.3,1.2,0.4,1.9,0.4
			c1.9,0,4.8-0.9,9.1-9c2.5-4.7,4.5-10.2,5.2-14.2c1.1-6.2-1.1-8.4-3.1-9.1C421,271,420.3,270.9,419.6,270.9L419.6,270.9z"/>
	</g>
	<g>
		<path class="st13" d="M350,387.5c-5.1,0-14.3-11.6-16.1-16.9c-0.7-2.2-0.5-3.7,0.6-4.6c0.9-0.7,1.7-1,2.6-1c2.2,0,3.4,2,4.7,4.4
			c0.8,1.3,1.6,2.7,2.7,4c0.9,1.1,2.3,2.2,3.5,3.4c2.7,2.4,5.3,4.6,5.4,7.1c0,0.7-0.2,1.8-1.2,2.9
			C351.6,387.2,350.9,387.5,350,387.5z"/>
		<path d="M337.1,366.4c2.2,0,3.3,4.3,6.3,7.9c3.3,3.9,11,8.1,7.8,11.3c-0.3,0.3-0.7,0.4-1.1,0.4c-4.9,0-17.7-16.4-14.6-18.9
			C336,366.7,336.6,366.4,337.1,366.4 M337.1,363.4L337.1,363.4c-1.2,0-2.4,0.5-3.5,1.3c-1,0.8-2.4,2.6-1.1,6.3
			c2,5.8,11.6,18,17.6,18c1.3,0,2.4-0.4,3.2-1.3c1.4-1.4,1.7-2.9,1.7-4c-0.1-3.2-2.9-5.6-5.9-8.2c-1.3-1.1-2.5-2.2-3.4-3.2
			c-1-1.2-1.8-2.6-2.6-3.8C341.6,366,340.1,363.4,337.1,363.4L337.1,363.4z"/>
	</g>
	<g>
		<path class="st13" d="M252,385.4c-1.5,0-2.3-0.7-2.7-1.3c-0.8-1.2-1.1-2.4-0.9-3.5c0.5-2,2.5-3.1,5.1-4.6c1.5-0.8,3.3-1.8,4.9-3.1
			c1.3-1.1,2.7-2.6,4.1-4.1c2.8-3.1,5.5-6,8.3-6c0.8,0,2,0.3,3.1,1.5c0.7,0.8,1.3,2.2,0.2,4.5C271.4,375.1,257.5,385.4,252,385.4z"
			/>
		<path d="M270.9,364.4c0.7,0,1.3,0.3,1.9,1c3.4,3.9-15,18.5-20.8,18.5c-0.7,0-1.2-0.2-1.4-0.6c-2.8-4.1,3.6-4.9,8.8-9.1
			C263.3,371.1,267.6,364.4,270.9,364.4 M270.9,361.4C270.9,361.4,270.9,361.4,270.9,361.4c-3.4,0-6.3,3.1-9.4,6.5
			c-1.3,1.5-2.7,3-4,3.9c-1.5,1.2-3.2,2.1-4.6,2.9c-2.7,1.5-5.2,2.9-5.8,5.5c-0.4,1.5,0,3.1,1.1,4.7c0.5,0.7,1.6,1.9,3.9,1.9
			c6.4,0,20.7-11.3,23.5-17.4c1.4-3.2,0.3-5.2-0.5-6.1C273.6,361.8,272,361.4,270.9,361.4L270.9,361.4z"/>
	</g>
	<g>
		<path class="st13" d="M93.2,370.1c-0.6,0-1.3-0.2-1.9-0.4c-1.9-0.9-2.4-3.1-1.7-6.6c1.5-6.8,9.6-21.7,14.8-21.7
			c0.5,0,1,0.1,1.5,0.4c1.3,0.8,2,1.7,2.2,2.9c0.4,2-1,3.9-2.8,6.2c-1.1,1.4-2.3,3-3.2,4.8c-0.8,1.5-1.5,3.5-2.1,5.4
			C98.3,365.6,96.8,370.1,93.2,370.1z"/>
		<path d="M104.5,342.8c0.2,0,0.5,0.1,0.7,0.2c4.3,2.6-1.3,5.9-4.4,11.9c-2.6,4.9-3.8,13.8-7.5,13.8c-0.4,0-0.8-0.1-1.2-0.3
			C87,365.9,99.6,342.8,104.5,342.8 M104.5,339.8L104.5,339.8c-1.1,0-4.3,0-9.9,8.9c-3,4.8-5.4,10.2-6.3,14c-0.7,3-0.8,6.8,2.5,8.3
			c0.8,0.4,1.7,0.6,2.5,0.6c4.6,0,6.4-5.2,8.1-10.2c0.6-1.9,1.3-3.8,2-5.2c0.9-1.7,2.1-3.2,3.1-4.5c1.9-2.4,3.6-4.7,3.1-7.4
			c-0.3-1.6-1.3-2.9-2.9-3.9C106,340,105.3,339.8,104.5,339.8L104.5,339.8z"/>
	</g>
	<g>
		<path class="st13" d="M47.8,244.5c-1.1,0-2.1-0.5-2.9-1.3c-0.7-0.8-1.4-2.2-0.4-4.6c2.5-6,15.8-17.4,21.5-17.4
			c1.4,0,2.1,0.6,2.5,1.1c0.9,1.2,1.2,2.3,1,3.5c-0.4,2-2.4,3.3-4.9,4.8c-1.5,0.9-3.2,2-4.7,3.3c-1.3,1.1-2.6,2.7-3.9,4.3
			C53.3,241.4,50.7,244.5,47.8,244.5z"/>
		<path d="M66,222.6c0.6,0,1,0.2,1.3,0.5c3,4-3.3,5.1-8.3,9.5C55.2,236,51.2,243,47.8,243c-0.7,0-1.3-0.3-1.9-0.9
			C42.4,238.4,60.3,222.6,66,222.6 M66,219.6L66,219.6c-6.2,0-20.1,11.8-22.8,18.3c-1.4,3.4-0.2,5.4,0.7,6.3c1.4,1.5,3,1.8,4,1.8
			c3.5,0,6.4-3.4,9.3-6.9c1.3-1.5,2.6-3.1,3.8-4.1c1.4-1.3,3.1-2.3,4.5-3.1c2.6-1.6,5.1-3.1,5.6-5.8c0.3-1.6-0.2-3.1-1.3-4.6
			C68.8,220.2,67.5,219.6,66,219.6L66,219.6z"/>
	</g>
	<g>
		<path class="st14" d="M195.7,70c-1,0-1.9-0.4-2.7-1.1c-0.9-0.7-1.7-2.2-0.6-5c2.4-6.5,14.8-18.9,20-18.9c1.1,0,1.8,0.5,2.2,0.9
			c1,1.1,1.5,2.2,1.4,3.3c-0.2,2.1-2,3.5-4.4,5.2c-1.4,1.1-3,2.2-4.4,3.7c-1.2,1.2-2.4,3-3.5,4.6C201.1,66.5,198.7,70,195.7,70z"/>
		<path d="M212.4,46.5c0.5,0,0.8,0.1,1.1,0.4c3.4,3.7-2.8,5.4-7.4,10.2c-3.6,3.8-7,11.3-10.3,11.3c-0.6,0-1.2-0.2-1.7-0.7
			C190,64.3,207,46.5,212.4,46.5 M212.4,43.5L212.4,43.5c-6.3,0-19,13.3-21.4,19.9c-1.4,3.8,0.1,5.8,1.1,6.7
			c1.4,1.2,2.8,1.4,3.7,1.4c3.8,0,6.4-3.8,9.2-7.8c1.1-1.6,2.3-3.3,3.4-4.5c1.3-1.4,2.8-2.5,4.2-3.5c2.4-1.8,4.7-3.6,5-6.3
			c0.1-1.6-0.4-3.1-1.7-4.5C214.9,44,213.7,43.5,212.4,43.5L212.4,43.5z"/>
	</g>
	<g>
		<path class="st14" d="M228.5,155.8c-0.3,0-0.6,0-0.9-0.1c-2.3-0.4-3.3-2.9-2.8-7.3c0.7-7,6.1-23.6,11.4-23.6c0.3,0,0.6,0,0.8,0.1
			c1.3,0.4,2.2,1.1,2.6,2.1c0.7,1.8-0.5,3.6-1.9,5.9c-1.2,1.9-2.5,4-3.1,6.3c-0.4,1.6-0.6,3.7-0.7,5.8
			C233.4,150.2,232.9,155.8,228.5,155.8z"/>
		<path d="M236.1,126.4c0.1,0,0.3,0,0.4,0.1c4.8,1.5-1.9,6.1-3.5,12.6c-1.4,5.6-0.2,15.3-4.5,15.3c-0.2,0-0.4,0-0.7-0.1
			C222.4,153.2,231.3,126.4,236.1,126.4 M236.1,123.4L236.1,123.4L236.1,123.4c-1.9,0-4.9,1-8.7,9.9c-2.2,5.1-3.8,10.8-4.2,15.1
			c-0.6,6.6,1.9,8.5,4.1,8.9c0.4,0.1,0.8,0.1,1.2,0.1c1.6,0,4.4-0.7,5.7-5c0.6-2,0.8-4.6,1-7c0.2-2,0.3-4,0.7-5.6
			c0.5-2.1,1.8-4.1,2.9-5.9c1.5-2.5,3-4.8,2.1-7.3c-0.4-1-1.3-2.3-3.5-3C237,123.4,236.6,123.4,236.1,123.4L236.1,123.4z"/>
	</g>
	<g>
		<path class="st14" d="M448.7,278.4c-5.5,0-10.6-15.5-11.7-21.7c-0.9-5.1-0.3-8,1.8-8.8c0.6-0.2,1.2-0.3,1.7-0.3
			c3.1,0,3.4,3.4,3.7,6.4c0.2,2.2,0.4,4.7,1.4,6.9c0.7,1.5,1.8,3.3,2.9,5c2.3,3.6,4.4,6.9,3.7,9.6c-0.2,0.8-0.8,1.8-2.2,2.5
			C449.6,278.3,449.2,278.4,448.7,278.4z"/>
		<path d="M440.5,249.1c3.1,0,1.3,6.9,3.8,12.4c2.5,5.5,9.8,12.9,5.1,15.2c-0.2,0.1-0.5,0.2-0.7,0.2c-5.2,0-13.8-25.9-9.4-27.5
			C439.8,249.2,440.2,249.1,440.5,249.1 M440.5,246.1L440.5,246.1c-0.7,0-1.4,0.1-2.2,0.4c-4.3,1.6-3.2,8.2-2.8,10.4
			c0.8,4.3,2.5,9.7,4.5,14c2.9,6,5.6,8.9,8.6,8.9c0.7,0,1.4-0.2,2-0.5c1.9-1,2.7-2.4,3-3.5c0.9-3.3-1.4-7-3.9-10.8
			c-1.1-1.7-2.2-3.4-2.8-4.8c-0.9-2-1.1-4.3-1.3-6.4C445.4,250.8,445,246.1,440.5,246.1L440.5,246.1z"/>
	</g>
	<g>
		<path class="st14" d="M287,355.1c-6.4,0-20.7-1.7-21.3-6.9c-0.1-1.3,0.1-2.3,0.7-3c0.4-0.4,1.1-0.9,2.2-0.9c1.2,0,2.7,0.5,4.5,1.1
			c2.2,0.8,4.7,1.6,7.1,1.6c0,0,0,0,0,0c1.7,0,3.6-0.3,5.5-0.7c2-0.3,4-0.7,5.8-0.7c3.5,0,5.6,1.4,6.2,4.2c0.2,1,0,1.9-0.6,2.7
			C295.6,354.3,292.3,355.1,287,355.1z"/>
		<path d="M268.6,345.8c2.3,0,7,2.7,11.5,2.8c0,0,0,0,0.1,0c3.5,0,7.9-1.3,11.3-1.3c2.4,0,4.2,0.7,4.7,3c0.5,2.4-3.8,3.4-9.2,3.4
			c-8.4,0-19.5-2.4-19.8-5.6C267,346.4,267.5,345.8,268.6,345.8 M268.6,342.8L268.6,342.8c-1.7,0-2.8,0.8-3.3,1.4
			c-0.9,1-1.3,2.4-1.1,4.2c0.5,4.3,7,6,9.1,6.6c4.1,1.1,9.2,1.7,13.7,1.7c8.7,0,10.6-2.3,11.2-3.1c0.9-1.1,1.2-2.5,0.9-3.9
			c-0.4-2-2-5.4-7.6-5.4c-1.9,0-4,0.4-6,0.7c-1.8,0.3-3.7,0.6-5.2,0.6c-2.2,0-4.5-0.8-6.6-1.6C271.7,343.3,270.1,342.8,268.6,342.8
			L268.6,342.8z"/>
	</g>
	<g>
		<path class="st14" d="M178.6,423.5c-5.1,0-12.2-11.9-14.8-18.6c-1.9-4.7-2-7.8-0.4-9.3c0.9-0.8,1.8-1.2,2.6-1.2
			c2.3,0,3.1,2.6,4,5.5c0.7,2.2,1.5,4.7,2.9,6.7c1,1.3,2.4,2.7,3.8,4.1c3.5,3.4,7.9,7.6,4.3,11.7
			C180.4,423.1,179.6,423.5,178.6,423.5z"/>
		<path d="M166.1,395.9c2.3,0,2.4,7.1,5.7,11.6c3.5,4.8,11.9,9.6,8.2,13.9c-0.3,0.4-0.8,0.6-1.3,0.6c-5.3,0-17.8-21.9-14.2-25.2
			C165.1,396.2,165.6,395.9,166.1,395.9 M166.1,392.9L166.1,392.9c-1.2,0-2.4,0.5-3.6,1.6c-3.1,2.9-0.8,8.9,0,10.9
			c2,5.2,9.7,19.5,16.2,19.5c1.4,0,2.6-0.6,3.5-1.6c4.6-5.2-0.8-10.3-4.3-13.8c-1.4-1.3-2.8-2.7-3.6-3.9c-1.3-1.7-2-4.1-2.6-6.2
			C170.6,396.4,169.5,392.9,166.1,392.9L166.1,392.9z"/>
	</g>
	<g>
		<path class="st14" d="M122.4,226.9c-0.8,0-1.5-0.2-2-0.6c-0.5-0.3-1.9-1.4-1.8-3c0.1-1.9,2.1-3,4.7-4.4c2-1.1,4.3-2.4,5.9-4.2
			c1.1-1.2,2.2-2.9,3.2-4.6c2.3-3.6,4.6-7.3,8-7.3c0.9,0,1.7,0.2,2.6,0.7c0.7,0.4,2.1,1.5,1.4,4.2
			C142.7,214.3,128.1,226.9,122.4,226.9z"/>
		<path d="M140.4,204.4c0.6,0,1.2,0.2,1.8,0.5c5.1,2.9-13.6,20.5-19.8,20.5c-0.5,0-0.9-0.1-1.2-0.3c-4.4-3.1,4.6-4.4,9-9.3
			C133.8,211.9,136.5,204.4,140.4,204.4 M140.4,201.4L140.4,201.4c-4.2,0-6.8,4.1-9.3,8c-1,1.6-2,3.2-3.1,4.4
			c-1.4,1.6-3.6,2.8-5.5,3.9c-2.8,1.6-5.3,2.9-5.4,5.6c-0.1,1.6,0.7,3.1,2.4,4.3c0.8,0.6,1.8,0.9,2.9,0.9c6.9,0,21.7-13.6,23.4-20.2
			c0.7-2.5-0.1-4.7-2.2-5.9C142.6,201.7,141.5,201.4,140.4,201.4L140.4,201.4z"/>
	</g>
	<g>
		<path class="st14" d="M81.9,145.9c-1.3,0-2.5-0.7-3.6-2.1c-0.9-1-1-2.3-0.4-3.6c2.5-5.3,18.4-11.5,25.1-11.5
			c2.1,0,3.6,0.6,4.3,1.7c0.9,1.3,0.8,2.4,0.5,3.1c-0.9,2.3-4.5,3-9.1,4c-3,0.6-6,1.3-8,2.3c-1.7,0.9-3,2.2-4.2,3.3
			C85,144.6,83.7,145.9,81.9,145.9z"/>
		<path d="M103,130.3c1.5,0,2.6,0.3,3.1,1c3,4.5-10.2,4.2-16.1,7.2c-4,2.1-5.9,5.9-8.1,5.9c-0.8,0-1.6-0.4-2.5-1.6
			C76,138.8,95,130.3,103,130.3 M103,127.3L103,127.3c-7.2,0-23.7,6.3-26.5,12.3c-0.9,1.8-0.6,3.7,0.6,5.2c1.5,1.8,3.1,2.6,4.8,2.6
			c2.4,0,4.1-1.6,5.7-3.2c1.1-1.1,2.3-2.3,3.8-3c1.8-0.9,4.9-1.6,7.7-2.2c5-1,8.9-1.9,10.2-4.9c0.3-0.8,0.7-2.5-0.6-4.5
			C107.5,128.1,105.6,127.3,103,127.3L103,127.3z"/>
	</g>
	<g>
		<path class="st15" d="M250.8,104.3c-0.7,0-1.5-0.2-2.2-0.5c-0.8-0.3-2.5-1.4-1.9-4.4c1.3-6.6,14.3-21.1,20-21.1
			c0.6,0,1.1,0.1,1.6,0.4c1.3,0.7,1.9,1.6,2,2.7c0.2,2.1-2.1,3.8-5,6c-2.1,1.6-4.4,3.3-5.7,5.2c-1,1.4-1.8,3.2-2.5,5
			C255.7,100.8,254.2,104.3,250.8,104.3z"/>
		<path d="M266.7,79.7c0.3,0,0.6,0.1,0.9,0.2c4.7,2.6-5.4,6.3-9.2,11.7c-3.1,4.3-3.8,11.2-7.6,11.2c-0.5,0-1-0.1-1.7-0.4
			C243.7,100.1,260.9,79.7,266.7,79.7 M266.7,76.7L266.7,76.7c-1.8,0-5.9,1.1-12.8,8.6c-1.8,1.9-7.6,8.6-8.7,13.7
			c-0.9,4.2,1.9,5.7,2.7,6.1c1,0.4,1.9,0.6,2.8,0.6c4.4,0,6.2-4.3,7.7-7.7c0.7-1.7,1.4-3.4,2.4-4.7c1.2-1.7,3.4-3.4,5.4-4.9
			c3.1-2.3,5.8-4.4,5.6-7.3c-0.1-1.1-0.6-2.7-2.8-3.9C268.4,76.9,267.6,76.7,266.7,76.7L266.7,76.7z"/>
	</g>
	<g>
		<path class="st15" d="M270.6,153.4c-0.5,0-1.1-0.1-1.7-0.4c-0.5-0.2-2-1-1.5-3.4c0.9-4.4,9.5-13.9,13.6-13.9
			c0.5,0,0.9,0.1,1.3,0.3c1.2,0.7,1.6,1.5,1.6,2.1c0.1,1.7-1.5,2.8-3.5,4.3c-1.3,1-2.8,2.1-3.6,3.2c-0.6,0.9-1.1,2-1.6,3
			C274.2,150.9,273.2,153.4,270.6,153.4z"/>
		<path d="M281,137.2c0.2,0,0.4,0,0.6,0.1c3.1,1.7-3.5,4-6,7.4c-2,2.7-2.5,7.1-4.9,7.1c-0.3,0-0.7-0.1-1.1-0.2
			C265.9,150.2,277.2,137.2,281,137.2 M281,134.2L281,134.2c-3,0-6.6,3.2-9.1,5.8c-1.2,1.3-5.2,5.8-5.9,9.3c-0.5,2.8,1,4.5,2.4,5.1
			c0.7,0.3,1.5,0.5,2.2,0.5c3.5,0,4.9-3.2,6-5.6c0.4-1,0.9-2,1.4-2.8c0.7-0.9,2.1-2,3.3-2.9c2.2-1.6,4.3-3.1,4.1-5.6
			c-0.1-0.8-0.4-2.3-2.4-3.4C282.4,134.4,281.7,134.2,281,134.2L281,134.2z"/>
	</g>
	<g>
		<path class="st15" d="M386.1,155c-0.5,0-1-0.1-1.4-0.3c-1.3-0.6-2.1-1.6-2.3-2.7c-0.4-2.3,1.8-4.5,4.6-7.3c2.1-2,4.4-4.4,5.7-6.8
			c1-1.8,1.6-4,2.2-6.2c1.2-4.2,2.4-8.6,6.4-8.6c0.6,0,1.3,0.1,2,0.4c1.1,0.4,2.9,1.6,2.2,5.6c-0.7,3.9-3.8,10.1-7.9,15.9
			C394.9,148.8,389.8,155,386.1,155z"/>
		<path d="M401.2,124.8c0.5,0,1,0.1,1.5,0.3c6.2,2.2-10.6,28.5-16.7,28.5c-0.3,0-0.5-0.1-0.8-0.2c-5.4-2.6,5.1-8,8.6-14.7
			C396.8,133.2,396.8,124.8,401.2,124.8 M401.2,121.8L401.2,121.8c-5.1,0-6.6,5.3-7.8,9.6c-0.6,2.1-1.2,4.2-2.1,5.9
			c-1.2,2.2-3.4,4.4-5.4,6.4c-3,3-5.6,5.5-5,8.6c0.2,1.1,0.9,2.7,3.1,3.8c0.6,0.3,1.3,0.5,2.1,0.5c2.3,0,6.4-1.8,12.7-10.6
			c3.4-4.7,7.3-11.5,8.2-16.5c0.9-5.2-1.9-6.8-3.2-7.2C402.8,121.9,402,121.8,401.2,121.8L401.2,121.8z"/>
	</g>
	<g>
		<path class="st15" d="M389.8,257.8c-2.2,0-3.6-0.6-4.3-1.8c-0.8-1.4-0.6-2.4-0.2-3c0.9-1.7,3.3-2.1,6.4-2.5
			c2.2-0.3,4.6-0.6,6.4-1.5c1.4-0.6,2.7-1.7,4-2.7c2-1.5,3.9-3,5.9-3c0.9,0,2.3,0.3,3.4,2c0.7,1,0.7,2.1,0.1,3.2
			C409.2,253.1,395.7,257.8,389.8,257.8z"/>
		<path d="M408,244.9c0.8,0,1.5,0.4,2.2,1.3c2.5,3.6-13.5,10.1-20.4,10.1c-1.5,0-2.6-0.3-3-1c-2.2-4,6.7-2.5,11.9-4.9
			C402.3,248.7,405.5,244.9,408,244.9 M408,241.9L408,241.9c-2.5,0-4.6,1.6-6.8,3.3c-1.2,0.9-2.5,1.9-3.8,2.5
			c-1.6,0.7-3.9,1.1-6,1.3c-3.4,0.5-6.3,0.8-7.5,3.3c-0.5,0.9-0.8,2.5,0.3,4.4c0.9,1.7,2.8,2.6,5.6,2.6c5.9,0,20.3-4.6,23.1-10
			c0.8-1.6,0.8-3.4-0.2-4.8C411.2,242.4,409.3,241.9,408,241.9L408,241.9z"/>
	</g>
	<g>
		<path class="st15" d="M334.1,395.2c-0.2,0-0.5,0-0.8-0.1c-1.1-0.2-3-1-2.8-5c0.4-6.4,6.9-21.3,11.8-21.3c0.2,0,0.4,0,0.7,0.1
			c1.5,0.4,2.1,1.2,2.4,1.9c0.7,1.8-0.7,3.8-2.5,6.4c-1.3,1.8-2.7,3.8-3.3,5.7c-0.5,1.4-0.6,3.1-0.8,4.8
			C338.6,391,338.2,395.2,334.1,395.2z"/>
		<path d="M342.4,370.3c0.1,0,0.2,0,0.3,0c4.4,1.1-2.8,6.6-4.5,12c-1.5,4.7-0.1,11.3-4.1,11.3c-0.2,0-0.4,0-0.6,0
			C328.4,393,337.9,370.3,342.4,370.3 M342.4,367.3L342.4,367.3c-1.1,0-4.4,0-9,9.2c-1.9,3.8-4.1,9.4-4.3,13.6c-0.4,5.6,3,6.5,4,6.6
			c0.3,0,0.7,0.1,1,0.1c5.4,0,6-5.6,6.3-9c0.2-1.6,0.3-3.2,0.7-4.5c0.5-1.7,1.9-3.6,3.1-5.3c2-2.8,3.7-5.2,2.7-7.8
			c-0.4-1-1.3-2.3-3.4-2.8C343.1,367.4,342.8,367.3,342.4,367.3L342.4,367.3z"/>
	</g>
	<g>
		<path class="st15" d="M159.3,336.2c-0.3,0-0.6,0-0.9-0.1c-1.5-0.4-2.5-1.2-2.9-2.3c-0.8-2.2,0.9-4.6,3-7.7c1.4-2.1,3-4.4,3.9-6.7
			c0.6-1.6,1-3.5,1.4-5.3c1.1-4.9,2.4-10.5,7.3-10.5c0.4,0,0.8,0,1.2,0.1c1.3,0.2,3.4,1.2,3,5.7C174.7,317,165.5,336.2,159.3,336.2z
			"/>
		<path d="M171.2,305.1c0.3,0,0.6,0,0.9,0.1c6.6,1.1-6.9,29.6-12.8,29.6c-0.2,0-0.3,0-0.5-0.1c-5.7-1.6,2.5-7.9,5-14.8
			C166,314,165.9,305.1,171.2,305.1 M171.2,302.1L171.2,302.1c-6.1,0-7.6,6.5-8.8,11.6c-0.4,1.8-0.8,3.6-1.4,5.2
			c-0.8,2.1-2.3,4.4-3.7,6.4c-2.3,3.3-4.2,6.1-3.2,9c0.4,1.1,1.4,2.5,3.9,3.2c0.4,0.1,0.8,0.2,1.3,0.2c3.4,0,7.2-3.8,11.4-11.2
			c2.7-4.9,5.7-11.9,6.2-17c0.5-6-3.1-7.1-4.2-7.3C172.1,302.1,171.6,302.1,171.2,302.1L171.2,302.1z"/>
	</g>
	<g>
		<path class="st15" d="M68.4,205.9c-3.9,0-5.3-6.5-5.7-11.9c-0.6-7,0-22.6,5.4-23.5c0.4-0.1,0.7-0.1,1-0.1c1.5,0,2.3,0.6,2.7,1.1
			c1.4,1.7,1,4.5,0.4,8c-0.4,2.5-0.9,5.3-0.7,7.7c0.1,1.7,0.6,3.6,1,5.4c1.1,5.1,2.5,11.4-3.3,13C69.1,205.9,68.7,205.9,68.4,205.9z
			"/>
		<path d="M69.2,171.9c4.6,0,0.3,8.6,1,15.6c0.6,6.6,4.8,15.2-1.2,16.9c-0.2,0-0.4,0.1-0.5,0.1c-6.1,0-5.6-31.5,0-32.4
			C68.7,171.9,69,171.9,69.2,171.9 M69.2,168.9c-0.4,0-0.8,0-1.3,0.1c-8.4,1.4-6.7,24.9-6.7,25.1c0.7,8.8,3.1,13.3,7.2,13.3
			c0.4,0,0.9-0.1,1.3-0.2c7.1-2,5.4-9.7,4.3-14.8c-0.4-1.8-0.8-3.7-0.9-5.3c-0.2-2.3,0.2-5,0.6-7.4c0.6-3.8,1.2-7.1-0.7-9.3
			C72.4,169.8,71.2,168.9,69.2,168.9L69.2,168.9z"/>
	</g>
	<g>
		<path class="st16" d="M187.5,142.6c-0.6,0-1.1-0.1-1.5-0.4c-1.2-0.8-2-1.8-2.2-2.9c-0.3-2,1.1-3.9,2.9-6.2
			c1.1-1.4,2.3-2.9,3.3-4.7c0.8-1.5,1.5-3.5,2.2-5.4c1.7-4.6,3.3-9,6.8-9c0.6,0,1.3,0.2,1.9,0.5c1.8,0.9,2.4,3.1,1.6,6.5
			C201.1,127.7,192.7,142.6,187.5,142.6z"/>
		<path d="M199.1,115.5c0.4,0,0.8,0.1,1.3,0.3c4.9,2.4-8,25.3-12.9,25.3c-0.3,0-0.5-0.1-0.7-0.2c-4.2-2.7,1.4-5.9,4.6-11.8
			C194,124.3,195.4,115.5,199.1,115.5 M199.1,112.5L199.1,112.5c-4.6,0-6.4,5.1-8.2,10c-0.7,1.9-1.4,3.8-2.1,5.2
			c-0.9,1.7-2.1,3.2-3.2,4.5c-1.9,2.4-3.7,4.7-3.2,7.4c0.3,1.6,1.2,2.9,2.8,3.9c0.7,0.4,1.5,0.7,2.3,0.7c1.1,0,4.3,0,10.1-8.8
			c3.1-4.8,5.6-10.1,6.5-14c0.7-2.9,0.8-6.6-2.4-8.2C200.8,112.7,200,112.5,199.1,112.5L199.1,112.5z"/>
	</g>
	<g>
		<path class="st16" d="M333.3,151.5c-2,0-2.9-0.9-3.2-1.6c-0.7-1.3-0.8-2.5-0.4-3.6c0.7-1.9,2.9-2.8,5.6-3.9
			c1.6-0.6,3.5-1.4,5.2-2.4c1.4-0.9,3.1-2.2,4.6-3.5c3-2.5,5.9-4.9,8.5-4.9c1,0,2.3,0.3,3.4,1.9c0.5,0.8,0.9,2.1-0.1,4
			C353.8,143.2,339,151.5,333.3,151.5z"/>
		<path d="M353.6,133.1c0.8,0,1.6,0.4,2.1,1.2c2.8,4.2-16.1,15.7-22.4,15.7c-0.9,0-1.6-0.3-1.9-0.8c-2.3-4.5,4.2-4.4,9.9-7.9
			C345.4,138.8,350.3,133.1,353.6,133.1 M353.6,130.1L353.6,130.1c-3.1,0-6.2,2.5-9.4,5.2c-1.5,1.3-3.1,2.6-4.4,3.4
			c-1.6,1-3.4,1.7-5,2.3c-2.8,1.1-5.5,2.2-6.5,4.7c-0.6,1.5-0.4,3.1,0.5,4.8c0.5,0.9,1.7,2.5,4.6,2.5c6.2,0,21.6-8.6,24.9-14.8
			c1.4-2.7,0.6-4.6,0-5.5C357.1,131,355.5,130.1,353.6,130.1L353.6,130.1z"/>
	</g>
	<g>
		<path class="st16" d="M349.4,229.9c-5.2,0-6.7-13.2-6.8-18.3c-0.2-6.6,1.1-10.1,3.7-10.2c0.1,0,0.2,0,0.4,0c1.2,0,2.2,0.4,2.9,1.1
			c1.3,1.4,1.2,3.6,1.1,6.1c-0.1,1.6-0.1,3.4,0.1,5.2c0.2,1.5,0.7,3.3,1.2,5.1c1.1,3.7,2,7.2,0.7,9.4c-0.4,0.6-1.2,1.4-2.7,1.7
			C349.7,229.9,349.6,229.9,349.4,229.9z"/>
		<path d="M346.6,202.9c4.1,0,1.9,5.2,2.6,11c0.7,5.4,5.1,13.7,0.5,14.5c-0.1,0-0.2,0-0.2,0c-4.9,0-7.5-25.3-3.1-25.5
			C346.4,202.9,346.5,202.9,346.6,202.9 M346.6,199.9c-0.1,0-0.3,0-0.4,0c-5.4,0.3-5.1,8.9-5.1,11.8c0.1,4,0.7,8.5,1.7,11.9
			c0.5,1.9,2.2,7.8,6.6,7.8c0.3,0,0.5,0,0.8-0.1c2-0.3,3.1-1.5,3.7-2.4c1.7-2.7,0.7-6.5-0.5-10.6c-0.5-1.7-1-3.5-1.2-4.9
			c-0.2-1.7-0.1-3.4-0.1-4.9c0.1-2.8,0.2-5.4-1.5-7.2C349.9,200.8,348.7,199.9,346.6,199.9L346.6,199.9z"/>
	</g>
	<g>
		<path class="st16" d="M387.1,370.4c-0.8,0-1.4-0.3-1.9-0.9c-2.8-3.4-0.2-6.3,2.3-9.1c1.2-1.3,2.5-2.8,3.6-4.5
			c1-1.5,1.9-3.5,2.9-5.4c2.2-4.6,4.2-8.6,7-8.6c0.8,0,1.6,0.3,2.3,1c1.4,1.3,1.3,3.7-0.2,7.5C400.4,357,391.6,370.4,387.1,370.4z"
			/>
		<path d="M401,343.3c0.4,0,0.8,0.2,1.2,0.6c3.4,3.3-10.9,25-15.1,25c-0.3,0-0.5-0.1-0.7-0.3c-2.9-3.6,2.3-6.1,6-11.9
			C395.4,352.1,398.2,343.3,401,343.3 M401,340.3L401,340.3L401,340.3c-3.8,0-5.9,4.4-8.4,9.5c-0.9,1.9-1.9,3.9-2.8,5.3
			c-1.1,1.7-2.4,3.1-3.5,4.4c-2.5,2.8-5.9,6.7-2.4,11c0.8,0.9,1.8,1.5,3.1,1.5c1,0,3.8,0,9.7-7.9c3.2-4.3,6.1-9.3,7.7-13.1
			c1.1-2.8,2.3-6.8-0.2-9.2C403.1,340.5,401.9,340.3,401,340.3L401,340.3z"/>
	</g>
	<g>
		<path class="st16" d="M290.8,433.5c-1,0-1.8-0.2-2.4-0.6c-0.6-0.4-2.4-1.5-2.3-3.3c0.1-2,2.3-3.2,5.1-4.6c1.7-0.9,3.5-1.9,5.1-3.1
			c1.3-1,2.5-2.5,3.8-3.9c2.5-2.9,5.2-5.9,8.7-5.9c1,0,2.1,0.3,3.2,0.8c1.6,0.8,2.2,2.3,1.8,4.1
			C312.2,422.8,297.5,433.5,290.8,433.5z"/>
		<path d="M308.7,413.5c0.8,0,1.6,0.2,2.5,0.6c5.8,3-13.3,17.8-20.4,17.8c-0.6,0-1.2-0.1-1.6-0.4c-5.1-3.2,2.8-4.6,8-8.6
			C301.1,419.8,304.3,413.5,308.7,413.5 M308.7,410.5L308.7,410.5c-4.2,0-7.2,3.4-9.8,6.4c-1.2,1.4-2.4,2.7-3.6,3.7
			c-1.5,1.1-3.3,2.1-4.9,2.9c-3.1,1.6-5.8,3-5.9,5.9c-0.1,1.8,1,3.3,3,4.7c0.9,0.6,2,0.9,3.2,0.9c5,0,12.1-4.8,14.2-6.3
			c2.7-1.9,9-6.9,10.1-11.4c0.6-2.4-0.4-4.7-2.5-5.8C311.3,410.8,310,410.5,308.7,410.5L308.7,410.5z"/>
	</g>
	<g>
		<path class="st16" d="M230.8,344.6c-5.1,0-14.8-10.1-17.4-15.7c-1-2.2-1-3.8,0-4.9c0.9-1.1,1.9-1.6,2.9-1.6c2,0,3.3,1.9,4.8,4
			c0.9,1.3,1.9,2.7,3.1,4c1,1,2.5,2.1,3.9,3.1c3.6,2.6,8.1,5.8,5.3,9.8C232.9,344.2,232,344.6,230.8,344.6z"/>
		<path d="M216.4,324c2,0,3.6,4.3,6.9,7.6c3.7,3.7,11.8,6.9,9,10.9c-0.3,0.5-0.8,0.7-1.4,0.7c-5.2,0-19-15-16.2-18.1
			C215.2,324.3,215.8,324,216.4,324 M216.4,321L216.4,321c-1.5,0-2.8,0.7-4,2.1c-1,1.1-1.8,3.1-0.2,6.5c2.5,5.5,12.7,16.6,18.7,16.6
			c1.6,0,3-0.7,3.9-2c0.8-1.1,2.3-4.1-0.5-7.6c-1.3-1.6-3.2-3-5.1-4.3c-1.4-1-2.8-2-3.7-2.9c-1.1-1.1-2.1-2.5-3-3.7
			C220.7,323.2,219.2,321,216.4,321L216.4,321z"/>
	</g>
	<g>
		<path class="st17" d="M127.3,295.4c-0.5,0-1-0.2-1.4-0.5c-3-2.4-1.2-5.3,0.4-7.8c0.7-1.2,1.6-2.5,2.2-4c0.5-1.3,1-2.9,1.5-4.6
			c1.2-4.2,2.3-7.9,5.1-7.9c0.6,0,1.1,0.2,1.7,0.5c1.7,1.1,1.9,3.6,0.6,8.1C136,284,131.2,295.4,127.3,295.4z"/>
		<path d="M135,272.1c0.3,0,0.6,0.1,0.9,0.3c3.3,2.1-5.4,21.5-8.7,21.5c-0.2,0-0.3-0.1-0.5-0.2c-2.9-2.3,0.9-5,3.1-10
			C131.6,279.6,132.6,272.1,135,272.1 M135,269.1L135,269.1c-3.9,0-5.2,4.6-6.5,9c-0.5,1.6-0.9,3.2-1.4,4.4
			c-0.6,1.4-1.4,2.6-2.1,3.8c-1.5,2.4-4.1,6.5-0.1,9.8c0.7,0.6,1.5,0.8,2.4,0.8c6.2,0,11.5-17.1,11.5-17.3c0.9-3.3,1.8-7.9-1.3-9.8
			C136.7,269.4,135.9,269.1,135,269.1L135,269.1z"/>
	</g>
	<g>
		<path class="st16" d="M125,290.8c-5.6,0-15-1.6-17.8-4.5c-0.9-0.9-1-1.8-1-2.4c0.1-3.3,2.3-3.8,3.5-3.8c1.2,0,2.5,0.4,4.1,0.8
			c1.5,0.4,3.2,0.9,4.9,1.1c0.5,0.1,1,0.1,1.7,0.1h0c1,0,2.2-0.1,3.3-0.1c1.1-0.1,2.3-0.1,3.4-0.1c1.6,0,6.6,0,6.9,4.5
			c0.1,0.9-0.2,1.7-0.9,2.3C131.8,290.1,129.1,290.8,125,290.8z"/>
		<path d="M109.8,281.6c2,0,5.2,1.6,8.8,2c0.6,0.1,1.2,0.1,1.8,0.1c2.1,0,4.5-0.3,6.6-0.3c2.9,0,5.3,0.5,5.4,3.1
			c0.1,2-3.2,2.8-7.4,2.8c-7.3,0-17.4-2.4-17.3-5.3C107.8,282.2,108.6,281.6,109.8,281.6 M109.8,278.6L109.8,278.6
			c-2.3,0-4.8,1.4-5,5.2c0,0.9,0.2,2.2,1.4,3.5c3.3,3.4,13,5,18.9,5c4.6,0,7.6-0.8,9.2-2.5c0.9-1,1.3-2.2,1.3-3.5
			c-0.3-4.9-4.7-5.9-8.4-5.9c-1.1,0-2.3,0.1-3.4,0.1c-1.1,0.1-2.2,0.1-3.2,0.1c-0.6,0-1.1,0-1.5-0.1c-1.6-0.2-3.2-0.6-4.7-1.1
			C112.6,279,111.2,278.6,109.8,278.6L109.8,278.6z"/>
	</g>
	<g>
		<path class="st17" d="M175.9,126.8c-5.4,0-7.8-14-8.1-20.7c-0.3-6.7,0.9-10.2,3.5-10.4c0.2,0,0.5,0,0.7,0c1.2,0,2.2,0.4,2.9,1.1
			c1.4,1.4,1.4,3.7,1.4,6.5c0,1.8,0,3.7,0.3,5.7c0.3,1.7,0.9,3.7,1.6,5.6c1.3,4,2.6,7.8,1.2,10.2c-0.4,0.7-1.2,1.6-2.8,1.9
			C176.4,126.8,176.2,126.8,175.9,126.8z"/>
		<path d="M172,97.2c4.3,0,2.1,5.8,3.2,12.1c1,6,6.2,14.9,1.2,16c-0.1,0-0.2,0-0.3,0c-5.4,0-9.3-27.7-4.5-28.2
			C171.6,97.2,171.8,97.2,172,97.2 M172,94.2L172,94.2c-0.3,0-0.5,0-0.8,0c-5.4,0.5-5,9.2-4.8,12c0.2,4.5,1.1,9.5,2.3,13.5
			c0.7,2.1,2.7,8.7,7.3,8.7c0.3,0,0.7,0,1-0.1c2.1-0.5,3.2-1.7,3.7-2.6c1.7-3,0.4-7.1-1.1-11.4c-0.6-1.9-1.3-3.8-1.5-5.4
			c-0.3-1.9-0.3-3.8-0.3-5.5c0-3.1,0-5.8-1.8-7.6C175.2,95,174,94.2,172,94.2L172,94.2z"/>
	</g>
	<g>
		<path class="st17" d="M308.5,91.6c-6.4,0-6.5-18.2-6.5-19c0-5.7,0.8-12.4,4.5-12.5c1.5,0,2.6,0.4,3.4,1.3c1.4,1.5,1.2,3.8,0.9,6.8
			c-0.2,1.7-0.4,3.7-0.2,5.7c0.1,1.7,0.6,3.7,1,5.7c0.9,4.1,1.8,8,0.2,10.3c-0.5,0.6-1.3,1.5-2.9,1.6
			C308.8,91.6,308.6,91.6,308.5,91.6z"/>
		<path d="M306.5,61.6c5,0,2,5.7,2.5,12.4c0.4,6.1,4.8,15.4-0.3,16.1c-0.1,0-0.1,0-0.2,0C303,90.1,301.6,61.6,306.5,61.6
			C306.5,61.6,306.5,61.6,306.5,61.6 M306.5,58.6L306.5,58.6L306.5,58.6c-4,0-6,4.7-6,14c0,3.4,0.4,20.5,8,20.5c0.2,0,0.4,0,0.5,0
			c2.1-0.3,3.3-1.4,4-2.3c2-2.8,1-7,0-11.5c-0.4-1.9-0.9-3.9-1-5.5c-0.1-1.9,0.1-3.8,0.2-5.5c0.3-3,0.6-5.9-1.3-7.9
			C310,59.2,308.5,58.6,306.5,58.6L306.5,58.6z"/>
	</g>
	<g>
		<path class="st17" d="M405.4,211.3c-5.5,0-8.1-14.4-8.5-21c-0.4-6.4,0.7-9.8,3.3-10.1c0.3,0,0.5,0,0.8,0c4.2,0,4.3,4,4.3,7.6
			c0,1.8,0.1,3.7,0.4,5.7c0.3,1.7,1,3.6,1.7,5.6c1.4,4,2.7,7.7,1.4,10.2c-0.4,0.7-1.2,1.6-2.7,2
			C405.9,211.3,405.6,211.3,405.4,211.3z"/>
		<path d="M401,181.7c4.2,0,2.1,5.8,3.3,12.1c1.1,6,6.5,14.8,1.5,16c-0.1,0-0.2,0-0.4,0c-5.4,0-9.8-27.5-5-28.1
			C400.6,181.7,400.8,181.7,401,181.7 M401,178.7L401,178.7c-0.3,0-0.6,0-1,0.1c-5.3,0.6-4.8,8.9-4.6,11.6c0.3,4.5,1.2,9.6,2.5,13.6
			c1.9,5.9,4.4,8.8,7.5,8.8c0.4,0,0.7,0,1.1-0.1c2.1-0.5,3.2-1.7,3.7-2.7c1.7-3,0.2-7.1-1.3-11.4c-0.7-1.9-1.3-3.8-1.6-5.4
			c-0.3-1.9-0.4-3.8-0.4-5.5C406.8,184.4,406.7,178.7,401,178.7L401,178.7z"/>
	</g>
	<g>
		<path class="st17" d="M338.8,311.9c-0.6,0-1.5-0.2-2.3-1.3c-0.7-1-1.3-3,1.8-8.9c3.2-6.2,11.5-18.2,15.4-18.2c0.8,0,1.6,0.4,2,1.2
			c1.9,3.5-0.5,6.1-3,8.9c-1.1,1.3-2.4,2.7-3.6,4.5c-1,1.5-2.1,3.5-3.1,5.4C343,308.9,341.2,311.9,338.8,311.9z"/>
		<path d="M353.7,285c0.3,0,0.5,0.1,0.6,0.4c2,3.8-2.7,6.1-6.6,11.8c-3.1,4.5-6.5,13.2-8.9,13.2c-0.4,0-0.7-0.2-1-0.6
			C335.3,306.3,350,285,353.7,285 M353.7,282L353.7,282L353.7,282c-1.6,0-4,0.8-8.9,7.1c-3,3.7-5.9,8.2-7.8,12
			c-2.7,5.2-3.2,8.3-1.6,10.5c1.2,1.7,2.7,1.9,3.5,1.9c3.4,0,5.5-3.9,8.4-9.2c1-1.9,2.1-3.9,3-5.3c1.1-1.7,2.4-3.1,3.5-4.3
			c2.6-2.9,5.6-6.2,3.2-10.6C356.3,282.7,355.1,282,353.7,282L353.7,282z"/>
	</g>
	<g>
		<path class="st17" d="M264.2,429.3c-5.6,0-19.9-12-21.4-16.9c-0.6-1.9,0.6-2.8,0.9-3c0.8-0.5,1.7-0.8,2.5-0.8
			c2.2,0,3.8,1.8,5.7,3.8c1.1,1.2,2.3,2.5,3.7,3.7c1.2,1,3,2.1,4.6,3.1c3.8,2.3,7,4.4,7.2,6.8c0.1,0.7-0.1,1.7-1.2,2.6
			C265.7,429.1,265,429.3,264.2,429.3z"/>
		<path d="M246.2,410.1c2.5,0,4.5,3.9,8.5,7.2c4.4,3.6,13.8,7.5,10.6,10.2c-0.3,0.2-0.7,0.3-1.1,0.3c-5.5,0-22.8-15.1-19.7-17.1
			C245.1,410.3,245.7,410.1,246.2,410.1 M246.2,407.1L246.2,407.1c-1.1,0-2.3,0.4-3.4,1.1c-1.2,0.8-2.2,2.4-1.5,4.7
			c1.2,3.9,7.7,9.4,9.6,11c3.2,2.6,9.2,7,13.2,7c1.5,0,2.5-0.6,3.1-1.1c1.2-1,1.8-2.4,1.7-3.8c-0.2-3.2-3.6-5.3-7.9-8
			c-1.6-1-3.3-2.1-4.5-3c-1.4-1.1-2.6-2.4-3.6-3.5C251,409.2,249.1,407.1,246.2,407.1L246.2,407.1z"/>
	</g>
	<g>
		<path class="st17" d="M196.8,390.3c-2.1,0-3.6-1-4.4-3c-0.3-0.8-0.5-2.1,0.6-3.7c3.7-5.5,20.7-10.9,28.4-10.9
			c3.3,0,5.2,0.9,5.7,2.7c0.4,1.6,0.3,3-0.4,4c-1.3,2-3.9,2.4-7.3,2.9c-2.1,0.3-4.4,0.7-6.7,1.5c-1.9,0.6-4.1,1.8-6.3,2.9
			C202.9,388.6,199.6,390.3,196.8,390.3z"/>
		<path d="M221.4,374.2c2.3,0,3.9,0.5,4.2,1.6c1.5,5.7-5.9,4.1-13.4,6.6c-5,1.7-11.5,6.4-15.4,6.4c-1.4,0-2.4-0.6-3-2.1
			C191.8,381.7,212.2,374.2,221.4,374.2 M221.4,371.2v3V371.2L221.4,371.2c-8.2,0-25.6,5.6-29.6,11.6c-1.5,2.2-1.1,4.2-0.7,5.1
			c1,2.5,3.1,3.9,5.8,3.9c3.1,0,6.6-1.8,10.3-3.8c2.1-1.1,4.3-2.2,6-2.8c2.2-0.7,4.4-1.1,6.4-1.4c3.6-0.6,6.7-1,8.3-3.6
			c0.9-1.4,1.1-3.2,0.6-5.2C228,373.3,226.4,371.2,221.4,371.2L221.4,371.2z"/>
	</g>
	<g>
		<path class="st17" d="M79.3,312.9c-5.6,0-13.6-15-15.3-22.7c-0.8-3.5-0.3-5.8,1.4-6.6c0.8-0.4,1.6-0.6,2.3-0.6c3,0,4,3.1,5.1,6.3
			c0.6,1.7,1.2,3.7,2.2,5.6c0.8,1.6,2.2,3.3,3.4,5c2.6,3.5,5.1,6.8,4.6,9.6c-0.1,0.8-0.6,2-2,2.8C80.5,312.7,79.9,312.9,79.3,312.9z
			"/>
		<path d="M67.7,284.6c3.1,0,3.2,5.8,6,11.1c3,5.6,11.2,12.6,6.5,15.5c-0.3,0.2-0.6,0.3-0.9,0.3c-5.7,0-17.7-24.3-13.3-26.4
			C66.7,284.7,67.2,284.6,67.7,284.6 M67.7,281.6c-0.9,0-1.9,0.2-2.9,0.7c-2.5,1.2-3.2,4-2.3,8.3c0.9,4.1,3.4,9.8,6.4,14.6
			c3.9,6.2,7.3,9.3,10.5,9.3c0.9,0,1.8-0.2,2.5-0.7c1.9-1.2,2.5-2.7,2.7-3.8c0.7-3.5-2-7-4.9-10.8c-1.2-1.6-2.5-3.4-3.3-4.8
			c-0.9-1.8-1.6-3.7-2.1-5.3C73.1,285.5,71.8,281.6,67.7,281.6L67.7,281.6z"/>
	</g>
	<g>
		<path class="st17" d="M118.4,171.2c-5.7,0-13.5-17.9-14-23.9c-0.3-3.3,1.2-4.1,2.1-4.3c0.4-0.1,0.7-0.1,1.1-0.1
			c3.4,0,4.4,3.1,5.3,6.4c0.5,1.6,1,3.4,1.9,5.2c0.7,1.5,1.9,3.3,3,5c2.5,3.8,4.6,7.1,3.7,9.5c-0.2,0.7-0.8,1.6-2.2,2
			C119,171.2,118.7,171.2,118.4,171.2z"/>
		<path d="M107.6,144.4c3.5,0,3.2,5.3,5.8,10.8c2.5,5.4,9.7,13.1,5.4,14.5c-0.1,0-0.3,0.1-0.4,0.1c-5,0-15.8-24.5-11.6-25.3
			C107.1,144.4,107.3,144.4,107.6,144.4 M107.6,141.4L107.6,141.4c-0.4,0-0.9,0-1.4,0.1c-0.9,0.2-3.8,1.1-3.3,5.9
			c0.4,4.3,3.1,10.7,5.3,14.9c5.5,10.4,9,10.4,10.2,10.4c0.5,0,0.9-0.1,1.4-0.2c1.5-0.5,2.6-1.5,3.1-2.9c1.1-3.1-1.2-6.7-3.9-10.9
			c-1.1-1.7-2.2-3.4-2.9-4.8c-0.8-1.7-1.3-3.4-1.8-5C113.4,145.6,112.1,141.4,107.6,141.4L107.6,141.4z"/>
	</g>
</g>
<g id="Calque_1" class="st1">
	
		<image style="display:inline;overflow:visible;" width="900" height="1200" xlink:href="../Downloads/Products42170-1200x1200-513356.jpg"  transform="matrix(0.75 0 0 0.75 -79.931 -289.8965)">
	</image>
</g>
</svg>
