<?xml version="1.0" encoding="utf-8"?>
<!-- Generator: Adobe Illustrator 17.1.0, SVG Export Plug-In . SVG Version: 6.00 Build 0)  -->
<!DOCTYPE svg PUBLIC "-//W3C//DTD SVG 1.1//EN" "http://www.w3.org/Graphics/SVG/1.1/DTD/svg11.dtd">
<svg version="1.1" id="Calque_1" xmlns="http://www.w3.org/2000/svg" xmlns:xlink="http://www.w3.org/1999/xlink" x="0px" y="0px"
	 viewBox="0 0 210 200" enable-background="new 0 0 210 200" xml:space="preserve">
<path fill="#9B6C3A" d="M105.8,5.5c-52.6-0.1-95.3,42.4-95.3,94.7c0,52.6,42.4,95.3,94.7,95.3c52.7,0.1,95.3-42.4,95.3-94.9
	C200.5,48.2,158,5.6,105.8,5.5z M172.2,76.4c1.3-0.2,2.2,0.4,2.4,1.6c0.7,3,1.3,6,1.8,8.6c0,1.7-0.3,2.9-1.7,3.1
	c-1.4,0.3-2.2-0.7-2.5-1.9c-0.7-2.9-1.2-5.8-1.7-8.8C170.4,77.8,170.7,76.7,172.2,76.4z M156.8,70.3c1.1-2.8,2.4-5.5,3.6-8.2
	c0.5-1.1,1.5-1.8,2.7-2c1.8-0.4,3.3,1,2.6,2.7c-1.4,3-3.1,5.9-4.7,8.8c-0.5,0.8-1.4,1.1-2.4,1.3C157.2,72.6,156.1,72,156.8,70.3z
	 M142.4,44.4c1-1.2,2.3-1.3,3.5-0.2c1.8,1.5,3.6,3,5.4,4.4c0.6,0.5,0.8,1.3,0.9,2c-0.2,0.9-0.4,1.8-1.3,2.3
	c-0.9,0.5-1.8,0.5-2.6-0.1c-2-1.6-3.9-3.1-5.8-4.7C141.5,47,141.5,45.5,142.4,44.4z M147.5,68c0,1,0.1,2.7,0,4.1
	c-0.1,1.4-1,2.3-2.4,2.2c-1.3-0.1-1.9-1-2.1-2.4c-0.3-2.8-0.4-5.6-0.4-8.5c0-1.7,0.9-2.8,2.5-2.9c1.5-0.1,2.3,1.3,2.4,2.8
	C147.5,64.8,147.4,66,147.5,68C147.4,68,147.5,68,147.5,68z M123.8,40.8c1.4-2,2.7-4,4.1-6c0.7-1,1.7-1.7,3-1.2
	c1,0.3,1.4,1.1,1.6,2.2c-0.1,0.3-0.2,0.8-0.5,1.2c-1.4,2.2-2.8,4.3-4.3,6.4c-0.8,1.1-1.9,2-3.4,1C122.8,43.4,122.9,42.1,123.8,40.8z
	 M103.7,31.2c0.3-1.2,1.3-1.9,3.2-1.9c2.5,0.8,5.5,1.7,8.5,2.8c1.2,0.4,1.5,1.6,1.1,2.7c-0.4,1-1.2,1.6-2.4,1.4
	c-2.9-0.7-5.8-1.5-8.6-2.3C104.1,33.5,103.4,32.5,103.7,31.2z M102.4,41.7c0.9-0.1,1.6,0.3,2.1,1.2c1.4,2.2,2.8,4.3,4.2,6.5
	c0.6,0.9,0.9,1.8,0.1,2.7c-0.8,1-1.9,1.4-3.1,0.8c-0.6-0.3-1.3-0.6-1.6-1.1c-1.4-2.2-2.9-4.5-4-6.8C99.1,43.2,100.3,41.7,102.4,41.7
	z M79.5,35.9c3.1-1.1,6.3-1.9,8.9-2.6c1.9,0.1,2.8,0.5,3.1,1.8c0.2,1.2-0.7,1.8-1.7,2.1c-2.8,1-5.7,1.9-8.5,2.8
	c-1.4,0.5-2.6,0.1-3.1-1.2C77.7,37.5,78.4,36.3,79.5,35.9z M90.7,50c-1.1,2.6-2.1,5.2-3.2,7.8C87,59,86,59.9,84.6,59.5
	c-1.4-0.4-2.2-1.4-2.2-3c1.1-3.2,2.3-6.3,4.4-9.1c0.7-1,2-0.9,2.9-0.2C90.6,47.9,91.2,48.7,90.7,50z M105.6,71.5
	c16,0,29.1,13.2,28.9,29.2c-0.1,15.9-13.2,28.9-29.1,28.8c-16-0.1-29.1-13.2-28.9-29.2C76.6,84.4,89.7,71.5,105.6,71.5z M134,143.9
	c-0.9,3-1.8,6.4-3.5,9.6c-0.4,0.7-1.3,1.2-2.1,0.9c-0.9-0.3-1.6-1.1-1.4-2.1c0.4-3.7,2-6.9,3.6-10.2c0.4-0.8,1.4-0.9,2.2-0.6
	C133.8,141.8,134,142.6,134,143.9z M65,44.4c0.7-1.1,1.7-1.4,2.8-0.9c2.1,0.9,4.2,1.9,6.3,2.9c1.2,0.6,1.6,1.7,1.3,2.9
	c-0.3,1.1-0.9,2-2.7,2c-2.3-1-5.2-1.9-7.6-3.8C64.1,46.8,64.4,45.5,65,44.4z M63.8,62.9c1.4-0.3,2.5,0.4,2.8,1.8
	c0.6,2.5,1,5,1.5,7.5c0,1.4-0.6,2.3-1.9,2.6c-1.4,0.3-2.5-0.4-2.8-1.8c-0.6-2.5-1-5-1.3-7.6C61.8,64.1,62.5,63.2,63.8,62.9z
	 M60,85.3c0.9,0.4,1.4,1.2,1.4,2.3c-0.1,0.2-0.2,0.7-0.4,1c-1.5,2.2-2.9,4.4-4.5,6.6c-0.8,1.2-2,1.8-3.4,0.8c-1.4-1-1.2-2.2-0.4-3.5
	c1.4-2.1,2.7-4.2,4.2-6.2C57.7,85.3,58.8,84.7,60,85.3z M57.5,113.6c0.1,1.3-0.3,2.1-1.1,2.6c-0.8,0.5-1.7,0.3-2.3-0.2
	c-2.5-2.1-4.7-4.7-6.7-7.3c-0.6-0.9-0.2-1.8,0.4-2.5c0.6-0.8,1.5-1,2.2-0.5c2.8,2,5.3,4.5,7.4,7.2C57.6,113.2,57.5,113.6,57.5,113.6
	z M48.4,58.8c2-2.2,4.1-4.4,6.2-6.5c0.8-0.7,1.8-0.8,2.8-0.3c0.7,0.3,1.1,1,1.1,2c-0.1,0.1-0.1,0.5-0.3,0.7c-2.2,2.6-4.6,5-7.3,7.1
	c-0.8,0.7-1.8,0.5-2.4-0.3C47.7,60.7,47.7,59.6,48.4,58.8z M43.2,76.8c2.8-1.4,5.7-2.7,8.6-3.9c1.1-0.4,2.1,0.2,2.7,1.3
	c0.5,0.9,0.3,1.9-0.5,2.5c-2.9,2-6.2,3.1-8.9,4.2c-1.7,0.1-2.5-0.4-2.9-1.5C41.8,78.3,42.2,77.3,43.2,76.8z M35.6,99.3
	c1-3,2.1-5.9,3.3-8.8c0.5-1.1,1.7-1.3,2.8-1c1.1,0.3,1.4,1.1,1.3,2.6c-0.8,2.8-1.9,6-3.5,9c-0.6,1.1-1.8,1.2-2.9,0.7
	C35.7,101.3,35.2,100.3,35.6,99.3z M37,123.3c-1.2-0.3-1.8-1.3-1.5-2.5c0.3-1.2,1.1-1.9,2.4-1.7c2.9,0.4,5.7,0.9,8.6,1.4
	c1.5,0.3,2.3,1.3,2,2.9c-0.3,1.5-1.5,1.8-2.9,1.8C42.7,124.6,39.8,124,37,123.3z M54.8,143.5c-2.5,0.4-5.1,0.8-7.6,0.9
	c-1.6,0.1-2.7-0.9-2.7-2.6c0-1.5,0.9-2.2,2.3-2.3c1.9-0.2,3.8-0.4,5.7-0.6c0,0,0,0.1,0,0.1c0.7,0,1.5-0.1,2.2,0
	c1.2,0.3,1.8,1.1,1.8,2.4C56.5,142.5,55.9,143.3,54.8,143.5z M58,131.7c-0.9-0.6-1.5-1.4-1.1-2.5c1.1-3,2.8-5.8,4.7-8.5
	c0.5-0.7,1.4-0.9,2.3-0.5c0.9,0.5,1.3,1.2,1.1,2.7c-1.3,2.5-2.4,5.7-4.5,8.3C59.9,132,58.9,132.2,58,131.7z M65.6,148.7
	c-1.3-0.3-1.7-1.3-1.5-2.5c0.5-2.7,1-5.4,1.6-8.1c0.3-1.3,1.4-1.9,2.7-1.7c1.3,0.2,1.7,1.1,1.7,2.8c-0.5,2.3-1,5.1-1.7,7.8
	C68,148.3,66.9,149.1,65.6,148.7z M77.3,168.3c-1,0.5-1.8,0.2-2.4-0.6c-1.7-2.5-3.4-4.9-4.9-7.5c-0.9-1.5-0.5-3.2,1.1-4.1
	c1.7-0.9,2.8,0.2,3.5,1.7c1.4,2.7,2.8,5.5,3.9,7.6C78.6,167.1,78.2,167.9,77.3,168.3z M85.4,149.6c-2.7-1.8-4.9-4.2-7-6.7
	c-0.6-0.7-0.4-1.6,0.2-2.3c0.7-0.8,1.8-1.1,2.5-0.5c2.7,2.1,5.4,4.1,7.5,6.9c0.2,0.3,0.2,0.6,0.3,0.8
	C88.8,149.7,87,150.8,85.4,149.6z M98.9,158.8c-2.5,1.1-5,2.2-7.1,3.2c-1.7,0-2.5-0.8-3-2c-0.4-1.2,0-2.2,1.1-2.7
	c2.3-1.1,4.7-2.2,7-3.1c1.5-0.6,2.6,0.2,3.2,1.5C100.8,157.2,100.2,158.2,98.9,158.8z M113.5,169c-0.1,1.4-1,2-2.4,2c-1,0-2,0-2.6,0
	c-2-0.1-3.5,0-5.1-0.4c-1.4-0.4-2.1-1.3-2-2.7c0.2-1.4,1.2-1.9,2.5-1.9c2.5,0.1,5,0.2,7.4,0.5C112.9,166.6,113.6,167.6,113.5,169z
	 M116.5,156.1c-0.9,0.6-1.8,0.4-2.5-0.2c-2.5-2.1-4.5-4.6-6.5-7.1c-0.7-0.9-0.3-1.9,0.3-2.7c0.7-0.8,1.7-0.9,2.5-0.3
	c2.6,2,4.8,4.3,6.9,6.7c0.3,0.3,0.3,0.9,0.3,1.1C117.6,154.9,117.3,155.6,116.5,156.1z M135.2,166c-0.2,1.4-1.2,2.2-2.7,2
	c-2.7-0.3-5.4-0.7-8.1-1.2c-1.5-0.3-2.8-1-2.4-2.8c0.3-1.7,1.7-2.1,3.9-1.9c2.1,0.4,4.7,0.9,7.4,1.4
	C134.5,163.8,135.4,164.7,135.2,166z M132.7,58.6c-1.5,0.2-2.7,0-4.7,0c0,0,0,0.1,0,0.1c-1,0-2.5,0.1-3.8,0
	c-1.4-0.2-2.2-1.2-2.2-2.5c0-1.3,1-1.8,2.2-1.9c2.7-0.3,5.5-0.6,8.2-0.9c1.9-0.2,3.1,0.7,3.3,2.5C135.9,57.7,134.3,58.4,132.7,58.6z
	 M138.2,133.3c0.6-1.1,1.7-1.6,2.8-1.1c3,1.2,6,2.5,8.9,3.8c1.1,0.5,1.4,1.6,1,2.8c-0.4,1-1.2,1.3-2.6,1.2c-2.8-1.2-6.2-2.1-9.2-3.8
	C137.9,135.5,137.6,134.4,138.2,133.3z M152.6,152.7c-2.8,0.7-5.6,1.3-8.2,1.8c-1.5,0-2.5-0.3-2.8-1.6c-0.4-1.4,0.6-2.3,1.8-2.6
	c2.7-0.7,5.5-1.3,8.2-1.8c1.2-0.2,2.4,0.2,2.8,1.5C154.8,151.5,153.8,152.4,152.6,152.7z M157.7,123.7c-2.8,0.7-5.6,1.3-8.2,1.8
	c-1.6,0-2.6-0.4-2.9-1.8c-0.2-1.3,0.6-2.1,1.8-2.4c2.8-0.7,5.6-1.3,8.5-1.8c1.2-0.2,2.4,0.4,2.6,1.7
	C159.6,122.6,158.8,123.4,157.7,123.7z M152.4,106.5c0.5-2.5,0.7-5.1,1.3-7.6c0.3-1.6,1.6-2.7,3.3-2.3c1.4,0.3,2.2,1.4,2.1,3.6
	c-0.6,2.1-1.2,4.9-2,7.6c-0.4,1.4-1.7,1.9-3,1.6C152.7,109,152,108.1,152.4,106.5z M159.7,86.9c-2.9-0.8-5.7-1.6-8.6-2.5
	c-1.2-0.4-1.9-1.4-1.5-2.7c0.3-1.3,1.4-1.6,2.6-1.7c2.9,0.9,5.9,1.7,8.9,2.8c1.3,0.4,1.8,1.6,1.3,2.8
	C161.9,86.7,160.9,87.2,159.7,86.9z M167,131c0,0.7,0,1.5,0,2.9c-0.1,1.4-0.3,3.5-0.5,5.5c-0.2,1.5-1,2.6-2.6,2.5
	c-1.7,0-2-1.4-2-2.9c0.1-2.7,0.1-5.5,0.5-8.2c0.2-1.6,1-2.8,2.6-2.8C166.8,128.1,167.1,129.5,167,131z M176.1,119.9
	c-0.8,1.3-2.1,1.4-3.3,0.7c-2.4-1.4-4.9-2.9-7.2-4.4c-0.9-0.6-1.4-1.7-1-2.8c0.3-0.9,1.1-1.5,1.7-1.4c1,0,1.7,0.2,2.3,0.5
	c2.2,1.4,4.4,2.7,6.5,4.1C176.4,117.4,177,118.6,176.1,119.9z M177.6,101.7c-2.8,0.7-5.6,1.3-8.2,1.8c-1.5,0.1-2.5-0.4-2.8-1.6
	c-0.3-1.3,0.4-2.2,1.5-2.5c2.9-0.7,5.8-1.4,8.7-1.9c1.2-0.2,2.4,0.4,2.6,1.8C179.6,100.6,178.7,101.4,177.6,101.7z"/>
<g>
	<path fill="#F3EDDA" d="M106.1,9.5c-50.3,0-91.1,40.7-91.1,91c0,50.3,40.8,91,91,91c50.2,0,91-40.8,91-91.1
		C197,50.3,156.2,9.5,106.1,9.5z M175.6,143.7c-1.2,6-4.7,10.3-10.1,12.8c-6.3,2.9-11.4,6.9-15.7,12.4c-3.8,4.9-8.9,7.4-15.2,7.2
		c-7.2-0.3-13.8,1.6-20.1,4.8c-2.3,1.2-4.8,1.8-7.5,1.7c-3.5,0.1-6.7-1.2-9.8-2.7c-5.2-2.6-10.8-3.9-16.6-3.7
		c-7.4,0.3-12.9-2.7-17.4-8.5c-3.6-4.7-8.2-8.2-13.7-10.6c-3.8-1.7-7-4.1-9.1-7.8c-1.3-2.3-2-4.9-2.5-7.5c-1.2-5.3-3.4-10.1-7-14.2
		c-5-5.7-6.6-12.1-4.5-19.5c1.8-6.3,0.9-12.5-0.5-18.7c-1.3-5.8,0.2-10.9,3.9-15.4c4.1-5,7-10.4,8.3-16.8
		c1.2-6.3,4.8-11.1,10.8-13.8C55,40.6,60,36.5,64.2,31.2c3.9-4.9,9-7.5,15.4-7.3c6.2,0.2,12.1-0.9,17.6-3.8c6.5-3.4,13-3.5,19.6,0
		c5.6,2.9,11.6,4,17.8,3.8c6.6-0.2,11.7,2.7,15.7,7.7c3.6,4.6,7.8,8.3,13.2,10.8c3.3,1.5,6.5,3.4,8.8,6.4c2,2.6,3,5.6,3.7,8.7
		c1.2,5.6,3.4,10.6,7.1,14.9c5,5.7,6.7,12.1,4.5,19.4c-1.8,6.3-0.9,12.7,0.5,19c1.3,5.6-0.2,10.6-3.7,14.9
		C179.9,131.1,176.9,137,175.6,143.7z"/>
	<path fill="#FC7DAB" d="M188.3,110.9c-1.4-6.3-2.4-12.6-0.5-19c2.1-7.4,0.4-13.7-4.5-19.4c-3.7-4.3-6-9.3-7.1-14.9
		c-0.6-3.1-1.7-6.1-3.7-8.7c-2.3-3-5.4-4.9-8.8-6.4c-5.4-2.5-9.6-6.2-13.2-10.8c-4-5.1-9.1-8-15.7-7.7c-6.3,0.2-12.3-0.9-17.8-3.8
		c-6.5-3.4-13-3.4-19.6,0c-5.5,2.9-11.4,4-17.6,3.8c-6.4-0.2-11.6,2.3-15.4,7.3c-4.1,5.3-9.1,9.4-15.3,12.1
		c-6,2.7-9.5,7.5-10.8,13.8c-1.2,6.4-4.2,11.8-8.3,16.8c-3.7,4.5-5.3,9.6-3.9,15.4c1.4,6.2,2.3,12.5,0.5,18.7
		c-2.1,7.4-0.6,13.7,4.5,19.5c3.6,4.1,5.8,8.9,7,14.2c0.6,2.6,1.2,5.2,2.5,7.5c2.1,3.7,5.3,6.2,9.1,7.8c5.5,2.4,10.1,5.9,13.7,10.6
		c4.4,5.8,10,8.8,17.4,8.5c5.8-0.2,11.4,1.1,16.6,3.7c3,1.5,6.2,2.8,9.8,2.7c2.6,0.1,5.1-0.5,7.5-1.7c6.4-3.2,13-5.1,20.1-4.8
		c6.3,0.3,11.4-2.3,15.2-7.2c4.2-5.5,9.4-9.5,15.7-12.4c5.5-2.5,8.9-6.8,10.1-12.8c1.4-6.8,4.4-12.6,8.8-17.9
		C188.2,121.5,189.6,116.5,188.3,110.9z M105.7,129.5c-16-0.1-29.1-13.2-28.9-29.2c0.1-15.9,13.2-28.8,29.1-28.8
		c16,0,29.1,13.2,28.9,29.2C134.6,116.6,121.6,129.6,105.7,129.5z"/>
</g>
<g>
	<path fill="#E41C21" stroke="#333333" d="M86.7,47.4c-2,2.7-3.2,5.9-4.4,9.1c0,1.6,0.8,2.6,2.2,3c1.4,0.4,2.4-0.5,2.9-1.7
		c1.1-2.6,2.1-5.2,3.2-7.8c0.5-1.3-0.1-2.1-1-2.7C88.7,46.6,87.4,46.5,86.7,47.4z"/>
	<path fill="#FEFDFD" stroke="#333333" d="M158.6,72.8c1-0.2,1.9-0.5,2.4-1.3c1.6-2.9,3.3-5.8,4.7-8.8c0.8-1.7-0.7-3.1-2.6-2.7
		c-1.2,0.3-2.2,0.9-2.7,2c-1.2,2.7-2.5,5.4-3.6,8.2C156.1,72,157.2,72.6,158.6,72.8z"/>
	<path fill="#E41C21" stroke="#333333" d="M104.1,51.9c0.3,0.5,1,0.8,1.6,1.1c1.2,0.6,2.3,0.2,3.1-0.8c0.8-0.9,0.5-1.8-0.1-2.7
		c-1.4-2.1-2.8-4.3-4.2-6.5c-0.5-0.9-1.3-1.3-2.1-1.2c-2.2,0-3.3,1.5-2.4,3.3C101.2,47.4,102.7,49.6,104.1,51.9z"/>
	<path fill="#FEFDFE" stroke="#333333" d="M74.6,157.8c-0.7-1.5-1.8-2.6-3.5-1.7c-1.6,0.9-2,2.6-1.1,4.1c1.5,2.6,3.2,5,4.9,7.5
		c0.6,0.9,1.5,1.1,2.4,0.6c0.9-0.4,1.3-1.2,1.2-2.9C77.4,163.2,76,160.5,74.6,157.8z"/>
	<path fill="#FEFCFD" stroke="#333333" d="M147.4,63.1c-0.1-1.5-0.9-2.7-2.4-2.6c-1.6,0.1-2.5,1.2-2.5,2.9c0,2.8,0.1,5.6,0.4,8.4
		c0.2,1.4,0.8,2.3,2.1,2.4c1.5,0.1,2.3-1,2.4-2.4c0.1-1.4,0-2.3,0-4.3c0,0,0,0,0,0C147.4,66.5,147.5,64.6,147.4,63.1z"/>
	<path fill="#FEFDFD" stroke="#333333" d="M175.2,116.6c-2.2-1.4-4.4-2.7-6.5-4.1c-0.6-0.4-1.2-0.5-2.3-0.5c-0.7,0-1.4,0.5-1.7,1.4
		c-0.4,1.2,0.1,2.2,1,2.8c2.4,1.6,4.8,3,7.2,4.4c1.2,0.7,2.5,0.6,3.3-0.7C177,118.6,176.4,117.4,175.2,116.6z"/>
	<path fill="#FEFDFE" stroke="#333333" d="M45,80.9c2.7-1.1,6-2.2,8.9-4.2c0.8-0.5,1-1.5,0.5-2.5c-0.6-1.1-1.6-1.7-2.7-1.3
		c-2.9,1.2-5.8,2.5-8.6,3.9c-1,0.5-1.4,1.5-1,2.6C42.5,80.4,43.4,80.9,45,80.9z"/>
	<path fill="#E41C21" stroke="#333333" d="M48.4,123.4c0.4-1.6-0.5-2.6-2-2.9c-2.8-0.6-5.7-1-8.6-1.4c-1.2-0.2-2.1,0.5-2.4,1.7
		c-0.3,1.3,0.3,2.2,1.5,2.5c2.8,0.7,5.7,1.3,8.5,1.9C46.9,125.2,48.1,124.9,48.4,123.4z"/>
	<path fill="#E41C21" stroke="#333333" d="M161.1,82.8c-3-1-6-1.9-8.9-2.8c-1.3,0.1-2.3,0.4-2.6,1.7c-0.3,1.3,0.3,2.3,1.5,2.7
		c2.8,0.9,5.7,1.7,8.6,2.5c1.2,0.3,2.2-0.2,2.6-1.3C162.8,84.3,162.4,83.2,161.1,82.8z"/>
	<path fill="#FEFDFD" stroke="#333333" d="M81.3,40c2.8-0.9,5.7-1.9,8.5-2.8c1-0.3,1.9-0.9,1.7-2.1c-0.2-1.3-1.2-1.7-3.1-1.8
		c-2.5,0.7-5.7,1.6-8.9,2.6c-1.1,0.4-1.8,1.6-1.3,2.9C78.7,40.1,79.9,40.5,81.3,40z"/>
	<path fill="#E41C21" stroke="#333333" d="M130.6,142.1c-1.6,3.2-3.2,6.5-3.6,10.2c-0.1,1,0.5,1.8,1.4,2.1c0.9,0.3,1.8-0.1,2.1-0.9
		c1.6-3.2,2.5-6.6,3.5-9.6c0-1.3-0.2-2.1-1.2-2.4C132,141.3,131,141.3,130.6,142.1z"/>
	<path fill="#FEFDFE" stroke="#333333" d="M63.8,120.2c-0.9-0.4-1.7-0.3-2.3,0.5c-1.9,2.6-3.5,5.4-4.7,8.5c-0.4,1.1,0.2,1.9,1.1,2.5
		c0.9,0.6,1.9,0.4,2.5-0.4c2.1-2.6,3.2-5.8,4.5-8.3C65.2,121.5,64.8,120.7,63.8,120.2z"/>
	<path fill="#FEFDFD" stroke="#333333" d="M50.9,61.9c2.7-2.1,5.1-4.5,7.3-7.1c0.2-0.2,0.2-0.6,0.3-0.7c0-1-0.4-1.7-1.1-2
		c-1-0.5-2-0.4-2.8,0.3c-2.1,2.1-4.2,4.2-6.2,6.5c-0.7,0.8-0.6,1.9,0.1,2.8C49.1,62.4,50.1,62.5,50.9,61.9z"/>
	<path fill="#FEFDFD" stroke="#333333" d="M88.5,147c-2-2.8-4.8-4.8-7.5-6.9c-0.7-0.5-1.8-0.3-2.5,0.5c-0.6,0.7-0.8,1.6-0.2,2.3
		c2.1,2.4,4.3,4.8,7,6.7c1.6,1.1,3.5,0.1,3.4-1.8C88.7,147.6,88.7,147.3,88.5,147z"/>
	<path fill="#E41C21" stroke="#333333" d="M111.4,166.5c-2.5-0.2-5-0.3-7.4-0.5c-1.3-0.1-2.3,0.4-2.5,1.9c-0.2,1.5,0.6,2.3,2,2.7
		c1.5,0.4,3.1,0.3,5.1,0.4c0.6,0,1.6,0,2.6,0c1.3,0,2.3-0.6,2.4-2C113.6,167.6,112.9,166.6,111.4,166.5z"/>
	<path fill="#FFEF62" stroke="#333333" d="M132.5,53.3c-2.7,0.3-5.4,0.6-8.1,0.9c-1.2,0.1-2.2,0.6-2.2,1.9c0,1.4,0.9,2.4,2.3,2.5
		c1.3,0.2,3,0,4,0c0,0,0-0.1,0-0.1c1,0,3,0.1,4.4,0c1.6-0.2,3.1-0.9,2.9-2.7C135.7,54,134.3,53.1,132.5,53.3z"/>
	<path fill="#FFEF62" stroke="#333333" d="M165,128.1c-1.6,0-2.4,1.2-2.6,2.8c-0.4,2.7-0.4,5.5-0.5,8.2c0,1.5,0.3,2.8,2,2.9
		c1.5,0,2.4-1.1,2.6-2.5c0.2-2.1,0.4-4.1,0.5-5.5c0-1.4,0-2.2,0-2.9C167.1,129.5,166.8,128.1,165,128.1z"/>
	<path fill="#FFEF62" stroke="#333333" d="M133.2,163.5c-2.7-0.6-5.4-1.1-7.4-1.4c-2.2-0.2-3.6,0.2-3.9,1.9c-0.4,1.8,1,2.6,2.4,2.8
		c2.7,0.5,5.4,0.9,8.1,1.2c1.5,0.2,2.5-0.6,2.7-2C135.4,164.7,134.5,163.8,133.2,163.5z"/>
	<path fill="#FFEF62" stroke="#333333" d="M148.4,52.7c0.8,0.6,1.6,0.6,2.6,0.1c0.9-0.5,1.1-1.4,1.3-2.3c-0.1-0.7-0.2-1.5-0.9-2
		c-1.8-1.5-3.6-3-5.4-4.4c-1.2-1-2.5-1-3.5,0.2c-0.9,1.2-1,2.6,0.1,3.6C144.4,49.7,146.4,51.2,148.4,52.7z"/>
	<path fill="#FFEF62" stroke="#333333" d="M65.1,47.6c2.4,1.9,5.2,2.8,7.6,3.8c1.8,0,2.4-0.9,2.7-2c0.4-1.3-0.1-2.3-1.3-2.9
		c-2.1-1-4.2-2-6.3-2.9c-1.1-0.5-2.1-0.3-2.8,0.9C64.4,45.5,64.1,46.8,65.1,47.6z"/>
	<path fill="#FFEF62" stroke="#333333" d="M172.3,87.8c0.3,1.2,1.2,2.1,2.5,1.9c1.4-0.3,1.7-1.4,1.7-3.1c-0.5-2.6-1.1-5.6-1.8-8.6
		c-0.3-1.2-1.2-1.8-2.4-1.6c-1.5,0.2-1.9,1.4-1.7,2.6C171,82,171.6,84.9,172.3,87.8z"/>
	<path fill="#FFEF62" stroke="#333333" d="M57,86.3c-1.5,2-2.8,4.1-4.2,6.2c-0.9,1.3-1,2.5,0.4,3.5c1.4,1.1,2.6,0.4,3.4-0.8
		c1.6-2.1,3-4.4,4.5-6.6c0.2-0.3,0.3-0.7,0.4-1c-0.1-1.2-0.5-1.9-1.4-2.3C58.8,84.7,57.7,85.3,57,86.3z"/>
	<path fill="#FFEF62" stroke="#333333" d="M68.3,136.5c-1.3-0.2-2.4,0.4-2.7,1.7c-0.6,2.7-1.1,5.4-1.6,8.1c-0.2,1.2,0.3,2.2,1.5,2.5
		c1.3,0.3,2.4-0.4,2.7-1.6c0.7-2.7,1.2-5.5,1.7-7.8C70,137.7,69.6,136.7,68.3,136.5z"/>
	<path fill="#FEFDFD" stroke="#333333" d="M151.6,148.6c-2.8,0.5-5.5,1.1-8.2,1.8c-1.2,0.3-2.1,1.2-1.8,2.6c0.3,1.2,1.3,1.6,2.8,1.6
		c2.5-0.6,5.4-1.1,8.2-1.8c1.2-0.3,2.2-1.1,1.8-2.6C154,148.8,152.8,148.3,151.6,148.6z"/>
	<path fill="#139F64" stroke="#333333" d="M157,107.8c0.8-2.7,1.4-5.4,2-7.6c0.2-2.2-0.6-3.3-2.1-3.6c-1.7-0.4-2.9,0.7-3.3,2.3
		c-0.5,2.5-0.7,5.1-1.3,7.6c-0.3,1.6,0.3,2.5,1.6,2.8C155.3,109.7,156.6,109.2,157,107.8z"/>
	<path fill="#139F64" stroke="#333333" d="M150.8,138.8c0.5-1.2,0.1-2.3-1-2.8c-2.9-1.4-5.9-2.7-8.9-3.8c-1.1-0.4-2.2,0.1-2.8,1.1
		c-0.6,1.1-0.3,2.2,0.8,2.8c3,1.8,6.4,2.6,9.2,3.8C149.6,140.1,150.5,139.7,150.8,138.8z"/>
	<path fill="#139F64" stroke="#333333" d="M110.3,145.9c-0.8-0.6-1.8-0.5-2.5,0.3c-0.7,0.8-1.1,1.8-0.3,2.7c2,2.5,4.1,5,6.5,7.1
		c0.7,0.6,1.7,0.8,2.5,0.2c0.8-0.5,1.1-1.2,1-2.5c0-0.2-0.1-0.7-0.3-1.1C115.1,150.2,112.8,147.8,110.3,145.9z"/>
	<path fill="#139F64" stroke="#333333" d="M50,105.7c-0.7-0.5-1.6-0.3-2.2,0.5c-0.6,0.8-1,1.7-0.4,2.5c2,2.6,4.1,5.1,6.7,7.3
		c0.7,0.6,1.5,0.7,2.3,0.2c0.9-0.5,1.2-1.3,1.1-2.6c0,0,0-0.4-0.1-0.7C55.2,110.2,52.8,107.7,50,105.7z"/>
	<path fill="#139F64" stroke="#333333" d="M36.7,101.8c1.1,0.5,2.3,0.3,2.9-0.7c1.6-3,2.6-6.2,3.5-9c0-1.5-0.3-2.4-1.3-2.6
		c-1.1-0.3-2.3-0.1-2.8,1c-1.2,2.9-2.3,5.8-3.3,8.8C35.2,100.3,35.7,101.3,36.7,101.8z"/>
	<path fill="#139F64" stroke="#333333" d="M105.4,33.9c2.9,0.8,5.7,1.6,8.6,2.3c1.1,0.3,2-0.3,2.4-1.4c0.4-1.1,0.1-2.3-1.1-2.7
		c-3-1.1-6-2-8.5-2.8c-1.9,0-2.9,0.7-3.2,1.9C103.4,32.5,104.1,33.5,105.4,33.9z"/>
	<path fill="#139F64" stroke="#333333" d="M96.9,154.2c-2.4,0.9-4.7,2-7,3.1c-1.1,0.5-1.6,1.5-1.1,2.7c0.4,1.2,1.2,1.9,3,2
		c2.2-1,4.7-2.1,7.1-3.2c1.3-0.6,2-1.6,1.3-3C99.5,154.4,98.4,153.7,96.9,154.2z"/>
	<path fill="#139F64" stroke="#333333" d="M124.3,44.4c1.5,1,2.6,0.1,3.4-1c1.5-2.1,2.9-4.2,4.3-6.4c0.3-0.4,0.4-0.9,0.5-1.2
		c-0.2-1.1-0.7-1.9-1.6-2.2c-1.3-0.4-2.3,0.2-3,1.2c-1.4,2-2.7,4-4.1,6C122.9,42.1,122.8,43.4,124.3,44.4z"/>
	<path fill="#139F64" stroke="#333333" d="M63.4,73c0.3,1.4,1.4,2.1,2.8,1.8c1.3-0.3,1.9-1.2,1.9-2.6c-0.5-2.5-0.9-5-1.5-7.5
		c-0.3-1.4-1.4-2.1-2.8-1.8c-1.3,0.3-2,1.3-1.8,2.6C62.4,68,62.8,70.5,63.4,73z"/>
	<path fill="#139F64" stroke="#333333" d="M54.7,139c-0.7-0.2-1.5,0-2.2,0c0,0,0-0.1,0-0.1c-1.9,0.2-3.8,0.4-5.7,0.6
		c-1.4,0.1-2.4,0.8-2.3,2.3c0,1.7,1.1,2.7,2.7,2.6c2.5-0.1,5.1-0.5,7.6-0.9c1.1-0.2,1.7-0.9,1.7-2.1C56.5,140.2,55.9,139.3,54.7,139
		z"/>
	<path fill="#139F64" stroke="#333333" d="M156.8,119.6c-2.8,0.5-5.7,1.1-8.5,1.8c-1.1,0.3-2,1.1-1.8,2.4c0.2,1.4,1.3,1.8,2.9,1.8
		c2.6-0.6,5.4-1.1,8.2-1.8c1.1-0.3,2-1.1,1.8-2.3C159.2,119.9,158,119.4,156.8,119.6z"/>
	<path fill="#FEFDFD" stroke="#333333" d="M179.4,99.4c-0.2-1.4-1.4-2-2.6-1.8c-2.9,0.5-5.8,1.1-8.7,1.9c-1.1,0.3-1.9,1.2-1.5,2.5
		c0.3,1.2,1.3,1.6,2.8,1.6c2.5-0.6,5.4-1.1,8.2-1.8C178.7,101.4,179.6,100.6,179.4,99.4z"/>
</g>
<g>
	<path fill="#F3EDDA" d="M141.6,87.1c-3-4.1-5.5-8.6-7.3-13.3c-1.7-4.2-4.7-6.7-9.1-7.8c-4.4-1-8.6-2.5-12.6-4.7
		c-2.2-1.2-4.5-2.3-7.3-1.9c-1.9-0.4-3.7,0.2-5.4,1.1c-4.9,2.6-10,4.4-15.4,5.8c-3.7,1-6.3,3.5-7.7,7c-2.1,5.2-4.9,10-8.1,14.6
		c-2,3-2.9,6.3-1.9,9.9c1.5,5.6,2.7,11.3,3,17.1c0.2,4,1.8,7.3,5.1,9.6c4.8,3.3,9.1,7.2,13.2,11.4c2.6,2.7,5.9,3.6,9.8,3.2
		c3.8-0.4,7.5-1.1,11.4-0.3c6.4,1.3,11.9-0.1,16.2-5.5c2.7-3.4,6.3-5.9,9.9-8.3c3.2-2.2,5.2-5.2,5.5-9.1c0.5-5.5,1-11.1,2.7-16.4
		C145.2,95,144.4,90.9,141.6,87.1z M105.4,129.5c-16-0.1-29.1-13.2-28.9-29.2c0.1-15.9,13.2-28.8,29.1-28.8
		c16,0,29.1,13.2,28.9,29.2C134.4,116.6,121.3,129.6,105.4,129.5z"/>
	<path fill="#A67C52" d="M105.6,71.5c-15.9,0-28.9,12.9-29.1,28.8c-0.1,16,12.9,29.1,28.9,29.2c15.9,0.1,28.9-12.9,29.1-28.8
		C134.6,84.7,121.6,71.5,105.6,71.5z M105.4,126.3c-14.2,0-25.8-11.7-25.7-25.9c0.1-14.1,11.7-25.6,25.8-25.6
		c14.2,0,25.8,11.7,25.7,25.9C131.1,114.8,119.6,126.3,105.4,126.3z"/>
</g>
</svg>
