<?xml version="1.0" encoding="utf-8"?>
<!-- Generator: Adobe Illustrator 17.1.0, SVG Export Plug-In . SVG Version: 6.00 Build 0)  -->
<!DOCTYPE svg PUBLIC "-//W3C//DTD SVG 1.1//EN" "http://www.w3.org/Graphics/SVG/1.1/DTD/svg11.dtd">
<svg version="1.1" id="Calque_1" xmlns="http://www.w3.org/2000/svg" xmlns:xlink="http://www.w3.org/1999/xlink" x="0px" y="0px"
	 viewBox="0 600 1440 783.2" enable-background="new 0 600 1440 783.2" xml:space="preserve">
<g id="Calque_2">
	<rect y="561.1" fill="#BB6F82" width="1440" height="938.9"/>
	<g id="XMLID_1_">
		<g>
			<path fill="#0A376D" d="M1318,1224.8c-2.6-7.6-5.9-14.5-9.8-20.1c-0.4-0.6-0.8-1-1.1-1.6c-0.7-5.2,4-8.5,7.5-7.5
				c0.8,0.8,1.7,1.6,2.4,2.5c3.1,3.4,5.8,7.4,8.2,12l0,0c17.3,33.1,16.3,93.2-0.1,125.1h-11.6
				C1328.6,1306.5,1329.6,1258.2,1318,1224.8z"/>
			<path fill="#D69476" d="M1325.2,1095.2v114.9c-2.4-4.5-5.1-8.6-8.2-12l1.4-4.1l-0.5-0.4l0,0v-9.4c0-1.4-0.6-2.7-1.5-3.7l-4.6-4.6
				c-0.7-0.7-1.3-1.1-2.2-1.4c-1.5-4.2-3.9-7.8-6.9-10.4l-22.3,0.5c-2.8,2.6-5.1,6.2-6.5,10.4c-0.6,0.6-0.9,1.3-0.9,2.2v1.2
				c-0.4,2-0.7,4-0.7,6.2c0,2.2,0.2,4.2,0.7,6.2v3.1c0,1.3,0.8,2.4,2,3l0,0c1.7,3.7,4,6.7,6.9,8.8h22.3l3.9-1
				c4,5.6,7.2,12.5,9.8,20.1c-0.8,0.2-1.4,0.3-2.2,0.3H1268c-5.2,0-9.4-4.2-9.4-9.4v-120.5c0-5.2,4.2-9.4,9.4-9.4h47.7
				C1321,1085.8,1325.2,1090,1325.2,1095.2z M1311.4,1124.9c0-6.7-3.4-12.6-8.6-16.1l-22.3,0.4c-4.9,3.6-8,9.2-8,15.7
				c0,7.2,3.8,13.4,9.5,16.8l20.4-0.1C1307.4,1138.1,1311.4,1131.5,1311.4,1124.9z"/>
			<path fill="#658FDB" d="M1318.4,1194l-1.4,4.1c-0.8-0.8-1.6-1.7-2.4-2.5c-3.5-0.9-8.2,2.4-7.5,7.5c0.4,0.6,0.8,1,1.1,1.6l-3.9,1
				c0,0-4.3-3.4-6.3-5l0,0c-0.6-0.5-0.9-0.8-0.9-0.8c-1.4-6.1,2.3-12,13.2-13.4l7.8,7.2L1318.4,1194z"/>
			<path fill="#658FDB" d="M1286,1200.7c-1.4-0.1-2.8-0.5-4.1-1l-6.7-2.7l0,0c-1.2-0.5-2-1.7-2-3v-3.1v-12.4v-1.2
				c0-0.8,0.4-1.6,0.9-2.2c0.6-0.5,1.2-0.8,2.1-0.8h31.6c0.7,0,1.4,0.1,2,0.4c0.8,0.3,1.6,0.8,2.2,1.4l4.6,4.6
				c0.9,0.9,1.5,2.3,1.5,3.7v9.4l0,0l-7.8-7.2c-10.9,1.4-14.6,7.3-13.2,13.4c0,0.1,0.4,0.4,0.9,0.8h-10.8
				C1286.8,1200.8,1286.4,1200.7,1286,1200.7z"/>
			<path fill="#F4C29D" d="M1302.8,1108.8c5.2,3.5,8.6,9.4,8.6,16.1c0,6.6-4,13.1-9,16.7l-20.4,0.1c-5.6-3.4-9.5-9.6-9.5-16.8
				c0-6.5,3.2-12.2,8-15.7L1302.8,1108.8z"/>
			<path fill="#F4C29D" d="M1309.8,1174.6c-0.7-0.2-1.3-0.4-2-0.4h-31.6c-0.8,0-1.5,0.3-2.1,0.8c1.4-4.1,3.7-7.7,6.5-10.4l22.3-0.5
				C1305.8,1166.8,1308.2,1170.4,1309.8,1174.6z"/>
			<path fill="#F4C29D" d="M1286,1200.7c0.4,0,0.8,0.1,1.2,0.1h10.7l0,0c2,1.7,6.3,5,6.3,5H1282c-2.8-2.2-5.3-5.2-6.9-8.8l0,0l0,0
				l6.7,2.7C1283.2,1200.3,1284.6,1200.6,1286,1200.7z"/>
			<path fill="#624B83" d="M1220.7,1306.3c0,6.1,0,25.2,0,28.9h-29.8v-9.7c0-5.2-4.2-9.4-9.4-9.4h-141.2c-5.2,0-9.4,4.2-9.4,9.4v9.7
				H354.3v-9.7c0-5.2-4.2-9.4-9.4-9.4H203.7c-5.2,0-9.4,4.2-9.4,9.4v9.7H163c0-3.6,0-22.8,0-28.9c0-8,5.6-11.3,11.9-13.9h1034
				C1215.1,1295.1,1220.7,1298.3,1220.7,1306.3z"/>
			<path fill="#1C2684" d="M1138.1,698v461.3c0,5.2-4.2,9.4-9.4,9.4H250.9c-5.2,0-9.4-4.2-9.4-9.4V698c0-5.2,4.2-9.4,9.4-9.4h877.9
				C1133.9,688.6,1138.1,692.8,1138.1,698z"/>
			
				<rect x="233.6" y="1111.8" fill="#595959" stroke="#000000" stroke-width="2" stroke-linecap="round" stroke-linejoin="round" stroke-miterlimit="10" width="920.9" height="78.1"/>
			<path fill="#624B83" d="M1218.6,627.4v602.5c0,5.2-4.2,9.4-9.4,9.4h-82.4H257h-78.1c-5.2,0-9.4-4.2-9.4-9.4V650.2v-22.8
				c0-5.2,4.2-9.4,9.4-9.4h1030.4C1214.4,618,1218.6,622.2,1218.6,627.4z M1156.5,1179.1v-498c0-5.2-4.2-9.4-9.4-9.4h-916
				c-5.2,0-9.4,4.2-9.4,9.4v498c0,5.2,4.2,9.4,9.4,9.4h916C1152.3,1188.5,1156.5,1184.3,1156.5,1179.1z"/>
			<path fill="#624B83" d="M1208.9,1292.4h-1034c1.3-0.6,2.6-1.1,4-1.7c7.7-3.3,78-34.2,78-34.2v1.6c0,5.2,4.2,9.4,9.4,9.4h851
				c5.2,0,9.4-4.2,9.4-9.4v-1.6c0,0,70.4,30.9,78,34.2C1206.2,1291.2,1207.6,1291.8,1208.9,1292.4z"/>
			<path fill="#097055" d="M1154.5,1335.3h-42.2h-42.2h-39.4v-9.7c0-5.2,4.2-9.4,9.4-9.4h141.2c5.2,0,9.4,4.2,9.4,9.4v9.7H1154.5z"
				/>
			<path fill="#334257" d="M1156.5,681.1v498c0,5.2-4.2,9.4-9.4,9.4h-916c-5.2,0-9.4-4.2-9.4-9.4v-498c0-5.2,4.2-9.4,9.4-9.4h916
				C1152.3,671.7,1156.5,675.9,1156.5,681.1z M1138.1,1159.3V698c0-5.2-4.2-9.4-9.4-9.4H250.9c-5.2,0-9.4,4.2-9.4,9.4v461.3
				c0,5.2,4.2,9.4,9.4,9.4h877.9C1133.9,1168.7,1138.1,1164.5,1138.1,1159.3z"/>
			<path fill="#624B83" d="M1126.8,1256.5v1.6c0,5.2-4.2,9.4-9.4,9.4h-851c-5.2,0-9.4-4.2-9.4-9.4v-1.6v-17.2h869.9V1256.5z"/>
			<path fill="#097055" d="M317.9,1335.3h-42.2h-42.2h-39.3v-9.7c0-5.2,4.2-9.4,9.4-9.4h141.2c5.2,0,9.4,4.2,9.4,9.4v9.7H317.9z"/>
			<path opacity="0.61" fill="#723442" enable-background="new    " d="M257,1239.2v17.2c0,0-70.4,30.9-78,34.2
				c-1.3,0.6-2.7,1.1-4,1.7c-6.3,2.7-11.9,5.9-11.9,13.9c0,6.1,0,25.2,0,28.9h-12.4l-0.2-0.2c0-17.5,2.5-38.4-5-38.4
				c-7.5,0-15.1,0-29.6,0s-13.7-1.8-13.7-13.7s0-551.7,0-586.8c0-35.1,11.3-33.2,19.5-38.9s47.9-6.9,47.9-6.9v579.6
				c0,5.2,4.2,9.4,9.4,9.4L257,1239.2L257,1239.2z"/>
		</g>
		<g>
			<path fill="none" stroke="#000000" stroke-width="2" stroke-linecap="round" stroke-linejoin="round" stroke-miterlimit="10" d="
				M169.4,650.2v-22.8c0-5.2,4.2-9.4,9.4-9.4h1030.4c5.2,0,9.4,4.2,9.4,9.4v602.5c0,5.2-4.2,9.4-9.4,9.4h-82.4H257h-78.1
				c-5.2,0-9.4-4.2-9.4-9.4L169.4,650.2L169.4,650.2z"/>
			<path fill="none" stroke="#000000" stroke-width="2" stroke-linecap="round" stroke-linejoin="round" stroke-miterlimit="10" d="
				M1156.5,1179.1c0,5.2-4.2,9.4-9.4,9.4h-916c-5.2,0-9.4-4.2-9.4-9.4v-498c0-5.2,4.2-9.4,9.4-9.4h916c5.2,0,9.4,4.2,9.4,9.4V1179.1
				z"/>
			<path fill="none" stroke="#000000" stroke-width="2" stroke-linecap="round" stroke-linejoin="round" stroke-miterlimit="10" d="
				M1138.1,1159.3c0,5.2-4.2,9.4-9.4,9.4H250.9c-5.2,0-9.4-4.2-9.4-9.4V698c0-5.2,4.2-9.4,9.4-9.4h877.9c5.2,0,9.4,4.2,9.4,9.4
				V1159.3z"/>
			<path fill="none" stroke="#000000" stroke-width="2" stroke-linecap="round" stroke-linejoin="round" stroke-miterlimit="10" d="
				M257,1239.2v17.2v1.6c0,5.2,4.2,9.4,9.4,9.4h851c5.2,0,9.4-4.2,9.4-9.4v-1.6v-17.2"/>
			<path fill="none" stroke="#000000" stroke-width="2" stroke-linecap="round" stroke-linejoin="round" stroke-miterlimit="10" d="
				M163,1335.3c0-3.6,0-22.8,0-28.9c0-8,5.6-11.3,11.9-13.9c1.3-0.6,2.6-1.1,4-1.7c7.7-3.3,78-34.2,78-34.2"/>
			<path fill="none" stroke="#000000" stroke-width="2" stroke-linecap="round" stroke-linejoin="round" stroke-miterlimit="10" d="
				M1220.7,1335.3c0-3.6,0-22.8,0-28.9c0-8-5.6-11.3-11.9-13.9c-1.3-0.6-2.6-1.1-4-1.7c-7.7-3.3-78-34.2-78-34.2"/>
			
				<polyline fill="none" stroke="#000000" stroke-width="2" stroke-linecap="round" stroke-linejoin="round" stroke-miterlimit="10" points="
				174.9,1292.4 1208.9,1292.4 1209,1292.4 			"/>
			<path fill="none" stroke="#000000" stroke-width="2" stroke-linecap="round" stroke-linejoin="round" stroke-miterlimit="10" d="
				M1318,1224.8L1318,1224.8c-0.8,0.2-1.4,0.3-2.2,0.3h-47.7c-5.2,0-9.4-4.2-9.4-9.4v-120.5c0-5.2,4.2-9.4,9.4-9.4h47.7
				c5.2,0,9.4,4.2,9.4,9.4v114.9"/>
			<path fill="none" stroke="#000000" stroke-width="2" stroke-linecap="round" stroke-linejoin="round" stroke-miterlimit="10" d="
				M1311.4,1124.9c0,6.6-4,13.1-9,16.7l-20.4,0.1c-5.6-3.4-9.5-9.6-9.5-16.8c0-6.5,3.2-12.2,8-15.7l22.3-0.4
				C1308,1112.3,1311.4,1118.3,1311.4,1124.9z"/>
			<path fill="none" stroke="#000000" stroke-width="2" stroke-linecap="round" stroke-linejoin="round" stroke-miterlimit="10" d="
				M1274.1,1175c1.4-4.1,3.7-7.7,6.5-10.4l22.3-0.5c3,2.5,5.4,6.1,6.9,10.4"/>
			<path fill="none" stroke="#000000" stroke-width="2" stroke-linecap="round" stroke-linejoin="round" stroke-miterlimit="10" d="
				M1273.1,1190.9c-0.4-2-0.7-4-0.7-6.2c0-2.2,0.2-4.2,0.7-6.2"/>
			<path fill="none" stroke="#000000" stroke-width="2" stroke-linecap="round" stroke-linejoin="round" stroke-miterlimit="10" d="
				M1304.3,1205.8H1282c-2.8-2.2-5.3-5.2-6.9-8.8"/>
			
				<line fill="none" stroke="#000000" stroke-width="2" stroke-linecap="round" stroke-linejoin="round" stroke-miterlimit="10" x1="1285.7" y1="1120.4" x2="1285.7" y2="1129.4"/>
			
				<line fill="none" stroke="#000000" stroke-width="2" stroke-linecap="round" stroke-linejoin="round" stroke-miterlimit="10" x1="1299.2" y1="1120.4" x2="1299.2" y2="1129.4"/>
			
				<line fill="none" stroke="#000000" stroke-width="2" stroke-linecap="round" stroke-linejoin="round" stroke-miterlimit="10" x1="1292" y1="1134.4" x2="1294.3" y2="1134.4"/>
			<path fill="none" stroke="#000000" stroke-width="2" stroke-linecap="round" stroke-linejoin="round" stroke-miterlimit="10" d="
				M1325.1,1335.3c16.4-31.9,17.4-92,0.1-125.1l0,0c-2.4-4.5-5.1-8.6-8.2-12c-0.8-0.8-1.6-1.7-2.4-2.5c-3.5-0.9-8.2,2.4-7.5,7.5
				c0.4,0.6,0.8,1,1.1,1.6c4,5.6,7.2,12.5,9.8,20.1c11.6,33.4,10.5,81.7-4.4,110.4"/>
			<path fill="none" stroke="#000000" stroke-width="2" stroke-linecap="round" stroke-linejoin="round" stroke-miterlimit="10" d="
				M1298,1200.8c2,1.7,6.3,5,6.3,5l3.9-1"/>
			<path fill="none" stroke="#000000" stroke-width="2" stroke-linecap="round" stroke-linejoin="round" stroke-miterlimit="10" d="
				M1317,1198.1l1.4-4.1l-0.5-0.4l-7.8-7.2c-10.9,1.4-14.6,7.3-13.2,13.4c0,0.1,0.4,0.4,0.9,0.8"/>
			<path fill="none" stroke="#000000" stroke-width="2" stroke-linecap="round" stroke-linejoin="round" stroke-miterlimit="10" d="
				M1298,1200.8L1298,1200.8h-10.7c-0.4,0-0.8,0-1.2-0.1c-1.4-0.1-2.8-0.5-4.1-1l-6.7-2.7l0,0c-1.2-0.5-2-1.7-2-3v-3.1v-12.4v-1.2
				c0-0.8,0.4-1.6,0.9-2.2c0.6-0.5,1.2-0.8,2.1-0.8h31.6c0.7,0,1.4,0.1,2,0.4c0.8,0.3,1.6,0.8,2.2,1.4l4.6,4.6
				c0.9,0.9,1.5,2.3,1.5,3.7v9.4"/>
			
				<line fill="none" stroke="#000000" stroke-width="2" stroke-linecap="round" stroke-linejoin="round" stroke-miterlimit="10" x1="1276.2" y1="1178.5" x2="1283.8" y2="1182.8"/>
			
				<line fill="none" stroke="#000000" stroke-width="2" stroke-linecap="round" stroke-linejoin="round" stroke-miterlimit="10" x1="1288.5" y1="1184.3" x2="1314.8" y2="1182.8"/>
			
				<polyline fill="none" stroke="#000000" stroke-width="2" stroke-linecap="round" stroke-linejoin="round" stroke-miterlimit="10" points="
				1286,1188.7 1286,1200.7 1286,1200.8 			"/>
			<path fill="none" stroke="#000000" stroke-width="2" stroke-linecap="round" stroke-linejoin="round" stroke-miterlimit="10" d="
				M1030.9,1335.3v-9.7c0-5.2,4.2-9.4,9.4-9.4h141.2c5.2,0,9.4,4.2,9.4,9.4v9.7"/>
			
				<line fill="none" stroke="#000000" stroke-width="2" stroke-linecap="round" stroke-linejoin="round" stroke-miterlimit="10" x1="1070.3" y1="1322.3" x2="1070.3" y2="1335.3"/>
			
				<line fill="none" stroke="#000000" stroke-width="2" stroke-linecap="round" stroke-linejoin="round" stroke-miterlimit="10" x1="1112.3" y1="1322.3" x2="1112.3" y2="1335.3"/>
			
				<line fill="none" stroke="#000000" stroke-width="2" stroke-linecap="round" stroke-linejoin="round" stroke-miterlimit="10" x1="1154.5" y1="1322.3" x2="1154.5" y2="1335.3"/>
			<path fill="none" stroke="#000000" stroke-width="2" stroke-linecap="round" stroke-linejoin="round" stroke-miterlimit="10" d="
				M194.3,1335.3v-9.7c0-5.2,4.2-9.4,9.4-9.4h141.2c5.2,0,9.4,4.2,9.4,9.4v9.7"/>
			
				<line fill="none" stroke="#000000" stroke-width="2" stroke-linecap="round" stroke-linejoin="round" stroke-miterlimit="10" x1="233.6" y1="1322.3" x2="233.6" y2="1335.3"/>
			
				<line fill="none" stroke="#000000" stroke-width="2" stroke-linecap="round" stroke-linejoin="round" stroke-miterlimit="10" x1="275.8" y1="1322.3" x2="275.8" y2="1335.3"/>
			
				<line fill="none" stroke="#000000" stroke-width="2" stroke-linecap="round" stroke-linejoin="round" stroke-miterlimit="10" x1="317.9" y1="1322.3" x2="317.9" y2="1335.3"/>
		</g>
	</g>
	<g>
		<g id="XMLID_2_">
			<g>
				<path fill="#3A0000" d="M1030.2,1125.3c-0.1,3.4-1.2,6.1-3.6,7.5c-2.3-0.4-3.9-1.4-4.7-3.2v-0.1
					C1024.3,1129.2,1026.9,1128.1,1030.2,1125.3z"/>
				<path fill="#3A0000" d="M1012.7,1103.2c0.2-1.5,2.3-3.1,6-0.4C1017.5,1103,1015.3,1103.1,1012.7,1103.2z"/>
				<path fill="#FFFFFF" d="M1014.2,1160.3c0.1,0.1,0,0.3-0.1,0.3h-71.8c-0.1,0-0.3-0.1-0.2-0.3l0.9-2.4h70.1v0.2L1014.2,1160.3z"/>
				<path fill="#FFD400" d="M1012,1103.3c0.2,0,0.4,0,0.7-0.1c2.7-0.1,4.8-0.2,6-0.4c1.5,1.1,3.2,2.8,5.3,5.5
					c4.2,5.7,6.4,12,6.4,16.9c-3.4,2.7-5.9,3.9-8.3,4.2c-1.8,0.2-3.4,0-5.2-0.4c-3.6-0.7-6.1,0.4-9.5,3.1c-0.8,0.7-1.7,1.4-2.7,2.3
					c-5,4.4-10.4-0.6-8-5c0,0-4,4.2-7.2,1.5c-2-1.3-2.4-3.4-1.8-5.6c-1.7,0-3.7-2-3.2-6.9c0.1-0.4,0.1-0.9,0.3-1.2
					c0.1-0.4,0.3-0.9,0.4-1.3c1.3-3.4,3.8-5.8,6.9-7.7C997.9,1104.8,1006.1,1103.7,1012,1103.3z"/>
				<path fill="#930000" d="M1035.4,1088.8c-4.5-35.6-6.4-49.7-10.4-53.7c5.5-1.9,5.8-2.1,8.7,0c27.4,22.6,43.3,71.8,29.7,82.6
					c-10.7,8.5-28,16.6-36.7,15.2c2.3-1.5,3.5-4.2,3.6-7.5c0.1-5-2.1-11.2-6.4-16.9c-2-2.7-3.7-4.5-5.3-5.5c-3.7-2.7-5.8-1.1-6,0.4
					c-0.2,0-0.4,0-0.7,0.1c-0.4-4.8,15.6-10.6,21.4-12.5C1033.9,1090.2,1034.6,1089.4,1035.4,1088.8z"/>
				<path fill="#930000" d="M1016.6,1071.6c-11.6-8-13.3-3.9-9.1,3.4h18.5C1035,1063.7,1022.9,1066.7,1016.6,1071.6z M974.5,1105.6
					c22-29.6,30.2-32.4,38.2-52.9c0.2-0.9-4.4-3.5-8.6-5.8c3-2.5,7.8-6.4,7.7-7.5c-0.1-1.3-2.5-9.9-6.4-16.6h0.1
					c10.1,5.8,15,8.7,19.1,11.9c0.1,0.1,0.4,0.3,0.5,0.4c4,4.1,6.1,18.1,10.4,53.7c-0.8,0.7-1.5,1.4-2,2
					c-5.8,1.9-21.8,7.7-21.4,12.5c-5.9,0.4-14,1.5-20,4.9c-4.5-0.4-7.8,1.3-8.6,3.5h-9.7C973.8,1109.6,974.1,1107.5,974.5,1105.6
					L974.5,1105.6z"/>
				<path fill="#03487C" d="M1007.6,1075c-4.3-7.3-2.6-11.4,9.1-3.4c6.3-5,18.3-8,9.4,3.4H1007.6z"/>
				<path fill="#FFFFFF" d="M951.9,960.6c-1.9,1.5-1.6,4.5,0,7.9c-0.7,1.7-1,3.6-0.9,5.5c-1.8,1.6-2.2,4.3-2.2,6.1
					c0,1.8-0.3,1.7-1.2,2c-0.9,0.3-1.1,0.4-2.1-1.3c-7.6-46.8,2-45.6,5.5-45.6c9,0,4.7-3.4,11.9-3.1c9.3,0.9,9.5-4,16.2-3.9
					c6.7,0.1,9.9,4.6,14.5,4.5c6.9,0,5.1,4.7,12.6,4.9c8.7,0.1,2.5,26.1-0.7,43.2c-0.9,0.4-1.8,1.2-2.5,1.8l-0.1-0.1
					c-1.5,0.6-2.6-2.1-2.6-5l0,0c1.4-2.3,1.7-5.1,0.7-7.7l0,0c3-2.3,1.8-7.1,0.6-7.7c1-0.7,2.3-12.8-1.1-15.7
					c-3.4-2.9-13.9,3.4-21.8,3.9c-8,0.4-17.6-12-27.1-2.7C949.3,949.7,950.5,959.8,951.9,960.6z"/>
				<path fill="#930000" d="M1004.1,1047c-3.6-1.9-6.9-3.5-6.9-3.5c0.1-1.2,0.3-2.3,0.4-3.6c0.7-5.9,0.9-12.5,0.7-20
					c0-0.5,0-1-0.1-1.5c0.3-0.8,0.5-1.8,0.7-2.8c2.4,1.4,4.5,4.2,6.4,7.2c3.9,6.7,6.4,15.3,6.4,16.6
					C1011.8,1040.7,1007.1,1044.5,1004.1,1047z"/>
				<path fill="#FFFFFF" d="M978.3,1032.2c13.7-2.2,19.4-11.2,20.1-12.3c0.2,7.5-0.1,14.1-0.7,20c0,0-12.3,8.5-13.2,6.2
					c-0.4-0.9-1.7-5.2-3.3-8.9C980.2,1035,979.2,1033,978.3,1032.2z"/>
				<path fill="#930000" d="M997.1,1043.5c0,0,3.3,1.6,6.9,3.5c4.2,2.3,8.8,4.9,8.6,5.8c-8,20.4-16.1,23.2-38.2,52.9l0,0
					c0.6-3.1,1.3-5.9,2.3-8.6c0.5-1.4,1-2.8,1.5-4.1c2.3-5.7,5.3-11,8.2-16.9C990.9,1067.4,995.1,1057.6,997.1,1043.5z"/>
				<circle fill="#1C0000" cx="992.8" cy="973.2" r="1.5"/>
				<path fill="#FFFFFF" d="M996.3,957.7c-0.2,1.8-3.7,1.3-5.3,1.2c-1.5-0.1-3.9,0.7-4.2-1.2c-0.4-1.9,2.7-2.7,5-2.7
					C993.9,955.1,996.3,956.3,996.3,957.7z"/>
				<path fill="#FFFFFF" d="M992.6,981.9c-9.1,0.6-11.2-11.8-6.3-15l0,0c3.5,0.1,9.4-0.4,11.9-0.9c1.4,1.1,2.3,2.5,2.8,3.9
					c0.9,2.6,0.7,5.3-0.7,7.7C998.9,979.8,996.3,981.7,992.6,981.9z M992.8,974.8c0.9,0,1.5-0.7,1.5-1.5c0-0.9-0.7-1.5-1.5-1.5
					c-0.9,0-1.5,0.7-1.5,1.5C991.2,974.1,991.9,974.8,992.8,974.8z"/>
				<path fill="#FFD400" d="M992,1108.2c-3.1,1.8-5.6,4.3-6.9,7.7c-1.7-1.3-2.1-2.8-1.7-4.2C984.1,1109.5,987.6,1107.8,992,1108.2z"
					/>
				<path fill="#FFD400" d="M959.6,1012.5c4.6,5.5,9.1-0.7,24.8,3c-0.2-0.1-4.7-2-0.9-4.9l0,0c-6.1-0.1-14.4-5.8-22.4-1.3
					C960.6,1010.3,960.2,1011.3,959.6,1012.5z M990.9,958.9c1.5,0.1,5.1,0.7,5.3-1.2c0.1-1.5-2.3-2.7-4.5-2.7s-5.3,0.8-5,2.7
					C987.1,959.6,989.5,958.8,990.9,958.9z M961.1,958c1.2,0.1,5.1,1.5,5.5-0.7c0.4-2.2-2.1-2.7-4.7-2.8c-2.7-0.1-5.3-0.3-5.2,2
					C956.7,958.7,959.8,957.9,961.1,958z M998.4,1019.9c-0.7,1.2-6.4,10.1-20.1,12.3c-1.8,0.3-3.7,0.4-5.6,0.5c-0.9,0-1.7,0-2.5-0.1
					c-16.6-0.9-21.2-13.2-21.3-13.7l0,0c-0.1-0.2-0.3-0.4-0.4-0.6c-0.5-0.8-0.9-1.8-1.1-2.8c-0.6-2.8-0.4-6.6,0.1-12.1
					c0.6-6.9-0.9-9.7-0.9-13.3l0,0c-6.9,3-8.4-2.8-8.3-6.9c0.1-4.1,6.3-4.2,7.3-2.6c1.1,1.7,1.2,1.5,2.1,1.3c0.9-0.3,1.2-0.2,1.2-2
					c0-1.8,0.4-4.5,2.2-6.1c0.4,3.7,2.7,7.1,8.5,7.1c11.6,0.1,12.5-12.2,7.9-15.3l0,0c-4,0.2-10.4-0.7-12.6-0.9l0,0
					c-1.2,0.7-2.3,2-3,3.7c-1.6-3.4-1.9-6.4,0-7.9c-1.4-0.8-2.5-10.8-0.3-13c9.5-9.3,19.1,3.2,27.1,2.7c8-0.4,18.5-6.8,21.8-3.9
					c3.4,2.9,2.1,15,1.1,15.7c1.3,0.7,2.4,5.4-0.6,7.7l0,0c-0.5-1.5-1.5-2.8-2.8-3.9c-2.5,0.6-8.4,1.1-11.9,0.9l0,0
					c-5,3.3-2.8,15.6,6.3,15c3.7-0.2,6.4-2,7.8-4.5l0,0c0,2.9,1.1,5.5,2.6,5l0.1,0.1c0.7-0.7,1.5-1.4,2.5-1.8
					c1.2-0.6,2.5-0.7,3.6,0.4c2.1,2.3,1.4,12.8-6.4,10h-0.3c0.1,1.8,0.1,4.2,0,5.9c-0.1,3.1-3.1,8.2-3.1,13.9
					c0.1,1.8-0.1,3.4-0.2,4.7c-0.1,1.1-0.4,2-0.7,2.8C998.3,1018.9,998.4,1019.4,998.4,1019.9z"/>
				<path fill="#1E0000" d="M960.9,1009.3c8.1-4.5,16.4,1.2,22.4,1.3l0,0c-3.7,2.8,0.7,4.8,0.9,4.9c-15.6-3.7-20.2,2.6-24.8-3
					C960.2,1011.3,960.6,1010.3,960.9,1009.3z"/>
				<path fill="#FFFFFF" d="M997.1,1043.5c-2,14.1-6.4,23.9-10.7,32.6c-0.1-1.7-4.1-17.5-7.8-28.7c1.1-0.9,1.7-3.5,2.5-10.1
					c1.5,3.7,2.9,8,3.3,8.9c0.9,2.3,13.2-6.2,13.2-6.2C997.5,1041.2,997.4,1042.3,997.1,1043.5z"/>
				<path fill="#930000" d="M978.3,1092.9c-0.6,1.3-1.1,2.7-1.5,4.1c-29.3-15.8-41.8-45.1-40.2-46.1c1.3-0.9,5.4-3.2,10.7-6.1
					c1.2-0.7,2.4-1.2,3.7-1.9l0.3-0.1c3.2,14.5,8.6,25.7,13.7,33.8C971.8,1087.6,978.3,1092.9,978.3,1092.9z"/>
				<path fill="#03487C" d="M986.5,1076.1c-2.9,5.8-5.8,11.1-8.2,16.9c0,0-6.4-5.3-13.4-16.1c0,0,1.5-12.9,6.8-29.2
					c0.9,0.8,1.8,0.4,3.4,0.4c1.7-0.1,2.8,0.2,3.7-0.6C982.4,1058.6,986.3,1074.4,986.5,1076.1z"/>
				<path fill="#03487C" d="M981.2,1037.2c-0.7,6.6-1.4,9.2-2.5,10.1c-0.9,0.7-2,0.5-3.7,0.6c-1.6,0-2.4,0.4-3.4-0.4
					c-1.1-0.9-2.3-3.3-4.9-9.3l0,0c1-2.1,2.1-4.1,3.4-5.5v-0.1c0.8,0.1,1.6,0.1,2.5,0.1c2,0,3.9-0.2,5.6-0.5
					C979.2,1033,980.2,1035,981.2,1037.2z"/>
				<path fill="#FFFFFF" d="M963.3,1047c0.3-0.9,1.6-5,3.4-8.8l0,0c2.6,6.1,3.8,8.5,4.9,9.3c-5.3,16.4-6.8,29.2-6.8,29.2
					c-5.2-8.1-10.6-19.3-13.7-33.8c-0.3-1.2-0.5-2.5-0.7-3.7C950.4,1039.2,962.9,1048.3,963.3,1047z"/>
				<path fill="#FFFFFF" d="M951,1131.3l1.7-3.6l0,0c4.2,3.7,7,4.5,9.6,2.6c0.9-0.7,1.5-1.9,1.2-3.6h0.1c4.1-0.9,5-4.2,2-9.3
					l0.1-0.1h18.8c-0.1,0.4-0.2,0.8-0.3,1.2c-0.5,5,1.5,6.9,3.2,6.9c-0.7,2.3-0.1,4.4,1.8,5.6c3.2,2.6,7.2-1.5,7.2-1.5
					c-2.4,4.4,3,9.3,8,5c0.9-0.9,1.8-1.6,2.7-2.3l9.3,23.1c0.1,0.1-0.1,0.4-0.2,0.4h-1.5l-72.7-0.6h-1.8c-0.2,0-0.4-0.2-0.2-0.4
					l8-17.1c0.9,0.1,2-0.1,2.9-0.8C952.7,1135.6,952.2,1133.5,951,1131.3z"/>
				<path fill="#FFFFFF" d="M966.5,957.3c-0.4,2.2-4.2,0.8-5.5,0.7c-1.2-0.1-4.5,0.7-4.5-1.5c-0.1-2.3,2.6-2.1,5.2-2
					C964.5,954.6,967,955.1,966.5,957.3z"/>
				<path fill="#FFD400" d="M964.6,1111.8c0.4,0.9,0.4,2.1-0.1,3.6c-0.3-0.4-0.5-0.8-0.9-1.2c-1.4-1.9-3.2-3.4-5.5-4.8
					C960.9,1109.1,963.7,1109.7,964.6,1111.8z"/>
				<circle fill="#1C0000" cx="961.1" cy="972" r="1.5"/>
				<path fill="#FFFFFF" d="M961.1,973.6c0.9,0,1.5-0.7,1.5-1.5c0-0.9-0.7-1.5-1.5-1.5c-0.9,0-1.5,0.7-1.5,1.5
					S960.3,973.6,961.1,973.6z M951.9,968.4c0.7-1.7,1.8-3.1,3-3.7l0,0c2.1,0.3,8.6,1.2,12.6,0.9l0,0c4.6,3.1,3.7,15.4-7.9,15.3
					c-5.8-0.1-8.1-3.4-8.5-7.1C950.8,972,951.2,970.1,951.9,968.4z"/>
				<path fill="#FFFFFF" d="M963.3,1047c-0.4,1.3-12.9-7.8-12.9-7.8c-1.2-6.4-1.9-13.3-2-20.8c0.1,0.2,0.3,0.4,0.4,0.6l0,0
					c0.1,0.4,4.7,12.8,21.3,13.7v0.1c-1.2,1.4-2.4,3.4-3.4,5.5C964.9,1042,963.6,1046.1,963.3,1047z"/>
				<path fill="#930000" d="M914.6,1089.5c0-1.3-0.3-2.4-1.1-3.3l0,0c-1.4-3.4,13.5-46.3,4.7-53.5c-0.6-0.4-1.2-0.7-2-0.9
					c12.9-7.7,23.7-10.7,26.7-11.5c-3.1,5.2-6.4,13.4-7.7,18.6c-0.2,1.1,11,5.5,12,6c-5.3,2.8-9.4,5.2-10.7,6.1
					c-1.5,1,10.9,30.3,40.2,46.1c-0.9,2.7-1.7,5.5-2.3,8.6c-0.4,2-0.7,3.9-0.8,6.1h-9l-0.1,0.1c-0.9-2-3.7-2.7-6.5-2.4
					c-4.7-2.7-11.4-4.2-20-5v-0.1c-0.1-1-0.7-1.8-1.3-2.2c-3.9-2.8-10.9-6.9-13.5-8.4C921.5,1092.7,918.5,1090.7,914.6,1089.5z"/>
				<path fill="#930000" d="M950.4,1039.2c0.2,1.2,0.5,2.5,0.7,3.7l-0.3,0.1c-1.2,0.7-2.5,1.3-3.7,1.9c-1-0.4-12.3-4.8-12-6
					c1.2-5.3,4.7-13.5,7.7-18.6c1.8-3,3.4-4.9,4.4-4.7c0.2,1.1,0.6,2,1.1,2.8C948.5,1025.9,949.2,1032.8,950.4,1039.2z"/>
				<path fill="#FFFFFF" d="M1013.1,1157.9H943h-2.3l1.4-2.7l72.7,0.6l0,0l0.9,1.7c0.1,0.2,0,0.4-0.3,0.4L1013.1,1157.9
					L1013.1,1157.9z"/>
				<path fill="#930000" d="M936.8,1102.1c0.7,0.4,1.2,1.2,1.3,2.2v0.1c-3.1-0.2-6.6-0.4-10.2-0.4
					C931.5,1101.6,934.9,1100.9,936.8,1102.1z"/>
				<path fill="#930000" d="M881.8,1078.1c9-27.8,26.1-47.8,34.4-46.3c0.7,0.1,1.4,0.4,2,0.9c8.8,7.2-6.1,50.2-4.7,53.5l0,0
					c0.9,0.9,1.2,2,1.1,3.3c3.9,1.2,6.9,3.3,8.8,4.2c2.6,1.5,9.6,5.6,13.5,8.4c-1.8-1.2-5.3-0.5-8.9,2c-2.6,1.8-5.3,4.3-7.6,7.7
					c-2.5,3.7-3.6,8.8-3.5,13.1l0,0c0.1,5.3,2.2,9.5,5.8,8.1c-3,2-11.3,0.9-21.9-6.1C880.2,1113.1,872,1108.4,881.8,1078.1z"/>
				<path fill="#3A0000" d="M916.8,1124.9c0.2,0.3,3,4,9.6,5.1v0.1c-1.4,1.6-2.7,2.6-3.8,2.9l0,0
					C919,1134.3,917,1130.2,916.8,1124.9z"/>
				<path fill="#FFD400" d="M965.7,1117.3c2.9,5.2,2,8.4-2,9.3h-0.1c0.2,1.7-0.4,2.9-1.2,3.6c-2.6,2-5.4,1.1-9.6-2.6
					c-0.1-0.1-0.3-0.2-0.4-0.4c-3.6-3.1-9-4.8-9.3-4.9c0.2,0.1,5.6,4.7,8,8.8c1.2,2.2,1.7,4.3-0.1,5.5c-0.9,0.7-2,0.9-2.9,0.8
					c-2.3-0.3-4.6-2.5-6.2-3.8c-2.2-1.9-3.4-3.9-10.7-3.7c-1.8,0.1-3.3,0-4.7-0.2c-6.6-1-9.4-4.8-9.6-5.1l0,0
					c-0.1-4.3,1-9.4,3.5-13.1c2.3-3.4,5-5.9,7.6-7.7c3.7,0,7.1,0.1,10.2,0.4c8.6,0.7,15.3,2.3,20,5c2.3,1.3,4.2,2.9,5.5,4.8
					c0.3,0.4,0.6,0.8,0.9,1.2C964.9,1116,965.4,1116.7,965.7,1117.3z"/>
			</g>
			<g>
				
					<path fill="none" stroke="#000000" stroke-width="2" stroke-linecap="round" stroke-linejoin="round" stroke-miterlimit="10" d="
					M954.1,964.6c0,0,0.2,0.1,0.7,0.1c2.1,0.3,8.6,1.2,12.6,0.9c0.2,0,0.4,0,0.7-0.1"/>
				
					<path fill="none" stroke="#000000" stroke-width="2" stroke-linecap="round" stroke-linejoin="round" stroke-miterlimit="10" d="
					M954.9,964.7c-1.2,0.7-2.3,2-3,3.7c-0.7,1.7-1,3.6-0.9,5.5c0.4,3.7,2.7,7.1,8.5,7.1c11.6,0.1,12.5-12.2,7.9-15.3"/>
				
					<path fill="none" stroke="#000000" stroke-width="2" stroke-linecap="round" stroke-linejoin="round" stroke-miterlimit="10" d="
					M998.8,965.7c-0.1,0.1-0.4,0.1-0.6,0.1c-2.5,0.6-8.4,1.1-11.9,0.9c-0.4,0-0.8-0.1-1.1-0.1"/>
				
					<path fill="none" stroke="#000000" stroke-width="2" stroke-linecap="round" stroke-linejoin="round" stroke-miterlimit="10" d="
					M998.2,965.9c1.4,1.1,2.3,2.5,2.8,3.9c0.9,2.6,0.7,5.3-0.7,7.7c-1.5,2.4-4.1,4.2-7.8,4.5c-9.1,0.6-11.2-11.8-6.3-15"/>
				
					<path fill="none" stroke="#000000" stroke-width="2" stroke-linecap="round" stroke-linejoin="round" stroke-miterlimit="10" d="
					M961.1,958c1.2,0.1,5.1,1.5,5.5-0.7c0.4-2.2-2.1-2.7-4.7-2.8c-2.7-0.1-5.3-0.3-5.2,2C956.7,958.7,959.8,957.9,961.1,958z"/>
				
					<path fill="none" stroke="#000000" stroke-width="2" stroke-linecap="round" stroke-linejoin="round" stroke-miterlimit="10" d="
					M996.3,957.7c0.1-1.5-2.3-2.7-4.5-2.7s-5.3,0.8-5,2.7c0.4,1.9,2.8,1.1,4.2,1.2C992.5,959,996,959.6,996.3,957.7z"/>
				
					<path fill="none" stroke="#000000" stroke-width="2" stroke-linecap="round" stroke-linejoin="round" stroke-miterlimit="10" d="
					M951.9,968.4c-1.6-3.4-1.9-6.4,0-7.9c-1.4-0.8-2.5-10.8-0.3-13c9.5-9.3,19.1,3.2,27.1,2.7c8-0.4,18.5-6.8,21.8-3.9
					c3.4,2.9,2.1,15,1.1,15.7c1.3,0.7,2.4,5.4-0.6,7.7"/>
				
					<path fill="none" stroke="#000000" stroke-width="2" stroke-linecap="round" stroke-linejoin="round" stroke-miterlimit="10" d="
					M1000.4,977.4c0,2.9,1.1,5.5,2.6,5"/>
				
					<path fill="none" stroke="#000000" stroke-width="2" stroke-linecap="round" stroke-linejoin="round" stroke-miterlimit="10" d="
					M1002.3,983.1c0.2-0.2,0.4-0.4,0.7-0.7c0.7-0.7,1.5-1.4,2.5-1.8c1.2-0.6,2.5-0.7,3.6,0.4c2.1,2.3,1.4,12.8-6.4,10"/>
				
					<path fill="none" stroke="#000000" stroke-width="2" stroke-linecap="round" stroke-linejoin="round" stroke-miterlimit="10" d="
					M1007.6,983.7c-0.6-0.3-1.5,0.1-2.1,0.7c-0.7,0.6-1.2,1.3-1.2,1.8"/>
				
					<path fill="none" stroke="#000000" stroke-width="2" stroke-linecap="round" stroke-linejoin="round" stroke-miterlimit="10" d="
					M1006.2,986.8c0-1.3-0.8-2.4-0.8-2.4"/>
				
					<path fill="none" stroke="#000000" stroke-width="2" stroke-linecap="round" stroke-linejoin="round" stroke-miterlimit="10" d="
					M1001.7,988.5c0.4,0.1,0.6,1.2,0.7,2.6c0.1,1.8,0.1,4.2,0,5.9c-0.1,3.1-3.1,8.2-3.1,13.9c0.1,1.8-0.1,3.4-0.2,4.7
					c-0.1,1.1-0.4,2-0.7,2.8c-1,2.9-2.7,4.5-4.7,5.5"/>
				
					<path fill="none" stroke="#000000" stroke-width="2" stroke-linecap="round" stroke-linejoin="round" stroke-miterlimit="10" d="
					M948.8,1019c-0.1-0.2-0.3-0.4-0.4-0.6c-0.5-0.8-0.9-1.8-1.1-2.8c-0.6-2.8-0.4-6.6,0.1-12.1c0.6-6.9-0.9-9.7-0.9-13.3
					c0-0.8,0.1-1.6,0.3-2.6"/>
				
					<path fill="none" stroke="#000000" stroke-width="2" stroke-linecap="round" stroke-linejoin="round" stroke-miterlimit="10" d="
					M952.4,1021.7c-1.5-0.8-2.7-1.7-3.6-2.7"/>
				
					<path fill="none" stroke="#000000" stroke-width="2" stroke-linecap="round" stroke-linejoin="round" stroke-miterlimit="10" d="
					M951,973.9c-1.8,1.6-2.2,4.3-2.2,6.1s-0.3,1.7-1.2,2c-0.9,0.3-1.1,0.4-2.1-1.3c-1.1-1.7-7.2-1.5-7.3,2.6
					c-0.1,4.1,1.4,9.9,8.3,6.9"/>
				
					<path fill="none" stroke="#000000" stroke-width="2" stroke-linecap="round" stroke-linejoin="round" stroke-miterlimit="10" d="
					M945.5,985.6c-0.2-1.2-0.5-2-0.9-2.5c-0.9-1-2.2-0.7-3.7,0.1"/>
				
					<path fill="none" stroke="#000000" stroke-width="2" stroke-linecap="round" stroke-linejoin="round" stroke-miterlimit="10" d="
					M943.3,986.2c-0.9-2.1,0.4-2.8,1.4-3.1"/>
				
					<path fill="none" stroke="#000000" stroke-width="2" stroke-linecap="round" stroke-linejoin="round" stroke-miterlimit="10" d="
					M967.4,981c-2.6,3.4-6.9,4-10.1,3.9"/>
				
					<path fill="none" stroke="#000000" stroke-width="2" stroke-linecap="round" stroke-linejoin="round" stroke-miterlimit="10" d="
					M981.7,970.7c3.2,6.9,4.5,20,4.2,23.9c0,0-0.1,5.4-15.1,1.5"/>
				
					<path fill="none" stroke="#000000" stroke-width="2" stroke-linecap="round" stroke-linejoin="round" stroke-miterlimit="10" d="
					M986,983c3.4,2,7.7,2,9.7,1.9"/>
				
					<path fill="none" stroke="#000000" stroke-width="2" stroke-linecap="round" stroke-linejoin="round" stroke-miterlimit="10" d="
					M965.3,996.9c-4.7,4.5-2.6,6.9-4.3,12.4c-0.3,0.9-0.7,2-1.3,3.2c-0.4,0.8-0.9,1.6-1.5,2.6"/>
				
					<path fill="none" stroke="#000000" stroke-width="2" stroke-linecap="round" stroke-linejoin="round" stroke-miterlimit="10" d="
					M984.4,1015.5L984.4,1015.5c-0.2-0.1-4.7-2-0.9-4.9"/>
				
					<path fill="none" stroke="#000000" stroke-width="2" stroke-linecap="round" stroke-linejoin="round" stroke-miterlimit="10" d="
					M959.6,1012.5c4.6,5.5,9.1-0.7,24.8,3"/>
				
					<path fill="none" stroke="#000000" stroke-width="2" stroke-linecap="round" stroke-linejoin="round" stroke-miterlimit="10" d="
					M988.4,1009.8c3.3-1.4,4.5-4.8,0.9-12.4"/>
				
					<path fill="none" stroke="#000000" stroke-width="2" stroke-linecap="round" stroke-linejoin="round" stroke-miterlimit="10" d="
					M960.9,1009.3c8.1-4.5,16.4,1.2,22.4,1.3c0.1,0,0.2,0,0.3,0c1.8,0,3.4-0.2,4.7-0.8"/>
				
					<path fill="none" stroke="#000000" stroke-width="2" stroke-linecap="round" stroke-linejoin="round" stroke-miterlimit="10" d="
					M984.4,1021.7c3.4-1.8,7-4,3.7-7.2c-2.7-2.6-0.9-3.9,0.4-4.6l0,0"/>
				
					<path fill="none" stroke="#000000" stroke-width="2" stroke-linecap="round" stroke-linejoin="round" stroke-miterlimit="10" d="
					M945.5,980.6c-7.6-46.8,2-45.6,5.5-45.6c9,0,4.7-3.4,11.9-3.1c9.3,0.9,9.5-4,16.2-3.9c6.7,0.1,9.9,4.6,14.5,4.5
					c6.9,0,5.1,4.7,12.6,4.9c8.7,0.1,2.5,26.1-0.7,43.2"/>
				
					<path fill="none" stroke="#000000" stroke-width="2" stroke-linecap="round" stroke-linejoin="round" stroke-miterlimit="10" d="
					M947.3,1015.5c-1-0.1-2.6,1.8-4.4,4.7c-3.1,5.2-6.4,13.4-7.7,18.6c-0.2,1.1,11,5.5,12,6c0.1,0,0.1,0,0.1,0"/>
				
					<path fill="none" stroke="#000000" stroke-width="2" stroke-linecap="round" stroke-linejoin="round" stroke-miterlimit="10" d="
					M950.8,1043c-1.2,0.7-2.5,1.3-3.7,1.9c-5.3,2.8-9.4,5.2-10.7,6.1c-1.5,1,10.9,30.3,40.2,46.1"/>
				
					<path fill="none" stroke="#000000" stroke-width="2" stroke-linecap="round" stroke-linejoin="round" stroke-miterlimit="10" d="
					M973.7,1111.7c0.1-2.1,0.4-4.2,0.8-6.1c0.6-3.1,1.3-5.9,2.3-8.6c0.5-1.4,1-2.8,1.5-4.1c2.3-5.7,5.3-11,8.2-16.9
					c4.3-8.7,8.6-18.5,10.7-32.6c0.1-1.2,0.3-2.3,0.4-3.6c0.7-5.9,0.9-12.5,0.7-20c0-0.5,0-1-0.1-1.5"/>
				
					<path fill="none" stroke="#000000" stroke-width="2" stroke-linecap="round" stroke-linejoin="round" stroke-miterlimit="10" d="
					M999,1015.5c2.4,1.4,4.5,4.2,6.4,7.2c3.9,6.7,6.4,15.3,6.4,16.6c0.1,1.2-4.7,5-7.7,7.5"/>
				
					<path fill="none" stroke="#000000" stroke-width="2" stroke-linecap="round" stroke-linejoin="round" stroke-miterlimit="10" d="
					M974.5,1105.6c22-29.6,30.2-32.4,38.2-52.9c0.2-0.9-4.4-3.5-8.6-5.8c-3.6-1.9-6.9-3.5-6.9-3.5"/>
				
					<path fill="none" stroke="#000000" stroke-width="2" stroke-linecap="round" stroke-linejoin="round" stroke-miterlimit="10" d="
					M1005.3,1022.8c10.1,5.8,15,8.7,19.1,11.9c0.1,0.1,0.4,0.3,0.5,0.4c4,4.1,6.1,18.1,10.4,53.7"/>
				
					<path fill="none" stroke="#000000" stroke-width="2" stroke-linecap="round" stroke-linejoin="round" stroke-miterlimit="10" d="
					M1025,1035.1c5.5-1.9,5.8-2.1,8.7,0c27.4,22.6,43.3,71.8,29.7,82.6c-10.7,8.5-28,16.6-36.7,15.2c-2.3-0.4-3.9-1.4-4.7-3.2"/>
				
					<path fill="none" stroke="#000000" stroke-width="2" stroke-linecap="round" stroke-linejoin="round" stroke-miterlimit="10" d="
					M1012.7,1103.5c0-0.1,0-0.1,0-0.1c0.2-1.5,2.3-3.1,6-0.4c1.5,1.1,3.2,2.8,5.3,5.5c4.2,5.7,6.4,12,6.4,16.9
					c-0.1,3.4-1.2,6.1-3.6,7.5c-0.1,0.1-0.1,0.1-0.3,0.1"/>
				
					<path fill="none" stroke="#000000" stroke-width="2" stroke-linecap="round" stroke-linejoin="round" stroke-miterlimit="10" d="
					M1042.5,1090.6c0,0-5.3-0.9-7.2-0.4c-0.3,0.1-0.9,0.3-1.9,0.6c-5.8,1.9-21.8,7.7-21.4,12.5v0.1"/>
				
					<path fill="none" stroke="#000000" stroke-width="2" stroke-linecap="round" stroke-linejoin="round" stroke-miterlimit="10" d="
					M1033.4,1090.8c0.5-0.7,1.2-1.4,2-2c2.3-1.8,5.6-3,10.1-1.1"/>
				
					<path fill="none" stroke="#000000" stroke-width="2" stroke-linecap="round" stroke-linejoin="round" stroke-miterlimit="10" d="
					M1030.2,1125.3L1030.2,1125.3c-3.4,2.8-5.9,3.9-8.3,4.2c-1.8,0.2-3.4,0-5.2-0.4c-3.6-0.7-6.1,0.4-9.5,3.1
					c-0.8,0.7-1.7,1.4-2.7,2.3c-5,4.4-10.4-0.6-8-5c2-3.7,7.4-8.6,8.8-8.8"/>
				
					<path fill="none" stroke="#000000" stroke-width="2" stroke-linecap="round" stroke-linejoin="round" stroke-miterlimit="10" d="
					M1018.7,1102.9c-1.2,0.1-3.4,0.2-6,0.4c-0.2,0-0.4,0-0.7,0.1c-5.9,0.4-14,1.5-20,4.9c-3.1,1.8-5.6,4.3-6.9,7.7
					c-0.1,0.4-0.3,0.9-0.4,1.3c-0.1,0.4-0.2,0.8-0.3,1.2c-0.5,5,1.5,6.9,3.2,6.9l0,0"/>
				
					<path fill="none" stroke="#000000" stroke-width="2" stroke-linecap="round" stroke-linejoin="round" stroke-miterlimit="10" d="
					M1001.1,1112.3c-6.7,2.8-12.3,8.5-13.5,13.1c-0.7,2.3-0.1,4.4,1.8,5.6c3.2,2.6,7.2-1.5,7.2-1.5"/>
				
					<path fill="none" stroke="#000000" stroke-width="2" stroke-linecap="round" stroke-linejoin="round" stroke-miterlimit="10" d="
					M992,1108.2c-4.5-0.4-7.8,1.3-8.6,3.5c-0.5,1.3,0,2.8,1.7,4.2"/>
				
					<polyline fill="none" stroke="#000000" stroke-width="2" stroke-linecap="round" stroke-linejoin="round" stroke-miterlimit="10" points="
					1004.2,1075 1007.6,1075 1026.1,1075 1027.2,1075 				"/>
				
					<path fill="none" stroke="#000000" stroke-width="2" stroke-linecap="round" stroke-linejoin="round" stroke-miterlimit="10" d="
					M1007.6,1075c-4.3-7.3-2.6-11.4,9.1-3.4c0.4,0.2,0.7,0.4,1,0.7"/>
				
					<path fill="none" stroke="#000000" stroke-width="2" stroke-linecap="round" stroke-linejoin="round" stroke-miterlimit="10" d="
					M1016.6,1071.6c6.3-5,18.3-8,9.4,3.4"/>
				
					<path fill="none" stroke="#000000" stroke-width="2" stroke-linecap="round" stroke-linejoin="round" stroke-miterlimit="10" d="
					M978.3,1092.9c0,0-6.4-5.3-13.4-16.1c-5.2-8.1-10.6-19.3-13.7-33.8c-0.3-1.2-0.5-2.5-0.7-3.7c-1.2-6.4-1.9-13.3-2-20.8"/>
				
					<path fill="none" stroke="#000000" stroke-width="2" stroke-linecap="round" stroke-linejoin="round" stroke-miterlimit="10" d="
					M948.8,1019L948.8,1019c0.1,0.4,4.7,12.8,21.3,13.7c0.8,0.1,1.6,0.1,2.5,0.1c2,0,3.9-0.2,5.6-0.5c13.7-2.2,19.4-11.2,20.1-12.3
					c0.1-0.1,0.1-0.1,0.1-0.1"/>
				
					<path fill="none" stroke="#000000" stroke-width="2" stroke-linecap="round" stroke-linejoin="round" stroke-miterlimit="10" d="
					M970.2,1032.7c-1.2,1.4-2.4,3.4-3.4,5.5c-1.8,3.9-3.1,8-3.4,8.8c-0.4,1.3-12.9-7.8-12.9-7.8"/>
				
					<path fill="none" stroke="#000000" stroke-width="2" stroke-linecap="round" stroke-linejoin="round" stroke-miterlimit="10" d="
					M978.3,1032.2c0.9,0.8,2,2.8,2.8,5c1.5,3.7,2.9,8,3.3,8.9c0.9,2.3,13.2-6.2,13.2-6.2"/>
				
					<path fill="none" stroke="#000000" stroke-width="2" stroke-linecap="round" stroke-linejoin="round" stroke-miterlimit="10" d="
					M966.8,1038.2c2.6,6.1,3.8,8.5,4.9,9.3c0.9,0.8,1.8,0.4,3.4,0.4c1.7-0.1,2.8,0.2,3.7-0.6c1.1-0.9,1.7-3.5,2.5-10.1"/>
				
					<path fill="none" stroke="#000000" stroke-width="2" stroke-linecap="round" stroke-linejoin="round" stroke-miterlimit="10" d="
					M971.7,1047.5L971.7,1047.5c-5.3,16.4-6.8,29.3-6.8,29.3"/>
				
					<path fill="none" stroke="#000000" stroke-width="2" stroke-linecap="round" stroke-linejoin="round" stroke-miterlimit="10" d="
					M978.7,1047.4c3.7,11.2,7.6,27,7.8,28.7"/>
				
					<path fill="none" stroke="#000000" stroke-width="2" stroke-linecap="round" stroke-linejoin="round" stroke-miterlimit="10" d="
					M922.7,1133c-3,2-11.3,0.9-21.9-6.1c-20.5-13.7-28.8-18.4-19-48.7c9-27.8,26.1-47.8,34.4-46.3c0.7,0.1,1.4,0.4,2,0.9
					c8.8,7.2-6.1,50.2-4.7,53.5"/>
				
					<path fill="none" stroke="#000000" stroke-width="2" stroke-linecap="round" stroke-linejoin="round" stroke-miterlimit="10" d="
					M916.8,1124.9c0.1,5.3,2.2,9.5,5.8,8.1l0,0c1.1-0.4,2.4-1.4,3.8-2.9"/>
				
					<path fill="none" stroke="#000000" stroke-width="2" stroke-linecap="round" stroke-linejoin="round" stroke-miterlimit="10" d="
					M938.1,1104.3c-0.1-1-0.7-1.8-1.3-2.2c-1.8-1.2-5.3-0.5-8.9,2c-2.6,1.8-5.3,4.3-7.6,7.7c-2.5,3.7-3.6,8.8-3.5,13.1"/>
				
					<path fill="none" stroke="#000000" stroke-width="2" stroke-linecap="round" stroke-linejoin="round" stroke-miterlimit="10" d="
					M903.2,1084.2c5.8-0.1,8.8,0.6,10.2,2l0,0c0.9,0.9,1.2,2,1.1,3.3"/>
				
					<path fill="none" stroke="#000000" stroke-width="2" stroke-linecap="round" stroke-linejoin="round" stroke-miterlimit="10" d="
					M903.5,1089.5c4.2-1.3,7.9-0.9,11,0c3.9,1.2,6.9,3.3,8.8,4.2c2.6,1.5,9.6,5.6,13.5,8.4"/>
				
					<path fill="none" stroke="#000000" stroke-width="2" stroke-linecap="round" stroke-linejoin="round" stroke-miterlimit="10" d="
					M927.8,1104L927.8,1104c3.7,0,7.1,0.1,10.2,0.4c8.6,0.7,15.3,2.3,20,5c2.3,1.3,4.2,2.9,5.5,4.8c0.3,0.4,0.6,0.8,0.9,1.2
					c0.4,0.7,0.9,1.3,1.2,2c2.9,5.2,2,8.4-2,9.3"/>
				
					<path fill="none" stroke="#000000" stroke-width="2" stroke-linecap="round" stroke-linejoin="round" stroke-miterlimit="10" d="
					M943,1122.4c0.2,0.1,5.6,4.7,8,8.8c1.2,2.2,1.7,4.3-0.1,5.5c-0.9,0.7-2,0.9-2.9,0.8c-2.3-0.3-4.6-2.5-6.2-3.8
					c-2.2-1.9-3.4-3.9-10.7-3.7c-1.8,0.1-3.3,0-4.7-0.2c-6.6-1-9.4-4.8-9.6-5.1l0,0l0,0"/>
				
					<path fill="none" stroke="#000000" stroke-width="2" stroke-linecap="round" stroke-linejoin="round" stroke-miterlimit="10" d="
					M949.3,1112.3c10.3,5.7,13.9,11,14.3,14.3c0.2,1.7-0.4,2.9-1.2,3.6c-2.6,2-5.4,1.1-9.6-2.6c-0.1-0.1-0.3-0.2-0.4-0.4
					c-3.6-3.1-9-4.8-9.3-4.9l0,0"/>
				
					<path fill="none" stroke="#000000" stroke-width="2" stroke-linecap="round" stroke-linejoin="round" stroke-miterlimit="10" d="
					M958.1,1109.4L958.1,1109.4c2.8-0.3,5.5,0.4,6.5,2.4c0.4,0.9,0.4,2.1-0.1,3.6"/>
				
					<circle fill="none" stroke="#000000" stroke-width="2" stroke-linecap="round" stroke-linejoin="round" stroke-miterlimit="10" cx="961.1" cy="972" r="1.5"/>
				
					<circle fill="none" stroke="#000000" stroke-width="2" stroke-linecap="round" stroke-linejoin="round" stroke-miterlimit="10" cx="992.8" cy="973.2" r="1.5"/>
				
					<path fill="none" stroke="#000000" stroke-width="2" stroke-linecap="round" stroke-linejoin="round" stroke-miterlimit="10" d="
					M916.2,1031.8c12.9-7.7,23.7-10.7,26.7-11.5"/>
				
					<path fill="none" stroke="#000000" stroke-width="2" stroke-linecap="round" stroke-linejoin="round" stroke-miterlimit="10" d="
					M948,1137.6l-8,17.1c-0.1,0.2,0.1,0.4,0.2,0.4h1.8l72.7,0.6h1.5c0.2,0,0.3-0.2,0.2-0.4l-9.3-23.1"/>
				
					<line fill="none" stroke="#000000" stroke-width="2" stroke-linecap="round" stroke-linejoin="round" stroke-miterlimit="10" x1="952.7" y1="1127.7" x2="951" y2="1131.3"/>
				
					<path fill="none" stroke="#000000" stroke-width="2" stroke-linecap="round" stroke-linejoin="round" stroke-miterlimit="10" d="
					M942,1155.2L942,1155.2l-1.4,2.7h2.3h70.1h2.3c0.2,0,0.4-0.2,0.3-0.4l-0.9-1.7"/>
				
					<path fill="none" stroke="#000000" stroke-width="2" stroke-linecap="round" stroke-linejoin="round" stroke-miterlimit="10" d="
					M943,1157.9l-0.9,2.4c-0.1,0.1,0.1,0.3,0.2,0.3h71.8c0.1,0,0.2-0.1,0.1-0.3l-1.1-2.3"/>
				
					<polyline fill="none" stroke="#000000" stroke-width="2" stroke-linecap="round" stroke-linejoin="round" stroke-miterlimit="10" points="
					965.9,1117.2 984.7,1117.2 984.7,1117.2 				"/>
				
					<polyline fill="none" stroke="#000000" stroke-width="2" stroke-linecap="round" stroke-linejoin="round" stroke-miterlimit="10" points="
					964.7,1111.7 973.7,1111.7 983.4,1111.7 983.5,1111.7 				"/>
			</g>
		</g>
		<path fill="none" stroke="#000000" stroke-width="2" stroke-linecap="round" stroke-linejoin="round" stroke-miterlimit="10" d="
			M948.1,940.9c-0.2,2.1,0.7,4.5,1.8,5"/>
		<path fill="none" stroke="#000000" stroke-width="2" stroke-linecap="round" stroke-linejoin="round" stroke-miterlimit="10" d="
			M951.4,937.5c0.1,1.6,0.4,3.6,1.4,4.1"/>
		<path fill="none" stroke="#000000" stroke-width="2" stroke-linecap="round" stroke-linejoin="round" stroke-miterlimit="10" d="
			M958.6,936.5c-0.1,2,0.6,4.3,1.2,4.7"/>
		<path fill="none" stroke="#000000" stroke-width="2" stroke-linecap="round" stroke-linejoin="round" stroke-miterlimit="10" d="
			M965.5,935.1c-0.2,2,0.5,6.4,0.8,6.5"/>
		<path fill="none" stroke="#000000" stroke-width="2" stroke-linecap="round" stroke-linejoin="round" stroke-miterlimit="10" d="
			M974,933.7c-1.1,2-1.8,7.8,0.9,11.9"/>
		<path fill="none" stroke="#000000" stroke-width="2" stroke-linecap="round" stroke-linejoin="round" stroke-miterlimit="10" d="
			M987.1,934.6c0.5,2.6-0.1,7.5-2.3,10.4"/>
		<path fill="none" stroke="#000000" stroke-width="2" stroke-linecap="round" stroke-linejoin="round" stroke-miterlimit="10" d="
			M994.4,936c0.2,2.2-1.2,6.4-2.3,7.2"/>
		<path fill="none" stroke="#000000" stroke-width="2" stroke-linecap="round" stroke-linejoin="round" stroke-miterlimit="10" d="
			M1000,938.9c-0.3,2-1.3,3.5-1.7,3.8"/>
		<path fill="none" stroke="#000000" stroke-width="2" stroke-linecap="round" stroke-linejoin="round" stroke-miterlimit="10" d="
			M1005.3,941.2c-0.7,1.9-1.7,3.3-2.3,3.9"/>
		<path fill="none" stroke="#000000" stroke-width="2" stroke-linecap="round" stroke-linejoin="round" stroke-miterlimit="10" d="
			M1007.7,944.4c-0.4,3-2.2,5-2.4,5.2"/>
	</g>
</g>
</svg>
