<?xml version="1.0" encoding="utf-8"?>
<!-- Generator: Adobe Illustrator 17.1.0, SVG Export Plug-In . SVG Version: 6.00 Build 0)  -->
<!DOCTYPE svg PUBLIC "-//W3C//DTD SVG 1.1//EN" "http://www.w3.org/Graphics/SVG/1.1/DTD/svg11.dtd">
<svg version="1.1" xmlns="http://www.w3.org/2000/svg" xmlns:xlink="http://www.w3.org/1999/xlink" x="0px" y="0px"
	 viewBox="0 0 1440 900" enable-background="new 0 0 1440 900" xml:space="preserve">
<g id="Calque_1" display="none">
	
		<image display="inline" overflow="visible" width="1440" height="900" xlink:href="Capture d’écran 2014-06-10 à 15.40.57 copie.png"  transform="matrix(0.9999 0 0 0.9999 -470 -750)">
	</image>
</g>
<g id="Calque_2">
	<g>
		<rect x="-121.8" fill="#BB6F82" width="1688" height="912"/>
		<g id="XMLID_1_">
			<g>
				<path fill="#0A376D" d="M1407.7,727.5c-3-8.8-6.8-16.6-11.3-23.1c-0.4-0.6-0.9-1.2-1.3-1.8c-0.7-6,4.7-9.7,8.7-8.7
					c1,0.9,1.9,1.9,2.9,2.9c3.5,3.9,6.7,8.6,9.4,13.8c0,0,0,0,0,0c20,38.2,18.7,107.2-0.1,144h-13.3
					C1419.8,821.5,1421,766,1407.7,727.5z"/>
				<path fill="#D69476" d="M1416,578.3v132.2c-2.7-5.2-5.9-9.9-9.4-13.8l1.6-4.7l-0.5-0.5v0v-10.8c0-1.6-0.6-3.1-1.8-4.2l-5.3-5.3
					c-0.7-0.7-1.6-1.3-2.5-1.6c-1.7-4.8-4.5-9-7.9-11.9l-25.7,0.6c-3.3,3-5.9,7.1-7.5,11.9c-0.6,0.6-1,1.5-1,2.4v1.4
					c-0.5,2.3-0.7,4.7-0.7,7.2c0,2.5,0.2,4.9,0.7,7.2v3.6c0,1.5,0.9,2.8,2.3,3.4l0,0c1.9,4.2,4.6,7.7,7.9,10.2l25.7,0l4.4-1.2
					c4.5,6.5,8.3,14.4,11.3,23.1c-0.8,0.2-1.6,0.3-2.5,0.3h-54.9c-6,0-10.8-4.9-10.8-10.8V578.3c0-6,4.8-10.8,10.8-10.8h54.9
					C1411.1,567.4,1416,572.3,1416,578.3z M1400.1,612.6c0-7.7-3.9-14.5-9.9-18.6l-25.7,0.4c-5.6,4.1-9.2,10.7-9.2,18.1
					c0,8.2,4.4,15.3,10.9,19.2l23.5-0.1C1395.5,627.7,1400.1,620.2,1400.1,612.6z"/>
				<path fill="#658FDB" d="M1408.2,692l-1.6,4.7c-0.9-1-1.9-2-2.9-2.9c-4-1.1-9.4,2.7-8.7,8.7c0.4,0.6,0.9,1.2,1.3,1.8l-4.4,1.2
					c0,0-5-3.9-7.3-5.8h0c-0.7-0.6-1.1-1-1.1-1c-1.6-7,2.6-13.8,15.2-15.4l9,8.2L1408.2,692z"/>
				<path fill="#658FDB" d="M1370.9,699.7c-1.6-0.1-3.3-0.5-4.8-1.2l-7.7-3.2h0c-1.4-0.6-2.3-1.9-2.3-3.4v-3.6v-14.3v-1.4
					c0-1,0.4-1.8,1-2.4c0.6-0.6,1.5-1,2.4-1h36.4c0.8,0,1.6,0.1,2.3,0.4c0.9,0.3,1.8,0.9,2.5,1.6l5.3,5.3c1.1,1.1,1.8,2.6,1.8,4.2
					v10.8v0l-9-8.2c-12.6,1.6-16.8,8.4-15.2,15.4c0,0.1,0.4,0.5,1.1,1h-12.4C1371.8,699.8,1371.3,699.8,1370.9,699.7z"/>
				<path fill="#F4C29D" d="M1390.2,594c6,4,9.9,10.8,9.9,18.6c0,7.6-4.6,15.1-10.4,19.2l-23.5,0.1c-6.5-3.9-10.9-11.1-10.9-19.2
					c0-7.5,3.6-14,9.2-18.1L1390.2,594z"/>
				<path fill="#F4C29D" d="M1398.2,669.7c-0.7-0.3-1.5-0.4-2.3-0.4h-36.4c-0.9,0-1.7,0.4-2.4,1c1.6-4.8,4.2-8.9,7.5-11.9l25.7-0.6
					C1393.7,660.7,1396.4,664.8,1398.2,669.7z"/>
				<path fill="#F4C29D" d="M1370.9,699.7c0.5,0,0.9,0.1,1.4,0.1h12.4h0c2.3,1.9,7.3,5.8,7.3,5.8l-25.7,0c-3.3-2.5-6-6-7.9-10.2l0,0
					h0l7.7,3.2C1367.6,699.2,1369.2,699.6,1370.9,699.7z"/>
				<path fill="#624B83" d="M1295.8,821.3c0,7,0,29.1,0,33.2h-34.3v-11.2c0-6-4.9-10.8-10.8-10.8h-162.5c-6,0-10.8,4.8-10.8,10.8
					v11.2H298.8v-11.2c0-6-4.9-10.8-10.8-10.8H125.5c-6,0-10.8,4.8-10.8,10.8v11.2H78.7c0-4.1,0-26.2,0-33.2
					c0-9.2,6.4-12.9,13.6-16.1h1189.8C1289.4,808.3,1295.8,812,1295.8,821.3z"/>
				<path fill="#624B83" d="M1293.3,40v693.2c0,6-4.9,10.8-10.8,10.8h-94.8H186.8H96.9c-6,0-10.8-4.8-10.8-10.8v-667V40
					c0-6,4.8-10.8,10.8-10.8h1185.5C1288.4,29.2,1293.3,34,1293.3,40z M1221.8,674.8v-573c0-6-4.9-10.8-10.8-10.8H157
					c-6,0-10.8,4.9-10.8,10.8v573c0,6,4.8,10.8,10.8,10.8H1211C1217,685.6,1221.8,680.8,1221.8,674.8z"/>
				<path fill="#624B83" d="M1282.2,805.2H92.4c1.5-0.7,3.1-1.3,4.6-2c8.8-3.8,89.8-39.4,89.8-39.4v1.9c0,6,4.9,10.8,10.8,10.8
					h979.2c6,0,10.8-4.8,10.8-10.8v-1.9c0,0,81,35.6,89.8,39.4C1279.1,803.9,1280.6,804.5,1282.2,805.2z"/>
				<path fill="#097055" d="M1219.6,854.5h-48.5h-48.5h-45.3v-11.2c0-6,4.8-10.8,10.8-10.8h162.5c6,0,10.8,4.8,10.8,10.8v11.2
					H1219.6z"/>
				<path fill="#334257" d="M1221.8,101.8v573c0,6-4.9,10.8-10.8,10.8H157c-6,0-10.8-4.9-10.8-10.8v-573c0-6,4.8-10.8,10.8-10.8
					H1211C1217,90.9,1221.8,95.8,1221.8,101.8z M1200.7,652V121.3c0-6-4.9-10.8-10.8-10.8H179.8c-6,0-10.8,4.9-10.8,10.8V652
					c0,6,4.9,10.8,10.8,10.8h1010.1C1195.8,662.9,1200.7,658,1200.7,652z"/>
				<path fill="#1C2684" d="M1200.7,121.3V652c0,6-4.9,10.8-10.8,10.8H179.8c-6,0-10.8-4.9-10.8-10.8V121.3c0-6,4.9-10.8,10.8-10.8
					h1010.1C1195.8,110.4,1200.7,115.3,1200.7,121.3z"/>
				<path fill="#624B83" d="M1187.7,763.9v1.9c0,6-4.9,10.8-10.8,10.8H197.7c-6,0-10.8-4.8-10.8-10.8v-1.9v-19.8h1000.9V763.9z"/>
				<path fill="#097055" d="M256.9,854.5h-48.5H160h-45.3v-11.2c0-6,4.9-10.8,10.8-10.8H288c6,0,10.8,4.8,10.8,10.8v11.2H256.9z"/>
				<path opacity="0.61" fill="#723442" d="M186.8,744.1v19.8c0,0-81,35.6-89.8,39.4c-1.5,0.7-3.1,1.3-4.6,2
					c-7.2,3.1-13.6,6.8-13.6,16.1c0,7,0,29.1,0,33.2H64.4l-0.3-0.3c0-20.1,2.9-44.2-5.8-44.2s-17.3,0-34,0
					c-16.7,0-15.8-2.1-15.8-15.8c0-13.7,0-634.8,0-675.2S18.6,77.7,31,72.5c12-5,55.1-6.2,55.1-6.2v667c0,6,4.8,10.8,10.8,10.8
					H186.8z"/>
			</g>
			<g>
				
					<path fill="none" stroke="#000000" stroke-width="2" stroke-linecap="round" stroke-linejoin="round" stroke-miterlimit="10" d="
					M86.1,66.3V40c0-6,4.8-10.8,10.8-10.8h1185.5c6,0,10.8,4.8,10.8,10.8v693.2c0,6-4.9,10.8-10.8,10.8h-94.8H186.8H96.9
					c-6,0-10.8-4.8-10.8-10.8V66.3z"/>
				
					<path fill="none" stroke="#000000" stroke-width="2" stroke-linecap="round" stroke-linejoin="round" stroke-miterlimit="10" d="
					M1221.8,674.8c0,6-4.9,10.8-10.8,10.8H157c-6,0-10.8-4.9-10.8-10.8v-573c0-6,4.8-10.8,10.8-10.8H1211c6,0,10.8,4.9,10.8,10.8
					V674.8z"/>
				
					<path fill="none" stroke="#000000" stroke-width="2" stroke-linecap="round" stroke-linejoin="round" stroke-miterlimit="10" d="
					M1200.7,652c0,6-4.9,10.8-10.8,10.8H179.8c-6,0-10.8-4.9-10.8-10.8V121.3c0-6,4.9-10.8,10.8-10.8h1010.1c6,0,10.8,4.9,10.8,10.8
					V652z"/>
				
					<path fill="none" stroke="#000000" stroke-width="2" stroke-linecap="round" stroke-linejoin="round" stroke-miterlimit="10" d="
					M186.8,744.1v19.8v1.9c0,6,4.9,10.8,10.8,10.8h979.2c6,0,10.8-4.8,10.8-10.8v-1.9v-19.8"/>
				
					<path fill="none" stroke="#000000" stroke-width="2" stroke-linecap="round" stroke-linejoin="round" stroke-miterlimit="10" d="
					M78.7,854.5c0-4.1,0-26.2,0-33.2c0-9.2,6.4-12.9,13.6-16.1c1.5-0.7,3.1-1.3,4.6-2c8.8-3.8,89.8-39.4,89.8-39.4"/>
				
					<path fill="none" stroke="#000000" stroke-width="2" stroke-linecap="round" stroke-linejoin="round" stroke-miterlimit="10" d="
					M1295.8,854.5c0-4.1,0-26.2,0-33.2c0-9.2-6.4-12.9-13.6-16.1c-1.5-0.7-3.1-1.3-4.6-2c-8.8-3.8-89.8-39.4-89.8-39.4"/>
				
					<polyline fill="none" stroke="#000000" stroke-width="2" stroke-linecap="round" stroke-linejoin="round" stroke-miterlimit="10" points="
					92.4,805.2 1282.2,805.2 1282.3,805.2 				"/>
				
					<path fill="none" stroke="#000000" stroke-width="2" stroke-linecap="round" stroke-linejoin="round" stroke-miterlimit="10" d="
					M1407.7,727.5L1407.7,727.5c-0.8,0.2-1.7,0.3-2.5,0.3h-54.9c-6,0-10.8-4.9-10.8-10.8V578.3c0-6,4.8-10.8,10.8-10.8h54.9
					c6,0,10.8,4.9,10.8,10.8v132.2"/>
				
					<path fill="none" stroke="#000000" stroke-width="2" stroke-linecap="round" stroke-linejoin="round" stroke-miterlimit="10" d="
					M1400.1,612.6c0,7.6-4.6,15.1-10.4,19.2l-23.5,0.1c-6.5-3.9-10.9-11.1-10.9-19.2c0-7.5,3.6-14,9.2-18.1l25.7-0.4
					C1396.2,598,1400.1,604.8,1400.1,612.6z"/>
				
					<path fill="none" stroke="#000000" stroke-width="2" stroke-linecap="round" stroke-linejoin="round" stroke-miterlimit="10" d="
					M1357.1,670.2c1.6-4.8,4.2-8.9,7.5-11.9l25.7-0.6c3.4,2.9,6.2,7.1,7.9,11.9"/>
				
					<path fill="none" stroke="#000000" stroke-width="2" stroke-linecap="round" stroke-linejoin="round" stroke-miterlimit="10" d="
					M1356.1,688.4c-0.5-2.3-0.7-4.7-0.7-7.2c0-2.5,0.2-4.9,0.7-7.2"/>
				
					<path fill="none" stroke="#000000" stroke-width="2" stroke-linecap="round" stroke-linejoin="round" stroke-miterlimit="10" d="
					M1391.9,705.6l-25.7,0c-3.3-2.5-6-6-7.9-10.2"/>
				
					<line fill="none" stroke="#000000" stroke-width="2" stroke-linecap="round" stroke-linejoin="round" stroke-miterlimit="10" x1="1370.5" y1="607.3" x2="1370.5" y2="617.6"/>
				
					<line fill="none" stroke="#000000" stroke-width="2" stroke-linecap="round" stroke-linejoin="round" stroke-miterlimit="10" x1="1386" y1="607.3" x2="1386" y2="617.6"/>
				
					<line fill="none" stroke="#000000" stroke-width="2" stroke-linecap="round" stroke-linejoin="round" stroke-miterlimit="10" x1="1377.7" y1="623.4" x2="1380.4" y2="623.4"/>
				
					<path fill="none" stroke="#000000" stroke-width="2" stroke-linecap="round" stroke-linejoin="round" stroke-miterlimit="10" d="
					M1415.9,854.5c18.8-36.8,20.1-105.8,0.1-144c0,0,0,0,0,0c-2.7-5.2-5.9-9.9-9.4-13.8c-0.9-1-1.9-2-2.9-2.9
					c-4-1.1-9.4,2.7-8.7,8.7c0.4,0.6,0.9,1.2,1.3,1.8c4.5,6.5,8.3,14.4,11.3,23.1c13.3,38.5,12.2,94.1-5.1,127"/>
				
					<path fill="none" stroke="#000000" stroke-width="2" stroke-linecap="round" stroke-linejoin="round" stroke-miterlimit="10" d="
					M1384.7,699.8c2.3,1.9,7.3,5.8,7.3,5.8l4.4-1.2"/>
				
					<path fill="none" stroke="#000000" stroke-width="2" stroke-linecap="round" stroke-linejoin="round" stroke-miterlimit="10" d="
					M1406.6,696.7l1.6-4.7l-0.5-0.5l-9-8.2c-12.6,1.6-16.8,8.4-15.2,15.4c0,0.1,0.4,0.5,1.1,1"/>
				
					<path fill="none" stroke="#000000" stroke-width="2" stroke-linecap="round" stroke-linejoin="round" stroke-miterlimit="10" d="
					M1384.7,699.8L1384.7,699.8h-12.4c-0.5,0-1,0-1.4-0.1c-1.6-0.1-3.3-0.5-4.8-1.2l-7.7-3.2h0c-1.4-0.6-2.3-1.9-2.3-3.4v-3.6v-14.3
					v-1.4c0-1,0.4-1.8,1-2.4c0.6-0.6,1.5-1,2.4-1h36.4c0.8,0,1.6,0.1,2.3,0.4c0.9,0.3,1.8,0.9,2.5,1.6l5.3,5.3
					c1.1,1.1,1.8,2.6,1.8,4.2v10.8"/>
				
					<line fill="none" stroke="#000000" stroke-width="2" stroke-linecap="round" stroke-linejoin="round" stroke-miterlimit="10" x1="1359.7" y1="674.1" x2="1368.3" y2="679.2"/>
				
					<line fill="none" stroke="#000000" stroke-width="2" stroke-linecap="round" stroke-linejoin="round" stroke-miterlimit="10" x1="1373.7" y1="680.8" x2="1404.1" y2="679.2"/>
				
					<polyline fill="none" stroke="#000000" stroke-width="2" stroke-linecap="round" stroke-linejoin="round" stroke-miterlimit="10" points="
					1370.9,685.9 1370.9,699.7 1370.9,699.8 				"/>
				
					<path fill="none" stroke="#000000" stroke-width="2" stroke-linecap="round" stroke-linejoin="round" stroke-miterlimit="10" d="
					M1077.3,854.5v-11.2c0-6,4.8-10.8,10.8-10.8h162.5c6,0,10.8,4.8,10.8,10.8v11.2"/>
				
					<line fill="none" stroke="#000000" stroke-width="2" stroke-linecap="round" stroke-linejoin="round" stroke-miterlimit="10" x1="1122.6" y1="839.6" x2="1122.6" y2="854.5"/>
				
					<line fill="none" stroke="#000000" stroke-width="2" stroke-linecap="round" stroke-linejoin="round" stroke-miterlimit="10" x1="1171.1" y1="839.6" x2="1171.1" y2="854.5"/>
				
					<line fill="none" stroke="#000000" stroke-width="2" stroke-linecap="round" stroke-linejoin="round" stroke-miterlimit="10" x1="1219.6" y1="839.6" x2="1219.6" y2="854.5"/>
				
					<path fill="none" stroke="#000000" stroke-width="2" stroke-linecap="round" stroke-linejoin="round" stroke-miterlimit="10" d="
					M114.7,854.5v-11.2c0-6,4.9-10.8,10.8-10.8H288c6,0,10.8,4.8,10.8,10.8v11.2"/>
				
					<line fill="none" stroke="#000000" stroke-width="2" stroke-linecap="round" stroke-linejoin="round" stroke-miterlimit="10" x1="160" y1="839.6" x2="160" y2="854.5"/>
				
					<line fill="none" stroke="#000000" stroke-width="2" stroke-linecap="round" stroke-linejoin="round" stroke-miterlimit="10" x1="208.5" y1="839.6" x2="208.5" y2="854.5"/>
				
					<line fill="none" stroke="#000000" stroke-width="2" stroke-linecap="round" stroke-linejoin="round" stroke-miterlimit="10" x1="256.9" y1="839.6" x2="256.9" y2="854.5"/>
			</g>
		</g>
	</g>
</g>
</svg>
